%TF.GenerationSoftware,KiCad,Pcbnew,7.0.9-7.0.9~ubuntu22.04.1*%
%TF.CreationDate,2026-01-09T16:00:09+02:00*%
%TF.ProjectId,ESP32-C3-DevKit-Lipo_Rev_C,45535033-322d-4433-932d-4465764b6974,C*%
%TF.SameCoordinates,PX7b89fa0PY6e37550*%
%TF.FileFunction,Copper,L2,Bot*%
%TF.FilePolarity,Positive*%
%FSLAX46Y46*%
G04 Gerber Fmt 4.6, Leading zero omitted, Abs format (unit mm)*
G04 Created by KiCad (PCBNEW 7.0.9-7.0.9~ubuntu22.04.1) date 2026-01-09 16:00:09*
%MOMM*%
%LPD*%
G01*
G04 APERTURE LIST*
%TA.AperFunction,ComponentPad*%
%ADD10O,1.200000X2.200000*%
%TD*%
%TA.AperFunction,ComponentPad*%
%ADD11O,1.300000X2.000000*%
%TD*%
%TA.AperFunction,ComponentPad*%
%ADD12R,1.400000X1.400000*%
%TD*%
%TA.AperFunction,ComponentPad*%
%ADD13C,1.400000*%
%TD*%
%TA.AperFunction,ComponentPad*%
%ADD14R,1.450000X1.450000*%
%TD*%
%TA.AperFunction,SMDPad,CuDef*%
%ADD15R,0.508000X0.762000*%
%TD*%
%TA.AperFunction,SMDPad,CuDef*%
%ADD16R,0.550000X0.500000*%
%TD*%
%TA.AperFunction,SMDPad,CuDef*%
%ADD17R,0.500000X0.550000*%
%TD*%
%TA.AperFunction,SMDPad,CuDef*%
%ADD18R,3.000000X1.600000*%
%TD*%
%TA.AperFunction,FiducialPad,Global*%
%ADD19C,1.000000*%
%TD*%
%TA.AperFunction,SMDPad,CuDef*%
%ADD20R,1.000000X1.400000*%
%TD*%
%TA.AperFunction,SMDPad,CuDef*%
%ADD21R,1.016000X1.016000*%
%TD*%
%TA.AperFunction,ComponentPad*%
%ADD22R,1.778000X1.778000*%
%TD*%
%TA.AperFunction,ComponentPad*%
%ADD23C,1.778000*%
%TD*%
%TA.AperFunction,SMDPad,CuDef*%
%ADD24R,0.550000X1.200000*%
%TD*%
%TA.AperFunction,ViaPad*%
%ADD25C,1.000000*%
%TD*%
%TA.AperFunction,ViaPad*%
%ADD26C,0.600000*%
%TD*%
%TA.AperFunction,ViaPad*%
%ADD27C,0.700000*%
%TD*%
%TA.AperFunction,Conductor*%
%ADD28C,1.016000*%
%TD*%
%TA.AperFunction,Conductor*%
%ADD29C,0.508000*%
%TD*%
%TA.AperFunction,Conductor*%
%ADD30C,0.406400*%
%TD*%
%TA.AperFunction,Conductor*%
%ADD31C,0.127000*%
%TD*%
%TA.AperFunction,Conductor*%
%ADD32C,0.254000*%
%TD*%
%TA.AperFunction,Conductor*%
%ADD33C,0.762000*%
%TD*%
%TA.AperFunction,Conductor*%
%ADD34C,0.203200*%
%TD*%
G04 APERTURE END LIST*
D10*
%TO.P,USB-C1,0,SHELL*%
%TO.N,GND*%
X19179000Y6586000D03*
X10539000Y6586000D03*
D11*
X19179000Y2406000D03*
X10539000Y2406000D03*
%TD*%
D12*
%TO.P,BAT1,1*%
%TO.N,VBAT*%
X6845300Y10522680D03*
D13*
%TO.P,BAT1,2*%
%TO.N,GND*%
X4815840Y10520140D03*
%TD*%
D14*
%TO.P,U3,49,GND*%
%TO.N,GND*%
X13970000Y32258000D03*
%TD*%
D15*
%TO.P,BAT_PWR_E1,1,1*%
%TO.N,Net-(BAT_PWR_E1-Pad1)*%
X19431000Y19304000D03*
%TO.P,BAT_PWR_E1,2,2*%
%TO.N,VBAT*%
X20193000Y19304000D03*
%TD*%
D16*
%TO.P,R6,1*%
%TO.N,Net-(BAT_PWR_E1-Pad1)*%
X19177000Y20701000D03*
%TO.P,R6,2*%
%TO.N,Net-(BAT_SENS_E1-Pad1)*%
X19177000Y21717000D03*
%TD*%
%TO.P,R8,1*%
%TO.N,+5V*%
X21336000Y14351000D03*
%TO.P,R8,2*%
%TO.N,Net-(PWR_SENS_E1-Pad1)*%
X21336000Y15367000D03*
%TD*%
D17*
%TO.P,R10,1*%
%TO.N,Net-(U2-FB)*%
X20066000Y3987800D03*
%TO.P,R10,2*%
%TO.N,+3.3V*%
X19050000Y3987800D03*
%TD*%
D18*
%TO.P,L1,1,1*%
%TO.N,Net-(U2-LX)*%
X12954000Y2229000D03*
%TO.P,L1,2,2*%
%TO.N,+3.3V*%
X12954000Y4629000D03*
%TD*%
D16*
%TO.P,R1,1*%
%TO.N,+5V*%
X21082000Y9779000D03*
%TO.P,R1,2*%
%TO.N,GND*%
X21082000Y8763000D03*
%TD*%
D17*
%TO.P,R11,1*%
%TO.N,Net-(U2-FB)*%
X19050000Y4927600D03*
%TO.P,R11,2*%
%TO.N,GND*%
X20066000Y4927600D03*
%TD*%
D16*
%TO.P,C3,1*%
%TO.N,GND*%
X21209000Y20701000D03*
%TO.P,C3,2*%
%TO.N,Net-(BAT_SENS_E1-Pad1)*%
X21209000Y21717000D03*
%TD*%
D19*
%TO.P,FID4,Fid1,FID\u002A*%
%TO.N,unconnected-(FID4-FID\u002A-PadFid1)*%
X1270000Y1270000D03*
%TD*%
D15*
%TO.P,BAT_SENS_E1,1,1*%
%TO.N,Net-(BAT_SENS_E1-Pad1)*%
X20193000Y23114000D03*
%TO.P,BAT_SENS_E1,2,2*%
%TO.N,/GPIO5\u005CBAT_MEASURE*%
X19431000Y23114000D03*
%TD*%
D16*
%TO.P,R7,1*%
%TO.N,Net-(BAT_SENS_E1-Pad1)*%
X20193000Y21717000D03*
%TO.P,R7,2*%
%TO.N,GND*%
X20193000Y20701000D03*
%TD*%
D17*
%TO.P,R9,1*%
%TO.N,Net-(PWR_SENS_E1-Pad1)*%
X21336000Y16383000D03*
%TO.P,R9,2*%
%TO.N,GND*%
X22352000Y16383000D03*
%TD*%
D15*
%TO.P,PWR_SENS_E1,1,1*%
%TO.N,Net-(PWR_SENS_E1-Pad1)*%
X20193000Y16256000D03*
%TO.P,PWR_SENS_E1,2,2*%
%TO.N,/GPIO1\u005CEXT_PWR_SENSE*%
X19431000Y16256000D03*
%TD*%
D17*
%TO.P,R5,1*%
%TO.N,Net-(U1-PROG)*%
X16002000Y12573000D03*
%TO.P,R5,2*%
%TO.N,GND*%
X17018000Y12573000D03*
%TD*%
D20*
%TO.P,FET1,1*%
%TO.N,+5V*%
X20888960Y11211560D03*
%TO.P,FET1,2*%
%TO.N,Net-(D2-K)*%
X18986500Y11211560D03*
%TO.P,FET1,3*%
%TO.N,VBAT*%
X19941540Y13421360D03*
%TD*%
D21*
%TO.P,C2,1*%
%TO.N,Net-(D2-K)*%
X17526000Y7620000D03*
%TO.P,C2,2*%
%TO.N,GND*%
X15748000Y7620000D03*
%TD*%
%TO.P,C5,1*%
%TO.N,+3.3V*%
X12446000Y34544000D03*
%TO.P,C5,2*%
%TO.N,GND*%
X12446000Y36322000D03*
%TD*%
D16*
%TO.P,C6,1*%
%TO.N,+3.3V*%
X10668000Y34798000D03*
%TO.P,C6,2*%
%TO.N,GND*%
X10668000Y35814000D03*
%TD*%
D22*
%TO.P,EXT1,1*%
%TO.N,+5V*%
X1270000Y29210000D03*
D23*
%TO.P,EXT1,2*%
%TO.N,GND*%
X1270000Y26670000D03*
%TO.P,EXT1,3*%
%TO.N,/GPIO0*%
X1270000Y24130000D03*
%TO.P,EXT1,4*%
%TO.N,/GPIO1\u005CEXT_PWR_SENSE*%
X1270000Y21590000D03*
%TO.P,EXT1,5*%
%TO.N,/GPIO2\u005CFSPIQ*%
X1270000Y19050000D03*
%TO.P,EXT1,6*%
%TO.N,/GPIO3\u005CI2C_SCK*%
X1270000Y16510000D03*
%TO.P,EXT1,7*%
%TO.N,/GPIO4\u005CFSPIHD*%
X1270000Y13970000D03*
%TO.P,EXT1,8*%
%TO.N,/GPIO5\u005CBAT_MEASURE*%
X1270000Y11430000D03*
%TO.P,EXT1,9*%
%TO.N,/GPIO6\u005CFSPICLK*%
X1270000Y8890000D03*
%TD*%
D22*
%TO.P,EXT2,1*%
%TO.N,+3.3V*%
X26670000Y29210000D03*
D23*
%TO.P,EXT2,2*%
%TO.N,GND*%
X26670000Y26670000D03*
%TO.P,EXT2,3*%
%TO.N,/ESP_EN*%
X26670000Y24130000D03*
%TO.P,EXT2,4*%
%TO.N,/GPIO21\u005CU0TXD*%
X26670000Y21590000D03*
%TO.P,EXT2,5*%
%TO.N,/GPIO20\u005CU0RXD*%
X26670000Y19050000D03*
%TO.P,EXT2,6*%
%TO.N,/GPIO10\u005CFSPICS0*%
X26670000Y16510000D03*
%TO.P,EXT2,7*%
%TO.N,/GPIO9\u005CUSER_BUT*%
X26670000Y13970000D03*
%TO.P,EXT2,8*%
%TO.N,/GPIO8\u005CUSER_LED*%
X26670000Y11430000D03*
%TO.P,EXT2,9*%
%TO.N,/GPIO7\u005CI2C_SDA*%
X26670000Y8890000D03*
%TD*%
D16*
%TO.P,R2,1*%
%TO.N,GND*%
X17526000Y11049000D03*
%TO.P,R2,2*%
%TO.N,/CC2*%
X17526000Y10033000D03*
%TD*%
%TO.P,R4,1*%
%TO.N,GND*%
X12319000Y10414000D03*
%TO.P,R4,2*%
%TO.N,/CC1*%
X12319000Y9398000D03*
%TD*%
D17*
%TO.P,R14,1*%
%TO.N,+3.3V*%
X10668000Y33274000D03*
%TO.P,R14,2*%
%TO.N,/GPIO2\u005CFSPIQ*%
X9652000Y33274000D03*
%TD*%
D24*
%TO.P,U2,1,EN*%
%TO.N,Net-(D2-K)*%
X17714000Y2002000D03*
%TO.P,U2,2,GND*%
%TO.N,GND*%
X16764000Y2002000D03*
%TO.P,U2,3,LX*%
%TO.N,Net-(U2-LX)*%
X15814000Y2002000D03*
%TO.P,U2,4,IN*%
%TO.N,Net-(D2-K)*%
X15814000Y4602000D03*
%TO.P,U2,5,FB*%
%TO.N,Net-(U2-FB)*%
X17714000Y4602000D03*
%TD*%
D16*
%TO.P,R3,1*%
%TO.N,Net-(CHARGING1-K)*%
X8763000Y11430000D03*
%TO.P,R3,2*%
%TO.N,Net-(U1-CHRGb)*%
X8763000Y12446000D03*
%TD*%
D19*
%TO.P,FID5,Fid1,FID\u002A*%
%TO.N,unconnected-(FID5-FID\u002A-PadFid1)*%
X1270000Y36830000D03*
%TD*%
%TO.P,FID6,Fid1,FID\u002A*%
%TO.N,unconnected-(FID6-FID\u002A-PadFid1)*%
X26670000Y36830000D03*
%TD*%
D21*
%TO.P,C4,1*%
%TO.N,+3.3V*%
X12573000Y7620000D03*
%TO.P,C4,2*%
%TO.N,GND*%
X14351000Y7620000D03*
%TD*%
D17*
%TO.P,R16,2*%
%TO.N,Net-(BUT1-Pad2)*%
X21590000Y25527000D03*
%TO.P,R16,1*%
%TO.N,/GPIO9\u005CUSER_BUT*%
X22606000Y25527000D03*
%TD*%
D16*
%TO.P,R18,1*%
%TO.N,/GPIO7\u005CI2C_SDA*%
X15367000Y21590000D03*
%TO.P,R18,2*%
%TO.N,+3.3V*%
X15367000Y20574000D03*
%TD*%
D17*
%TO.P,R17,1*%
%TO.N,+3.3V*%
X10922000Y16891000D03*
%TO.P,R17,2*%
%TO.N,/GPIO3\u005CI2C_SCK*%
X11938000Y16891000D03*
%TD*%
D25*
%TO.N,GND*%
X8001000Y4826000D03*
D26*
X14986000Y889000D03*
X17653000Y889000D03*
X25654000Y7620000D03*
X24130000Y12319000D03*
D25*
%TO.N,+5V*%
X3048000Y16002000D03*
X3048000Y22225000D03*
X7874000Y8763000D03*
D26*
X20066000Y12192000D03*
D25*
X3048000Y9017000D03*
D27*
%TO.N,GND*%
X9969500Y36068000D03*
X11430000Y36068000D03*
X13970000Y36068000D03*
X15240000Y36068000D03*
X16510000Y36068000D03*
D25*
X7493000Y2032000D03*
D26*
X20955000Y1651000D03*
X3048000Y30353000D03*
D25*
X7620000Y22606000D03*
X20996881Y31581125D03*
D26*
X11684000Y26416000D03*
X13970000Y9779000D03*
D25*
X15240000Y3302000D03*
D26*
X11049000Y29210000D03*
D25*
X17272000Y13716000D03*
D26*
X15367000Y16383000D03*
X10160000Y22606000D03*
X22606000Y23749000D03*
D25*
X22987000Y30099000D03*
X22352000Y20066000D03*
D26*
X18923000Y28321000D03*
D25*
X22606000Y14097000D03*
D27*
X17970500Y36068000D03*
D25*
X22352000Y21209000D03*
D26*
X21717000Y6858000D03*
D25*
X21336002Y37211000D03*
D26*
X15702500Y6096000D03*
D25*
X11430000Y13716000D03*
X22606000Y15240000D03*
X7747000Y13208000D03*
D26*
X16637000Y9906000D03*
D25*
X6223000Y27308000D03*
X16383000Y3302000D03*
X6858000Y36957000D03*
%TO.N,+3.3V*%
X20447000Y18034000D03*
X11684000Y19431000D03*
X22987000Y28829000D03*
X15367000Y19050000D03*
X10033000Y14986000D03*
D26*
X18499700Y3852300D03*
D25*
X9144000Y34417000D03*
D27*
X5588000Y30734000D03*
D26*
X11049000Y4191000D03*
D27*
%TO.N,/ESP_EN*%
X6604000Y28956000D03*
D25*
%TO.N,Net-(D2-K)*%
X19812000Y10160000D03*
D26*
%TO.N,Net-(CHARGING1-K)*%
X7874000Y6350000D03*
D25*
%TO.N,VBAT*%
X15367000Y13716000D03*
D26*
%TO.N,/GPIO21\u005CU0TXD*%
X8763000Y19304000D03*
X17526000Y31623000D03*
%TO.N,/GPIO20\u005CU0RXD*%
X17526000Y30741400D03*
X10287000Y24384000D03*
%TO.N,/CC2*%
X17399000Y9398000D03*
%TO.N,/CC1*%
X12319000Y8763000D03*
%TO.N,Net-(U1-CHRGb)*%
X8890000Y13081000D03*
%TO.N,Net-(U1-PROG)*%
X15367000Y12573000D03*
%TO.N,Net-(BUT1-Pad2)*%
X21971000Y24765000D03*
%TO.N,/GPIO2\u005CFSPIQ*%
X5715000Y20193000D03*
X9021783Y33217885D03*
%TO.N,/GPIO4\u005CFSPIHD*%
X14224000Y26416000D03*
X15621000Y24257000D03*
%TO.N,/GPIO10\u005CFSPICS0*%
X19050000Y25400000D03*
D27*
X11938000Y28829000D03*
D26*
%TO.N,/GPIO7\u005CI2C_SDA*%
X17907000Y22352000D03*
X17907000Y25400000D03*
X15367000Y22352000D03*
%TO.N,/GPIO5\u005CBAT_MEASURE*%
X14986000Y25908000D03*
%TO.N,/GPIO1\u005CEXT_PWR_SENSE*%
X12446000Y20955000D03*
X17780000Y16510000D03*
X10541000Y26416000D03*
%TO.N,/GPIO3\u005CI2C_SCK*%
X9039340Y32209670D03*
X9525000Y29591000D03*
X12573000Y16891000D03*
%TO.N,/GPIO9\u005CUSER_BUT*%
X20066000Y26289000D03*
%TO.N,/GPIO8\u005CUSER_LED*%
X20066000Y25400000D03*
%TO.N,/USB_DN*%
X17907000Y28469534D03*
X15367000Y9017000D03*
%TO.N,/USB_DP*%
X14351000Y9017000D03*
X17399000Y29083000D03*
%TD*%
D28*
%TO.N,+5V*%
X3048000Y22225000D02*
X3048000Y27813000D01*
X3048000Y27813000D02*
X1651000Y29210000D01*
X1651000Y29210000D02*
X1270000Y29210000D01*
D29*
%TO.N,GND*%
X20955000Y1651000D02*
X20193000Y889000D01*
X20193000Y889000D02*
X16637000Y889000D01*
D30*
X11430000Y36703000D02*
X11303000Y36830000D01*
X11430000Y36068000D02*
X11430000Y36703000D01*
D31*
%TO.N,/GPIO3\u005CI2C_SCK*%
X9525000Y29591000D02*
X9398000Y29464000D01*
X9398000Y29464000D02*
X9398000Y26543000D01*
X9398000Y26543000D02*
X11049000Y24892000D01*
X11049000Y24892000D02*
X11049000Y21336000D01*
X11049000Y21336000D02*
X12446000Y19939000D01*
X12446000Y19939000D02*
X12446000Y17018000D01*
X12446000Y17018000D02*
X12573000Y16891000D01*
%TO.N,/GPIO8\u005CUSER_LED*%
X20066000Y25400000D02*
X20193000Y25400000D01*
X24003000Y21590000D02*
X24003000Y17653000D01*
X20193000Y25400000D02*
X24003000Y21590000D01*
X24003000Y17653000D02*
X24765000Y16891000D01*
X24765000Y16891000D02*
X24765000Y13335000D01*
X24765000Y13335000D02*
X26670000Y11430000D01*
%TO.N,/GPIO9\u005CUSER_BUT*%
X22606000Y25527000D02*
X23114000Y25527000D01*
X23114000Y25527000D02*
X23979123Y24661877D01*
X24460211Y17957789D02*
X25273000Y17145000D01*
X23979123Y24661877D02*
X23979123Y22377859D01*
X23979123Y22377859D02*
X24460211Y21896771D01*
X24460211Y21896771D02*
X24460211Y17957789D01*
X25273000Y15367000D02*
X26670000Y13970000D01*
X25273000Y17145000D02*
X25273000Y15367000D01*
%TO.N,/GPIO10\u005CFSPICS0*%
X20574000Y27051000D02*
X20955000Y26670000D01*
X20955000Y26670000D02*
X22698224Y26670000D01*
X22698224Y26670000D02*
X24384000Y24984224D01*
X24384000Y24984224D02*
X24384000Y22606000D01*
X24917422Y18262578D02*
X26670000Y16510000D01*
X24384000Y22606000D02*
X24917422Y22072578D01*
X24917422Y22072578D02*
X24917422Y18262578D01*
%TO.N,/GPIO20\u005CU0RXD*%
X17526000Y30741400D02*
X17899600Y30741400D01*
X17899600Y30741400D02*
X21590000Y27051000D01*
X22963816Y27051000D02*
X24892000Y25122816D01*
X21590000Y27051000D02*
X22963816Y27051000D01*
X24892000Y25122816D02*
X24892000Y22733000D01*
X24892000Y22733000D02*
X25374633Y22250367D01*
X25374633Y22250367D02*
X25374633Y20345367D01*
X25374633Y20345367D02*
X26670000Y19050000D01*
%TO.N,/GPIO21\u005CU0TXD*%
X26670000Y21717000D02*
X25400000Y22987000D01*
X25400000Y22987000D02*
X25400000Y25261408D01*
X21717000Y27432000D02*
X17526000Y31623000D01*
X25400000Y25261408D02*
X23229408Y27432000D01*
X23229408Y27432000D02*
X21717000Y27432000D01*
%TO.N,/ESP_EN*%
X26670000Y24130000D02*
X26670000Y24638000D01*
X18161000Y32512000D02*
X17018000Y33655000D01*
X9332398Y31496000D02*
X8890000Y31496000D01*
X26670000Y24638000D02*
X23495000Y27813000D01*
X23495000Y27813000D02*
X21844000Y27813000D01*
X6604000Y29210000D02*
X6604000Y28956000D01*
X21844000Y27813000D02*
X18161000Y31496000D01*
X18161000Y31496000D02*
X18161000Y32512000D01*
X17018000Y33655000D02*
X12065000Y33655000D01*
X12065000Y33655000D02*
X10922000Y32512000D01*
X10922000Y32512000D02*
X10348398Y32512000D01*
X10348398Y32512000D02*
X9332398Y31496000D01*
X8890000Y31496000D02*
X6604000Y29210000D01*
D28*
%TO.N,+5V*%
X3302000Y8763000D02*
X3048000Y9017000D01*
D29*
X20066000Y12034520D02*
X20066000Y12192000D01*
D30*
X21082000Y14097000D02*
X21336000Y14351000D01*
X20888960Y11211560D02*
X21082000Y11404600D01*
D28*
X3048000Y9906000D02*
X3048000Y9017000D01*
D30*
X21082000Y11404600D02*
X21082000Y14097000D01*
D29*
X20888960Y11211560D02*
X20066000Y12034520D01*
X20888960Y11211560D02*
X21082000Y11018520D01*
X21082000Y11018520D02*
X21082000Y9779000D01*
D28*
X3048000Y9906000D02*
X4191000Y8763000D01*
X3048000Y16002000D02*
X3048000Y9906000D01*
X4191000Y8763000D02*
X3302000Y8763000D01*
X7874000Y8763000D02*
X4191000Y8763000D01*
D32*
%TO.N,GND*%
X13843000Y27051000D02*
X13462000Y26670000D01*
D29*
X16510000Y11049000D02*
X16510000Y8382000D01*
X16764000Y2002000D02*
X16764000Y1016000D01*
D33*
X20066000Y35929406D02*
X21336002Y37199408D01*
X22479006Y30099000D02*
X20996881Y31581125D01*
D29*
X16510000Y11684000D02*
X16510000Y11049000D01*
D28*
X7620000Y22606000D02*
X6096000Y22606000D01*
D29*
X14224000Y7620000D02*
X13208000Y8636000D01*
X14986000Y5969000D02*
X14986000Y3302000D01*
D32*
X14554200Y15570200D02*
X15367000Y16383000D01*
X18542000Y22733000D02*
X18542000Y21971000D01*
D29*
X17018000Y12192000D02*
X17018000Y12573000D01*
X21082000Y8763000D02*
X22606000Y8763000D01*
D28*
X20937000Y6586000D02*
X19179000Y6586000D01*
D29*
X12700000Y36068000D02*
X13970000Y36068000D01*
X11430000Y13716000D02*
X11430000Y12065000D01*
X14351000Y7620000D02*
X14224000Y7620000D01*
X11176000Y35814000D02*
X11430000Y36068000D01*
X15575500Y5969000D02*
X14986000Y5969000D01*
D28*
X6223000Y27308000D02*
X6096000Y27181000D01*
D32*
X13843000Y29718000D02*
X17907000Y29718000D01*
D29*
X17018000Y12192000D02*
X16510000Y11684000D01*
D28*
X22606000Y8763000D02*
X22606000Y8255000D01*
D32*
X15494000Y23114000D02*
X18161000Y23114000D01*
X15367000Y16383000D02*
X14528800Y17221200D01*
X13462000Y25146000D02*
X15494000Y23114000D01*
D29*
X21336002Y37199408D02*
X21336002Y37211000D01*
X21209000Y20701000D02*
X22352000Y20701000D01*
D32*
X11430000Y13716000D02*
X11430000Y14224000D01*
D29*
X15702500Y6096000D02*
X15575500Y5969000D01*
X12319000Y11176000D02*
X12319000Y10414000D01*
X11430000Y12065000D02*
X12319000Y11176000D01*
D28*
X22606000Y8255000D02*
X20937000Y6586000D01*
D32*
X12192000Y28067000D02*
X13843000Y29718000D01*
D29*
X10668000Y35814000D02*
X10223500Y35814000D01*
D32*
X13462000Y26670000D02*
X13462000Y25146000D01*
D29*
X16637000Y889000D02*
X9144000Y889000D01*
D32*
X17653000Y27051000D02*
X13843000Y27051000D01*
X11430000Y14224000D02*
X13157200Y15951200D01*
X11938000Y26162000D02*
X11684000Y26416000D01*
X22352000Y21209000D02*
X22352000Y22098000D01*
D28*
X22606000Y19812000D02*
X22606000Y8763000D01*
D29*
X12700000Y10414000D02*
X12319000Y10414000D01*
X17907000Y11430000D02*
X17907000Y12446000D01*
X12446000Y36322000D02*
X12192000Y36068000D01*
D32*
X20447000Y24003000D02*
X19431000Y24003000D01*
D28*
X22352000Y21209000D02*
X22352000Y20701000D01*
D29*
X17272000Y13716000D02*
X17018000Y13462000D01*
D32*
X11938000Y22479000D02*
X11938000Y26162000D01*
D30*
X20066000Y5003800D02*
X20066000Y4927600D01*
D28*
X4815840Y12181840D02*
X7493000Y14859000D01*
D32*
X22352000Y22098000D02*
X20447000Y24003000D01*
D29*
X12446000Y36322000D02*
X12700000Y36068000D01*
X12192000Y36068000D02*
X11430000Y36068000D01*
D32*
X13157200Y21259800D02*
X11938000Y22479000D01*
X18542000Y21971000D02*
X18161000Y21590000D01*
D29*
X17526000Y11049000D02*
X17907000Y11430000D01*
D32*
X11049000Y29210000D02*
X11049000Y28448000D01*
X15113000Y11684000D02*
X14554200Y12242800D01*
D29*
X13208000Y8636000D02*
X13208000Y9906000D01*
D28*
X22352000Y20701000D02*
X22352000Y20066000D01*
X22352000Y20066000D02*
X22606000Y19812000D01*
D30*
X19179000Y6586000D02*
X19179000Y5890800D01*
D33*
X20996881Y31581125D02*
X20066000Y32512006D01*
D32*
X18923000Y28321000D02*
X17653000Y27051000D01*
D29*
X17526000Y11049000D02*
X16510000Y11049000D01*
D32*
X11430000Y28067000D02*
X12192000Y28067000D01*
X18161000Y23114000D02*
X18542000Y22733000D01*
D33*
X22987000Y30099000D02*
X22479006Y30099000D01*
X20066000Y32512006D02*
X20066000Y35929406D01*
D29*
X13208000Y9906000D02*
X12700000Y10414000D01*
D32*
X16510000Y11684000D02*
X15113000Y11684000D01*
D28*
X14351000Y7620000D02*
X15748000Y7620000D01*
D32*
X14554200Y12242800D02*
X14554200Y15570200D01*
X14528800Y17221200D02*
X14528800Y19634200D01*
D28*
X7493000Y14859000D02*
X7493000Y21209000D01*
D29*
X16510000Y8382000D02*
X15748000Y7620000D01*
X10668000Y35814000D02*
X11176000Y35814000D01*
X20193000Y20701000D02*
X21209000Y20701000D01*
D28*
X6096000Y27181000D02*
X6096000Y22606000D01*
D30*
X19179000Y5890800D02*
X20066000Y5003800D01*
D29*
X17018000Y13462000D02*
X17018000Y12573000D01*
D32*
X11049000Y28448000D02*
X11430000Y28067000D01*
X13157200Y15951200D02*
X13157200Y21259800D01*
X18923000Y28702000D02*
X18923000Y28321000D01*
D29*
X10223500Y35814000D02*
X9969500Y36068000D01*
X14986000Y7620000D02*
X14986000Y5969000D01*
X16764000Y1016000D02*
X16637000Y889000D01*
D32*
X17907000Y29718000D02*
X18923000Y28702000D01*
D28*
X4815840Y10520140D02*
X4815840Y12181840D01*
X15240000Y3302000D02*
X16383000Y3302000D01*
D29*
X14986000Y3556000D02*
X15240000Y3302000D01*
D28*
X7493000Y21209000D02*
X6096000Y22606000D01*
D29*
%TO.N,+3.3V*%
X10668000Y33274000D02*
X10668000Y34544000D01*
X5715000Y30734000D02*
X5588000Y30734000D01*
D28*
X13208000Y6477000D02*
X13208000Y4883000D01*
D29*
X8001000Y33528000D02*
X8001000Y33020000D01*
D28*
X12573000Y7112000D02*
X13208000Y6477000D01*
X12573000Y7620000D02*
X11938000Y7620000D01*
X22987000Y28829000D02*
X26289000Y28829000D01*
D29*
X8890000Y34417000D02*
X8001000Y33528000D01*
D28*
X11938000Y7620000D02*
X10033000Y9525000D01*
X9271000Y34544000D02*
X10668000Y34544000D01*
X22987000Y28829000D02*
X21971000Y28829000D01*
D29*
X10668000Y34798000D02*
X10668000Y34544000D01*
D28*
X16383000Y18034000D02*
X20447000Y18034000D01*
D29*
X8001000Y33020000D02*
X5715000Y30734000D01*
X9144000Y34417000D02*
X8890000Y34417000D01*
D28*
X10668000Y34544000D02*
X12446000Y34544000D01*
X18923000Y31877000D02*
X18923000Y33020000D01*
X11684000Y19431000D02*
X11684000Y18338800D01*
D29*
X12954000Y4629000D02*
X12516000Y4191000D01*
D30*
X10922000Y16891000D02*
X10579100Y17233900D01*
D28*
X12573000Y7620000D02*
X12573000Y7112000D01*
X15367000Y19050000D02*
X16383000Y18034000D01*
D29*
X12516000Y4191000D02*
X11049000Y4191000D01*
D28*
X21971000Y28829000D02*
X18923000Y31877000D01*
X17399000Y34544000D02*
X12446000Y34544000D01*
X10579100Y17233900D02*
X10033000Y16687800D01*
X11684000Y18338800D02*
X10579100Y17233900D01*
X13208000Y4883000D02*
X12954000Y4629000D01*
X26289000Y28829000D02*
X26670000Y29210000D01*
X18923000Y33020000D02*
X17399000Y34544000D01*
X10033000Y9525000D02*
X10033000Y14986000D01*
X9144000Y34417000D02*
X9271000Y34544000D01*
D29*
X15367000Y20574000D02*
X15367000Y19050000D01*
D30*
X18499700Y3852300D02*
X18914500Y3852300D01*
X18914500Y3852300D02*
X19050000Y3987800D01*
D28*
X10033000Y16687800D02*
X10033000Y14986000D01*
%TO.N,Net-(D2-K)*%
X18986500Y10985500D02*
X19812000Y10160000D01*
X16637000Y5588000D02*
X16129000Y5080000D01*
X16637000Y6475895D02*
X16637000Y5588000D01*
D32*
X15814000Y4191000D02*
X15814000Y4602000D01*
D28*
X17526000Y7364895D02*
X16637000Y6475895D01*
X18986500Y11211560D02*
X18986500Y10985500D01*
D29*
X16129000Y4917000D02*
X16129000Y5080000D01*
D28*
X17526000Y7874000D02*
X19812000Y10160000D01*
X17526000Y7620000D02*
X17526000Y7364895D01*
D32*
X16764000Y4191000D02*
X15814000Y4191000D01*
D28*
X17526000Y7620000D02*
X17526000Y7874000D01*
D32*
X17714000Y3241000D02*
X16764000Y4191000D01*
D29*
X15814000Y4602000D02*
X16129000Y4917000D01*
D32*
X17714000Y2002000D02*
X17714000Y3241000D01*
D34*
%TO.N,Net-(CHARGING1-K)*%
X8763000Y7239000D02*
X8763000Y11430000D01*
X7874000Y6350000D02*
X8763000Y7239000D01*
D31*
%TO.N,VBAT*%
X17399000Y17145000D02*
X17145000Y16891000D01*
D28*
X19941540Y13713460D02*
X19941540Y13421360D01*
X18415000Y15240000D02*
X19941540Y13713460D01*
D31*
X21082000Y17145000D02*
X17399000Y17145000D01*
X21463000Y17526000D02*
X21082000Y17145000D01*
D30*
X20701000Y19177000D02*
X20320000Y19177000D01*
D31*
X20701000Y19177000D02*
X21463000Y18415000D01*
D30*
X20320000Y19177000D02*
X20193000Y19304000D01*
D31*
X21463000Y18415000D02*
X21463000Y17526000D01*
X17145000Y15494000D02*
X16891000Y15240000D01*
X17145000Y16891000D02*
X17145000Y15494000D01*
D28*
X16891000Y15240000D02*
X18415000Y15240000D01*
X15367000Y13716000D02*
X16891000Y15240000D01*
D29*
%TO.N,Net-(BAT_SENS_E1-Pad1)*%
X21209000Y21717000D02*
X20193000Y21717000D01*
X20193000Y23114000D02*
X20193000Y21717000D01*
X20193000Y21717000D02*
X19177000Y21717000D01*
D30*
%TO.N,Net-(PWR_SENS_E1-Pad1)*%
X21336000Y15367000D02*
X21336000Y15875000D01*
X20193000Y16256000D02*
X20320000Y16383000D01*
X21336000Y15875000D02*
X21336000Y16383000D01*
X20320000Y16383000D02*
X21336000Y16383000D01*
D29*
%TO.N,Net-(BAT_PWR_E1-Pad1)*%
X19431000Y19304000D02*
X19431000Y19558000D01*
X19431000Y19558000D02*
X19177000Y19812000D01*
X19177000Y19812000D02*
X19177000Y20701000D01*
D31*
%TO.N,/GPIO21\u005CU0TXD*%
X17018000Y31115000D02*
X9271000Y31115000D01*
X17526000Y31623000D02*
X17018000Y31115000D01*
D32*
X26670000Y21717000D02*
X26670000Y21590000D01*
D31*
X8255000Y25019000D02*
X8763000Y24511000D01*
X8763000Y24511000D02*
X8763000Y19304000D01*
X8255000Y30099000D02*
X8255000Y25019000D01*
X9271000Y31115000D02*
X8255000Y30099000D01*
%TO.N,/GPIO20\u005CU0RXD*%
X8763000Y29998309D02*
X9498691Y30734000D01*
X10287000Y24892000D02*
X8763000Y26416000D01*
X8763000Y26416000D02*
X8763000Y29998309D01*
X9498691Y30734000D02*
X17518600Y30734000D01*
X17518600Y30734000D02*
X17526000Y30741400D01*
X10287000Y24384000D02*
X10287000Y24892000D01*
D29*
%TO.N,/CC2*%
X17526000Y9525000D02*
X17399000Y9398000D01*
X17526000Y10033000D02*
X17526000Y9525000D01*
%TO.N,/CC1*%
X12319000Y9398000D02*
X12319000Y8763000D01*
D28*
%TO.N,Net-(U2-LX)*%
X13151000Y2032000D02*
X12954000Y2229000D01*
D29*
X15814000Y2002000D02*
X15524000Y2002000D01*
D28*
X15494000Y2032000D02*
X13151000Y2032000D01*
D29*
X15524000Y2002000D02*
X15494000Y2032000D01*
D30*
%TO.N,Net-(U1-CHRGb)*%
X8763000Y12954000D02*
X8763000Y12446000D01*
X8890000Y13081000D02*
X8763000Y12954000D01*
D29*
%TO.N,Net-(U1-PROG)*%
X16002000Y12573000D02*
X15367000Y12573000D01*
D30*
%TO.N,Net-(U2-FB)*%
X17714000Y4602000D02*
X17714000Y4927600D01*
D32*
X20066000Y3987800D02*
X20040600Y3987800D01*
X20040600Y3987800D02*
X19100800Y4927600D01*
X19100800Y4927600D02*
X19050000Y4927600D01*
D30*
X17714000Y4927600D02*
X19050000Y4927600D01*
%TO.N,Net-(BUT1-Pad2)*%
X21590000Y25273000D02*
X21590000Y25527000D01*
X21971000Y24765000D02*
X21971000Y24892000D01*
X21971000Y24892000D02*
X21590000Y25273000D01*
D31*
%TO.N,/GPIO2\u005CFSPIQ*%
X1397000Y18923000D02*
X4445000Y18923000D01*
X4445000Y22098000D02*
X4445000Y28577293D01*
X1270000Y19050000D02*
X1397000Y18923000D01*
X4445000Y28577293D02*
X9021783Y33154076D01*
X4445000Y18923000D02*
X5715000Y20193000D01*
X9021783Y33154076D02*
X9021783Y33217885D01*
D29*
X9077898Y33274000D02*
X9021783Y33217885D01*
D31*
X5715000Y20828000D02*
X4445000Y22098000D01*
X5715000Y20193000D02*
X5715000Y20828000D01*
D29*
X9652000Y33274000D02*
X9077898Y33274000D01*
D31*
%TO.N,/GPIO4\u005CFSPIHD*%
X14224000Y25654000D02*
X14224000Y26416000D01*
X15621000Y24257000D02*
X14224000Y25654000D01*
%TO.N,/GPIO10\u005CFSPICS0*%
X11938000Y28829000D02*
X13335000Y30226000D01*
X13335000Y30226000D02*
X17893044Y30226000D01*
X19050000Y25400000D02*
X19050000Y26400125D01*
X17893044Y30226000D02*
X20574000Y27545044D01*
X20574000Y27545044D02*
X20574000Y27051000D01*
X19700875Y27051000D02*
X20574000Y27051000D01*
X19050000Y26400125D02*
X19700875Y27051000D01*
%TO.N,/GPIO7\u005CI2C_SDA*%
X23495000Y12065000D02*
X26670000Y8890000D01*
X15367000Y22352000D02*
X17907000Y22352000D01*
X17907000Y25400000D02*
X18542000Y24765000D01*
X18542000Y24765000D02*
X20320000Y24765000D01*
D30*
X15367000Y22352000D02*
X15367000Y21590000D01*
D31*
X23495000Y21590000D02*
X23495000Y12065000D01*
X20320000Y24765000D02*
X23495000Y21590000D01*
%TO.N,/GPIO5\u005CBAT_MEASURE*%
X17145000Y23749000D02*
X14986000Y25908000D01*
X18923000Y23114000D02*
X18288000Y23749000D01*
X18288000Y23749000D02*
X17145000Y23749000D01*
D29*
X19431000Y23114000D02*
X18923000Y23114000D01*
%TO.N,/GPIO1\u005CEXT_PWR_SENSE*%
X19050000Y16256000D02*
X19431000Y16256000D01*
D31*
X19050000Y16256000D02*
X18034000Y16256000D01*
X11557000Y25400000D02*
X10541000Y26416000D01*
X11557000Y21844000D02*
X11557000Y25400000D01*
X18034000Y16256000D02*
X17780000Y16510000D01*
X12446000Y20955000D02*
X11557000Y21844000D01*
%TO.N,/GPIO3\u005CI2C_SCK*%
X4826000Y18288000D02*
X6477000Y19939000D01*
X6477000Y20828000D02*
X5080000Y22225000D01*
X3048000Y18288000D02*
X4826000Y18288000D01*
X5080000Y22225000D02*
X5080000Y28565700D01*
X8723970Y32209670D02*
X9039340Y32209670D01*
X5080000Y28565700D02*
X8723970Y32209670D01*
D29*
X11938000Y16891000D02*
X12573000Y16891000D01*
D31*
X6477000Y19939000D02*
X6477000Y20828000D01*
X1270000Y16510000D02*
X3048000Y18288000D01*
%TO.N,/GPIO9\u005CUSER_BUT*%
X20066000Y26289000D02*
X21844000Y26289000D01*
X21844000Y26289000D02*
X22606000Y25527000D01*
D34*
%TO.N,/USB_DN*%
X16637000Y27762200D02*
X16814800Y27584400D01*
X16637000Y27940000D02*
X16637000Y27762200D01*
X12903200Y27220830D02*
X13800170Y28117800D01*
X15062201Y10752169D02*
X14046200Y11768170D01*
X15367000Y9017000D02*
X15062201Y9321799D01*
X17334635Y28078835D02*
X17725334Y28469534D01*
X14046200Y22563170D02*
X12903200Y23706170D01*
X17170400Y27584400D02*
X17334635Y27748635D01*
X16459200Y28117800D02*
X16637000Y27940000D01*
X13800170Y28117800D02*
X16459200Y28117800D01*
X17725334Y28469534D02*
X17907000Y28469534D01*
X16814800Y27584400D02*
X17170400Y27584400D01*
X12903200Y23706170D02*
X12903200Y27220830D01*
X15062201Y9321799D02*
X15062201Y10752169D01*
X14046200Y11768170D02*
X14046200Y22563170D01*
X17334635Y27748635D02*
X17334635Y28078835D01*
%TO.N,/USB_DP*%
X13639800Y22394830D02*
X12496800Y23537830D01*
X14351000Y9017000D02*
X14655799Y9321799D01*
X13639800Y11599830D02*
X13639800Y22394830D01*
X14655799Y9321799D02*
X14655799Y10583831D01*
X12496800Y27389170D02*
X13631830Y28524200D01*
X12496800Y23537830D02*
X12496800Y27389170D01*
X17399000Y28756903D02*
X17399000Y29083000D01*
X13631830Y28524200D02*
X17166297Y28524200D01*
X17166297Y28524200D02*
X17399000Y28756903D01*
X14655799Y10583831D02*
X13639800Y11599830D01*
%TD*%
%TA.AperFunction,Conductor*%
%TO.N,GND*%
G36*
X9327612Y9201270D02*
G01*
X9350370Y9175285D01*
X9364836Y9153291D01*
X9389848Y9115261D01*
X9411830Y9079624D01*
X9430812Y9048851D01*
X9430813Y9048850D01*
X9430815Y9048847D01*
X9435362Y9043097D01*
X9435314Y9043060D01*
X9440154Y9037119D01*
X9440200Y9037157D01*
X9444911Y9031543D01*
X9444912Y9031542D01*
X9444915Y9031538D01*
X9501684Y8977979D01*
X10161200Y8318463D01*
X10195224Y8256152D01*
X10190160Y8185337D01*
X10147613Y8128501D01*
X10124447Y8114756D01*
X9982484Y8049923D01*
X9982480Y8049921D01*
X9810112Y7927179D01*
X9810111Y7927178D01*
X9664090Y7774036D01*
X9664089Y7774035D01*
X9549691Y7596025D01*
X9549688Y7596020D01*
X9471047Y7399586D01*
X9471046Y7399580D01*
X9431000Y7191806D01*
X9431000Y6903500D01*
X10139000Y6903500D01*
X10139000Y6268500D01*
X9431000Y6268500D01*
X9431000Y6033221D01*
X9431001Y6033200D01*
X9446072Y5875367D01*
X9446075Y5875352D01*
X9505689Y5672323D01*
X9602650Y5484246D01*
X9733455Y5317915D01*
X9733460Y5317909D01*
X9893374Y5179344D01*
X9893375Y5179343D01*
X10076622Y5073546D01*
X10076630Y5073542D01*
X10221500Y5023403D01*
X10221500Y5887814D01*
X10300955Y5808359D01*
X10413852Y5750835D01*
X10539000Y5731014D01*
X10664148Y5750835D01*
X10777045Y5808359D01*
X10856500Y5887814D01*
X10856500Y5022886D01*
X10861117Y5019255D01*
X10915655Y5016657D01*
X10973488Y4975475D01*
X10999875Y4909564D01*
X10986440Y4839851D01*
X10981835Y4831681D01*
X10947011Y4774937D01*
X10894333Y4727340D01*
X10887841Y4724434D01*
X10769364Y4675358D01*
X10769356Y4675354D01*
X10653526Y4586474D01*
X10564646Y4470644D01*
X10564645Y4470642D01*
X10548964Y4432785D01*
X10508771Y4335753D01*
X10489715Y4191001D01*
X10489715Y4191000D01*
X10508330Y4049603D01*
X10497391Y3979454D01*
X10450262Y3926356D01*
X10406561Y3909302D01*
X10220734Y3874565D01*
X10020628Y3797042D01*
X10020612Y3797034D01*
X9838160Y3684065D01*
X9838159Y3684064D01*
X9679562Y3539484D01*
X9550231Y3368221D01*
X9550227Y3368216D01*
X9454573Y3176116D01*
X9454570Y3176110D01*
X9395840Y2969693D01*
X9395840Y2969689D01*
X9381000Y2809541D01*
X9381000Y2723500D01*
X10139000Y2723500D01*
X10139000Y2088500D01*
X9381000Y2088500D01*
X9381000Y2002460D01*
X9395840Y1842312D01*
X9395840Y1842308D01*
X9454570Y1635891D01*
X9454573Y1635885D01*
X9550227Y1443785D01*
X9550231Y1443780D01*
X9679562Y1272517D01*
X9838159Y1127937D01*
X9838160Y1127936D01*
X10020612Y1014967D01*
X10020628Y1014959D01*
X10220732Y937437D01*
X10220746Y937433D01*
X10221500Y937293D01*
X10221500Y1857814D01*
X10300955Y1778359D01*
X10413852Y1720835D01*
X10539000Y1701014D01*
X10664148Y1720835D01*
X10777045Y1778359D01*
X10856500Y1857814D01*
X10856500Y937293D01*
X10857253Y937433D01*
X10857267Y937437D01*
X11057371Y1014959D01*
X11057387Y1014967D01*
X11239839Y1127936D01*
X11239840Y1127936D01*
X11268598Y1154153D01*
X11332414Y1185265D01*
X11378066Y1184619D01*
X11428933Y1174500D01*
X14406560Y1174501D01*
X14488241Y1171744D01*
X14488245Y1171744D01*
X14488247Y1171744D01*
X14660999Y1192259D01*
X15244550Y1261556D01*
X15314552Y1249726D01*
X15348501Y1225530D01*
X15355514Y1218517D01*
X15439697Y1162267D01*
X15439699Y1162266D01*
X15513933Y1147500D01*
X15981873Y1147501D01*
X16049994Y1127499D01*
X16082740Y1097011D01*
X16126095Y1039096D01*
X16243034Y951556D01*
X16379906Y900506D01*
X16440402Y894001D01*
X16440415Y894000D01*
X16489000Y894000D01*
X16489000Y3110000D01*
X16440402Y3110000D01*
X16379906Y3103495D01*
X16243035Y3052445D01*
X16243034Y3052445D01*
X16126097Y2964906D01*
X16082742Y2906990D01*
X16025906Y2864444D01*
X15981874Y2856500D01*
X15513936Y2856500D01*
X15513926Y2856499D01*
X15439699Y2841735D01*
X15407942Y2820515D01*
X15340189Y2799301D01*
X15285828Y2810563D01*
X14763253Y3047955D01*
X14709504Y3094341D01*
X14700122Y3117512D01*
X14698485Y3116833D01*
X14693735Y3128299D01*
X14689169Y3135132D01*
X14637484Y3212484D01*
X14618729Y3225016D01*
X14542982Y3275630D01*
X14544020Y3277185D01*
X14500499Y3312258D01*
X14478080Y3379622D01*
X14478000Y3384116D01*
X14478000Y3473885D01*
X14498002Y3542006D01*
X14543570Y3581491D01*
X14542982Y3582371D01*
X14549989Y3587054D01*
X14551658Y3588499D01*
X14553077Y3589117D01*
X14553299Y3589266D01*
X14553301Y3589266D01*
X14637484Y3645516D01*
X14693734Y3729699D01*
X14708500Y3803933D01*
X14708499Y5454066D01*
X14708498Y5454069D01*
X14708498Y5454074D01*
X14693734Y5528301D01*
X14637483Y5612485D01*
X14553302Y5668734D01*
X14479069Y5683500D01*
X14479067Y5683500D01*
X14202435Y5683500D01*
X14134314Y5703502D01*
X14087821Y5757158D01*
X14079348Y5782561D01*
X14037294Y5974713D01*
X13973412Y6266603D01*
X13970500Y6293535D01*
X13970500Y6412265D01*
X13971830Y6430525D01*
X13972177Y6432896D01*
X13975367Y6454672D01*
X13973151Y6479998D01*
X13987138Y6549602D01*
X14009576Y6580077D01*
X14033500Y6604001D01*
X14033500Y7302500D01*
X14668500Y7302500D01*
X14668500Y6604000D01*
X14907585Y6604000D01*
X14907597Y6604001D01*
X14968093Y6610506D01*
X14968094Y6610506D01*
X15005467Y6624445D01*
X15076283Y6629510D01*
X15093533Y6624445D01*
X15130906Y6610506D01*
X15191402Y6604001D01*
X15191415Y6604000D01*
X15430500Y6604000D01*
X15430500Y7302500D01*
X14668500Y7302500D01*
X14033500Y7302500D01*
X14033500Y7811500D01*
X14053502Y7879621D01*
X14107158Y7926114D01*
X14159500Y7937500D01*
X15939500Y7937500D01*
X16007621Y7917498D01*
X16054114Y7863842D01*
X16065500Y7811500D01*
X16065500Y7026908D01*
X16045498Y6958787D01*
X16036027Y6945925D01*
X16000430Y6903500D01*
X15995604Y6897748D01*
X15991574Y6891620D01*
X15991523Y6891653D01*
X15987405Y6885189D01*
X15987455Y6885158D01*
X15983607Y6878921D01*
X15950625Y6808190D01*
X15915604Y6738457D01*
X15913095Y6731563D01*
X15913039Y6731584D01*
X15910525Y6724350D01*
X15910582Y6724331D01*
X15908275Y6717371D01*
X15892498Y6640961D01*
X15874499Y6565017D01*
X15873648Y6557728D01*
X15873587Y6557736D01*
X15872809Y6550122D01*
X15872871Y6550116D01*
X15872231Y6542805D01*
X15874500Y6464820D01*
X15874500Y5956029D01*
X15854498Y5887908D01*
X15837595Y5866934D01*
X15558432Y5587772D01*
X15558429Y5587768D01*
X15475603Y5483019D01*
X15471867Y5476962D01*
X15434634Y5438351D01*
X15355515Y5385484D01*
X15299266Y5301303D01*
X15284500Y5227070D01*
X15284500Y3976937D01*
X15284501Y3976927D01*
X15299265Y3902700D01*
X15355516Y3818516D01*
X15439697Y3762267D01*
X15439699Y3762266D01*
X15513933Y3747500D01*
X16114066Y3747501D01*
X16114069Y3747502D01*
X16114073Y3747502D01*
X16163326Y3757299D01*
X16188301Y3762266D01*
X16227211Y3788265D01*
X16294964Y3809480D01*
X16297213Y3809500D01*
X16553788Y3809500D01*
X16621909Y3789498D01*
X16642883Y3772595D01*
X17090383Y3325095D01*
X17124409Y3262783D01*
X17119344Y3191968D01*
X17076797Y3135132D01*
X17056596Y3127598D01*
X17039000Y3110001D01*
X17039000Y894000D01*
X17087585Y894000D01*
X17087597Y894001D01*
X17148093Y900506D01*
X17284963Y951555D01*
X17401906Y1039100D01*
X17445258Y1097010D01*
X17502093Y1139557D01*
X17546121Y1147501D01*
X18014066Y1147501D01*
X18014069Y1147502D01*
X18014072Y1147502D01*
X18050663Y1154781D01*
X18088301Y1162266D01*
X18172484Y1218516D01*
X18172484Y1218518D01*
X18172486Y1218518D01*
X18181259Y1227290D01*
X18183228Y1225321D01*
X18223664Y1259117D01*
X18294106Y1267970D01*
X18358152Y1237333D01*
X18358845Y1236706D01*
X18478159Y1127937D01*
X18478160Y1127936D01*
X18660612Y1014967D01*
X18660628Y1014959D01*
X18860732Y937437D01*
X18860746Y937433D01*
X18861500Y937293D01*
X18861500Y1857814D01*
X18940955Y1778359D01*
X19053852Y1720835D01*
X19179000Y1701014D01*
X19304148Y1720835D01*
X19417045Y1778359D01*
X19496500Y1857814D01*
X19496500Y937293D01*
X19497253Y937433D01*
X19497267Y937437D01*
X19697371Y1014959D01*
X19697387Y1014967D01*
X19879839Y1127936D01*
X19879840Y1127937D01*
X20038437Y1272517D01*
X20167768Y1443780D01*
X20167772Y1443785D01*
X20263426Y1635885D01*
X20263429Y1635891D01*
X20322159Y1842308D01*
X20322159Y1842312D01*
X20337000Y2002460D01*
X20337000Y2088500D01*
X19579000Y2088500D01*
X19579000Y2723500D01*
X20337000Y2723500D01*
X20337000Y2809541D01*
X20322159Y2969689D01*
X20322159Y2969693D01*
X20263429Y3176110D01*
X20263428Y3176112D01*
X20213621Y3276137D01*
X20201161Y3346032D01*
X20228468Y3411567D01*
X20286871Y3451936D01*
X20326410Y3458301D01*
X20341066Y3458301D01*
X20341069Y3458302D01*
X20341072Y3458302D01*
X20353099Y3460695D01*
X20415301Y3473066D01*
X20455122Y3499675D01*
X20522875Y3520890D01*
X20591342Y3502108D01*
X20638785Y3449291D01*
X20650723Y3404964D01*
X20655543Y3344741D01*
X20724684Y2978057D01*
X20724687Y2978048D01*
X20832400Y2620820D01*
X20832404Y2620811D01*
X20977485Y2277044D01*
X20977493Y2277027D01*
X21089667Y2074519D01*
X21158294Y1950626D01*
X21372769Y1645287D01*
X21372771Y1645285D01*
X21618483Y1364475D01*
X21618485Y1364473D01*
X21853520Y1147500D01*
X21892655Y1111372D01*
X22192171Y888850D01*
X22192172Y888848D01*
X22192176Y888846D01*
X22192177Y888845D01*
X22513655Y699416D01*
X22853447Y545231D01*
X22989797Y500124D01*
X23048188Y459739D01*
X23075476Y394196D01*
X23062997Y324305D01*
X23014713Y272255D01*
X22950223Y254500D01*
X4997613Y254500D01*
X4929492Y274502D01*
X4882999Y328158D01*
X4872895Y398432D01*
X4902389Y463012D01*
X4951729Y497848D01*
X4957550Y500124D01*
X5258502Y617799D01*
X5589606Y789850D01*
X5900547Y996120D01*
X6187800Y1234273D01*
X6448113Y1501609D01*
X6678534Y1795101D01*
X6876454Y2111422D01*
X7039630Y2446989D01*
X7150842Y2755379D01*
X7166210Y2797994D01*
X7166212Y2798000D01*
X7203759Y2951687D01*
X7254768Y3160476D01*
X7304293Y3530312D01*
X7311579Y3803931D01*
X7314226Y3903311D01*
X7314226Y3903317D01*
X7284456Y4275260D01*
X7269455Y4354817D01*
X7215316Y4641941D01*
X7154972Y4842069D01*
X7107599Y4999181D01*
X7107595Y4999190D01*
X7100223Y5016657D01*
X6962510Y5342967D01*
X6781706Y5669374D01*
X6567231Y5974713D01*
X6453649Y6104519D01*
X6321516Y6255526D01*
X6321514Y6255528D01*
X6047344Y6508629D01*
X5757008Y6724331D01*
X5747827Y6731152D01*
X5747827Y6731153D01*
X5572682Y6834356D01*
X5426345Y6920584D01*
X5086553Y7074769D01*
X4732298Y7191963D01*
X4732297Y7191964D01*
X4732288Y7191966D01*
X4367585Y7270840D01*
X3996581Y7310500D01*
X3996569Y7310500D01*
X3716787Y7310500D01*
X3716781Y7310500D01*
X3437404Y7295611D01*
X3437386Y7295609D01*
X3069000Y7236256D01*
X2709012Y7138083D01*
X2709009Y7138082D01*
X2361515Y7002208D01*
X2361508Y7002206D01*
X2361498Y7002201D01*
X2361489Y7002197D01*
X2361486Y7002195D01*
X2030400Y6830154D01*
X2030397Y6830152D01*
X1719452Y6623880D01*
X1719445Y6623875D01*
X1432193Y6385722D01*
X1432192Y6385721D01*
X1171889Y6118394D01*
X1171887Y6118392D01*
X941465Y5824900D01*
X743544Y5508575D01*
X580371Y5173014D01*
X580370Y5173013D01*
X499028Y4947452D01*
X457103Y4890156D01*
X390857Y4864622D01*
X321323Y4878957D01*
X270577Y4928610D01*
X254500Y4990196D01*
X254500Y7983045D01*
X274502Y8051166D01*
X328158Y8097659D01*
X398432Y8107763D01*
X463012Y8078269D01*
X465386Y8076160D01*
X577933Y7973559D01*
X758108Y7861999D01*
X758110Y7861999D01*
X758115Y7861995D01*
X955726Y7785440D01*
X1164039Y7746500D01*
X1164041Y7746500D01*
X1375959Y7746500D01*
X1375961Y7746500D01*
X1584274Y7785440D01*
X1781885Y7861995D01*
X1962065Y7973558D01*
X2099070Y8098455D01*
X2118675Y8116327D01*
X2119576Y8117520D01*
X2246389Y8285446D01*
X2319524Y8432323D01*
X2367792Y8484384D01*
X2436546Y8502087D01*
X2503957Y8479808D01*
X2521410Y8465253D01*
X2717062Y8269600D01*
X2729034Y8255746D01*
X2743602Y8236178D01*
X2754181Y8227301D01*
X2784269Y8202055D01*
X2788315Y8198347D01*
X2794235Y8192427D01*
X2794236Y8192426D01*
X2820379Y8171755D01*
X2880148Y8121603D01*
X2886279Y8117571D01*
X2886244Y8117520D01*
X2892697Y8113409D01*
X2892729Y8113460D01*
X2898973Y8109609D01*
X2898977Y8109607D01*
X2898980Y8109605D01*
X2962718Y8079884D01*
X2969711Y8076623D01*
X3039434Y8041606D01*
X3046333Y8039095D01*
X3046311Y8039037D01*
X3053537Y8036526D01*
X3053557Y8036584D01*
X3060525Y8034275D01*
X3136938Y8018498D01*
X3212872Y8000501D01*
X3212873Y8000501D01*
X3212877Y8000500D01*
X3212881Y8000500D01*
X3220166Y7999648D01*
X3220158Y7999588D01*
X3227773Y7998810D01*
X3227779Y7998871D01*
X3235083Y7998233D01*
X3235091Y7998231D01*
X3313076Y8000500D01*
X4100229Y8000500D01*
X4116773Y7998810D01*
X4116779Y7998871D01*
X4124083Y7998233D01*
X4124091Y7998231D01*
X4202076Y8000500D01*
X7918412Y8000500D01*
X7918415Y8000500D01*
X8017884Y8012127D01*
X8051042Y8016002D01*
X8218539Y8076966D01*
X8218548Y8076973D01*
X8224347Y8079884D01*
X8294199Y8092584D01*
X8359828Y8065504D01*
X8400398Y8007241D01*
X8406900Y7967288D01*
X8406900Y7438693D01*
X8386898Y7370572D01*
X8369995Y7349597D01*
X8104036Y7083639D01*
X8068406Y7058641D01*
X7659183Y6866879D01*
X7659163Y6866867D01*
X7652278Y6861927D01*
X7627052Y6847898D01*
X7594358Y6834356D01*
X7478526Y6745474D01*
X7389646Y6629644D01*
X7389645Y6629642D01*
X7381719Y6610506D01*
X7333771Y6494753D01*
X7314715Y6350001D01*
X7314715Y6350000D01*
X7333771Y6205248D01*
X7389644Y6070359D01*
X7389649Y6070351D01*
X7478525Y5954526D01*
X7592677Y5866934D01*
X7594357Y5865645D01*
X7729246Y5809772D01*
X7874000Y5790715D01*
X8018754Y5809772D01*
X8153643Y5865645D01*
X8269474Y5954526D01*
X8284964Y5974713D01*
X8358353Y6070354D01*
X8358353Y6070355D01*
X8358355Y6070357D01*
X8372052Y6103426D01*
X8386989Y6129902D01*
X8390872Y6135175D01*
X8582639Y6544412D01*
X8607633Y6580034D01*
X8979445Y6951846D01*
X8999621Y6968230D01*
X9007515Y6973386D01*
X9028038Y6999757D01*
X9033196Y7005597D01*
X9035666Y7008065D01*
X9048535Y7026090D01*
X9080511Y7067172D01*
X9080512Y7067177D01*
X9084018Y7073655D01*
X9084067Y7073754D01*
X9084109Y7073832D01*
X9087334Y7080431D01*
X9087341Y7080439D01*
X9102199Y7130349D01*
X9119100Y7179577D01*
X9119100Y7179583D01*
X9120326Y7186933D01*
X9120330Y7186961D01*
X9120336Y7187001D01*
X9121252Y7194345D01*
X9119100Y7246368D01*
X9119100Y9106046D01*
X9139102Y9174167D01*
X9192758Y9220660D01*
X9263032Y9230764D01*
X9327612Y9201270D01*
G37*
%TD.AperFunction*%
%TA.AperFunction,Conductor*%
G36*
X12839210Y30395998D02*
G01*
X12885703Y30342342D01*
X12895807Y30272068D01*
X12866313Y30207488D01*
X12860184Y30200904D01*
X12275393Y29616115D01*
X12230098Y29587069D01*
X12034953Y29514721D01*
X11722894Y29399027D01*
X11721057Y29398307D01*
X11720306Y29398012D01*
X11716384Y29396437D01*
X11716377Y29396434D01*
X11706868Y29390117D01*
X11685376Y29378667D01*
X11633139Y29357029D01*
X11506864Y29260133D01*
X11409968Y29133858D01*
X11349060Y28986807D01*
X11328284Y28829000D01*
X11349060Y28671194D01*
X11409968Y28524143D01*
X11506865Y28397866D01*
X11633142Y28300969D01*
X11725872Y28262561D01*
X11780194Y28240060D01*
X11938000Y28219284D01*
X12095806Y28240060D01*
X12188536Y28278470D01*
X12242857Y28300969D01*
X12369134Y28397866D01*
X12392234Y28427970D01*
X12466030Y28524142D01*
X12490599Y28583461D01*
X12499682Y28601250D01*
X12501303Y28603886D01*
X12508887Y28616216D01*
X12696066Y29121101D01*
X12725110Y29166392D01*
X13429816Y29871096D01*
X13492128Y29905121D01*
X13518911Y29908000D01*
X17709134Y29908000D01*
X17777255Y29887998D01*
X17798229Y29871095D01*
X20085229Y27584095D01*
X20119255Y27521783D01*
X20114190Y27450968D01*
X20071643Y27394132D01*
X20005123Y27369321D01*
X19996134Y27369000D01*
X19717517Y27369000D01*
X19712025Y27369240D01*
X19677005Y27372304D01*
X19672732Y27372677D01*
X19672731Y27372677D01*
X19672726Y27372677D01*
X19634639Y27362471D01*
X19629274Y27361282D01*
X19590438Y27354434D01*
X19583768Y27352006D01*
X19570832Y27346648D01*
X19564408Y27343652D01*
X19532108Y27321037D01*
X19527476Y27318086D01*
X19493315Y27298361D01*
X19467959Y27268144D01*
X19464245Y27264091D01*
X18836909Y26636755D01*
X18832856Y26633041D01*
X18802639Y26607685D01*
X18782914Y26573524D01*
X18779963Y26568892D01*
X18757348Y26536592D01*
X18754352Y26530168D01*
X18748994Y26517232D01*
X18746566Y26510562D01*
X18739718Y26471726D01*
X18738529Y26466361D01*
X18728323Y26428274D01*
X18728323Y26428269D01*
X18731760Y26388975D01*
X18732000Y26383483D01*
X18732000Y26092475D01*
X18721314Y26041695D01*
X18585450Y25733170D01*
X18539690Y25678887D01*
X18471848Y25657962D01*
X18403462Y25677036D01*
X18370175Y25707244D01*
X18302474Y25795474D01*
X18302472Y25795476D01*
X18302471Y25795477D01*
X18186649Y25884351D01*
X18186641Y25884356D01*
X18051752Y25940229D01*
X17907000Y25959285D01*
X17762247Y25940229D01*
X17694802Y25912292D01*
X17627358Y25884355D01*
X17627357Y25884354D01*
X17627356Y25884354D01*
X17511526Y25795474D01*
X17422646Y25679644D01*
X17422645Y25679642D01*
X17402123Y25630098D01*
X17366771Y25544753D01*
X17347715Y25400001D01*
X17347715Y25400000D01*
X17366771Y25255248D01*
X17422644Y25120359D01*
X17422649Y25120351D01*
X17511525Y25004526D01*
X17618629Y24922342D01*
X17627357Y24915645D01*
X17635582Y24912238D01*
X17676431Y24895317D01*
X17695877Y24885198D01*
X17709329Y24876634D01*
X18128332Y24713837D01*
X18171795Y24685485D01*
X18305379Y24551901D01*
X18309083Y24547858D01*
X18334438Y24517642D01*
X18334440Y24517640D01*
X18365251Y24499851D01*
X18368594Y24497921D01*
X18373219Y24494975D01*
X18390982Y24482537D01*
X18405536Y24472346D01*
X18411988Y24469338D01*
X18424850Y24464011D01*
X18431556Y24461570D01*
X18431560Y24461568D01*
X18470412Y24454718D01*
X18475748Y24453535D01*
X18513857Y24443323D01*
X18538881Y24445513D01*
X18553153Y24446760D01*
X18558645Y24447000D01*
X20136090Y24447000D01*
X20204211Y24426998D01*
X20225185Y24410095D01*
X20709278Y23926002D01*
X20743304Y23863690D01*
X20738239Y23792875D01*
X20720660Y23769393D01*
X20734524Y23781846D01*
X20804607Y23793203D01*
X20869704Y23764868D01*
X20878000Y23757280D01*
X23140095Y21495185D01*
X23174121Y21432873D01*
X23177000Y21406090D01*
X23177000Y17112999D01*
X23156998Y17044878D01*
X23103342Y16998385D01*
X23033068Y16988281D01*
X22972460Y17015961D01*
X22972118Y17015504D01*
X22970017Y17017077D01*
X22968488Y17017775D01*
X22966041Y17020054D01*
X22847965Y17108445D01*
X22711093Y17159495D01*
X22650597Y17166000D01*
X22602000Y17166000D01*
X22602000Y15600000D01*
X22650585Y15600000D01*
X22650597Y15600001D01*
X22711093Y15606506D01*
X22847964Y15657556D01*
X22847965Y15657556D01*
X22972118Y15750496D01*
X22973618Y15748493D01*
X23024217Y15776122D01*
X23095032Y15771057D01*
X23151868Y15728510D01*
X23176679Y15661990D01*
X23177000Y15653001D01*
X23177000Y12081643D01*
X23176760Y12076151D01*
X23173323Y12036857D01*
X23183529Y11998765D01*
X23184719Y11993398D01*
X23191567Y11954563D01*
X23194001Y11947876D01*
X23199347Y11934971D01*
X23202349Y11928532D01*
X23224970Y11896225D01*
X23227918Y11891599D01*
X23239104Y11872223D01*
X23241543Y11867999D01*
X23247640Y11857440D01*
X23259419Y11847556D01*
X23277850Y11832091D01*
X23281893Y11828387D01*
X24200314Y10909966D01*
X25113754Y9996526D01*
X25145019Y9944706D01*
X25366121Y9230764D01*
X25588087Y8514031D01*
X25599150Y8475150D01*
X25599152Y8475146D01*
X25599153Y8475143D01*
X25602973Y8467472D01*
X25605342Y8462100D01*
X25605378Y8462005D01*
X25606456Y8459927D01*
X25608409Y8456551D01*
X25693610Y8285447D01*
X25693610Y8285446D01*
X25821324Y8116327D01*
X25977933Y7973559D01*
X26158108Y7861999D01*
X26158110Y7861999D01*
X26158115Y7861995D01*
X26355726Y7785440D01*
X26564039Y7746500D01*
X26564041Y7746500D01*
X26775959Y7746500D01*
X26775961Y7746500D01*
X26984274Y7785440D01*
X27181885Y7861995D01*
X27362065Y7973558D01*
X27428668Y8034275D01*
X27474614Y8076160D01*
X27538431Y8107271D01*
X27608937Y8098941D01*
X27663748Y8053815D01*
X27685460Y7986220D01*
X27685500Y7983045D01*
X27685500Y4998193D01*
X27665498Y4930072D01*
X27611842Y4883579D01*
X27541568Y4873475D01*
X27476988Y4902969D01*
X27438865Y4961818D01*
X27427599Y4999180D01*
X27427595Y4999190D01*
X27420223Y5016657D01*
X27282510Y5342967D01*
X27101706Y5669374D01*
X26887231Y5974713D01*
X26773649Y6104519D01*
X26641516Y6255526D01*
X26641514Y6255528D01*
X26367344Y6508629D01*
X26077008Y6724331D01*
X26067827Y6731152D01*
X26067827Y6731153D01*
X25892682Y6834356D01*
X25746345Y6920584D01*
X25406553Y7074769D01*
X25052298Y7191963D01*
X25052297Y7191964D01*
X25052288Y7191966D01*
X24687585Y7270840D01*
X24316581Y7310500D01*
X24316569Y7310500D01*
X24036787Y7310500D01*
X24036781Y7310500D01*
X23757404Y7295611D01*
X23757386Y7295609D01*
X23389000Y7236256D01*
X23029012Y7138083D01*
X23029009Y7138082D01*
X22681515Y7002208D01*
X22681508Y7002206D01*
X22681498Y7002201D01*
X22681489Y7002197D01*
X22681486Y7002195D01*
X22350400Y6830154D01*
X22350397Y6830152D01*
X22039452Y6623880D01*
X22039445Y6623875D01*
X21752193Y6385722D01*
X21752192Y6385721D01*
X21491889Y6118394D01*
X21491887Y6118392D01*
X21261465Y5824900D01*
X21063546Y5508578D01*
X21011342Y5401223D01*
X20963564Y5348709D01*
X20894979Y5330362D01*
X20827362Y5352007D01*
X20782182Y5406773D01*
X20779973Y5412293D01*
X20766444Y5448566D01*
X20678904Y5565505D01*
X20561965Y5653045D01*
X20425094Y5704095D01*
X20373840Y5709606D01*
X20308248Y5736777D01*
X20267758Y5795096D01*
X20263588Y5858730D01*
X20286999Y5980195D01*
X20287000Y5980204D01*
X20287000Y6268500D01*
X19579000Y6268500D01*
X19579000Y6903500D01*
X20287000Y6903500D01*
X20287000Y7138780D01*
X20286998Y7138801D01*
X20271927Y7296634D01*
X20271924Y7296649D01*
X20212310Y7499678D01*
X20115349Y7687755D01*
X19984544Y7854086D01*
X19984539Y7854092D01*
X19824625Y7992657D01*
X19824624Y7992658D01*
X19641377Y8098455D01*
X19641371Y8098458D01*
X19496500Y8148599D01*
X19496500Y7284186D01*
X19417045Y7363641D01*
X19304148Y7421165D01*
X19179000Y7440986D01*
X19053852Y7421165D01*
X18940955Y7363641D01*
X18861500Y7284186D01*
X18861500Y8078974D01*
X18881502Y8147095D01*
X18898405Y8168069D01*
X19243336Y8513000D01*
X20299000Y8513000D01*
X20299000Y8464403D01*
X20305505Y8403907D01*
X20356555Y8267036D01*
X20356555Y8267035D01*
X20444095Y8150096D01*
X20561034Y8062556D01*
X20697906Y8011506D01*
X20758402Y8005001D01*
X20758415Y8005000D01*
X20832000Y8005000D01*
X20832000Y8513000D01*
X21332000Y8513000D01*
X21332000Y8005000D01*
X21405585Y8005000D01*
X21405597Y8005001D01*
X21466093Y8011506D01*
X21602964Y8062556D01*
X21602965Y8062556D01*
X21719904Y8150096D01*
X21807444Y8267035D01*
X21807444Y8267036D01*
X21858494Y8403907D01*
X21864999Y8464403D01*
X21865000Y8464415D01*
X21865000Y8513000D01*
X21332000Y8513000D01*
X20832000Y8513000D01*
X20299000Y8513000D01*
X19243336Y8513000D01*
X19308781Y8578445D01*
X20204371Y9474035D01*
X20266681Y9508059D01*
X20337496Y9502994D01*
X20394332Y9460447D01*
X20419143Y9393927D01*
X20404052Y9324553D01*
X20394333Y9309430D01*
X20356555Y9258965D01*
X20305505Y9122094D01*
X20299000Y9061598D01*
X20299000Y9013000D01*
X21865000Y9013000D01*
X21865000Y9061586D01*
X21864999Y9061598D01*
X21858494Y9122094D01*
X21807444Y9258965D01*
X21807444Y9258966D01*
X21719904Y9375905D01*
X21661990Y9419258D01*
X21619443Y9476093D01*
X21611499Y9520121D01*
X21611499Y10054066D01*
X21608682Y10068224D01*
X21606962Y10106075D01*
X21646549Y10479815D01*
X21643639Y10518118D01*
X21643459Y10522887D01*
X21643459Y11936624D01*
X21642852Y11942788D01*
X21643348Y11942837D01*
X21642127Y11954702D01*
X21642007Y11969294D01*
X21542327Y12449636D01*
X21539700Y12475235D01*
X21539700Y13708730D01*
X21559702Y13776851D01*
X21568262Y13788616D01*
X21583149Y13806774D01*
X21641806Y13846771D01*
X21656007Y13850467D01*
X21681276Y13855494D01*
X21710301Y13861266D01*
X21794484Y13917516D01*
X21850734Y14001699D01*
X21865500Y14075933D01*
X21865499Y14626066D01*
X21865498Y14626070D01*
X21865498Y14626074D01*
X21859228Y14657592D01*
X21850734Y14700301D01*
X21850733Y14700302D01*
X21850734Y14700302D01*
X21809279Y14762342D01*
X21794484Y14784484D01*
X21794483Y14784485D01*
X21791468Y14788997D01*
X21770252Y14856750D01*
X21789034Y14925217D01*
X21791468Y14929004D01*
X21794481Y14933515D01*
X21794484Y14933516D01*
X21850734Y15017699D01*
X21865500Y15091933D01*
X21865499Y15479933D01*
X21885501Y15548051D01*
X21939156Y15594544D01*
X22004971Y15605209D01*
X22053407Y15600001D01*
X22053415Y15600000D01*
X22102000Y15600000D01*
X22102000Y17166000D01*
X22053402Y17166000D01*
X21992906Y17159495D01*
X21856035Y17108445D01*
X21856034Y17108445D01*
X21830956Y17089671D01*
X21764435Y17064861D01*
X21695061Y17079953D01*
X21644860Y17130156D01*
X21629769Y17199531D01*
X21654581Y17266050D01*
X21666346Y17279628D01*
X21676109Y17289391D01*
X21680141Y17293084D01*
X21710360Y17318440D01*
X21730088Y17352612D01*
X21733014Y17357206D01*
X21755651Y17389534D01*
X21755652Y17389537D01*
X21758683Y17396037D01*
X21763985Y17408838D01*
X21766432Y17415560D01*
X21768350Y17426441D01*
X21773282Y17454413D01*
X21774470Y17459769D01*
X21775450Y17463426D01*
X21784677Y17497857D01*
X21782149Y17526750D01*
X21781240Y17537150D01*
X21781000Y17542642D01*
X21781000Y18398356D01*
X21781240Y18403848D01*
X21782627Y18419705D01*
X21784677Y18443143D01*
X21774465Y18481252D01*
X21773282Y18486588D01*
X21766432Y18525440D01*
X21766430Y18525444D01*
X21763989Y18532150D01*
X21758662Y18545012D01*
X21755654Y18551464D01*
X21739977Y18573853D01*
X21733025Y18583781D01*
X21730079Y18588406D01*
X21719921Y18606000D01*
X21710360Y18622560D01*
X21710358Y18622562D01*
X21680142Y18647917D01*
X21676099Y18651621D01*
X21193793Y19133927D01*
X21159767Y19196239D01*
X21157240Y19213606D01*
X21152265Y19279998D01*
X21101857Y19408435D01*
X21015832Y19516308D01*
X20901832Y19594031D01*
X20901829Y19594032D01*
X20784777Y19630139D01*
X20725578Y19669332D01*
X20698338Y19725961D01*
X20684313Y19796473D01*
X20687727Y19797153D01*
X20682350Y19847138D01*
X20714125Y19910627D01*
X20775181Y19946859D01*
X20819822Y19950053D01*
X20885407Y19943001D01*
X20885415Y19943000D01*
X20959000Y19943000D01*
X20959000Y20451000D01*
X21459000Y20451000D01*
X21459000Y19943000D01*
X21532585Y19943000D01*
X21532597Y19943001D01*
X21593093Y19949506D01*
X21729964Y20000556D01*
X21729965Y20000556D01*
X21846904Y20088096D01*
X21934444Y20205035D01*
X21934444Y20205036D01*
X21985494Y20341907D01*
X21991999Y20402403D01*
X21992000Y20402415D01*
X21992000Y20451000D01*
X21459000Y20451000D01*
X20959000Y20451000D01*
X20069000Y20451000D01*
X20000879Y20471002D01*
X19954386Y20524658D01*
X19943000Y20577000D01*
X19943000Y20825000D01*
X19963002Y20893121D01*
X20016658Y20939614D01*
X20069000Y20951000D01*
X21992000Y20951000D01*
X21992000Y20999586D01*
X21991999Y20999598D01*
X21985494Y21060094D01*
X21934444Y21196965D01*
X21934444Y21196966D01*
X21846904Y21313905D01*
X21788990Y21357258D01*
X21746443Y21414093D01*
X21738499Y21458121D01*
X21738499Y21992066D01*
X21738498Y21992070D01*
X21738498Y21992074D01*
X21723734Y22066301D01*
X21667483Y22150485D01*
X21583302Y22206734D01*
X21509069Y22221500D01*
X21509067Y22221500D01*
X21282203Y22221500D01*
X21264273Y22222782D01*
X21245368Y22225500D01*
X21245367Y22225500D01*
X20827500Y22225500D01*
X20759379Y22245502D01*
X20712886Y22299158D01*
X20701500Y22351500D01*
X20701500Y23154598D01*
X20701499Y23154616D01*
X20701499Y23520064D01*
X20701498Y23520073D01*
X20686734Y23594300D01*
X20686734Y23594301D01*
X20684139Y23598185D01*
X20662925Y23665935D01*
X20680613Y23730415D01*
X20629172Y23711228D01*
X20559798Y23726319D01*
X20550180Y23732143D01*
X20546302Y23734734D01*
X20472068Y23749500D01*
X19913936Y23749500D01*
X19913926Y23749499D01*
X19836581Y23734114D01*
X19787420Y23734114D01*
X19710069Y23749500D01*
X19151936Y23749500D01*
X19151926Y23749499D01*
X19077699Y23734735D01*
X18993513Y23678483D01*
X18989967Y23674936D01*
X18927653Y23640913D01*
X18856838Y23645981D01*
X18811780Y23674940D01*
X18669953Y23816767D01*
X18524613Y23962107D01*
X18520909Y23966150D01*
X18511510Y23977351D01*
X18495560Y23996360D01*
X18495559Y23996361D01*
X18480777Y24004896D01*
X18461401Y24016082D01*
X18456775Y24019030D01*
X18424468Y24041651D01*
X18418029Y24044653D01*
X18405124Y24049999D01*
X18398437Y24052433D01*
X18359602Y24059281D01*
X18354235Y24060471D01*
X18316144Y24070677D01*
X18316143Y24070677D01*
X18276850Y24067240D01*
X18271358Y24067000D01*
X17328910Y24067000D01*
X17260789Y24087002D01*
X17239815Y24103905D01*
X15700515Y25643205D01*
X15672163Y25686668D01*
X15657843Y25723525D01*
X15508861Y26106971D01*
X15508258Y26108473D01*
X15507458Y26110446D01*
X15500563Y26120836D01*
X15489143Y26142285D01*
X15470357Y26187639D01*
X15470355Y26187642D01*
X15381474Y26303474D01*
X15381472Y26303476D01*
X15381471Y26303477D01*
X15265649Y26392351D01*
X15265641Y26392356D01*
X15130752Y26448229D01*
X14986000Y26467285D01*
X14985998Y26467285D01*
X14905022Y26456625D01*
X14834874Y26467565D01*
X14781775Y26514693D01*
X14767937Y26553198D01*
X14766366Y26552776D01*
X14764230Y26560747D01*
X14764228Y26560753D01*
X14764228Y26560754D01*
X14708355Y26695642D01*
X14619474Y26811474D01*
X14619472Y26811476D01*
X14619471Y26811477D01*
X14503649Y26900351D01*
X14503641Y26900356D01*
X14368752Y26956229D01*
X14224000Y26975285D01*
X14079247Y26956229D01*
X14011802Y26928292D01*
X13944358Y26900355D01*
X13944357Y26900354D01*
X13944356Y26900354D01*
X13828526Y26811474D01*
X13739646Y26695644D01*
X13739645Y26695642D01*
X13716185Y26639004D01*
X13683771Y26560753D01*
X13664715Y26416001D01*
X13664715Y26416000D01*
X13683772Y26271246D01*
X13704097Y26222174D01*
X13710690Y26201275D01*
X13714148Y26185701D01*
X13714149Y26185700D01*
X13747289Y26110445D01*
X13886509Y25794299D01*
X13895314Y25774306D01*
X13906000Y25723525D01*
X13906000Y25670643D01*
X13905760Y25665151D01*
X13902323Y25625857D01*
X13912529Y25587765D01*
X13913719Y25582398D01*
X13920567Y25543563D01*
X13923001Y25536876D01*
X13928347Y25523971D01*
X13931349Y25517532D01*
X13953970Y25485225D01*
X13956918Y25480599D01*
X13976640Y25446440D01*
X13998445Y25428143D01*
X14006850Y25421091D01*
X14010893Y25417387D01*
X14459445Y24968835D01*
X14906483Y24521797D01*
X14934835Y24478334D01*
X15098140Y24058025D01*
X15098743Y24056524D01*
X15099541Y24054554D01*
X15106433Y24044169D01*
X15117854Y24022720D01*
X15136643Y23977360D01*
X15136647Y23977354D01*
X15146863Y23964041D01*
X15223865Y23863690D01*
X15225527Y23861525D01*
X15314565Y23793203D01*
X15341357Y23772645D01*
X15476246Y23716772D01*
X15621000Y23697715D01*
X15765754Y23716772D01*
X15900643Y23772645D01*
X16016474Y23861526D01*
X16105355Y23977357D01*
X16139093Y24058810D01*
X16183640Y24114088D01*
X16251004Y24136509D01*
X16319795Y24118951D01*
X16344596Y24099684D01*
X16908379Y23535901D01*
X16912083Y23531858D01*
X16931833Y23508322D01*
X16937440Y23501640D01*
X16963703Y23486477D01*
X16971594Y23481921D01*
X16976219Y23478975D01*
X16993982Y23466537D01*
X17008536Y23456346D01*
X17014988Y23453338D01*
X17027850Y23448011D01*
X17034558Y23445569D01*
X17034560Y23445568D01*
X17073412Y23438718D01*
X17078748Y23437535D01*
X17116857Y23427323D01*
X17141918Y23429516D01*
X17156150Y23430760D01*
X17161642Y23431000D01*
X18104090Y23431000D01*
X18172211Y23410998D01*
X18193185Y23394095D01*
X18377595Y23209685D01*
X18411621Y23147373D01*
X18414500Y23120590D01*
X18414500Y23040893D01*
X18414501Y23040884D01*
X18449480Y22921757D01*
X18449480Y22850761D01*
X18411096Y22791035D01*
X18346516Y22761541D01*
X18276242Y22771645D01*
X18251880Y22786297D01*
X18186649Y22836351D01*
X18186641Y22836356D01*
X18051752Y22892229D01*
X17907000Y22911285D01*
X17762247Y22892229D01*
X17713176Y22871903D01*
X17692273Y22865309D01*
X17676701Y22861852D01*
X17676697Y22861851D01*
X17265303Y22680686D01*
X17214523Y22670000D01*
X16059474Y22670000D01*
X16008694Y22680686D01*
X15655201Y22836351D01*
X15597097Y22861938D01*
X15592543Y22863892D01*
X15592540Y22863893D01*
X15580342Y22866358D01*
X15557087Y22873451D01*
X15511752Y22892229D01*
X15367000Y22911285D01*
X15222247Y22892229D01*
X15165628Y22868776D01*
X15087358Y22836355D01*
X15087357Y22836354D01*
X15087356Y22836354D01*
X14971526Y22747474D01*
X14882646Y22631644D01*
X14882645Y22631642D01*
X14863442Y22585282D01*
X14826771Y22496753D01*
X14807715Y22352002D01*
X14807715Y22351997D01*
X14812034Y22319184D01*
X14813029Y22298174D01*
X14812992Y22297162D01*
X14812992Y22297158D01*
X14823551Y22231707D01*
X14826772Y22207240D01*
X14827764Y22203540D01*
X14829107Y22197268D01*
X14859860Y22006650D01*
X14853441Y21951719D01*
X14854687Y21951471D01*
X14837500Y21865070D01*
X14837500Y21314937D01*
X14837501Y21314927D01*
X14852265Y21240701D01*
X14852265Y21240700D01*
X14852266Y21240699D01*
X14908516Y21156516D01*
X14908517Y21156515D01*
X14911532Y21152004D01*
X14932747Y21084251D01*
X14913965Y21015784D01*
X14911532Y21011999D01*
X14852266Y20923303D01*
X14837500Y20849070D01*
X14837500Y20298937D01*
X14837501Y20298927D01*
X14854687Y20212526D01*
X14853007Y20212193D01*
X14858500Y20184586D01*
X14858500Y20118215D01*
X14854530Y20086836D01*
X14783093Y19809027D01*
X14707823Y19516308D01*
X14664848Y19349185D01*
X14662379Y19341607D01*
X14645398Y19298862D01*
X14601659Y19242939D01*
X14534629Y19219540D01*
X14465590Y19236095D01*
X14416460Y19287348D01*
X14402300Y19345381D01*
X14402300Y22513170D01*
X14404982Y22539030D01*
X14406916Y22548253D01*
X14405583Y22558944D01*
X14402783Y22581404D01*
X14402300Y22589196D01*
X14402300Y22592676D01*
X14398655Y22614523D01*
X14392216Y22666178D01*
X14392215Y22666180D01*
X14392215Y22666184D01*
X14392212Y22666189D01*
X14390076Y22673367D01*
X14387663Y22680394D01*
X14362879Y22726190D01*
X14352474Y22747474D01*
X14340019Y22772952D01*
X14340017Y22772954D01*
X14335685Y22779021D01*
X14335663Y22779050D01*
X14335647Y22779072D01*
X14331101Y22784911D01*
X14331099Y22784916D01*
X14313594Y22801030D01*
X14292785Y22820187D01*
X13296205Y23816767D01*
X13262179Y23879079D01*
X13259300Y23905862D01*
X13259300Y27021138D01*
X13279302Y27089259D01*
X13296205Y27110234D01*
X13910768Y27724796D01*
X13973080Y27758821D01*
X13999863Y27761700D01*
X16166938Y27761700D01*
X16235059Y27741698D01*
X16281552Y27688042D01*
X16286982Y27668881D01*
X16288009Y27669186D01*
X16293114Y27652033D01*
X16293117Y27652024D01*
X16293120Y27652012D01*
X16295536Y27644976D01*
X16308994Y27620110D01*
X16320322Y27599177D01*
X16343181Y27552418D01*
X16343183Y27552416D01*
X16347538Y27546316D01*
X16352102Y27540453D01*
X16390411Y27505188D01*
X16527644Y27367954D01*
X16544030Y27347776D01*
X16549183Y27339888D01*
X16549185Y27339887D01*
X16549186Y27339885D01*
X16575547Y27319368D01*
X16581391Y27314207D01*
X16583864Y27311734D01*
X16583869Y27311730D01*
X16583873Y27311727D01*
X16601898Y27298858D01*
X16641359Y27268144D01*
X16642972Y27266889D01*
X16642976Y27266888D01*
X16649508Y27263352D01*
X16649566Y27263324D01*
X16649617Y27263296D01*
X16656236Y27260061D01*
X16656239Y27260059D01*
X16706148Y27245201D01*
X16755377Y27228300D01*
X16762765Y27227068D01*
X16770143Y27226148D01*
X16770143Y27226149D01*
X16770144Y27226148D01*
X16822167Y27228300D01*
X17120400Y27228300D01*
X17146255Y27225619D01*
X17155481Y27223684D01*
X17188633Y27227817D01*
X17196424Y27228300D01*
X17199903Y27228300D01*
X17199908Y27228300D01*
X17221753Y27231946D01*
X17273413Y27238385D01*
X17273419Y27238389D01*
X17280486Y27240493D01*
X17280582Y27240525D01*
X17280674Y27240553D01*
X17287614Y27242936D01*
X17287624Y27242937D01*
X17319262Y27260059D01*
X17333422Y27267722D01*
X17349238Y27275455D01*
X17380182Y27290581D01*
X17380185Y27290585D01*
X17386256Y27294919D01*
X17392136Y27299496D01*
X17392146Y27299501D01*
X17427412Y27337812D01*
X17551080Y27461479D01*
X17571258Y27477866D01*
X17579150Y27483021D01*
X17599675Y27509394D01*
X17604823Y27515222D01*
X17607301Y27517699D01*
X17620174Y27535730D01*
X17652146Y27576807D01*
X17652148Y27576815D01*
X17655700Y27583378D01*
X17658968Y27590066D01*
X17658975Y27590074D01*
X17673830Y27639972D01*
X17690735Y27689212D01*
X17690735Y27689221D01*
X17691961Y27696568D01*
X17691965Y27696596D01*
X17691971Y27696636D01*
X17692887Y27703980D01*
X17690735Y27756003D01*
X17690735Y27795046D01*
X17710737Y27863167D01*
X17764393Y27909660D01*
X17833179Y27919968D01*
X17907000Y27910249D01*
X18051754Y27929306D01*
X18186643Y27985179D01*
X18302474Y28074060D01*
X18391355Y28189891D01*
X18447228Y28324780D01*
X18466285Y28469534D01*
X18459000Y28524866D01*
X18448393Y28605437D01*
X18447228Y28614288D01*
X18391355Y28749176D01*
X18302474Y28865008D01*
X18302472Y28865010D01*
X18302471Y28865011D01*
X18186649Y28953885D01*
X18186641Y28953890D01*
X18158704Y28965462D01*
X18051754Y29009762D01*
X18051751Y29009763D01*
X18051750Y29009763D01*
X18046176Y29011257D01*
X17985555Y29048212D01*
X17954537Y29112074D01*
X17953876Y29116484D01*
X17939228Y29227754D01*
X17883355Y29362642D01*
X17794474Y29478474D01*
X17794472Y29478476D01*
X17794471Y29478477D01*
X17678649Y29567351D01*
X17678641Y29567356D01*
X17543752Y29623229D01*
X17399000Y29642285D01*
X17254247Y29623229D01*
X17190062Y29596642D01*
X17119358Y29567355D01*
X17119357Y29567354D01*
X17119356Y29567354D01*
X17003526Y29478474D01*
X16914646Y29362644D01*
X16914645Y29362642D01*
X16904855Y29339007D01*
X16858771Y29227753D01*
X16839715Y29083001D01*
X16839715Y29082999D01*
X16847647Y29022745D01*
X16836707Y28952597D01*
X16789579Y28899498D01*
X16722725Y28880300D01*
X13681830Y28880300D01*
X13655974Y28882982D01*
X13646749Y28884916D01*
X13646748Y28884916D01*
X13641491Y28884261D01*
X13613596Y28880784D01*
X13605806Y28880300D01*
X13602319Y28880300D01*
X13589214Y28878113D01*
X13580476Y28876655D01*
X13559812Y28874079D01*
X13528814Y28870215D01*
X13521675Y28868091D01*
X13514607Y28865664D01*
X13493592Y28854292D01*
X13468806Y28840878D01*
X13453453Y28833373D01*
X13422048Y28818020D01*
X13415959Y28813673D01*
X13410084Y28809101D01*
X13374814Y28770786D01*
X12280355Y27676328D01*
X12260180Y27659943D01*
X12252287Y27654787D01*
X12252284Y27654784D01*
X12231767Y27628424D01*
X12226602Y27622575D01*
X12224137Y27620110D01*
X12211263Y27602081D01*
X12179289Y27560999D01*
X12175721Y27554408D01*
X12172459Y27547733D01*
X12157600Y27497823D01*
X12140699Y27448591D01*
X12139472Y27441237D01*
X12138547Y27433824D01*
X12140700Y27381803D01*
X12140700Y23587831D01*
X12138018Y23561974D01*
X12136083Y23552750D01*
X12138183Y23535912D01*
X12140216Y23519597D01*
X12140700Y23511807D01*
X12140700Y23508322D01*
X12141815Y23501642D01*
X12144345Y23486476D01*
X12150784Y23434818D01*
X12152914Y23427663D01*
X12152917Y23427654D01*
X12152920Y23427642D01*
X12155336Y23420606D01*
X12169684Y23394095D01*
X12180122Y23374807D01*
X12202981Y23328048D01*
X12202983Y23328046D01*
X12207336Y23321949D01*
X12211900Y23316085D01*
X12250214Y23280815D01*
X13246795Y22284234D01*
X13280820Y22221922D01*
X13283700Y22195139D01*
X13283700Y17246848D01*
X13263698Y17178727D01*
X13210042Y17132234D01*
X13139768Y17122130D01*
X13075188Y17151624D01*
X13057738Y17170144D01*
X12997229Y17249000D01*
X12984361Y17269620D01*
X12984266Y17269810D01*
X12984232Y17269879D01*
X12984231Y17269881D01*
X12984230Y17269883D01*
X12790279Y17521009D01*
X12764470Y17587148D01*
X12764000Y17598026D01*
X12764000Y19922359D01*
X12764240Y19927851D01*
X12765680Y19944320D01*
X12767677Y19967143D01*
X12757467Y20005243D01*
X12756283Y20010584D01*
X12749432Y20049440D01*
X12749431Y20049442D01*
X12749431Y20049443D01*
X12746996Y20056134D01*
X12741674Y20068983D01*
X12738653Y20075463D01*
X12736875Y20078002D01*
X12716022Y20107784D01*
X12713078Y20112407D01*
X12693360Y20146560D01*
X12663142Y20171917D01*
X12659099Y20175621D01*
X12603316Y20231404D01*
X12569290Y20293716D01*
X12574355Y20364531D01*
X12616902Y20421367D01*
X12644187Y20436906D01*
X12725643Y20470645D01*
X12841474Y20559526D01*
X12930355Y20675357D01*
X12986228Y20810246D01*
X13005285Y20955000D01*
X12999175Y21001407D01*
X12994679Y21035560D01*
X12986228Y21099754D01*
X12930355Y21234642D01*
X12841474Y21350474D01*
X12841473Y21350475D01*
X12725646Y21439353D01*
X12725640Y21439357D01*
X12676569Y21459683D01*
X12657125Y21469801D01*
X12643671Y21478366D01*
X12643669Y21478367D01*
X12433153Y21560160D01*
X12224666Y21641165D01*
X12181203Y21669517D01*
X11911905Y21938815D01*
X11877879Y22001127D01*
X11875000Y22027910D01*
X11875000Y25383359D01*
X11875240Y25388851D01*
X11876382Y25401923D01*
X11878677Y25428143D01*
X11868465Y25466252D01*
X11867282Y25471588D01*
X11860432Y25510440D01*
X11860431Y25510442D01*
X11857989Y25517150D01*
X11852662Y25530012D01*
X11849654Y25536464D01*
X11834668Y25557866D01*
X11827025Y25568781D01*
X11824079Y25573406D01*
X11817323Y25585107D01*
X11804360Y25607560D01*
X11785955Y25623004D01*
X11774142Y25632917D01*
X11770099Y25636621D01*
X11255515Y26151205D01*
X11227163Y26194668D01*
X11216476Y26222174D01*
X11063861Y26614971D01*
X11063258Y26616473D01*
X11062458Y26618446D01*
X11055563Y26628836D01*
X11044143Y26650285D01*
X11025357Y26695639D01*
X11024479Y26696783D01*
X10936474Y26811474D01*
X10936472Y26811476D01*
X10936471Y26811477D01*
X10820649Y26900351D01*
X10820641Y26900356D01*
X10685752Y26956229D01*
X10541000Y26975285D01*
X10396247Y26956229D01*
X10328802Y26928292D01*
X10261358Y26900355D01*
X10261357Y26900354D01*
X10261356Y26900354D01*
X10145526Y26811474D01*
X10056646Y26695644D01*
X10056643Y26695639D01*
X10022906Y26614192D01*
X9978357Y26558912D01*
X9910993Y26536492D01*
X9842202Y26554051D01*
X9817403Y26573317D01*
X9752905Y26637815D01*
X9718879Y26700127D01*
X9716000Y26726910D01*
X9716000Y28883977D01*
X9736002Y28952098D01*
X9742268Y28960981D01*
X9936232Y29212122D01*
X9938524Y29216381D01*
X9949511Y29233370D01*
X10009355Y29311357D01*
X10065228Y29446246D01*
X10084285Y29591000D01*
X10065228Y29735754D01*
X10009355Y29870642D01*
X9920474Y29986474D01*
X9920472Y29986476D01*
X9920471Y29986477D01*
X9804649Y30075351D01*
X9804641Y30075356D01*
X9669752Y30131229D01*
X9636661Y30135585D01*
X9571734Y30164308D01*
X9532643Y30223574D01*
X9531798Y30294565D01*
X9564012Y30349603D01*
X9593508Y30379097D01*
X9655821Y30413121D01*
X9682602Y30416000D01*
X12771089Y30416000D01*
X12839210Y30395998D01*
G37*
%TD.AperFunction*%
%TA.AperFunction,Conductor*%
G36*
X14610812Y13508396D02*
G01*
X14649196Y13448670D01*
X14649991Y13445837D01*
X14653548Y13432564D01*
X14738144Y13275670D01*
X14856642Y13142516D01*
X14878171Y13127441D01*
X14910427Y13104855D01*
X14954755Y13049397D01*
X14962064Y12978778D01*
X14938119Y12924939D01*
X14882649Y12852649D01*
X14882646Y12852644D01*
X14882645Y12852642D01*
X14875528Y12835460D01*
X14826771Y12717753D01*
X14807715Y12573001D01*
X14807715Y12573000D01*
X14826771Y12428248D01*
X14882644Y12293359D01*
X14882649Y12293351D01*
X14971525Y12177526D01*
X15087350Y12088650D01*
X15087357Y12088645D01*
X15222246Y12032772D01*
X15367000Y12013715D01*
X15372695Y12014466D01*
X15393184Y12014574D01*
X15393201Y12015356D01*
X15399388Y12015223D01*
X15399389Y12015222D01*
X15399389Y12015223D01*
X15399390Y12015222D01*
X15432496Y12017761D01*
X15765845Y12043318D01*
X15770643Y12043501D01*
X16260874Y12043501D01*
X16328995Y12023499D01*
X16361742Y11993010D01*
X16405095Y11935096D01*
X16522034Y11847556D01*
X16658906Y11796506D01*
X16719402Y11790001D01*
X16719415Y11790000D01*
X16732271Y11790000D01*
X16800392Y11769998D01*
X16846885Y11716342D01*
X16856989Y11646068D01*
X16833139Y11588491D01*
X16800555Y11544966D01*
X16800555Y11544965D01*
X16749505Y11408094D01*
X16743000Y11347598D01*
X16743000Y11299000D01*
X17650000Y11299000D01*
X17718121Y11278998D01*
X17764614Y11225342D01*
X17776000Y11173000D01*
X17776000Y10925000D01*
X17755998Y10856879D01*
X17702342Y10810386D01*
X17650000Y10799000D01*
X16743000Y10799000D01*
X16743000Y10750403D01*
X16749505Y10689907D01*
X16800555Y10553036D01*
X16800555Y10553035D01*
X16888093Y10436099D01*
X16946009Y10392744D01*
X16988555Y10335908D01*
X16996500Y10291875D01*
X16996500Y9980695D01*
X16990132Y9941145D01*
X16878854Y9604552D01*
X16878191Y9599919D01*
X16869873Y9569559D01*
X16858773Y9542759D01*
X16858772Y9542754D01*
X16839715Y9398001D01*
X16839715Y9398000D01*
X16858771Y9253248D01*
X16914644Y9118359D01*
X16914649Y9118351D01*
X17003525Y9002526D01*
X17119350Y8913650D01*
X17119357Y8913645D01*
X17205318Y8878039D01*
X17260599Y8833490D01*
X17283020Y8766127D01*
X17265462Y8697336D01*
X17246195Y8672535D01*
X17032602Y8458942D01*
X17018753Y8446972D01*
X16999179Y8432400D01*
X16978651Y8407935D01*
X16929124Y8374987D01*
X16930162Y8372482D01*
X16918697Y8367734D01*
X16879623Y8341625D01*
X16811870Y8320410D01*
X16743403Y8339193D01*
X16708753Y8370881D01*
X16618904Y8490905D01*
X16501965Y8578445D01*
X16365093Y8629495D01*
X16304597Y8636000D01*
X15997944Y8636000D01*
X15929823Y8656002D01*
X15883330Y8709658D01*
X15873226Y8779932D01*
X15881535Y8810218D01*
X15907228Y8872246D01*
X15926285Y9017000D01*
X15924661Y9029332D01*
X15912449Y9122094D01*
X15907228Y9161754D01*
X15851355Y9296642D01*
X15762474Y9412474D01*
X15762472Y9412476D01*
X15762471Y9412477D01*
X15646649Y9501351D01*
X15646645Y9501353D01*
X15646643Y9501355D01*
X15646640Y9501357D01*
X15646637Y9501358D01*
X15635010Y9506174D01*
X15615424Y9517447D01*
X15615066Y9516866D01*
X15478047Y9601570D01*
X15430621Y9654403D01*
X15418301Y9708744D01*
X15418301Y10702174D01*
X15420982Y10728029D01*
X15422916Y10737250D01*
X15418784Y10770397D01*
X15418301Y10778187D01*
X15418301Y10781678D01*
X15414654Y10803531D01*
X15414610Y10803880D01*
X15408216Y10855183D01*
X15408214Y10855186D01*
X15406079Y10862358D01*
X15403664Y10869393D01*
X15378884Y10915183D01*
X15360783Y10952209D01*
X15356020Y10961952D01*
X15356017Y10961955D01*
X15351677Y10968035D01*
X15347102Y10973913D01*
X15347100Y10973915D01*
X15308798Y11009174D01*
X14439205Y11878767D01*
X14405179Y11941079D01*
X14402300Y11967862D01*
X14402300Y13413172D01*
X14422302Y13481293D01*
X14475958Y13527786D01*
X14546232Y13537890D01*
X14610812Y13508396D01*
G37*
%TD.AperFunction*%
%TA.AperFunction,Conductor*%
G36*
X13247850Y16623181D02*
G01*
X13281131Y16560468D01*
X13283700Y16535152D01*
X13283700Y11649831D01*
X13281018Y11623974D01*
X13279083Y11614750D01*
X13279295Y11613054D01*
X13283216Y11581597D01*
X13283700Y11573807D01*
X13283700Y11570322D01*
X13286433Y11553939D01*
X13287345Y11548476D01*
X13293784Y11496818D01*
X13295914Y11489663D01*
X13295917Y11489654D01*
X13295920Y11489642D01*
X13298336Y11482606D01*
X13309264Y11462414D01*
X13323122Y11436807D01*
X13345981Y11390048D01*
X13345983Y11390046D01*
X13350336Y11383949D01*
X13354900Y11378085D01*
X13354901Y11378084D01*
X13393214Y11342815D01*
X14262795Y10473234D01*
X14296819Y10410923D01*
X14299699Y10384140D01*
X14299699Y9708745D01*
X14279697Y9640624D01*
X14239954Y9601571D01*
X14104021Y9517538D01*
X14103824Y9517857D01*
X14083184Y9506254D01*
X14071357Y9501356D01*
X14071353Y9501353D01*
X13955528Y9412477D01*
X13866646Y9296644D01*
X13866645Y9296642D01*
X13848670Y9253246D01*
X13810771Y9161753D01*
X13791715Y9017001D01*
X13791715Y9017000D01*
X13810771Y8872248D01*
X13839347Y8803260D01*
X13846936Y8732670D01*
X13815156Y8669183D01*
X13754098Y8632956D01*
X13736413Y8629765D01*
X13733909Y8629496D01*
X13733908Y8629496D01*
X13597035Y8578445D01*
X13597034Y8578445D01*
X13480097Y8490906D01*
X13390246Y8370880D01*
X13333410Y8328334D01*
X13262594Y8323270D01*
X13219375Y8341625D01*
X13180300Y8367735D01*
X13106069Y8382500D01*
X13106067Y8382500D01*
X12950151Y8382500D01*
X12882030Y8402502D01*
X12835537Y8456158D01*
X12825433Y8526432D01*
X12833742Y8556718D01*
X12859228Y8618246D01*
X12878285Y8763000D01*
X12877534Y8768696D01*
X12877427Y8789185D01*
X12876644Y8789202D01*
X12876778Y8795392D01*
X12870441Y8878039D01*
X12848682Y9161846D01*
X12848499Y9166645D01*
X12848499Y9656875D01*
X12868501Y9724996D01*
X12898991Y9757744D01*
X12956904Y9801097D01*
X13044444Y9918035D01*
X13044444Y9918036D01*
X13095494Y10054907D01*
X13101999Y10115403D01*
X13102000Y10115415D01*
X13102000Y10164000D01*
X11536000Y10164000D01*
X11536000Y10115403D01*
X11542505Y10054907D01*
X11593555Y9918036D01*
X11593555Y9918035D01*
X11681093Y9801099D01*
X11739009Y9757744D01*
X11781555Y9700908D01*
X11789500Y9656875D01*
X11789500Y9166655D01*
X11789315Y9161836D01*
X11787846Y9142677D01*
X11762693Y9076286D01*
X11705639Y9034032D01*
X11634798Y9029332D01*
X11573120Y9063218D01*
X10832405Y9803933D01*
X10798379Y9866245D01*
X10795500Y9893028D01*
X10795500Y10664000D01*
X11536000Y10664000D01*
X12069000Y10664000D01*
X12069000Y11172000D01*
X12569000Y11172000D01*
X12569000Y10664000D01*
X13102000Y10664000D01*
X13102000Y10712586D01*
X13101999Y10712598D01*
X13095494Y10773094D01*
X13044444Y10909965D01*
X13044444Y10909966D01*
X12956904Y11026905D01*
X12839965Y11114445D01*
X12703093Y11165495D01*
X12642597Y11172000D01*
X12569000Y11172000D01*
X12069000Y11172000D01*
X11995402Y11172000D01*
X11934906Y11165495D01*
X11798035Y11114445D01*
X11798034Y11114445D01*
X11681095Y11026905D01*
X11593555Y10909966D01*
X11593555Y10909965D01*
X11542505Y10773094D01*
X11536000Y10712598D01*
X11536000Y10664000D01*
X10795500Y10664000D01*
X10795500Y16235501D01*
X10815502Y16303622D01*
X10869158Y16350115D01*
X10921500Y16361501D01*
X11197064Y16361501D01*
X11197066Y16361501D01*
X11197069Y16361502D01*
X11197072Y16361502D01*
X11221352Y16366332D01*
X11271301Y16376266D01*
X11355484Y16432516D01*
X11355486Y16432520D01*
X11359995Y16435532D01*
X11427748Y16456748D01*
X11496215Y16437966D01*
X11500002Y16435532D01*
X11588697Y16376267D01*
X11588699Y16376266D01*
X11662933Y16361500D01*
X12169347Y16361501D01*
X12174147Y16361318D01*
X12545368Y16332858D01*
X12550991Y16332634D01*
X12552213Y16332608D01*
X12565518Y16332320D01*
X12572391Y16331795D01*
X12572998Y16331715D01*
X12572999Y16331716D01*
X12573000Y16331715D01*
X12717754Y16350772D01*
X12852643Y16406645D01*
X12968474Y16495526D01*
X12998880Y16535152D01*
X13057738Y16611856D01*
X13115076Y16653723D01*
X13185947Y16657945D01*
X13247850Y16623181D01*
G37*
%TD.AperFunction*%
%TA.AperFunction,Conductor*%
G36*
X7855033Y29907147D02*
G01*
X7911868Y29864600D01*
X7936679Y29798080D01*
X7937000Y29789091D01*
X7937000Y25035643D01*
X7936760Y25030151D01*
X7933323Y24990857D01*
X7943529Y24952765D01*
X7944719Y24947398D01*
X7951567Y24908563D01*
X7954001Y24901876D01*
X7959347Y24888971D01*
X7962349Y24882532D01*
X7984970Y24850225D01*
X7987918Y24845599D01*
X7999104Y24826223D01*
X8007639Y24811441D01*
X8037844Y24786096D01*
X8041899Y24782381D01*
X8242285Y24581995D01*
X8408095Y24416186D01*
X8442120Y24353873D01*
X8445000Y24327090D01*
X8445000Y19996475D01*
X8434314Y19945695D01*
X8253062Y19534098D01*
X8251108Y19529546D01*
X8248643Y19517346D01*
X8241550Y19494091D01*
X8222772Y19448756D01*
X8222772Y19448754D01*
X8203715Y19304001D01*
X8203715Y19304000D01*
X8222771Y19159248D01*
X8278644Y19024359D01*
X8278649Y19024351D01*
X8367525Y18908526D01*
X8483350Y18819650D01*
X8483357Y18819645D01*
X8618246Y18763772D01*
X8763000Y18744715D01*
X8907754Y18763772D01*
X9042643Y18819645D01*
X9158474Y18908526D01*
X9247355Y19024357D01*
X9284028Y19112896D01*
X9328575Y19168175D01*
X9395938Y19190596D01*
X9464729Y19173038D01*
X9496467Y19146247D01*
X9568895Y19060979D01*
X9642518Y19005012D01*
X9716864Y18948496D01*
X9884478Y18870950D01*
X9885548Y18870455D01*
X10067067Y18830500D01*
X10067070Y18830500D01*
X10206324Y18830500D01*
X10206332Y18830500D01*
X10344775Y18845557D01*
X10520911Y18904904D01*
X10680171Y19000727D01*
X10708850Y19027894D01*
X10772060Y19060218D01*
X10842712Y19053238D01*
X10898375Y19009169D01*
X10921376Y18942001D01*
X10921500Y18936418D01*
X10921500Y18706828D01*
X10901498Y18638707D01*
X10884595Y18617733D01*
X10008527Y17741665D01*
X10008522Y17741662D01*
X10008523Y17741661D01*
X9539599Y17272739D01*
X9525750Y17260771D01*
X9506184Y17246204D01*
X9506176Y17246197D01*
X9472056Y17205535D01*
X9468349Y17201489D01*
X9462428Y17195567D01*
X9462427Y17195565D01*
X9449113Y17178727D01*
X9441754Y17169421D01*
X9391604Y17109653D01*
X9387574Y17103525D01*
X9387523Y17103558D01*
X9383405Y17097094D01*
X9383455Y17097063D01*
X9379607Y17090826D01*
X9346625Y17020095D01*
X9311604Y16950362D01*
X9309095Y16943468D01*
X9309039Y16943489D01*
X9306525Y16936255D01*
X9306582Y16936236D01*
X9304275Y16929276D01*
X9288498Y16852866D01*
X9270499Y16776922D01*
X9269648Y16769633D01*
X9269587Y16769641D01*
X9268809Y16762027D01*
X9268871Y16762021D01*
X9268231Y16754710D01*
X9268231Y16754709D01*
X9268734Y16737438D01*
X9270500Y16676725D01*
X9270500Y13712151D01*
X9250498Y13644030D01*
X9196842Y13597537D01*
X9126568Y13587433D01*
X9096282Y13595742D01*
X9034752Y13621229D01*
X8890000Y13640285D01*
X8745247Y13621229D01*
X8688051Y13597537D01*
X8610358Y13565355D01*
X8610357Y13565354D01*
X8610356Y13565354D01*
X8494526Y13476474D01*
X8405646Y13360644D01*
X8405645Y13360642D01*
X8384046Y13308498D01*
X8349771Y13225753D01*
X8337701Y13134070D01*
X8333181Y13113378D01*
X8328156Y13097086D01*
X8308199Y13040052D01*
X8306586Y13031528D01*
X8305300Y13022991D01*
X8305300Y13008480D01*
X8303148Y12985294D01*
X8279845Y12860821D01*
X8260765Y12814009D01*
X8248266Y12795303D01*
X8248266Y12795302D01*
X8233500Y12721070D01*
X8233500Y12170937D01*
X8233501Y12170927D01*
X8248265Y12096701D01*
X8248265Y12096700D01*
X8248266Y12096699D01*
X8304516Y12012516D01*
X8304517Y12012515D01*
X8307532Y12008004D01*
X8328747Y11940251D01*
X8309965Y11871784D01*
X8307532Y11867999D01*
X8248266Y11779303D01*
X8233500Y11705070D01*
X8233500Y11154937D01*
X8233501Y11154927D01*
X8248266Y11080699D01*
X8248265Y11080699D01*
X8304515Y10996517D01*
X8304516Y10996516D01*
X8306646Y10995093D01*
X8344995Y10954644D01*
X8389249Y10880094D01*
X8406900Y10815778D01*
X8406900Y9552904D01*
X8386898Y9484783D01*
X8333242Y9438290D01*
X8262968Y9428186D01*
X8224351Y9440306D01*
X8210049Y9447489D01*
X8136566Y9484394D01*
X7963123Y9525500D01*
X7963121Y9525500D01*
X7888545Y9525500D01*
X7820424Y9545502D01*
X7773931Y9599158D01*
X7763827Y9669432D01*
X7783782Y9721505D01*
X7783975Y9721795D01*
X7785034Y9723379D01*
X7799800Y9797613D01*
X7799799Y11247746D01*
X7799798Y11247750D01*
X7799798Y11247754D01*
X7785034Y11321981D01*
X7767917Y11347598D01*
X7728784Y11406164D01*
X7725896Y11408094D01*
X7644602Y11462414D01*
X7570367Y11477180D01*
X6120236Y11477180D01*
X6120226Y11477179D01*
X6045999Y11462415D01*
X5961815Y11406164D01*
X5905566Y11321983D01*
X5890800Y11247750D01*
X5890800Y11198279D01*
X5870798Y11130158D01*
X5853895Y11109184D01*
X5266944Y10522234D01*
X5259513Y10621405D01*
X5209953Y10747681D01*
X5125375Y10853739D01*
X5013293Y10930156D01*
X4883667Y10970140D01*
X4816827Y10970140D01*
X5418624Y11571938D01*
X5418623Y11571939D01*
X5230585Y11659621D01*
X5230575Y11659625D01*
X5026407Y11714332D01*
X4815840Y11732754D01*
X4605272Y11714332D01*
X4401101Y11659624D01*
X4213055Y11571939D01*
X4213054Y11571938D01*
X4814852Y10970140D01*
X4782116Y10970140D01*
X4681702Y10955005D01*
X4559483Y10896147D01*
X4460042Y10803880D01*
X4392215Y10686400D01*
X4362030Y10554148D01*
X4364396Y10522571D01*
X3847405Y11039562D01*
X3813379Y11101874D01*
X3810500Y11128657D01*
X3810500Y16046415D01*
X3794998Y16179042D01*
X3794997Y16179044D01*
X3774448Y16235501D01*
X3739430Y16331715D01*
X3734035Y16346537D01*
X3734032Y16346543D01*
X3636089Y16495458D01*
X3506432Y16617784D01*
X3352068Y16706906D01*
X3261991Y16733873D01*
X3181308Y16758028D01*
X3112647Y16762027D01*
X3003367Y16768392D01*
X3003364Y16768392D01*
X3003363Y16768392D01*
X2827824Y16737440D01*
X2827823Y16737440D01*
X2827819Y16737439D01*
X2827815Y16737438D01*
X2745411Y16701892D01*
X2674939Y16693277D01*
X2610997Y16724130D01*
X2573886Y16784655D01*
X2575146Y16854861D01*
X2598192Y16929276D01*
X2794978Y17564705D01*
X2826240Y17616522D01*
X3142816Y17933096D01*
X3205128Y17967121D01*
X3231911Y17970000D01*
X4809358Y17970000D01*
X4814850Y17969760D01*
X4831255Y17968326D01*
X4854143Y17966323D01*
X4892262Y17976539D01*
X4897583Y17977718D01*
X4936440Y17984568D01*
X4936441Y17984569D01*
X4936443Y17984569D01*
X4943163Y17987016D01*
X4955973Y17992321D01*
X4962460Y17995347D01*
X4962466Y17995348D01*
X4994781Y18017976D01*
X4999410Y18020923D01*
X5033558Y18040638D01*
X5058916Y18070859D01*
X5062610Y18074892D01*
X6690108Y19702390D01*
X6694141Y19706084D01*
X6724362Y19731442D01*
X6744077Y19765590D01*
X6747024Y19770219D01*
X6769652Y19802534D01*
X6769653Y19802540D01*
X6772679Y19809027D01*
X6777984Y19821837D01*
X6780431Y19828557D01*
X6781167Y19832730D01*
X6787282Y19867417D01*
X6788461Y19872738D01*
X6798677Y19910857D01*
X6796418Y19936676D01*
X6795240Y19950153D01*
X6795000Y19955645D01*
X6795000Y20811359D01*
X6795240Y20816851D01*
X6796499Y20831255D01*
X6798677Y20856143D01*
X6788467Y20894243D01*
X6787283Y20899584D01*
X6780432Y20938440D01*
X6780431Y20938442D01*
X6780431Y20938443D01*
X6777996Y20945134D01*
X6772674Y20957983D01*
X6769653Y20964463D01*
X6769651Y20964466D01*
X6747022Y20996784D01*
X6744078Y21001407D01*
X6724360Y21035560D01*
X6694142Y21060917D01*
X6690099Y21064621D01*
X5434905Y22319815D01*
X5400879Y22382127D01*
X5398000Y22408910D01*
X5398000Y28381790D01*
X5418002Y28449911D01*
X5434900Y28470881D01*
X5807663Y28843645D01*
X5869974Y28877668D01*
X5940789Y28872604D01*
X5997625Y28830057D01*
X6013166Y28802765D01*
X6075968Y28651144D01*
X6172865Y28524866D01*
X6299142Y28427969D01*
X6391872Y28389561D01*
X6446194Y28367060D01*
X6604000Y28346284D01*
X6761806Y28367060D01*
X6854536Y28405470D01*
X6908857Y28427969D01*
X7035134Y28524866D01*
X7132031Y28651143D01*
X7157967Y28713760D01*
X7192940Y28798194D01*
X7213716Y28956000D01*
X7213715Y28956002D01*
X7213732Y28956124D01*
X7220445Y29116516D01*
X7229756Y29339010D01*
X7252589Y29406231D01*
X7266540Y29422822D01*
X7721907Y29878189D01*
X7784217Y29912212D01*
X7855033Y29907147D01*
G37*
%TD.AperFunction*%
%TA.AperFunction,Conductor*%
G36*
X24021512Y17184314D02*
G01*
X24028095Y17178185D01*
X24410095Y16796185D01*
X24444121Y16733873D01*
X24447000Y16707090D01*
X24447000Y13351643D01*
X24446760Y13346151D01*
X24443323Y13306857D01*
X24453529Y13268765D01*
X24454719Y13263398D01*
X24461567Y13224563D01*
X24464001Y13217876D01*
X24469347Y13204971D01*
X24472349Y13198532D01*
X24494970Y13166225D01*
X24497918Y13161599D01*
X24508935Y13142517D01*
X24515488Y13131166D01*
X24517640Y13127440D01*
X24547362Y13102500D01*
X24547850Y13102091D01*
X24551893Y13098387D01*
X24834013Y12816267D01*
X25113754Y12536526D01*
X25145019Y12484706D01*
X25332088Y11880658D01*
X25588087Y11054031D01*
X25599150Y11015150D01*
X25599152Y11015146D01*
X25599153Y11015143D01*
X25602973Y11007472D01*
X25605342Y11002100D01*
X25605378Y11002005D01*
X25606456Y10999927D01*
X25608409Y10996551D01*
X25693610Y10825447D01*
X25693610Y10825446D01*
X25821324Y10656327D01*
X25910778Y10574779D01*
X25947644Y10514104D01*
X25945855Y10443130D01*
X25905979Y10384390D01*
X25840675Y10356534D01*
X25788617Y10361304D01*
X25615294Y10414981D01*
X25563474Y10446246D01*
X23849905Y12159815D01*
X23815879Y12222127D01*
X23813000Y12248910D01*
X23813000Y17089090D01*
X23833002Y17157211D01*
X23886658Y17203704D01*
X23956932Y17213808D01*
X24021512Y17184314D01*
G37*
%TD.AperFunction*%
%TA.AperFunction,Conductor*%
G36*
X18115094Y14457498D02*
G01*
X18136068Y14440595D01*
X19145334Y13431329D01*
X19179360Y13369017D01*
X19181387Y13356862D01*
X19182639Y13346151D01*
X19186614Y13312138D01*
X19187040Y13304828D01*
X19187040Y12696297D01*
X19187041Y12696287D01*
X19201805Y12622060D01*
X19258056Y12537876D01*
X19342237Y12481627D01*
X19342239Y12481626D01*
X19401848Y12469769D01*
X19422545Y12465652D01*
X19422047Y12463154D01*
X19477536Y12440756D01*
X19518553Y12382807D01*
X19524288Y12325489D01*
X19517722Y12275614D01*
X19489000Y12210687D01*
X19429735Y12171595D01*
X19392800Y12166060D01*
X18461436Y12166060D01*
X18461426Y12166059D01*
X18387199Y12151295D01*
X18303015Y12095044D01*
X18246766Y12010863D01*
X18232000Y11936630D01*
X18232000Y11860770D01*
X18211998Y11792649D01*
X18158342Y11746156D01*
X18088068Y11736052D01*
X18055613Y11746852D01*
X18055406Y11746296D01*
X17910093Y11800495D01*
X17849597Y11807000D01*
X17786729Y11807000D01*
X17718608Y11827002D01*
X17672115Y11880658D01*
X17662011Y11950932D01*
X17685861Y12008509D01*
X17718444Y12052035D01*
X17718444Y12052036D01*
X17769494Y12188907D01*
X17775999Y12249403D01*
X17776000Y12249415D01*
X17776000Y12323000D01*
X16894000Y12323000D01*
X16825879Y12343002D01*
X16779386Y12396658D01*
X16768000Y12449000D01*
X16768000Y13356000D01*
X17268000Y13356000D01*
X17268000Y12823000D01*
X17776000Y12823000D01*
X17776000Y12896586D01*
X17775999Y12896598D01*
X17769494Y12957094D01*
X17718444Y13093965D01*
X17718444Y13093966D01*
X17630904Y13210905D01*
X17513965Y13298445D01*
X17377093Y13349495D01*
X17316597Y13356000D01*
X17268000Y13356000D01*
X16768000Y13356000D01*
X16719402Y13356000D01*
X16658906Y13349495D01*
X16522035Y13298445D01*
X16522034Y13298445D01*
X16405097Y13210906D01*
X16361742Y13152990D01*
X16304906Y13110444D01*
X16260874Y13102500D01*
X16136027Y13102500D01*
X16067906Y13122502D01*
X16021413Y13176158D01*
X16011309Y13246432D01*
X16040803Y13311012D01*
X16046932Y13317595D01*
X16536112Y13806774D01*
X17169933Y14440595D01*
X17232245Y14474621D01*
X17259028Y14477500D01*
X18046973Y14477500D01*
X18115094Y14457498D01*
G37*
%TD.AperFunction*%
%TA.AperFunction,Conductor*%
G36*
X14610812Y18851560D02*
G01*
X14647905Y18795968D01*
X14671236Y18725558D01*
X14764809Y18573853D01*
X15798058Y17540604D01*
X15810031Y17526750D01*
X15824602Y17507178D01*
X15835710Y17497857D01*
X15865269Y17473055D01*
X15869315Y17469347D01*
X15875235Y17463427D01*
X15875236Y17463426D01*
X15901379Y17442755D01*
X15961148Y17392603D01*
X15967279Y17388571D01*
X15967244Y17388520D01*
X15973697Y17384409D01*
X15973729Y17384460D01*
X15979975Y17380608D01*
X15979977Y17380607D01*
X15979980Y17380605D01*
X16050705Y17347626D01*
X16120434Y17312606D01*
X16120436Y17312606D01*
X16127331Y17310096D01*
X16127309Y17310038D01*
X16134538Y17307525D01*
X16134558Y17307584D01*
X16141524Y17305277D01*
X16141527Y17305275D01*
X16209110Y17291321D01*
X16217934Y17289499D01*
X16293872Y17271501D01*
X16293873Y17271501D01*
X16293877Y17271500D01*
X16293881Y17271500D01*
X16301166Y17270648D01*
X16301158Y17270588D01*
X16308773Y17269810D01*
X16308779Y17269871D01*
X16316083Y17269233D01*
X16316091Y17269231D01*
X16394076Y17271500D01*
X16779248Y17271500D01*
X16847369Y17251498D01*
X16893862Y17197842D01*
X16903966Y17127568D01*
X16888360Y17082488D01*
X16877912Y17064395D01*
X16874962Y17059766D01*
X16852348Y17027467D01*
X16849352Y17021043D01*
X16843994Y17008107D01*
X16841566Y17001437D01*
X16834718Y16962601D01*
X16833529Y16957236D01*
X16823323Y16919149D01*
X16823323Y16919144D01*
X16826760Y16879850D01*
X16827000Y16874358D01*
X16827000Y16113049D01*
X16806998Y16044928D01*
X16753342Y15998435D01*
X16740606Y15993435D01*
X16737302Y15992341D01*
X16721081Y15988747D01*
X16721095Y15988689D01*
X16713950Y15986996D01*
X16640610Y15960302D01*
X16566556Y15935764D01*
X16559910Y15932664D01*
X16559885Y15932718D01*
X16552991Y15929381D01*
X16553018Y15929328D01*
X16546467Y15926039D01*
X16481265Y15883155D01*
X16414851Y15842190D01*
X16409097Y15837639D01*
X16409060Y15837686D01*
X16403122Y15832850D01*
X16403161Y15832804D01*
X16397540Y15828088D01*
X16343994Y15771333D01*
X14796432Y14223772D01*
X14796429Y14223768D01*
X14713606Y14119022D01*
X14713605Y14119021D01*
X14713605Y14119020D01*
X14643343Y13968340D01*
X14642495Y13966522D01*
X14595578Y13913237D01*
X14527301Y13893776D01*
X14459341Y13914318D01*
X14413275Y13968340D01*
X14402300Y14019772D01*
X14402300Y18756336D01*
X14422302Y18824457D01*
X14475958Y18870950D01*
X14546232Y18881054D01*
X14610812Y18851560D01*
G37*
%TD.AperFunction*%
%TA.AperFunction,Conductor*%
G36*
X18577028Y22728253D02*
G01*
X18619751Y22703924D01*
X18640683Y22685787D01*
X18645257Y22681824D01*
X18778266Y22621081D01*
X18778271Y22621081D01*
X18778272Y22621080D01*
X18886625Y22605501D01*
X18886630Y22605500D01*
X18886632Y22605500D01*
X18888760Y22605500D01*
X18889445Y22605299D01*
X18891119Y22605179D01*
X18891092Y22604815D01*
X18956881Y22585498D01*
X18984661Y22558211D01*
X18984741Y22558290D01*
X18993514Y22549517D01*
X19077697Y22493267D01*
X19077699Y22493266D01*
X19151933Y22478500D01*
X19558500Y22478501D01*
X19626620Y22458499D01*
X19673114Y22404844D01*
X19684500Y22352501D01*
X19684500Y22351500D01*
X19664498Y22283379D01*
X19610842Y22236886D01*
X19558500Y22225500D01*
X19140629Y22225500D01*
X19121723Y22222782D01*
X19103797Y22221500D01*
X18876936Y22221500D01*
X18876926Y22221499D01*
X18802699Y22206735D01*
X18718515Y22150484D01*
X18662266Y22066303D01*
X18647500Y21992070D01*
X18647500Y21441937D01*
X18647501Y21441927D01*
X18662265Y21367701D01*
X18662265Y21367700D01*
X18662266Y21367699D01*
X18718516Y21283516D01*
X18718517Y21283515D01*
X18721532Y21279004D01*
X18742747Y21211251D01*
X18723965Y21142784D01*
X18721532Y21138999D01*
X18662266Y21050303D01*
X18647500Y20976070D01*
X18647500Y20425937D01*
X18647501Y20425927D01*
X18664687Y20339526D01*
X18663007Y20339193D01*
X18668500Y20311586D01*
X18668500Y20301868D01*
X18648498Y20233747D01*
X18594842Y20187254D01*
X18524568Y20177150D01*
X18459988Y20206644D01*
X18446468Y20220297D01*
X18384105Y20293716D01*
X18371105Y20309021D01*
X18223139Y20421502D01*
X18223138Y20421503D01*
X18223135Y20421505D01*
X18054451Y20499546D01*
X17872939Y20539499D01*
X17872936Y20539500D01*
X17872933Y20539500D01*
X17733668Y20539500D01*
X17733660Y20539500D01*
X17595225Y20524444D01*
X17595224Y20524444D01*
X17419091Y20465098D01*
X17419090Y20465097D01*
X17259827Y20369272D01*
X17259825Y20369270D01*
X17124894Y20241457D01*
X17020587Y20087617D01*
X16951790Y19914951D01*
X16921722Y19731536D01*
X16921722Y19731535D01*
X16931783Y19545945D01*
X16931785Y19545934D01*
X16981505Y19366860D01*
X16981507Y19366855D01*
X16981508Y19366852D01*
X17027554Y19280000D01*
X17068569Y19202638D01*
X17151726Y19104737D01*
X17188895Y19060979D01*
X17239110Y19022807D01*
X17281235Y18965660D01*
X17285776Y18894809D01*
X17251292Y18832749D01*
X17188731Y18799185D01*
X17162857Y18796500D01*
X16751028Y18796500D01*
X16682907Y18816502D01*
X16661932Y18833405D01*
X16366791Y19128546D01*
X16066851Y19428487D01*
X16033917Y19486203D01*
X16033582Y19487504D01*
X15915763Y19945695D01*
X15879470Y20086836D01*
X15875500Y20118215D01*
X15875500Y20184585D01*
X15880992Y20212192D01*
X15879313Y20212526D01*
X15896499Y20298928D01*
X15896500Y20298933D01*
X15896499Y20849066D01*
X15896498Y20849070D01*
X15896498Y20849074D01*
X15890228Y20880592D01*
X15881734Y20923301D01*
X15881733Y20923302D01*
X15881734Y20923302D01*
X15840210Y20985445D01*
X15825484Y21007484D01*
X15825483Y21007485D01*
X15822468Y21011997D01*
X15801252Y21079750D01*
X15820034Y21148217D01*
X15822468Y21152004D01*
X15825481Y21156515D01*
X15825484Y21156516D01*
X15881734Y21240699D01*
X15896500Y21314933D01*
X15896499Y21865066D01*
X15896316Y21865987D01*
X15896359Y21866477D01*
X15895892Y21871228D01*
X15896792Y21871317D01*
X15902642Y21936701D01*
X15946194Y21992770D01*
X15969110Y22005884D01*
X15995574Y22017538D01*
X16008696Y22023315D01*
X16059473Y22034000D01*
X17214528Y22034000D01*
X17265308Y22023314D01*
X17336268Y21992066D01*
X17676902Y21842063D01*
X17679179Y21841086D01*
X17681453Y21840110D01*
X17681454Y21840110D01*
X17681456Y21840109D01*
X17693647Y21837646D01*
X17716898Y21830556D01*
X17762246Y21811772D01*
X17907000Y21792715D01*
X18051754Y21811772D01*
X18186643Y21867645D01*
X18302474Y21956526D01*
X18391355Y22072357D01*
X18447228Y22207246D01*
X18466285Y22352000D01*
X18462290Y22382342D01*
X18447228Y22496754D01*
X18447226Y22496758D01*
X18435015Y22526237D01*
X18420830Y22560482D01*
X18413241Y22631070D01*
X18445019Y22694558D01*
X18506077Y22730786D01*
X18577028Y22728253D01*
G37*
%TD.AperFunction*%
%TA.AperFunction,Conductor*%
G36*
X463012Y33197032D02*
G01*
X501135Y33138183D01*
X512400Y33100820D01*
X512404Y33100811D01*
X657485Y32757044D01*
X657493Y32757027D01*
X756574Y32578156D01*
X838294Y32430626D01*
X1052769Y32125287D01*
X1052771Y32125285D01*
X1298483Y31844475D01*
X1298485Y31844473D01*
X1511210Y31648095D01*
X1572655Y31591372D01*
X1872171Y31368850D01*
X1872172Y31368848D01*
X1872176Y31368846D01*
X1872177Y31368845D01*
X2193655Y31179416D01*
X2533447Y31025231D01*
X2887702Y30908037D01*
X3252408Y30829162D01*
X3252410Y30829162D01*
X3252414Y30829161D01*
X3623418Y30789501D01*
X3623425Y30789501D01*
X3623431Y30789500D01*
X3623436Y30789500D01*
X3903219Y30789500D01*
X4182595Y30804390D01*
X4182600Y30804391D01*
X4182608Y30804391D01*
X4550995Y30863744D01*
X4829111Y30939589D01*
X4900091Y30938214D01*
X4959063Y30898682D01*
X4987300Y30833542D01*
X4987181Y30801582D01*
X4978284Y30734002D01*
X4978284Y30734001D01*
X4999060Y30576194D01*
X5059968Y30429143D01*
X5156865Y30302866D01*
X5283142Y30205969D01*
X5349915Y30178312D01*
X5405196Y30133765D01*
X5427618Y30066402D01*
X5410061Y29997610D01*
X5390793Y29972808D01*
X4231909Y28813923D01*
X4227856Y28810209D01*
X4197639Y28784853D01*
X4177914Y28750692D01*
X4174963Y28746060D01*
X4152348Y28713760D01*
X4149352Y28707336D01*
X4143994Y28694400D01*
X4141566Y28687730D01*
X4134718Y28648894D01*
X4133529Y28643529D01*
X4123323Y28605442D01*
X4123323Y28605437D01*
X4126760Y28566143D01*
X4127000Y28560651D01*
X4127000Y22114643D01*
X4126760Y22109151D01*
X4123323Y22069857D01*
X4133529Y22031765D01*
X4134719Y22026398D01*
X4141567Y21987563D01*
X4144001Y21980876D01*
X4149347Y21967971D01*
X4152349Y21961532D01*
X4174970Y21929225D01*
X4177918Y21924599D01*
X4189104Y21905223D01*
X4197639Y21890441D01*
X4227850Y21865091D01*
X4231893Y21861387D01*
X4778343Y21314937D01*
X5286295Y20806985D01*
X5320321Y20744673D01*
X5315256Y20673858D01*
X5312515Y20667111D01*
X5205061Y20423096D01*
X5203105Y20418540D01*
X5201996Y20414983D01*
X5194128Y20395601D01*
X5191636Y20390681D01*
X5028836Y19971670D01*
X5000485Y19928207D01*
X4350185Y19277905D01*
X4287872Y19243880D01*
X4261089Y19241000D01*
X3141491Y19241000D01*
X3074603Y19260220D01*
X3062775Y19267629D01*
X2035934Y19910857D01*
X2004329Y19930655D01*
X1986336Y19944317D01*
X1962065Y19966442D01*
X1781885Y20078005D01*
X1781883Y20078006D01*
X1781876Y20078010D01*
X1749661Y20090489D01*
X1743487Y20093271D01*
X1739348Y20095410D01*
X1719745Y20104529D01*
X1719204Y20104637D01*
X1717332Y20105012D01*
X1696528Y20111073D01*
X1671301Y20120846D01*
X1584281Y20154558D01*
X1584278Y20154559D01*
X1584275Y20154560D01*
X1584274Y20154560D01*
X1375961Y20193500D01*
X1164039Y20193500D01*
X955726Y20154560D01*
X955721Y20154559D01*
X758119Y20078007D01*
X758108Y20078002D01*
X577932Y19966441D01*
X577929Y19966439D01*
X465385Y19863841D01*
X401568Y19832730D01*
X331062Y19841060D01*
X276252Y19886186D01*
X254540Y19953781D01*
X254500Y19956956D01*
X254500Y20683045D01*
X274502Y20751166D01*
X328158Y20797659D01*
X398432Y20807763D01*
X463012Y20778269D01*
X465386Y20776160D01*
X577933Y20673559D01*
X758108Y20561999D01*
X758110Y20561999D01*
X758115Y20561995D01*
X955726Y20485440D01*
X1164039Y20446500D01*
X1164041Y20446500D01*
X1375959Y20446500D01*
X1375961Y20446500D01*
X1584274Y20485440D01*
X1781885Y20561995D01*
X1962065Y20673558D01*
X2112004Y20810246D01*
X2118675Y20816327D01*
X2143397Y20849064D01*
X2246389Y20985446D01*
X2340850Y21175150D01*
X2398845Y21378982D01*
X2410635Y21506225D01*
X2436838Y21572206D01*
X2494554Y21613550D01*
X2565461Y21617127D01*
X2599094Y21603717D01*
X2743933Y21520094D01*
X2914692Y21468972D01*
X3092637Y21458608D01*
X3268176Y21489560D01*
X3268181Y21489562D01*
X3431839Y21560157D01*
X3431840Y21560158D01*
X3431839Y21560158D01*
X3431845Y21560160D01*
X3574822Y21666602D01*
X3689396Y21803147D01*
X3769394Y21962434D01*
X3810500Y22135877D01*
X3810500Y27748273D01*
X3811830Y27766533D01*
X3812153Y27768743D01*
X3815366Y27790673D01*
X3810739Y27843550D01*
X3810500Y27849036D01*
X3810500Y27857415D01*
X3806629Y27890528D01*
X3804955Y27909660D01*
X3799830Y27968241D01*
X3799828Y27968246D01*
X3798346Y27975426D01*
X3798407Y27975439D01*
X3796751Y27982909D01*
X3796692Y27982894D01*
X3794998Y27990034D01*
X3794998Y27990042D01*
X3768307Y28063373D01*
X3743765Y28137441D01*
X3743764Y28137443D01*
X3743763Y28137446D01*
X3740665Y28144089D01*
X3740720Y28144115D01*
X3737380Y28151015D01*
X3737324Y28150986D01*
X3734031Y28157544D01*
X3691161Y28222724D01*
X3650190Y28289147D01*
X3645642Y28294898D01*
X3645690Y28294937D01*
X3640845Y28300884D01*
X3640799Y28300844D01*
X3636082Y28306466D01*
X3579333Y28360005D01*
X3489427Y28449911D01*
X3362890Y28576448D01*
X3346167Y28599179D01*
X3345451Y28598707D01*
X3342047Y28603886D01*
X2441498Y29718297D01*
X2414239Y29783852D01*
X2413499Y29797491D01*
X2413499Y30124064D01*
X2413498Y30124073D01*
X2398734Y30198301D01*
X2342483Y30282485D01*
X2258302Y30338734D01*
X2184069Y30353500D01*
X380500Y30353500D01*
X312379Y30373502D01*
X265886Y30427158D01*
X254500Y30479500D01*
X254500Y33101808D01*
X274502Y33169929D01*
X328158Y33216422D01*
X398432Y33226526D01*
X463012Y33197032D01*
G37*
%TD.AperFunction*%
%TA.AperFunction,Conductor*%
G36*
X8781512Y25947315D02*
G01*
X8788095Y25941186D01*
X9815079Y24914202D01*
X9849105Y24851890D01*
X9844040Y24781075D01*
X9842789Y24777857D01*
X9773620Y24606868D01*
X9773617Y24606856D01*
X9771243Y24594543D01*
X9763933Y24570187D01*
X9746772Y24528755D01*
X9727715Y24384001D01*
X9727715Y24384000D01*
X9746771Y24239248D01*
X9802644Y24104359D01*
X9802649Y24104351D01*
X9891525Y23988526D01*
X10002789Y23903150D01*
X10007357Y23899645D01*
X10142246Y23843772D01*
X10287000Y23824715D01*
X10431754Y23843772D01*
X10556783Y23895562D01*
X10627371Y23903150D01*
X10690859Y23871371D01*
X10727086Y23810313D01*
X10731000Y23779152D01*
X10731000Y21352643D01*
X10730760Y21347151D01*
X10727323Y21307857D01*
X10737529Y21269765D01*
X10738719Y21264398D01*
X10745567Y21225563D01*
X10748001Y21218876D01*
X10753347Y21205971D01*
X10756349Y21199532D01*
X10778970Y21167225D01*
X10781918Y21162599D01*
X10793104Y21143223D01*
X10801639Y21128441D01*
X10831850Y21103091D01*
X10835893Y21099387D01*
X11239000Y20696280D01*
X11551969Y20383311D01*
X11585995Y20320999D01*
X11580930Y20250184D01*
X11538383Y20193348D01*
X11484755Y20170131D01*
X11463824Y20166440D01*
X11463822Y20166440D01*
X11463820Y20166439D01*
X11463818Y20166439D01*
X11300160Y20095844D01*
X11300159Y20095843D01*
X11157171Y19989393D01*
X11151834Y19984357D01*
X11150081Y19986216D01*
X11100959Y19953562D01*
X11029971Y19952465D01*
X10969659Y19989920D01*
X10952277Y20014869D01*
X10871431Y20167362D01*
X10751105Y20309021D01*
X10603139Y20421502D01*
X10603138Y20421503D01*
X10603135Y20421505D01*
X10434451Y20499546D01*
X10252939Y20539499D01*
X10252936Y20539500D01*
X10252933Y20539500D01*
X10113668Y20539500D01*
X10113660Y20539500D01*
X9975225Y20524444D01*
X9975224Y20524444D01*
X9799091Y20465098D01*
X9799090Y20465097D01*
X9639827Y20369272D01*
X9639825Y20369270D01*
X9504894Y20241457D01*
X9400588Y20087618D01*
X9335411Y19924038D01*
X9291615Y19868160D01*
X9224561Y19844830D01*
X9155538Y19861455D01*
X9106461Y19912758D01*
X9103051Y19919885D01*
X9091684Y19945698D01*
X9081000Y19996475D01*
X9081000Y24494359D01*
X9081240Y24499851D01*
X9083159Y24521797D01*
X9084677Y24539143D01*
X9074467Y24577243D01*
X9073283Y24582584D01*
X9066432Y24621440D01*
X9066431Y24621442D01*
X9066431Y24621443D01*
X9064001Y24628121D01*
X9058666Y24641000D01*
X9055652Y24647464D01*
X9033035Y24679765D01*
X9030080Y24684403D01*
X9029455Y24685485D01*
X9023767Y24695338D01*
X9010361Y24718559D01*
X9010360Y24718560D01*
X8980142Y24743917D01*
X8976088Y24747631D01*
X8609904Y25113816D01*
X8575879Y25176128D01*
X8573000Y25202911D01*
X8573000Y25852091D01*
X8593002Y25920212D01*
X8646658Y25966705D01*
X8716932Y25976809D01*
X8781512Y25947315D01*
G37*
%TD.AperFunction*%
%TA.AperFunction,Conductor*%
G36*
X23139646Y25046858D02*
G01*
X23162525Y25028755D01*
X23624218Y24567062D01*
X23658244Y24504750D01*
X23661123Y24477967D01*
X23661123Y22685787D01*
X23641121Y22617666D01*
X23587465Y22571173D01*
X23517191Y22561069D01*
X23452611Y22590563D01*
X23446028Y22596692D01*
X22033260Y24009460D01*
X21999234Y24071772D01*
X22004299Y24142587D01*
X22046846Y24199423D01*
X22105911Y24223477D01*
X22115754Y24224772D01*
X22250643Y24280645D01*
X22366474Y24369526D01*
X22455355Y24485357D01*
X22511228Y24620246D01*
X22530285Y24765000D01*
X22518429Y24855056D01*
X22529368Y24925203D01*
X22576496Y24978302D01*
X22643351Y24997501D01*
X22881064Y24997501D01*
X22881066Y24997501D01*
X22881069Y24997502D01*
X22881072Y24997502D01*
X22916386Y25004526D01*
X22955301Y25012266D01*
X23003430Y25044426D01*
X23071179Y25065640D01*
X23139646Y25046858D01*
G37*
%TD.AperFunction*%
%TA.AperFunction,Conductor*%
G36*
X24890732Y28064080D02*
G01*
X24903700Y28061500D01*
X24903701Y28061500D01*
X25814579Y28061500D01*
X25882700Y28041498D01*
X25929193Y27987842D01*
X25939297Y27917568D01*
X25939263Y27917334D01*
X25930668Y27858344D01*
X26620925Y27168087D01*
X26527685Y27154680D01*
X26396900Y27094952D01*
X26288239Y27000798D01*
X26210507Y26879844D01*
X26170000Y26741889D01*
X26170000Y26720988D01*
X25483258Y27407730D01*
X25483256Y27407730D01*
X25437164Y27337177D01*
X25437161Y27337172D01*
X25344166Y27125164D01*
X25344163Y27125157D01*
X25287332Y26900735D01*
X25276849Y26774226D01*
X25251289Y26707989D01*
X25193977Y26666086D01*
X25123109Y26661820D01*
X25062184Y26695536D01*
X23906315Y27851405D01*
X23872289Y27913717D01*
X23877354Y27984532D01*
X23919901Y28041368D01*
X23986421Y28066179D01*
X23995410Y28066500D01*
X24866153Y28066500D01*
X24890732Y28064080D01*
G37*
%TD.AperFunction*%
%TA.AperFunction,Conductor*%
G36*
X23010508Y37825498D02*
G01*
X23057001Y37771842D01*
X23067105Y37701568D01*
X23037611Y37636988D01*
X22988271Y37602152D01*
X22681515Y37482208D01*
X22681508Y37482206D01*
X22681498Y37482201D01*
X22681489Y37482197D01*
X22681486Y37482195D01*
X22350400Y37310154D01*
X22350397Y37310152D01*
X22039452Y37103880D01*
X22039445Y37103875D01*
X21752193Y36865722D01*
X21752192Y36865721D01*
X21491889Y36598394D01*
X21491887Y36598392D01*
X21261465Y36304900D01*
X21063544Y35988575D01*
X20900371Y35653014D01*
X20900370Y35653013D01*
X20773789Y35302007D01*
X20773787Y35302001D01*
X20685233Y34939532D01*
X20685229Y34939509D01*
X20635707Y34569696D01*
X20635706Y34569687D01*
X20625773Y34196690D01*
X20625773Y34196684D01*
X20655543Y33824741D01*
X20724684Y33458057D01*
X20724687Y33458048D01*
X20832400Y33100820D01*
X20832404Y33100811D01*
X20977485Y32757044D01*
X20977493Y32757027D01*
X21076574Y32578156D01*
X21158294Y32430626D01*
X21372769Y32125287D01*
X21372771Y32125285D01*
X21618483Y31844475D01*
X21618485Y31844473D01*
X21831210Y31648095D01*
X21892655Y31591372D01*
X22192171Y31368850D01*
X22192172Y31368848D01*
X22192176Y31368846D01*
X22192177Y31368845D01*
X22513655Y31179416D01*
X22853447Y31025231D01*
X23207702Y30908037D01*
X23572408Y30829162D01*
X23572410Y30829162D01*
X23572414Y30829161D01*
X23943418Y30789501D01*
X23943425Y30789501D01*
X23943431Y30789500D01*
X23943436Y30789500D01*
X24223219Y30789500D01*
X24502595Y30804390D01*
X24502600Y30804391D01*
X24502608Y30804391D01*
X24870995Y30863744D01*
X25230986Y30961917D01*
X25578502Y31097799D01*
X25909606Y31269850D01*
X26220547Y31476120D01*
X26507800Y31714273D01*
X26768113Y31981609D01*
X26998534Y32275101D01*
X27196454Y32591422D01*
X27359630Y32926989D01*
X27422317Y33100820D01*
X27440972Y33152549D01*
X27482897Y33209845D01*
X27549143Y33235379D01*
X27618677Y33221044D01*
X27669423Y33171391D01*
X27685500Y33109805D01*
X27685500Y30479500D01*
X27665498Y30411379D01*
X27611842Y30364886D01*
X27559500Y30353500D01*
X25755936Y30353500D01*
X25755926Y30353499D01*
X25681699Y30338735D01*
X25597515Y30282484D01*
X25541266Y30198303D01*
X25525292Y30117995D01*
X25523415Y30118369D01*
X25500171Y30060802D01*
X25471160Y30034083D01*
X24837748Y29612601D01*
X24769955Y29591516D01*
X24767947Y29591500D01*
X22339027Y29591500D01*
X22270906Y29611502D01*
X22249932Y29628405D01*
X19722405Y32155933D01*
X19688379Y32218245D01*
X19685500Y32245028D01*
X19685500Y32955273D01*
X19686830Y32973533D01*
X19687153Y32975743D01*
X19690366Y32997673D01*
X19685739Y33050550D01*
X19685500Y33056036D01*
X19685500Y33064415D01*
X19681629Y33097528D01*
X19676815Y33152549D01*
X19674830Y33175241D01*
X19674828Y33175246D01*
X19673346Y33182426D01*
X19673407Y33182439D01*
X19671749Y33189917D01*
X19671690Y33189902D01*
X19669998Y33197038D01*
X19669998Y33197042D01*
X19643301Y33270390D01*
X19618764Y33344441D01*
X19618761Y33344446D01*
X19615660Y33351098D01*
X19615715Y33351124D01*
X19612382Y33358009D01*
X19612327Y33357981D01*
X19609032Y33364543D01*
X19566154Y33429735D01*
X19548683Y33458059D01*
X19525188Y33496150D01*
X19525186Y33496152D01*
X19525185Y33496154D01*
X19520639Y33501904D01*
X19520686Y33501942D01*
X19515845Y33507884D01*
X19515799Y33507844D01*
X19511082Y33513466D01*
X19454333Y33567006D01*
X17983942Y35037396D01*
X17971970Y35051248D01*
X17957398Y35070822D01*
X17957396Y35070824D01*
X17916730Y35104948D01*
X17912676Y35108662D01*
X17906771Y35114568D01*
X17897431Y35121953D01*
X17880620Y35135246D01*
X17878763Y35136804D01*
X17820855Y35185395D01*
X17814728Y35189424D01*
X17814761Y35189476D01*
X17808303Y35193590D01*
X17808272Y35193539D01*
X17802022Y35197394D01*
X17731294Y35230375D01*
X17661572Y35265392D01*
X17654671Y35267903D01*
X17654691Y35267961D01*
X17647459Y35270475D01*
X17647440Y35270417D01*
X17640476Y35272725D01*
X17564065Y35288502D01*
X17488120Y35306501D01*
X17480833Y35307352D01*
X17480840Y35307413D01*
X17473226Y35308191D01*
X17473221Y35308129D01*
X17465909Y35308769D01*
X17387924Y35306500D01*
X13460377Y35306500D01*
X13392256Y35326502D01*
X13345763Y35380158D01*
X13335659Y35450432D01*
X13359509Y35508009D01*
X13404444Y35568035D01*
X13404444Y35568036D01*
X13455494Y35704907D01*
X13461999Y35765403D01*
X13462000Y35765415D01*
X13462000Y36004500D01*
X12254500Y36004500D01*
X12186379Y36024502D01*
X12139886Y36078158D01*
X12128500Y36130500D01*
X12128500Y37338000D01*
X12763500Y37338000D01*
X12763500Y36639500D01*
X13462000Y36639500D01*
X13462000Y36878586D01*
X13461999Y36878598D01*
X13455494Y36939094D01*
X13404444Y37075965D01*
X13404444Y37075966D01*
X13316904Y37192905D01*
X13199965Y37280445D01*
X13063093Y37331495D01*
X13002597Y37338000D01*
X12763500Y37338000D01*
X12128500Y37338000D01*
X11889402Y37338000D01*
X11828906Y37331495D01*
X11692035Y37280445D01*
X11692034Y37280445D01*
X11575095Y37192905D01*
X11487555Y37075966D01*
X11487555Y37075965D01*
X11436505Y36939094D01*
X11430000Y36878598D01*
X11430000Y36585724D01*
X11409998Y36517603D01*
X11356342Y36471110D01*
X11286068Y36461006D01*
X11228492Y36484855D01*
X11188964Y36514445D01*
X11052093Y36565495D01*
X10991597Y36572000D01*
X10918000Y36572000D01*
X10918000Y35690000D01*
X10897998Y35621879D01*
X10844342Y35575386D01*
X10792000Y35564000D01*
X9885000Y35564000D01*
X9885000Y35515403D01*
X9892348Y35447070D01*
X9889160Y35446728D01*
X9886155Y35390588D01*
X9844633Y35333000D01*
X9778567Y35307002D01*
X9767330Y35306500D01*
X9335728Y35306500D01*
X9317468Y35307830D01*
X9311057Y35308769D01*
X9293328Y35311366D01*
X9293326Y35311366D01*
X9293325Y35311366D01*
X9273293Y35309614D01*
X9240450Y35306740D01*
X9234966Y35306500D01*
X9226588Y35306500D01*
X9193469Y35302630D01*
X9115761Y35295831D01*
X9108576Y35294347D01*
X9108564Y35294405D01*
X9101082Y35292746D01*
X9101096Y35292689D01*
X9093960Y35290999D01*
X9093958Y35290998D01*
X9093955Y35290998D01*
X9093955Y35290997D01*
X9020616Y35264305D01*
X8946557Y35239765D01*
X8939908Y35236664D01*
X8939883Y35236717D01*
X8932988Y35233379D01*
X8933015Y35233326D01*
X8926467Y35230038D01*
X8926461Y35230034D01*
X8861269Y35187157D01*
X8794850Y35146188D01*
X8794848Y35146187D01*
X8794846Y35146185D01*
X8789093Y35141636D01*
X8789056Y35141683D01*
X8783122Y35136850D01*
X8783161Y35136804D01*
X8777540Y35132088D01*
X8723994Y35075333D01*
X8573429Y34924768D01*
X8503573Y34836424D01*
X8501658Y34834118D01*
X7967060Y34220454D01*
X7964373Y34215945D01*
X7945240Y34191370D01*
X7689669Y33935799D01*
X7668704Y33918902D01*
X7664581Y33916253D01*
X7664577Y33916249D01*
X7630072Y33876429D01*
X7627013Y33873143D01*
X7615722Y33861851D01*
X7615716Y33861843D01*
X7606158Y33849075D01*
X7603337Y33845575D01*
X7568822Y33805742D01*
X7568820Y33805739D01*
X7566783Y33801278D01*
X7553053Y33778136D01*
X7550114Y33774209D01*
X7550108Y33774200D01*
X7531689Y33724821D01*
X7529969Y33720669D01*
X7507734Y33671977D01*
X7472275Y33631054D01*
X7492367Y33572700D01*
X7492500Y33566908D01*
X7492500Y33548413D01*
X7492339Y33543917D01*
X7488579Y33491352D01*
X7489620Y33486571D01*
X7492500Y33459785D01*
X7492500Y33282820D01*
X7472498Y33214699D01*
X7455595Y33193725D01*
X7354548Y33092678D01*
X7292236Y33058652D01*
X7221421Y33063717D01*
X7164585Y33106264D01*
X7139774Y33172784D01*
X7146925Y33224518D01*
X7149129Y33230628D01*
X7166212Y33278000D01*
X7244100Y33596812D01*
X7279697Y33658239D01*
X7287108Y33662045D01*
X7278507Y33671971D01*
X7268234Y33741038D01*
X7304293Y34010312D01*
X7314226Y34383317D01*
X7299308Y34569696D01*
X7284456Y34755260D01*
X7252494Y34924768D01*
X7215316Y35121941D01*
X7172389Y35264305D01*
X7107599Y35479181D01*
X7107595Y35479190D01*
X7095432Y35508009D01*
X6962510Y35822967D01*
X6828997Y36064000D01*
X9885000Y36064000D01*
X10418000Y36064000D01*
X10418000Y36572000D01*
X10344402Y36572000D01*
X10283906Y36565495D01*
X10147035Y36514445D01*
X10147034Y36514445D01*
X10030095Y36426905D01*
X9942555Y36309966D01*
X9942555Y36309965D01*
X9891505Y36173094D01*
X9885000Y36112598D01*
X9885000Y36064000D01*
X6828997Y36064000D01*
X6781706Y36149374D01*
X6567231Y36454713D01*
X6452594Y36585724D01*
X6321516Y36735526D01*
X6321514Y36735528D01*
X6047344Y36988629D01*
X5892215Y37103880D01*
X5747827Y37211152D01*
X5747827Y37211153D01*
X5543595Y37331495D01*
X5426345Y37400584D01*
X5086553Y37554769D01*
X4950202Y37599877D01*
X4891812Y37640261D01*
X4864524Y37705804D01*
X4877003Y37775695D01*
X4925287Y37827745D01*
X4989777Y37845500D01*
X22942387Y37845500D01*
X23010508Y37825498D01*
G37*
%TD.AperFunction*%
%TA.AperFunction,Conductor*%
G36*
X12721497Y33316998D02*
G01*
X12767990Y33263342D01*
X12778094Y33193068D01*
X12771432Y33166968D01*
X12743505Y33092094D01*
X12737000Y33031598D01*
X12737000Y32575500D01*
X13520896Y32575500D01*
X13477072Y32513415D01*
X13426441Y32370953D01*
X13416123Y32220114D01*
X13446884Y32072085D01*
X13515066Y31940500D01*
X12737000Y31940500D01*
X12737000Y31559000D01*
X12716998Y31490879D01*
X12663342Y31444386D01*
X12611000Y31433000D01*
X10023308Y31433000D01*
X9955187Y31453002D01*
X9908694Y31506658D01*
X9898590Y31576932D01*
X9928084Y31641512D01*
X9934213Y31648095D01*
X10443213Y32157095D01*
X10505525Y32191121D01*
X10532308Y32194000D01*
X10905358Y32194000D01*
X10910850Y32193760D01*
X10927255Y32192326D01*
X10950143Y32190323D01*
X10988262Y32200539D01*
X10993583Y32201718D01*
X11032440Y32208568D01*
X11032441Y32208569D01*
X11032443Y32208569D01*
X11039163Y32211016D01*
X11051973Y32216321D01*
X11058460Y32219347D01*
X11058466Y32219348D01*
X11090781Y32241976D01*
X11095410Y32244923D01*
X11129558Y32264639D01*
X11129557Y32264639D01*
X11129560Y32264640D01*
X11154918Y32294862D01*
X11158609Y32298891D01*
X12159817Y33300098D01*
X12222127Y33334121D01*
X12248910Y33337000D01*
X12653376Y33337000D01*
X12721497Y33316998D01*
G37*
%TD.AperFunction*%
%TA.AperFunction,Conductor*%
G36*
X16902211Y33316998D02*
G01*
X16923185Y33300095D01*
X17806095Y32417185D01*
X17840121Y32354873D01*
X17843000Y32328090D01*
X17843000Y32280454D01*
X17822998Y32212333D01*
X17769342Y32165840D01*
X17699068Y32155736D01*
X17678785Y32161300D01*
X17678730Y32161091D01*
X17670755Y32163228D01*
X17526000Y32182285D01*
X17381247Y32163229D01*
X17313802Y32135292D01*
X17246358Y32107355D01*
X17246357Y32107354D01*
X17246356Y32107354D01*
X17130526Y32018474D01*
X17041644Y31902641D01*
X17041643Y31902640D01*
X17021320Y31853576D01*
X17011203Y31834133D01*
X17002633Y31820672D01*
X16941877Y31664300D01*
X16907933Y31576932D01*
X16883236Y31513368D01*
X16839921Y31457115D01*
X16773070Y31433211D01*
X16765789Y31433000D01*
X15329000Y31433000D01*
X15260879Y31453002D01*
X15214386Y31506658D01*
X15203000Y31559000D01*
X15203000Y31940500D01*
X14419104Y31940500D01*
X14462928Y32002585D01*
X14513559Y32145047D01*
X14523877Y32295886D01*
X14493116Y32443915D01*
X14424934Y32575500D01*
X15203000Y32575500D01*
X15203000Y33031586D01*
X15202999Y33031598D01*
X15196494Y33092094D01*
X15168568Y33166968D01*
X15163504Y33237783D01*
X15197529Y33300095D01*
X15259841Y33334121D01*
X15286624Y33337000D01*
X16834090Y33337000D01*
X16902211Y33316998D01*
G37*
%TD.AperFunction*%
%TD*%
%TA.AperFunction,Conductor*%
%TO.N,+5V*%
G36*
X2164911Y29647696D02*
G01*
X3140213Y28440779D01*
X3142748Y28432190D01*
X3139386Y28425152D01*
X2433951Y27719717D01*
X2425678Y27716290D01*
X2421172Y27717192D01*
X984214Y28316821D01*
X977899Y28323170D01*
X977615Y28331300D01*
X1267763Y29206096D01*
X1273618Y29212867D01*
X2150585Y29650810D01*
X2159516Y29651440D01*
X2164911Y29647696D01*
G37*
%TD.AperFunction*%
%TD*%
%TA.AperFunction,Conductor*%
%TO.N,/GPIO3\u005CI2C_SCK*%
G36*
X9528398Y29588586D02*
G01*
X9539793Y29577137D01*
X9729887Y29386147D01*
X9733294Y29377865D01*
X9730854Y29370741D01*
X9465013Y29026532D01*
X9457244Y29022079D01*
X9455753Y29021984D01*
X9344163Y29021984D01*
X9335890Y29025411D01*
X9332674Y29031473D01*
X9264421Y29386147D01*
X9227667Y29577139D01*
X9229469Y29585909D01*
X9236945Y29590837D01*
X9239106Y29591048D01*
X9520114Y29591984D01*
X9528398Y29588586D01*
G37*
%TD.AperFunction*%
%TD*%
%TA.AperFunction,Conductor*%
%TO.N,/GPIO3\u005CI2C_SCK*%
G36*
X12512026Y17456589D02*
G01*
X12513013Y17455468D01*
X12778854Y17111260D01*
X12781199Y17102617D01*
X12777887Y17095854D01*
X12576446Y16893463D01*
X12568181Y16890017D01*
X12568114Y16890017D01*
X12287117Y16890953D01*
X12278855Y16894407D01*
X12275456Y16902692D01*
X12275666Y16904854D01*
X12380674Y17450527D01*
X12385602Y17458003D01*
X12392163Y17460016D01*
X12503753Y17460016D01*
X12512026Y17456589D01*
G37*
%TD.AperFunction*%
%TD*%
%TA.AperFunction,Conductor*%
%TO.N,/GPIO8\u005CUSER_LED*%
G36*
X20342682Y25510904D02*
G01*
X20348287Y25505987D01*
X20409453Y25400707D01*
X20581511Y25104554D01*
X20582704Y25095679D01*
X20579667Y25090403D01*
X20500723Y25011459D01*
X20492450Y25008032D01*
X20490017Y25008288D01*
X19964911Y25119920D01*
X19957531Y25124992D01*
X19955900Y25133797D01*
X19956521Y25135808D01*
X20063436Y25396185D01*
X20069746Y25402536D01*
X20333729Y25510931D01*
X20342682Y25510904D01*
G37*
%TD.AperFunction*%
%TD*%
%TA.AperFunction,Conductor*%
%TO.N,/GPIO8\u005CUSER_LED*%
G36*
X25464408Y12730049D02*
G01*
X26997959Y12255122D01*
X27004848Y12249401D01*
X27005674Y12240485D01*
X27005312Y12239480D01*
X26672562Y11433786D01*
X26666237Y11427447D01*
X26666214Y11427438D01*
X25860520Y11094688D01*
X25851565Y11094697D01*
X25845240Y11101036D01*
X25844878Y11102041D01*
X25744105Y11427438D01*
X25369951Y12635592D01*
X25370777Y12644508D01*
X25372851Y12647323D01*
X25452675Y12727147D01*
X25460947Y12730573D01*
X25464408Y12730049D01*
G37*
%TD.AperFunction*%
%TD*%
%TA.AperFunction,Conductor*%
%TO.N,/GPIO9\u005CUSER_BUT*%
G36*
X22864094Y25770962D02*
G01*
X23101296Y25594009D01*
X23105878Y25586316D01*
X23106000Y25584632D01*
X23106000Y25469369D01*
X23102573Y25461096D01*
X23101296Y25459991D01*
X22864096Y25283040D01*
X22855416Y25280840D01*
X22848843Y25284128D01*
X22671167Y25461096D01*
X22613322Y25518711D01*
X22609880Y25526977D01*
X22613290Y25535257D01*
X22613323Y25535290D01*
X22848845Y25769875D01*
X22857123Y25773283D01*
X22864094Y25770962D01*
G37*
%TD.AperFunction*%
%TD*%
%TA.AperFunction,Conductor*%
%TO.N,/GPIO9\u005CUSER_BUT*%
G36*
X25464408Y15270049D02*
G01*
X26997959Y14795122D01*
X27004848Y14789401D01*
X27005674Y14780485D01*
X27005312Y14779480D01*
X26672562Y13973786D01*
X26666237Y13967447D01*
X26666214Y13967438D01*
X25860520Y13634688D01*
X25851565Y13634697D01*
X25845240Y13641036D01*
X25844878Y13642041D01*
X25744105Y13967438D01*
X25369951Y15175592D01*
X25370777Y15184508D01*
X25372851Y15187323D01*
X25452675Y15267147D01*
X25460947Y15270573D01*
X25464408Y15270049D01*
G37*
%TD.AperFunction*%
%TD*%
%TA.AperFunction,Conductor*%
%TO.N,/GPIO10\u005CFSPICS0*%
G36*
X25464408Y17810049D02*
G01*
X26997959Y17335122D01*
X27004848Y17329401D01*
X27005674Y17320485D01*
X27005312Y17319480D01*
X26672562Y16513786D01*
X26666237Y16507447D01*
X26666214Y16507438D01*
X25860520Y16174688D01*
X25851565Y16174697D01*
X25845240Y16181036D01*
X25844878Y16182041D01*
X25744105Y16507438D01*
X25369951Y17715592D01*
X25370777Y17724508D01*
X25372851Y17727323D01*
X25452675Y17807147D01*
X25460947Y17810573D01*
X25464408Y17810049D01*
G37*
%TD.AperFunction*%
%TD*%
%TA.AperFunction,Conductor*%
%TO.N,/GPIO20\u005CU0RXD*%
G36*
X17746352Y30946190D02*
G01*
X18095357Y30634459D01*
X18099244Y30626392D01*
X18096289Y30617939D01*
X18095836Y30617460D01*
X18017316Y30538940D01*
X18011275Y30535728D01*
X17539898Y30444102D01*
X17531123Y30445887D01*
X17526181Y30453355D01*
X17525966Y30455553D01*
X17525304Y30737224D01*
X17528710Y30745502D01*
X17730313Y30945766D01*
X17738597Y30949164D01*
X17746352Y30946190D01*
G37*
%TD.AperFunction*%
%TD*%
%TA.AperFunction,Conductor*%
%TO.N,/GPIO20\u005CU0RXD*%
G36*
X25464408Y20350049D02*
G01*
X26997959Y19875122D01*
X27004848Y19869401D01*
X27005674Y19860485D01*
X27005312Y19859480D01*
X26672562Y19053786D01*
X26666237Y19047447D01*
X26666214Y19047438D01*
X25860520Y18714688D01*
X25851565Y18714697D01*
X25845240Y18721036D01*
X25844878Y18722041D01*
X25744105Y19047438D01*
X25369951Y20255592D01*
X25370777Y20264508D01*
X25372851Y20267323D01*
X25452675Y20347147D01*
X25460947Y20350573D01*
X25464408Y20350049D01*
G37*
%TD.AperFunction*%
%TD*%
%TA.AperFunction,Conductor*%
%TO.N,/GPIO21\u005CU0TXD*%
G36*
X25540778Y22940492D02*
G01*
X26916839Y22444952D01*
X26998679Y22415480D01*
X27005302Y22409453D01*
X27005723Y22400508D01*
X27005529Y22400006D01*
X26672562Y21593786D01*
X26666237Y21587447D01*
X26666214Y21587438D01*
X25861171Y21254957D01*
X25852216Y21254966D01*
X25845891Y21261305D01*
X25845361Y21262908D01*
X25763454Y21587438D01*
X25445619Y22846765D01*
X25446917Y22855624D01*
X25448686Y22857896D01*
X25528547Y22937757D01*
X25536819Y22941183D01*
X25540778Y22940492D01*
G37*
%TD.AperFunction*%
%TD*%
%TA.AperFunction,Conductor*%
%TO.N,/GPIO21\u005CU0TXD*%
G36*
X17801087Y31733249D02*
G01*
X17807399Y31726897D01*
X17807482Y31726690D01*
X17992401Y31250752D01*
X17992203Y31241800D01*
X17989768Y31238242D01*
X17910758Y31159232D01*
X17902485Y31155805D01*
X17898248Y31156599D01*
X17422310Y31341518D01*
X17415839Y31347709D01*
X17415641Y31356661D01*
X17415686Y31356775D01*
X17523436Y31619186D01*
X17529746Y31625536D01*
X17792134Y31733276D01*
X17801087Y31733249D01*
G37*
%TD.AperFunction*%
%TD*%
%TA.AperFunction,Conductor*%
%TO.N,/ESP_EN*%
G36*
X25776182Y25625110D02*
G01*
X25927174Y25542668D01*
X27000991Y24956360D01*
X27006610Y24949389D01*
X27006198Y24941626D01*
X26673697Y24136534D01*
X26667372Y24130195D01*
X26662874Y24129300D01*
X25791872Y24129992D01*
X25783601Y24133425D01*
X25780212Y24140843D01*
X25679080Y25534169D01*
X25681899Y25542668D01*
X25682462Y25543274D01*
X25762303Y25623115D01*
X25770575Y25626541D01*
X25776182Y25625110D01*
G37*
%TD.AperFunction*%
%TD*%
%TA.AperFunction,Conductor*%
%TO.N,/ESP_EN*%
G36*
X6893669Y29575451D02*
G01*
X6972829Y29496291D01*
X6976256Y29488018D01*
X6976246Y29487529D01*
X6954468Y28967189D01*
X6950698Y28959066D01*
X6942802Y28955978D01*
X6608172Y28955303D01*
X6599892Y28958713D01*
X6366217Y29193727D01*
X6362815Y29202008D01*
X6366266Y29210272D01*
X6367702Y29211486D01*
X6878595Y29576697D01*
X6887315Y29578720D01*
X6893669Y29575451D01*
G37*
%TD.AperFunction*%
%TD*%
%TA.AperFunction,Conductor*%
%TO.N,+5V*%
G36*
X21329727Y14352246D02*
G01*
X21337860Y14348498D01*
X21339263Y14346639D01*
X21484494Y14108087D01*
X21485869Y14099239D01*
X21483548Y14094585D01*
X21322861Y13898592D01*
X21294793Y13864356D01*
X21288711Y13856938D01*
X21280816Y13852713D01*
X21279663Y13852656D01*
X20895402Y13852656D01*
X20887129Y13856083D01*
X20883702Y13864356D01*
X20884384Y13868291D01*
X21058110Y14354692D01*
X21064119Y14361329D01*
X21069582Y14362446D01*
X21329727Y14352246D01*
G37*
%TD.AperFunction*%
%TD*%
%TA.AperFunction,Conductor*%
%TO.N,+5V*%
G36*
X21283952Y12408133D02*
G01*
X21287135Y12402237D01*
X21387920Y11916567D01*
X21386246Y11907770D01*
X21385989Y11907396D01*
X20899661Y11225564D01*
X20892067Y11220818D01*
X20883342Y11222833D01*
X20879935Y11226628D01*
X20498995Y11904832D01*
X20497931Y11913724D01*
X20499910Y11917680D01*
X20875288Y12406982D01*
X20883043Y12411460D01*
X20884571Y12411560D01*
X21275679Y12411560D01*
X21283952Y12408133D01*
G37*
%TD.AperFunction*%
%TD*%
%TA.AperFunction,Conductor*%
%TO.N,+5V*%
G36*
X20342454Y12302810D02*
G01*
X20348196Y12297651D01*
X20571234Y11891962D01*
X20572216Y11883061D01*
X20569254Y11878052D01*
X20225517Y11534315D01*
X20217244Y11530888D01*
X20208971Y11534315D01*
X20208100Y11535290D01*
X19931002Y11883061D01*
X19860359Y11971722D01*
X19857884Y11980328D01*
X19861208Y11987258D01*
X20063629Y12191033D01*
X20067480Y12193606D01*
X20333500Y12302837D01*
X20342454Y12302810D01*
G37*
%TD.AperFunction*%
%TD*%
%TA.AperFunction,Conductor*%
%TO.N,+5V*%
G36*
X20321548Y12077352D02*
G01*
X20904187Y11914041D01*
X20911228Y11908508D01*
X20912722Y11902373D01*
X20889222Y11218195D01*
X20885513Y11210045D01*
X20881864Y11207730D01*
X20398631Y11014941D01*
X20389677Y11015058D01*
X20384006Y11020242D01*
X19903559Y11908508D01*
X19821339Y12060520D01*
X19820417Y12069427D01*
X19826064Y12076377D01*
X19831630Y12077786D01*
X20318390Y12077786D01*
X20321548Y12077352D01*
G37*
%TD.AperFunction*%
%TD*%
%TA.AperFunction,Conductor*%
%TO.N,+5V*%
G36*
X20895866Y11200964D02*
G01*
X20899661Y11197557D01*
X21386382Y10515174D01*
X21388492Y10507148D01*
X21337109Y10022028D01*
X21332830Y10014161D01*
X21325474Y10011560D01*
X20834268Y10011560D01*
X20825995Y10014987D01*
X20824528Y10016777D01*
X20499186Y10505595D01*
X20497455Y10514381D01*
X20498725Y10517808D01*
X20879935Y11196493D01*
X20886974Y11202028D01*
X20895866Y11200964D01*
G37*
%TD.AperFunction*%
%TD*%
%TA.AperFunction,Conductor*%
%TO.N,+3.3V*%
G36*
X13714857Y6225573D02*
G01*
X13718013Y6219801D01*
X13889587Y5435844D01*
X13888009Y5427030D01*
X13885760Y5424449D01*
X12962904Y4635612D01*
X12954389Y4632842D01*
X12946408Y4636904D01*
X12276257Y5422921D01*
X12273497Y5431440D01*
X12274849Y5436041D01*
X12696691Y6222829D01*
X12703620Y6228501D01*
X12707002Y6229000D01*
X13706584Y6229000D01*
X13714857Y6225573D01*
G37*
%TD.AperFunction*%
%TD*%
%TA.AperFunction,Conductor*%
%TO.N,+3.3V*%
G36*
X25787682Y29923158D02*
G01*
X26511214Y29339005D01*
X26667225Y29213048D01*
X26671509Y29205185D01*
X26671510Y29205177D01*
X26763761Y28333932D01*
X26761224Y28325344D01*
X26753358Y28321065D01*
X26752126Y28321000D01*
X24903700Y28321000D01*
X24895427Y28324427D01*
X24892000Y28332700D01*
X24892000Y29330732D01*
X24895427Y29339005D01*
X24897212Y29340469D01*
X25773851Y29923797D01*
X25782637Y29925526D01*
X25787682Y29923158D01*
G37*
%TD.AperFunction*%
%TD*%
%TA.AperFunction,Conductor*%
%TO.N,+3.3V*%
G36*
X8798737Y34762259D02*
G01*
X8799299Y34761736D01*
X9143043Y34419365D01*
X9145603Y34415533D01*
X9330560Y33966665D01*
X9330543Y33957711D01*
X9324199Y33951390D01*
X9323429Y33951104D01*
X8521613Y33684826D01*
X8512682Y33685471D01*
X8509653Y33687657D01*
X8163273Y34034037D01*
X8159846Y34042310D01*
X8162724Y34049995D01*
X8782231Y34761123D01*
X8790248Y34765109D01*
X8798737Y34762259D01*
G37*
%TD.AperFunction*%
%TD*%
%TA.AperFunction,Conductor*%
%TO.N,+3.3V*%
G36*
X5960450Y31326236D02*
G01*
X6305249Y30981437D01*
X6308676Y30973164D01*
X6305324Y30964966D01*
X5843735Y30494913D01*
X5835493Y30491411D01*
X5827190Y30494763D01*
X5588967Y30731629D01*
X5586395Y30735477D01*
X5458034Y31047695D01*
X5458057Y31056648D01*
X5463216Y31062394D01*
X5946542Y31328216D01*
X5955439Y31329199D01*
X5960450Y31326236D01*
G37*
%TD.AperFunction*%
%TD*%
%TA.AperFunction,Conductor*%
%TO.N,+3.3V*%
G36*
X11061543Y4490039D02*
G01*
X11638195Y4445829D01*
X11646181Y4441780D01*
X11649000Y4434163D01*
X11649000Y3947838D01*
X11645573Y3939565D01*
X11638194Y3936172D01*
X11061552Y3891963D01*
X11053041Y3894748D01*
X11048992Y3902735D01*
X11048958Y3903590D01*
X11048000Y4191000D01*
X11048958Y4478411D01*
X11052412Y4486673D01*
X11060697Y4490072D01*
X11061543Y4490039D01*
G37*
%TD.AperFunction*%
%TD*%
%TA.AperFunction,Conductor*%
%TO.N,+3.3V*%
G36*
X11462720Y5102157D02*
G01*
X12928499Y4637403D01*
X12935350Y4631636D01*
X12936116Y4622714D01*
X12930466Y4615925D01*
X11458066Y3831168D01*
X11449548Y3830188D01*
X11057685Y3934684D01*
X11050575Y3940127D01*
X11049000Y3945989D01*
X11049000Y4441696D01*
X11050728Y4447816D01*
X11153898Y4615925D01*
X11449215Y5097125D01*
X11456461Y5102382D01*
X11462720Y5102157D01*
G37*
%TD.AperFunction*%
%TD*%
%TA.AperFunction,Conductor*%
%TO.N,+3.3V*%
G36*
X15620201Y20046573D02*
G01*
X15623259Y20041214D01*
X15826415Y19251161D01*
X15825157Y19242295D01*
X15819581Y19237446D01*
X15371497Y19050873D01*
X15362543Y19050856D01*
X15362503Y19050873D01*
X14914418Y19237446D01*
X14908097Y19243790D01*
X14907584Y19251159D01*
X15110741Y20041214D01*
X15116120Y20048373D01*
X15122072Y20050000D01*
X15611928Y20050000D01*
X15620201Y20046573D01*
G37*
%TD.AperFunction*%
%TD*%
%TA.AperFunction,Conductor*%
%TO.N,+3.3V*%
G36*
X18512090Y4151519D02*
G01*
X18897362Y4127219D01*
X18904898Y4123815D01*
X19177260Y3851453D01*
X19180687Y3843180D01*
X19177260Y3834907D01*
X19173878Y3832551D01*
X18625518Y3580205D01*
X18616570Y3579860D01*
X18609998Y3585943D01*
X18609831Y3586323D01*
X18499902Y3849417D01*
X18498998Y3853953D01*
X18499670Y4139870D01*
X18503116Y4148134D01*
X18511397Y4151541D01*
X18512090Y4151519D01*
G37*
%TD.AperFunction*%
%TD*%
%TA.AperFunction,Conductor*%
%TO.N,+3.3V*%
G36*
X18805764Y4174509D02*
G01*
X18971631Y4048227D01*
X19045083Y3992305D01*
X19049590Y3984567D01*
X19049434Y3980533D01*
X18993487Y3720756D01*
X18988395Y3713389D01*
X18983719Y3711639D01*
X18563370Y3651028D01*
X18554692Y3653239D01*
X18550120Y3660938D01*
X18550000Y3662608D01*
X18550000Y4048227D01*
X18553427Y4056500D01*
X18556519Y4058718D01*
X18793502Y4175691D01*
X18802437Y4176278D01*
X18805764Y4174509D01*
G37*
%TD.AperFunction*%
%TD*%
%TA.AperFunction,Conductor*%
%TO.N,Net-(D2-K)*%
G36*
X17842283Y2873573D02*
G01*
X17844313Y2870845D01*
X17986243Y2607123D01*
X17987146Y2598214D01*
X17986579Y2596710D01*
X17724639Y2024252D01*
X17718081Y2018155D01*
X17709132Y2018481D01*
X17703361Y2024252D01*
X17587681Y2277064D01*
X17441419Y2596712D01*
X17441094Y2605659D01*
X17441750Y2607111D01*
X17583687Y2870846D01*
X17590626Y2876506D01*
X17593990Y2877000D01*
X17834010Y2877000D01*
X17842283Y2873573D01*
G37*
%TD.AperFunction*%
%TD*%
%TA.AperFunction,Conductor*%
%TO.N,Net-(CHARGING1-K)*%
G36*
X8771257Y11422710D02*
G01*
X8771290Y11422677D01*
X9006598Y11186428D01*
X9010008Y11178148D01*
X9008369Y11172199D01*
X8868000Y10935728D01*
X8860830Y10930363D01*
X8857939Y10930000D01*
X8668061Y10930000D01*
X8659788Y10933427D01*
X8658000Y10935728D01*
X8633731Y10976612D01*
X8517629Y11172201D01*
X8516354Y11181062D01*
X8519399Y11186425D01*
X8754710Y11422678D01*
X8762977Y11426120D01*
X8771257Y11422710D01*
G37*
%TD.AperFunction*%
%TD*%
%TA.AperFunction,Conductor*%
%TO.N,Net-(CHARGING1-K)*%
G36*
X8232225Y6840302D02*
G01*
X8364301Y6708226D01*
X8367728Y6699953D01*
X8366622Y6694988D01*
X8155892Y6245287D01*
X8149279Y6239250D01*
X8140854Y6239429D01*
X7877815Y6347437D01*
X7871463Y6353749D01*
X7871436Y6353816D01*
X7763428Y6616855D01*
X7763455Y6625810D01*
X7769285Y6631893D01*
X8218988Y6842624D01*
X8227933Y6843031D01*
X8232225Y6840302D01*
G37*
%TD.AperFunction*%
%TD*%
%TA.AperFunction,Conductor*%
%TO.N,VBAT*%
G36*
X20453522Y19499031D02*
G01*
X20694364Y19383386D01*
X20700339Y19376717D01*
X20701000Y19372840D01*
X20701000Y18985723D01*
X20697573Y18977450D01*
X20689300Y18974023D01*
X20689079Y18974025D01*
X20452558Y18978484D01*
X20444351Y18982066D01*
X20443570Y18982965D01*
X20199245Y19294754D01*
X20196839Y19303380D01*
X20201235Y19311177D01*
X20441284Y19497722D01*
X20449918Y19500092D01*
X20453522Y19499031D01*
G37*
%TD.AperFunction*%
%TD*%
%TA.AperFunction,Conductor*%
%TO.N,Net-(PWR_SENS_E1-Pad1)*%
G36*
X21537760Y15863573D02*
G01*
X21540987Y15857453D01*
X21584867Y15623051D01*
X21583021Y15614288D01*
X21581657Y15612641D01*
X21344290Y15374324D01*
X21336023Y15370881D01*
X21327743Y15374291D01*
X21327710Y15374324D01*
X21090342Y15612641D01*
X21086932Y15620921D01*
X21087131Y15623043D01*
X21131013Y15857453D01*
X21135903Y15864954D01*
X21142513Y15867000D01*
X21529487Y15867000D01*
X21537760Y15863573D01*
G37*
%TD.AperFunction*%
%TD*%
%TA.AperFunction,Conductor*%
%TO.N,Net-(PWR_SENS_E1-Pad1)*%
G36*
X21343855Y16375244D02*
G01*
X21344663Y16374436D01*
X21523956Y16176496D01*
X21582103Y16112302D01*
X21585117Y16103869D01*
X21584931Y16102294D01*
X21540987Y15867547D01*
X21536097Y15860046D01*
X21529487Y15858000D01*
X21142513Y15858000D01*
X21134240Y15861427D01*
X21131013Y15867547D01*
X21087068Y16102294D01*
X21088914Y16111057D01*
X21089891Y16112296D01*
X21327329Y16374428D01*
X21335422Y16378258D01*
X21343855Y16375244D01*
G37*
%TD.AperFunction*%
%TD*%
%TA.AperFunction,Conductor*%
%TO.N,Net-(PWR_SENS_E1-Pad1)*%
G36*
X21088712Y16630022D02*
G01*
X21090359Y16628658D01*
X21328676Y16391290D01*
X21332119Y16383023D01*
X21328709Y16374743D01*
X21328676Y16374710D01*
X21090359Y16137343D01*
X21082079Y16133933D01*
X21079949Y16134133D01*
X20845547Y16178013D01*
X20838046Y16182903D01*
X20836000Y16189513D01*
X20836000Y16576488D01*
X20839427Y16584761D01*
X20845544Y16587987D01*
X21079950Y16631868D01*
X21088712Y16630022D01*
G37*
%TD.AperFunction*%
%TD*%
%TA.AperFunction,Conductor*%
%TO.N,Net-(PWR_SENS_E1-Pad1)*%
G36*
X20697416Y16582706D02*
G01*
X20700998Y16574498D01*
X20701000Y16574278D01*
X20701000Y16187161D01*
X20697573Y16178888D01*
X20694364Y16176614D01*
X20453526Y16060972D01*
X20444585Y16060480D01*
X20441283Y16062281D01*
X20201275Y16248792D01*
X20196845Y16256574D01*
X20199216Y16265209D01*
X20443571Y16577038D01*
X20451370Y16581435D01*
X20452554Y16581518D01*
X20689081Y16585976D01*
X20697416Y16582706D01*
G37*
%TD.AperFunction*%
%TD*%
%TA.AperFunction,Conductor*%
%TO.N,/GPIO21\u005CU0TXD*%
G36*
X17259815Y31733297D02*
G01*
X17443514Y31657868D01*
X17522184Y31625564D01*
X17528536Y31619252D01*
X17528563Y31619185D01*
X17636275Y31356868D01*
X17636248Y31347913D01*
X17629896Y31341601D01*
X17629689Y31341518D01*
X17153751Y31156599D01*
X17144799Y31156797D01*
X17141241Y31159232D01*
X17062231Y31238242D01*
X17058804Y31246515D01*
X17059597Y31250747D01*
X17244517Y31726691D01*
X17250708Y31733161D01*
X17259660Y31733359D01*
X17259815Y31733297D01*
G37*
%TD.AperFunction*%
%TD*%
%TA.AperFunction,Conductor*%
%TO.N,/GPIO21\u005CU0TXD*%
G36*
X8827141Y19900573D02*
G01*
X8829576Y19897015D01*
X9035357Y19429719D01*
X9035555Y19420767D01*
X9029364Y19414296D01*
X9029160Y19414208D01*
X8767511Y19304885D01*
X8758556Y19304858D01*
X8758489Y19304885D01*
X8496839Y19414208D01*
X8490527Y19420560D01*
X8490554Y19429515D01*
X8490642Y19429719D01*
X8696424Y19897015D01*
X8702895Y19903206D01*
X8707132Y19904000D01*
X8818868Y19904000D01*
X8827141Y19900573D01*
G37*
%TD.AperFunction*%
%TD*%
%TA.AperFunction,Conductor*%
%TO.N,/GPIO20\u005CU0RXD*%
G36*
X17415701Y31007760D02*
G01*
X17415856Y31007408D01*
X17525115Y30745911D01*
X17525142Y30736956D01*
X17525115Y30736889D01*
X17415738Y30475110D01*
X17409386Y30468798D01*
X17400433Y30468825D01*
X16934583Y30667468D01*
X16928317Y30673865D01*
X16927472Y30678230D01*
X16927472Y30789984D01*
X16930899Y30798257D01*
X16934307Y30800624D01*
X17400197Y31013539D01*
X17409146Y31013860D01*
X17415701Y31007760D01*
G37*
%TD.AperFunction*%
%TD*%
%TA.AperFunction,Conductor*%
%TO.N,/GPIO20\u005CU0RXD*%
G36*
X10272724Y24991286D02*
G01*
X10274524Y24988965D01*
X10557328Y24510373D01*
X10558586Y24501507D01*
X10553207Y24494348D01*
X10551766Y24493625D01*
X10292206Y24385173D01*
X10283251Y24385146D01*
X10283204Y24385165D01*
X10020537Y24494357D01*
X10014213Y24500697D01*
X10014182Y24509549D01*
X10176155Y24909953D01*
X10178724Y24913832D01*
X10256179Y24991287D01*
X10264451Y24994713D01*
X10272724Y24991286D01*
G37*
%TD.AperFunction*%
%TD*%
%TA.AperFunction,Conductor*%
%TO.N,/CC2*%
G36*
X17774790Y9963589D02*
G01*
X17778217Y9955316D01*
X17778100Y9953667D01*
X17700425Y9408018D01*
X17695867Y9400310D01*
X17688881Y9397967D01*
X17401367Y9397008D01*
X17396817Y9397912D01*
X17396685Y9397967D01*
X17309815Y9434264D01*
X17131836Y9508627D01*
X17125524Y9514979D01*
X17125238Y9523096D01*
X17269346Y9958989D01*
X17275197Y9965768D01*
X17280455Y9967016D01*
X17766517Y9967016D01*
X17774790Y9963589D01*
G37*
%TD.AperFunction*%
%TD*%
%TA.AperFunction,Conductor*%
%TO.N,/CC1*%
G36*
X12570435Y9359573D02*
G01*
X12573828Y9352194D01*
X12618037Y8775553D01*
X12615252Y8767042D01*
X12607265Y8762993D01*
X12606410Y8762959D01*
X12319000Y8762000D01*
X12031589Y8762959D01*
X12023327Y8766414D01*
X12019928Y8774698D01*
X12019962Y8775553D01*
X12064172Y9352194D01*
X12068221Y9360181D01*
X12075838Y9363000D01*
X12562162Y9363000D01*
X12570435Y9359573D01*
G37*
%TD.AperFunction*%
%TD*%
%TA.AperFunction,Conductor*%
%TO.N,Net-(U2-LX)*%
G36*
X14458812Y2901233D02*
G01*
X15247139Y2543117D01*
X15253254Y2536576D01*
X15254000Y2532465D01*
X15254000Y1534393D01*
X15250573Y1526120D01*
X15243680Y1522775D01*
X14457644Y1429433D01*
X14450761Y1430726D01*
X12974050Y2217781D01*
X12968362Y2224695D01*
X12969229Y2233608D01*
X12974758Y2238777D01*
X14449179Y2901254D01*
X14458129Y2901518D01*
X14458812Y2901233D01*
G37*
%TD.AperFunction*%
%TD*%
%TA.AperFunction,Conductor*%
%TO.N,Net-(U1-CHRGb)*%
G36*
X8892178Y13081090D02*
G01*
X9156141Y12970801D01*
X9162453Y12964449D01*
X9162426Y12955494D01*
X9162330Y12955271D01*
X8969282Y12518950D01*
X8962800Y12512771D01*
X8958582Y12511984D01*
X8572138Y12511984D01*
X8563865Y12515411D01*
X8560438Y12523684D01*
X8560454Y12524304D01*
X8564033Y12591750D01*
X8589414Y13069960D01*
X8593274Y13078037D01*
X8601057Y13081037D01*
X8887636Y13081993D01*
X8892178Y13081090D01*
G37*
%TD.AperFunction*%
%TD*%
%TA.AperFunction,Conductor*%
%TO.N,Net-(U1-CHRGb)*%
G36*
X8964760Y12942573D02*
G01*
X8967987Y12936453D01*
X9011867Y12702051D01*
X9010021Y12693288D01*
X9008657Y12691641D01*
X8771290Y12453324D01*
X8763023Y12449881D01*
X8754743Y12453291D01*
X8754710Y12453324D01*
X8517342Y12691641D01*
X8513932Y12699921D01*
X8514131Y12702043D01*
X8558013Y12936453D01*
X8562903Y12943954D01*
X8569513Y12946000D01*
X8956487Y12946000D01*
X8964760Y12942573D01*
G37*
%TD.AperFunction*%
%TD*%
%TA.AperFunction,Conductor*%
%TO.N,Net-(U1-PROG)*%
G36*
X15379543Y12872039D02*
G01*
X15956195Y12827829D01*
X15964181Y12823780D01*
X15967000Y12816163D01*
X15967000Y12329838D01*
X15963573Y12321565D01*
X15956194Y12318172D01*
X15379552Y12273963D01*
X15371041Y12276748D01*
X15366992Y12284735D01*
X15366958Y12285590D01*
X15366000Y12573000D01*
X15366958Y12860411D01*
X15370412Y12868673D01*
X15378697Y12872072D01*
X15379543Y12872039D01*
G37*
%TD.AperFunction*%
%TD*%
%TA.AperFunction,Conductor*%
%TO.N,Net-(U2-FB)*%
G36*
X19736658Y4474949D02*
G01*
X20130279Y4267127D01*
X20135995Y4260234D01*
X20136139Y4253834D01*
X20068151Y3992643D01*
X20062750Y3985500D01*
X20061435Y3984835D01*
X19825147Y3883612D01*
X19816193Y3883504D01*
X19810664Y3888094D01*
X19728116Y4018050D01*
X19554447Y4291461D01*
X19552905Y4300280D01*
X19556049Y4306003D01*
X19722923Y4472877D01*
X19731195Y4476303D01*
X19736658Y4474949D01*
G37*
%TD.AperFunction*%
%TD*%
%TA.AperFunction,Conductor*%
%TO.N,Net-(U2-FB)*%
G36*
X19305490Y5032381D02*
G01*
X19561247Y4649409D01*
X19562992Y4640626D01*
X19559790Y4634638D01*
X19392803Y4467651D01*
X19384530Y4464224D01*
X19379523Y4465349D01*
X18992595Y4648548D01*
X18986584Y4655186D01*
X18986217Y4661816D01*
X19047962Y4922688D01*
X19053202Y4929947D01*
X19054551Y4930663D01*
X19290978Y5036562D01*
X19299928Y5036815D01*
X19305490Y5032381D01*
G37*
%TD.AperFunction*%
%TD*%
%TA.AperFunction,Conductor*%
%TO.N,Net-(U2-FB)*%
G36*
X18802712Y5174622D02*
G01*
X18804359Y5173258D01*
X19042676Y4935890D01*
X19046119Y4927623D01*
X19042709Y4919343D01*
X19042676Y4919310D01*
X18804359Y4681943D01*
X18796079Y4678533D01*
X18793949Y4678733D01*
X18559547Y4722613D01*
X18552046Y4727503D01*
X18550000Y4734113D01*
X18550000Y5121088D01*
X18553427Y5129361D01*
X18559544Y5132587D01*
X18793950Y5176468D01*
X18802712Y5174622D01*
G37*
%TD.AperFunction*%
%TD*%
%TA.AperFunction,Conductor*%
%TO.N,Net-(U2-FB)*%
G36*
X18259085Y5126498D02*
G01*
X18263838Y5118909D01*
X18264000Y5116967D01*
X18264000Y4729201D01*
X18260629Y4720984D01*
X17995295Y4452051D01*
X17987045Y4448568D01*
X17981200Y4450088D01*
X17723223Y4596210D01*
X17717713Y4603269D01*
X17718809Y4612156D01*
X17986250Y5079714D01*
X17993330Y5085192D01*
X17994446Y5085438D01*
X18250359Y5128505D01*
X18259085Y5126498D01*
G37*
%TD.AperFunction*%
%TD*%
%TA.AperFunction,Conductor*%
%TO.N,Net-(BUT1-Pad2)*%
G36*
X21774823Y25375742D02*
G01*
X22174686Y24985377D01*
X22178212Y24977146D01*
X22174885Y24968832D01*
X22174814Y24968759D01*
X21973373Y24765971D01*
X21969516Y24763394D01*
X21704041Y24654386D01*
X21695086Y24654413D01*
X21689054Y24660136D01*
X21482778Y25088973D01*
X21482281Y25097912D01*
X21485048Y25102314D01*
X21758378Y25375644D01*
X21766650Y25379070D01*
X21774823Y25375742D01*
G37*
%TD.AperFunction*%
%TD*%
%TA.AperFunction,Conductor*%
%TO.N,/GPIO2\u005CFSPIQ*%
G36*
X1620197Y19864882D02*
G01*
X1621917Y19863993D01*
X3017249Y18989938D01*
X3022441Y18982643D01*
X3022738Y18980024D01*
X3022738Y18867089D01*
X3019311Y18858816D01*
X3015809Y18856406D01*
X1621173Y18233570D01*
X1612222Y18233325D01*
X1605719Y18239482D01*
X1605612Y18239729D01*
X1270863Y19045514D01*
X1270855Y19054466D01*
X1604904Y19858568D01*
X1611242Y19864891D01*
X1620197Y19864882D01*
G37*
%TD.AperFunction*%
%TD*%
%TA.AperFunction,Conductor*%
%TO.N,/GPIO2\u005CFSPIQ*%
G36*
X8756606Y33327768D02*
G01*
X9017967Y33220449D01*
X9024319Y33214137D01*
X9024346Y33214070D01*
X9132384Y32950959D01*
X9132357Y32942004D01*
X9126600Y32935956D01*
X8688136Y32726724D01*
X8679193Y32726253D01*
X8674824Y32729010D01*
X8595788Y32808046D01*
X8592361Y32816319D01*
X8592840Y32819631D01*
X8740943Y33320265D01*
X8746576Y33327225D01*
X8755481Y33328164D01*
X8756606Y33327768D01*
G37*
%TD.AperFunction*%
%TD*%
%TA.AperFunction,Conductor*%
%TO.N,/GPIO2\u005CFSPIQ*%
G36*
X5448815Y20303297D02*
G01*
X5632514Y20227868D01*
X5711184Y20195564D01*
X5717536Y20189252D01*
X5717563Y20189185D01*
X5825275Y19926868D01*
X5825248Y19917913D01*
X5818896Y19911601D01*
X5818689Y19911518D01*
X5342751Y19726599D01*
X5333799Y19726797D01*
X5330241Y19729232D01*
X5251231Y19808242D01*
X5247804Y19816515D01*
X5248597Y19820747D01*
X5433517Y20296691D01*
X5439708Y20303161D01*
X5448660Y20303359D01*
X5448815Y20303297D01*
G37*
%TD.AperFunction*%
%TD*%
%TA.AperFunction,Conductor*%
%TO.N,/GPIO2\u005CFSPIQ*%
G36*
X5779141Y20789573D02*
G01*
X5781576Y20786015D01*
X5987357Y20318719D01*
X5987555Y20309767D01*
X5981364Y20303296D01*
X5981160Y20303208D01*
X5719511Y20193885D01*
X5710556Y20193858D01*
X5710489Y20193885D01*
X5448839Y20303208D01*
X5442527Y20309560D01*
X5442554Y20318515D01*
X5442642Y20318719D01*
X5648424Y20786015D01*
X5654895Y20792206D01*
X5659132Y20793000D01*
X5770868Y20793000D01*
X5779141Y20789573D01*
G37*
%TD.AperFunction*%
%TD*%
%TA.AperFunction,Conductor*%
%TO.N,/GPIO2\u005CFSPIQ*%
G36*
X9607051Y33524512D02*
G01*
X9610619Y33516299D01*
X9610621Y33516098D01*
X9610621Y33029846D01*
X9607194Y33021573D01*
X9600920Y33018318D01*
X9035435Y32920253D01*
X9026698Y32922216D01*
X9021908Y32929782D01*
X9021736Y32931733D01*
X9020783Y33217885D01*
X9021744Y33506425D01*
X9025198Y33514685D01*
X9033242Y33518082D01*
X9598721Y33527796D01*
X9607051Y33524512D01*
G37*
%TD.AperFunction*%
%TD*%
%TA.AperFunction,Conductor*%
%TO.N,/GPIO4\u005CFSPIHD*%
G36*
X14490160Y26305793D02*
G01*
X14496472Y26299441D01*
X14496445Y26290486D01*
X14496357Y26290282D01*
X14290576Y25822985D01*
X14284105Y25816794D01*
X14279868Y25816000D01*
X14168132Y25816000D01*
X14159859Y25819427D01*
X14157424Y25822985D01*
X13951642Y26290282D01*
X13951444Y26299234D01*
X13957635Y26305705D01*
X13957786Y26305771D01*
X14219490Y26415117D01*
X14228444Y26415143D01*
X14490160Y26305793D01*
G37*
%TD.AperFunction*%
%TD*%
%TA.AperFunction,Conductor*%
%TO.N,/GPIO4\u005CFSPIHD*%
G36*
X15248747Y24723403D02*
G01*
X15724689Y24538483D01*
X15731160Y24532292D01*
X15731358Y24523340D01*
X15731275Y24523133D01*
X15623563Y24260816D01*
X15617251Y24254464D01*
X15617184Y24254437D01*
X15354867Y24146725D01*
X15345912Y24146752D01*
X15339600Y24153104D01*
X15339517Y24153311D01*
X15300226Y24254437D01*
X15154598Y24629251D01*
X15154796Y24638201D01*
X15157228Y24641756D01*
X15236242Y24720770D01*
X15244514Y24724196D01*
X15248747Y24723403D01*
G37*
%TD.AperFunction*%
%TD*%
%TA.AperFunction,Conductor*%
%TO.N,/GPIO10\u005CFSPICS0*%
G36*
X12389986Y29365930D02*
G01*
X12393378Y29363570D01*
X12472569Y29284379D01*
X12475996Y29276106D01*
X12475266Y29272039D01*
X12265570Y28706423D01*
X12259481Y28699857D01*
X12250533Y28699520D01*
X12250151Y28699669D01*
X11941808Y28826437D01*
X11935460Y28832751D01*
X11808668Y29141153D01*
X11808691Y29150107D01*
X11815040Y29156422D01*
X11815369Y29156551D01*
X12381038Y29366267D01*
X12389986Y29365930D01*
G37*
%TD.AperFunction*%
%TD*%
%TA.AperFunction,Conductor*%
%TO.N,/GPIO10\u005CFSPICS0*%
G36*
X19114141Y25996573D02*
G01*
X19116576Y25993015D01*
X19322357Y25525719D01*
X19322555Y25516767D01*
X19316364Y25510296D01*
X19316160Y25510208D01*
X19054511Y25400885D01*
X19045556Y25400858D01*
X19045489Y25400885D01*
X18783839Y25510208D01*
X18777527Y25516560D01*
X18777554Y25525515D01*
X18777642Y25525719D01*
X18983424Y25993015D01*
X18989895Y25999206D01*
X18994132Y26000000D01*
X19105868Y26000000D01*
X19114141Y25996573D01*
G37*
%TD.AperFunction*%
%TD*%
%TA.AperFunction,Conductor*%
%TO.N,/GPIO7\u005CI2C_SDA*%
G36*
X25464408Y10190049D02*
G01*
X26997959Y9715122D01*
X27004848Y9709401D01*
X27005674Y9700485D01*
X27005312Y9699480D01*
X26672562Y8893786D01*
X26666237Y8887447D01*
X26666214Y8887438D01*
X25860520Y8554688D01*
X25851565Y8554697D01*
X25845240Y8561036D01*
X25844878Y8562041D01*
X25744105Y8887438D01*
X25369951Y10095592D01*
X25370777Y10104508D01*
X25372851Y10107323D01*
X25452675Y10187147D01*
X25460947Y10190573D01*
X25464408Y10190049D01*
G37*
%TD.AperFunction*%
%TD*%
%TA.AperFunction,Conductor*%
%TO.N,/GPIO7\u005CI2C_SDA*%
G36*
X17796704Y22618365D02*
G01*
X17796792Y22618161D01*
X17906115Y22356511D01*
X17906142Y22347556D01*
X17906115Y22347489D01*
X17796792Y22085840D01*
X17790440Y22079528D01*
X17781485Y22079555D01*
X17781281Y22079643D01*
X17313985Y22285425D01*
X17307794Y22291896D01*
X17307000Y22296133D01*
X17307000Y22407868D01*
X17310427Y22416141D01*
X17313985Y22418576D01*
X17781281Y22624358D01*
X17790233Y22624556D01*
X17796704Y22618365D01*
G37*
%TD.AperFunction*%
%TD*%
%TA.AperFunction,Conductor*%
%TO.N,/GPIO7\u005CI2C_SDA*%
G36*
X15492514Y22624446D02*
G01*
X15492718Y22624358D01*
X15960015Y22418576D01*
X15966206Y22412105D01*
X15967000Y22407868D01*
X15967000Y22296133D01*
X15963573Y22287860D01*
X15960015Y22285425D01*
X15492718Y22079643D01*
X15483766Y22079445D01*
X15477295Y22085636D01*
X15477207Y22085840D01*
X15393816Y22285425D01*
X15367883Y22347491D01*
X15367857Y22356444D01*
X15367862Y22356458D01*
X15477208Y22618163D01*
X15483559Y22624473D01*
X15492514Y22624446D01*
G37*
%TD.AperFunction*%
%TD*%
%TA.AperFunction,Conductor*%
%TO.N,/GPIO7\u005CI2C_SDA*%
G36*
X18182087Y25510249D02*
G01*
X18188399Y25503897D01*
X18188482Y25503690D01*
X18373401Y25027752D01*
X18373203Y25018800D01*
X18370768Y25015242D01*
X18291758Y24936232D01*
X18283485Y24932805D01*
X18279248Y24933599D01*
X17803310Y25118518D01*
X17796839Y25124709D01*
X17796641Y25133661D01*
X17796686Y25133775D01*
X17904436Y25396186D01*
X17910746Y25402536D01*
X18173134Y25510276D01*
X18182087Y25510249D01*
G37*
%TD.AperFunction*%
%TD*%
%TA.AperFunction,Conductor*%
%TO.N,/GPIO7\u005CI2C_SDA*%
G36*
X15653307Y22352046D02*
G01*
X15661569Y22348592D01*
X15664968Y22340307D01*
X15664819Y22338483D01*
X15571787Y21761837D01*
X15567086Y21754215D01*
X15560236Y21752000D01*
X15173764Y21752000D01*
X15165491Y21755427D01*
X15162213Y21761836D01*
X15162213Y21761837D01*
X15069180Y22338485D01*
X15071246Y22347196D01*
X15078867Y22351897D01*
X15080687Y22352046D01*
X15367000Y22353000D01*
X15653307Y22352046D01*
G37*
%TD.AperFunction*%
%TD*%
%TA.AperFunction,Conductor*%
%TO.N,/GPIO7\u005CI2C_SDA*%
G36*
X15568760Y22086573D02*
G01*
X15571987Y22080453D01*
X15615867Y21846051D01*
X15614021Y21837288D01*
X15612657Y21835641D01*
X15375290Y21597324D01*
X15367023Y21593881D01*
X15358743Y21597291D01*
X15358710Y21597324D01*
X15121342Y21835641D01*
X15117932Y21843921D01*
X15118131Y21846043D01*
X15162013Y22080453D01*
X15166903Y22087954D01*
X15173513Y22090000D01*
X15560487Y22090000D01*
X15568760Y22086573D01*
G37*
%TD.AperFunction*%
%TD*%
%TA.AperFunction,Conductor*%
%TO.N,/GPIO5\u005CBAT_MEASURE*%
G36*
X15261087Y26018249D02*
G01*
X15267399Y26011897D01*
X15267482Y26011690D01*
X15452401Y25535752D01*
X15452203Y25526800D01*
X15449768Y25523242D01*
X15370758Y25444232D01*
X15362485Y25440805D01*
X15358248Y25441599D01*
X14882310Y25626518D01*
X14875839Y25632709D01*
X14875641Y25641661D01*
X14875686Y25641775D01*
X14983436Y25904186D01*
X14989746Y25910536D01*
X15252134Y26018276D01*
X15261087Y26018249D01*
G37*
%TD.AperFunction*%
%TD*%
%TA.AperFunction,Conductor*%
%TO.N,/GPIO1\u005CEXT_PWR_SENSE*%
G36*
X10816087Y26526249D02*
G01*
X10822399Y26519897D01*
X10822482Y26519690D01*
X11007401Y26043752D01*
X11007203Y26034800D01*
X11004768Y26031242D01*
X10925758Y25952232D01*
X10917485Y25948805D01*
X10913248Y25949599D01*
X10437310Y26134518D01*
X10430839Y26140709D01*
X10430641Y26149661D01*
X10430686Y26149775D01*
X10538436Y26412186D01*
X10544746Y26418536D01*
X10807134Y26526276D01*
X10816087Y26526249D01*
G37*
%TD.AperFunction*%
%TD*%
%TA.AperFunction,Conductor*%
%TO.N,/GPIO1\u005CEXT_PWR_SENSE*%
G36*
X17998831Y16712292D02*
G01*
X18000114Y16710761D01*
X18272666Y16322526D01*
X18274790Y16315803D01*
X18274790Y16204622D01*
X18271363Y16196349D01*
X18263090Y16192922D01*
X18262676Y16192929D01*
X17791248Y16209603D01*
X17783102Y16213320D01*
X17779962Y16221257D01*
X17779016Y16505115D01*
X17782414Y16513399D01*
X17982285Y16712332D01*
X17990566Y16715738D01*
X17998831Y16712292D01*
G37*
%TD.AperFunction*%
%TD*%
%TA.AperFunction,Conductor*%
%TO.N,/GPIO1\u005CEXT_PWR_SENSE*%
G36*
X12073747Y21421403D02*
G01*
X12549689Y21236483D01*
X12556160Y21230292D01*
X12556358Y21221340D01*
X12556275Y21221133D01*
X12448563Y20958816D01*
X12442251Y20952464D01*
X12442184Y20952437D01*
X12179867Y20844725D01*
X12170912Y20844752D01*
X12164600Y20851104D01*
X12164517Y20851311D01*
X12125226Y20952437D01*
X11979598Y21327251D01*
X11979796Y21336201D01*
X11982228Y21339756D01*
X12061242Y21418770D01*
X12069514Y21422196D01*
X12073747Y21421403D01*
G37*
%TD.AperFunction*%
%TD*%
%TA.AperFunction,Conductor*%
%TO.N,/GPIO3\u005CI2C_SCK*%
G36*
X8835507Y32413552D02*
G01*
X8835703Y32413363D01*
X9036581Y32213820D01*
X9040035Y32205558D01*
X9040035Y32205491D01*
X9039370Y31922751D01*
X9035924Y31914486D01*
X9027642Y31911079D01*
X9026343Y31911154D01*
X8571664Y31963043D01*
X8564718Y31966395D01*
X8485860Y32045253D01*
X8482433Y32053526D01*
X8485641Y32061573D01*
X8818969Y32413113D01*
X8827146Y32416758D01*
X8835507Y32413552D01*
G37*
%TD.AperFunction*%
%TD*%
%TA.AperFunction,Conductor*%
%TO.N,/GPIO3\u005CI2C_SCK*%
G36*
X12568958Y17187253D02*
G01*
X12573007Y17179266D01*
X12573041Y17178411D01*
X12574000Y16891000D01*
X12573041Y16603590D01*
X12569586Y16595328D01*
X12561302Y16591929D01*
X12560447Y16591963D01*
X11983806Y16636172D01*
X11975819Y16640221D01*
X11973000Y16647838D01*
X11973000Y17134163D01*
X11976427Y17142436D01*
X11983804Y17145829D01*
X12560447Y17190038D01*
X12568958Y17187253D01*
G37*
%TD.AperFunction*%
%TD*%
%TA.AperFunction,Conductor*%
%TO.N,/GPIO3\u005CI2C_SCK*%
G36*
X2484507Y17809223D02*
G01*
X2487325Y17807146D01*
X2567145Y17727326D01*
X2570572Y17719053D01*
X2570048Y17715592D01*
X2095121Y16182041D01*
X2089400Y16175152D01*
X2080484Y16174326D01*
X2079479Y16174688D01*
X1273785Y16507438D01*
X1267447Y16513762D01*
X934687Y17319482D01*
X934696Y17328435D01*
X941035Y17334760D01*
X942029Y17335119D01*
X2475591Y17810049D01*
X2484507Y17809223D01*
G37*
%TD.AperFunction*%
%TD*%
%TA.AperFunction,Conductor*%
%TO.N,/GPIO9\u005CUSER_BUT*%
G36*
X20191514Y26561446D02*
G01*
X20191718Y26561358D01*
X20659015Y26355576D01*
X20665206Y26349105D01*
X20666000Y26344868D01*
X20666000Y26233133D01*
X20662573Y26224860D01*
X20659015Y26222425D01*
X20191718Y26016643D01*
X20182766Y26016445D01*
X20176295Y26022636D01*
X20176207Y26022840D01*
X20092816Y26222425D01*
X20066883Y26284491D01*
X20066857Y26293444D01*
X20066862Y26293458D01*
X20176208Y26555163D01*
X20182559Y26561473D01*
X20191514Y26561446D01*
G37*
%TD.AperFunction*%
%TD*%
%TA.AperFunction,Conductor*%
%TO.N,/GPIO9\u005CUSER_BUT*%
G36*
X22231397Y25995571D02*
G01*
X22675095Y25806041D01*
X22681357Y25799640D01*
X22681759Y25792103D01*
X22608255Y25531777D01*
X22602709Y25524746D01*
X22601436Y25524131D01*
X22366409Y25427717D01*
X22357454Y25427748D01*
X22351326Y25433681D01*
X22137697Y25901487D01*
X22137378Y25910436D01*
X22140065Y25914618D01*
X22218532Y25993085D01*
X22226804Y25996511D01*
X22231397Y25995571D01*
G37*
%TD.AperFunction*%
%TD*%
%TA.AperFunction,Conductor*%
%TO.N,/USB_DN*%
G36*
X15166628Y9489002D02*
G01*
X15473349Y9299391D01*
X15478584Y9292127D01*
X15478012Y9284976D01*
X15368860Y9020507D01*
X15362536Y9014167D01*
X15362489Y9014148D01*
X15102720Y8907486D01*
X15093765Y8907513D01*
X15087453Y8913865D01*
X15086850Y8915794D01*
X14963721Y9476541D01*
X14965294Y9485355D01*
X14972640Y9490477D01*
X14975149Y9490749D01*
X15160477Y9490749D01*
X15166628Y9489002D01*
G37*
%TD.AperFunction*%
%TD*%
%TA.AperFunction,Conductor*%
%TO.N,/USB_DP*%
G36*
X14751124Y9487322D02*
G01*
X14754551Y9479049D01*
X14754279Y9476540D01*
X14631151Y8915800D01*
X14626029Y8908454D01*
X14617214Y8906881D01*
X14615279Y8907486D01*
X14355510Y9014148D01*
X14349160Y9020458D01*
X14239987Y9284977D01*
X14239998Y9293931D01*
X14244647Y9299390D01*
X14551371Y9489002D01*
X14557523Y9490749D01*
X14742851Y9490749D01*
X14751124Y9487322D01*
G37*
%TD.AperFunction*%
%TD*%
M02*
