%TF.GenerationSoftware,KiCad,Pcbnew,7.0.9-7.0.9~ubuntu22.04.1*%
%TF.CreationDate,2026-01-09T16:00:10+02:00*%
%TF.ProjectId,ESP32-C3-DevKit-Lipo_Rev_C,45535033-322d-4433-932d-4465764b6974,C*%
%TF.SameCoordinates,PX7b89fa0PY6e37550*%
%TF.FileFunction,Soldermask,Bot*%
%TF.FilePolarity,Negative*%
%FSLAX46Y46*%
G04 Gerber Fmt 4.6, Leading zero omitted, Abs format (unit mm)*
G04 Created by KiCad (PCBNEW 7.0.9-7.0.9~ubuntu22.04.1) date 2026-01-09 16:00:10*
%MOMM*%
%LPD*%
G01*
G04 APERTURE LIST*
G04 Aperture macros list*
%AMRoundRect*
0 Rectangle with rounded corners*
0 $1 Rounding radius*
0 $2 $3 $4 $5 $6 $7 $8 $9 X,Y pos of 4 corners*
0 Add a 4 corners polygon primitive as box body*
4,1,4,$2,$3,$4,$5,$6,$7,$8,$9,$2,$3,0*
0 Add four circle primitives for the rounded corners*
1,1,$1+$1,$2,$3*
1,1,$1+$1,$4,$5*
1,1,$1+$1,$6,$7*
1,1,$1+$1,$8,$9*
0 Add four rect primitives between the rounded corners*
20,1,$1+$1,$2,$3,$4,$5,0*
20,1,$1+$1,$4,$5,$6,$7,0*
20,1,$1+$1,$6,$7,$8,$9,0*
20,1,$1+$1,$8,$9,$2,$3,0*%
G04 Aperture macros list end*
%ADD10C,0.701600*%
%ADD11O,1.301600X2.301600*%
%ADD12O,1.401600X2.101600*%
%ADD13RoundRect,0.050800X0.700000X0.700000X-0.700000X0.700000X-0.700000X-0.700000X0.700000X-0.700000X0*%
%ADD14C,1.501600*%
%ADD15C,3.401600*%
%ADD16RoundRect,0.050800X0.725000X-0.725000X0.725000X0.725000X-0.725000X0.725000X-0.725000X-0.725000X0*%
%ADD17C,1.301600*%
%ADD18RoundRect,0.050800X-0.254000X-0.381000X0.254000X-0.381000X0.254000X0.381000X-0.254000X0.381000X0*%
%ADD19RoundRect,0.050800X-0.275000X0.250000X-0.275000X-0.250000X0.275000X-0.250000X0.275000X0.250000X0*%
%ADD20RoundRect,0.050800X0.275000X-0.250000X0.275000X0.250000X-0.275000X0.250000X-0.275000X-0.250000X0*%
%ADD21RoundRect,0.050800X-0.250000X-0.275000X0.250000X-0.275000X0.250000X0.275000X-0.250000X0.275000X0*%
%ADD22RoundRect,0.050800X0.250000X0.275000X-0.250000X0.275000X-0.250000X-0.275000X0.250000X-0.275000X0*%
%ADD23RoundRect,0.050800X-1.500000X0.800000X-1.500000X-0.800000X1.500000X-0.800000X1.500000X0.800000X0*%
%ADD24C,3.000000*%
%ADD25RoundRect,0.050800X0.254000X0.381000X-0.254000X0.381000X-0.254000X-0.381000X0.254000X-0.381000X0*%
%ADD26RoundRect,0.050800X-0.500000X0.700000X-0.500000X-0.700000X0.500000X-0.700000X0.500000X0.700000X0*%
%ADD27RoundRect,0.050800X0.508000X0.508000X-0.508000X0.508000X-0.508000X-0.508000X0.508000X-0.508000X0*%
%ADD28RoundRect,0.050800X0.508000X-0.508000X0.508000X0.508000X-0.508000X0.508000X-0.508000X-0.508000X0*%
%ADD29RoundRect,0.050800X-0.889000X0.889000X-0.889000X-0.889000X0.889000X-0.889000X0.889000X0.889000X0*%
%ADD30C,1.879600*%
%ADD31RoundRect,0.050800X-0.275000X0.600000X-0.275000X-0.600000X0.275000X-0.600000X0.275000X0.600000X0*%
%ADD32RoundRect,0.050800X-0.508000X-0.508000X0.508000X-0.508000X0.508000X0.508000X-0.508000X0.508000X0*%
G04 APERTURE END LIST*
D10*
%TO.C,USB-C1*%
X17749000Y6086000D03*
X11969000Y6086000D03*
D11*
X19179000Y6586000D03*
X10539000Y6586000D03*
D12*
X19179000Y2406000D03*
X10539000Y2406000D03*
%TD*%
D13*
%TO.C,BAT1*%
X6845300Y10522680D03*
D14*
X4815840Y10520140D03*
%TD*%
D15*
%TO.C,MH1*%
X3810000Y3810000D03*
%TD*%
%TO.C,MH2*%
X24130000Y3810000D03*
%TD*%
%TO.C,MH3*%
X24130000Y34290000D03*
%TD*%
%TO.C,MH4*%
X3810000Y34290000D03*
%TD*%
D16*
%TO.C,U3*%
X13970000Y32258000D03*
%TD*%
D17*
%TO.C,UEXT1*%
X17780000Y19685000D03*
X10160000Y19685000D03*
%TD*%
D18*
%TO.C,BAT_PWR_E1*%
X19431000Y19304000D03*
X20193000Y19304000D03*
%TD*%
D19*
%TO.C,R6*%
X19177000Y20701000D03*
D20*
X19177000Y21717000D03*
%TD*%
D19*
%TO.C,R8*%
X21336000Y14351000D03*
D20*
X21336000Y15367000D03*
%TD*%
D21*
%TO.C,R10*%
X20066000Y3987800D03*
D22*
X19050000Y3987800D03*
%TD*%
D23*
%TO.C,L1*%
X12954000Y2229000D03*
X12954000Y4629000D03*
%TD*%
D20*
%TO.C,R1*%
X21082000Y9779000D03*
D19*
X21082000Y8763000D03*
%TD*%
D22*
%TO.C,R11*%
X19050000Y4927600D03*
D21*
X20066000Y4927600D03*
%TD*%
D19*
%TO.C,C3*%
X21209000Y20701000D03*
D20*
X21209000Y21717000D03*
%TD*%
D24*
%TO.C,FID4*%
X1270000Y1270000D03*
%TD*%
D25*
%TO.C,BAT_SENS_E1*%
X20193000Y23114000D03*
X19431000Y23114000D03*
%TD*%
D20*
%TO.C,R7*%
X20193000Y21717000D03*
D19*
X20193000Y20701000D03*
%TD*%
D22*
%TO.C,R9*%
X21336000Y16383000D03*
D21*
X22352000Y16383000D03*
%TD*%
D25*
%TO.C,PWR_SENS_E1*%
X20193000Y16256000D03*
X19431000Y16256000D03*
%TD*%
D22*
%TO.C,R5*%
X16002000Y12573000D03*
D21*
X17018000Y12573000D03*
%TD*%
D26*
%TO.C,FET1*%
X20888960Y11211560D03*
X18986500Y11211560D03*
X19941540Y13421360D03*
%TD*%
D27*
%TO.C,C2*%
X17526000Y7620000D03*
X15748000Y7620000D03*
%TD*%
D28*
%TO.C,C5*%
X12446000Y34544000D03*
X12446000Y36322000D03*
%TD*%
D19*
%TO.C,C6*%
X10668000Y34798000D03*
D20*
X10668000Y35814000D03*
%TD*%
D29*
%TO.C,EXT1*%
X1270000Y29210000D03*
D30*
X1270000Y26670000D03*
X1270000Y24130000D03*
X1270000Y21590000D03*
X1270000Y19050000D03*
X1270000Y16510000D03*
X1270000Y13970000D03*
X1270000Y11430000D03*
X1270000Y8890000D03*
%TD*%
D29*
%TO.C,EXT2*%
X26670000Y29210000D03*
D30*
X26670000Y26670000D03*
X26670000Y24130000D03*
X26670000Y21590000D03*
X26670000Y19050000D03*
X26670000Y16510000D03*
X26670000Y13970000D03*
X26670000Y11430000D03*
X26670000Y8890000D03*
%TD*%
D20*
%TO.C,R2*%
X17526000Y11049000D03*
D19*
X17526000Y10033000D03*
%TD*%
D20*
%TO.C,R4*%
X12319000Y10414000D03*
D19*
X12319000Y9398000D03*
%TD*%
D21*
%TO.C,R14*%
X10668000Y33274000D03*
D22*
X9652000Y33274000D03*
%TD*%
D31*
%TO.C,U2*%
X17714000Y2002000D03*
X16764000Y2002000D03*
X15814000Y2002000D03*
X15814000Y4602000D03*
X17714000Y4602000D03*
%TD*%
D19*
%TO.C,R3*%
X8763000Y11430000D03*
D20*
X8763000Y12446000D03*
%TD*%
D24*
%TO.C,FID5*%
X1270000Y36830000D03*
%TD*%
%TO.C,FID6*%
X26670000Y36830000D03*
%TD*%
D32*
%TO.C,C4*%
X12573000Y7620000D03*
X14351000Y7620000D03*
%TD*%
D22*
%TO.C,R16*%
X21590000Y25527000D03*
D21*
X22606000Y25527000D03*
%TD*%
D20*
%TO.C,R18*%
X15367000Y21590000D03*
D19*
X15367000Y20574000D03*
%TD*%
D22*
%TO.C,R17*%
X10922000Y16891000D03*
D21*
X11938000Y16891000D03*
%TD*%
M02*
