%TF.GenerationSoftware,KiCad,Pcbnew,7.0.9-7.0.9~ubuntu22.04.1*%
%TF.CreationDate,2026-01-09T16:00:10+02:00*%
%TF.ProjectId,ESP32-C3-DevKit-Lipo_Rev_C,45535033-322d-4433-932d-4465764b6974,C*%
%TF.SameCoordinates,PX7b89fa0PY6e37550*%
%TF.FileFunction,Soldermask,Top*%
%TF.FilePolarity,Negative*%
%FSLAX46Y46*%
G04 Gerber Fmt 4.6, Leading zero omitted, Abs format (unit mm)*
G04 Created by KiCad (PCBNEW 7.0.9-7.0.9~ubuntu22.04.1) date 2026-01-09 16:00:10*
%MOMM*%
%LPD*%
G01*
G04 APERTURE LIST*
G04 Aperture macros list*
%AMRoundRect*
0 Rectangle with rounded corners*
0 $1 Rounding radius*
0 $2 $3 $4 $5 $6 $7 $8 $9 X,Y pos of 4 corners*
0 Add a 4 corners polygon primitive as box body*
4,1,4,$2,$3,$4,$5,$6,$7,$8,$9,$2,$3,0*
0 Add four circle primitives for the rounded corners*
1,1,$1+$1,$2,$3*
1,1,$1+$1,$4,$5*
1,1,$1+$1,$6,$7*
1,1,$1+$1,$8,$9*
0 Add four rect primitives between the rounded corners*
20,1,$1+$1,$2,$3,$4,$5,0*
20,1,$1+$1,$4,$5,$6,$7,0*
20,1,$1+$1,$6,$7,$8,$9,0*
20,1,$1+$1,$8,$9,$2,$3,0*%
G04 Aperture macros list end*
%ADD10C,0.701600*%
%ADD11RoundRect,0.050800X-0.550000X-1.100000X0.550000X-1.100000X0.550000X1.100000X-0.550000X1.100000X0*%
%ADD12O,1.301600X2.301600*%
%ADD13RoundRect,0.050800X-0.550000X-1.000000X0.550000X-1.000000X0.550000X1.000000X-0.550000X1.000000X0*%
%ADD14O,1.401600X2.101600*%
%ADD15RoundRect,0.050800X-0.150000X-0.575000X0.150000X-0.575000X0.150000X0.575000X-0.150000X0.575000X0*%
%ADD16RoundRect,0.050800X-0.125000X-0.575000X0.125000X-0.575000X0.125000X0.575000X-0.125000X0.575000X0*%
%ADD17C,3.000000*%
%ADD18RoundRect,0.050800X0.508000X-0.508000X0.508000X0.508000X-0.508000X0.508000X-0.508000X-0.508000X0*%
%ADD19RoundRect,0.050800X0.250000X0.275000X-0.250000X0.275000X-0.250000X-0.275000X0.250000X-0.275000X0*%
%ADD20RoundRect,0.050800X-0.250000X-0.275000X0.250000X-0.275000X0.250000X0.275000X-0.250000X0.275000X0*%
%ADD21RoundRect,0.050800X0.500000X0.700000X-0.500000X0.700000X-0.500000X-0.700000X0.500000X-0.700000X0*%
%ADD22RoundRect,0.050800X0.700000X0.700000X-0.700000X0.700000X-0.700000X-0.700000X0.700000X-0.700000X0*%
%ADD23C,1.501600*%
%ADD24RoundRect,0.050800X-0.400000X-0.400000X0.400000X-0.400000X0.400000X0.400000X-0.400000X0.400000X0*%
%ADD25C,3.401600*%
%ADD26RoundRect,0.050800X0.400000X-0.200000X0.400000X0.200000X-0.400000X0.200000X-0.400000X-0.200000X0*%
%ADD27RoundRect,0.050800X-0.200000X-0.400000X0.200000X-0.400000X0.200000X0.400000X-0.200000X0.400000X0*%
%ADD28RoundRect,0.050800X0.725000X-0.725000X0.725000X0.725000X-0.725000X0.725000X-0.725000X-0.725000X0*%
%ADD29RoundRect,0.050800X-0.350000X-0.350000X0.350000X-0.350000X0.350000X0.350000X-0.350000X0.350000X0*%
%ADD30RoundRect,0.050800X-0.500000X-0.700000X0.500000X-0.700000X0.500000X0.700000X-0.500000X0.700000X0*%
%ADD31RoundRect,0.050800X-0.325000X0.525000X-0.325000X-0.525000X0.325000X-0.525000X0.325000X0.525000X0*%
%ADD32RoundRect,0.050800X0.600000X0.275000X-0.600000X0.275000X-0.600000X-0.275000X0.600000X-0.275000X0*%
%ADD33RoundRect,0.050800X0.508000X0.508000X-0.508000X0.508000X-0.508000X-0.508000X0.508000X-0.508000X0*%
%ADD34RoundRect,0.050800X0.500000X-2.125000X0.500000X2.125000X-0.500000X2.125000X-0.500000X-2.125000X0*%
%ADD35C,1.301600*%
%ADD36RoundRect,0.050800X-0.889000X0.889000X-0.889000X-0.889000X0.889000X-0.889000X0.889000X0.889000X0*%
%ADD37C,1.879600*%
G04 APERTURE END LIST*
D10*
%TO.C,USB-C1*%
X17749000Y6086000D03*
X11969000Y6086000D03*
D11*
X19786600Y6586000D03*
D12*
X19179000Y6586000D03*
X10539000Y6586000D03*
D11*
X9931400Y6586000D03*
D13*
X19786600Y2406000D03*
D14*
X19179000Y2406000D03*
X10539000Y2406000D03*
D13*
X9931400Y2406000D03*
D15*
X11534000Y7488000D03*
X12334000Y7488000D03*
D16*
X13609000Y7488000D03*
X14609000Y7488000D03*
X15109000Y7488000D03*
X16109000Y7488000D03*
D15*
X17384000Y7488000D03*
X18184000Y7488000D03*
X17934000Y7488000D03*
X17134000Y7488000D03*
D16*
X16609000Y7488000D03*
X15609000Y7488000D03*
X14109000Y7488000D03*
X13109000Y7488000D03*
D15*
X12584000Y7488000D03*
X11784000Y7488000D03*
%TD*%
D17*
%TO.C,FID1*%
X1270000Y1270000D03*
%TD*%
%TO.C,FID3*%
X26670000Y36830000D03*
%TD*%
D18*
%TO.C,C1*%
X16510000Y10922000D03*
X16510000Y12700000D03*
%TD*%
D19*
%TO.C,R12*%
X4064000Y30226000D03*
D20*
X5080000Y30226000D03*
%TD*%
D19*
%TO.C,R13*%
X23622000Y9525000D03*
D20*
X24638000Y9525000D03*
%TD*%
D21*
%TO.C,D2*%
X22220000Y12573000D03*
X18420000Y12573000D03*
%TD*%
D22*
%TO.C,BAT1*%
X6845300Y10522680D03*
D23*
X4815840Y10520140D03*
%TD*%
D19*
%TO.C,R15*%
X23622000Y10668000D03*
D20*
X24638000Y10668000D03*
%TD*%
D17*
%TO.C,FID2*%
X1270000Y36830000D03*
%TD*%
D24*
%TO.C,LED1*%
X24638000Y8001000D03*
X23114000Y8001000D03*
%TD*%
D25*
%TO.C,MH1*%
X3810000Y3810000D03*
%TD*%
%TO.C,MH2*%
X24130000Y3810000D03*
%TD*%
%TO.C,MH3*%
X24130000Y34290000D03*
%TD*%
%TO.C,MH4*%
X3810000Y34290000D03*
%TD*%
D26*
%TO.C,U3*%
X8070000Y36258000D03*
X8070000Y35458000D03*
X8070000Y34658000D03*
X8070000Y33858000D03*
X8070000Y33058000D03*
X8070000Y32258000D03*
X8070000Y31458000D03*
X8070000Y30658000D03*
X8070000Y29858000D03*
X8070000Y29058000D03*
X8070000Y28258000D03*
D27*
X9170000Y27358000D03*
X9970000Y27358000D03*
X10770000Y27358000D03*
X11570000Y27358000D03*
X12370000Y27358000D03*
X13170000Y27358000D03*
X13970000Y27358000D03*
X14770000Y27358000D03*
X15570000Y27358000D03*
X16370000Y27358000D03*
X17170000Y27358000D03*
X17970000Y27358000D03*
X18770000Y27358000D03*
D26*
X19870000Y28258000D03*
X19870000Y29058000D03*
X19870000Y29858000D03*
X19870000Y30658000D03*
X19870000Y31458000D03*
X19870000Y32258000D03*
X19870000Y33058000D03*
X19870000Y33858000D03*
X19870000Y34658000D03*
X19870000Y35458000D03*
X19870000Y36258000D03*
D27*
X18770000Y37158000D03*
X17970000Y37158000D03*
X17170000Y37158000D03*
X16370000Y37158000D03*
X15570000Y37158000D03*
X14770000Y37158000D03*
X13970000Y37158000D03*
X13170000Y37158000D03*
X12370000Y37158000D03*
X11570000Y37158000D03*
X10770000Y37158000D03*
X9970000Y37158000D03*
X9170000Y37158000D03*
D28*
X11995000Y34233000D03*
X11995000Y32258000D03*
X11995000Y30283000D03*
X13970000Y34233000D03*
X13970000Y32258000D03*
X13970000Y30283000D03*
X15945000Y34233000D03*
X15945000Y32258000D03*
X15945000Y30283000D03*
D29*
X19920000Y37208000D03*
X19920000Y27308000D03*
X8020000Y27308000D03*
X8020000Y37208000D03*
%TD*%
D30*
%TO.C,D1*%
X18420000Y10287000D03*
X22220000Y10287000D03*
%TD*%
D24*
%TO.C,CHARGING1*%
X3302000Y8001000D03*
X4826000Y8001000D03*
%TD*%
D31*
%TO.C,BUT1*%
X24062000Y29888000D03*
X24062000Y25738000D03*
X21912000Y29888000D03*
X21912000Y25738000D03*
%TD*%
D32*
%TO.C,U1*%
X11527000Y12634000D03*
X11527000Y11684000D03*
X11527000Y10734000D03*
X14127000Y10734000D03*
X14127000Y12634000D03*
%TD*%
D33*
%TO.C,C7*%
X5207000Y28702000D03*
X3429000Y28702000D03*
%TD*%
D34*
%TO.C,UEXT1*%
X19050000Y22810000D03*
X19050000Y16560000D03*
X16510000Y22810000D03*
X16510000Y16560000D03*
X13970000Y22810000D03*
X13970000Y16560000D03*
X11430000Y22810000D03*
X11430000Y16560000D03*
X8890000Y22810000D03*
X8890000Y16560000D03*
D35*
X17780000Y19685000D03*
X10160000Y19685000D03*
%TD*%
D36*
%TO.C,EXT1*%
X1270000Y29210000D03*
D37*
X1270000Y26670000D03*
X1270000Y24130000D03*
X1270000Y21590000D03*
X1270000Y19050000D03*
X1270000Y16510000D03*
X1270000Y13970000D03*
X1270000Y11430000D03*
X1270000Y8890000D03*
%TD*%
D36*
%TO.C,EXT2*%
X26670000Y29210000D03*
D37*
X26670000Y26670000D03*
X26670000Y24130000D03*
X26670000Y21590000D03*
X26670000Y19050000D03*
X26670000Y16510000D03*
X26670000Y13970000D03*
X26670000Y11430000D03*
X26670000Y8890000D03*
%TD*%
M02*
