%TF.GenerationSoftware,KiCad,Pcbnew,7.0.9-7.0.9~ubuntu22.04.1*%
%TF.CreationDate,2026-01-09T16:00:09+02:00*%
%TF.ProjectId,ESP32-C3-DevKit-Lipo_Rev_C,45535033-322d-4433-932d-4465764b6974,C*%
%TF.SameCoordinates,PX7b89fa0PY6e37550*%
%TF.FileFunction,Paste,Top*%
%TF.FilePolarity,Positive*%
%FSLAX46Y46*%
G04 Gerber Fmt 4.6, Leading zero omitted, Abs format (unit mm)*
G04 Created by KiCad (PCBNEW 7.0.9-7.0.9~ubuntu22.04.1) date 2026-01-09 16:00:09*
%MOMM*%
%LPD*%
G01*
G04 APERTURE LIST*
G04 Aperture macros list*
%AMOutline4P*
0 Free polygon, 4 corners , with rotation*
0 The origin of the aperture is its center*
0 number of corners: always 4*
0 $1 to $8 corner X, Y*
0 $9 Rotation angle, in degrees counterclockwise*
0 create outline with 4 corners*
4,1,4,$1,$2,$3,$4,$5,$6,$7,$8,$1,$2,$9*%
G04 Aperture macros list end*
%ADD10R,0.280000X1.130000*%
%ADD11R,0.230000X1.130000*%
%ADD12R,1.016000X1.016000*%
%ADD13R,0.500000X0.550000*%
%ADD14R,1.000000X1.400000*%
%ADD15C,1.000000*%
%ADD16R,0.800000X0.800000*%
%ADD17R,0.800000X0.400000*%
%ADD18R,0.400000X0.800000*%
%ADD19R,1.450000X1.450000*%
%ADD20R,0.700000X0.700000*%
%ADD21R,1.200000X0.550000*%
%ADD22Outline4P,-0.850000X-2.275000X0.850000X-2.275000X0.850000X2.275000X-0.850000X2.275000X0.000000*%
G04 APERTURE END LIST*
D10*
%TO.C,USB-C1*%
X11534000Y7488000D03*
X12334000Y7488000D03*
D11*
X13609000Y7488000D03*
X14609000Y7488000D03*
X15109000Y7488000D03*
X16109000Y7488000D03*
D10*
X17384000Y7488000D03*
X18184000Y7488000D03*
X17934000Y7488000D03*
X17134000Y7488000D03*
D11*
X16609000Y7488000D03*
X15609000Y7488000D03*
X14109000Y7488000D03*
X13109000Y7488000D03*
D10*
X12584000Y7488000D03*
X11784000Y7488000D03*
%TD*%
D12*
%TO.C,C1*%
X16510000Y10922000D03*
X16510000Y12700000D03*
%TD*%
D13*
%TO.C,R12*%
X4064000Y30226000D03*
X5080000Y30226000D03*
%TD*%
%TO.C,R13*%
X23622000Y9525000D03*
X24638000Y9525000D03*
%TD*%
D14*
%TO.C,D2*%
X22220000Y12573000D03*
X18420000Y12573000D03*
%TD*%
D13*
%TO.C,R15*%
X23622000Y10668000D03*
X24638000Y10668000D03*
%TD*%
D15*
%TO.C,FID2*%
X1270000Y36830000D03*
%TD*%
D16*
%TO.C,LED1*%
X24638000Y8001000D03*
X23114000Y8001000D03*
%TD*%
D17*
%TO.C,U3*%
X8070000Y36258000D03*
X8070000Y35458000D03*
X8070000Y34658000D03*
X8070000Y33858000D03*
X8070000Y33058000D03*
X8070000Y32258000D03*
X8070000Y31458000D03*
X8070000Y30658000D03*
X8070000Y29858000D03*
X8070000Y29058000D03*
X8070000Y28258000D03*
D18*
X9170000Y27358000D03*
X9970000Y27358000D03*
X10770000Y27358000D03*
X11570000Y27358000D03*
X12370000Y27358000D03*
X13170000Y27358000D03*
X13970000Y27358000D03*
X14770000Y27358000D03*
X15570000Y27358000D03*
X16370000Y27358000D03*
X17170000Y27358000D03*
X17970000Y27358000D03*
X18770000Y27358000D03*
D17*
X19870000Y28258000D03*
X19870000Y29058000D03*
X19870000Y29858000D03*
X19870000Y30658000D03*
X19870000Y31458000D03*
X19870000Y32258000D03*
X19870000Y33058000D03*
X19870000Y33858000D03*
X19870000Y34658000D03*
X19870000Y35458000D03*
X19870000Y36258000D03*
D18*
X18770000Y37158000D03*
X17970000Y37158000D03*
X17170000Y37158000D03*
X16370000Y37158000D03*
X15570000Y37158000D03*
X14770000Y37158000D03*
X13970000Y37158000D03*
X13170000Y37158000D03*
X12370000Y37158000D03*
X11570000Y37158000D03*
X10770000Y37158000D03*
X9970000Y37158000D03*
X9170000Y37158000D03*
D19*
X11995000Y34233000D03*
X11995000Y32258000D03*
X11995000Y30283000D03*
X13970000Y34233000D03*
X13970000Y32258000D03*
X13970000Y30283000D03*
X15945000Y34233000D03*
X15945000Y32258000D03*
X15945000Y30283000D03*
D20*
X19920000Y37208000D03*
X19920000Y27308000D03*
X8020000Y27308000D03*
X8020000Y37208000D03*
%TD*%
D14*
%TO.C,D1*%
X18420000Y10287000D03*
X22220000Y10287000D03*
%TD*%
D16*
%TO.C,CHARGING1*%
X3302000Y8001000D03*
X4826000Y8001000D03*
%TD*%
D14*
%TO.C,BUT1*%
X24062000Y29888000D03*
X21912000Y29888000D03*
X24062000Y25738000D03*
X21912000Y25738000D03*
%TD*%
D21*
%TO.C,U1*%
X11527000Y12634000D03*
X11527000Y11684000D03*
X11527000Y10734000D03*
X14127000Y10734000D03*
X14127000Y12634000D03*
%TD*%
D12*
%TO.C,C7*%
X5207000Y28702000D03*
X3429000Y28702000D03*
%TD*%
D22*
%TO.C,UEXT1*%
X19050000Y16560000D03*
X19050000Y22810000D03*
X16510000Y16560000D03*
X16510000Y22810000D03*
X13970000Y16560000D03*
X13970000Y22810000D03*
X11430000Y16560000D03*
X11430000Y22810000D03*
X8890000Y16560000D03*
X8890000Y22810000D03*
%TD*%
M02*
