%TF.GenerationSoftware,KiCad,Pcbnew,7.0.9-7.0.9~ubuntu22.04.1*%
%TF.CreationDate,2026-01-09T16:00:10+02:00*%
%TF.ProjectId,ESP32-C3-DevKit-Lipo_Rev_C,45535033-322d-4433-932d-4465764b6974,C*%
%TF.SameCoordinates,PX7b89fa0PY6e37550*%
%TF.FileFunction,Paste,Bot*%
%TF.FilePolarity,Positive*%
%FSLAX46Y46*%
G04 Gerber Fmt 4.6, Leading zero omitted, Abs format (unit mm)*
G04 Created by KiCad (PCBNEW 7.0.9-7.0.9~ubuntu22.04.1) date 2026-01-09 16:00:10*
%MOMM*%
%LPD*%
G01*
G04 APERTURE LIST*
%ADD10R,0.550000X0.500000*%
%ADD11R,0.500000X0.550000*%
%ADD12R,3.000000X1.600000*%
%ADD13R,1.000000X1.400000*%
%ADD14R,1.016000X1.016000*%
%ADD15R,0.550000X1.200000*%
%ADD16C,1.000000*%
G04 APERTURE END LIST*
D10*
%TO.C,R6*%
X19177000Y20701000D03*
X19177000Y21717000D03*
%TD*%
%TO.C,R8*%
X21336000Y14351000D03*
X21336000Y15367000D03*
%TD*%
D11*
%TO.C,R10*%
X20066000Y3987800D03*
X19050000Y3987800D03*
%TD*%
D12*
%TO.C,L1*%
X12954000Y2229000D03*
X12954000Y4629000D03*
%TD*%
D10*
%TO.C,R1*%
X21082000Y9779000D03*
X21082000Y8763000D03*
%TD*%
D11*
%TO.C,R11*%
X19050000Y4927600D03*
X20066000Y4927600D03*
%TD*%
D10*
%TO.C,C3*%
X21209000Y20701000D03*
X21209000Y21717000D03*
%TD*%
%TO.C,R7*%
X20193000Y21717000D03*
X20193000Y20701000D03*
%TD*%
D11*
%TO.C,R9*%
X21336000Y16383000D03*
X22352000Y16383000D03*
%TD*%
%TO.C,R5*%
X16002000Y12573000D03*
X17018000Y12573000D03*
%TD*%
D13*
%TO.C,FET1*%
X20888960Y11211560D03*
X18986500Y11211560D03*
X19941540Y13421360D03*
%TD*%
D14*
%TO.C,C2*%
X17526000Y7620000D03*
X15748000Y7620000D03*
%TD*%
%TO.C,C5*%
X12446000Y34544000D03*
X12446000Y36322000D03*
%TD*%
D10*
%TO.C,C6*%
X10668000Y34798000D03*
X10668000Y35814000D03*
%TD*%
%TO.C,R2*%
X17526000Y11049000D03*
X17526000Y10033000D03*
%TD*%
%TO.C,R4*%
X12319000Y10414000D03*
X12319000Y9398000D03*
%TD*%
D11*
%TO.C,R14*%
X10668000Y33274000D03*
X9652000Y33274000D03*
%TD*%
D15*
%TO.C,U2*%
X17714000Y2002000D03*
X16764000Y2002000D03*
X15814000Y2002000D03*
X15814000Y4602000D03*
X17714000Y4602000D03*
%TD*%
D10*
%TO.C,R3*%
X8763000Y11430000D03*
X8763000Y12446000D03*
%TD*%
D16*
%TO.C,FID5*%
X1270000Y36830000D03*
%TD*%
D14*
%TO.C,C4*%
X12573000Y7620000D03*
X14351000Y7620000D03*
%TD*%
D11*
%TO.C,R16*%
X21590000Y25527000D03*
X22606000Y25527000D03*
%TD*%
D10*
%TO.C,R18*%
X15367000Y21590000D03*
X15367000Y20574000D03*
%TD*%
D11*
%TO.C,R17*%
X10922000Y16891000D03*
X11938000Y16891000D03*
%TD*%
M02*
