%TF.GenerationSoftware,KiCad,Pcbnew,7.0.9-7.0.9~ubuntu22.04.1*%
%TF.CreationDate,2026-01-09T16:00:09+02:00*%
%TF.ProjectId,ESP32-C3-DevKit-Lipo_Rev_C,45535033-322d-4433-932d-4465764b6974,C*%
%TF.SameCoordinates,PX7b89fa0PY6e37550*%
%TF.FileFunction,Copper,L1,Top*%
%TF.FilePolarity,Positive*%
%FSLAX46Y46*%
G04 Gerber Fmt 4.6, Leading zero omitted, Abs format (unit mm)*
G04 Created by KiCad (PCBNEW 7.0.9-7.0.9~ubuntu22.04.1) date 2026-01-09 16:00:09*
%MOMM*%
%LPD*%
G01*
G04 APERTURE LIST*
%TA.AperFunction,ConnectorPad*%
%ADD10R,1.100000X2.200000*%
%TD*%
%TA.AperFunction,ComponentPad*%
%ADD11O,1.200000X2.200000*%
%TD*%
%TA.AperFunction,ConnectorPad*%
%ADD12R,1.100000X2.000000*%
%TD*%
%TA.AperFunction,ComponentPad*%
%ADD13O,1.300000X2.000000*%
%TD*%
%TA.AperFunction,SMDPad,CuDef*%
%ADD14R,0.300000X1.150000*%
%TD*%
%TA.AperFunction,SMDPad,CuDef*%
%ADD15R,0.250000X1.150000*%
%TD*%
%TA.AperFunction,FiducialPad,Global*%
%ADD16C,1.000000*%
%TD*%
%TA.AperFunction,SMDPad,CuDef*%
%ADD17R,1.016000X1.016000*%
%TD*%
%TA.AperFunction,SMDPad,CuDef*%
%ADD18R,0.500000X0.550000*%
%TD*%
%TA.AperFunction,SMDPad,CuDef*%
%ADD19R,1.000000X1.400000*%
%TD*%
%TA.AperFunction,ComponentPad*%
%ADD20R,1.400000X1.400000*%
%TD*%
%TA.AperFunction,ComponentPad*%
%ADD21C,1.400000*%
%TD*%
%TA.AperFunction,SMDPad,CuDef*%
%ADD22R,0.800000X0.800000*%
%TD*%
%TA.AperFunction,SMDPad,CuDef*%
%ADD23R,0.800000X0.400000*%
%TD*%
%TA.AperFunction,SMDPad,CuDef*%
%ADD24R,0.400000X0.800000*%
%TD*%
%TA.AperFunction,SMDPad,CuDef*%
%ADD25R,1.450000X1.450000*%
%TD*%
%TA.AperFunction,ComponentPad*%
%ADD26R,1.450000X1.450000*%
%TD*%
%TA.AperFunction,SMDPad,CuDef*%
%ADD27R,0.700000X0.700000*%
%TD*%
%TA.AperFunction,SMDPad,CuDef*%
%ADD28R,0.650000X1.050000*%
%TD*%
%TA.AperFunction,SMDPad,CuDef*%
%ADD29R,1.200000X0.550000*%
%TD*%
%TA.AperFunction,SMDPad,CuDef*%
%ADD30R,1.000000X4.250000*%
%TD*%
%TA.AperFunction,ComponentPad*%
%ADD31R,1.778000X1.778000*%
%TD*%
%TA.AperFunction,ComponentPad*%
%ADD32C,1.778000*%
%TD*%
%TA.AperFunction,ViaPad*%
%ADD33C,1.000000*%
%TD*%
%TA.AperFunction,ViaPad*%
%ADD34C,0.600000*%
%TD*%
%TA.AperFunction,ViaPad*%
%ADD35C,0.700000*%
%TD*%
%TA.AperFunction,Conductor*%
%ADD36C,1.016000*%
%TD*%
%TA.AperFunction,Conductor*%
%ADD37C,0.406400*%
%TD*%
%TA.AperFunction,Conductor*%
%ADD38C,0.127000*%
%TD*%
%TA.AperFunction,Conductor*%
%ADD39C,0.508000*%
%TD*%
%TA.AperFunction,Conductor*%
%ADD40C,0.254000*%
%TD*%
%TA.AperFunction,Conductor*%
%ADD41C,0.762000*%
%TD*%
%TA.AperFunction,Conductor*%
%ADD42C,0.304800*%
%TD*%
%TA.AperFunction,Conductor*%
%ADD43C,0.203200*%
%TD*%
G04 APERTURE END LIST*
D10*
%TO.P,USB-C1,0,SHELL*%
%TO.N,GND*%
X19786600Y6586000D03*
D11*
X19179000Y6586000D03*
X10539000Y6586000D03*
D10*
X9931400Y6586000D03*
D12*
X19786600Y2406000D03*
D13*
X19179000Y2406000D03*
X10539000Y2406000D03*
D12*
X9931400Y2406000D03*
D14*
%TO.P,USB-C1,A1,GND*%
X11534000Y7488000D03*
%TO.P,USB-C1,A4,VBUS*%
%TO.N,+5V_USB*%
X12334000Y7488000D03*
D15*
%TO.P,USB-C1,A5,CC1*%
%TO.N,/CC1*%
X13609000Y7488000D03*
%TO.P,USB-C1,A6,DP1*%
%TO.N,/USB_DP*%
X14609000Y7488000D03*
%TO.P,USB-C1,A7,DN1*%
%TO.N,/USB_DN*%
X15109000Y7488000D03*
%TO.P,USB-C1,A8,SBU1*%
%TO.N,unconnected-(USB-C1-SBU1-PadA8)*%
X16109000Y7488000D03*
D14*
%TO.P,USB-C1,A9,VBUS*%
%TO.N,+5V_USB*%
X17384000Y7488000D03*
%TO.P,USB-C1,A12,GND*%
%TO.N,GND*%
X18184000Y7488000D03*
%TO.P,USB-C1,B1,GND*%
X17934000Y7488000D03*
%TO.P,USB-C1,B4,VBUS*%
%TO.N,+5V_USB*%
X17134000Y7488000D03*
D15*
%TO.P,USB-C1,B5,CC2*%
%TO.N,/CC2*%
X16609000Y7488000D03*
%TO.P,USB-C1,B6,DP2*%
%TO.N,/USB_DP*%
X15609000Y7488000D03*
%TO.P,USB-C1,B7,DN2*%
%TO.N,/USB_DN*%
X14109000Y7488000D03*
%TO.P,USB-C1,B8,SBU2*%
%TO.N,unconnected-(USB-C1-SBU2-PadB8)*%
X13109000Y7488000D03*
D14*
%TO.P,USB-C1,B9,VBUS*%
%TO.N,+5V_USB*%
X12584000Y7488000D03*
%TO.P,USB-C1,B12,GND*%
%TO.N,GND*%
X11784000Y7488000D03*
%TD*%
D16*
%TO.P,FID1,Fid1,FID\u002A*%
%TO.N,unconnected-(FID1-FID\u002A-PadFid1)*%
X1270000Y1270000D03*
%TD*%
%TO.P,FID3,Fid1,FID\u002A*%
%TO.N,unconnected-(FID3-FID\u002A-PadFid1)*%
X26670000Y36830000D03*
%TD*%
D17*
%TO.P,C1,1*%
%TO.N,+5V*%
X16510000Y10922000D03*
%TO.P,C1,2*%
%TO.N,GND*%
X16510000Y12700000D03*
%TD*%
D18*
%TO.P,R12,2*%
%TO.N,/ESP_EN*%
X4064000Y30226000D03*
%TO.P,R12,1*%
%TO.N,+3.3V*%
X5080000Y30226000D03*
%TD*%
%TO.P,R13,1*%
%TO.N,+3.3V*%
X23622000Y9525000D03*
%TO.P,R13,2*%
%TO.N,Net-(LED1-A)*%
X24638000Y9525000D03*
%TD*%
D19*
%TO.P,D2,1,K*%
%TO.N,Net-(D2-K)*%
X22220000Y12573000D03*
%TO.P,D2,2,A*%
%TO.N,+5V*%
X18420000Y12573000D03*
%TD*%
D20*
%TO.P,BAT1,1*%
%TO.N,VBAT*%
X6845300Y10522680D03*
D21*
%TO.P,BAT1,2*%
%TO.N,GND*%
X4815840Y10520140D03*
%TD*%
D18*
%TO.P,R15,1*%
%TO.N,+3.3V*%
X23622000Y10668000D03*
%TO.P,R15,2*%
%TO.N,/GPIO8\u005CUSER_LED*%
X24638000Y10668000D03*
%TD*%
D16*
%TO.P,FID2,Fid1,FID\u002A*%
%TO.N,unconnected-(FID2-FID\u002A-PadFid1)*%
X1270000Y36830000D03*
%TD*%
D22*
%TO.P,LED1,1,K*%
%TO.N,/GPIO8\u005CUSER_LED*%
X24638000Y8001000D03*
%TO.P,LED1,2,A*%
%TO.N,Net-(LED1-A)*%
X23114000Y8001000D03*
%TD*%
D23*
%TO.P,U3,1,GND*%
%TO.N,GND*%
X8070000Y36258000D03*
%TO.P,U3,2,GND*%
X8070000Y35458000D03*
%TO.P,U3,3,3V3*%
%TO.N,+3.3V*%
X8070000Y34658000D03*
%TO.P,U3,4,NC*%
%TO.N,unconnected-(U3-NC-Pad4)*%
X8070000Y33858000D03*
%TO.P,U3,5,IO2/GPIO2/ADC1_CH2/FSPIQ*%
%TO.N,/GPIO2\u005CFSPIQ*%
X8070000Y33058000D03*
%TO.P,U3,6,IO3/GPIO3/ADC1_CH3*%
%TO.N,/GPIO3\u005CI2C_SCK*%
X8070000Y32258000D03*
%TO.P,U3,7,NC*%
%TO.N,unconnected-(U3-NC-Pad7)*%
X8070000Y31458000D03*
%TO.P,U3,8,EN*%
%TO.N,/ESP_EN*%
X8070000Y30658000D03*
%TO.P,U3,9,NC*%
%TO.N,unconnected-(U3-NC-Pad9)*%
X8070000Y29858000D03*
%TO.P,U3,10,NC*%
%TO.N,unconnected-(U3-NC-Pad10)*%
X8070000Y29058000D03*
%TO.P,U3,11,GND*%
%TO.N,GND*%
X8070000Y28258000D03*
D24*
%TO.P,U3,12,IO0/GPIO0/ADC1_CH0/XTAL_32K_P*%
%TO.N,/GPIO0*%
X9170000Y27358000D03*
%TO.P,U3,13,IO1/GPIO1/ADC1_CH1/XTAL_32K_N*%
%TO.N,/GPIO1\u005CEXT_PWR_SENSE*%
X9970000Y27358000D03*
%TO.P,U3,14,GND*%
%TO.N,GND*%
X10770000Y27358000D03*
%TO.P,U3,15,NC*%
%TO.N,unconnected-(U3-NC-Pad15)*%
X11570000Y27358000D03*
%TO.P,U3,16,IO10/GPIO10/FSPICS0*%
%TO.N,/GPIO10\u005CFSPICS0*%
X12370000Y27358000D03*
%TO.P,U3,17,NC*%
%TO.N,unconnected-(U3-NC-Pad17)*%
X13170000Y27358000D03*
%TO.P,U3,18,IO4/GPIO4/ADC1_CH4/FSPIHD/MTMS*%
%TO.N,/GPIO4\u005CFSPIHD*%
X13970000Y27358000D03*
%TO.P,U3,19,IO5/GPIO5/ADC2_CH0/FSPIWP/MTDI*%
%TO.N,/GPIO5\u005CBAT_MEASURE*%
X14770000Y27358000D03*
%TO.P,U3,20,IO6/GPIO6/FSPICLK/MTCK*%
%TO.N,/GPIO6\u005CFSPICLK*%
X15570000Y27358000D03*
%TO.P,U3,21,IO7/GPIO7/FSPID/MTDO*%
%TO.N,/GPIO7\u005CI2C_SDA*%
X16370000Y27358000D03*
%TO.P,U3,22,IO8/GPIO8*%
%TO.N,/GPIO8\u005CUSER_LED*%
X17170000Y27358000D03*
%TO.P,U3,23,IO9/GPIO9*%
%TO.N,/GPIO9\u005CUSER_BUT*%
X17970000Y27358000D03*
%TO.P,U3,24,NC*%
%TO.N,unconnected-(U3-NC-Pad24)*%
X18770000Y27358000D03*
D23*
%TO.P,U3,25,NC*%
%TO.N,unconnected-(U3-NC-Pad25)*%
X19870000Y28258000D03*
%TO.P,U3,26,IO18/GPIO18/USB_D-*%
%TO.N,/USB_DN*%
X19870000Y29058000D03*
%TO.P,U3,27,IO19/GPIO19/USB_D+*%
%TO.N,/USB_DP*%
X19870000Y29858000D03*
%TO.P,U3,28,NC*%
%TO.N,unconnected-(U3-NC-Pad28)*%
X19870000Y30658000D03*
%TO.P,U3,29,NC*%
%TO.N,unconnected-(U3-NC-Pad29)*%
X19870000Y31458000D03*
%TO.P,U3,30,RXD0/GPIO20/U0RXD*%
%TO.N,/GPIO20\u005CU0RXD*%
X19870000Y32258000D03*
%TO.P,U3,31,TXD0/GPIO21/U0TXD*%
%TO.N,/GPIO21\u005CU0TXD*%
X19870000Y33058000D03*
%TO.P,U3,32,NC*%
%TO.N,unconnected-(U3-NC-Pad32)*%
X19870000Y33858000D03*
%TO.P,U3,33,NC*%
%TO.N,unconnected-(U3-NC-Pad33)*%
X19870000Y34658000D03*
%TO.P,U3,34,NC*%
%TO.N,unconnected-(U3-NC-Pad34)*%
X19870000Y35458000D03*
%TO.P,U3,35,NC*%
%TO.N,unconnected-(U3-NC-Pad35)*%
X19870000Y36258000D03*
D24*
%TO.P,U3,36,GND*%
%TO.N,GND*%
X18770000Y37158000D03*
%TO.P,U3,37,GND*%
X17970000Y37158000D03*
%TO.P,U3,38,GND*%
X17170000Y37158000D03*
%TO.P,U3,39,GND*%
X16370000Y37158000D03*
%TO.P,U3,40,GND*%
X15570000Y37158000D03*
%TO.P,U3,41,GND*%
X14770000Y37158000D03*
%TO.P,U3,42,GND*%
X13970000Y37158000D03*
%TO.P,U3,43,GND*%
X13170000Y37158000D03*
%TO.P,U3,44,GND*%
X12370000Y37158000D03*
%TO.P,U3,45,GND*%
X11570000Y37158000D03*
%TO.P,U3,46,GND*%
X10770000Y37158000D03*
%TO.P,U3,47,GND*%
X9970000Y37158000D03*
%TO.P,U3,48,GND*%
X9170000Y37158000D03*
D25*
%TO.P,U3,49,GND*%
X11995000Y34233000D03*
X11995000Y32258000D03*
X11995000Y30283000D03*
X13970000Y34233000D03*
D26*
X13970000Y32258000D03*
D25*
X13970000Y30283000D03*
X15945000Y34233000D03*
X15945000Y32258000D03*
X15945000Y30283000D03*
D27*
%TO.P,U3,50,GND*%
X19920000Y37208000D03*
%TO.P,U3,51,GND*%
X19920000Y27308000D03*
%TO.P,U3,52,GND*%
X8020000Y27308000D03*
%TO.P,U3,53,GND*%
X8020000Y37208000D03*
%TD*%
D19*
%TO.P,D1,1,K*%
%TO.N,+5V*%
X18420000Y10287000D03*
%TO.P,D1,2,A*%
%TO.N,+5V_USB*%
X22220000Y10287000D03*
%TD*%
D22*
%TO.P,CHARGING1,2,A*%
%TO.N,+5V*%
X3302000Y8001000D03*
%TO.P,CHARGING1,1,K*%
%TO.N,Net-(CHARGING1-K)*%
X4826000Y8001000D03*
%TD*%
D28*
%TO.P,BUT1,1*%
%TO.N,GND*%
X24062000Y29888000D03*
X24062000Y25738000D03*
%TO.P,BUT1,2*%
%TO.N,Net-(BUT1-Pad2)*%
X21912000Y29888000D03*
X21912000Y25738000D03*
%TD*%
D29*
%TO.P,U1,1,CHRGb*%
%TO.N,Net-(U1-CHRGb)*%
X11527000Y12634000D03*
%TO.P,U1,2,GND*%
%TO.N,GND*%
X11527000Y11684000D03*
%TO.P,U1,3,VBAT*%
%TO.N,VBAT*%
X11527000Y10734000D03*
%TO.P,U1,4,VCC*%
%TO.N,+5V*%
X14127000Y10734000D03*
%TO.P,U1,5,PROG*%
%TO.N,Net-(U1-PROG)*%
X14127000Y12634000D03*
%TD*%
D17*
%TO.P,C7,1*%
%TO.N,/ESP_EN*%
X5207000Y28702000D03*
%TO.P,C7,2*%
%TO.N,GND*%
X3429000Y28702000D03*
%TD*%
D30*
%TO.P,UEXT1,10,10*%
%TO.N,/GPIO10\u005CFSPICS0*%
X19050000Y22810000D03*
%TO.P,UEXT1,9,9*%
%TO.N,/GPIO6\u005CFSPICLK*%
X19050000Y16560000D03*
%TO.P,UEXT1,8,8*%
%TO.N,/GPIO4\u005CFSPIHD*%
X16510000Y22810000D03*
%TO.P,UEXT1,7,7*%
%TO.N,/GPIO2\u005CFSPIQ*%
X16510000Y16560000D03*
%TO.P,UEXT1,6,6*%
%TO.N,/GPIO7\u005CI2C_SDA*%
X13970000Y22810000D03*
%TO.P,UEXT1,5,5*%
%TO.N,/GPIO3\u005CI2C_SCK*%
X13970000Y16560000D03*
%TO.P,UEXT1,4,4*%
%TO.N,/GPIO20\u005CU0RXD*%
X11430000Y22810000D03*
%TO.P,UEXT1,3,3*%
%TO.N,/GPIO21\u005CU0TXD*%
X11430000Y16560000D03*
%TO.P,UEXT1,2,2*%
%TO.N,GND*%
X8890000Y22810000D03*
%TO.P,UEXT1,1,1*%
%TO.N,+3.3V*%
X8890000Y16560000D03*
%TD*%
D31*
%TO.P,EXT1,1*%
%TO.N,+5V*%
X1270000Y29210000D03*
D32*
%TO.P,EXT1,2*%
%TO.N,GND*%
X1270000Y26670000D03*
%TO.P,EXT1,3*%
%TO.N,/GPIO0*%
X1270000Y24130000D03*
%TO.P,EXT1,4*%
%TO.N,/GPIO1\u005CEXT_PWR_SENSE*%
X1270000Y21590000D03*
%TO.P,EXT1,5*%
%TO.N,/GPIO2\u005CFSPIQ*%
X1270000Y19050000D03*
%TO.P,EXT1,6*%
%TO.N,/GPIO3\u005CI2C_SCK*%
X1270000Y16510000D03*
%TO.P,EXT1,7*%
%TO.N,/GPIO4\u005CFSPIHD*%
X1270000Y13970000D03*
%TO.P,EXT1,8*%
%TO.N,/GPIO5\u005CBAT_MEASURE*%
X1270000Y11430000D03*
%TO.P,EXT1,9*%
%TO.N,/GPIO6\u005CFSPICLK*%
X1270000Y8890000D03*
%TD*%
D31*
%TO.P,EXT2,1*%
%TO.N,+3.3V*%
X26670000Y29210000D03*
D32*
%TO.P,EXT2,2*%
%TO.N,GND*%
X26670000Y26670000D03*
%TO.P,EXT2,3*%
%TO.N,/ESP_EN*%
X26670000Y24130000D03*
%TO.P,EXT2,4*%
%TO.N,/GPIO21\u005CU0TXD*%
X26670000Y21590000D03*
%TO.P,EXT2,5*%
%TO.N,/GPIO20\u005CU0RXD*%
X26670000Y19050000D03*
%TO.P,EXT2,6*%
%TO.N,/GPIO10\u005CFSPICS0*%
X26670000Y16510000D03*
%TO.P,EXT2,7*%
%TO.N,/GPIO9\u005CUSER_BUT*%
X26670000Y13970000D03*
%TO.P,EXT2,8*%
%TO.N,/GPIO8\u005CUSER_LED*%
X26670000Y11430000D03*
%TO.P,EXT2,9*%
%TO.N,/GPIO7\u005CI2C_SDA*%
X26670000Y8890000D03*
%TD*%
D33*
%TO.N,GND*%
X8001000Y4826000D03*
D34*
X14986000Y889000D03*
X17653000Y889000D03*
X25654000Y7620000D03*
X24130000Y12319000D03*
D33*
%TO.N,+5V*%
X3048000Y16002000D03*
X3048000Y22225000D03*
X7874000Y8763000D03*
D34*
X20066000Y12192000D03*
D33*
X3048000Y9017000D03*
D35*
%TO.N,GND*%
X9969500Y36068000D03*
X11430000Y36068000D03*
X13970000Y36068000D03*
X15240000Y36068000D03*
X16510000Y36068000D03*
D33*
X7493000Y2032000D03*
D34*
X20955000Y1651000D03*
X3048000Y30353000D03*
D33*
X7620000Y22606000D03*
X20996881Y31581125D03*
D34*
X11684000Y26416000D03*
X13970000Y9779000D03*
D33*
X15240000Y3302000D03*
D34*
X11049000Y29210000D03*
D33*
X17272000Y13716000D03*
D34*
X15367000Y16383000D03*
X10160000Y22606000D03*
X22606000Y23749000D03*
D33*
X22987000Y30099000D03*
X22352000Y20066000D03*
D34*
X18923000Y28321000D03*
D33*
X22606000Y14097000D03*
D35*
X17970500Y36068000D03*
D33*
X22352000Y21209000D03*
D34*
X21717000Y6858000D03*
D33*
X21336002Y37211000D03*
D34*
X15702500Y6096000D03*
D33*
X11430000Y13716000D03*
X22606000Y15240000D03*
X7747000Y13208000D03*
D34*
X16637000Y9906000D03*
D33*
X6223000Y27308000D03*
X16383000Y3302000D03*
X6858000Y36957000D03*
%TO.N,+3.3V*%
X20447000Y18034000D03*
X11684000Y19431000D03*
X22987000Y28829000D03*
X15367000Y19050000D03*
X10033000Y14986000D03*
D34*
X18499700Y3852300D03*
D33*
X9144000Y34417000D03*
D35*
X5588000Y30734000D03*
D34*
X11049000Y4191000D03*
D35*
%TO.N,/ESP_EN*%
X6604000Y28956000D03*
D33*
%TO.N,Net-(D2-K)*%
X19812000Y10160000D03*
D34*
%TO.N,Net-(CHARGING1-K)*%
X7874000Y6350000D03*
D33*
%TO.N,VBAT*%
X15367000Y13716000D03*
D34*
%TO.N,/GPIO21\u005CU0TXD*%
X8763000Y19304000D03*
X17526000Y31623000D03*
%TO.N,/GPIO20\u005CU0RXD*%
X17526000Y30741400D03*
X10287000Y24384000D03*
%TO.N,/CC2*%
X17399000Y9398000D03*
%TO.N,/CC1*%
X12319000Y8763000D03*
%TO.N,Net-(U1-CHRGb)*%
X8890000Y13081000D03*
%TO.N,Net-(U1-PROG)*%
X15367000Y12573000D03*
%TO.N,Net-(BUT1-Pad2)*%
X21971000Y24765000D03*
%TO.N,/GPIO2\u005CFSPIQ*%
X5715000Y20193000D03*
X9021783Y33217885D03*
%TO.N,/GPIO4\u005CFSPIHD*%
X14224000Y26416000D03*
X15621000Y24257000D03*
%TO.N,/GPIO10\u005CFSPICS0*%
X19050000Y25400000D03*
D35*
X11938000Y28829000D03*
D34*
%TO.N,/GPIO7\u005CI2C_SDA*%
X17907000Y22352000D03*
X17907000Y25400000D03*
X15367000Y22352000D03*
%TO.N,/GPIO5\u005CBAT_MEASURE*%
X14986000Y25908000D03*
%TO.N,/GPIO1\u005CEXT_PWR_SENSE*%
X12446000Y20955000D03*
X17780000Y16510000D03*
X10541000Y26416000D03*
%TO.N,/GPIO3\u005CI2C_SCK*%
X9039340Y32209670D03*
X9525000Y29591000D03*
X12573000Y16891000D03*
%TO.N,/GPIO9\u005CUSER_BUT*%
X20066000Y26289000D03*
%TO.N,/GPIO8\u005CUSER_LED*%
X20066000Y25400000D03*
%TO.N,/USB_DN*%
X17907000Y28469534D03*
X15367000Y9017000D03*
%TO.N,/USB_DP*%
X14351000Y9017000D03*
X17399000Y29083000D03*
%TD*%
D36*
%TO.N,+5V*%
X3048000Y22225000D02*
X3048000Y16002000D01*
D37*
%TO.N,GND*%
X11995000Y30283000D02*
X11995000Y30003600D01*
X11995000Y30003600D02*
X11201400Y29210000D01*
X11201400Y29210000D02*
X11049000Y29210000D01*
D38*
%TO.N,/GPIO6\u005CFSPICLK*%
X15570000Y26797000D02*
X15671800Y26797000D01*
X17399000Y25069800D02*
X17399000Y21463000D01*
X15671800Y26797000D02*
X17399000Y25069800D01*
X17399000Y21463000D02*
X19050000Y19812000D01*
X19050000Y19812000D02*
X19050000Y16560000D01*
%TO.N,/GPIO1\u005CEXT_PWR_SENSE*%
X10541000Y26416000D02*
X10160000Y26416000D01*
X10160000Y26416000D02*
X9906000Y26162000D01*
X9906000Y26162000D02*
X6737338Y26162000D01*
X6737338Y26162000D02*
X4197338Y23622000D01*
X4197338Y23622000D02*
X3302451Y23622000D01*
X3302451Y23622000D02*
X1270451Y21590000D01*
D37*
X9970000Y27358000D02*
X9970000Y26987000D01*
X9970000Y26987000D02*
X10541000Y26416000D01*
D38*
%TO.N,/GPIO6\u005CFSPICLK*%
X4826000Y14986000D02*
X4826000Y21971000D01*
D37*
X15570000Y27358000D02*
X15570000Y26797000D01*
D38*
X3378200Y13538200D02*
X4826000Y14986000D01*
X15570000Y25603000D02*
X15570000Y26797000D01*
X2667000Y10287000D02*
X2667000Y11938000D01*
X15240000Y25273000D02*
X15570000Y25603000D01*
X8128000Y25273000D02*
X15240000Y25273000D01*
X4826000Y21971000D02*
X8128000Y25273000D01*
X2667000Y11938000D02*
X3378200Y12649200D01*
X3378200Y12649200D02*
X3378200Y13538200D01*
X1270000Y8890000D02*
X2667000Y10287000D01*
D39*
%TO.N,GND*%
X24062000Y25738000D02*
X24273000Y25527000D01*
X24273000Y25527000D02*
X25019000Y25527000D01*
D36*
X22606000Y15240000D02*
X22606000Y16002000D01*
X22606000Y16002000D02*
X25019000Y18415000D01*
X25019000Y25527000D02*
X25527000Y25527000D01*
X25019000Y18415000D02*
X25019000Y25527000D01*
X25527000Y25527000D02*
X26670000Y26670000D01*
D38*
%TO.N,/GPIO5\u005CBAT_MEASURE*%
X14986000Y25908000D02*
X14732000Y25654000D01*
X14732000Y25654000D02*
X7747000Y25654000D01*
X7747000Y25654000D02*
X4318000Y22225000D01*
X4318000Y22225000D02*
X4318000Y15191353D01*
X4318000Y15191353D02*
X2794000Y13667353D01*
X2794000Y13667353D02*
X2794000Y12954000D01*
X2794000Y12954000D02*
X1270000Y11430000D01*
%TO.N,/GPIO4\u005CFSPIHD*%
X14224000Y26416000D02*
X13716000Y25908000D01*
X13716000Y25908000D02*
X7239000Y25908000D01*
X7239000Y25908000D02*
X3937000Y22606000D01*
X3937000Y22606000D02*
X3937000Y15524166D01*
X3937000Y15524166D02*
X2382834Y13970000D01*
X2382834Y13970000D02*
X1270000Y13970000D01*
D40*
%TO.N,GND*%
X8020000Y27308000D02*
X8512000Y27308000D01*
X8512000Y27308000D02*
X8636000Y27432000D01*
X8636000Y28258000D02*
X8636000Y27432000D01*
D39*
X8070000Y28258000D02*
X8636000Y28258000D01*
X8636000Y28258000D02*
X8954000Y28258000D01*
D38*
%TO.N,/GPIO0*%
X1270000Y24130000D02*
X3984625Y24130000D01*
X3984625Y24130000D02*
X6270625Y26416000D01*
X6270625Y26416000D02*
X8882000Y26416000D01*
X8882000Y26416000D02*
X9170000Y26704000D01*
D39*
%TO.N,GND*%
X3429000Y28702000D02*
X3175000Y28956000D01*
X3175000Y28956000D02*
X3175000Y30226000D01*
X3175000Y30226000D02*
X3048000Y30353000D01*
D37*
%TO.N,/ESP_EN*%
X5207000Y28702000D02*
X5207000Y28829000D01*
X5207000Y28829000D02*
X4064000Y29972000D01*
X4064000Y29972000D02*
X4064000Y30226000D01*
D39*
%TO.N,GND*%
X3429000Y28702000D02*
X3302000Y28702000D01*
X3302000Y28702000D02*
X1270000Y26670000D01*
%TO.N,/ESP_EN*%
X5207000Y28702000D02*
X5461000Y28956000D01*
X5461000Y28956000D02*
X6604000Y28956000D01*
%TO.N,+3.3V*%
X5080000Y30226000D02*
X5588000Y30734000D01*
D41*
%TO.N,GND*%
X6858000Y36957000D02*
X7109000Y37208000D01*
D37*
X7176000Y36258000D02*
X8070000Y36258000D01*
X6858000Y36957000D02*
X6858000Y36576000D01*
D40*
X8255000Y37465000D02*
X19298000Y37465000D01*
D37*
X6858000Y36576000D02*
X7176000Y36258000D01*
D40*
X6858000Y36957000D02*
X7747000Y36957000D01*
D41*
X7109000Y37208000D02*
X8020000Y37208000D01*
D40*
X7747000Y36957000D02*
X8255000Y37465000D01*
X19298000Y37465000D02*
X19555000Y37208000D01*
D38*
%TO.N,/GPIO3\u005CI2C_SCK*%
X9525000Y29591000D02*
X9039340Y30076660D01*
X9039340Y30076660D02*
X9039340Y32209670D01*
D36*
%TO.N,+5V*%
X18293000Y10922000D02*
X16510000Y10922000D01*
X18420000Y11049000D02*
X18293000Y10922000D01*
D39*
X3175000Y8128000D02*
X3302000Y8001000D01*
D36*
X16510000Y10922000D02*
X14315000Y10922000D01*
D41*
X13680400Y10734000D02*
X14127000Y10734000D01*
D36*
X11303000Y9144000D02*
X8255000Y9144000D01*
D39*
X3175000Y8890000D02*
X3175000Y8128000D01*
D36*
X18420000Y12573000D02*
X18420000Y10287000D01*
D41*
X11811000Y9652000D02*
X12598400Y9652000D01*
D36*
X8255000Y9144000D02*
X7874000Y8763000D01*
D39*
X18801000Y12192000D02*
X20066000Y12192000D01*
D41*
X12598400Y9652000D02*
X13680400Y10734000D01*
D39*
X18420000Y12573000D02*
X18801000Y12192000D01*
D41*
X11303000Y9144000D02*
X11811000Y9652000D01*
X14315000Y10922000D02*
X14127000Y10734000D01*
D39*
X3048000Y9017000D02*
X3175000Y8890000D01*
D36*
%TO.N,GND*%
X7404000Y7366000D02*
X4815840Y9954160D01*
D37*
X9970000Y36068500D02*
X9969500Y36068000D01*
D41*
X8020000Y37208000D02*
X8950500Y37208000D01*
D36*
X8686000Y22606000D02*
X8890000Y22810000D01*
D39*
X10160000Y11938000D02*
X10414000Y11938000D01*
D42*
X11784000Y7488000D02*
X10882000Y6586000D01*
D37*
X17170000Y37158000D02*
X17170000Y36156500D01*
D41*
X10541000Y34925000D02*
X10541000Y34163000D01*
X22987000Y30099000D02*
X24044524Y30099000D01*
D37*
X15570000Y37158000D02*
X15570000Y36144000D01*
D39*
X24062000Y26738000D02*
X24062000Y28262000D01*
D37*
X8070000Y28258000D02*
X8078077Y28249923D01*
D42*
X19055000Y7488000D02*
X19179000Y7364000D01*
D37*
X14770000Y37158000D02*
X14770000Y36169500D01*
X9969500Y36068000D02*
X10731500Y36068000D01*
D39*
X16256000Y29972000D02*
X17653000Y29972000D01*
D37*
X13170000Y37158000D02*
X13170000Y36106000D01*
X14770000Y36169500D02*
X14668500Y36068000D01*
X17170000Y36156500D02*
X17081500Y36068000D01*
D39*
X6223000Y27308000D02*
X4702000Y27308000D01*
D41*
X19920000Y37208000D02*
X19555000Y37208000D01*
D43*
X19834400Y27308000D02*
X18923000Y28219400D01*
D39*
X2286000Y25654000D02*
X1270000Y26670000D01*
D37*
X9970000Y37158000D02*
X9970000Y36068500D01*
D39*
X8020000Y27308000D02*
X7162000Y27308000D01*
X8382000Y13843000D02*
X11303000Y13843000D01*
D42*
X10539000Y7354000D02*
X10539000Y6586000D01*
D39*
X11303000Y13843000D02*
X11430000Y13716000D01*
D40*
X10770000Y27025200D02*
X10770000Y27358000D01*
D39*
X9094000Y22606000D02*
X10160000Y22606000D01*
X10668000Y11684000D02*
X11527000Y11684000D01*
D42*
X17934000Y7466000D02*
X18814000Y6586000D01*
D41*
X9969500Y36068000D02*
X9969500Y35496500D01*
D36*
X4815840Y11102340D02*
X5778500Y12065000D01*
D37*
X18732500Y36068000D02*
X17970500Y36068000D01*
D42*
X18814000Y6586000D02*
X19179000Y6586000D01*
D39*
X15945000Y30283000D02*
X16256000Y29972000D01*
D36*
X9151400Y7366000D02*
X7404000Y7366000D01*
D37*
X17081500Y36068000D02*
X17970500Y36068000D01*
D43*
X18923000Y28219400D02*
X18923000Y28321000D01*
D36*
X4815840Y9954160D02*
X4815840Y10520140D01*
X9931400Y6586000D02*
X9151400Y7366000D01*
D40*
X11379200Y26416000D02*
X10770000Y27025200D01*
D37*
X17970000Y36068500D02*
X17970500Y36068000D01*
D36*
X7747000Y13208000D02*
X7747000Y12065000D01*
D37*
X10770000Y27358000D02*
X10770000Y28346000D01*
D42*
X19179000Y7364000D02*
X19179000Y6586000D01*
X18277000Y7488000D02*
X19179000Y6586000D01*
D37*
X9207500Y36068000D02*
X9969500Y36068000D01*
D41*
X9969500Y35496500D02*
X10541000Y34925000D01*
D39*
X20952000Y27308000D02*
X20955000Y27305000D01*
D36*
X14986000Y3048000D02*
X15240000Y3302000D01*
D37*
X9017500Y36258000D02*
X9170000Y36105500D01*
D43*
X19920000Y27308000D02*
X19834400Y27308000D01*
D40*
X13970000Y9779000D02*
X14300200Y10109200D01*
X11684000Y26416000D02*
X11379200Y26416000D01*
D37*
X16370000Y36144500D02*
X16446500Y36068000D01*
X11570000Y36144500D02*
X11493500Y36068000D01*
D41*
X19555000Y37208000D02*
X19053000Y37208000D01*
X24044524Y30099000D02*
X24062000Y30081524D01*
D37*
X15494000Y36068000D02*
X16446500Y36068000D01*
D36*
X5778500Y12065000D02*
X7747000Y12065000D01*
D41*
X11925000Y34163000D02*
X11995000Y34233000D01*
D37*
X13208000Y36068000D02*
X13906500Y36068000D01*
D41*
X24062000Y30081524D02*
X24062000Y29888000D01*
D42*
X18184000Y7488000D02*
X18277000Y7488000D01*
D37*
X9170000Y35522500D02*
X9170000Y36105500D01*
D36*
X10541000Y34163000D02*
X10541000Y28575000D01*
D37*
X9105500Y35458000D02*
X9170000Y35522500D01*
D39*
X4702000Y27308000D02*
X3048000Y25654000D01*
X8890000Y22810000D02*
X9094000Y22606000D01*
D37*
X17970000Y37158000D02*
X17970000Y36068500D01*
D42*
X17934000Y7488000D02*
X19055000Y7488000D01*
D37*
X12370000Y37158000D02*
X12370000Y36080500D01*
X13970000Y36131500D02*
X13906500Y36068000D01*
X8070000Y35458000D02*
X9105500Y35458000D01*
D36*
X19179000Y2406000D02*
X17279000Y2406000D01*
D37*
X12382500Y36068000D02*
X13208000Y36068000D01*
D40*
X16433800Y10109200D02*
X16637000Y9906000D01*
D41*
X21333002Y37208000D02*
X21336002Y37211000D01*
D37*
X16446500Y36068000D02*
X17081500Y36068000D01*
D36*
X10539000Y2406000D02*
X11181000Y3048000D01*
X7620000Y22606000D02*
X8686000Y22606000D01*
D42*
X10882000Y6586000D02*
X10539000Y6586000D01*
D39*
X24062000Y29888000D02*
X24062000Y28262000D01*
D42*
X17934000Y7488000D02*
X17934000Y7466000D01*
D39*
X24130000Y26670000D02*
X24062000Y26738000D01*
X8954000Y28258000D02*
X9271000Y28575000D01*
D36*
X7747000Y12065000D02*
X10033000Y12065000D01*
D37*
X13906500Y36068000D02*
X14668500Y36068000D01*
D36*
X4815840Y10520140D02*
X4815840Y11102340D01*
D37*
X13970000Y37158000D02*
X13970000Y36131500D01*
D39*
X6223000Y27308000D02*
X7162000Y27308000D01*
D37*
X19003000Y37158000D02*
X19053000Y37208000D01*
X9170000Y37158000D02*
X9170000Y36105500D01*
X12370000Y36080500D02*
X12382500Y36068000D01*
D39*
X10414000Y11938000D02*
X10668000Y11684000D01*
D41*
X19920000Y37208000D02*
X21333002Y37208000D01*
X20955000Y22606000D02*
X22352000Y21209000D01*
D37*
X15570000Y36144000D02*
X15494000Y36068000D01*
X10731500Y36068000D02*
X11493500Y36068000D01*
D42*
X11784000Y7488000D02*
X10673000Y7488000D01*
D37*
X11493500Y36068000D02*
X12382500Y36068000D01*
X11570000Y37158000D02*
X11570000Y36144500D01*
X9170000Y36105500D02*
X9207500Y36068000D01*
D36*
X16510000Y12700000D02*
X16510000Y12954000D01*
D37*
X14668500Y36068000D02*
X15494000Y36068000D01*
D36*
X16510000Y12954000D02*
X17272000Y13716000D01*
X11181000Y3048000D02*
X14986000Y3048000D01*
D39*
X3048000Y25654000D02*
X2286000Y25654000D01*
D36*
X17279000Y2406000D02*
X16383000Y3302000D01*
D39*
X7430000Y28258000D02*
X7162000Y27990000D01*
D41*
X20955000Y27305000D02*
X20955000Y22606000D01*
D37*
X7162000Y27990000D02*
X7162000Y27308000D01*
X18770000Y37158000D02*
X18770000Y36105500D01*
D42*
X11534000Y7488000D02*
X11441000Y7488000D01*
D37*
X10770000Y28346000D02*
X10541000Y28575000D01*
X10770000Y37158000D02*
X10770000Y36106500D01*
D41*
X20955000Y31539244D02*
X20955000Y27305000D01*
D40*
X14300200Y10109200D02*
X16433800Y10109200D01*
D37*
X18770000Y37158000D02*
X19003000Y37158000D01*
X13170000Y36106000D02*
X13208000Y36068000D01*
D36*
X10541000Y28575000D02*
X9271000Y28575000D01*
D42*
X11441000Y7488000D02*
X10539000Y6586000D01*
D37*
X16370000Y37158000D02*
X16370000Y36144500D01*
X8070000Y36258000D02*
X9017500Y36258000D01*
D39*
X7747000Y13208000D02*
X8382000Y13843000D01*
D36*
X10033000Y12065000D02*
X10160000Y11938000D01*
D39*
X8070000Y28258000D02*
X7430000Y28258000D01*
D41*
X10541000Y34163000D02*
X11925000Y34163000D01*
D37*
X18770000Y36105500D02*
X18732500Y36068000D01*
D41*
X20996881Y31581125D02*
X20955000Y31539244D01*
D39*
X19920000Y27308000D02*
X20952000Y27308000D01*
D42*
X10673000Y7488000D02*
X10539000Y7354000D01*
D37*
X10770000Y36106500D02*
X10731500Y36068000D01*
D39*
X24062000Y25738000D02*
X24062000Y26738000D01*
D36*
%TO.N,+3.3V*%
X22987000Y28829000D02*
X22987000Y24892000D01*
D37*
X9144000Y34417000D02*
X8903000Y34658000D01*
D40*
X18499700Y3852300D02*
X18211800Y4140200D01*
D36*
X22987000Y24892000D02*
X23749000Y24130000D01*
X15367000Y19050000D02*
X14986000Y19431000D01*
D40*
X20828000Y7493000D02*
X22352000Y9017000D01*
X18499700Y3852300D02*
X19219300Y3852300D01*
X22352000Y9017000D02*
X23114000Y9017000D01*
D36*
X23749000Y19558000D02*
X22225000Y18034000D01*
D40*
X20828000Y5461000D02*
X20828000Y7493000D01*
D36*
X23749000Y24130000D02*
X23749000Y19558000D01*
X22225000Y18034000D02*
X20447000Y18034000D01*
X14986000Y19431000D02*
X11684000Y19431000D01*
D40*
X11099800Y4140200D02*
X11049000Y4191000D01*
D36*
X8890000Y14986000D02*
X10033000Y14986000D01*
D40*
X23114000Y9017000D02*
X23622000Y9525000D01*
X19219300Y3852300D02*
X20828000Y5461000D01*
D37*
X8903000Y34658000D02*
X8070000Y34658000D01*
D36*
X8890000Y16560000D02*
X8890000Y14986000D01*
D40*
X23622000Y9525000D02*
X23622000Y10668000D01*
X18211800Y4140200D02*
X11099800Y4140200D01*
D37*
%TO.N,/ESP_EN*%
X6604000Y28956000D02*
X6604000Y29718000D01*
X6604000Y29718000D02*
X7544000Y30658000D01*
X7544000Y30658000D02*
X8070000Y30658000D01*
D36*
%TO.N,Net-(D2-K)*%
X19812000Y10160000D02*
X19812000Y10287000D01*
X19812000Y10287000D02*
X22098000Y12573000D01*
X22098000Y12573000D02*
X22220000Y12573000D01*
D43*
%TO.N,Net-(CHARGING1-K)*%
X6985000Y6350000D02*
X5461000Y7874000D01*
D39*
X4953000Y7874000D02*
X4826000Y8001000D01*
D43*
X7874000Y6350000D02*
X6985000Y6350000D01*
D39*
X5461000Y7874000D02*
X4953000Y7874000D01*
D37*
%TO.N,/GPIO0*%
X9170000Y27358000D02*
X9170000Y26704000D01*
D41*
%TO.N,VBAT*%
X12242800Y10668000D02*
X10287000Y10668000D01*
X12827000Y11252200D02*
X12242800Y10668000D01*
D36*
X15367000Y13716000D02*
X13208000Y13716000D01*
D41*
X10287000Y10668000D02*
X10160000Y10541000D01*
D36*
X6863620Y10541000D02*
X6845300Y10522680D01*
X12827000Y13335000D02*
X12827000Y11430000D01*
D41*
X12827000Y11430000D02*
X12827000Y11252200D01*
D36*
X13208000Y13716000D02*
X12827000Y13335000D01*
X10160000Y10541000D02*
X6863620Y10541000D01*
D39*
%TO.N,+5V_USB*%
X13081000Y5461000D02*
X13081000Y6223000D01*
D40*
X17653000Y8763000D02*
X17932400Y9042400D01*
D36*
X20746800Y8813800D02*
X22220000Y10287000D01*
D40*
X17932400Y9042400D02*
X17957800Y9042400D01*
X17653000Y8763000D02*
X17780000Y8636000D01*
X17957800Y9042400D02*
X18186400Y8813800D01*
X17134000Y7488000D02*
X17134000Y8244000D01*
D36*
X16002000Y4953000D02*
X16637000Y5588000D01*
D39*
X16637000Y6223000D02*
X17221200Y6807200D01*
D40*
X18186400Y8445500D02*
X17729200Y8445500D01*
D39*
X13081000Y5461000D02*
X12827000Y5715000D01*
X12827000Y6477000D02*
X12522200Y6781800D01*
D36*
X16637000Y5588000D02*
X16637000Y6096000D01*
D40*
X17134000Y7990000D02*
X17589500Y8445500D01*
D39*
X12827000Y5715000D02*
X12827000Y6477000D01*
D40*
X17384000Y7488000D02*
X17384000Y8087600D01*
X17729200Y8432800D02*
X17729200Y8445500D01*
X18186400Y8813800D02*
X18186400Y8445500D01*
D36*
X13081000Y5461000D02*
X13589000Y4953000D01*
D42*
X17384000Y7488000D02*
X17384000Y6970000D01*
D40*
X17134000Y7488000D02*
X17134000Y7990000D01*
D42*
X12584000Y6843600D02*
X12522200Y6781800D01*
X17384000Y6970000D02*
X17221200Y6807200D01*
D40*
X17134000Y8244000D02*
X17410201Y8520201D01*
D39*
X13081000Y6223000D02*
X12827000Y6477000D01*
D40*
X17384000Y8087600D02*
X17729200Y8432800D01*
D36*
X13589000Y4953000D02*
X16002000Y4953000D01*
D42*
X12584000Y7488000D02*
X12584000Y6843600D01*
D40*
X17729200Y8445500D02*
X17589500Y8445500D01*
X17589500Y8445500D02*
X17780000Y8636000D01*
D39*
X16637000Y6096000D02*
X16637000Y6223000D01*
D42*
X12334000Y6970000D02*
X12522200Y6781800D01*
D36*
X18186400Y8813800D02*
X20746800Y8813800D01*
D42*
X12334000Y7488000D02*
X12334000Y6970000D01*
D40*
X17410201Y8520201D02*
X17653000Y8763000D01*
D42*
X17134000Y7488000D02*
X17134000Y6894400D01*
X17134000Y6894400D02*
X17221200Y6807200D01*
D39*
%TO.N,/GPIO21\u005CU0TXD*%
X11430000Y18288000D02*
X11430000Y16560000D01*
D38*
X17613380Y31623000D02*
X19048380Y33058000D01*
X17526000Y31623000D02*
X17613380Y31623000D01*
X10541000Y18288000D02*
X10146229Y18288000D01*
X10146229Y18288000D02*
X9130229Y19304000D01*
D39*
X10541000Y18288000D02*
X11430000Y18288000D01*
D38*
X9130229Y19304000D02*
X8763000Y19304000D01*
D37*
X19870000Y33058000D02*
X19048380Y33058000D01*
D39*
%TO.N,/GPIO20\u005CU0RXD*%
X10287000Y24384000D02*
X11430000Y24384000D01*
D38*
X17849243Y30741400D02*
X19365843Y32258000D01*
X17526000Y30741400D02*
X17849243Y30741400D01*
D37*
X19870000Y32258000D02*
X19365843Y32258000D01*
D39*
X11430000Y24384000D02*
X11430000Y22810000D01*
D43*
%TO.N,/CC2*%
X17399000Y9398000D02*
X17399000Y9271000D01*
X17399000Y9271000D02*
X16609000Y8481000D01*
X16609000Y8481000D02*
X16609000Y7488000D01*
%TO.N,/CC1*%
X13609000Y8145200D02*
X13609000Y7488000D01*
X12319000Y8763000D02*
X12991200Y8763000D01*
X12991200Y8763000D02*
X13609000Y8145200D01*
D40*
%TO.N,Net-(LED1-A)*%
X23241000Y8001000D02*
X24638000Y9398000D01*
X23114000Y8001000D02*
X23241000Y8001000D01*
X24638000Y9398000D02*
X24638000Y9525000D01*
D39*
%TO.N,Net-(U1-CHRGb)*%
X10988000Y12634000D02*
X11527000Y12634000D01*
D43*
X8890000Y13081000D02*
X10541000Y13081000D01*
X10541000Y13081000D02*
X10795000Y12827000D01*
D39*
X10795000Y12827000D02*
X10988000Y12634000D01*
D37*
%TO.N,Net-(U1-PROG)*%
X15367000Y12573000D02*
X15306000Y12634000D01*
X15306000Y12634000D02*
X14127000Y12634000D01*
D39*
%TO.N,Net-(BUT1-Pad2)*%
X21912000Y29888000D02*
X21912000Y28761000D01*
X21912000Y24824000D02*
X21971000Y24765000D01*
X21912000Y25738000D02*
X21912000Y28761000D01*
X21912000Y25738000D02*
X21912000Y24824000D01*
D38*
%TO.N,/GPIO2\u005CFSPIQ*%
X10491270Y20701000D02*
X9765229Y20701000D01*
D37*
X8070000Y33058000D02*
X8861898Y33058000D01*
D38*
X15417800Y20142200D02*
X11050070Y20142200D01*
D37*
X8861898Y33058000D02*
X9021783Y33217885D01*
D38*
X11050070Y20142200D02*
X10491270Y20701000D01*
X9257229Y20193000D02*
X5715000Y20193000D01*
D39*
X16383000Y16687000D02*
X16383000Y18796000D01*
D38*
X9765229Y20701000D02*
X9257229Y20193000D01*
X16383000Y19177000D02*
X15417800Y20142200D01*
X16383000Y18796000D02*
X16383000Y19177000D01*
D39*
X16510000Y16560000D02*
X16383000Y16687000D01*
D37*
%TO.N,/GPIO4\u005CFSPIHD*%
X14224000Y26416000D02*
X13970000Y26670000D01*
D39*
X15621000Y24257000D02*
X16510000Y24257000D01*
D38*
X16510000Y24257000D02*
X16510000Y22810000D01*
D37*
X13970000Y26670000D02*
X13970000Y27358000D01*
%TO.N,/GPIO10\u005CFSPICS0*%
X12370000Y28397000D02*
X12370000Y27358000D01*
X11938000Y28829000D02*
X12370000Y28397000D01*
D39*
X19050000Y25400000D02*
X19050000Y22810000D01*
D37*
%TO.N,/GPIO7\u005CI2C_SDA*%
X16370000Y27358000D02*
X16370000Y26810000D01*
D38*
X17907000Y25400000D02*
X17780000Y25400000D01*
X17780000Y25400000D02*
X16370000Y26810000D01*
D39*
X15367000Y22352000D02*
X14428000Y22352000D01*
X14428000Y22352000D02*
X13970000Y22810000D01*
D38*
X17907000Y25400000D02*
X17907000Y22352000D01*
D37*
%TO.N,/GPIO5\u005CBAT_MEASURE*%
X14770000Y27358000D02*
X14770000Y26797000D01*
D38*
X14770000Y26797000D02*
X14986000Y26581000D01*
X14986000Y26581000D02*
X14986000Y25908000D01*
%TO.N,/GPIO1\u005CEXT_PWR_SENSE*%
X12979400Y20421600D02*
X12446000Y20955000D01*
D40*
X1270451Y21590000D02*
X1270000Y21590000D01*
D38*
X17780000Y16510000D02*
X17780000Y18288500D01*
X15646900Y20421600D02*
X12979400Y20421600D01*
X17780000Y18288500D02*
X15646900Y20421600D01*
D39*
%TO.N,/GPIO3\u005CI2C_SCK*%
X13639000Y16891000D02*
X12573000Y16891000D01*
D37*
X8991010Y32258000D02*
X9039340Y32209670D01*
D39*
X13970000Y16560000D02*
X13639000Y16891000D01*
D37*
X8070000Y32258000D02*
X8991010Y32258000D01*
D38*
%TO.N,/GPIO9\u005CUSER_BUT*%
X19939000Y26416000D02*
X18351000Y26416000D01*
X18351000Y26416000D02*
X17970000Y26797000D01*
X20066000Y26289000D02*
X19939000Y26416000D01*
D37*
X17970000Y27358000D02*
X17970000Y26797000D01*
D40*
%TO.N,/GPIO8\u005CUSER_LED*%
X24638000Y10668000D02*
X25400000Y10668000D01*
X25400000Y10160000D02*
X26670000Y11430000D01*
X25527000Y10795000D02*
X26162000Y11430000D01*
D38*
X17907000Y26035000D02*
X17170000Y26772000D01*
D40*
X25400000Y8763000D02*
X25400000Y10160000D01*
X25400000Y10668000D02*
X25527000Y10795000D01*
X24638000Y8001000D02*
X25400000Y8763000D01*
D38*
X20066000Y25400000D02*
X19431000Y26035000D01*
X19431000Y26035000D02*
X17907000Y26035000D01*
D40*
X25400000Y10414000D02*
X25400000Y10668000D01*
X25400000Y10414000D02*
X25400000Y10160000D01*
X25400000Y10668000D02*
X25400000Y10795000D01*
X25400000Y10922000D02*
X25908000Y11430000D01*
D37*
X17170000Y27358000D02*
X17170000Y26772000D01*
D40*
X25400000Y10795000D02*
X25400000Y10922000D01*
X25400000Y10414000D02*
X26416000Y11430000D01*
%TO.N,/USB_DN*%
X15109000Y8759000D02*
X15109000Y7488000D01*
D43*
X18366169Y29254800D02*
X17907000Y28795631D01*
X19073199Y29254800D02*
X18366169Y29254800D01*
X14109000Y7488000D02*
X14109000Y6185600D01*
X14109000Y6185600D02*
X14300200Y5994400D01*
X15109000Y6168200D02*
X15109000Y7488000D01*
D40*
X15367000Y9017000D02*
X15109000Y8759000D01*
D43*
X19269999Y29058000D02*
X19073199Y29254800D01*
X14935200Y5994400D02*
X15109000Y6168200D01*
X14300200Y5994400D02*
X14935200Y5994400D01*
X17907000Y28795631D02*
X17907000Y28469534D01*
X19870000Y29058000D02*
X19269999Y29058000D01*
%TO.N,/USB_DP*%
X19073199Y29661200D02*
X18197831Y29661200D01*
X16027400Y9245600D02*
X15621000Y9652000D01*
X19269999Y29858000D02*
X19073199Y29661200D01*
X15621000Y9652000D02*
X14986000Y9652000D01*
X16027400Y8661400D02*
X16027400Y9245600D01*
X18197831Y29661200D02*
X17619631Y29083000D01*
X19870000Y29858000D02*
X19269999Y29858000D01*
X14986000Y9652000D02*
X14351000Y9017000D01*
X15609000Y8243000D02*
X16027400Y8661400D01*
D40*
X14351000Y9017000D02*
X14609000Y8759000D01*
D43*
X15609000Y7488000D02*
X15609000Y8243000D01*
X17619631Y29083000D02*
X17399000Y29083000D01*
D40*
X14609000Y8759000D02*
X14609000Y7488000D01*
%TD*%
%TA.AperFunction,Conductor*%
%TO.N,GND*%
G36*
X8314830Y19854998D02*
G01*
X8361323Y19801342D01*
X8371427Y19731068D01*
X8346672Y19672298D01*
X8320712Y19638465D01*
X8278646Y19583644D01*
X8278645Y19583642D01*
X8250708Y19516198D01*
X8222771Y19448753D01*
X8203715Y19304001D01*
X8203715Y19304000D01*
X8222771Y19159248D01*
X8222772Y19159246D01*
X8274007Y19035554D01*
X8281596Y18964967D01*
X8249817Y18901480D01*
X8227603Y18882575D01*
X8206515Y18868485D01*
X8150266Y18784303D01*
X8135500Y18710070D01*
X8135500Y16697606D01*
X8132104Y16668552D01*
X8127500Y16649128D01*
X8127500Y15010024D01*
X8127393Y15006360D01*
X8123608Y14941369D01*
X8123608Y14941363D01*
X8133586Y14884772D01*
X8135500Y14862894D01*
X8135500Y14409937D01*
X8135501Y14409927D01*
X8150265Y14335700D01*
X8206516Y14251516D01*
X8290697Y14195267D01*
X8290699Y14195266D01*
X8364933Y14180500D01*
X9415066Y14180501D01*
X9415069Y14180502D01*
X9415073Y14180502D01*
X9433372Y14184142D01*
X9489301Y14195266D01*
X9489304Y14195268D01*
X9499777Y14202265D01*
X9567529Y14223480D01*
X9569778Y14223500D01*
X10077415Y14223500D01*
X10176884Y14235127D01*
X10210042Y14239002D01*
X10377539Y14299966D01*
X10507615Y14385520D01*
X10575519Y14406241D01*
X10643848Y14386961D01*
X10681309Y14344641D01*
X10683371Y14346018D01*
X10746516Y14251516D01*
X10830697Y14195267D01*
X10830699Y14195266D01*
X10904933Y14180500D01*
X11955066Y14180501D01*
X11955069Y14180502D01*
X11955073Y14180502D01*
X12004326Y14190299D01*
X12029301Y14195266D01*
X12113484Y14251516D01*
X12169734Y14335699D01*
X12184500Y14409933D01*
X12184499Y16263165D01*
X12204501Y16331285D01*
X12258157Y16377778D01*
X12328431Y16387882D01*
X12358714Y16379573D01*
X12428246Y16350772D01*
X12573000Y16331715D01*
X12578695Y16332466D01*
X12599184Y16332574D01*
X12599201Y16333356D01*
X12605388Y16333223D01*
X12605389Y16333222D01*
X12605389Y16333223D01*
X12605390Y16333222D01*
X12844600Y16351562D01*
X12914050Y16336826D01*
X12937253Y16320712D01*
X13002953Y16263164D01*
X13172521Y16114635D01*
X13210584Y16054706D01*
X13215500Y16019855D01*
X13215500Y14597527D01*
X13195498Y14529406D01*
X13141842Y14482913D01*
X13100484Y14472007D01*
X13052765Y14467832D01*
X13045578Y14466347D01*
X13045565Y14466406D01*
X13038081Y14464747D01*
X13038095Y14464689D01*
X13030950Y14462996D01*
X12957627Y14436308D01*
X12883559Y14411766D01*
X12876913Y14408666D01*
X12876888Y14408720D01*
X12869987Y14405379D01*
X12870014Y14405325D01*
X12863463Y14402036D01*
X12837333Y14384850D01*
X12798276Y14359162D01*
X12760237Y14335698D01*
X12731848Y14318187D01*
X12726097Y14313639D01*
X12726060Y14313686D01*
X12720122Y14308850D01*
X12720161Y14308804D01*
X12714540Y14304088D01*
X12660994Y14247333D01*
X12333602Y13919942D01*
X12319753Y13907972D01*
X12300179Y13893399D01*
X12300176Y13893397D01*
X12266056Y13852735D01*
X12262349Y13848689D01*
X12256428Y13842767D01*
X12256428Y13842766D01*
X12235754Y13816621D01*
X12185604Y13756853D01*
X12181574Y13750725D01*
X12181523Y13750758D01*
X12177405Y13744294D01*
X12177455Y13744263D01*
X12173607Y13738026D01*
X12140625Y13667295D01*
X12105604Y13597562D01*
X12103095Y13590668D01*
X12103039Y13590689D01*
X12100525Y13583455D01*
X12100582Y13583436D01*
X12098275Y13576476D01*
X12082498Y13500066D01*
X12064499Y13424122D01*
X12063648Y13416833D01*
X12063587Y13416841D01*
X12062809Y13409227D01*
X12062871Y13409221D01*
X12062231Y13401910D01*
X12064500Y13323925D01*
X12064500Y13289500D01*
X12044498Y13221379D01*
X11990842Y13174886D01*
X11938500Y13163500D01*
X11229819Y13163500D01*
X11161698Y13183502D01*
X11140724Y13200405D01*
X11128854Y13212275D01*
X11128845Y13212283D01*
X11041207Y13277887D01*
X11041202Y13277890D01*
X10904206Y13328988D01*
X10904198Y13328990D01*
X10830987Y13334226D01*
X10766760Y13357361D01*
X10753910Y13366536D01*
X10741311Y13376342D01*
X10712828Y13398511D01*
X10712825Y13398512D01*
X10712824Y13398513D01*
X10706259Y13402067D01*
X10706235Y13402078D01*
X10706213Y13402090D01*
X10699567Y13405339D01*
X10699561Y13405341D01*
X10649651Y13420200D01*
X10638224Y13424123D01*
X10600423Y13437101D01*
X10593048Y13438331D01*
X10585656Y13439253D01*
X10533633Y13437100D01*
X9571420Y13437100D01*
X9528548Y13444618D01*
X9103577Y13598391D01*
X9103574Y13598392D01*
X9095221Y13599765D01*
X9067454Y13607684D01*
X9034754Y13621228D01*
X8890000Y13640285D01*
X8745247Y13621229D01*
X8690113Y13598391D01*
X8610358Y13565355D01*
X8610357Y13565354D01*
X8610356Y13565354D01*
X8494526Y13476474D01*
X8405646Y13360644D01*
X8405645Y13360642D01*
X8390436Y13323925D01*
X8349771Y13225753D01*
X8330715Y13081001D01*
X8330715Y13081000D01*
X8349771Y12936248D01*
X8405644Y12801359D01*
X8405649Y12801351D01*
X8494525Y12685526D01*
X8592074Y12610674D01*
X8610357Y12596645D01*
X8745246Y12540772D01*
X8890000Y12521715D01*
X9034754Y12540772D01*
X9067811Y12554466D01*
X9097099Y12562628D01*
X9103580Y12563612D01*
X9528547Y12717382D01*
X9571419Y12724900D01*
X10202879Y12724900D01*
X10271000Y12704898D01*
X10317493Y12651242D01*
X10320934Y12642934D01*
X10344111Y12580796D01*
X10344113Y12580793D01*
X10409717Y12493155D01*
X10409725Y12493146D01*
X10494116Y12408755D01*
X10528142Y12346443D01*
X10523077Y12275628D01*
X10505890Y12244152D01*
X10476555Y12204965D01*
X10425505Y12068094D01*
X10419000Y12007598D01*
X10419000Y11959000D01*
X11676000Y11959000D01*
X11744121Y11938998D01*
X11790614Y11885342D01*
X11802000Y11833000D01*
X11802000Y11535000D01*
X11781998Y11466879D01*
X11728342Y11420386D01*
X11676000Y11409000D01*
X10418999Y11409000D01*
X10410244Y11400246D01*
X10398998Y11361944D01*
X10345342Y11315451D01*
X10296961Y11304127D01*
X10281327Y11303636D01*
X10277015Y11303500D01*
X8312561Y11303500D01*
X8282219Y11307208D01*
X7606540Y11474854D01*
X7591023Y11477716D01*
X7580390Y11479017D01*
X7580391Y11479017D01*
X7549085Y11480935D01*
X7549082Y11480935D01*
X7542269Y11479584D01*
X7517774Y11477180D01*
X6120236Y11477180D01*
X6120226Y11477179D01*
X6045999Y11462415D01*
X5961815Y11406164D01*
X5905566Y11321983D01*
X5890800Y11247750D01*
X5890800Y11198279D01*
X5870798Y11130158D01*
X5853896Y11109184D01*
X5266944Y10522233D01*
X5259513Y10621405D01*
X5209953Y10747681D01*
X5125375Y10853739D01*
X5013293Y10930156D01*
X4883667Y10970140D01*
X4816827Y10970140D01*
X5418624Y11571938D01*
X5418623Y11571939D01*
X5230585Y11659621D01*
X5230575Y11659625D01*
X5026407Y11714332D01*
X4815840Y11732754D01*
X4605272Y11714332D01*
X4401101Y11659624D01*
X4213055Y11571939D01*
X4213054Y11571938D01*
X4814852Y10970140D01*
X4782116Y10970140D01*
X4681702Y10955005D01*
X4559483Y10896147D01*
X4460042Y10803880D01*
X4392215Y10686400D01*
X4362030Y10554148D01*
X4364396Y10522572D01*
X3764042Y11122926D01*
X3764041Y11122925D01*
X3676356Y10934879D01*
X3621648Y10730708D01*
X3603226Y10520140D01*
X3621648Y10309573D01*
X3676355Y10105405D01*
X3676359Y10105395D01*
X3764041Y9917357D01*
X3764042Y9917356D01*
X4364735Y10518050D01*
X4372167Y10418875D01*
X4421727Y10292599D01*
X4506305Y10186541D01*
X4618387Y10110124D01*
X4748013Y10070140D01*
X4814853Y10070140D01*
X4213055Y9468344D01*
X4401098Y9380658D01*
X4401104Y9380656D01*
X4605272Y9325949D01*
X4815840Y9307527D01*
X5026407Y9325949D01*
X5230575Y9380656D01*
X5230581Y9380658D01*
X5418623Y9468343D01*
X5418624Y9468344D01*
X4816828Y10070140D01*
X4849564Y10070140D01*
X4949978Y10085275D01*
X5072197Y10144133D01*
X5171638Y10236400D01*
X5239465Y10353880D01*
X5269650Y10486132D01*
X5267283Y10517709D01*
X5853895Y9931097D01*
X5887921Y9868785D01*
X5890800Y9842004D01*
X5890800Y9797618D01*
X5890801Y9797607D01*
X5905565Y9723380D01*
X5961816Y9639196D01*
X6045997Y9582947D01*
X6045999Y9582946D01*
X6120233Y9568180D01*
X7296651Y9568181D01*
X7364772Y9548179D01*
X7411265Y9494523D01*
X7421369Y9424249D01*
X7391876Y9359669D01*
X7385747Y9353086D01*
X7303426Y9270765D01*
X7220605Y9166021D01*
X7145274Y9004472D01*
X7109231Y8829913D01*
X7109231Y8829910D01*
X7114415Y8651737D01*
X7160548Y8479564D01*
X7227721Y8354982D01*
X7245144Y8322670D01*
X7363642Y8189516D01*
X7509653Y8087277D01*
X7675307Y8021468D01*
X7851672Y7995634D01*
X8029240Y8011169D01*
X8198440Y8067235D01*
X8333321Y8150432D01*
X8350145Y8160809D01*
X8350146Y8160811D01*
X8350149Y8160812D01*
X8533933Y8344597D01*
X8596243Y8378620D01*
X8623027Y8381500D01*
X9094083Y8381500D01*
X9162204Y8361498D01*
X9208697Y8307842D01*
X9218801Y8237568D01*
X9189307Y8172988D01*
X9143219Y8140989D01*
X9143343Y8140762D01*
X9141238Y8139613D01*
X9138116Y8137445D01*
X9135439Y8136447D01*
X9135434Y8136445D01*
X9018495Y8048905D01*
X8930955Y7931966D01*
X8930955Y7931965D01*
X8879905Y7795094D01*
X8873400Y7734598D01*
X8873400Y6903500D01*
X10139000Y6903500D01*
X10139000Y6104519D01*
X10153835Y6010852D01*
X10211359Y5897955D01*
X10300955Y5808359D01*
X10413852Y5750835D01*
X10539000Y5731014D01*
X10664148Y5750835D01*
X10777045Y5808359D01*
X10856500Y5887814D01*
X10856500Y5022887D01*
X10903033Y5034175D01*
X10903041Y5034178D01*
X11095520Y5122080D01*
X11267887Y5244822D01*
X11267888Y5244823D01*
X11413907Y5397963D01*
X11521482Y5565355D01*
X11575138Y5611848D01*
X11645412Y5621953D01*
X11692947Y5604893D01*
X11746010Y5572625D01*
X11746011Y5572625D01*
X11746012Y5572624D01*
X11837316Y5547042D01*
X11892786Y5531500D01*
X11892788Y5531500D01*
X12006927Y5531500D01*
X12006937Y5531501D01*
X12096249Y5543778D01*
X12120009Y5547043D01*
X12140704Y5556033D01*
X12211152Y5564826D01*
X12275173Y5534136D01*
X12312438Y5473705D01*
X12316422Y5451446D01*
X12329168Y5305765D01*
X12329168Y5305763D01*
X12329169Y5305760D01*
X12375429Y5166152D01*
X12385236Y5136558D01*
X12478808Y4984855D01*
X12726867Y4736795D01*
X12760892Y4674483D01*
X12755827Y4603667D01*
X12713280Y4546832D01*
X12646759Y4522021D01*
X12637771Y4521700D01*
X11728896Y4521700D01*
X11679809Y4531655D01*
X11275678Y4702604D01*
X11274580Y4703065D01*
X11261518Y4705703D01*
X11238244Y4712800D01*
X11193754Y4731228D01*
X11049000Y4750285D01*
X10904247Y4731229D01*
X10842624Y4705703D01*
X10769358Y4675355D01*
X10769357Y4675354D01*
X10769356Y4675354D01*
X10653526Y4586474D01*
X10564646Y4470644D01*
X10564645Y4470642D01*
X10555713Y4449078D01*
X10508771Y4335753D01*
X10489715Y4191001D01*
X10489715Y4191000D01*
X10507429Y4056446D01*
X10496490Y3986297D01*
X10449361Y3933199D01*
X10382507Y3914000D01*
X10248900Y3914000D01*
X10248900Y2981586D01*
X10211359Y2944045D01*
X10153835Y2831148D01*
X10139000Y2737481D01*
X10139000Y2074519D01*
X10153835Y1980852D01*
X10211359Y1867955D01*
X10300955Y1778359D01*
X10413852Y1720835D01*
X10539000Y1701014D01*
X10664148Y1720835D01*
X10777045Y1778359D01*
X10856500Y1857814D01*
X10856500Y937293D01*
X10857253Y937433D01*
X10857267Y937437D01*
X11057371Y1014959D01*
X11057387Y1014967D01*
X11239839Y1127936D01*
X11239840Y1127937D01*
X11398437Y1272517D01*
X11527768Y1443780D01*
X11527772Y1443785D01*
X11623426Y1635885D01*
X11623429Y1635891D01*
X11682159Y1842308D01*
X11682159Y1842312D01*
X11697000Y2002460D01*
X11697000Y2088500D01*
X10939000Y2088500D01*
X10939000Y2723500D01*
X11697000Y2723500D01*
X11697000Y2809541D01*
X11682159Y2969689D01*
X11682159Y2969693D01*
X11623429Y3176110D01*
X11623426Y3176116D01*
X11527772Y3368216D01*
X11527768Y3368221D01*
X11414948Y3517620D01*
X11389858Y3584036D01*
X11404658Y3653473D01*
X11454649Y3703885D01*
X11489695Y3716882D01*
X11676893Y3756033D01*
X11702681Y3758700D01*
X17817900Y3758700D01*
X17886021Y3738698D01*
X17920149Y3706328D01*
X18009207Y3582651D01*
X18012640Y3577340D01*
X18015343Y3572660D01*
X18032543Y3550244D01*
X18071971Y3495488D01*
X18078321Y3487371D01*
X18082858Y3482023D01*
X18093268Y3470698D01*
X18096867Y3466416D01*
X18104226Y3456826D01*
X18104230Y3456822D01*
X18116020Y3447775D01*
X18157886Y3390436D01*
X18162105Y3319565D01*
X18152104Y3291652D01*
X18094570Y3176109D01*
X18035840Y2969693D01*
X18035840Y2969689D01*
X18021000Y2809541D01*
X18021000Y2723500D01*
X18779000Y2723500D01*
X18779000Y2088500D01*
X18021000Y2088500D01*
X18021000Y2002460D01*
X18035840Y1842312D01*
X18035840Y1842308D01*
X18094570Y1635891D01*
X18094573Y1635885D01*
X18190227Y1443785D01*
X18190231Y1443780D01*
X18319562Y1272517D01*
X18478159Y1127937D01*
X18478160Y1127936D01*
X18660612Y1014967D01*
X18660628Y1014959D01*
X18860732Y937437D01*
X18860746Y937433D01*
X18861500Y937293D01*
X18861500Y1857814D01*
X18940955Y1778359D01*
X19053852Y1720835D01*
X19179000Y1701014D01*
X19304148Y1720835D01*
X19417045Y1778359D01*
X19506641Y1867955D01*
X19564165Y1980852D01*
X19579000Y2074519D01*
X19579000Y2723500D01*
X19978100Y2723500D01*
X20046221Y2703498D01*
X20092714Y2649842D01*
X20104100Y2597500D01*
X20104100Y898000D01*
X20385185Y898000D01*
X20385197Y898001D01*
X20445693Y904506D01*
X20582564Y955556D01*
X20582565Y955556D01*
X20699504Y1043096D01*
X20787044Y1160035D01*
X20787044Y1160036D01*
X20838094Y1296907D01*
X20844599Y1357403D01*
X20844600Y1357415D01*
X20844600Y2029437D01*
X20864602Y2097558D01*
X20918258Y2144051D01*
X20988532Y2154155D01*
X21053112Y2124661D01*
X21080820Y2090490D01*
X21089667Y2074519D01*
X21158294Y1950626D01*
X21372769Y1645287D01*
X21372771Y1645285D01*
X21618483Y1364475D01*
X21618485Y1364473D01*
X21839940Y1160036D01*
X21892655Y1111372D01*
X22192171Y888850D01*
X22192172Y888848D01*
X22192176Y888846D01*
X22192177Y888845D01*
X22513655Y699416D01*
X22853447Y545231D01*
X22989797Y500124D01*
X23048188Y459739D01*
X23075476Y394196D01*
X23062997Y324305D01*
X23014713Y272255D01*
X22950223Y254500D01*
X4997613Y254500D01*
X4929492Y274502D01*
X4882999Y328158D01*
X4872895Y398432D01*
X4902389Y463012D01*
X4951729Y497848D01*
X4957550Y500124D01*
X5258502Y617799D01*
X5589606Y789850D01*
X5900547Y996120D01*
X6187800Y1234273D01*
X6448113Y1501609D01*
X6678534Y1795101D01*
X6862112Y2088500D01*
X8873400Y2088500D01*
X8873400Y1357403D01*
X8879905Y1296907D01*
X8930955Y1160036D01*
X8930955Y1160035D01*
X9018495Y1043096D01*
X9135434Y955556D01*
X9272306Y904506D01*
X9332802Y898001D01*
X9332815Y898000D01*
X9613900Y898000D01*
X9613900Y2088500D01*
X8873400Y2088500D01*
X6862112Y2088500D01*
X6876454Y2111422D01*
X7039630Y2446989D01*
X7139346Y2723500D01*
X8873400Y2723500D01*
X9613900Y2723500D01*
X9613900Y3914000D01*
X9332802Y3914000D01*
X9272306Y3907495D01*
X9135435Y3856445D01*
X9135434Y3856445D01*
X9018495Y3768905D01*
X8930955Y3651966D01*
X8930955Y3651965D01*
X8879905Y3515094D01*
X8873400Y3454598D01*
X8873400Y2723500D01*
X7139346Y2723500D01*
X7166212Y2798000D01*
X7254768Y3160476D01*
X7304293Y3530312D01*
X7312978Y3856445D01*
X7314226Y3903311D01*
X7314226Y3903317D01*
X7284456Y4275260D01*
X7264138Y4383014D01*
X7215316Y4641941D01*
X7161023Y4822000D01*
X7107599Y4999181D01*
X7107595Y4999190D01*
X7097376Y5023403D01*
X6962510Y5342967D01*
X6863843Y5521092D01*
X6781704Y5669378D01*
X6658599Y5844637D01*
X6635812Y5911877D01*
X6652995Y5980763D01*
X6704692Y6029423D01*
X6774491Y6042410D01*
X6801145Y6031993D01*
X6802539Y6036137D01*
X6806551Y6034788D01*
X6814154Y6031667D01*
X6826434Y6025664D01*
X6826439Y6025660D01*
X6876336Y6010805D01*
X6925577Y5993900D01*
X6925582Y5993900D01*
X6932965Y5992668D01*
X6940343Y5991748D01*
X6940343Y5991749D01*
X6940344Y5991748D01*
X6992367Y5993900D01*
X7192581Y5993900D01*
X7235453Y5986382D01*
X7660419Y5832612D01*
X7668766Y5831240D01*
X7696540Y5823320D01*
X7729246Y5809772D01*
X7874000Y5790715D01*
X8018754Y5809772D01*
X8153643Y5865645D01*
X8269474Y5954526D01*
X8358355Y6070357D01*
X8414228Y6205246D01*
X8422555Y6268500D01*
X8873400Y6268500D01*
X8873400Y5437403D01*
X8879905Y5376907D01*
X8930955Y5240036D01*
X8930955Y5240035D01*
X9018495Y5123096D01*
X9135434Y5035556D01*
X9272306Y4984506D01*
X9332802Y4978001D01*
X9332815Y4978000D01*
X9613900Y4978000D01*
X9613900Y6268500D01*
X8873400Y6268500D01*
X8422555Y6268500D01*
X8433285Y6350000D01*
X8414228Y6494754D01*
X8358355Y6629642D01*
X8269474Y6745474D01*
X8269472Y6745476D01*
X8269471Y6745477D01*
X8153649Y6834351D01*
X8153641Y6834356D01*
X8018752Y6890229D01*
X7874000Y6909285D01*
X7729242Y6890228D01*
X7729240Y6890227D01*
X7696180Y6876534D01*
X7666915Y6868377D01*
X7660424Y6867390D01*
X7660414Y6867388D01*
X7235452Y6713618D01*
X7192580Y6706100D01*
X7184692Y6706100D01*
X7116571Y6726102D01*
X7095597Y6743005D01*
X6006405Y7832197D01*
X5972379Y7894509D01*
X5969500Y7921292D01*
X5969500Y7947108D01*
X5969499Y7947115D01*
X5958949Y7983045D01*
X5928304Y8087411D01*
X5849250Y8210421D01*
X5738743Y8306176D01*
X5605734Y8366919D01*
X5605727Y8366921D01*
X5577175Y8371026D01*
X5512594Y8400520D01*
X5474211Y8460246D01*
X5471533Y8471144D01*
X5465734Y8500301D01*
X5409484Y8584484D01*
X5394843Y8594267D01*
X5325302Y8640734D01*
X5251068Y8655500D01*
X4400936Y8655500D01*
X4400926Y8655499D01*
X4326699Y8640735D01*
X4242515Y8584484D01*
X4186265Y8500303D01*
X4181517Y8488837D01*
X4178734Y8489990D01*
X4154655Y8443976D01*
X4092953Y8408856D01*
X4022059Y8412669D01*
X3964481Y8454205D01*
X3948323Y8489599D01*
X3946483Y8488836D01*
X3941734Y8500302D01*
X3885484Y8584484D01*
X3870843Y8594267D01*
X3840000Y8614876D01*
X3798953Y8660113D01*
X3798482Y8660991D01*
X3794396Y8668614D01*
X3782240Y8691293D01*
X3767687Y8760782D01*
X3769124Y8772228D01*
X3774550Y8803698D01*
X3779787Y8823898D01*
X3788237Y8848046D01*
X3799420Y8947309D01*
X3799941Y8950960D01*
X3800427Y8953784D01*
X3802303Y8964655D01*
X3803241Y8971923D01*
X3803711Y8975556D01*
X3804353Y8983001D01*
X3804836Y8994049D01*
X3805172Y8998356D01*
X3805315Y8999624D01*
X3807274Y9017000D01*
X3788237Y9185954D01*
X3732082Y9346437D01*
X3641624Y9490400D01*
X3641622Y9490403D01*
X3521402Y9610623D01*
X3521399Y9610625D01*
X3377439Y9701081D01*
X3377437Y9701082D01*
X3305693Y9726186D01*
X3216954Y9757237D01*
X3048000Y9776274D01*
X3047999Y9776274D01*
X2923250Y9762218D01*
X2853318Y9774468D01*
X2801110Y9822580D01*
X2783202Y9891281D01*
X2788783Y9924700D01*
X2792758Y9937536D01*
X2794978Y9944705D01*
X2826241Y9996523D01*
X2880109Y10050391D01*
X2884141Y10054084D01*
X2888217Y10057504D01*
X2914360Y10079440D01*
X2934088Y10113612D01*
X2937014Y10118206D01*
X2959651Y10150534D01*
X2959652Y10150537D01*
X2962683Y10157037D01*
X2967985Y10169838D01*
X2970432Y10176560D01*
X2972314Y10187236D01*
X2977282Y10215413D01*
X2978470Y10220769D01*
X2988677Y10258857D01*
X2985725Y10292599D01*
X2985240Y10298150D01*
X2985000Y10303642D01*
X2985000Y11754090D01*
X3005002Y11822211D01*
X3021900Y11843181D01*
X3591303Y12412585D01*
X3595348Y12416290D01*
X3609597Y12428246D01*
X3625560Y12441640D01*
X3633942Y12456158D01*
X3645277Y12475790D01*
X3648224Y12480419D01*
X3670852Y12512734D01*
X3670853Y12512740D01*
X3673879Y12519227D01*
X3679184Y12532037D01*
X3681631Y12538757D01*
X3681724Y12539282D01*
X3688482Y12577617D01*
X3689661Y12582938D01*
X3699877Y12621057D01*
X3697687Y12646082D01*
X3696440Y12660353D01*
X3696200Y12665845D01*
X3696200Y13354291D01*
X3716202Y13422412D01*
X3733100Y13443381D01*
X5039109Y14749391D01*
X5043141Y14753084D01*
X5073360Y14778440D01*
X5093088Y14812612D01*
X5096014Y14817206D01*
X5118651Y14849534D01*
X5118652Y14849537D01*
X5121683Y14856037D01*
X5126985Y14868838D01*
X5129432Y14875560D01*
X5131350Y14886441D01*
X5136282Y14914413D01*
X5137470Y14919769D01*
X5147677Y14957857D01*
X5145574Y14981890D01*
X5144240Y14997150D01*
X5144000Y15002642D01*
X5144000Y19676709D01*
X5164002Y19744830D01*
X5217658Y19791323D01*
X5287932Y19801427D01*
X5346704Y19776671D01*
X5388200Y19744830D01*
X5435357Y19708645D01*
X5570246Y19652772D01*
X5715000Y19633715D01*
X5859754Y19652772D01*
X5908827Y19673100D01*
X5929733Y19679695D01*
X5945302Y19683151D01*
X6025458Y19718450D01*
X6356694Y19864314D01*
X6407474Y19875000D01*
X8246709Y19875000D01*
X8314830Y19854998D01*
G37*
%TD.AperFunction*%
%TA.AperFunction,Conductor*%
G36*
X19496500Y4978000D02*
G01*
X19501286Y4978000D01*
X19569407Y4957998D01*
X19615900Y4904342D01*
X19626004Y4834068D01*
X19596510Y4769488D01*
X19590389Y4762914D01*
X19469429Y4641953D01*
X19137191Y4309716D01*
X19074879Y4275691D01*
X19010844Y4278445D01*
X18701390Y4374218D01*
X18701383Y4374220D01*
X18701382Y4374220D01*
X18701380Y4374221D01*
X18701377Y4374221D01*
X18699578Y4374452D01*
X18696327Y4375318D01*
X18696077Y4375372D01*
X18696079Y4375384D01*
X18667426Y4383014D01*
X18644458Y4392527D01*
X18644454Y4392528D01*
X18610936Y4396942D01*
X18604961Y4398023D01*
X18485074Y4425750D01*
X18436075Y4449078D01*
X18395886Y4480358D01*
X18388864Y4484158D01*
X18381672Y4487674D01*
X18381670Y4487675D01*
X18381667Y4487676D01*
X18328212Y4503591D01*
X18275464Y4521699D01*
X18275463Y4521700D01*
X18275461Y4521700D01*
X18275458Y4521700D01*
X18267548Y4523021D01*
X18259642Y4524006D01*
X18203916Y4521700D01*
X18066434Y4521700D01*
X18061079Y4521928D01*
X18060057Y4522015D01*
X18030648Y4523687D01*
X18022940Y4523148D01*
X18008253Y4521700D01*
X16953227Y4521700D01*
X16885106Y4541702D01*
X16838613Y4595358D01*
X16828509Y4665632D01*
X16858003Y4730212D01*
X16864117Y4736781D01*
X17130407Y5003071D01*
X17144240Y5015025D01*
X17163822Y5029602D01*
X17197952Y5070279D01*
X17201651Y5074315D01*
X17207573Y5080235D01*
X17228242Y5106376D01*
X17278396Y5166147D01*
X17278399Y5166152D01*
X17282430Y5172280D01*
X17282483Y5172246D01*
X17286594Y5178699D01*
X17286541Y5178732D01*
X17290394Y5184979D01*
X17323371Y5255699D01*
X17348513Y5305760D01*
X17358394Y5325434D01*
X17358394Y5325436D01*
X17358396Y5325439D01*
X17360907Y5332337D01*
X17360965Y5332316D01*
X17363477Y5339545D01*
X17363417Y5339565D01*
X17365722Y5346523D01*
X17365725Y5346527D01*
X17381500Y5422932D01*
X17393510Y5473604D01*
X17428683Y5535276D01*
X17491614Y5568141D01*
X17550108Y5565873D01*
X17672786Y5531500D01*
X17672788Y5531500D01*
X17786927Y5531500D01*
X17786937Y5531501D01*
X17876249Y5543778D01*
X17900009Y5547043D01*
X18039818Y5607770D01*
X18039820Y5607772D01*
X18045353Y5610175D01*
X18115803Y5618968D01*
X18179823Y5588277D01*
X18207544Y5552343D01*
X18242650Y5484246D01*
X18373455Y5317915D01*
X18373460Y5317909D01*
X18533374Y5179344D01*
X18533375Y5179343D01*
X18716622Y5073546D01*
X18716630Y5073542D01*
X18861500Y5023403D01*
X18861500Y5887814D01*
X18940955Y5808359D01*
X19053852Y5750835D01*
X19179000Y5731014D01*
X19304148Y5750835D01*
X19417045Y5808359D01*
X19496500Y5887814D01*
X19496500Y4978000D01*
G37*
%TD.AperFunction*%
%TA.AperFunction,Conductor*%
G36*
X25699407Y8266847D02*
G01*
X25728881Y8238741D01*
X25821323Y8116329D01*
X25821326Y8116327D01*
X25821327Y8116325D01*
X25977933Y7973559D01*
X26158108Y7861999D01*
X26158110Y7861999D01*
X26158115Y7861995D01*
X26355726Y7785440D01*
X26564039Y7746500D01*
X26564041Y7746500D01*
X26775959Y7746500D01*
X26775961Y7746500D01*
X26984274Y7785440D01*
X27181885Y7861995D01*
X27362065Y7973558D01*
X27474614Y8076160D01*
X27538431Y8107271D01*
X27608937Y8098941D01*
X27663748Y8053815D01*
X27685460Y7986220D01*
X27685500Y7983045D01*
X27685500Y4998193D01*
X27665498Y4930072D01*
X27611842Y4883579D01*
X27541568Y4873475D01*
X27476988Y4902969D01*
X27438865Y4961818D01*
X27427599Y4999180D01*
X27427595Y4999190D01*
X27417376Y5023403D01*
X27282510Y5342967D01*
X27101706Y5669374D01*
X26887231Y5974713D01*
X26773649Y6104519D01*
X26641516Y6255526D01*
X26641514Y6255528D01*
X26367344Y6508629D01*
X26148291Y6671372D01*
X26067827Y6731152D01*
X26067827Y6731153D01*
X25836623Y6867388D01*
X25746345Y6920584D01*
X25406553Y7074769D01*
X25320754Y7103153D01*
X25184645Y7148181D01*
X25126253Y7188567D01*
X25098966Y7254110D01*
X25111445Y7324001D01*
X25154214Y7372568D01*
X25221484Y7417516D01*
X25277734Y7501699D01*
X25292500Y7575933D01*
X25292499Y7735577D01*
X25305403Y7791123D01*
X25515237Y8218357D01*
X25563219Y8270681D01*
X25631876Y8288758D01*
X25699407Y8266847D01*
G37*
%TD.AperFunction*%
%TA.AperFunction,Conductor*%
G36*
X15884698Y6673267D02*
G01*
X15884699Y6673266D01*
X15894224Y6671372D01*
X15957133Y6638465D01*
X15992265Y6576770D01*
X15988465Y6505875D01*
X15982240Y6491244D01*
X15915606Y6358567D01*
X15915606Y6358566D01*
X15874792Y6186352D01*
X15874500Y6185122D01*
X15874500Y5956028D01*
X15854498Y5887907D01*
X15837595Y5866933D01*
X15723067Y5752405D01*
X15660755Y5718379D01*
X15633972Y5715500D01*
X15465637Y5715500D01*
X15397516Y5735502D01*
X15351023Y5789158D01*
X15340919Y5859432D01*
X15366191Y5918872D01*
X15368195Y5921449D01*
X15374034Y5928951D01*
X15379185Y5934784D01*
X15381666Y5937264D01*
X15394539Y5955295D01*
X15426511Y5996372D01*
X15426513Y5996380D01*
X15430065Y6002943D01*
X15433333Y6009631D01*
X15433340Y6009639D01*
X15448195Y6059537D01*
X15465100Y6108777D01*
X15465100Y6108786D01*
X15466326Y6116133D01*
X15466330Y6116161D01*
X15466336Y6116201D01*
X15467252Y6123545D01*
X15465100Y6175568D01*
X15465100Y6532501D01*
X15485102Y6600622D01*
X15538758Y6647115D01*
X15591100Y6658501D01*
X15759064Y6658501D01*
X15759066Y6658501D01*
X15833301Y6673266D01*
X15833302Y6673268D01*
X15834418Y6673489D01*
X15883580Y6673489D01*
X15884698Y6673267D01*
G37*
%TD.AperFunction*%
%TA.AperFunction,Conductor*%
G36*
X22377532Y8398845D02*
G01*
X22434368Y8356298D01*
X22459179Y8289778D01*
X22459500Y8280789D01*
X22459500Y7575937D01*
X22459501Y7575927D01*
X22474265Y7501700D01*
X22530516Y7417516D01*
X22614697Y7361267D01*
X22614699Y7361266D01*
X22688933Y7346500D01*
X22893796Y7346501D01*
X22961915Y7326499D01*
X23008408Y7272844D01*
X23018513Y7202570D01*
X22989020Y7137989D01*
X22939680Y7103153D01*
X22788139Y7043899D01*
X22681498Y7002201D01*
X22681488Y7002197D01*
X22681486Y7002195D01*
X22350400Y6830154D01*
X22350397Y6830152D01*
X22039452Y6623880D01*
X22039445Y6623875D01*
X21752193Y6385722D01*
X21752192Y6385721D01*
X21491889Y6118394D01*
X21491887Y6118392D01*
X21434606Y6045431D01*
X21376807Y6004202D01*
X21305893Y6000767D01*
X21244380Y6036215D01*
X21211796Y6099293D01*
X21209500Y6123239D01*
X21209500Y7282788D01*
X21229502Y7350909D01*
X21246405Y7371883D01*
X21743624Y7869102D01*
X22244407Y8369886D01*
X22306717Y8403909D01*
X22377532Y8398845D01*
G37*
%TD.AperFunction*%
%TA.AperFunction,Conductor*%
G36*
X14751348Y10139498D02*
G01*
X14797841Y10085842D01*
X14807945Y10015568D01*
X14778451Y9950988D01*
X14768758Y9941792D01*
X14735259Y9905402D01*
X14728984Y9898586D01*
X14443586Y9613189D01*
X14381276Y9579165D01*
X14354493Y9576285D01*
X14351000Y9576285D01*
X14206247Y9557229D01*
X14138802Y9529292D01*
X14071358Y9501355D01*
X14071357Y9501354D01*
X14071356Y9501354D01*
X13955526Y9412474D01*
X13866646Y9296644D01*
X13866645Y9296642D01*
X13853049Y9263818D01*
X13810771Y9161753D01*
X13791715Y9017001D01*
X13791715Y9017000D01*
X13810771Y8872248D01*
X13810772Y8872246D01*
X13857638Y8759101D01*
X13869038Y8731581D01*
X13876627Y8660991D01*
X13844848Y8597504D01*
X13783790Y8561277D01*
X13712838Y8563811D01*
X13663534Y8594267D01*
X13473504Y8784297D01*
X13278353Y8979448D01*
X13261969Y8999624D01*
X13256814Y9007515D01*
X13256811Y9007518D01*
X13230447Y9028037D01*
X13224599Y9033202D01*
X13222135Y9035666D01*
X13222129Y9035670D01*
X13222130Y9035670D01*
X13204111Y9048536D01*
X13163025Y9080513D01*
X13157605Y9083446D01*
X13107217Y9133461D01*
X13091868Y9202779D01*
X13116431Y9269391D01*
X13128484Y9283353D01*
X13300514Y9455382D01*
X13687136Y9842004D01*
X13906729Y10061596D01*
X13969041Y10095621D01*
X13995824Y10098500D01*
X14042930Y10098500D01*
X14058798Y10096748D01*
X14058826Y10097038D01*
X14066718Y10096292D01*
X14066718Y10096293D01*
X14066719Y10096292D01*
X14136985Y10098500D01*
X14166983Y10098500D01*
X14173969Y10099383D01*
X14179873Y10099848D01*
X14227205Y10101335D01*
X14246751Y10107015D01*
X14266102Y10111022D01*
X14286299Y10113573D01*
X14330332Y10131008D01*
X14335915Y10132919D01*
X14381393Y10146131D01*
X14381396Y10146134D01*
X14388342Y10149138D01*
X14438380Y10159500D01*
X14683227Y10159500D01*
X14751348Y10139498D01*
G37*
%TD.AperFunction*%
%TA.AperFunction,Conductor*%
G36*
X17223121Y10139498D02*
G01*
X17269614Y10085842D01*
X17279718Y10015568D01*
X17250224Y9950988D01*
X17203221Y9917093D01*
X17119358Y9882355D01*
X17119357Y9882354D01*
X17119356Y9882354D01*
X17003526Y9793474D01*
X16914644Y9677641D01*
X16914642Y9677638D01*
X16877610Y9588235D01*
X16875708Y9584077D01*
X16868157Y9569039D01*
X16868154Y9569030D01*
X16866203Y9561956D01*
X16863675Y9554597D01*
X16858774Y9542763D01*
X16858770Y9542750D01*
X16857383Y9532212D01*
X16855656Y9523687D01*
X16753218Y9152058D01*
X16720843Y9096446D01*
X16598595Y8974198D01*
X16536283Y8940172D01*
X16465468Y8945237D01*
X16408632Y8987784D01*
X16383821Y9054304D01*
X16383500Y9063293D01*
X16383500Y9195605D01*
X16386181Y9221460D01*
X16388115Y9230681D01*
X16383983Y9263828D01*
X16383500Y9271618D01*
X16383500Y9275109D01*
X16379853Y9296962D01*
X16373686Y9346438D01*
X16373415Y9348614D01*
X16373413Y9348617D01*
X16371278Y9355789D01*
X16368863Y9362824D01*
X16344083Y9408614D01*
X16321219Y9455382D01*
X16321219Y9455383D01*
X16321216Y9455386D01*
X16316876Y9461466D01*
X16312300Y9467343D01*
X16312299Y9467346D01*
X16293148Y9484976D01*
X16273997Y9502606D01*
X15908156Y9868445D01*
X15891767Y9888627D01*
X15886614Y9896515D01*
X15886611Y9896518D01*
X15860247Y9917037D01*
X15854399Y9922202D01*
X15851935Y9924666D01*
X15851928Y9924671D01*
X15851928Y9924672D01*
X15843125Y9930957D01*
X15799309Y9986820D01*
X15792651Y10057504D01*
X15825264Y10120566D01*
X15886794Y10155986D01*
X15916343Y10159500D01*
X15976933Y10159500D01*
X16420877Y10159500D01*
X17155000Y10159500D01*
X17223121Y10139498D01*
G37*
%TD.AperFunction*%
%TA.AperFunction,Conductor*%
G36*
X20733011Y33362859D02*
G01*
X20771134Y33304009D01*
X20832400Y33100820D01*
X20832404Y33100811D01*
X20977485Y32757044D01*
X20977493Y32757027D01*
X21071122Y32587999D01*
X21158294Y32430626D01*
X21372769Y32125287D01*
X21372771Y32125285D01*
X21618483Y31844475D01*
X21618485Y31844473D01*
X21820548Y31657938D01*
X21892655Y31591372D01*
X22192171Y31368850D01*
X22192172Y31368848D01*
X22192176Y31368846D01*
X22192177Y31368845D01*
X22513655Y31179416D01*
X22853447Y31025231D01*
X23207702Y30908037D01*
X23207712Y30908035D01*
X23207715Y30908034D01*
X23244155Y30900153D01*
X23306509Y30866204D01*
X23340610Y30803933D01*
X23335631Y30733111D01*
X23318390Y30701491D01*
X23286556Y30658966D01*
X23286555Y30658965D01*
X23235505Y30522094D01*
X23229000Y30461598D01*
X23229000Y30205500D01*
X24895000Y30205500D01*
X24895000Y30461586D01*
X24894999Y30461598D01*
X24888494Y30522094D01*
X24837444Y30658965D01*
X24837443Y30658967D01*
X24826860Y30673104D01*
X24802048Y30739624D01*
X24817139Y30808998D01*
X24867340Y30859201D01*
X24894574Y30870175D01*
X25230986Y30961917D01*
X25578502Y31097799D01*
X25909606Y31269850D01*
X26220547Y31476120D01*
X26507800Y31714273D01*
X26768113Y31981609D01*
X26998534Y32275101D01*
X27196454Y32591422D01*
X27359630Y32926989D01*
X27422317Y33100820D01*
X27440972Y33152549D01*
X27482897Y33209845D01*
X27549143Y33235379D01*
X27618677Y33221044D01*
X27669423Y33171391D01*
X27685500Y33109805D01*
X27685500Y30479500D01*
X27665498Y30411379D01*
X27611842Y30364886D01*
X27559500Y30353500D01*
X25755936Y30353500D01*
X25755926Y30353499D01*
X25681699Y30338735D01*
X25597515Y30282484D01*
X25541266Y30198303D01*
X25526500Y30124070D01*
X25526500Y28295937D01*
X25526501Y28295927D01*
X25541265Y28221700D01*
X25597516Y28137516D01*
X25681697Y28081267D01*
X25681699Y28081266D01*
X25755933Y28066500D01*
X25817742Y28066501D01*
X25885860Y28046500D01*
X25932354Y27992845D01*
X25942459Y27922571D01*
X25938885Y27914747D01*
X25930668Y27858345D01*
X26620926Y27168087D01*
X26527685Y27154680D01*
X26396900Y27094952D01*
X26288239Y27000798D01*
X26210507Y26879844D01*
X26170000Y26741889D01*
X26170000Y26720988D01*
X25483258Y27407730D01*
X25483256Y27407730D01*
X25437164Y27337177D01*
X25437161Y27337172D01*
X25344166Y27125164D01*
X25344163Y27125157D01*
X25287332Y26900735D01*
X25268212Y26670000D01*
X25287332Y26439266D01*
X25344163Y26214844D01*
X25344166Y26214837D01*
X25437161Y26002829D01*
X25437164Y26002824D01*
X25483257Y25932272D01*
X26170000Y26619015D01*
X26170000Y26598111D01*
X26210507Y26460156D01*
X26288239Y26339202D01*
X26396900Y26245048D01*
X26527685Y26185320D01*
X26620924Y26171915D01*
X25930668Y25481658D01*
X25930668Y25481656D01*
X26106908Y25386281D01*
X26106910Y25386280D01*
X26125546Y25379882D01*
X26183482Y25338846D01*
X26210036Y25273002D01*
X26196776Y25203255D01*
X26150968Y25153581D01*
X25977934Y25046442D01*
X25821324Y24903674D01*
X25693612Y24734556D01*
X25599150Y24544850D01*
X25599147Y24544842D01*
X25541154Y24341017D01*
X25521601Y24130005D01*
X25521601Y24129996D01*
X25541154Y23918984D01*
X25598688Y23716772D01*
X25599150Y23715150D01*
X25693611Y23525446D01*
X25693612Y23525445D01*
X25821324Y23356327D01*
X25977933Y23213559D01*
X26158108Y23101999D01*
X26158110Y23101999D01*
X26158115Y23101995D01*
X26355726Y23025440D01*
X26564039Y22986500D01*
X26564041Y22986500D01*
X26775959Y22986500D01*
X26775961Y22986500D01*
X26984274Y23025440D01*
X27181885Y23101995D01*
X27362065Y23213558D01*
X27474614Y23316160D01*
X27538431Y23347271D01*
X27608937Y23338941D01*
X27663748Y23293815D01*
X27685460Y23226220D01*
X27685500Y23223045D01*
X27685500Y22496956D01*
X27665498Y22428835D01*
X27611842Y22382342D01*
X27541568Y22372238D01*
X27476988Y22401732D01*
X27474615Y22403841D01*
X27362070Y22506439D01*
X27362067Y22506441D01*
X27181891Y22618002D01*
X27181886Y22618004D01*
X27181885Y22618005D01*
X27181880Y22618007D01*
X26984277Y22694559D01*
X26984278Y22694559D01*
X26984275Y22694560D01*
X26984274Y22694560D01*
X26775961Y22733500D01*
X26564039Y22733500D01*
X26355726Y22694560D01*
X26355721Y22694559D01*
X26158119Y22618007D01*
X26158108Y22618002D01*
X25977933Y22506442D01*
X25821324Y22363674D01*
X25693612Y22194556D01*
X25599150Y22004850D01*
X25599147Y22004842D01*
X25541154Y21801017D01*
X25521601Y21590005D01*
X25521601Y21589996D01*
X25541154Y21378984D01*
X25584913Y21225186D01*
X25599150Y21175150D01*
X25693611Y20985446D01*
X25711446Y20961829D01*
X25821324Y20816327D01*
X25977933Y20673559D01*
X26158108Y20561999D01*
X26158110Y20561999D01*
X26158115Y20561995D01*
X26355726Y20485440D01*
X26564039Y20446500D01*
X26564041Y20446500D01*
X26775959Y20446500D01*
X26775961Y20446500D01*
X26984274Y20485440D01*
X27181885Y20561995D01*
X27362065Y20673558D01*
X27433931Y20739073D01*
X27474614Y20776160D01*
X27538431Y20807271D01*
X27608937Y20798941D01*
X27663748Y20753815D01*
X27685460Y20686220D01*
X27685500Y20683045D01*
X27685500Y19956956D01*
X27665498Y19888835D01*
X27611842Y19842342D01*
X27541568Y19832238D01*
X27476988Y19861732D01*
X27474615Y19863841D01*
X27362070Y19966439D01*
X27362067Y19966441D01*
X27181891Y20078002D01*
X27181886Y20078004D01*
X27181885Y20078005D01*
X26984277Y20154559D01*
X26984278Y20154559D01*
X26984275Y20154560D01*
X26984274Y20154560D01*
X26775961Y20193500D01*
X26564039Y20193500D01*
X26355726Y20154560D01*
X26355721Y20154559D01*
X26158119Y20078007D01*
X26158108Y20078002D01*
X25977933Y19966442D01*
X25821324Y19823674D01*
X25693612Y19654556D01*
X25599150Y19464850D01*
X25599147Y19464842D01*
X25541154Y19261017D01*
X25521601Y19050005D01*
X25521601Y19049996D01*
X25541154Y18838984D01*
X25595382Y18648391D01*
X25599150Y18635150D01*
X25693611Y18445446D01*
X25693612Y18445445D01*
X25821324Y18276327D01*
X25977933Y18133559D01*
X26158108Y18021999D01*
X26158110Y18021999D01*
X26158115Y18021995D01*
X26355726Y17945440D01*
X26564039Y17906500D01*
X26564041Y17906500D01*
X26775959Y17906500D01*
X26775961Y17906500D01*
X26984274Y17945440D01*
X27181885Y18021995D01*
X27362065Y18133558D01*
X27474614Y18236160D01*
X27538431Y18267271D01*
X27608937Y18258941D01*
X27663748Y18213815D01*
X27685460Y18146220D01*
X27685500Y18143045D01*
X27685500Y17416956D01*
X27665498Y17348835D01*
X27611842Y17302342D01*
X27541568Y17292238D01*
X27476988Y17321732D01*
X27474615Y17323841D01*
X27362070Y17426439D01*
X27362067Y17426441D01*
X27181891Y17538002D01*
X27181886Y17538004D01*
X27181885Y17538005D01*
X26984277Y17614559D01*
X26984278Y17614559D01*
X26984275Y17614560D01*
X26984274Y17614560D01*
X26775961Y17653500D01*
X26564039Y17653500D01*
X26385625Y17620149D01*
X26355721Y17614559D01*
X26158119Y17538007D01*
X26158108Y17538002D01*
X25977933Y17426442D01*
X25821324Y17283674D01*
X25693612Y17114556D01*
X25599150Y16924850D01*
X25599147Y16924842D01*
X25541154Y16721017D01*
X25521601Y16510005D01*
X25521601Y16509996D01*
X25541154Y16298984D01*
X25593605Y16114636D01*
X25599150Y16095150D01*
X25693611Y15905446D01*
X25735017Y15850616D01*
X25821324Y15736327D01*
X25977933Y15593559D01*
X26158108Y15481999D01*
X26158110Y15481999D01*
X26158115Y15481995D01*
X26355726Y15405440D01*
X26564039Y15366500D01*
X26564041Y15366500D01*
X26775959Y15366500D01*
X26775961Y15366500D01*
X26984274Y15405440D01*
X27181885Y15481995D01*
X27362065Y15593558D01*
X27474614Y15696160D01*
X27538431Y15727271D01*
X27608937Y15718941D01*
X27663748Y15673815D01*
X27685460Y15606220D01*
X27685500Y15603045D01*
X27685500Y14876956D01*
X27665498Y14808835D01*
X27611842Y14762342D01*
X27541568Y14752238D01*
X27476988Y14781732D01*
X27474615Y14783841D01*
X27362070Y14886439D01*
X27362067Y14886441D01*
X27181891Y14998002D01*
X27181886Y14998004D01*
X27181885Y14998005D01*
X27155602Y15008187D01*
X26984277Y15074559D01*
X26984278Y15074559D01*
X26984275Y15074560D01*
X26984274Y15074560D01*
X26775961Y15113500D01*
X26564039Y15113500D01*
X26355726Y15074560D01*
X26355721Y15074559D01*
X26158119Y14998007D01*
X26158108Y14998002D01*
X25977933Y14886442D01*
X25821324Y14743674D01*
X25693612Y14574556D01*
X25599150Y14384850D01*
X25599147Y14384842D01*
X25541154Y14181017D01*
X25521601Y13970005D01*
X25521601Y13969996D01*
X25541154Y13758984D01*
X25596246Y13565354D01*
X25599150Y13555150D01*
X25693611Y13365446D01*
X25721142Y13328989D01*
X25821324Y13196327D01*
X25977933Y13053559D01*
X26158108Y12941999D01*
X26158110Y12941999D01*
X26158115Y12941995D01*
X26355726Y12865440D01*
X26564039Y12826500D01*
X26564041Y12826500D01*
X26775959Y12826500D01*
X26775961Y12826500D01*
X26984274Y12865440D01*
X27181885Y12941995D01*
X27362065Y13053558D01*
X27474614Y13156160D01*
X27538431Y13187271D01*
X27608937Y13178941D01*
X27663748Y13133815D01*
X27685460Y13066220D01*
X27685500Y13063045D01*
X27685500Y12336956D01*
X27665498Y12268835D01*
X27611842Y12222342D01*
X27541568Y12212238D01*
X27476988Y12241732D01*
X27474615Y12243841D01*
X27362070Y12346439D01*
X27362064Y12346443D01*
X27181891Y12458002D01*
X27181886Y12458004D01*
X27181885Y12458005D01*
X27135977Y12475790D01*
X26984277Y12534559D01*
X26984278Y12534559D01*
X26984275Y12534560D01*
X26984274Y12534560D01*
X26775961Y12573500D01*
X26564039Y12573500D01*
X26355726Y12534560D01*
X26355721Y12534559D01*
X26158119Y12458007D01*
X26158108Y12458002D01*
X25977936Y12346443D01*
X25977935Y12346443D01*
X25821324Y12203674D01*
X25693610Y12034553D01*
X25634988Y11916825D01*
X25622905Y11898953D01*
X25623694Y11898376D01*
X25620042Y11893384D01*
X25322960Y11390118D01*
X25303550Y11365075D01*
X25167455Y11228980D01*
X25147282Y11212596D01*
X25138041Y11206558D01*
X25132568Y11201520D01*
X25068902Y11170103D01*
X24998792Y11178045D01*
X24998768Y11177985D01*
X24998560Y11178071D01*
X24998356Y11178094D01*
X24997860Y11178361D01*
X24987303Y11182734D01*
X24913068Y11197500D01*
X24362936Y11197500D01*
X24362926Y11197499D01*
X24288699Y11182735D01*
X24200002Y11123468D01*
X24132250Y11102253D01*
X24063783Y11121036D01*
X24059997Y11123468D01*
X24055484Y11126484D01*
X23991243Y11169409D01*
X23971300Y11182735D01*
X23897068Y11197500D01*
X23346936Y11197500D01*
X23346926Y11197499D01*
X23272699Y11182735D01*
X23188515Y11126484D01*
X23165462Y11091984D01*
X23110984Y11046458D01*
X23040540Y11037612D01*
X22976497Y11068255D01*
X22955937Y11091984D01*
X22903484Y11170484D01*
X22903483Y11170485D01*
X22819302Y11226734D01*
X22745069Y11241500D01*
X22745067Y11241500D01*
X22149028Y11241500D01*
X22080907Y11261502D01*
X22034414Y11315158D01*
X22024310Y11385432D01*
X22053804Y11450012D01*
X22059933Y11456595D01*
X22184934Y11581596D01*
X22247246Y11615622D01*
X22274029Y11618501D01*
X22745064Y11618501D01*
X22745066Y11618501D01*
X22745069Y11618502D01*
X22745072Y11618502D01*
X22786062Y11626655D01*
X22819301Y11633266D01*
X22903484Y11689516D01*
X22959734Y11773699D01*
X22974500Y11847933D01*
X22974499Y12419998D01*
X22975640Y12433037D01*
X22976142Y12441641D01*
X22986392Y12617637D01*
X22978377Y12663090D01*
X22976413Y12674231D01*
X22974499Y12696110D01*
X22974499Y13298064D01*
X22974498Y13298073D01*
X22959734Y13372301D01*
X22936896Y13406480D01*
X22903484Y13456484D01*
X22903483Y13456485D01*
X22819302Y13512734D01*
X22745067Y13527500D01*
X21694936Y13527500D01*
X21694926Y13527499D01*
X21620699Y13512735D01*
X21536515Y13456484D01*
X21480266Y13372303D01*
X21465500Y13298070D01*
X21465500Y13071029D01*
X21445498Y13002908D01*
X21428599Y12981939D01*
X21109751Y12663090D01*
X20791465Y12344804D01*
X20729153Y12310779D01*
X20658337Y12315844D01*
X20601502Y12358391D01*
X20585962Y12385681D01*
X20550357Y12471637D01*
X20550355Y12471642D01*
X20461474Y12587474D01*
X20461472Y12587476D01*
X20461471Y12587477D01*
X20345649Y12676351D01*
X20345641Y12676356D01*
X20210752Y12732229D01*
X20066001Y12751285D01*
X20066000Y12751285D01*
X20060284Y12750533D01*
X20039821Y12750416D01*
X20039805Y12749645D01*
X20033610Y12749779D01*
X20033609Y12749779D01*
X20033606Y12749779D01*
X19573516Y12714507D01*
X19504066Y12729243D01*
X19477463Y12748447D01*
X19214072Y12996721D01*
X19178223Y13058001D01*
X19174499Y13088408D01*
X19174499Y13298064D01*
X19174498Y13298073D01*
X19159734Y13372301D01*
X19136896Y13406480D01*
X19103484Y13456484D01*
X19103483Y13456485D01*
X19019302Y13512734D01*
X18945067Y13527500D01*
X17894936Y13527500D01*
X17894926Y13527499D01*
X17820699Y13512735D01*
X17736516Y13456485D01*
X17700655Y13402816D01*
X17646177Y13357290D01*
X17575734Y13348443D01*
X17511690Y13379085D01*
X17477835Y13428787D01*
X17468443Y13453967D01*
X17380904Y13570905D01*
X17263965Y13658445D01*
X17127093Y13709495D01*
X17066597Y13716000D01*
X16827500Y13716000D01*
X16827500Y12508500D01*
X16807498Y12440379D01*
X16753842Y12393886D01*
X16701500Y12382500D01*
X16318500Y12382500D01*
X16250379Y12402502D01*
X16203886Y12456158D01*
X16192500Y12508500D01*
X16192500Y13716001D01*
X16158386Y13750115D01*
X16124360Y13812427D01*
X16123400Y13817302D01*
X16102440Y13936176D01*
X16072926Y14004596D01*
X16064312Y14075066D01*
X16095164Y14139009D01*
X16155688Y14176121D01*
X16188615Y14180501D01*
X17035066Y14180501D01*
X17035069Y14180502D01*
X17035073Y14180502D01*
X17084326Y14190299D01*
X17109301Y14195266D01*
X17193484Y14251516D01*
X17249734Y14335699D01*
X17264500Y14409933D01*
X17264499Y15951124D01*
X17284501Y16019244D01*
X17338157Y16065737D01*
X17408431Y16075841D01*
X17467202Y16051086D01*
X17500357Y16025645D01*
X17635246Y15969772D01*
X17780000Y15950715D01*
X17924754Y15969772D01*
X18059643Y16025645D01*
X18092796Y16051086D01*
X18159014Y16076686D01*
X18228563Y16062422D01*
X18279360Y16012822D01*
X18295500Y15951123D01*
X18295500Y14409937D01*
X18295501Y14409927D01*
X18310265Y14335700D01*
X18366516Y14251516D01*
X18450697Y14195267D01*
X18450699Y14195266D01*
X18524933Y14180500D01*
X19575066Y14180501D01*
X19575069Y14180502D01*
X19575073Y14180502D01*
X19624326Y14190299D01*
X19649301Y14195266D01*
X19733484Y14251516D01*
X19789734Y14335699D01*
X19804500Y14409933D01*
X19804499Y17307543D01*
X19824501Y17375663D01*
X19878157Y17422156D01*
X19948431Y17432260D01*
X20011488Y17404065D01*
X20025147Y17392604D01*
X20025151Y17392602D01*
X20184427Y17312609D01*
X20184430Y17312608D01*
X20184434Y17312606D01*
X20357877Y17271500D01*
X22160272Y17271500D01*
X22178532Y17270170D01*
X22180741Y17269847D01*
X22202672Y17266634D01*
X22236105Y17269560D01*
X22255555Y17271260D01*
X22261048Y17271500D01*
X22269414Y17271500D01*
X22302511Y17275369D01*
X22380240Y17282169D01*
X22380246Y17282172D01*
X22387425Y17283653D01*
X22387437Y17283593D01*
X22394914Y17285251D01*
X22394900Y17285310D01*
X22402029Y17287001D01*
X22402042Y17287002D01*
X22475369Y17313691D01*
X22549440Y17338235D01*
X22549443Y17338238D01*
X22556090Y17341336D01*
X22556116Y17341280D01*
X22563003Y17344614D01*
X22562976Y17344669D01*
X22569533Y17347963D01*
X22569535Y17347965D01*
X22569539Y17347966D01*
X22611649Y17375663D01*
X22634739Y17390849D01*
X22671916Y17413781D01*
X22701149Y17431812D01*
X22701152Y17431815D01*
X22706909Y17436366D01*
X22706947Y17436318D01*
X22712874Y17441145D01*
X22712834Y17441193D01*
X22718453Y17445910D01*
X22718462Y17445915D01*
X22757861Y17487676D01*
X22772022Y17502685D01*
X23508827Y18239492D01*
X24242401Y18973065D01*
X24256240Y18985025D01*
X24275822Y18999602D01*
X24309952Y19040279D01*
X24313651Y19044315D01*
X24319573Y19050235D01*
X24340245Y19076380D01*
X24390396Y19136147D01*
X24390398Y19136152D01*
X24394430Y19142280D01*
X24394483Y19142245D01*
X24398595Y19148700D01*
X24398541Y19148733D01*
X24402390Y19154975D01*
X24402395Y19154980D01*
X24435377Y19225712D01*
X24470394Y19295434D01*
X24470394Y19295436D01*
X24470396Y19295439D01*
X24472908Y19302339D01*
X24472966Y19302318D01*
X24475475Y19309538D01*
X24475416Y19309557D01*
X24477722Y19316522D01*
X24477725Y19316526D01*
X24493502Y19392939D01*
X24511500Y19468877D01*
X24511500Y19468884D01*
X24512352Y19476166D01*
X24512412Y19476159D01*
X24513190Y19483774D01*
X24513129Y19483779D01*
X24513767Y19491083D01*
X24513769Y19491091D01*
X24511500Y19569076D01*
X24511500Y24065266D01*
X24512830Y24083527D01*
X24515881Y24104357D01*
X24516367Y24107672D01*
X24511739Y24160560D01*
X24511500Y24166047D01*
X24511500Y24174415D01*
X24507633Y24207497D01*
X24500832Y24285233D01*
X24499347Y24292425D01*
X24499407Y24292438D01*
X24497750Y24299915D01*
X24497691Y24299900D01*
X24495998Y24307041D01*
X24491475Y24319467D01*
X24469309Y24380370D01*
X24444765Y24454440D01*
X24444762Y24454444D01*
X24441664Y24461090D01*
X24441718Y24461116D01*
X24438380Y24468012D01*
X24438325Y24467984D01*
X24435036Y24474532D01*
X24435034Y24474539D01*
X24406927Y24517273D01*
X24386205Y24585176D01*
X24405484Y24653505D01*
X24458645Y24700564D01*
X24488600Y24708952D01*
X24488425Y24709693D01*
X24496091Y24711505D01*
X24632964Y24762556D01*
X24632965Y24762556D01*
X24749904Y24850096D01*
X24837444Y24967035D01*
X24837444Y24967036D01*
X24888494Y25103907D01*
X24894999Y25164403D01*
X24895000Y25164415D01*
X24895000Y25420500D01*
X23875500Y25420500D01*
X23807379Y25440502D01*
X23760886Y25494158D01*
X23749500Y25546500D01*
X23749500Y26771000D01*
X24379500Y26771000D01*
X24379500Y26055500D01*
X24895000Y26055500D01*
X24895000Y26311586D01*
X24894999Y26311598D01*
X24888494Y26372094D01*
X24837444Y26508965D01*
X24837444Y26508966D01*
X24749904Y26625905D01*
X24632965Y26713445D01*
X24496093Y26764495D01*
X24435597Y26771000D01*
X24379500Y26771000D01*
X23749500Y26771000D01*
X23749500Y28873415D01*
X23744926Y28912543D01*
X23744500Y28919864D01*
X23744500Y29570500D01*
X24379500Y29570500D01*
X24379500Y28855000D01*
X24435585Y28855000D01*
X24435597Y28855001D01*
X24496093Y28861506D01*
X24632964Y28912556D01*
X24632965Y28912556D01*
X24749904Y29000096D01*
X24837444Y29117035D01*
X24837444Y29117036D01*
X24888494Y29253907D01*
X24894999Y29314403D01*
X24895000Y29314415D01*
X24895000Y29570500D01*
X24379500Y29570500D01*
X23744500Y29570500D01*
X23187291Y29570500D01*
X23151155Y29575793D01*
X23120308Y29585028D01*
X22942367Y29595392D01*
X22942364Y29595392D01*
X22942363Y29595392D01*
X22766824Y29564440D01*
X22766823Y29564440D01*
X22766819Y29564439D01*
X22766815Y29564438D01*
X22667404Y29521556D01*
X22596932Y29512941D01*
X22532990Y29543794D01*
X22495879Y29604319D01*
X22491499Y29637251D01*
X22491499Y30438064D01*
X22491498Y30438073D01*
X22476734Y30512301D01*
X22467534Y30526070D01*
X22420484Y30596484D01*
X22414772Y30600301D01*
X22336302Y30652734D01*
X22262068Y30667500D01*
X21561936Y30667500D01*
X21561926Y30667499D01*
X21487699Y30652735D01*
X21403515Y30596484D01*
X21347266Y30512303D01*
X21332500Y30438070D01*
X21332500Y29408303D01*
X21332333Y29403715D01*
X21332212Y29402060D01*
X21332500Y29389485D01*
X21332500Y29337941D01*
X21333107Y29331785D01*
X21332828Y29331758D01*
X21334090Y29320276D01*
X21334488Y29302996D01*
X21400597Y29000383D01*
X21403500Y28973491D01*
X21403500Y26652512D01*
X21400597Y26625620D01*
X21334488Y26323006D01*
X21334092Y26305755D01*
X21332826Y26294254D01*
X21333106Y26294226D01*
X21332500Y26288073D01*
X21332500Y26236344D01*
X21332214Y26223920D01*
X21332331Y26222335D01*
X21332500Y26217726D01*
X21332500Y25258303D01*
X21332333Y25253715D01*
X21332212Y25252060D01*
X21332500Y25239485D01*
X21332500Y25187941D01*
X21333107Y25181785D01*
X21332828Y25181758D01*
X21334090Y25170276D01*
X21334488Y25152995D01*
X21398240Y24861166D01*
X21400822Y24843268D01*
X21403339Y24808086D01*
X21403500Y24803588D01*
X21403500Y24787630D01*
X21405769Y24771840D01*
X21406249Y24767373D01*
X21410010Y24714801D01*
X21410011Y24714796D01*
X21411726Y24710199D01*
X21418381Y24684124D01*
X21419079Y24679271D01*
X21421620Y24670618D01*
X21420770Y24670369D01*
X21427054Y24648485D01*
X21430772Y24620246D01*
X21464125Y24539725D01*
X21486644Y24485359D01*
X21486649Y24485351D01*
X21575525Y24369526D01*
X21689488Y24282079D01*
X21691357Y24280645D01*
X21826246Y24224772D01*
X21971000Y24205715D01*
X22115754Y24224772D01*
X22250643Y24280645D01*
X22315398Y24330334D01*
X22381616Y24355934D01*
X22451165Y24341670D01*
X22481196Y24319467D01*
X22949596Y23851067D01*
X22983620Y23788756D01*
X22986500Y23761973D01*
X22986500Y19926028D01*
X22966498Y19857907D01*
X22949595Y19836933D01*
X21946067Y18833405D01*
X21883755Y18799379D01*
X21856972Y18796500D01*
X20402585Y18796500D01*
X20269958Y18780999D01*
X20269956Y18780998D01*
X20102463Y18720036D01*
X19993533Y18648391D01*
X19925627Y18627670D01*
X19857299Y18646951D01*
X19810241Y18700112D01*
X19800717Y18729077D01*
X19797161Y18746955D01*
X19796476Y18751138D01*
X19794829Y18763882D01*
X19793599Y18767531D01*
X19791514Y18775348D01*
X19789734Y18784301D01*
X19789732Y18784304D01*
X19789732Y18784305D01*
X19758079Y18831676D01*
X19755830Y18835301D01*
X19741538Y18860184D01*
X19741537Y18860185D01*
X19741536Y18860187D01*
X19435430Y19210824D01*
X19399081Y19252461D01*
X19369350Y19316932D01*
X19368000Y19335325D01*
X19368000Y19795356D01*
X19368240Y19800848D01*
X19369479Y19815028D01*
X19371677Y19840143D01*
X19361465Y19878252D01*
X19360282Y19883588D01*
X19353432Y19922440D01*
X19353430Y19922444D01*
X19350989Y19929150D01*
X19345662Y19942012D01*
X19342654Y19948464D01*
X19330065Y19966442D01*
X19320025Y19980781D01*
X19317079Y19985406D01*
X19297360Y20019560D01*
X19297358Y20019562D01*
X19267142Y20044917D01*
X19263099Y20048621D01*
X19096314Y20215406D01*
X19062288Y20277718D01*
X19067353Y20348533D01*
X19109900Y20405369D01*
X19176420Y20430180D01*
X19185409Y20430501D01*
X19575064Y20430501D01*
X19575066Y20430501D01*
X19575069Y20430502D01*
X19575072Y20430502D01*
X19611663Y20437781D01*
X19649301Y20445266D01*
X19733484Y20501516D01*
X19789734Y20585699D01*
X19804500Y20659933D01*
X19804499Y24731468D01*
X19824501Y24799588D01*
X19878157Y24846081D01*
X19946943Y24856389D01*
X20066000Y24840715D01*
X20210754Y24859772D01*
X20345643Y24915645D01*
X20461474Y25004526D01*
X20550355Y25120357D01*
X20606228Y25255246D01*
X20625285Y25400000D01*
X20606228Y25544754D01*
X20550355Y25679642D01*
X20482711Y25767797D01*
X20457111Y25834016D01*
X20471376Y25903565D01*
X20482706Y25921197D01*
X20550355Y26009357D01*
X20606228Y26144246D01*
X20625285Y26289000D01*
X20606228Y26433754D01*
X20598987Y26451236D01*
X20591397Y26521826D01*
X20623176Y26585313D01*
X20626739Y26588509D01*
X20626528Y26588720D01*
X20632900Y26595093D01*
X20720445Y26712037D01*
X20771494Y26848907D01*
X20777999Y26909403D01*
X20778000Y26909415D01*
X20778000Y26990500D01*
X19728500Y26990500D01*
X19660379Y27010502D01*
X19613886Y27064158D01*
X19602500Y27116500D01*
X19602500Y27499500D01*
X19622502Y27567621D01*
X19676158Y27614114D01*
X19728500Y27625500D01*
X20778000Y27625500D01*
X20778000Y27706586D01*
X20777999Y27706598D01*
X20771494Y27767094D01*
X20720444Y27903965D01*
X20720444Y27903966D01*
X20632905Y28020903D01*
X20574989Y28064259D01*
X20532443Y28121095D01*
X20524499Y28165124D01*
X20524499Y28483066D01*
X20524383Y28483648D01*
X20512921Y28541279D01*
X20509734Y28557301D01*
X20489222Y28587999D01*
X20468007Y28655749D01*
X20486789Y28724216D01*
X20489207Y28727980D01*
X20509734Y28758699D01*
X20524500Y28832933D01*
X20524499Y29283066D01*
X20524498Y29283073D01*
X20524498Y29283074D01*
X20513450Y29338614D01*
X20509734Y29357301D01*
X20489222Y29387999D01*
X20468007Y29455749D01*
X20486789Y29524216D01*
X20489207Y29527980D01*
X20509734Y29558699D01*
X20524500Y29632933D01*
X20524499Y30083066D01*
X20524498Y30083069D01*
X20524498Y30083074D01*
X20509734Y30157300D01*
X20509734Y30157301D01*
X20489222Y30187999D01*
X20468007Y30255749D01*
X20486789Y30324216D01*
X20489207Y30327980D01*
X20509734Y30358699D01*
X20524500Y30432933D01*
X20524499Y30883066D01*
X20524498Y30883070D01*
X20524498Y30883074D01*
X20509734Y30957300D01*
X20509734Y30957301D01*
X20489222Y30987999D01*
X20468007Y31055749D01*
X20486789Y31124216D01*
X20489207Y31127980D01*
X20509734Y31158699D01*
X20524500Y31232933D01*
X20524499Y31683066D01*
X20524498Y31683070D01*
X20524498Y31683074D01*
X20513450Y31738614D01*
X20509734Y31757301D01*
X20489222Y31787999D01*
X20468007Y31855749D01*
X20486789Y31924216D01*
X20489207Y31927980D01*
X20509734Y31958699D01*
X20524500Y32032933D01*
X20524499Y32483066D01*
X20524498Y32483070D01*
X20524498Y32483074D01*
X20509734Y32557300D01*
X20509734Y32557301D01*
X20489222Y32587999D01*
X20468007Y32655749D01*
X20486789Y32724216D01*
X20489207Y32727980D01*
X20509734Y32758699D01*
X20524500Y32832933D01*
X20524499Y33267635D01*
X20544501Y33335755D01*
X20598156Y33382248D01*
X20668430Y33392352D01*
X20733011Y33362859D01*
G37*
%TD.AperFunction*%
%TA.AperFunction,Conductor*%
G36*
X14928648Y18424542D02*
G01*
X14963980Y18396605D01*
X15125526Y18321275D01*
X15300091Y18285231D01*
X15478263Y18290415D01*
X15596888Y18322201D01*
X15667864Y18320512D01*
X15726660Y18280719D01*
X15754609Y18215455D01*
X15755500Y18200495D01*
X15755500Y14566900D01*
X15735498Y14498779D01*
X15681842Y14452286D01*
X15611568Y14442182D01*
X15600446Y14444296D01*
X15456123Y14478500D01*
X15456121Y14478500D01*
X14850500Y14478500D01*
X14782379Y14498502D01*
X14735886Y14552158D01*
X14724500Y14604500D01*
X14724500Y16406645D01*
X14724499Y18325707D01*
X14744501Y18393827D01*
X14798157Y18440320D01*
X14868431Y18450424D01*
X14928648Y18424542D01*
G37*
%TD.AperFunction*%
%TA.AperFunction,Conductor*%
G36*
X7800032Y24391146D02*
G01*
X7856868Y24348599D01*
X7881679Y24282079D01*
X7882000Y24273090D01*
X7882000Y23127500D01*
X9898000Y23127500D01*
X9898000Y23756371D01*
X9918002Y23824492D01*
X9971658Y23870985D01*
X10041932Y23881089D01*
X10072213Y23872781D01*
X10142246Y23843772D01*
X10287000Y23824715D01*
X10292695Y23825466D01*
X10313184Y23825574D01*
X10313201Y23826356D01*
X10319388Y23826223D01*
X10319389Y23826222D01*
X10319389Y23826223D01*
X10319390Y23826222D01*
X10348055Y23828420D01*
X10539869Y23843126D01*
X10609318Y23828390D01*
X10659777Y23778446D01*
X10675500Y23717495D01*
X10675500Y21145061D01*
X10655498Y21076940D01*
X10601842Y21030447D01*
X10531568Y21020343D01*
X10520764Y21022559D01*
X10519413Y21022677D01*
X10480120Y21019240D01*
X10474628Y21019000D01*
X10024000Y21019000D01*
X9955879Y21039002D01*
X9909386Y21092658D01*
X9898000Y21145000D01*
X9898000Y22492500D01*
X7882000Y22492500D01*
X7882000Y20637000D01*
X7861998Y20568879D01*
X7808342Y20522386D01*
X7756000Y20511000D01*
X6407474Y20511000D01*
X6356694Y20521686D01*
X6128774Y20622054D01*
X5945097Y20702938D01*
X5940543Y20704892D01*
X5940540Y20704893D01*
X5928342Y20707358D01*
X5905087Y20714451D01*
X5859752Y20733229D01*
X5715000Y20752285D01*
X5570247Y20733229D01*
X5507791Y20707358D01*
X5435358Y20677355D01*
X5435357Y20677354D01*
X5435356Y20677354D01*
X5396573Y20647594D01*
X5346702Y20609328D01*
X5280484Y20583728D01*
X5210935Y20597993D01*
X5160139Y20647594D01*
X5144000Y20709291D01*
X5144000Y21787090D01*
X5164002Y21855211D01*
X5180905Y21876185D01*
X7666905Y24362185D01*
X7729217Y24396211D01*
X7800032Y24391146D01*
G37*
%TD.AperFunction*%
%TA.AperFunction,Conductor*%
G36*
X7121694Y37825498D02*
G01*
X7168187Y37771842D01*
X7178291Y37701568D01*
X7171628Y37675466D01*
X7168505Y37667095D01*
X7162000Y37606598D01*
X7162000Y37525500D01*
X8792000Y37525500D01*
X8860121Y37505498D01*
X8906614Y37451842D01*
X8918000Y37399500D01*
X8918000Y37358000D01*
X19022000Y37358000D01*
X19022000Y37399500D01*
X19042002Y37467621D01*
X19095658Y37514114D01*
X19148000Y37525500D01*
X20778000Y37525500D01*
X20778000Y37606586D01*
X20777999Y37606598D01*
X20771494Y37667095D01*
X20768372Y37675466D01*
X20763306Y37746282D01*
X20797331Y37808594D01*
X20859642Y37842620D01*
X20886427Y37845500D01*
X22942387Y37845500D01*
X23010508Y37825498D01*
X23057001Y37771842D01*
X23067105Y37701568D01*
X23037611Y37636988D01*
X22988271Y37602152D01*
X22681515Y37482208D01*
X22681508Y37482206D01*
X22681498Y37482201D01*
X22681489Y37482197D01*
X22681486Y37482195D01*
X22350400Y37310154D01*
X22350397Y37310152D01*
X22039452Y37103880D01*
X22039445Y37103875D01*
X21752193Y36865722D01*
X21752192Y36865721D01*
X21491889Y36598394D01*
X21491887Y36598392D01*
X21261465Y36304900D01*
X21063544Y35988575D01*
X20900371Y35653014D01*
X20900370Y35653013D01*
X20773789Y35302007D01*
X20773785Y35301995D01*
X20772895Y35298350D01*
X20737289Y35236928D01*
X20674128Y35204505D01*
X20603465Y35211378D01*
X20547735Y35255363D01*
X20524631Y35322495D01*
X20524499Y35328236D01*
X20524499Y35683066D01*
X20524498Y35683070D01*
X20524498Y35683074D01*
X20509734Y35757300D01*
X20509734Y35757301D01*
X20489222Y35787999D01*
X20468007Y35855749D01*
X20486789Y35924216D01*
X20489207Y35927980D01*
X20509734Y35958699D01*
X20524500Y36032933D01*
X20524499Y36350877D01*
X20544501Y36418995D01*
X20574991Y36451744D01*
X20632904Y36495097D01*
X20720444Y36612035D01*
X20720444Y36612036D01*
X20771494Y36748907D01*
X20777999Y36809403D01*
X20778000Y36809415D01*
X20778000Y36890500D01*
X19141691Y36890500D01*
X19073570Y36910502D01*
X19052596Y36927405D01*
X19022001Y36958000D01*
X18970000Y36958000D01*
X18970000Y36250000D01*
X19018585Y36250000D01*
X19018592Y36250001D01*
X19076028Y36256177D01*
X19145897Y36243573D01*
X19197860Y36195196D01*
X19215500Y36130900D01*
X19215500Y36032938D01*
X19215501Y36032927D01*
X19230266Y35958699D01*
X19230265Y35958699D01*
X19250776Y35928004D01*
X19271992Y35860251D01*
X19253210Y35791784D01*
X19250777Y35787999D01*
X19230266Y35757303D01*
X19215500Y35683070D01*
X19215500Y35232937D01*
X19215501Y35232927D01*
X19230266Y35158699D01*
X19230265Y35158699D01*
X19250776Y35128004D01*
X19271992Y35060251D01*
X19253210Y34991784D01*
X19250777Y34987999D01*
X19230266Y34957303D01*
X19215500Y34883070D01*
X19215500Y34432937D01*
X19215501Y34432927D01*
X19230266Y34358699D01*
X19230265Y34358699D01*
X19250776Y34328004D01*
X19271992Y34260251D01*
X19253210Y34191784D01*
X19250777Y34187999D01*
X19230266Y34157303D01*
X19215500Y34083070D01*
X19215500Y34083067D01*
X19215501Y33641700D01*
X19195499Y33573579D01*
X19141844Y33527086D01*
X19089501Y33515700D01*
X19014079Y33515700D01*
X18911947Y33500306D01*
X18911945Y33500306D01*
X18911944Y33500305D01*
X18787638Y33440443D01*
X18787633Y33440439D01*
X18686492Y33346594D01*
X18617505Y33227105D01*
X18586803Y33092587D01*
X18586534Y33088997D01*
X18585139Y33085297D01*
X18584703Y33083385D01*
X18584441Y33083445D01*
X18561495Y33022563D01*
X18549982Y33009323D01*
X17840075Y32299416D01*
X17783125Y32266680D01*
X17404672Y32166826D01*
X17396818Y32165279D01*
X17381252Y32163230D01*
X17381247Y32163229D01*
X17381246Y32163228D01*
X17367990Y32157738D01*
X17359966Y32155031D01*
X17353725Y32153383D01*
X17345455Y32150904D01*
X17339923Y32149043D01*
X17324097Y32143141D01*
X17324089Y32143137D01*
X17319890Y32140350D01*
X17298446Y32128932D01*
X17246360Y32107357D01*
X17246350Y32107351D01*
X17130525Y32018475D01*
X17108520Y31989796D01*
X17051182Y31947929D01*
X17008558Y31940500D01*
X16262500Y31940500D01*
X16262500Y29050000D01*
X16718585Y29050000D01*
X16718601Y29050001D01*
X16719969Y29050148D01*
X16720284Y29050092D01*
X16721964Y29050181D01*
X16721985Y29049785D01*
X16789838Y29037547D01*
X16841803Y28989172D01*
X16858366Y28941325D01*
X16858771Y28938250D01*
X16858772Y28938246D01*
X16890438Y28861798D01*
X16914644Y28803359D01*
X16914649Y28803351D01*
X17003525Y28687526D01*
X17119350Y28598650D01*
X17119357Y28598645D01*
X17254246Y28542772D01*
X17254248Y28542772D01*
X17254250Y28542771D01*
X17259817Y28541279D01*
X17320439Y28504328D01*
X17351461Y28440467D01*
X17352127Y28436019D01*
X17366771Y28324782D01*
X17423959Y28186718D01*
X17431548Y28116128D01*
X17399768Y28052641D01*
X17338710Y28016414D01*
X17307550Y28012500D01*
X16944936Y28012500D01*
X16944926Y28012499D01*
X16870698Y27997735D01*
X16840002Y27977223D01*
X16772249Y27956008D01*
X16703782Y27974791D01*
X16699997Y27977224D01*
X16669302Y27997734D01*
X16595068Y28012500D01*
X16144936Y28012500D01*
X16144926Y28012499D01*
X16070698Y27997735D01*
X16040002Y27977223D01*
X15972249Y27956008D01*
X15903782Y27974791D01*
X15899997Y27977224D01*
X15869302Y27997734D01*
X15795068Y28012500D01*
X15344936Y28012500D01*
X15344926Y28012499D01*
X15270698Y27997735D01*
X15240002Y27977223D01*
X15172249Y27956008D01*
X15103782Y27974791D01*
X15099997Y27977224D01*
X15069302Y27997734D01*
X14995068Y28012500D01*
X14544936Y28012500D01*
X14544926Y28012499D01*
X14470698Y27997735D01*
X14440002Y27977223D01*
X14372249Y27956008D01*
X14303782Y27974791D01*
X14299997Y27977224D01*
X14269302Y27997734D01*
X14195068Y28012500D01*
X13744936Y28012500D01*
X13744926Y28012499D01*
X13670698Y27997735D01*
X13640002Y27977223D01*
X13572249Y27956008D01*
X13503782Y27974791D01*
X13499997Y27977224D01*
X13469302Y27997734D01*
X13395069Y28012500D01*
X12953700Y28012500D01*
X12885579Y28032502D01*
X12839086Y28086158D01*
X12827700Y28138500D01*
X12827700Y28367748D01*
X12828096Y28374808D01*
X12829310Y28385583D01*
X12832547Y28414307D01*
X12821311Y28473687D01*
X12812306Y28533433D01*
X12812305Y28533436D01*
X12809760Y28541686D01*
X12806895Y28549872D01*
X12806895Y28549876D01*
X12778660Y28603300D01*
X12752441Y28657744D01*
X12752437Y28657748D01*
X12752437Y28657749D01*
X12747563Y28664900D01*
X12742426Y28671860D01*
X12699692Y28714594D01*
X12652173Y28765808D01*
X12653187Y28766750D01*
X12625666Y28801420D01*
X12593093Y28869838D01*
X12581871Y28939942D01*
X12610331Y29004984D01*
X12669438Y29044315D01*
X12706858Y29050000D01*
X12768585Y29050000D01*
X12768597Y29050001D01*
X12829092Y29056506D01*
X12938467Y29097300D01*
X13009283Y29102365D01*
X13026533Y29097300D01*
X13135907Y29056506D01*
X13196402Y29050001D01*
X13196415Y29050000D01*
X13652500Y29050000D01*
X13652500Y29965500D01*
X14287500Y29965500D01*
X14287500Y29050000D01*
X14743585Y29050000D01*
X14743597Y29050001D01*
X14804092Y29056506D01*
X14913467Y29097300D01*
X14984283Y29102365D01*
X15001533Y29097300D01*
X15110907Y29056506D01*
X15171402Y29050001D01*
X15171415Y29050000D01*
X15627500Y29050000D01*
X15627500Y29965500D01*
X14287500Y29965500D01*
X13652500Y29965500D01*
X10762000Y29965500D01*
X10762000Y29509403D01*
X10768505Y29448907D01*
X10819555Y29312036D01*
X10819555Y29312035D01*
X10907095Y29195096D01*
X11024034Y29107556D01*
X11160906Y29056506D01*
X11224766Y29049639D01*
X11224650Y29048569D01*
X11287402Y29026451D01*
X11330972Y28970396D01*
X11338656Y28907785D01*
X11328284Y28829002D01*
X11328284Y28829001D01*
X11349060Y28671194D01*
X11409968Y28524143D01*
X11506865Y28397866D01*
X11633140Y28300971D01*
X11633141Y28300971D01*
X11633142Y28300970D01*
X11659369Y28290107D01*
X11683486Y28275518D01*
X11683979Y28276242D01*
X11689095Y28272763D01*
X11689099Y28272760D01*
X11732448Y28249134D01*
X11782688Y28198972D01*
X11797834Y28129610D01*
X11773075Y28063070D01*
X11716273Y28020479D01*
X11672148Y28012500D01*
X11477126Y28012500D01*
X11409005Y28032502D01*
X11376258Y28062990D01*
X11332902Y28120906D01*
X11215965Y28208445D01*
X11079093Y28259495D01*
X11018597Y28266000D01*
X10970000Y28266000D01*
X10970000Y27284000D01*
X10949998Y27215879D01*
X10896342Y27169386D01*
X10844000Y27158000D01*
X10696000Y27158000D01*
X10627879Y27178002D01*
X10581386Y27231658D01*
X10570000Y27284000D01*
X10570000Y28266000D01*
X10521402Y28266000D01*
X10460906Y28259495D01*
X10324035Y28208445D01*
X10324034Y28208445D01*
X10207097Y28120906D01*
X10163742Y28062990D01*
X10106906Y28020444D01*
X10062874Y28012500D01*
X9744936Y28012500D01*
X9744926Y28012499D01*
X9670698Y27997735D01*
X9640002Y27977223D01*
X9572249Y27956008D01*
X9503782Y27974791D01*
X9499997Y27977224D01*
X9469302Y27997734D01*
X9395069Y28012500D01*
X9075691Y28012500D01*
X9007570Y28032502D01*
X8986596Y28049405D01*
X8978001Y28058000D01*
X8337500Y28058000D01*
X8337500Y27116500D01*
X8317498Y27048379D01*
X8263842Y27001886D01*
X8211500Y26990500D01*
X7162000Y26990500D01*
X7162000Y26909403D01*
X7165864Y26873470D01*
X7153259Y26803601D01*
X7104881Y26751639D01*
X7040586Y26734000D01*
X6287267Y26734000D01*
X6281775Y26734240D01*
X6246755Y26737304D01*
X6242482Y26737677D01*
X6242481Y26737677D01*
X6242476Y26737677D01*
X6204389Y26727471D01*
X6199024Y26726282D01*
X6160188Y26719434D01*
X6153518Y26717006D01*
X6140582Y26711648D01*
X6134158Y26708652D01*
X6101858Y26686037D01*
X6097226Y26683086D01*
X6063065Y26663361D01*
X6037709Y26633144D01*
X6033994Y26629091D01*
X4948986Y25544081D01*
X3889810Y24484905D01*
X3827498Y24450880D01*
X3800715Y24448000D01*
X3152863Y24448000D01*
X3094112Y24462535D01*
X3071337Y24474539D01*
X2727043Y24656009D01*
X1825341Y25131277D01*
X1821550Y25133446D01*
X1789033Y25153580D01*
X1741644Y25206446D01*
X1730361Y25276541D01*
X1758764Y25341608D01*
X1814454Y25379882D01*
X1833087Y25386279D01*
X1833091Y25386281D01*
X2009330Y25481656D01*
X2009330Y25481658D01*
X1319074Y26171914D01*
X1412315Y26185320D01*
X1543100Y26245048D01*
X1651761Y26339202D01*
X1729493Y26460156D01*
X1770000Y26598111D01*
X1770000Y26619014D01*
X2456742Y25932272D01*
X2502837Y26002827D01*
X2595833Y26214837D01*
X2595836Y26214844D01*
X2652667Y26439266D01*
X2671787Y26670000D01*
X2652667Y26900735D01*
X2595836Y27125157D01*
X2595833Y27125164D01*
X2502838Y27337172D01*
X2502831Y27337186D01*
X2456742Y27407730D01*
X1770000Y26720988D01*
X1770000Y26741889D01*
X1729493Y26879844D01*
X1651761Y27000798D01*
X1543100Y27094952D01*
X1412315Y27154680D01*
X1319072Y27168087D01*
X2009330Y27858344D01*
X2000216Y27920904D01*
X2002690Y27921265D01*
X1996544Y27949022D01*
X2021108Y28015635D01*
X2077785Y28058392D01*
X2122255Y28066501D01*
X2184066Y28066501D01*
X2184069Y28066502D01*
X2184072Y28066502D01*
X2196099Y28068895D01*
X2258301Y28081266D01*
X2258304Y28081269D01*
X2269767Y28086015D01*
X2270488Y28084274D01*
X2323772Y28100960D01*
X2392239Y28082180D01*
X2439685Y28029365D01*
X2444081Y28019013D01*
X2470553Y27948040D01*
X2470555Y27948035D01*
X2558095Y27831096D01*
X2675034Y27743556D01*
X2811906Y27692506D01*
X2872402Y27686001D01*
X2872415Y27686000D01*
X3111500Y27686000D01*
X3111500Y29718000D01*
X2872402Y29718000D01*
X2811906Y29711495D01*
X2675035Y29660445D01*
X2675034Y29660444D01*
X2615008Y29615509D01*
X2548487Y29590698D01*
X2479113Y29605790D01*
X2428911Y29655992D01*
X2413499Y29716377D01*
X2413499Y30124064D01*
X2413498Y30124073D01*
X2398734Y30198301D01*
X2380837Y30225086D01*
X2342484Y30282484D01*
X2342483Y30282485D01*
X2258302Y30338734D01*
X2184069Y30353500D01*
X380500Y30353500D01*
X312379Y30373502D01*
X265886Y30427158D01*
X254500Y30479500D01*
X254500Y33101808D01*
X274502Y33169929D01*
X328158Y33216422D01*
X398432Y33226526D01*
X463012Y33197032D01*
X501135Y33138183D01*
X512400Y33100820D01*
X512404Y33100811D01*
X657485Y32757044D01*
X657493Y32757027D01*
X751122Y32587999D01*
X838294Y32430626D01*
X1052769Y32125287D01*
X1052771Y32125285D01*
X1298483Y31844475D01*
X1298485Y31844473D01*
X1500548Y31657938D01*
X1572655Y31591372D01*
X1872171Y31368850D01*
X1872172Y31368848D01*
X1872176Y31368846D01*
X1872177Y31368845D01*
X2193655Y31179416D01*
X2533447Y31025231D01*
X2887702Y30908037D01*
X2887710Y30908036D01*
X2887711Y30908035D01*
X2943341Y30896004D01*
X3252408Y30829162D01*
X3252410Y30829162D01*
X3252414Y30829161D01*
X3416211Y30811652D01*
X3488464Y30803928D01*
X3554072Y30776799D01*
X3594599Y30718505D01*
X3597176Y30647556D01*
X3579839Y30608645D01*
X3574267Y30600306D01*
X3574266Y30600304D01*
X3559500Y30526070D01*
X3559500Y29925937D01*
X3559501Y29925927D01*
X3574265Y29851700D01*
X3630516Y29767516D01*
X3637232Y29763028D01*
X3675736Y29718708D01*
X3676244Y29719053D01*
X3679187Y29714736D01*
X3680748Y29712939D01*
X3681556Y29711260D01*
X3686430Y29704111D01*
X3691580Y29697133D01*
X3709595Y29679118D01*
X3743621Y29616806D01*
X3746500Y29590023D01*
X3746500Y27686000D01*
X3985585Y27686000D01*
X3985597Y27686001D01*
X4046093Y27692506D01*
X4182964Y27743556D01*
X4182965Y27743556D01*
X4299904Y27831096D01*
X4389753Y27951120D01*
X4446588Y27993667D01*
X4517404Y27998732D01*
X4560624Y27980375D01*
X4599697Y27954267D01*
X4599699Y27954266D01*
X4673933Y27939500D01*
X5740066Y27939501D01*
X5740069Y27939502D01*
X5740073Y27939502D01*
X5789326Y27949299D01*
X5814301Y27954266D01*
X5898484Y28010516D01*
X5930212Y28058000D01*
X7162000Y28058000D01*
X7162000Y28009403D01*
X7168505Y27948905D01*
X7185988Y27902031D01*
X7191052Y27831216D01*
X7185988Y27813969D01*
X7168505Y27767096D01*
X7162000Y27706598D01*
X7162000Y27625500D01*
X7702500Y27625500D01*
X7702500Y28058000D01*
X7162000Y28058000D01*
X5930212Y28058000D01*
X5930955Y28059112D01*
X5954734Y28094698D01*
X5961785Y28130149D01*
X5994691Y28193059D01*
X6007830Y28204890D01*
X6206675Y28360082D01*
X6272682Y28386225D01*
X6301313Y28385584D01*
X6559799Y28350133D01*
X6568452Y28349241D01*
X6574344Y28348832D01*
X6576109Y28348769D01*
X6585543Y28348429D01*
X6591492Y28347931D01*
X6603997Y28346284D01*
X6603999Y28346284D01*
X6603999Y28346285D01*
X6604000Y28346284D01*
X6761806Y28367060D01*
X6908858Y28427970D01*
X6981420Y28483650D01*
X7047636Y28509250D01*
X7117185Y28494986D01*
X7147217Y28472782D01*
X7161999Y28458000D01*
X8978000Y28458000D01*
X8978000Y28506586D01*
X8977999Y28506598D01*
X8971494Y28567094D01*
X8920444Y28703965D01*
X8920444Y28703966D01*
X8832905Y28820903D01*
X8774989Y28864259D01*
X8732443Y28921095D01*
X8724499Y28965124D01*
X8724499Y29283066D01*
X8724497Y29283074D01*
X8713585Y29337941D01*
X8709734Y29357301D01*
X8689222Y29387999D01*
X8668007Y29455749D01*
X8686789Y29524216D01*
X8689207Y29527980D01*
X8709734Y29558699D01*
X8709733Y29558699D01*
X8716631Y29569020D01*
X8719205Y29567300D01*
X8751590Y29607493D01*
X8818951Y29629918D01*
X8887744Y29612366D01*
X8936126Y29560407D01*
X8940901Y29549639D01*
X9002138Y29392030D01*
X9002741Y29390528D01*
X9002743Y29390524D01*
X9003541Y29388554D01*
X9010433Y29378169D01*
X9021854Y29356720D01*
X9040643Y29311360D01*
X9040647Y29311354D01*
X9062355Y29283064D01*
X9122302Y29204940D01*
X9129527Y29195525D01*
X9244169Y29107556D01*
X9245357Y29106645D01*
X9380246Y29050772D01*
X9525000Y29031715D01*
X9669754Y29050772D01*
X9804643Y29106645D01*
X9920474Y29195526D01*
X10009355Y29311357D01*
X10065228Y29446246D01*
X10084285Y29591000D01*
X10080355Y29620848D01*
X10065228Y29735753D01*
X10061845Y29743921D01*
X10009355Y29870642D01*
X9920474Y29986474D01*
X9910370Y29994227D01*
X9804646Y30075353D01*
X9804640Y30075357D01*
X9755569Y30095683D01*
X9736125Y30105801D01*
X9722668Y30114368D01*
X9437707Y30225086D01*
X9381455Y30268401D01*
X9357550Y30335252D01*
X9357340Y30342532D01*
X9357340Y31517196D01*
X9368026Y31567976D01*
X9378329Y31591372D01*
X9532071Y31940500D01*
X10762000Y31940500D01*
X10762000Y31484403D01*
X10768505Y31423906D01*
X10809299Y31314532D01*
X10814363Y31243716D01*
X10809299Y31226468D01*
X10768505Y31117095D01*
X10762000Y31056598D01*
X10762000Y30600500D01*
X11677500Y30600500D01*
X11677500Y31940500D01*
X10762000Y31940500D01*
X9532071Y31940500D01*
X9549278Y31979574D01*
X9551231Y31984127D01*
X9553693Y31996315D01*
X9560791Y32019587D01*
X9566317Y32032927D01*
X9579568Y32064916D01*
X9598625Y32209670D01*
X9579568Y32354424D01*
X9523695Y32489312D01*
X9434814Y32605144D01*
X9414733Y32620553D01*
X9372867Y32677890D01*
X9368646Y32748761D01*
X9403411Y32810664D01*
X9414740Y32820480D01*
X9417257Y32822411D01*
X9506138Y32938242D01*
X9562011Y33073131D01*
X9581068Y33217885D01*
X9579930Y33226526D01*
X9562011Y33362638D01*
X9562011Y33362639D01*
X9506138Y33497527D01*
X9504006Y33500305D01*
X9457868Y33560434D01*
X9432267Y33626654D01*
X9446532Y33696203D01*
X9490792Y33743824D01*
X9617400Y33823376D01*
X9709524Y33915500D01*
X10762000Y33915500D01*
X10762000Y33459403D01*
X10768505Y33398906D01*
X10809299Y33289532D01*
X10814363Y33218716D01*
X10809299Y33201468D01*
X10768505Y33092095D01*
X10762000Y33031598D01*
X10762000Y32575500D01*
X11677500Y32575500D01*
X11677500Y33915500D01*
X12312500Y33915500D01*
X12312500Y32575500D01*
X13520896Y32575500D01*
X13477072Y32513415D01*
X13426441Y32370953D01*
X13416123Y32220114D01*
X13446884Y32072085D01*
X13515066Y31940500D01*
X12312500Y31940500D01*
X12312500Y30600500D01*
X13652500Y30600500D01*
X13652500Y31807365D01*
X13748819Y31748791D01*
X13894404Y31708000D01*
X14007622Y31708000D01*
X14119783Y31723416D01*
X14258458Y31783651D01*
X14287500Y31807279D01*
X14287500Y30600500D01*
X15627500Y30600500D01*
X15627500Y31940500D01*
X14419104Y31940500D01*
X14462928Y32002585D01*
X14513559Y32145047D01*
X14523877Y32295886D01*
X14493116Y32443915D01*
X14424934Y32575500D01*
X15627500Y32575500D01*
X15627500Y33915500D01*
X16262500Y33915500D01*
X16262500Y32575500D01*
X17178000Y32575500D01*
X17178000Y33031586D01*
X17177999Y33031598D01*
X17171494Y33092093D01*
X17130700Y33201467D01*
X17125635Y33272283D01*
X17130700Y33289533D01*
X17171494Y33398908D01*
X17177999Y33459403D01*
X17178000Y33459415D01*
X17178000Y33915500D01*
X16262500Y33915500D01*
X15627500Y33915500D01*
X14287500Y33915500D01*
X14287500Y32708636D01*
X14191181Y32767209D01*
X14045596Y32808000D01*
X13932378Y32808000D01*
X13820217Y32792584D01*
X13681542Y32732349D01*
X13652500Y32708722D01*
X13652500Y33915500D01*
X12312500Y33915500D01*
X11677500Y33915500D01*
X10762000Y33915500D01*
X9709524Y33915500D01*
X9737624Y33943600D01*
X9828082Y34087563D01*
X9884237Y34248046D01*
X9903274Y34417000D01*
X9888232Y34550500D01*
X10762000Y34550500D01*
X11677500Y34550500D01*
X11677500Y35466000D01*
X12312500Y35466000D01*
X12312500Y34550500D01*
X13652500Y34550500D01*
X13652500Y35466000D01*
X14287500Y35466000D01*
X14287500Y34550500D01*
X15627500Y34550500D01*
X15627500Y35466000D01*
X16262500Y35466000D01*
X16262500Y34550500D01*
X17178000Y34550500D01*
X17178000Y35006586D01*
X17177999Y35006598D01*
X17171494Y35067094D01*
X17120444Y35203965D01*
X17120444Y35203966D01*
X17032904Y35320905D01*
X16915965Y35408445D01*
X16779093Y35459495D01*
X16718597Y35466000D01*
X16262500Y35466000D01*
X15627500Y35466000D01*
X15171402Y35466000D01*
X15110905Y35459495D01*
X15001532Y35418701D01*
X14930716Y35413637D01*
X14913468Y35418701D01*
X14804094Y35459495D01*
X14743597Y35466000D01*
X14287500Y35466000D01*
X13652500Y35466000D01*
X13196402Y35466000D01*
X13135905Y35459495D01*
X13026532Y35418701D01*
X12955716Y35413637D01*
X12938468Y35418701D01*
X12829094Y35459495D01*
X12768597Y35466000D01*
X12312500Y35466000D01*
X11677500Y35466000D01*
X11221402Y35466000D01*
X11160906Y35459495D01*
X11024035Y35408445D01*
X11024034Y35408445D01*
X10907095Y35320905D01*
X10819555Y35203966D01*
X10819555Y35203965D01*
X10768505Y35067094D01*
X10762000Y35006598D01*
X10762000Y34550500D01*
X9888232Y34550500D01*
X9884237Y34585954D01*
X9828082Y34746437D01*
X9737624Y34890400D01*
X9737622Y34890403D01*
X9617402Y35010623D01*
X9617399Y35010625D01*
X9473439Y35101081D01*
X9473437Y35101082D01*
X9413825Y35121941D01*
X9312954Y35157237D01*
X9144000Y35176274D01*
X9143999Y35176274D01*
X9139827Y35175804D01*
X9120928Y35175104D01*
X9116061Y35175290D01*
X9116060Y35175290D01*
X9116058Y35175290D01*
X9116057Y35175290D01*
X9111547Y35175019D01*
X9042351Y35190905D01*
X8992727Y35241679D01*
X8992197Y35243804D01*
X8978001Y35258000D01*
X7996000Y35258000D01*
X7927879Y35278002D01*
X7881386Y35331658D01*
X7870000Y35384000D01*
X7870000Y35658000D01*
X8270000Y35658000D01*
X8978000Y35658000D01*
X8978000Y35706586D01*
X8977999Y35706598D01*
X8971494Y35767094D01*
X8971493Y35767099D01*
X8954012Y35813966D01*
X8948946Y35884782D01*
X8954012Y35902034D01*
X8971493Y35948902D01*
X8971494Y35948907D01*
X8977999Y36009403D01*
X8978000Y36009415D01*
X8978000Y36234030D01*
X8972879Y36243408D01*
X8970000Y36270191D01*
X8970000Y36958000D01*
X9370000Y36958000D01*
X9370000Y36250000D01*
X9418585Y36250000D01*
X9418597Y36250001D01*
X9479093Y36256506D01*
X9479098Y36256507D01*
X9525966Y36273988D01*
X9596782Y36279054D01*
X9614034Y36273988D01*
X9660901Y36256507D01*
X9660906Y36256506D01*
X9721402Y36250001D01*
X9721415Y36250000D01*
X9770000Y36250000D01*
X9770000Y36958000D01*
X10170000Y36958000D01*
X10170000Y36250000D01*
X10218585Y36250000D01*
X10218597Y36250001D01*
X10279093Y36256506D01*
X10279098Y36256507D01*
X10325966Y36273988D01*
X10396782Y36279054D01*
X10414034Y36273988D01*
X10460901Y36256507D01*
X10460906Y36256506D01*
X10521402Y36250001D01*
X10521415Y36250000D01*
X10570000Y36250000D01*
X10570000Y36958000D01*
X10970000Y36958000D01*
X10970000Y36250000D01*
X11018585Y36250000D01*
X11018597Y36250001D01*
X11079093Y36256506D01*
X11079098Y36256507D01*
X11125966Y36273988D01*
X11196782Y36279054D01*
X11214034Y36273988D01*
X11260901Y36256507D01*
X11260906Y36256506D01*
X11321402Y36250001D01*
X11321415Y36250000D01*
X11370000Y36250000D01*
X11370000Y36958000D01*
X11770000Y36958000D01*
X11770000Y36250000D01*
X11818585Y36250000D01*
X11818597Y36250001D01*
X11879093Y36256506D01*
X11879098Y36256507D01*
X11925966Y36273988D01*
X11996782Y36279054D01*
X12014034Y36273988D01*
X12060901Y36256507D01*
X12060906Y36256506D01*
X12121402Y36250001D01*
X12121415Y36250000D01*
X12170000Y36250000D01*
X12170000Y36958000D01*
X12570000Y36958000D01*
X12570000Y36250000D01*
X12618585Y36250000D01*
X12618597Y36250001D01*
X12679093Y36256506D01*
X12679098Y36256507D01*
X12725966Y36273988D01*
X12796782Y36279054D01*
X12814034Y36273988D01*
X12860901Y36256507D01*
X12860906Y36256506D01*
X12921402Y36250001D01*
X12921415Y36250000D01*
X12970000Y36250000D01*
X12970000Y36958000D01*
X13370000Y36958000D01*
X13370000Y36250000D01*
X13418585Y36250000D01*
X13418597Y36250001D01*
X13479093Y36256506D01*
X13479098Y36256507D01*
X13525966Y36273988D01*
X13596782Y36279054D01*
X13614034Y36273988D01*
X13660901Y36256507D01*
X13660906Y36256506D01*
X13721402Y36250001D01*
X13721415Y36250000D01*
X13770000Y36250000D01*
X13770000Y36958000D01*
X14170000Y36958000D01*
X14170000Y36250000D01*
X14218585Y36250000D01*
X14218597Y36250001D01*
X14279093Y36256506D01*
X14279098Y36256507D01*
X14325966Y36273988D01*
X14396782Y36279054D01*
X14414034Y36273988D01*
X14460901Y36256507D01*
X14460906Y36256506D01*
X14521402Y36250001D01*
X14521415Y36250000D01*
X14570000Y36250000D01*
X14570000Y36958000D01*
X14970000Y36958000D01*
X14970000Y36250000D01*
X15018585Y36250000D01*
X15018597Y36250001D01*
X15079093Y36256506D01*
X15079098Y36256507D01*
X15125966Y36273988D01*
X15196782Y36279054D01*
X15214034Y36273988D01*
X15260901Y36256507D01*
X15260906Y36256506D01*
X15321402Y36250001D01*
X15321415Y36250000D01*
X15370000Y36250000D01*
X15370000Y36958000D01*
X15770000Y36958000D01*
X15770000Y36250000D01*
X15818585Y36250000D01*
X15818597Y36250001D01*
X15879093Y36256506D01*
X15879098Y36256507D01*
X15925966Y36273988D01*
X15996782Y36279054D01*
X16014034Y36273988D01*
X16060901Y36256507D01*
X16060906Y36256506D01*
X16121402Y36250001D01*
X16121415Y36250000D01*
X16170000Y36250000D01*
X16170000Y36958000D01*
X16570000Y36958000D01*
X16570000Y36250000D01*
X16618585Y36250000D01*
X16618597Y36250001D01*
X16679093Y36256506D01*
X16679098Y36256507D01*
X16725966Y36273988D01*
X16796782Y36279054D01*
X16814034Y36273988D01*
X16860901Y36256507D01*
X16860906Y36256506D01*
X16921402Y36250001D01*
X16921415Y36250000D01*
X16970000Y36250000D01*
X16970000Y36958000D01*
X17370000Y36958000D01*
X17370000Y36250000D01*
X17418585Y36250000D01*
X17418597Y36250001D01*
X17479093Y36256506D01*
X17479098Y36256507D01*
X17525966Y36273988D01*
X17596782Y36279054D01*
X17614034Y36273988D01*
X17660901Y36256507D01*
X17660906Y36256506D01*
X17721402Y36250001D01*
X17721415Y36250000D01*
X17770000Y36250000D01*
X17770000Y36958000D01*
X18170000Y36958000D01*
X18170000Y36250000D01*
X18218585Y36250000D01*
X18218597Y36250001D01*
X18279093Y36256506D01*
X18279098Y36256507D01*
X18325966Y36273988D01*
X18396782Y36279054D01*
X18414034Y36273988D01*
X18460901Y36256507D01*
X18460906Y36256506D01*
X18521402Y36250001D01*
X18521415Y36250000D01*
X18570000Y36250000D01*
X18570000Y36958000D01*
X18170000Y36958000D01*
X17770000Y36958000D01*
X17370000Y36958000D01*
X16970000Y36958000D01*
X16570000Y36958000D01*
X16170000Y36958000D01*
X15770000Y36958000D01*
X15370000Y36958000D01*
X14970000Y36958000D01*
X14570000Y36958000D01*
X14170000Y36958000D01*
X13770000Y36958000D01*
X13370000Y36958000D01*
X12970000Y36958000D01*
X12570000Y36958000D01*
X12170000Y36958000D01*
X11770000Y36958000D01*
X11370000Y36958000D01*
X10970000Y36958000D01*
X10570000Y36958000D01*
X10170000Y36958000D01*
X9770000Y36958000D01*
X9370000Y36958000D01*
X8970000Y36958000D01*
X8917999Y36958000D01*
X8887404Y36927405D01*
X8825092Y36893379D01*
X8798309Y36890500D01*
X8337500Y36890500D01*
X8337500Y36429691D01*
X8317498Y36361570D01*
X8300595Y36340596D01*
X8270000Y36310001D01*
X8270000Y35658000D01*
X7870000Y35658000D01*
X7870000Y36058000D01*
X7162000Y36058000D01*
X7162000Y36009403D01*
X7168259Y35951197D01*
X7155654Y35881328D01*
X7107276Y35829366D01*
X7038485Y35811807D01*
X6971121Y35834227D01*
X6932761Y35876674D01*
X6859232Y36009415D01*
X6781706Y36149374D01*
X6567231Y36454713D01*
X6468894Y36567096D01*
X6321516Y36735526D01*
X6321514Y36735528D01*
X6153642Y36890500D01*
X7162000Y36890500D01*
X7162000Y36809403D01*
X7168505Y36748905D01*
X7185988Y36702031D01*
X7191052Y36631216D01*
X7185988Y36613969D01*
X7168505Y36567096D01*
X7162000Y36506598D01*
X7162000Y36458000D01*
X7702500Y36458000D01*
X7702500Y36890500D01*
X7162000Y36890500D01*
X6153642Y36890500D01*
X6047344Y36988629D01*
X5747828Y37211151D01*
X5747827Y37211153D01*
X5579813Y37310154D01*
X5426345Y37400584D01*
X5086553Y37554769D01*
X4950202Y37599877D01*
X4891812Y37640261D01*
X4864524Y37705804D01*
X4877003Y37775695D01*
X4925287Y37827745D01*
X4989777Y37845500D01*
X7053573Y37845500D01*
X7121694Y37825498D01*
G37*
%TD.AperFunction*%
%TA.AperFunction,Conductor*%
G36*
X12836214Y26741212D02*
G01*
X12839990Y26738786D01*
X12870699Y26718266D01*
X12944933Y26703500D01*
X13393444Y26703501D01*
X13461565Y26683499D01*
X13508058Y26629844D01*
X13517244Y26600943D01*
X13517780Y26598111D01*
X13518688Y26593314D01*
X13522407Y26568642D01*
X13527695Y26533561D01*
X13530245Y26525295D01*
X13533104Y26517125D01*
X13561338Y26463702D01*
X13567342Y26451236D01*
X13582442Y26419881D01*
X13593979Y26349830D01*
X13586370Y26319586D01*
X13581238Y26306375D01*
X13537927Y26250120D01*
X13471077Y26226211D01*
X13463789Y26226000D01*
X11218946Y26226000D01*
X11150825Y26246002D01*
X11104332Y26299658D01*
X11094024Y26368446D01*
X11097096Y26391783D01*
X11125818Y26456708D01*
X11177989Y26493392D01*
X11215961Y26507554D01*
X11332906Y26595100D01*
X11376258Y26653010D01*
X11433093Y26695557D01*
X11477122Y26703501D01*
X11795066Y26703501D01*
X11795069Y26703502D01*
X11795072Y26703502D01*
X11848018Y26714033D01*
X11869301Y26718266D01*
X11899997Y26738778D01*
X11967747Y26759993D01*
X12036214Y26741212D01*
X12039990Y26738786D01*
X12070699Y26718266D01*
X12144933Y26703500D01*
X12595066Y26703501D01*
X12595069Y26703502D01*
X12595073Y26703502D01*
X12648018Y26714033D01*
X12669301Y26718266D01*
X12699997Y26738778D01*
X12767747Y26759993D01*
X12836214Y26741212D01*
G37*
%TD.AperFunction*%
%TA.AperFunction,Conductor*%
G36*
X18941628Y28878698D02*
G01*
X18962602Y28861795D01*
X18982840Y28841557D01*
X18999225Y28821382D01*
X19004385Y28813485D01*
X19030746Y28792968D01*
X19036590Y28787807D01*
X19039063Y28785334D01*
X19039068Y28785330D01*
X19039072Y28785327D01*
X19050751Y28776989D01*
X19057097Y28772458D01*
X19098171Y28740489D01*
X19098175Y28740488D01*
X19104707Y28736952D01*
X19104765Y28736924D01*
X19104816Y28736896D01*
X19111435Y28733661D01*
X19111438Y28733659D01*
X19143158Y28724216D01*
X19148317Y28722680D01*
X19207898Y28684073D01*
X19237149Y28619382D01*
X19230833Y28569841D01*
X19232687Y28569472D01*
X19215500Y28483070D01*
X19215500Y28122185D01*
X19195498Y28054064D01*
X19141842Y28007571D01*
X19071568Y27997467D01*
X19064919Y27998606D01*
X18995069Y28012500D01*
X18544936Y28012500D01*
X18544926Y28012499D01*
X18528463Y28009224D01*
X18457749Y28015555D01*
X18401684Y28059112D01*
X18378067Y28126066D01*
X18391068Y28181071D01*
X18388194Y28182261D01*
X18391353Y28189890D01*
X18391355Y28189891D01*
X18447228Y28324780D01*
X18466285Y28469534D01*
X18465857Y28472782D01*
X18447228Y28614288D01*
X18447226Y28614292D01*
X18429225Y28657749D01*
X18415603Y28690635D01*
X18408014Y28761223D01*
X18439792Y28824711D01*
X18442878Y28827909D01*
X18476768Y28861798D01*
X18539081Y28895821D01*
X18565861Y28898700D01*
X18873507Y28898700D01*
X18941628Y28878698D01*
G37*
%TD.AperFunction*%
%TA.AperFunction,Conductor*%
G36*
X19133532Y31471805D02*
G01*
X19190368Y31429258D01*
X19215179Y31362738D01*
X19215500Y31353750D01*
X19215500Y31232938D01*
X19215501Y31232927D01*
X19230266Y31158699D01*
X19230265Y31158699D01*
X19250776Y31128004D01*
X19271992Y31060251D01*
X19253210Y30991784D01*
X19250777Y30987999D01*
X19230266Y30957303D01*
X19215500Y30883070D01*
X19215500Y30432937D01*
X19215501Y30432927D01*
X19232687Y30346527D01*
X19229274Y30345849D01*
X19234647Y30295839D01*
X19202863Y30232355D01*
X19161409Y30205435D01*
X19161953Y30204430D01*
X19152775Y30199463D01*
X19106979Y30174680D01*
X19091161Y30166948D01*
X19060217Y30151820D01*
X19054137Y30147480D01*
X19048253Y30142901D01*
X19021988Y30114368D01*
X19012983Y30104586D01*
X18970731Y30062333D01*
X18962603Y30054205D01*
X18900291Y30020180D01*
X18873507Y30017300D01*
X18247829Y30017300D01*
X18221974Y30019981D01*
X18212747Y30021916D01*
X18191277Y30019239D01*
X18179602Y30017784D01*
X18171813Y30017300D01*
X18168323Y30017300D01*
X18146469Y30013654D01*
X18120643Y30010435D01*
X18094815Y30007215D01*
X18087658Y30005086D01*
X18080614Y30002666D01*
X18080609Y30002664D01*
X18080607Y30002663D01*
X18034816Y29977883D01*
X18019342Y29970318D01*
X17988048Y29955020D01*
X17981949Y29950665D01*
X17976087Y29946102D01*
X17940826Y29907798D01*
X17682836Y29649809D01*
X17620524Y29615783D01*
X17549709Y29620848D01*
X17545545Y29622486D01*
X17543754Y29623228D01*
X17543752Y29623229D01*
X17399000Y29642285D01*
X17398998Y29642285D01*
X17320445Y29631944D01*
X17250297Y29642884D01*
X17197198Y29690012D01*
X17178000Y29756866D01*
X17178000Y30096788D01*
X17198002Y30164909D01*
X17251658Y30211402D01*
X17321932Y30221506D01*
X17352212Y30213198D01*
X17381246Y30201172D01*
X17526000Y30182115D01*
X17670754Y30201172D01*
X17805643Y30257045D01*
X17921474Y30345926D01*
X17921477Y30345931D01*
X17927314Y30351766D01*
X17927725Y30351355D01*
X17928744Y30352425D01*
X17928420Y30352739D01*
X18092539Y30522094D01*
X18268177Y30703334D01*
X18274596Y30713191D01*
X18291076Y30733515D01*
X19000407Y31442846D01*
X19062717Y31476870D01*
X19133532Y31471805D01*
G37*
%TD.AperFunction*%
%TD*%
%TA.AperFunction,Conductor*%
%TO.N,/GPIO6\u005CFSPICLK*%
G36*
X19116455Y19181573D02*
G01*
X19116996Y19180995D01*
X19546049Y18689526D01*
X19548908Y18681039D01*
X19548624Y18679152D01*
X19061389Y16607427D01*
X19056159Y16600159D01*
X19047321Y16598717D01*
X19040053Y16603947D01*
X19038611Y16607427D01*
X18551375Y18679152D01*
X18552817Y18687990D01*
X18553943Y18689518D01*
X18983004Y19180995D01*
X18991027Y19184973D01*
X18991818Y19185000D01*
X19108182Y19185000D01*
X19116455Y19181573D01*
G37*
%TD.AperFunction*%
%TD*%
%TA.AperFunction,Conductor*%
%TO.N,/GPIO6\u005CFSPICLK*%
G36*
X2484507Y10189223D02*
G01*
X2487325Y10187146D01*
X2567145Y10107326D01*
X2570572Y10099053D01*
X2570048Y10095592D01*
X2095121Y8562041D01*
X2089400Y8555152D01*
X2080484Y8554326D01*
X2079479Y8554688D01*
X1273785Y8887438D01*
X1267447Y8893762D01*
X934687Y9699482D01*
X934696Y9708435D01*
X941035Y9714760D01*
X942029Y9715119D01*
X2475591Y10190049D01*
X2484507Y10189223D01*
G37*
%TD.AperFunction*%
%TD*%
%TA.AperFunction,Conductor*%
%TO.N,/GPIO5\u005CBAT_MEASURE*%
G36*
X14782184Y26111614D02*
G01*
X14783715Y26110331D01*
X14983537Y25911447D01*
X14986983Y25903182D01*
X14986983Y25903115D01*
X14986037Y25619257D01*
X14982583Y25610995D01*
X14974751Y25607603D01*
X14503324Y25590929D01*
X14494934Y25594062D01*
X14491217Y25602208D01*
X14491210Y25602622D01*
X14491210Y25713803D01*
X14493334Y25720526D01*
X14621564Y25903182D01*
X14765885Y26108762D01*
X14773443Y26113563D01*
X14782184Y26111614D01*
G37*
%TD.AperFunction*%
%TD*%
%TA.AperFunction,Conductor*%
%TO.N,/GPIO5\u005CBAT_MEASURE*%
G36*
X2484507Y12729223D02*
G01*
X2487325Y12727146D01*
X2567145Y12647326D01*
X2570572Y12639053D01*
X2570048Y12635592D01*
X2095121Y11102041D01*
X2089400Y11095152D01*
X2080484Y11094326D01*
X2079479Y11094688D01*
X1273785Y11427438D01*
X1267447Y11433762D01*
X934687Y12239482D01*
X934696Y12248435D01*
X941035Y12254760D01*
X942029Y12255119D01*
X2475591Y12730049D01*
X2484507Y12729223D01*
G37*
%TD.AperFunction*%
%TD*%
%TA.AperFunction,Conductor*%
%TO.N,/GPIO4\u005CFSPIHD*%
G36*
X13957815Y26526297D02*
G01*
X14141514Y26450868D01*
X14220184Y26418564D01*
X14226536Y26412252D01*
X14226563Y26412185D01*
X14334275Y26149868D01*
X14334248Y26140913D01*
X14327896Y26134601D01*
X14327689Y26134518D01*
X13851751Y25949599D01*
X13842799Y25949797D01*
X13839241Y25952232D01*
X13760231Y26031242D01*
X13756804Y26039515D01*
X13757597Y26043747D01*
X13942517Y26519691D01*
X13948708Y26526161D01*
X13957660Y26526359D01*
X13957815Y26526297D01*
G37*
%TD.AperFunction*%
%TD*%
%TA.AperFunction,Conductor*%
%TO.N,/GPIO4\u005CFSPIHD*%
G36*
X2805169Y14486038D02*
G01*
X2810544Y14482976D01*
X2890022Y14403498D01*
X2893449Y14395225D01*
X2890239Y14387175D01*
X1906875Y13350092D01*
X1898696Y13346446D01*
X1890335Y13349652D01*
X1890121Y13349860D01*
X1274835Y13963763D01*
X1271399Y13972032D01*
X1272291Y13976523D01*
X1606323Y14781968D01*
X1612657Y14788296D01*
X1620023Y14788821D01*
X2805169Y14486038D01*
G37*
%TD.AperFunction*%
%TD*%
%TA.AperFunction,Conductor*%
%TO.N,/GPIO1\u005CEXT_PWR_SENSE*%
G36*
X2484689Y22888953D02*
G01*
X2487505Y22886877D01*
X2567325Y22807057D01*
X2570752Y22798784D01*
X2570228Y22795321D01*
X2485192Y22520893D01*
X2484269Y22518720D01*
X2452430Y22460801D01*
X2412500Y22305282D01*
X2412500Y22288064D01*
X2411976Y22284601D01*
X2095123Y21262039D01*
X2089401Y21255151D01*
X2080484Y21254326D01*
X2079481Y21254688D01*
X1273785Y21587438D01*
X1267447Y21593762D01*
X934688Y22399480D01*
X934697Y22408433D01*
X941036Y22414758D01*
X942020Y22415113D01*
X2475774Y22889781D01*
X2484689Y22888953D01*
G37*
%TD.AperFunction*%
%TD*%
%TA.AperFunction,Conductor*%
%TO.N,/GPIO0*%
G36*
X1620581Y24945807D02*
G01*
X1621536Y24945357D01*
X3041755Y24196792D01*
X3047476Y24189903D01*
X3048000Y24186442D01*
X3048000Y24073559D01*
X3044573Y24065286D01*
X3041755Y24063209D01*
X1621547Y23314649D01*
X1612631Y23313823D01*
X1605742Y23319544D01*
X1605292Y23320498D01*
X1270863Y24125514D01*
X1270855Y24134466D01*
X1605288Y24939493D01*
X1611626Y24945816D01*
X1620581Y24945807D01*
G37*
%TD.AperFunction*%
%TD*%
%TA.AperFunction,Conductor*%
%TO.N,/ESP_EN*%
G36*
X4618317Y29708147D02*
G01*
X5085271Y29425526D01*
X5432436Y29215406D01*
X5437740Y29208191D01*
X5437010Y29200513D01*
X5209739Y28705718D01*
X5203172Y28699631D01*
X5203135Y28699617D01*
X4709554Y28518649D01*
X4700606Y28519019D01*
X4694711Y28525170D01*
X4622711Y28699617D01*
X4326084Y29418311D01*
X4326095Y29427265D01*
X4328623Y29431044D01*
X4603990Y29706411D01*
X4612262Y29709837D01*
X4618317Y29708147D01*
G37*
%TD.AperFunction*%
%TD*%
%TA.AperFunction,Conductor*%
%TO.N,/ESP_EN*%
G36*
X6599410Y29301912D02*
G01*
X6603930Y29294181D01*
X6604038Y29292624D01*
X6605000Y28956000D01*
X6604038Y28619377D01*
X6600587Y28611113D01*
X6592305Y28607710D01*
X6590748Y28607818D01*
X5914110Y28700614D01*
X5906379Y28705134D01*
X5904000Y28712206D01*
X5904000Y29199795D01*
X5907427Y29208068D01*
X5914108Y29211387D01*
X6590749Y29304183D01*
X6599410Y29301912D01*
G37*
%TD.AperFunction*%
%TD*%
%TA.AperFunction,Conductor*%
%TO.N,/ESP_EN*%
G36*
X6219573Y29206573D02*
G01*
X6223000Y29198300D01*
X6223000Y28707711D01*
X6219573Y28699438D01*
X6218499Y28698488D01*
X5722191Y28311135D01*
X5713560Y28308746D01*
X5707802Y28311128D01*
X5209830Y28699017D01*
X5205409Y28706804D01*
X5205407Y28706819D01*
X5205297Y28707711D01*
X5145138Y29196872D01*
X5147530Y29205501D01*
X5155323Y29209913D01*
X5156751Y29210000D01*
X6211300Y29210000D01*
X6219573Y29206573D01*
G37*
%TD.AperFunction*%
%TD*%
%TA.AperFunction,Conductor*%
%TO.N,+3.3V*%
G36*
X5348820Y30973081D02*
G01*
X5349997Y30972057D01*
X5588707Y30734707D01*
X5826056Y30495998D01*
X5829459Y30487716D01*
X5826008Y30479452D01*
X5824831Y30478428D01*
X5280759Y30065590D01*
X5272097Y30063320D01*
X5265414Y30066638D01*
X4920637Y30411415D01*
X4917210Y30419688D01*
X4919589Y30426760D01*
X5332428Y30970834D01*
X5340158Y30975351D01*
X5348820Y30973081D01*
G37*
%TD.AperFunction*%
%TD*%
%TA.AperFunction,Conductor*%
%TO.N,/GPIO3\u005CI2C_SCK*%
G36*
X9152747Y30057403D02*
G01*
X9628689Y29872483D01*
X9635160Y29866292D01*
X9635358Y29857340D01*
X9635275Y29857133D01*
X9527563Y29594816D01*
X9521251Y29588464D01*
X9521184Y29588437D01*
X9258867Y29480725D01*
X9249912Y29480752D01*
X9243600Y29487104D01*
X9243517Y29487311D01*
X9204226Y29588437D01*
X9058598Y29963251D01*
X9058796Y29972201D01*
X9061228Y29975756D01*
X9140242Y30054770D01*
X9148514Y30058196D01*
X9152747Y30057403D01*
G37*
%TD.AperFunction*%
%TD*%
%TA.AperFunction,Conductor*%
%TO.N,/GPIO3\u005CI2C_SCK*%
G36*
X9305500Y32099463D02*
G01*
X9311812Y32093111D01*
X9311785Y32084156D01*
X9311697Y32083952D01*
X9105916Y31616655D01*
X9099445Y31610464D01*
X9095208Y31609670D01*
X8983472Y31609670D01*
X8975199Y31613097D01*
X8972764Y31616655D01*
X8766982Y32083952D01*
X8766784Y32092904D01*
X8772975Y32099375D01*
X8773126Y32099441D01*
X9034830Y32208787D01*
X9043784Y32208813D01*
X9305500Y32099463D01*
G37*
%TD.AperFunction*%
%TD*%
%TA.AperFunction,Conductor*%
%TO.N,+5V*%
G36*
X3534131Y9017020D02*
G01*
X3542398Y9013581D01*
X3545813Y9005303D01*
X3545643Y9003332D01*
X3415861Y8250638D01*
X3412604Y8244353D01*
X3067488Y7899237D01*
X3059215Y7895810D01*
X3050942Y7899237D01*
X3048755Y7902269D01*
X2877342Y8244353D01*
X2591680Y8814441D01*
X2591038Y8823371D01*
X2596900Y8830141D01*
X2597628Y8830476D01*
X3045128Y9016806D01*
X3049637Y9017704D01*
X3534131Y9017020D01*
G37*
%TD.AperFunction*%
%TD*%
%TA.AperFunction,Conductor*%
%TO.N,+5V*%
G36*
X3430269Y8797573D02*
G01*
X3432308Y8794828D01*
X3639646Y8408035D01*
X3640534Y8399124D01*
X3638242Y8394922D01*
X3310227Y8009664D01*
X3302255Y8005586D01*
X3293734Y8008341D01*
X3293036Y8008986D01*
X2905649Y8397342D01*
X2902232Y8405620D01*
X2902245Y8406160D01*
X2920471Y8789855D01*
X2924287Y8797956D01*
X2932158Y8801000D01*
X3421996Y8801000D01*
X3430269Y8797573D01*
G37*
%TD.AperFunction*%
%TD*%
%TA.AperFunction,Conductor*%
%TO.N,+5V*%
G36*
X20061958Y12488253D02*
G01*
X20066007Y12480266D01*
X20066041Y12479411D01*
X20067000Y12192000D01*
X20066041Y11904590D01*
X20062586Y11896328D01*
X20054302Y11892929D01*
X20053447Y11892963D01*
X19476806Y11937172D01*
X19468819Y11941221D01*
X19466000Y11948838D01*
X19466000Y12435163D01*
X19469427Y12443436D01*
X19476804Y12446829D01*
X20053447Y12491038D01*
X20061958Y12488253D01*
G37*
%TD.AperFunction*%
%TD*%
%TA.AperFunction,Conductor*%
%TO.N,+5V*%
G36*
X18926868Y12910829D02*
G01*
X19416325Y12449464D01*
X19419995Y12441297D01*
X19420000Y12440951D01*
X19420000Y11948278D01*
X19416573Y11940005D01*
X19409808Y11936676D01*
X18926945Y11873903D01*
X18918299Y11876234D01*
X18915923Y11878696D01*
X18873478Y11938000D01*
X18425939Y12563304D01*
X18423911Y12572025D01*
X18428645Y12579626D01*
X18428791Y12579729D01*
X18912220Y12911957D01*
X18920978Y12913818D01*
X18926868Y12910829D01*
G37*
%TD.AperFunction*%
%TD*%
%TA.AperFunction,Conductor*%
%TO.N,+3.3V*%
G36*
X18033283Y4263886D02*
G01*
X18601087Y4132568D01*
X18608375Y4127365D01*
X18609849Y4118533D01*
X18609273Y4116725D01*
X18501597Y3854486D01*
X18499028Y3850637D01*
X18297296Y3649851D01*
X18289015Y3646444D01*
X18280749Y3649890D01*
X18279547Y3651307D01*
X18021157Y4010138D01*
X18018952Y4016975D01*
X18018952Y4252486D01*
X18022379Y4260759D01*
X18030652Y4264186D01*
X18033283Y4263886D01*
G37*
%TD.AperFunction*%
%TD*%
%TA.AperFunction,Conductor*%
%TO.N,+3.3V*%
G36*
X19091459Y3981851D02*
G01*
X19098349Y3976131D01*
X19099700Y3970674D01*
X19099700Y3733927D01*
X19096273Y3725654D01*
X19091459Y3722750D01*
X18624661Y3578280D01*
X18615745Y3579108D01*
X18610406Y3584946D01*
X18500583Y3847791D01*
X18500557Y3856744D01*
X18500562Y3856758D01*
X18610407Y4119657D01*
X18616758Y4125967D01*
X18624660Y4126321D01*
X19091459Y3981851D01*
G37*
%TD.AperFunction*%
%TD*%
%TA.AperFunction,Conductor*%
%TO.N,+3.3V*%
G36*
X23381265Y9624753D02*
G01*
X23392888Y9619985D01*
X23617437Y9527869D01*
X23623789Y9521559D01*
X23624255Y9520224D01*
X23698087Y9258734D01*
X23697037Y9249841D01*
X23692708Y9245440D01*
X23292811Y9012948D01*
X23283936Y9011753D01*
X23278657Y9014790D01*
X23111905Y9181542D01*
X23108478Y9189815D01*
X23110167Y9195870D01*
X23366815Y9619986D01*
X23374029Y9625289D01*
X23381265Y9624753D01*
G37*
%TD.AperFunction*%
%TD*%
%TA.AperFunction,Conductor*%
%TO.N,+3.3V*%
G36*
X9140086Y34913332D02*
G01*
X9144003Y34905280D01*
X9144024Y34904601D01*
X9144990Y34421869D01*
X9141580Y34413591D01*
X9141559Y34413570D01*
X9141551Y34413561D01*
X8797293Y34070275D01*
X8789015Y34066860D01*
X8782451Y34068887D01*
X8220360Y34451318D01*
X8215447Y34458805D01*
X8215241Y34460991D01*
X8215241Y34850182D01*
X8218668Y34858455D01*
X8226238Y34861861D01*
X9131623Y34916257D01*
X9140086Y34913332D01*
G37*
%TD.AperFunction*%
%TD*%
%TA.AperFunction,Conductor*%
%TO.N,+3.3V*%
G36*
X23749990Y10046573D02*
G01*
X23752215Y10043465D01*
X23868491Y9807131D01*
X23869069Y9798195D01*
X23866665Y9794111D01*
X23630672Y9533574D01*
X23622578Y9529743D01*
X23614145Y9532757D01*
X23613329Y9533574D01*
X23377335Y9794111D01*
X23374320Y9802544D01*
X23375508Y9807131D01*
X23491785Y10043465D01*
X23498512Y10049376D01*
X23502283Y10050000D01*
X23741717Y10050000D01*
X23749990Y10046573D01*
G37*
%TD.AperFunction*%
%TD*%
%TA.AperFunction,Conductor*%
%TO.N,+3.3V*%
G36*
X23629855Y10660243D02*
G01*
X23630663Y10659436D01*
X23866665Y10398890D01*
X23869679Y10390457D01*
X23868491Y10385870D01*
X23752215Y10149535D01*
X23745488Y10143624D01*
X23741717Y10143000D01*
X23502283Y10143000D01*
X23494010Y10146427D01*
X23491785Y10149535D01*
X23375508Y10385870D01*
X23374930Y10394806D01*
X23377335Y10398890D01*
X23613329Y10659427D01*
X23621422Y10663258D01*
X23629855Y10660243D01*
G37*
%TD.AperFunction*%
%TD*%
%TA.AperFunction,Conductor*%
%TO.N,+3.3V*%
G36*
X11174580Y4463607D02*
G01*
X11631754Y4270221D01*
X11638038Y4263842D01*
X11638895Y4259446D01*
X11638895Y4022706D01*
X11635468Y4014433D01*
X11629590Y4011254D01*
X11173268Y3915816D01*
X11164469Y3917476D01*
X11160078Y3922756D01*
X11049883Y4186491D01*
X11049857Y4195444D01*
X11049862Y4195458D01*
X11159274Y4457322D01*
X11165626Y4463633D01*
X11174580Y4463607D01*
G37*
%TD.AperFunction*%
%TD*%
%TA.AperFunction,Conductor*%
%TO.N,/ESP_EN*%
G36*
X6805996Y29652573D02*
G01*
X6809168Y29646729D01*
X6925343Y29099430D01*
X6923709Y29090626D01*
X6918404Y29086203D01*
X6608506Y28956881D01*
X6599551Y28956858D01*
X6599494Y28956881D01*
X6289595Y29086203D01*
X6283280Y29092552D01*
X6282656Y29099428D01*
X6398832Y29646730D01*
X6403902Y29654111D01*
X6410277Y29656000D01*
X6797723Y29656000D01*
X6805996Y29652573D01*
G37*
%TD.AperFunction*%
%TD*%
%TA.AperFunction,Conductor*%
%TO.N,Net-(CHARGING1-K)*%
G36*
X7757660Y6622964D02*
G01*
X7763491Y6616881D01*
X7873115Y6354511D01*
X7873142Y6345556D01*
X7873115Y6345489D01*
X7763491Y6083120D01*
X7757139Y6076808D01*
X7748714Y6076629D01*
X7281719Y6245607D01*
X7275106Y6251644D01*
X7274000Y6256609D01*
X7274000Y6443392D01*
X7277427Y6451665D01*
X7281715Y6454392D01*
X7748715Y6623372D01*
X7757660Y6622964D01*
G37*
%TD.AperFunction*%
%TD*%
%TA.AperFunction,Conductor*%
%TO.N,Net-(CHARGING1-K)*%
G36*
X5233046Y8284424D02*
G01*
X5641960Y7837427D01*
X5645015Y7829010D01*
X5641600Y7821257D01*
X5507909Y7687566D01*
X5503018Y7684638D01*
X5232703Y7603024D01*
X5223792Y7603914D01*
X5221048Y7605952D01*
X4834990Y7992010D01*
X4831563Y8000283D01*
X4834990Y8008556D01*
X4836379Y8009743D01*
X5217549Y8286002D01*
X5226257Y8288081D01*
X5233046Y8284424D01*
G37*
%TD.AperFunction*%
%TD*%
%TA.AperFunction,Conductor*%
%TO.N,VBAT*%
G36*
X7551706Y11221091D02*
G01*
X8236418Y11051204D01*
X8243622Y11045885D01*
X8245300Y11039848D01*
X8245300Y10041811D01*
X8241873Y10033538D01*
X8236832Y10030566D01*
X7551873Y9833677D01*
X7542975Y9834685D01*
X7540428Y9836589D01*
X6852699Y10514402D01*
X6849212Y10522650D01*
X6852578Y10530947D01*
X7540627Y11218014D01*
X7548900Y11221434D01*
X7551706Y11221091D01*
G37*
%TD.AperFunction*%
%TD*%
%TA.AperFunction,Conductor*%
%TO.N,+5V_USB*%
G36*
X17259230Y8209573D02*
G01*
X17262522Y8203073D01*
X17283634Y8065385D01*
X17283391Y8060663D01*
X17145322Y7530477D01*
X17139921Y7523335D01*
X17131051Y7522104D01*
X17123909Y7527505D01*
X17122678Y7530477D01*
X17097036Y7628941D01*
X16984607Y8060666D01*
X16984365Y8065382D01*
X17005478Y8203073D01*
X17010119Y8210732D01*
X17017043Y8213000D01*
X17250957Y8213000D01*
X17259230Y8209573D01*
G37*
%TD.AperFunction*%
%TD*%
%TA.AperFunction,Conductor*%
%TO.N,+5V_USB*%
G36*
X17231734Y8249445D02*
G01*
X17234976Y8247155D01*
X17398464Y8083667D01*
X17401891Y8075394D01*
X17401674Y8073152D01*
X17286065Y7481110D01*
X17281116Y7473647D01*
X17273289Y7471724D01*
X17143639Y7486143D01*
X17135795Y7490463D01*
X17133232Y7497702D01*
X17129987Y8060324D01*
X17131123Y8065418D01*
X17216140Y8243914D01*
X17222791Y8249909D01*
X17231734Y8249445D01*
G37*
%TD.AperFunction*%
%TD*%
%TA.AperFunction,Conductor*%
%TO.N,+5V_USB*%
G36*
X17395717Y8253225D02*
G01*
X17558815Y8090127D01*
X17562242Y8081854D01*
X17562229Y8081303D01*
X17534541Y7494518D01*
X17530728Y7486415D01*
X17522525Y7483374D01*
X17393248Y7487013D01*
X17385074Y7490671D01*
X17381980Y7497163D01*
X17307106Y8060097D01*
X17307748Y8065744D01*
X17376489Y8249061D01*
X17382602Y8255603D01*
X17391552Y8255907D01*
X17395717Y8253225D01*
G37*
%TD.AperFunction*%
%TD*%
%TA.AperFunction,Conductor*%
%TO.N,/GPIO21\u005CU0TXD*%
G36*
X17942733Y32036867D02*
G01*
X17945117Y32035030D01*
X18024132Y31956015D01*
X18027559Y31947742D01*
X18026266Y31942395D01*
X17808074Y31517753D01*
X17801245Y31511960D01*
X17793223Y31512277D01*
X17529815Y31620437D01*
X17523463Y31626749D01*
X17523436Y31626816D01*
X17416266Y31887814D01*
X17416293Y31896769D01*
X17422645Y31903081D01*
X17424090Y31903567D01*
X17933861Y32038070D01*
X17942733Y32036867D01*
G37*
%TD.AperFunction*%
%TD*%
%TA.AperFunction,Conductor*%
%TO.N,/GPIO21\u005CU0TXD*%
G36*
X8983359Y19508645D02*
G01*
X9212803Y19299822D01*
X9330654Y19192563D01*
X9334466Y19184460D01*
X9331432Y19176035D01*
X9331052Y19175637D01*
X9252487Y19097072D01*
X9246352Y19093842D01*
X8776804Y19006566D01*
X8768044Y19008423D01*
X8763163Y19015931D01*
X8762967Y19018032D01*
X8762304Y19299824D01*
X8765710Y19308102D01*
X8967239Y19508293D01*
X8975524Y19511691D01*
X8983359Y19508645D01*
G37*
%TD.AperFunction*%
%TD*%
%TA.AperFunction,Conductor*%
%TO.N,/GPIO20\u005CU0RXD*%
G36*
X10299543Y24683039D02*
G01*
X10876195Y24638829D01*
X10884181Y24634780D01*
X10887000Y24627163D01*
X10887000Y24140838D01*
X10883573Y24132565D01*
X10876194Y24129172D01*
X10299552Y24084963D01*
X10291041Y24087748D01*
X10286992Y24095735D01*
X10286958Y24096590D01*
X10286000Y24384000D01*
X10286958Y24671411D01*
X10290412Y24679673D01*
X10298697Y24683072D01*
X10299543Y24683039D01*
G37*
%TD.AperFunction*%
%TD*%
%TA.AperFunction,Conductor*%
%TO.N,/GPIO20\u005CU0RXD*%
G36*
X17539115Y31039757D02*
G01*
X17996057Y30982497D01*
X18002875Y30979161D01*
X18081696Y30900340D01*
X18085123Y30892067D01*
X18081825Y30883925D01*
X17746376Y30537776D01*
X17738158Y30534219D01*
X17729832Y30537516D01*
X17729728Y30537617D01*
X17528758Y30737251D01*
X17525304Y30745513D01*
X17525304Y30745579D01*
X17525968Y31028177D01*
X17529414Y31036440D01*
X17537695Y31039847D01*
X17539115Y31039757D01*
G37*
%TD.AperFunction*%
%TD*%
%TA.AperFunction,Conductor*%
%TO.N,/CC2*%
G36*
X17134046Y9507792D02*
G01*
X17397517Y9399607D01*
X17401373Y9397030D01*
X17601239Y9195827D01*
X17604638Y9187542D01*
X17601184Y9179280D01*
X17599554Y9177931D01*
X17130726Y8856521D01*
X17121964Y8854669D01*
X17115837Y8857898D01*
X16983840Y8989895D01*
X16980413Y8998168D01*
X16980832Y9001269D01*
X17118327Y9500077D01*
X17123829Y9507141D01*
X17132715Y9508246D01*
X17134046Y9507792D01*
G37*
%TD.AperFunction*%
%TD*%
%TA.AperFunction,Conductor*%
%TO.N,/CC2*%
G36*
X16709160Y8184573D02*
G01*
X16712387Y8178453D01*
X16733564Y8065325D01*
X16733498Y8060691D01*
X16620434Y7539688D01*
X16615330Y7532330D01*
X16606519Y7530735D01*
X16599161Y7535839D01*
X16597566Y7539688D01*
X16484501Y8060691D01*
X16484435Y8065325D01*
X16505613Y8178453D01*
X16510503Y8185954D01*
X16517113Y8188000D01*
X16700887Y8188000D01*
X16709160Y8184573D01*
G37*
%TD.AperFunction*%
%TD*%
%TA.AperFunction,Conductor*%
%TO.N,/CC1*%
G36*
X13653507Y8233691D02*
G01*
X13656388Y8228949D01*
X13708064Y8065715D01*
X13708440Y8060197D01*
X13619884Y7546348D01*
X13615102Y7538777D01*
X13606367Y7536805D01*
X13598796Y7541587D01*
X13596923Y7545839D01*
X13484951Y8058645D01*
X13486189Y8066885D01*
X13506110Y8102233D01*
X13508023Y8104753D01*
X13636962Y8233692D01*
X13645234Y8237118D01*
X13653507Y8233691D01*
G37*
%TD.AperFunction*%
%TD*%
%TA.AperFunction,Conductor*%
%TO.N,/CC1*%
G36*
X12911282Y8867393D02*
G01*
X12917894Y8861357D01*
X12919000Y8856392D01*
X12919000Y8669609D01*
X12915573Y8661336D01*
X12911281Y8658607D01*
X12444285Y8489629D01*
X12435339Y8490037D01*
X12429508Y8496120D01*
X12319883Y8758491D01*
X12319857Y8767444D01*
X12319862Y8767458D01*
X12429508Y9029882D01*
X12435860Y9036193D01*
X12444285Y9036372D01*
X12911282Y8867393D01*
G37*
%TD.AperFunction*%
%TD*%
%TA.AperFunction,Conductor*%
%TO.N,Net-(LED1-A)*%
G36*
X24633423Y9527385D02*
G01*
X24640272Y9521615D01*
X24640755Y9520556D01*
X24745085Y9258195D01*
X24744958Y9249241D01*
X24741363Y9244611D01*
X24411172Y8989710D01*
X24402529Y8987367D01*
X24395749Y8990698D01*
X24228733Y9157714D01*
X24225306Y9165987D01*
X24226041Y9170067D01*
X24258835Y9258195D01*
X24384114Y9594859D01*
X24390210Y9601416D01*
X24398618Y9601929D01*
X24633423Y9527385D01*
G37*
%TD.AperFunction*%
%TD*%
%TA.AperFunction,Conductor*%
%TO.N,Net-(LED1-A)*%
G36*
X23709109Y8643724D02*
G01*
X23712157Y8641528D01*
X23880344Y8473341D01*
X23883771Y8465068D01*
X23882245Y8459291D01*
X23519361Y7820176D01*
X23512296Y7814674D01*
X23504184Y7815377D01*
X23117700Y7998208D01*
X23111688Y8004842D01*
X22975872Y8389782D01*
X22976351Y8398723D01*
X22983012Y8404707D01*
X22983133Y8404750D01*
X23700177Y8644352D01*
X23709109Y8643724D01*
G37*
%TD.AperFunction*%
%TD*%
%TA.AperFunction,Conductor*%
%TO.N,Net-(U1-CHRGb)*%
G36*
X9482282Y13185393D02*
G01*
X9488894Y13179357D01*
X9490000Y13174392D01*
X9490000Y12987609D01*
X9486573Y12979336D01*
X9482281Y12976607D01*
X9015285Y12807629D01*
X9006339Y12808037D01*
X9000508Y12814120D01*
X8890883Y13076491D01*
X8890857Y13085444D01*
X8890862Y13085458D01*
X9000508Y13347882D01*
X9006860Y13354193D01*
X9015285Y13354372D01*
X9482282Y13185393D01*
G37*
%TD.AperFunction*%
%TD*%
%TA.AperFunction,Conductor*%
%TO.N,Net-(U1-PROG)*%
G36*
X15363096Y12869330D02*
G01*
X15367019Y12861280D01*
X15367041Y12860608D01*
X15367992Y12575368D01*
X15367088Y12570818D01*
X15256202Y12305429D01*
X15249850Y12299117D01*
X15242196Y12298689D01*
X14787624Y12428378D01*
X14780609Y12433943D01*
X14779134Y12439629D01*
X14779134Y12826192D01*
X14782561Y12834465D01*
X14790120Y12837870D01*
X15354630Y12872247D01*
X15363096Y12869330D01*
G37*
%TD.AperFunction*%
%TD*%
%TA.AperFunction,Conductor*%
%TO.N,Net-(U1-PROG)*%
G36*
X14993256Y12839483D02*
G01*
X15000395Y12834077D01*
X15002000Y12828162D01*
X15002000Y12439839D01*
X14998573Y12431566D01*
X14993256Y12428518D01*
X14731032Y12360053D01*
X14723208Y12360735D01*
X14575071Y12428518D01*
X14149250Y12623362D01*
X14143154Y12629919D01*
X14143480Y12638868D01*
X14149251Y12644639D01*
X14723210Y12907267D01*
X14731029Y12907948D01*
X14993256Y12839483D01*
G37*
%TD.AperFunction*%
%TD*%
%TA.AperFunction,Conductor*%
%TO.N,Net-(BUT1-Pad2)*%
G36*
X21918150Y29876695D02*
G01*
X21921953Y29872892D01*
X22234513Y29367025D01*
X22235990Y29358378D01*
X22168011Y29047203D01*
X22162898Y29039852D01*
X22156581Y29038000D01*
X21667419Y29038000D01*
X21659146Y29041427D01*
X21655989Y29047203D01*
X21588009Y29358380D01*
X21589485Y29367023D01*
X21902047Y29872893D01*
X21909311Y29878129D01*
X21918150Y29876695D01*
G37*
%TD.AperFunction*%
%TD*%
%TA.AperFunction,Conductor*%
%TO.N,Net-(BUT1-Pad2)*%
G36*
X22164854Y26584573D02*
G01*
X22168011Y26578797D01*
X22235990Y26267623D01*
X22234513Y26258976D01*
X21921953Y25753109D01*
X21914689Y25747872D01*
X21905850Y25749306D01*
X21902047Y25753109D01*
X21589486Y26258976D01*
X21588009Y26267621D01*
X21655989Y26578799D01*
X21661102Y26586148D01*
X21667419Y26588000D01*
X22156581Y26588000D01*
X22164854Y26584573D01*
G37*
%TD.AperFunction*%
%TD*%
%TA.AperFunction,Conductor*%
%TO.N,Net-(BUT1-Pad2)*%
G36*
X22164476Y25349837D02*
G01*
X22167721Y25343620D01*
X22268552Y24778710D01*
X22266632Y24769963D01*
X22259090Y24765136D01*
X22257073Y24764954D01*
X21971000Y24764000D01*
X21682405Y24764962D01*
X21674143Y24768416D01*
X21670748Y24776402D01*
X21658264Y25341307D01*
X21661507Y25349652D01*
X21669703Y25353261D01*
X21669961Y25353264D01*
X22156203Y25353264D01*
X22164476Y25349837D01*
G37*
%TD.AperFunction*%
%TD*%
%TA.AperFunction,Conductor*%
%TO.N,Net-(BUT1-Pad2)*%
G36*
X21918150Y25726695D02*
G01*
X21921953Y25722892D01*
X22234513Y25217025D01*
X22235990Y25208378D01*
X22168011Y24897203D01*
X22162898Y24889852D01*
X22156581Y24888000D01*
X21667419Y24888000D01*
X21659146Y24891427D01*
X21655989Y24897203D01*
X21588009Y25208380D01*
X21589485Y25217023D01*
X21902047Y25722893D01*
X21909311Y25728129D01*
X21918150Y25726695D01*
G37*
%TD.AperFunction*%
%TD*%
%TA.AperFunction,Conductor*%
%TO.N,/GPIO2\u005CFSPIQ*%
G36*
X8911458Y33484171D02*
G01*
X8911964Y33483115D01*
X9004141Y33262501D01*
X9021871Y33220068D01*
X9022775Y33215518D01*
X9021817Y32928279D01*
X9018363Y32920017D01*
X9011457Y32916695D01*
X8487781Y32856304D01*
X8479170Y32858761D01*
X8474818Y32866587D01*
X8474741Y32867927D01*
X8474741Y33254228D01*
X8478168Y33262501D01*
X8480874Y33264518D01*
X8601986Y33330043D01*
X8895601Y33488895D01*
X8904508Y33489817D01*
X8911458Y33484171D01*
G37*
%TD.AperFunction*%
%TD*%
%TA.AperFunction,Conductor*%
%TO.N,/GPIO2\u005CFSPIQ*%
G36*
X5840514Y20465446D02*
G01*
X5840718Y20465358D01*
X6308015Y20259576D01*
X6314206Y20253105D01*
X6315000Y20248868D01*
X6315000Y20137133D01*
X6311573Y20128860D01*
X6308015Y20126425D01*
X5840718Y19920643D01*
X5831766Y19920445D01*
X5825295Y19926636D01*
X5825207Y19926840D01*
X5741816Y20126425D01*
X5715883Y20188491D01*
X5715857Y20197444D01*
X5715862Y20197458D01*
X5825208Y20459163D01*
X5831559Y20465473D01*
X5840514Y20465446D01*
G37*
%TD.AperFunction*%
%TD*%
%TA.AperFunction,Conductor*%
%TO.N,/GPIO2\u005CFSPIQ*%
G36*
X16449702Y19173573D02*
G01*
X16449967Y19173299D01*
X16903403Y18689325D01*
X16906559Y18680945D01*
X16906366Y18679176D01*
X16520192Y16613520D01*
X16515303Y16606017D01*
X16506541Y16604169D01*
X16499038Y16609058D01*
X16497302Y16612991D01*
X16497178Y16613520D01*
X16011120Y18680237D01*
X16012562Y18689073D01*
X16316059Y19171531D01*
X16323364Y19176708D01*
X16325962Y19177000D01*
X16441429Y19177000D01*
X16449702Y19173573D01*
G37*
%TD.AperFunction*%
%TD*%
%TA.AperFunction,Conductor*%
%TO.N,/GPIO4\u005CFSPIHD*%
G36*
X14176377Y26907363D02*
G01*
X14176661Y26907070D01*
X14311299Y26762331D01*
X14428463Y26636376D01*
X14431588Y26627984D01*
X14428189Y26620153D01*
X14225663Y26416672D01*
X14221814Y26414103D01*
X13958828Y26306120D01*
X13949873Y26306147D01*
X13943561Y26312499D01*
X13943167Y26313616D01*
X13771234Y26895777D01*
X13772177Y26904681D01*
X13779141Y26910311D01*
X13782455Y26910790D01*
X14168104Y26910790D01*
X14176377Y26907363D01*
G37*
%TD.AperFunction*%
%TD*%
%TA.AperFunction,Conductor*%
%TO.N,/GPIO4\u005CFSPIHD*%
G36*
X15633543Y24556039D02*
G01*
X16210195Y24511829D01*
X16218181Y24507780D01*
X16221000Y24500163D01*
X16221000Y24013838D01*
X16217573Y24005565D01*
X16210194Y24002172D01*
X15633552Y23957963D01*
X15625041Y23960748D01*
X15620992Y23968735D01*
X15620958Y23969590D01*
X15620000Y24257000D01*
X15620958Y24544411D01*
X15624412Y24552673D01*
X15632697Y24556072D01*
X15633543Y24556039D01*
G37*
%TD.AperFunction*%
%TD*%
%TA.AperFunction,Conductor*%
%TO.N,/GPIO10\u005CFSPICS0*%
G36*
X12260063Y28958703D02*
G01*
X12266121Y28952934D01*
X12565235Y28324669D01*
X12565697Y28315727D01*
X12559700Y28309076D01*
X12554671Y28307940D01*
X12169781Y28307940D01*
X12164182Y28309367D01*
X11813286Y28500615D01*
X11807662Y28507583D01*
X11808071Y28515354D01*
X11936141Y28825500D01*
X11942464Y28831836D01*
X12251110Y28958726D01*
X12260063Y28958703D01*
G37*
%TD.AperFunction*%
%TD*%
%TA.AperFunction,Conductor*%
%TO.N,/GPIO10\u005CFSPICS0*%
G36*
X19337410Y25400042D02*
G01*
X19345672Y25396588D01*
X19349071Y25388303D01*
X19349037Y25387448D01*
X19304828Y24810806D01*
X19300779Y24802819D01*
X19293162Y24800000D01*
X18806838Y24800000D01*
X18798565Y24803427D01*
X18795172Y24810806D01*
X18750962Y25387448D01*
X18753747Y25395959D01*
X18761734Y25400008D01*
X18762587Y25400042D01*
X19050000Y25401000D01*
X19337410Y25400042D01*
G37*
%TD.AperFunction*%
%TD*%
%TA.AperFunction,Conductor*%
%TO.N,/GPIO10\u005CFSPICS0*%
G36*
X19305226Y25396573D02*
G01*
X19307295Y25393771D01*
X19547948Y24938879D01*
X19548995Y24930729D01*
X19061389Y22857427D01*
X19056159Y22850159D01*
X19047321Y22848717D01*
X19040053Y22853947D01*
X19038611Y22857427D01*
X18551004Y24930729D01*
X18552050Y24938877D01*
X18792705Y25393771D01*
X18799603Y25399482D01*
X18803047Y25400000D01*
X19296953Y25400000D01*
X19305226Y25396573D01*
G37*
%TD.AperFunction*%
%TD*%
%TA.AperFunction,Conductor*%
%TO.N,/GPIO7\u005CI2C_SDA*%
G36*
X17482982Y25791713D02*
G01*
X17567448Y25773757D01*
X18008089Y25680080D01*
X18015468Y25675009D01*
X18017099Y25666204D01*
X18016478Y25664193D01*
X17909563Y25403816D01*
X17903251Y25397464D01*
X17903184Y25397437D01*
X17639272Y25289070D01*
X17630317Y25289097D01*
X17624712Y25294014D01*
X17391487Y25695448D01*
X17390295Y25704322D01*
X17393330Y25709596D01*
X17472277Y25788543D01*
X17480549Y25791969D01*
X17482982Y25791713D01*
G37*
%TD.AperFunction*%
%TD*%
%TA.AperFunction,Conductor*%
%TO.N,/GPIO7\u005CI2C_SDA*%
G36*
X15362958Y22648253D02*
G01*
X15367007Y22640266D01*
X15367041Y22639411D01*
X15368000Y22352000D01*
X15367041Y22064590D01*
X15363586Y22056328D01*
X15355302Y22052929D01*
X15354447Y22052963D01*
X14777806Y22097172D01*
X14769819Y22101221D01*
X14767000Y22108838D01*
X14767000Y22595163D01*
X14770427Y22603436D01*
X14777804Y22606829D01*
X15354447Y22651038D01*
X15362958Y22648253D01*
G37*
%TD.AperFunction*%
%TD*%
%TA.AperFunction,Conductor*%
%TO.N,/GPIO7\u005CI2C_SDA*%
G36*
X17971141Y22948573D02*
G01*
X17973576Y22945015D01*
X18179357Y22477719D01*
X18179555Y22468767D01*
X18173364Y22462296D01*
X18173160Y22462208D01*
X17911511Y22352885D01*
X17902556Y22352858D01*
X17902489Y22352885D01*
X17640839Y22462208D01*
X17634527Y22468560D01*
X17634554Y22477515D01*
X17634642Y22477719D01*
X17840424Y22945015D01*
X17846895Y22951206D01*
X17851132Y22952000D01*
X17962868Y22952000D01*
X17971141Y22948573D01*
G37*
%TD.AperFunction*%
%TD*%
%TA.AperFunction,Conductor*%
%TO.N,/GPIO7\u005CI2C_SDA*%
G36*
X18173160Y25289793D02*
G01*
X18179472Y25283441D01*
X18179445Y25274486D01*
X18179357Y25274282D01*
X17973576Y24806985D01*
X17967105Y24800794D01*
X17962868Y24800000D01*
X17851132Y24800000D01*
X17842859Y24803427D01*
X17840424Y24806985D01*
X17634642Y25274282D01*
X17634444Y25283234D01*
X17640635Y25289705D01*
X17640786Y25289771D01*
X17902490Y25399117D01*
X17911444Y25399143D01*
X18173160Y25289793D01*
G37*
%TD.AperFunction*%
%TD*%
%TA.AperFunction,Conductor*%
%TO.N,/GPIO5\u005CBAT_MEASURE*%
G36*
X15051129Y26377573D02*
G01*
X15052904Y26375294D01*
X15256251Y26034394D01*
X15257546Y26025533D01*
X15252197Y26018352D01*
X15250714Y26017604D01*
X14990511Y25908885D01*
X14981556Y25908858D01*
X14981489Y25908885D01*
X14721285Y26017604D01*
X14714973Y26023956D01*
X14715000Y26032911D01*
X14715743Y26034385D01*
X14919096Y26375295D01*
X14926277Y26380643D01*
X14929144Y26381000D01*
X15042856Y26381000D01*
X15051129Y26377573D01*
G37*
%TD.AperFunction*%
%TD*%
%TA.AperFunction,Conductor*%
%TO.N,/GPIO1\u005CEXT_PWR_SENSE*%
G36*
X12721087Y21065249D02*
G01*
X12727399Y21058897D01*
X12727482Y21058690D01*
X12912401Y20582752D01*
X12912203Y20573800D01*
X12909768Y20570242D01*
X12830758Y20491232D01*
X12822485Y20487805D01*
X12818248Y20488599D01*
X12342310Y20673518D01*
X12335839Y20679709D01*
X12335641Y20688661D01*
X12335686Y20688775D01*
X12443436Y20951186D01*
X12449746Y20957536D01*
X12712134Y21065276D01*
X12721087Y21065249D01*
G37*
%TD.AperFunction*%
%TD*%
%TA.AperFunction,Conductor*%
%TO.N,/GPIO1\u005CEXT_PWR_SENSE*%
G36*
X10571457Y26690449D02*
G01*
X10574481Y26686201D01*
X10684851Y26420700D01*
X10684862Y26411745D01*
X10684697Y26411366D01*
X10574411Y26168857D01*
X10567867Y26162744D01*
X10563761Y26162000D01*
X9924931Y26162000D01*
X9916658Y26165427D01*
X9913231Y26173700D01*
X9914466Y26178932D01*
X10156972Y26663945D01*
X10163737Y26669813D01*
X10166753Y26670392D01*
X10562999Y26693390D01*
X10571457Y26690449D01*
G37*
%TD.AperFunction*%
%TD*%
%TA.AperFunction,Conductor*%
%TO.N,/GPIO1\u005CEXT_PWR_SENSE*%
G36*
X17844141Y17106573D02*
G01*
X17846576Y17103015D01*
X18052357Y16635719D01*
X18052555Y16626767D01*
X18046364Y16620296D01*
X18046160Y16620208D01*
X17784511Y16510885D01*
X17775556Y16510858D01*
X17775489Y16510885D01*
X17513839Y16620208D01*
X17507527Y16626560D01*
X17507554Y16635515D01*
X17507642Y16635719D01*
X17713424Y17103015D01*
X17719895Y17109206D01*
X17724132Y17110000D01*
X17835868Y17110000D01*
X17844141Y17106573D01*
G37*
%TD.AperFunction*%
%TD*%
%TA.AperFunction,Conductor*%
%TO.N,/GPIO3\u005CI2C_SCK*%
G36*
X12585543Y17190039D02*
G01*
X13162195Y17145829D01*
X13170181Y17141780D01*
X13173000Y17134163D01*
X13173000Y16647838D01*
X13169573Y16639565D01*
X13162194Y16636172D01*
X12585552Y16591963D01*
X12577041Y16594748D01*
X12572992Y16602735D01*
X12572958Y16603590D01*
X12572000Y16891000D01*
X12572958Y17178411D01*
X12576412Y17186673D01*
X12584697Y17190072D01*
X12585543Y17190039D01*
G37*
%TD.AperFunction*%
%TD*%
%TA.AperFunction,Conductor*%
%TO.N,/GPIO3\u005CI2C_SCK*%
G36*
X13471348Y17249078D02*
G01*
X13474473Y17246112D01*
X13915276Y16637000D01*
X13964126Y16569499D01*
X13966201Y16560788D01*
X13961507Y16553162D01*
X13961487Y16553147D01*
X13477548Y16204478D01*
X13468833Y16202422D01*
X13463001Y16205170D01*
X13286619Y16359666D01*
X12973991Y16633505D01*
X12970026Y16641534D01*
X12970000Y16642306D01*
X12970000Y17135544D01*
X12973427Y17143817D01*
X12979244Y17146984D01*
X13462542Y17250693D01*
X13471348Y17249078D01*
G37*
%TD.AperFunction*%
%TD*%
%TA.AperFunction,Conductor*%
%TO.N,/GPIO3\u005CI2C_SCK*%
G36*
X9035250Y32505896D02*
G01*
X9039343Y32497931D01*
X9039382Y32497013D01*
X9040332Y32212038D01*
X9039428Y32207488D01*
X8928438Y31941848D01*
X8922086Y31935536D01*
X8914728Y31935028D01*
X8457739Y32052541D01*
X8450580Y32057920D01*
X8448953Y32063872D01*
X8448953Y32450421D01*
X8452380Y32458694D01*
X8459696Y32462082D01*
X9026726Y32508635D01*
X9035250Y32505896D01*
G37*
%TD.AperFunction*%
%TD*%
%TA.AperFunction,Conductor*%
%TO.N,/GPIO9\u005CUSER_BUT*%
G36*
X20060908Y26584531D02*
G01*
X20065836Y26577055D01*
X20066047Y26574883D01*
X20066983Y26293886D01*
X20063584Y26285601D01*
X20063537Y26285554D01*
X19861146Y26084113D01*
X19852864Y26080706D01*
X19845740Y26083146D01*
X19501532Y26348988D01*
X19497079Y26356757D01*
X19496984Y26358248D01*
X19496984Y26469838D01*
X19500411Y26478111D01*
X19506470Y26481326D01*
X20052138Y26586333D01*
X20060908Y26584531D01*
G37*
%TD.AperFunction*%
%TD*%
%TA.AperFunction,Conductor*%
%TO.N,/GPIO8\u005CUSER_LED*%
G36*
X24896257Y10909743D02*
G01*
X25007573Y10798427D01*
X25011000Y10790154D01*
X25011000Y10545846D01*
X25007573Y10537573D01*
X24896257Y10426258D01*
X24887984Y10422831D01*
X24879727Y10426241D01*
X24645323Y10659710D01*
X24641880Y10667977D01*
X24645290Y10676257D01*
X24645323Y10676290D01*
X24879727Y10909760D01*
X24888007Y10913170D01*
X24896257Y10909743D01*
G37*
%TD.AperFunction*%
%TD*%
%TA.AperFunction,Conductor*%
%TO.N,/GPIO8\u005CUSER_LED*%
G36*
X25860101Y11765486D02*
G01*
X26666214Y11432563D01*
X26672553Y11426238D01*
X26672562Y11426215D01*
X27005481Y10620111D01*
X27005472Y10611156D01*
X26999133Y10604831D01*
X26998519Y10604597D01*
X25509499Y10085380D01*
X25500559Y10085892D01*
X25497374Y10088155D01*
X25328154Y10257375D01*
X25324727Y10265648D01*
X25325378Y10269498D01*
X25844596Y11758521D01*
X25850556Y11765204D01*
X25859496Y11765716D01*
X25860101Y11765486D01*
G37*
%TD.AperFunction*%
%TD*%
%TA.AperFunction,Conductor*%
%TO.N,/GPIO8\u005CUSER_LED*%
G36*
X25858482Y11766154D02*
G01*
X25971908Y11719310D01*
X26663466Y11433698D01*
X26669805Y11427373D01*
X26670700Y11422875D01*
X26670009Y10553066D01*
X26666576Y10544795D01*
X26658300Y10541375D01*
X26657940Y10541381D01*
X25494431Y10578053D01*
X25486527Y10581474D01*
X25316320Y10751681D01*
X25312893Y10759954D01*
X25314261Y10765444D01*
X25843686Y11760835D01*
X25850597Y11766529D01*
X25858482Y11766154D01*
G37*
%TD.AperFunction*%
%TD*%
%TA.AperFunction,Conductor*%
%TO.N,/GPIO8\u005CUSER_LED*%
G36*
X25236958Y8767727D02*
G01*
X25404726Y8599959D01*
X25408153Y8591686D01*
X25406955Y8586528D01*
X25042828Y7845146D01*
X25036105Y7839231D01*
X25027872Y7839485D01*
X24641801Y7998437D01*
X24635455Y8004756D01*
X24476483Y8390875D01*
X24476502Y8399827D01*
X24482142Y8405828D01*
X25223529Y8769957D01*
X25232464Y8770527D01*
X25236958Y8767727D01*
G37*
%TD.AperFunction*%
%TD*%
%TA.AperFunction,Conductor*%
%TO.N,/GPIO8\u005CUSER_LED*%
G36*
X19693747Y25866403D02*
G01*
X20169689Y25681483D01*
X20176160Y25675292D01*
X20176358Y25666340D01*
X20176275Y25666133D01*
X20068563Y25403816D01*
X20062251Y25397464D01*
X20062184Y25397437D01*
X19799867Y25289725D01*
X19790912Y25289752D01*
X19784600Y25296104D01*
X19784517Y25296311D01*
X19745226Y25397437D01*
X19599598Y25772251D01*
X19599796Y25781201D01*
X19602228Y25784756D01*
X19681242Y25863770D01*
X19689514Y25867196D01*
X19693747Y25866403D01*
G37*
%TD.AperFunction*%
%TD*%
%TA.AperFunction,Conductor*%
%TO.N,/GPIO8\u005CUSER_LED*%
G36*
X25858051Y11766333D02*
G01*
X26662766Y11433988D01*
X26669105Y11427663D01*
X26670000Y11423174D01*
X26670000Y10555586D01*
X26666573Y10547313D01*
X26658300Y10543886D01*
X26655762Y10544165D01*
X25527003Y10795000D01*
X25527000Y10795000D01*
X25293493Y10795000D01*
X25285220Y10798427D01*
X25281793Y10806700D01*
X25283416Y10812646D01*
X25843513Y11761469D01*
X25850667Y11766848D01*
X25858051Y11766333D01*
G37*
%TD.AperFunction*%
%TD*%
%TA.AperFunction,Conductor*%
%TO.N,/GPIO8\u005CUSER_LED*%
G36*
X25859009Y11765912D02*
G01*
X26662789Y11431996D01*
X26669114Y11425657D01*
X26670000Y11421191D01*
X26670000Y10552689D01*
X26666573Y10544416D01*
X26658312Y10540989D01*
X25527000Y10539829D01*
X25291391Y10539829D01*
X25283118Y10543256D01*
X25279691Y10551529D01*
X25280794Y10556487D01*
X25685373Y11421191D01*
X25843926Y11760066D01*
X25850535Y11766106D01*
X25859009Y11765912D01*
G37*
%TD.AperFunction*%
%TD*%
%TA.AperFunction,Conductor*%
%TO.N,/USB_DN*%
G36*
X14118840Y7440162D02*
G01*
X14120434Y7436313D01*
X14233498Y6915310D01*
X14233564Y6910676D01*
X14212387Y6797547D01*
X14207497Y6790046D01*
X14200887Y6788000D01*
X14017113Y6788000D01*
X14008840Y6791427D01*
X14005613Y6797547D01*
X13984435Y6910676D01*
X13984501Y6915310D01*
X14097566Y7436313D01*
X14102670Y7443672D01*
X14111481Y7445266D01*
X14118840Y7440162D01*
G37*
%TD.AperFunction*%
%TD*%
%TA.AperFunction,Conductor*%
%TO.N,/USB_DN*%
G36*
X15118840Y7440162D02*
G01*
X15120434Y7436313D01*
X15233498Y6915310D01*
X15233564Y6910676D01*
X15212387Y6797547D01*
X15207497Y6790046D01*
X15200887Y6788000D01*
X15017113Y6788000D01*
X15008840Y6791427D01*
X15005613Y6797547D01*
X14984435Y6910676D01*
X14984501Y6915310D01*
X15097566Y7436313D01*
X15102670Y7443672D01*
X15111481Y7445266D01*
X15118840Y7440162D01*
G37*
%TD.AperFunction*%
%TD*%
%TA.AperFunction,Conductor*%
%TO.N,/USB_DN*%
G36*
X19475179Y29255417D02*
G01*
X19708359Y29139118D01*
X19850007Y29068470D01*
X19855881Y29061711D01*
X19855255Y29052778D01*
X19850007Y29047530D01*
X19475186Y28860587D01*
X19466253Y28859961D01*
X19464799Y28860559D01*
X19276535Y28953185D01*
X19270624Y28959912D01*
X19270000Y28963683D01*
X19270000Y29152318D01*
X19273427Y29160591D01*
X19276531Y29162814D01*
X19464801Y29255443D01*
X19473735Y29256020D01*
X19475179Y29255417D01*
G37*
%TD.AperFunction*%
%TD*%
%TA.AperFunction,Conductor*%
%TO.N,/USB_DP*%
G36*
X19475179Y30055417D02*
G01*
X19708359Y29939118D01*
X19850007Y29868470D01*
X19855881Y29861711D01*
X19855255Y29852778D01*
X19850007Y29847530D01*
X19475186Y29660587D01*
X19466253Y29659961D01*
X19464799Y29660559D01*
X19276535Y29753185D01*
X19270624Y29759912D01*
X19270000Y29763683D01*
X19270000Y29952318D01*
X19273427Y29960591D01*
X19276531Y29962814D01*
X19464801Y30055443D01*
X19473735Y30056020D01*
X19475179Y30055417D01*
G37*
%TD.AperFunction*%
%TD*%
%TA.AperFunction,Conductor*%
%TO.N,/USB_DP*%
G36*
X15709160Y8184573D02*
G01*
X15712387Y8178453D01*
X15733564Y8065325D01*
X15733498Y8060691D01*
X15620434Y7539688D01*
X15615330Y7532330D01*
X15606519Y7530735D01*
X15599161Y7535839D01*
X15597566Y7539688D01*
X15484501Y8060691D01*
X15484435Y8065325D01*
X15505613Y8178453D01*
X15510503Y8185954D01*
X15517113Y8188000D01*
X15700887Y8188000D01*
X15709160Y8184573D01*
G37*
%TD.AperFunction*%
%TD*%
M02*
