M48
; DRILL file {KiCad 7.0.9-7.0.9~ubuntu22.04.1} date  9.01.2026 (пт) 16:00:17
; FORMAT={-:-/ absolute / metric / decimal}
; #@! TF.CreationDate,2026-01-09T16:00:17+02:00
; #@! TF.GenerationSoftware,Kicad,Pcbnew,7.0.9-7.0.9~ubuntu22.04.1
; #@! TF.FileFunction,Plated,1,2,PTH
FMAT,2
METRIC
; #@! TA.AperFunction,Plated,PTH,ViaDrill
T1C0.300
; #@! TA.AperFunction,Plated,PTH,ViaDrill
T2C0.400
; #@! TA.AperFunction,Plated,PTH,ViaDrill
T3C0.600
; #@! TA.AperFunction,Plated,PTH,ComponentDrill
T4C0.800
; #@! TA.AperFunction,Plated,PTH,ComponentDrill
T5C0.900
; #@! TA.AperFunction,Plated,PTH,ComponentDrill
T6C1.000
; #@! TA.AperFunction,Plated,PTH,ComponentDrill
T7C1.100
%
G90
G05
T1
X3.048Y30.353
X5.715Y20.193
X7.874Y6.35
X8.763Y19.304
X8.89Y13.081
X9.022Y33.218
X9.039Y32.21
X9.525Y29.591
X10.16Y22.606
X10.287Y24.384
X10.541Y26.416
X11.049Y29.21
X11.049Y4.191
X11.684Y26.416
X12.319Y8.763
X12.446Y20.955
X12.573Y16.891
X13.97Y9.779
X14.224Y26.416
X14.351Y9.017
X14.986Y25.908
X14.986Y0.889
X15.367Y22.352
X15.367Y16.383
X15.367Y12.573
X15.367Y9.017
X15.621Y24.257
X15.702Y6.096
X16.637Y9.906
X17.399Y29.083
X17.399Y9.398
X17.526Y31.623
X17.526Y30.741
X17.653Y0.889
X17.78Y16.51
X17.907Y28.47
X17.907Y25.4
X17.907Y22.352
X18.5Y3.852
X18.923Y28.321
X19.05Y25.4
X20.066Y26.289
X20.066Y25.4
X20.066Y12.192
X20.955Y1.651
X21.717Y6.858
X21.971Y24.765
X22.606Y23.749
X24.13Y12.319
X25.654Y7.62
T2
X5.588Y30.734
X6.604Y28.956
X9.97Y36.068
X11.43Y36.068
X11.938Y28.829
X13.97Y36.068
X15.24Y36.068
X16.51Y36.068
X17.97Y36.068
T3
X3.048Y22.225
X3.048Y16.002
X3.048Y9.017
X6.223Y27.308
X6.858Y36.957
X7.493Y2.032
X7.62Y22.606
X7.747Y13.208
X7.874Y8.763
X8.001Y4.826
X9.144Y34.417
X10.033Y14.986
X11.43Y13.716
X11.684Y19.431
X15.24Y3.302
X15.367Y19.05
X15.367Y13.716
X16.383Y3.302
X17.272Y13.716
X19.812Y10.16
X20.447Y18.034
X20.997Y31.581
X21.336Y37.211
X22.352Y21.209
X22.352Y20.066
X22.606Y15.24
X22.606Y14.097
X22.987Y30.099
X22.987Y28.829
T5
X4.816Y10.52
X6.845Y10.523
T6
X1.27Y29.21
X1.27Y26.67
X1.27Y24.13
X1.27Y21.59
X1.27Y19.05
X1.27Y16.51
X1.27Y13.97
X1.27Y11.43
X1.27Y8.89
X26.67Y29.21
X26.67Y26.67
X26.67Y24.13
X26.67Y21.59
X26.67Y19.05
X26.67Y16.51
X26.67Y13.97
X26.67Y11.43
X26.67Y8.89
T7
X13.97Y32.258
T4
G00X10.539Y7.036
M15
G01X10.539Y6.136
M16
G05
G00X10.539Y2.706
M15
G01X10.539Y2.106
M16
G05
G00X19.179Y7.036
M15
G01X19.179Y6.136
M16
G05
G00X19.179Y2.706
M15
G01X19.179Y2.106
M16
G05
T0
M30
