M48
; DRILL file {KiCad 5.1.6-c6e7f7d~87~ubuntu18.04.1} date Wed Jun 29 16:44:06 2022
; FORMAT={-:-/ absolute / inch / decimal}
; #@! TF.CreationDate,2022-06-29T16:44:06+03:00
; #@! TF.GenerationSoftware,Kicad,Pcbnew,5.1.6-c6e7f7d~87~ubuntu18.04.1
; #@! TF.FileFunction,Plated,1,2,PTH
FMAT,2
INCH
T1C0.0157
T2C0.0236
T3C0.0315
T4C0.0354
T5C0.0394
%
G90
G05
T1
X5.2439Y-3.4999
X5.32Y-3.34
X5.3461Y-3.4661
X5.359Y-3.4049
X5.405Y-3.695
X5.4377Y-3.6413
X5.455Y-3.185
X5.455Y-3.83
X5.4551Y-4.0224
X5.4552Y-3.2422
X5.4559Y-3.2819
X5.475Y-3.408
X5.4925Y-3.13
X5.495Y-3.9
X5.5089Y-3.3573
X5.55Y-3.13
X5.56Y-3.545
X5.585Y-4.1
X5.6Y-3.13
X5.65Y-3.13
X5.665Y-4.16
X5.695Y-3.815
X5.6967Y-3.4247
X5.7Y-3.13
X5.705Y-4.16
X5.72Y-4.005
X5.7322Y-3.4268
X5.75Y-3.13
X5.75Y-3.855
X5.7677Y-3.4292
X5.78Y-3.7
X5.7955Y-3.3018
X5.8075Y-3.13
X5.8232Y-3.2752
X5.845Y-4.1106
X5.8751Y-3.7499
X5.88Y-4.14
X5.9Y-3.55
X5.9Y-3.59
X5.9001Y-3.5122
X5.905Y-3.7182
X5.905Y-3.8032
X5.9266Y-3.3066
X5.93Y-3.875
X5.9616Y-3.4305
X6.0102Y-3.5485
X6.0118Y-3.6153
X6.0135Y-3.3997
T2
X5.21Y-3.73
X5.21Y-3.925
X5.2427Y-4.189
X5.25Y-3.885
X5.3613Y-3.0851
X5.37Y-4.51
X5.5Y-4.07
X5.5Y-4.51
X5.625Y-4.51
X5.75Y-4.51
X5.78Y-3.75
X5.85Y-4.51
X5.925Y-4.51
X5.94Y-3.085
X6.0121Y-3.3583
X5.325Y-3.602
X5.325Y-3.6512
X5.325Y-3.7004
X5.325Y-3.7496
X5.325Y-3.7988
X5.325Y-3.848
T4
X5.3492Y-4.0095
X5.3493Y-4.0894
T5
X6.15Y-3.4
X6.15Y-3.5
X6.15Y-3.6
X6.15Y-3.7
X6.15Y-3.8
X6.15Y-3.9
X6.15Y-4.0
X6.15Y-4.1
X6.15Y-4.2
X5.15Y-3.4
X5.15Y-3.5
X5.15Y-3.6
X5.15Y-3.7
X5.15Y-3.8
X5.15Y-3.9
X5.15Y-4.0
X5.15Y-4.1
X5.15Y-4.2
T3
G00X5.5149Y-4.243
M15
G01X5.5149Y-4.2784
M16
G05
G00X5.5149Y-4.4135
M15
G01X5.5149Y-4.4371
M16
G05
G00X5.8551Y-4.243
M15
G01X5.8551Y-4.2784
M16
G05
G00X5.8551Y-4.4135
M15
G01X5.8551Y-4.4371
M16
G05
T0
M30
