G04 #@! TF.GenerationSoftware,KiCad,Pcbnew,5.1.6-c6e7f7d~87~ubuntu18.04.1*
G04 #@! TF.CreationDate,2022-06-29T16:43:55+03:00*
G04 #@! TF.ProjectId,ESP32-C3-DevKit-Lipo_Rev_A,45535033-322d-4433-932d-4465764b6974,A*
G04 #@! TF.SameCoordinates,Original*
G04 #@! TF.FileFunction,Copper,L2,Bot*
G04 #@! TF.FilePolarity,Positive*
%FSLAX46Y46*%
G04 Gerber Fmt 4.6, Leading zero omitted, Abs format (unit mm)*
G04 Created by KiCad (PCBNEW 5.1.6-c6e7f7d~87~ubuntu18.04.1) date 2022-06-29 16:43:55*
%MOMM*%
%LPD*%
G01*
G04 APERTURE LIST*
G04 #@! TA.AperFunction,ComponentPad*
%ADD10C,1.400000*%
G04 #@! TD*
G04 #@! TA.AperFunction,ComponentPad*
%ADD11R,1.400000X1.400000*%
G04 #@! TD*
G04 #@! TA.AperFunction,SMDPad,CuDef*
%ADD12R,0.762000X0.508000*%
G04 #@! TD*
G04 #@! TA.AperFunction,ConnectorPad*
%ADD13C,1.000000*%
G04 #@! TD*
G04 #@! TA.AperFunction,SMDPad,CuDef*
%ADD14R,0.508000X0.762000*%
G04 #@! TD*
G04 #@! TA.AperFunction,ComponentPad*
%ADD15O,1.500000X1.000000*%
G04 #@! TD*
G04 #@! TA.AperFunction,ComponentPad*
%ADD16C,1.778000*%
G04 #@! TD*
G04 #@! TA.AperFunction,ComponentPad*
%ADD17R,1.778000X1.778000*%
G04 #@! TD*
G04 #@! TA.AperFunction,ComponentPad*
%ADD18O,1.200000X2.200000*%
G04 #@! TD*
G04 #@! TA.AperFunction,ComponentPad*
%ADD19O,1.300000X2.000000*%
G04 #@! TD*
G04 #@! TA.AperFunction,ViaPad*
%ADD20C,1.000000*%
G04 #@! TD*
G04 #@! TA.AperFunction,ViaPad*
%ADD21C,0.700000*%
G04 #@! TD*
G04 #@! TA.AperFunction,Conductor*
%ADD22C,0.508000*%
G04 #@! TD*
G04 #@! TA.AperFunction,Conductor*
%ADD23C,0.762000*%
G04 #@! TD*
G04 #@! TA.AperFunction,Conductor*
%ADD24C,0.406400*%
G04 #@! TD*
G04 #@! TA.AperFunction,Conductor*
%ADD25C,0.254000*%
G04 #@! TD*
G04 #@! TA.AperFunction,Conductor*
%ADD26C,0.203200*%
G04 #@! TD*
G04 #@! TA.AperFunction,Conductor*
%ADD27C,0.025400*%
G04 #@! TD*
G04 APERTURE END LIST*
D10*
X135872220Y-103870760D03*
D11*
X135869680Y-101841300D03*
D12*
X149987000Y-95250000D03*
X149987000Y-96012000D03*
X149987000Y-93091000D03*
X149987000Y-93853000D03*
X149987000Y-99187000D03*
X149987000Y-98425000D03*
D13*
X130810000Y-114300000D03*
D14*
X136779000Y-92456000D03*
X137541000Y-92456000D03*
D15*
X135255000Y-97740000D03*
X135255000Y-96490000D03*
X135255000Y-95240000D03*
X135255000Y-93990000D03*
X135255000Y-92740000D03*
X135255000Y-91490000D03*
D16*
X130810000Y-106680000D03*
X130810000Y-101600000D03*
X130810000Y-104140000D03*
X130810000Y-99060000D03*
X130810000Y-96520000D03*
D17*
X130810000Y-86360000D03*
D16*
X130810000Y-88900000D03*
X130810000Y-91440000D03*
X130810000Y-93980000D03*
X156210000Y-93980000D03*
X156210000Y-91440000D03*
X156210000Y-88900000D03*
D17*
X156210000Y-86360000D03*
D16*
X156210000Y-96520000D03*
X156210000Y-99060000D03*
X156210000Y-104140000D03*
X156210000Y-101600000D03*
X156210000Y-106680000D03*
D18*
X140079000Y-108222000D03*
D19*
X140079000Y-112402000D03*
X148719000Y-112402000D03*
D18*
X148719000Y-108222000D03*
D13*
X130810000Y-78740000D03*
X156210000Y-78740000D03*
D20*
X132334000Y-94742000D03*
X133164210Y-106401771D03*
X132334004Y-99695000D03*
D21*
X141859000Y-104140000D03*
X148463000Y-104408201D03*
D20*
X139700000Y-103378000D03*
D21*
X139573000Y-99060000D03*
D20*
X152707200Y-85300782D03*
X146812000Y-95249999D03*
D21*
X141224000Y-90043000D03*
X150536881Y-83988875D03*
X149352000Y-105156000D03*
D20*
X133350000Y-98679000D03*
D21*
X146050000Y-97917000D03*
X146812000Y-93980000D03*
X147510500Y-79502000D03*
X139509500Y-79502000D03*
D20*
X136175882Y-78362000D03*
X150876002Y-78359000D03*
D21*
X140970000Y-79502000D03*
X142240000Y-79502000D03*
X143510000Y-79502000D03*
X144780000Y-79502000D03*
X146050000Y-79502000D03*
D20*
X136398000Y-114554000D03*
X139700000Y-114554000D03*
X142875000Y-114554000D03*
X146050000Y-114554000D03*
X148590000Y-114554000D03*
X150495000Y-114554000D03*
D21*
X145288000Y-101727014D03*
X152743510Y-86353360D03*
X152658653Y-90132209D03*
X152699210Y-91827524D03*
X138557000Y-80899000D03*
X138117822Y-92488861D03*
X144653000Y-96901000D03*
X135789867Y-88037859D03*
X135128000Y-84836000D03*
X151424192Y-87133533D03*
X136117457Y-86483493D03*
X144696832Y-86986716D03*
X133195203Y-88896910D03*
X138561783Y-82352115D03*
X149228278Y-95248499D03*
X138557000Y-97282002D03*
X138559500Y-102169000D03*
X149987000Y-94442778D03*
X150622000Y-98425000D03*
X149987000Y-96601790D03*
X139065000Y-86563676D03*
X138579340Y-83360330D03*
X147909790Y-83190590D03*
X149862599Y-89210635D03*
X137287000Y-93853000D03*
X147205235Y-83865210D03*
X139925050Y-85276467D03*
X149860000Y-90170000D03*
X149860000Y-91186000D03*
X144907000Y-105664000D03*
X146499900Y-87100466D03*
X143891000Y-105664000D03*
X145598701Y-87040210D03*
D22*
X132334028Y-94741972D02*
X132334000Y-94742000D01*
X130810000Y-86360000D02*
X132334028Y-87884028D01*
X132334028Y-87884028D02*
X132334028Y-94741972D01*
X133164210Y-106401771D02*
X132334004Y-105571565D01*
X132334004Y-105571565D02*
X132334004Y-99695000D01*
X141097000Y-104902000D02*
X141859000Y-104140000D01*
X138620500Y-104902000D02*
X141097000Y-104902000D01*
X133164210Y-106401771D02*
X137120729Y-106401771D01*
X137120729Y-106401771D02*
X138620500Y-104902000D01*
X139573000Y-103251000D02*
X139700000Y-103378000D01*
X139573000Y-99060000D02*
X139573000Y-103251000D01*
X151848788Y-85300782D02*
X150536881Y-83988875D01*
X152707200Y-85300782D02*
X151848788Y-85300782D01*
X139573000Y-95885000D02*
X139573000Y-99060000D01*
X141224000Y-90043000D02*
X141224000Y-94234000D01*
X141224000Y-94234000D02*
X139573000Y-95885000D01*
X134420003Y-103886000D02*
X133350000Y-102815997D01*
X133350000Y-102815997D02*
X133350000Y-98679000D01*
X135890000Y-103886000D02*
X134420003Y-103886000D01*
X149885421Y-83337415D02*
X149885421Y-79361173D01*
X150536881Y-83988875D02*
X149885421Y-83337415D01*
X149885421Y-79361173D02*
X150876002Y-78370592D01*
X150876002Y-78370592D02*
X150876002Y-78359000D01*
D23*
X140079000Y-108222000D02*
X138194000Y-108222000D01*
X140079000Y-108222000D02*
X140079000Y-106174000D01*
X140079000Y-112402000D02*
X138310000Y-112402000D01*
X140079000Y-112402000D02*
X141598000Y-112402000D01*
X148719000Y-105789000D02*
X149352000Y-105156000D01*
X148719000Y-108222000D02*
X148719000Y-105789000D01*
X148719000Y-108222000D02*
X150985000Y-108222000D01*
X148719000Y-112402000D02*
X146946000Y-112402000D01*
X148719000Y-112402000D02*
X148719000Y-114298000D01*
X140079000Y-112402000D02*
X140079000Y-114298000D01*
D22*
X156210000Y-86360000D02*
X152750150Y-86360000D01*
X152750150Y-86360000D02*
X152743510Y-86353360D01*
X152658653Y-90132209D02*
X152658653Y-91786967D01*
X152658653Y-91786967D02*
X152699210Y-91827524D01*
X138084961Y-92456000D02*
X138117822Y-92488861D01*
X137541000Y-92456000D02*
X138084961Y-92456000D01*
X144653000Y-101092014D02*
X144653000Y-96901000D01*
X145288000Y-101727014D02*
X144653000Y-101092014D01*
X137573861Y-92488861D02*
X138117822Y-92488861D01*
X137541000Y-92456000D02*
X137573861Y-92488861D01*
X137541000Y-91567000D02*
X135789867Y-89815867D01*
X137541000Y-92456000D02*
X137541000Y-91567000D01*
X135789867Y-89815867D02*
X135789867Y-88037859D01*
X139446000Y-80899000D02*
X138557000Y-80899000D01*
X151758360Y-86353360D02*
X149174203Y-83769203D01*
X152743510Y-86353360D02*
X151758360Y-86353360D01*
X140462000Y-81915000D02*
X139446000Y-80899000D01*
X149174203Y-83769203D02*
X149174203Y-82622104D01*
X149174203Y-82622104D02*
X148467099Y-81915000D01*
X148467099Y-81915000D02*
X140462000Y-81915000D01*
X137205209Y-82250791D02*
X137205209Y-82758791D01*
X138557000Y-80899000D02*
X137205209Y-82250791D01*
X137205209Y-82758791D02*
X135128000Y-84836000D01*
D24*
X135006598Y-87594352D02*
X136117457Y-86483493D01*
X135006598Y-91191598D02*
X135006598Y-87594352D01*
X135255000Y-91440000D02*
X135006598Y-91191598D01*
D25*
X151424192Y-87133533D02*
X148590000Y-84299341D01*
X138560419Y-84040531D02*
X136117457Y-86483493D01*
X148590000Y-82864100D02*
X148225111Y-82499211D01*
X138905837Y-84040531D02*
X138560419Y-84040531D01*
X148590000Y-84299341D02*
X148590000Y-82864100D01*
X140447157Y-82499211D02*
X138905837Y-84040531D01*
X148225111Y-82499211D02*
X140447157Y-82499211D01*
X145034000Y-85852000D02*
X144696832Y-86189168D01*
X146213397Y-85852000D02*
X145034000Y-85852000D01*
X148457935Y-88096538D02*
X146213397Y-85852000D01*
X148457935Y-98673935D02*
X148457935Y-88096538D01*
X148971000Y-99187000D02*
X148457935Y-98673935D01*
X144696832Y-86189168D02*
X144696832Y-86986716D01*
D22*
X149987000Y-99187000D02*
X148971000Y-99187000D01*
D25*
X133223000Y-95885000D02*
X133223000Y-88924707D01*
X130810000Y-96520000D02*
X132588000Y-96520000D01*
X133223000Y-88924707D02*
X133195203Y-88896910D01*
X132588000Y-96520000D02*
X133223000Y-95885000D01*
X133195203Y-88896910D02*
X133195203Y-87782504D01*
X138561783Y-82415924D02*
X138561783Y-82352115D01*
X133195203Y-87782504D02*
X138561783Y-82415924D01*
D22*
X149987000Y-95250000D02*
X149229779Y-95250000D01*
X149229779Y-95250000D02*
X149228278Y-95248499D01*
X138557000Y-97282002D02*
X138557000Y-102166500D01*
X138557000Y-102166500D02*
X138559500Y-102169000D01*
X149987000Y-93853000D02*
X149987000Y-94442778D01*
X149987000Y-98425000D02*
X150622000Y-98425000D01*
X149987000Y-96012000D02*
X149987000Y-96601790D01*
X135255000Y-92740000D02*
X136495000Y-92740000D01*
X136495000Y-92740000D02*
X136779000Y-92456000D01*
D25*
X130810000Y-99060000D02*
X133875413Y-95994587D01*
X133875413Y-95994587D02*
X133875413Y-87748887D01*
X133875413Y-87748887D02*
X138263970Y-83360330D01*
X138263970Y-83360330D02*
X138579340Y-83360330D01*
D22*
X149987000Y-93091000D02*
X149225000Y-93091000D01*
D25*
X140322971Y-86563676D02*
X139065000Y-86563676D01*
X146351990Y-85344000D02*
X141542647Y-85344000D01*
X141542647Y-85344000D02*
X140322971Y-86563676D01*
X148915146Y-87907156D02*
X146351990Y-85344000D01*
X149225000Y-93091000D02*
X148915146Y-92781146D01*
X148915146Y-92781146D02*
X148915146Y-87907156D01*
X148012445Y-84418083D02*
X148012445Y-83293245D01*
X150743990Y-87460031D02*
X150743990Y-87149628D01*
X150743990Y-87149628D02*
X148012445Y-84418083D01*
X148012445Y-83293245D02*
X147909790Y-83190590D01*
X151097694Y-87813735D02*
X150743990Y-87460031D01*
X154990799Y-92760799D02*
X154990799Y-89562612D01*
X153241921Y-87813735D02*
X151097694Y-87813735D01*
X154990799Y-89562612D02*
X153241921Y-87813735D01*
X156210000Y-93980000D02*
X154990799Y-92760799D01*
X147904200Y-83185000D02*
X147909790Y-83190590D01*
X136887702Y-93172798D02*
X138452017Y-93172798D01*
X138912578Y-92712238D02*
X138912578Y-92072764D01*
X136795869Y-86532921D02*
X138831048Y-84497742D01*
X136525000Y-93535500D02*
X136887702Y-93172798D01*
X138452017Y-93172798D02*
X138912578Y-92712238D01*
X140407961Y-83185000D02*
X147904200Y-83185000D01*
X136525000Y-96964500D02*
X136525000Y-93535500D01*
X135255000Y-97740000D02*
X135749500Y-97740000D01*
X138912578Y-92072764D02*
X136795869Y-89956055D01*
X135749500Y-97740000D02*
X136525000Y-96964500D01*
X136795869Y-89956055D02*
X136795869Y-86532921D01*
X138831048Y-84497742D02*
X139095219Y-84497742D01*
X139095219Y-84497742D02*
X140407961Y-83185000D01*
X152699043Y-89210635D02*
X149862599Y-89210635D01*
X156210000Y-101600000D02*
X153543000Y-98933000D01*
X153543000Y-98933000D02*
X153543000Y-90054592D01*
X153543000Y-90054592D02*
X152699043Y-89210635D01*
X149862599Y-88518419D02*
X149862599Y-89210635D01*
X139525351Y-85883466D02*
X139747885Y-86106000D01*
X140062209Y-86106000D02*
X141332209Y-84836000D01*
X133985000Y-97282000D02*
X133985000Y-98044000D01*
X138738510Y-85883466D02*
X139525351Y-85883466D01*
X137033000Y-95885002D02*
X139827000Y-93091002D01*
X137710291Y-89577291D02*
X137710291Y-86911685D01*
X139827000Y-91694000D02*
X137710291Y-89577291D01*
X139827000Y-93091002D02*
X139827000Y-91694000D01*
X137710291Y-86911685D02*
X138738510Y-85883466D01*
X137033000Y-97663000D02*
X137033000Y-95885002D01*
X136017000Y-98679000D02*
X137033000Y-97663000D01*
X135255000Y-96490000D02*
X134777000Y-96490000D01*
X139747885Y-86106000D02*
X140062209Y-86106000D01*
X134777000Y-96490000D02*
X133985000Y-97282000D01*
X133985000Y-98044000D02*
X134620000Y-98679000D01*
X134620000Y-98679000D02*
X136017000Y-98679000D01*
X141332209Y-84836000D02*
X146490583Y-84836000D01*
X146490583Y-84836000D02*
X149372357Y-87717774D01*
X149372357Y-87717774D02*
X149372357Y-88028177D01*
X149372357Y-88028177D02*
X149862599Y-88518419D01*
X150286779Y-87649413D02*
X150286779Y-87339010D01*
X147555234Y-84607465D02*
X147555234Y-84215209D01*
X150286779Y-87339010D02*
X147555234Y-84607465D01*
X156210000Y-96520000D02*
X154533588Y-94843588D01*
X154533588Y-94843588D02*
X154533588Y-89751995D01*
X147555234Y-84215209D02*
X147205235Y-83865210D01*
X154533588Y-89751995D02*
X153052539Y-88270946D01*
X153052539Y-88270946D02*
X150908312Y-88270946D01*
X150908312Y-88270946D02*
X150286779Y-87649413D01*
X139369789Y-91883381D02*
X137253080Y-89766673D01*
X137287000Y-93853000D02*
X138418408Y-93853000D01*
X137253080Y-86722303D02*
X139020430Y-84954953D01*
X138418408Y-93853000D02*
X139369789Y-92901620D01*
X139369789Y-92901620D02*
X139369789Y-91883381D01*
X137253080Y-89766673D02*
X137253080Y-86722303D01*
X139020430Y-84954953D02*
X139284601Y-84954953D01*
X139284601Y-84954953D02*
X140374344Y-83865210D01*
X140374344Y-83865210D02*
X147205235Y-83865210D01*
X154051000Y-89916000D02*
X152863157Y-88728157D01*
X154051000Y-96901000D02*
X154051000Y-89916000D01*
X156210000Y-99060000D02*
X154051000Y-96901000D01*
X149829568Y-87838795D02*
X149829568Y-87528392D01*
X150718930Y-88728157D02*
X149829568Y-87838795D01*
X149829568Y-87528392D02*
X146629176Y-84328000D01*
X152863157Y-88728157D02*
X150718930Y-88728157D01*
X146629176Y-84328000D02*
X140873517Y-84328000D01*
X140873517Y-84328000D02*
X139925050Y-85276467D01*
X149860000Y-90170000D02*
X151511000Y-90170000D01*
X151511000Y-90170000D02*
X152019000Y-90678000D01*
X152019000Y-90678000D02*
X152019000Y-92202000D01*
X152019000Y-92202000D02*
X153035000Y-93218000D01*
X153035000Y-93218000D02*
X153035000Y-100965000D01*
X153035000Y-100965000D02*
X156210000Y-104140000D01*
X151511000Y-91567000D02*
X151130000Y-91186000D01*
X151511000Y-92456000D02*
X151511000Y-91567000D01*
X151130000Y-91186000D02*
X149860000Y-91186000D01*
X152527000Y-93472000D02*
X151511000Y-92456000D01*
X156210000Y-106680000D02*
X152527000Y-102997000D01*
X152527000Y-102997000D02*
X152527000Y-93472000D01*
D26*
X143891000Y-89709366D02*
X146499900Y-87100466D01*
X143891000Y-104648000D02*
X143891000Y-89709366D01*
X144907000Y-105664000D02*
X143891000Y-104648000D01*
X143484589Y-105257589D02*
X143484589Y-89154322D01*
X143484589Y-89154322D02*
X145598701Y-87040210D01*
X143891000Y-105664000D02*
X143484589Y-105257589D01*
D25*
G36*
X144272403Y-85905573D02*
G01*
X144225231Y-85993826D01*
X144196183Y-86089584D01*
X144190772Y-86144526D01*
X144186375Y-86189168D01*
X144188832Y-86214113D01*
X144188832Y-86441742D01*
X144188363Y-86455261D01*
X144187873Y-86459803D01*
X144187521Y-86461696D01*
X144187186Y-86462111D01*
X144179144Y-86470614D01*
X144129027Y-86520731D01*
X144049028Y-86640458D01*
X143993924Y-86773491D01*
X143965832Y-86914719D01*
X143965832Y-87058713D01*
X143993924Y-87199941D01*
X144049028Y-87332974D01*
X144129027Y-87452701D01*
X144230847Y-87554521D01*
X144333380Y-87623031D01*
X143160102Y-88796310D01*
X143141689Y-88811421D01*
X143126578Y-88829834D01*
X143126576Y-88829836D01*
X143081381Y-88884907D01*
X143036567Y-88968746D01*
X143008973Y-89059716D01*
X142999654Y-89154322D01*
X143001990Y-89178037D01*
X143001989Y-105233884D01*
X142999654Y-105257589D01*
X143001989Y-105281294D01*
X143001989Y-105281295D01*
X143008972Y-105352194D01*
X143036567Y-105443165D01*
X143081380Y-105527004D01*
X143141688Y-105600490D01*
X143150379Y-105607622D01*
X143151740Y-105609693D01*
X143153123Y-105612245D01*
X143154402Y-105615174D01*
X143155757Y-105619156D01*
X143157177Y-105624803D01*
X143158520Y-105632721D01*
X143159512Y-105643305D01*
X143160000Y-105664182D01*
X143160000Y-105735997D01*
X143188092Y-105877225D01*
X143243196Y-106010258D01*
X143323195Y-106129985D01*
X143425015Y-106231805D01*
X143544742Y-106311804D01*
X143677775Y-106366908D01*
X143819003Y-106395000D01*
X143962997Y-106395000D01*
X144104225Y-106366908D01*
X144237258Y-106311804D01*
X144356985Y-106231805D01*
X144399000Y-106189790D01*
X144441015Y-106231805D01*
X144560742Y-106311804D01*
X144693775Y-106366908D01*
X144835003Y-106395000D01*
X144978997Y-106395000D01*
X145120225Y-106366908D01*
X145253258Y-106311804D01*
X145372985Y-106231805D01*
X145474805Y-106129985D01*
X145554804Y-106010258D01*
X145609908Y-105877225D01*
X145638000Y-105735997D01*
X145638000Y-105592003D01*
X145609908Y-105450775D01*
X145554804Y-105317742D01*
X145474805Y-105198015D01*
X145372985Y-105096195D01*
X145253258Y-105016196D01*
X145120225Y-104961092D01*
X144978997Y-104933000D01*
X144908136Y-104933000D01*
X144889304Y-104932478D01*
X144880897Y-104931586D01*
X144874158Y-104930311D01*
X144868445Y-104928730D01*
X144863086Y-104926748D01*
X144857471Y-104924117D01*
X144851100Y-104920463D01*
X144843554Y-104915292D01*
X144834604Y-104908089D01*
X144819525Y-104894026D01*
X144373600Y-104448101D01*
X144373600Y-101710639D01*
X144580596Y-101917635D01*
X144585092Y-101940239D01*
X144640196Y-102073272D01*
X144720195Y-102192999D01*
X144822015Y-102294819D01*
X144941742Y-102374818D01*
X145074775Y-102429922D01*
X145216003Y-102458014D01*
X145359997Y-102458014D01*
X145501225Y-102429922D01*
X145634258Y-102374818D01*
X145753985Y-102294819D01*
X145855805Y-102192999D01*
X145935804Y-102073272D01*
X145990908Y-101940239D01*
X146019000Y-101799011D01*
X146019000Y-101655017D01*
X145990908Y-101513789D01*
X145935804Y-101380756D01*
X145855805Y-101261029D01*
X145753985Y-101159209D01*
X145634258Y-101079210D01*
X145501225Y-101024106D01*
X145478621Y-101019610D01*
X145288000Y-100828989D01*
X145288000Y-97266421D01*
X145300804Y-97247258D01*
X145355908Y-97114225D01*
X145384000Y-96972997D01*
X145384000Y-96829003D01*
X145355908Y-96687775D01*
X145300804Y-96554742D01*
X145220805Y-96435015D01*
X145118985Y-96333195D01*
X144999258Y-96253196D01*
X144866225Y-96198092D01*
X144724997Y-96170000D01*
X144581003Y-96170000D01*
X144439775Y-96198092D01*
X144373600Y-96225503D01*
X144373600Y-89909265D01*
X146412420Y-87870446D01*
X146427512Y-87856370D01*
X146436454Y-87849173D01*
X146444000Y-87844002D01*
X146450371Y-87840348D01*
X146455986Y-87837717D01*
X146461345Y-87835735D01*
X146467058Y-87834154D01*
X146473797Y-87832879D01*
X146482203Y-87831987D01*
X146501019Y-87831466D01*
X146571897Y-87831466D01*
X146713125Y-87803374D01*
X146846158Y-87748270D01*
X146965885Y-87668271D01*
X147067705Y-87566451D01*
X147124471Y-87481495D01*
X147949936Y-88306960D01*
X147949935Y-98648991D01*
X147947478Y-98673935D01*
X147949935Y-98698879D01*
X147949935Y-98698881D01*
X147957286Y-98773519D01*
X147986334Y-98869277D01*
X148033506Y-98957530D01*
X148096987Y-99034883D01*
X148116370Y-99050790D01*
X148341706Y-99276126D01*
X148345188Y-99311482D01*
X148381498Y-99431180D01*
X148440463Y-99541494D01*
X148519815Y-99638185D01*
X148616506Y-99717537D01*
X148726820Y-99776502D01*
X148846518Y-99812812D01*
X148939808Y-99822000D01*
X149587287Y-99822000D01*
X149606000Y-99823843D01*
X150368000Y-99823843D01*
X150442689Y-99816487D01*
X150514508Y-99794701D01*
X150580696Y-99759322D01*
X150638711Y-99711711D01*
X150686322Y-99653696D01*
X150721701Y-99587508D01*
X150743487Y-99515689D01*
X150750843Y-99441000D01*
X150750843Y-99144693D01*
X150835225Y-99127908D01*
X150968258Y-99072804D01*
X151087985Y-98992805D01*
X151189805Y-98890985D01*
X151269804Y-98771258D01*
X151324908Y-98638225D01*
X151353000Y-98496997D01*
X151353000Y-98353003D01*
X151324908Y-98211775D01*
X151269804Y-98078742D01*
X151189805Y-97959015D01*
X151087985Y-97857195D01*
X150968258Y-97777196D01*
X150835225Y-97722092D01*
X150693997Y-97694000D01*
X150550003Y-97694000D01*
X150408775Y-97722092D01*
X150275742Y-97777196D01*
X150259338Y-97788157D01*
X149606000Y-97788157D01*
X149531311Y-97795513D01*
X149459492Y-97817299D01*
X149393304Y-97852678D01*
X149335289Y-97900289D01*
X149287678Y-97958304D01*
X149252299Y-98024492D01*
X149230513Y-98096311D01*
X149223157Y-98171000D01*
X149223157Y-98552000D01*
X149054420Y-98552000D01*
X148965935Y-98463515D01*
X148965935Y-95931062D01*
X149015053Y-95951407D01*
X149156281Y-95979499D01*
X149223157Y-95979499D01*
X149223157Y-96266000D01*
X149230513Y-96340689D01*
X149252299Y-96412508D01*
X149271999Y-96449363D01*
X149256000Y-96529793D01*
X149256000Y-96673787D01*
X149284092Y-96815015D01*
X149339196Y-96948048D01*
X149419195Y-97067775D01*
X149521015Y-97169595D01*
X149640742Y-97249594D01*
X149773775Y-97304698D01*
X149915003Y-97332790D01*
X150058997Y-97332790D01*
X150200225Y-97304698D01*
X150333258Y-97249594D01*
X150452985Y-97169595D01*
X150554805Y-97067775D01*
X150634804Y-96948048D01*
X150689908Y-96815015D01*
X150718000Y-96673787D01*
X150718000Y-96529793D01*
X150702001Y-96449363D01*
X150721701Y-96412508D01*
X150743487Y-96340689D01*
X150750843Y-96266000D01*
X150750843Y-95758000D01*
X150743487Y-95683311D01*
X150727619Y-95631000D01*
X150743487Y-95578689D01*
X150750843Y-95504000D01*
X150750843Y-94996000D01*
X150743487Y-94921311D01*
X150721701Y-94849492D01*
X150686322Y-94783304D01*
X150653662Y-94743508D01*
X150689908Y-94656003D01*
X150718000Y-94514775D01*
X150718000Y-94370781D01*
X150702003Y-94290359D01*
X150721701Y-94253508D01*
X150743487Y-94181689D01*
X150750843Y-94107000D01*
X150750843Y-93599000D01*
X150743487Y-93524311D01*
X150727619Y-93472000D01*
X150743487Y-93419689D01*
X150750843Y-93345000D01*
X150750843Y-92837000D01*
X150743487Y-92762311D01*
X150721701Y-92690492D01*
X150686322Y-92624304D01*
X150638711Y-92566289D01*
X150580696Y-92518678D01*
X150514508Y-92483299D01*
X150442689Y-92461513D01*
X150368000Y-92454157D01*
X149606000Y-92454157D01*
X149587287Y-92456000D01*
X149423146Y-92456000D01*
X149423146Y-91773270D01*
X149513742Y-91833804D01*
X149646775Y-91888908D01*
X149788003Y-91917000D01*
X149931997Y-91917000D01*
X150073225Y-91888908D01*
X150206258Y-91833804D01*
X150325985Y-91753805D01*
X150376100Y-91703690D01*
X150384613Y-91695638D01*
X150385019Y-91695310D01*
X150386912Y-91694958D01*
X150391440Y-91694470D01*
X150404981Y-91694000D01*
X150919580Y-91694000D01*
X151003001Y-91777421D01*
X151003000Y-92431055D01*
X151000543Y-92456000D01*
X151003000Y-92480944D01*
X151003000Y-92480946D01*
X151010351Y-92555584D01*
X151039399Y-92651342D01*
X151086571Y-92739595D01*
X151150052Y-92816948D01*
X151169435Y-92832855D01*
X152019001Y-93682422D01*
X152019000Y-102972056D01*
X152016543Y-102997000D01*
X152019000Y-103021944D01*
X152019000Y-103021946D01*
X152026351Y-103096584D01*
X152055399Y-103192342D01*
X152102571Y-103280595D01*
X152166052Y-103357948D01*
X152185435Y-103373855D01*
X154545258Y-105733678D01*
X154627776Y-105822182D01*
X154696084Y-105907132D01*
X154755084Y-105993340D01*
X154805290Y-106081057D01*
X154847162Y-106170643D01*
X154881098Y-106262673D01*
X154907323Y-106357717D01*
X154925932Y-106456494D01*
X154936828Y-106559556D01*
X154940000Y-106674736D01*
X154940000Y-106805084D01*
X154988805Y-107050445D01*
X155084541Y-107281571D01*
X155223527Y-107489578D01*
X155400422Y-107666473D01*
X155608429Y-107805459D01*
X155839555Y-107901195D01*
X156084916Y-107950000D01*
X156335084Y-107950000D01*
X156580445Y-107901195D01*
X156811571Y-107805459D01*
X156972000Y-107698264D01*
X156972000Y-110253924D01*
X156884206Y-110041971D01*
X156487275Y-109447922D01*
X155982078Y-108942725D01*
X155388029Y-108545794D01*
X154727957Y-108272383D01*
X154027228Y-108133000D01*
X153312772Y-108133000D01*
X152612043Y-108272383D01*
X151951971Y-108545794D01*
X151357922Y-108942725D01*
X150852725Y-109447922D01*
X150455794Y-110041971D01*
X150241000Y-110560529D01*
X150241000Y-106807000D01*
X150238560Y-106782224D01*
X150231333Y-106758399D01*
X150219597Y-106736443D01*
X150203803Y-106717197D01*
X150184557Y-106701403D01*
X150162601Y-106689667D01*
X150138776Y-106682440D01*
X150114000Y-106680000D01*
X149400064Y-106680000D01*
X149246734Y-106589299D01*
X149098039Y-106546605D01*
X148909500Y-106662744D01*
X148909500Y-106680000D01*
X148528500Y-106680000D01*
X148528500Y-106662744D01*
X148339961Y-106546605D01*
X148191266Y-106589299D01*
X148037936Y-106680000D01*
X147828000Y-106680000D01*
X147803224Y-106682440D01*
X147779399Y-106689667D01*
X147757443Y-106701403D01*
X147738197Y-106717197D01*
X147722403Y-106736443D01*
X147710667Y-106758399D01*
X147703440Y-106782224D01*
X147701000Y-106807000D01*
X147701000Y-107006658D01*
X147650910Y-107073387D01*
X147544895Y-107294224D01*
X147484000Y-107531500D01*
X147484000Y-108066447D01*
X147356073Y-108041000D01*
X147221927Y-108041000D01*
X147090360Y-108067171D01*
X146966426Y-108118506D01*
X146854888Y-108193033D01*
X146760033Y-108287888D01*
X146685506Y-108399426D01*
X146634171Y-108523360D01*
X146608000Y-108654927D01*
X146608000Y-108789073D01*
X146634171Y-108920640D01*
X146685506Y-109044574D01*
X146760033Y-109156112D01*
X146854888Y-109250967D01*
X146966426Y-109325494D01*
X147090360Y-109376829D01*
X147221927Y-109403000D01*
X147356073Y-109403000D01*
X147487640Y-109376829D01*
X147611574Y-109325494D01*
X147624957Y-109316552D01*
X147650910Y-109370613D01*
X147701000Y-109437342D01*
X147701000Y-111240601D01*
X147658490Y-111288882D01*
X147529990Y-111510440D01*
X147447183Y-111752810D01*
X147413252Y-112006678D01*
X147580988Y-112211500D01*
X147701000Y-112211500D01*
X147701000Y-112592500D01*
X147580988Y-112592500D01*
X147413252Y-112797322D01*
X147447183Y-113051190D01*
X147529990Y-113293560D01*
X147658490Y-113515118D01*
X147701000Y-113563399D01*
X147701000Y-113665000D01*
X147703440Y-113689776D01*
X147710667Y-113713601D01*
X147722403Y-113735557D01*
X147738197Y-113754803D01*
X147757443Y-113770597D01*
X147779399Y-113782333D01*
X147803224Y-113789560D01*
X147828000Y-113792000D01*
X147938513Y-113792000D01*
X148031249Y-113862869D01*
X148261184Y-113975698D01*
X148332048Y-113977355D01*
X148528500Y-113862022D01*
X148528500Y-113792000D01*
X148909500Y-113792000D01*
X148909500Y-113862022D01*
X149105952Y-113977355D01*
X149176816Y-113975698D01*
X149406751Y-113862869D01*
X149499487Y-113792000D01*
X150114000Y-113792000D01*
X150138776Y-113789560D01*
X150162601Y-113782333D01*
X150184557Y-113770597D01*
X150203803Y-113754803D01*
X150219597Y-113735557D01*
X150231333Y-113713601D01*
X150238560Y-113689776D01*
X150241000Y-113665000D01*
X150241000Y-112959471D01*
X150455794Y-113478029D01*
X150852725Y-114072078D01*
X151357922Y-114577275D01*
X151951971Y-114974206D01*
X152163924Y-115062000D01*
X134856076Y-115062000D01*
X135068029Y-114974206D01*
X135662078Y-114577275D01*
X136167275Y-114072078D01*
X136564206Y-113478029D01*
X136837617Y-112817957D01*
X136977000Y-112117228D01*
X136977000Y-111402772D01*
X136837617Y-110702043D01*
X136564206Y-110041971D01*
X136167275Y-109447922D01*
X135662078Y-108942725D01*
X135068029Y-108545794D01*
X134407957Y-108272383D01*
X133707228Y-108133000D01*
X132992772Y-108133000D01*
X132292043Y-108272383D01*
X131631971Y-108545794D01*
X131037922Y-108942725D01*
X130532725Y-109447922D01*
X130135794Y-110041971D01*
X130048000Y-110253924D01*
X130048000Y-107698264D01*
X130208429Y-107805459D01*
X130439555Y-107901195D01*
X130684916Y-107950000D01*
X130935084Y-107950000D01*
X131180445Y-107901195D01*
X131411571Y-107805459D01*
X131619578Y-107666473D01*
X131796473Y-107489578D01*
X131935459Y-107281571D01*
X132031195Y-107050445D01*
X132080000Y-106805084D01*
X132080000Y-106554916D01*
X132031195Y-106309555D01*
X131935459Y-106078429D01*
X131920588Y-106056173D01*
X132252242Y-106387828D01*
X132268633Y-106405053D01*
X132278460Y-106416556D01*
X132283210Y-106422840D01*
X132283210Y-106488542D01*
X132317066Y-106658749D01*
X132383478Y-106819081D01*
X132479892Y-106963376D01*
X132602605Y-107086089D01*
X132746900Y-107182503D01*
X132907232Y-107248915D01*
X133077439Y-107282771D01*
X133250981Y-107282771D01*
X133421188Y-107248915D01*
X133581520Y-107182503D01*
X133725815Y-107086089D01*
X133772275Y-107039629D01*
X133780073Y-107038545D01*
X133795150Y-107037360D01*
X133818896Y-107036771D01*
X137089548Y-107036771D01*
X137120729Y-107039842D01*
X137151910Y-107036771D01*
X137151921Y-107036771D01*
X137245211Y-107027583D01*
X137364909Y-106991273D01*
X137475223Y-106932308D01*
X137571914Y-106852956D01*
X137591803Y-106828721D01*
X137613524Y-106807000D01*
X138557000Y-106807000D01*
X138557000Y-113665000D01*
X138559440Y-113689776D01*
X138566667Y-113713601D01*
X138578403Y-113735557D01*
X138594197Y-113754803D01*
X138613443Y-113770597D01*
X138635399Y-113782333D01*
X138659224Y-113789560D01*
X138684000Y-113792000D01*
X139298513Y-113792000D01*
X139391249Y-113862869D01*
X139621184Y-113975698D01*
X139692048Y-113977355D01*
X139888500Y-113862022D01*
X139888500Y-113792000D01*
X140269500Y-113792000D01*
X140269500Y-113862022D01*
X140465952Y-113977355D01*
X140536816Y-113975698D01*
X140766751Y-113862869D01*
X140859487Y-113792000D01*
X140970000Y-113792000D01*
X140994776Y-113789560D01*
X141018601Y-113782333D01*
X141040557Y-113770597D01*
X141059803Y-113754803D01*
X141075597Y-113735557D01*
X141087333Y-113713601D01*
X141094560Y-113689776D01*
X141097000Y-113665000D01*
X141097000Y-113563399D01*
X141139510Y-113515118D01*
X141268010Y-113293560D01*
X141350817Y-113051190D01*
X141384748Y-112797322D01*
X141217012Y-112592500D01*
X141097000Y-112592500D01*
X141097000Y-112211500D01*
X141217012Y-112211500D01*
X141384748Y-112006678D01*
X141350817Y-111752810D01*
X141268010Y-111510440D01*
X141139510Y-111288882D01*
X141097000Y-111240601D01*
X141097000Y-109437342D01*
X141147090Y-109370613D01*
X141173043Y-109316552D01*
X141186426Y-109325494D01*
X141310360Y-109376829D01*
X141441927Y-109403000D01*
X141576073Y-109403000D01*
X141707640Y-109376829D01*
X141831574Y-109325494D01*
X141943112Y-109250967D01*
X142037967Y-109156112D01*
X142112494Y-109044574D01*
X142163829Y-108920640D01*
X142190000Y-108789073D01*
X142190000Y-108654927D01*
X142163829Y-108523360D01*
X142112494Y-108399426D01*
X142037967Y-108287888D01*
X141943112Y-108193033D01*
X141831574Y-108118506D01*
X141707640Y-108067171D01*
X141576073Y-108041000D01*
X141441927Y-108041000D01*
X141314000Y-108066447D01*
X141314000Y-107531500D01*
X141253105Y-107294224D01*
X141147090Y-107073387D01*
X141097000Y-107006658D01*
X141097000Y-106807000D01*
X141094560Y-106782224D01*
X141087333Y-106758399D01*
X141075597Y-106736443D01*
X141059803Y-106717197D01*
X141040557Y-106701403D01*
X141018601Y-106689667D01*
X140994776Y-106682440D01*
X140970000Y-106680000D01*
X140760064Y-106680000D01*
X140606734Y-106589299D01*
X140458039Y-106546605D01*
X140269500Y-106662744D01*
X140269500Y-106680000D01*
X139888500Y-106680000D01*
X139888500Y-106662744D01*
X139699961Y-106546605D01*
X139551266Y-106589299D01*
X139397936Y-106680000D01*
X138684000Y-106680000D01*
X138659224Y-106682440D01*
X138635399Y-106689667D01*
X138613443Y-106701403D01*
X138594197Y-106717197D01*
X138578403Y-106736443D01*
X138566667Y-106758399D01*
X138559440Y-106782224D01*
X138557000Y-106807000D01*
X137613524Y-106807000D01*
X138883526Y-105537000D01*
X141065819Y-105537000D01*
X141097000Y-105540071D01*
X141128181Y-105537000D01*
X141128192Y-105537000D01*
X141221482Y-105527812D01*
X141341180Y-105491502D01*
X141451494Y-105432537D01*
X141548185Y-105353185D01*
X141568074Y-105328950D01*
X142049621Y-104847404D01*
X142072225Y-104842908D01*
X142205258Y-104787804D01*
X142324985Y-104707805D01*
X142426805Y-104605985D01*
X142506804Y-104486258D01*
X142561908Y-104353225D01*
X142590000Y-104211997D01*
X142590000Y-104068003D01*
X142561908Y-103926775D01*
X142506804Y-103793742D01*
X142426805Y-103674015D01*
X142324985Y-103572195D01*
X142205258Y-103492196D01*
X142072225Y-103437092D01*
X141930997Y-103409000D01*
X141787003Y-103409000D01*
X141645775Y-103437092D01*
X141512742Y-103492196D01*
X141393015Y-103572195D01*
X141291195Y-103674015D01*
X141211196Y-103793742D01*
X141156092Y-103926775D01*
X141151596Y-103949379D01*
X140833975Y-104267000D01*
X138651680Y-104267000D01*
X138620499Y-104263929D01*
X138589318Y-104267000D01*
X138589308Y-104267000D01*
X138496018Y-104276188D01*
X138376320Y-104312498D01*
X138333581Y-104335343D01*
X138266005Y-104371463D01*
X138193542Y-104430932D01*
X138193539Y-104430935D01*
X138169315Y-104450815D01*
X138149434Y-104475040D01*
X136857705Y-105766771D01*
X133818910Y-105766771D01*
X133795151Y-105766181D01*
X133780073Y-105764996D01*
X133772273Y-105763911D01*
X133725815Y-105717453D01*
X133581520Y-105621039D01*
X133421188Y-105554627D01*
X133250981Y-105520771D01*
X133185279Y-105520771D01*
X133178995Y-105516021D01*
X133167492Y-105506194D01*
X133150267Y-105489803D01*
X132969004Y-105308541D01*
X132969004Y-103746013D01*
X134536574Y-103746013D01*
X134537901Y-104008981D01*
X134590506Y-104266638D01*
X134685983Y-104497141D01*
X134912134Y-104561438D01*
X135135976Y-104337596D01*
X135158112Y-104349962D01*
X135200294Y-104378562D01*
X135241442Y-104411763D01*
X135285035Y-104453010D01*
X135294947Y-104461468D01*
X135316081Y-104474628D01*
X135339376Y-104483412D01*
X135363938Y-104487482D01*
X135388821Y-104486683D01*
X135413071Y-104481044D01*
X135435754Y-104470783D01*
X135685720Y-104326668D01*
X135181542Y-104830846D01*
X135245839Y-105056997D01*
X135489298Y-105156405D01*
X135747473Y-105206406D01*
X136010441Y-105205079D01*
X136268098Y-105152474D01*
X136498601Y-105056997D01*
X136562898Y-104830846D01*
X135922314Y-104190262D01*
X136264086Y-103993218D01*
X136832306Y-104561438D01*
X137058457Y-104497141D01*
X137157865Y-104253682D01*
X137207866Y-103995507D01*
X137206539Y-103732539D01*
X137153934Y-103474882D01*
X137058457Y-103244379D01*
X136832306Y-103180082D01*
X136264086Y-103748302D01*
X135922314Y-103551258D01*
X136549429Y-102924143D01*
X136569680Y-102924143D01*
X136644369Y-102916787D01*
X136716188Y-102895001D01*
X136782376Y-102859622D01*
X136840391Y-102812011D01*
X136888002Y-102753996D01*
X136923381Y-102687808D01*
X136945167Y-102615989D01*
X136952523Y-102541300D01*
X136952523Y-101141300D01*
X136945167Y-101066611D01*
X136923381Y-100994792D01*
X136888002Y-100928604D01*
X136840391Y-100870589D01*
X136782376Y-100822978D01*
X136716188Y-100787599D01*
X136644369Y-100765813D01*
X136569680Y-100758457D01*
X135169680Y-100758457D01*
X135094991Y-100765813D01*
X135023172Y-100787599D01*
X134956984Y-100822978D01*
X134898969Y-100870589D01*
X134851358Y-100928604D01*
X134815979Y-100994792D01*
X134794193Y-101066611D01*
X134786837Y-101141300D01*
X134786837Y-102541300D01*
X134794193Y-102615989D01*
X134815979Y-102687808D01*
X134851358Y-102753996D01*
X134898969Y-102812011D01*
X134956984Y-102859622D01*
X135023172Y-102895001D01*
X135094991Y-102916787D01*
X135169680Y-102924143D01*
X135195011Y-102924143D01*
X135685720Y-103414852D01*
X135435754Y-103270737D01*
X135423754Y-103264642D01*
X135400112Y-103256839D01*
X135375402Y-103253798D01*
X135350574Y-103255637D01*
X135326581Y-103262284D01*
X135304346Y-103273484D01*
X135284724Y-103288806D01*
X135240759Y-103330688D01*
X135198723Y-103365387D01*
X135155436Y-103396028D01*
X135138326Y-103406274D01*
X134912134Y-103180082D01*
X134685983Y-103244379D01*
X134586575Y-103487838D01*
X134536574Y-103746013D01*
X132969004Y-103746013D01*
X132969004Y-100349686D01*
X132969593Y-100325940D01*
X132970778Y-100310863D01*
X132971862Y-100303065D01*
X133018322Y-100256605D01*
X133114736Y-100112310D01*
X133181148Y-99951978D01*
X133215004Y-99781771D01*
X133215004Y-99608229D01*
X133184724Y-99455999D01*
X133603999Y-99455999D01*
X133625680Y-99454135D01*
X133649677Y-99447500D01*
X133671917Y-99436312D01*
X133691548Y-99421000D01*
X133707814Y-99402152D01*
X133720091Y-99380493D01*
X133727906Y-99356855D01*
X133730960Y-99332147D01*
X133731836Y-99296833D01*
X133734151Y-99267387D01*
X133737850Y-99240781D01*
X133742775Y-99217008D01*
X133748744Y-99196046D01*
X133755570Y-99177789D01*
X133763081Y-99162051D01*
X133771155Y-99148562D01*
X133779762Y-99136979D01*
X133793549Y-99121964D01*
X133813869Y-99092311D01*
X133822653Y-99069016D01*
X133826723Y-99044454D01*
X133825924Y-99019571D01*
X133820285Y-98995321D01*
X133810024Y-98972638D01*
X133460024Y-98365567D01*
X133450709Y-98351626D01*
X133433679Y-98333465D01*
X133413433Y-98318976D01*
X133390750Y-98308715D01*
X133366500Y-98303076D01*
X133341617Y-98302277D01*
X133317055Y-98306347D01*
X133293760Y-98315131D01*
X133272626Y-98328291D01*
X133254465Y-98345321D01*
X133239976Y-98365567D01*
X132889976Y-98972638D01*
X132879144Y-98999680D01*
X132751314Y-98914268D01*
X132590982Y-98847856D01*
X132420775Y-98814000D01*
X132247233Y-98814000D01*
X132093206Y-98844638D01*
X132094067Y-98836494D01*
X132112676Y-98737717D01*
X132138901Y-98642673D01*
X132172837Y-98550643D01*
X132214709Y-98461057D01*
X132264915Y-98373340D01*
X132323915Y-98287132D01*
X132392223Y-98202182D01*
X132474740Y-98113680D01*
X133526761Y-97061659D01*
X133513399Y-97086658D01*
X133484351Y-97182416D01*
X133477831Y-97248616D01*
X133474543Y-97282000D01*
X133477000Y-97306945D01*
X133477001Y-98019046D01*
X133474543Y-98044000D01*
X133481719Y-98116850D01*
X133484352Y-98143585D01*
X133493362Y-98173287D01*
X133513400Y-98239343D01*
X133560571Y-98327595D01*
X133580293Y-98351626D01*
X133624053Y-98404948D01*
X133643430Y-98420850D01*
X134243145Y-99020565D01*
X134259052Y-99039948D01*
X134336405Y-99103429D01*
X134424657Y-99150601D01*
X134520415Y-99179649D01*
X134595053Y-99187000D01*
X134595056Y-99187000D01*
X134620000Y-99189457D01*
X134644944Y-99187000D01*
X135992056Y-99187000D01*
X136017000Y-99189457D01*
X136041944Y-99187000D01*
X136041947Y-99187000D01*
X136116585Y-99179649D01*
X136212343Y-99150601D01*
X136300595Y-99103429D01*
X136377948Y-99039948D01*
X136393855Y-99020565D01*
X137374571Y-98039850D01*
X137393948Y-98023948D01*
X137428049Y-97982395D01*
X137457429Y-97946596D01*
X137490651Y-97884441D01*
X137504601Y-97858343D01*
X137533649Y-97762585D01*
X137541000Y-97687947D01*
X137541000Y-97687944D01*
X137543457Y-97663000D01*
X137541000Y-97638056D01*
X137541000Y-97210005D01*
X137826000Y-97210005D01*
X137826000Y-97353999D01*
X137854092Y-97495227D01*
X137909196Y-97628260D01*
X137922000Y-97647423D01*
X137922001Y-101807320D01*
X137911696Y-101822742D01*
X137856592Y-101955775D01*
X137828500Y-102097003D01*
X137828500Y-102240997D01*
X137856592Y-102382225D01*
X137911696Y-102515258D01*
X137991695Y-102634985D01*
X138093515Y-102736805D01*
X138213242Y-102816804D01*
X138346275Y-102871908D01*
X138487503Y-102900000D01*
X138631497Y-102900000D01*
X138772725Y-102871908D01*
X138905758Y-102816804D01*
X139025485Y-102736805D01*
X139127305Y-102634985D01*
X139153363Y-102595985D01*
X139192100Y-102595985D01*
X139193560Y-102620839D01*
X139199840Y-102644930D01*
X139222082Y-102705263D01*
X139238984Y-102757852D01*
X139251376Y-102804444D01*
X139259418Y-102844653D01*
X139263417Y-102877898D01*
X139263978Y-102903467D01*
X139262207Y-102920756D01*
X139259858Y-102929626D01*
X139258973Y-102931449D01*
X139250966Y-102941423D01*
X139236131Y-102964689D01*
X139227347Y-102987984D01*
X139223277Y-103012546D01*
X139224076Y-103037429D01*
X139229715Y-103061679D01*
X139239976Y-103084362D01*
X139589976Y-103691433D01*
X139599291Y-103705374D01*
X139616321Y-103723535D01*
X139636567Y-103738024D01*
X139659250Y-103748285D01*
X139683500Y-103753924D01*
X139708383Y-103754723D01*
X139732945Y-103750653D01*
X139756240Y-103741869D01*
X139777374Y-103728709D01*
X139795535Y-103711679D01*
X139810024Y-103691433D01*
X140160024Y-103084362D01*
X140173469Y-103050667D01*
X140176898Y-103026008D01*
X140175451Y-103001154D01*
X140169183Y-102977060D01*
X140158334Y-102954651D01*
X140143322Y-102934790D01*
X140127359Y-102917496D01*
X140112958Y-102899059D01*
X140096337Y-102874703D01*
X140078047Y-102844714D01*
X140058389Y-102809244D01*
X140037579Y-102768462D01*
X140015810Y-102722596D01*
X139993119Y-102671621D01*
X139969609Y-102615690D01*
X139944947Y-102553914D01*
X139932596Y-102530444D01*
X139916802Y-102511198D01*
X139897556Y-102495404D01*
X139875600Y-102483668D01*
X139851775Y-102476441D01*
X139826999Y-102474001D01*
X139319001Y-102474001D01*
X139299163Y-102475560D01*
X139275072Y-102481840D01*
X139252669Y-102492700D01*
X139232815Y-102507722D01*
X139216273Y-102526328D01*
X139203679Y-102547804D01*
X139195517Y-102571324D01*
X139192100Y-102595985D01*
X139153363Y-102595985D01*
X139207304Y-102515258D01*
X139262408Y-102382225D01*
X139290500Y-102240997D01*
X139290500Y-102097003D01*
X139262408Y-101955775D01*
X139207304Y-101822742D01*
X139192000Y-101799838D01*
X139192000Y-97647423D01*
X139204804Y-97628260D01*
X139259908Y-97495227D01*
X139288000Y-97353999D01*
X139288000Y-97210005D01*
X139259908Y-97068777D01*
X139204804Y-96935744D01*
X139124805Y-96816017D01*
X139022985Y-96714197D01*
X138903258Y-96634198D01*
X138770225Y-96579094D01*
X138628997Y-96551002D01*
X138485003Y-96551002D01*
X138343775Y-96579094D01*
X138210742Y-96634198D01*
X138091015Y-96714197D01*
X137989195Y-96816017D01*
X137909196Y-96935744D01*
X137854092Y-97068777D01*
X137826000Y-97210005D01*
X137541000Y-97210005D01*
X137541000Y-96095422D01*
X140168565Y-93467857D01*
X140187948Y-93451950D01*
X140251429Y-93374597D01*
X140298601Y-93286345D01*
X140327649Y-93190587D01*
X140335000Y-93115949D01*
X140335000Y-93115946D01*
X140337457Y-93091002D01*
X140335000Y-93066058D01*
X140335000Y-91718944D01*
X140337457Y-91694000D01*
X140334757Y-91666584D01*
X140327649Y-91594415D01*
X140298601Y-91498657D01*
X140251429Y-91410405D01*
X140187948Y-91333052D01*
X140168565Y-91317145D01*
X138218291Y-89366871D01*
X138218291Y-87122105D01*
X138422510Y-86917887D01*
X138497195Y-87029661D01*
X138599015Y-87131481D01*
X138718742Y-87211480D01*
X138851775Y-87266584D01*
X138993003Y-87294676D01*
X139136997Y-87294676D01*
X139278225Y-87266584D01*
X139411258Y-87211480D01*
X139530985Y-87131481D01*
X139581100Y-87081366D01*
X139589613Y-87073314D01*
X139590019Y-87072986D01*
X139591912Y-87072634D01*
X139596440Y-87072146D01*
X139609981Y-87071676D01*
X140298027Y-87071676D01*
X140322971Y-87074133D01*
X140347915Y-87071676D01*
X140347918Y-87071676D01*
X140422556Y-87064325D01*
X140518314Y-87035277D01*
X140606566Y-86988105D01*
X140683919Y-86924624D01*
X140699826Y-86905241D01*
X141753068Y-85852000D01*
X144316369Y-85852000D01*
X144272403Y-85905573D01*
G37*
X144272403Y-85905573D02*
X144225231Y-85993826D01*
X144196183Y-86089584D01*
X144190772Y-86144526D01*
X144186375Y-86189168D01*
X144188832Y-86214113D01*
X144188832Y-86441742D01*
X144188363Y-86455261D01*
X144187873Y-86459803D01*
X144187521Y-86461696D01*
X144187186Y-86462111D01*
X144179144Y-86470614D01*
X144129027Y-86520731D01*
X144049028Y-86640458D01*
X143993924Y-86773491D01*
X143965832Y-86914719D01*
X143965832Y-87058713D01*
X143993924Y-87199941D01*
X144049028Y-87332974D01*
X144129027Y-87452701D01*
X144230847Y-87554521D01*
X144333380Y-87623031D01*
X143160102Y-88796310D01*
X143141689Y-88811421D01*
X143126578Y-88829834D01*
X143126576Y-88829836D01*
X143081381Y-88884907D01*
X143036567Y-88968746D01*
X143008973Y-89059716D01*
X142999654Y-89154322D01*
X143001990Y-89178037D01*
X143001989Y-105233884D01*
X142999654Y-105257589D01*
X143001989Y-105281294D01*
X143001989Y-105281295D01*
X143008972Y-105352194D01*
X143036567Y-105443165D01*
X143081380Y-105527004D01*
X143141688Y-105600490D01*
X143150379Y-105607622D01*
X143151740Y-105609693D01*
X143153123Y-105612245D01*
X143154402Y-105615174D01*
X143155757Y-105619156D01*
X143157177Y-105624803D01*
X143158520Y-105632721D01*
X143159512Y-105643305D01*
X143160000Y-105664182D01*
X143160000Y-105735997D01*
X143188092Y-105877225D01*
X143243196Y-106010258D01*
X143323195Y-106129985D01*
X143425015Y-106231805D01*
X143544742Y-106311804D01*
X143677775Y-106366908D01*
X143819003Y-106395000D01*
X143962997Y-106395000D01*
X144104225Y-106366908D01*
X144237258Y-106311804D01*
X144356985Y-106231805D01*
X144399000Y-106189790D01*
X144441015Y-106231805D01*
X144560742Y-106311804D01*
X144693775Y-106366908D01*
X144835003Y-106395000D01*
X144978997Y-106395000D01*
X145120225Y-106366908D01*
X145253258Y-106311804D01*
X145372985Y-106231805D01*
X145474805Y-106129985D01*
X145554804Y-106010258D01*
X145609908Y-105877225D01*
X145638000Y-105735997D01*
X145638000Y-105592003D01*
X145609908Y-105450775D01*
X145554804Y-105317742D01*
X145474805Y-105198015D01*
X145372985Y-105096195D01*
X145253258Y-105016196D01*
X145120225Y-104961092D01*
X144978997Y-104933000D01*
X144908136Y-104933000D01*
X144889304Y-104932478D01*
X144880897Y-104931586D01*
X144874158Y-104930311D01*
X144868445Y-104928730D01*
X144863086Y-104926748D01*
X144857471Y-104924117D01*
X144851100Y-104920463D01*
X144843554Y-104915292D01*
X144834604Y-104908089D01*
X144819525Y-104894026D01*
X144373600Y-104448101D01*
X144373600Y-101710639D01*
X144580596Y-101917635D01*
X144585092Y-101940239D01*
X144640196Y-102073272D01*
X144720195Y-102192999D01*
X144822015Y-102294819D01*
X144941742Y-102374818D01*
X145074775Y-102429922D01*
X145216003Y-102458014D01*
X145359997Y-102458014D01*
X145501225Y-102429922D01*
X145634258Y-102374818D01*
X145753985Y-102294819D01*
X145855805Y-102192999D01*
X145935804Y-102073272D01*
X145990908Y-101940239D01*
X146019000Y-101799011D01*
X146019000Y-101655017D01*
X145990908Y-101513789D01*
X145935804Y-101380756D01*
X145855805Y-101261029D01*
X145753985Y-101159209D01*
X145634258Y-101079210D01*
X145501225Y-101024106D01*
X145478621Y-101019610D01*
X145288000Y-100828989D01*
X145288000Y-97266421D01*
X145300804Y-97247258D01*
X145355908Y-97114225D01*
X145384000Y-96972997D01*
X145384000Y-96829003D01*
X145355908Y-96687775D01*
X145300804Y-96554742D01*
X145220805Y-96435015D01*
X145118985Y-96333195D01*
X144999258Y-96253196D01*
X144866225Y-96198092D01*
X144724997Y-96170000D01*
X144581003Y-96170000D01*
X144439775Y-96198092D01*
X144373600Y-96225503D01*
X144373600Y-89909265D01*
X146412420Y-87870446D01*
X146427512Y-87856370D01*
X146436454Y-87849173D01*
X146444000Y-87844002D01*
X146450371Y-87840348D01*
X146455986Y-87837717D01*
X146461345Y-87835735D01*
X146467058Y-87834154D01*
X146473797Y-87832879D01*
X146482203Y-87831987D01*
X146501019Y-87831466D01*
X146571897Y-87831466D01*
X146713125Y-87803374D01*
X146846158Y-87748270D01*
X146965885Y-87668271D01*
X147067705Y-87566451D01*
X147124471Y-87481495D01*
X147949936Y-88306960D01*
X147949935Y-98648991D01*
X147947478Y-98673935D01*
X147949935Y-98698879D01*
X147949935Y-98698881D01*
X147957286Y-98773519D01*
X147986334Y-98869277D01*
X148033506Y-98957530D01*
X148096987Y-99034883D01*
X148116370Y-99050790D01*
X148341706Y-99276126D01*
X148345188Y-99311482D01*
X148381498Y-99431180D01*
X148440463Y-99541494D01*
X148519815Y-99638185D01*
X148616506Y-99717537D01*
X148726820Y-99776502D01*
X148846518Y-99812812D01*
X148939808Y-99822000D01*
X149587287Y-99822000D01*
X149606000Y-99823843D01*
X150368000Y-99823843D01*
X150442689Y-99816487D01*
X150514508Y-99794701D01*
X150580696Y-99759322D01*
X150638711Y-99711711D01*
X150686322Y-99653696D01*
X150721701Y-99587508D01*
X150743487Y-99515689D01*
X150750843Y-99441000D01*
X150750843Y-99144693D01*
X150835225Y-99127908D01*
X150968258Y-99072804D01*
X151087985Y-98992805D01*
X151189805Y-98890985D01*
X151269804Y-98771258D01*
X151324908Y-98638225D01*
X151353000Y-98496997D01*
X151353000Y-98353003D01*
X151324908Y-98211775D01*
X151269804Y-98078742D01*
X151189805Y-97959015D01*
X151087985Y-97857195D01*
X150968258Y-97777196D01*
X150835225Y-97722092D01*
X150693997Y-97694000D01*
X150550003Y-97694000D01*
X150408775Y-97722092D01*
X150275742Y-97777196D01*
X150259338Y-97788157D01*
X149606000Y-97788157D01*
X149531311Y-97795513D01*
X149459492Y-97817299D01*
X149393304Y-97852678D01*
X149335289Y-97900289D01*
X149287678Y-97958304D01*
X149252299Y-98024492D01*
X149230513Y-98096311D01*
X149223157Y-98171000D01*
X149223157Y-98552000D01*
X149054420Y-98552000D01*
X148965935Y-98463515D01*
X148965935Y-95931062D01*
X149015053Y-95951407D01*
X149156281Y-95979499D01*
X149223157Y-95979499D01*
X149223157Y-96266000D01*
X149230513Y-96340689D01*
X149252299Y-96412508D01*
X149271999Y-96449363D01*
X149256000Y-96529793D01*
X149256000Y-96673787D01*
X149284092Y-96815015D01*
X149339196Y-96948048D01*
X149419195Y-97067775D01*
X149521015Y-97169595D01*
X149640742Y-97249594D01*
X149773775Y-97304698D01*
X149915003Y-97332790D01*
X150058997Y-97332790D01*
X150200225Y-97304698D01*
X150333258Y-97249594D01*
X150452985Y-97169595D01*
X150554805Y-97067775D01*
X150634804Y-96948048D01*
X150689908Y-96815015D01*
X150718000Y-96673787D01*
X150718000Y-96529793D01*
X150702001Y-96449363D01*
X150721701Y-96412508D01*
X150743487Y-96340689D01*
X150750843Y-96266000D01*
X150750843Y-95758000D01*
X150743487Y-95683311D01*
X150727619Y-95631000D01*
X150743487Y-95578689D01*
X150750843Y-95504000D01*
X150750843Y-94996000D01*
X150743487Y-94921311D01*
X150721701Y-94849492D01*
X150686322Y-94783304D01*
X150653662Y-94743508D01*
X150689908Y-94656003D01*
X150718000Y-94514775D01*
X150718000Y-94370781D01*
X150702003Y-94290359D01*
X150721701Y-94253508D01*
X150743487Y-94181689D01*
X150750843Y-94107000D01*
X150750843Y-93599000D01*
X150743487Y-93524311D01*
X150727619Y-93472000D01*
X150743487Y-93419689D01*
X150750843Y-93345000D01*
X150750843Y-92837000D01*
X150743487Y-92762311D01*
X150721701Y-92690492D01*
X150686322Y-92624304D01*
X150638711Y-92566289D01*
X150580696Y-92518678D01*
X150514508Y-92483299D01*
X150442689Y-92461513D01*
X150368000Y-92454157D01*
X149606000Y-92454157D01*
X149587287Y-92456000D01*
X149423146Y-92456000D01*
X149423146Y-91773270D01*
X149513742Y-91833804D01*
X149646775Y-91888908D01*
X149788003Y-91917000D01*
X149931997Y-91917000D01*
X150073225Y-91888908D01*
X150206258Y-91833804D01*
X150325985Y-91753805D01*
X150376100Y-91703690D01*
X150384613Y-91695638D01*
X150385019Y-91695310D01*
X150386912Y-91694958D01*
X150391440Y-91694470D01*
X150404981Y-91694000D01*
X150919580Y-91694000D01*
X151003001Y-91777421D01*
X151003000Y-92431055D01*
X151000543Y-92456000D01*
X151003000Y-92480944D01*
X151003000Y-92480946D01*
X151010351Y-92555584D01*
X151039399Y-92651342D01*
X151086571Y-92739595D01*
X151150052Y-92816948D01*
X151169435Y-92832855D01*
X152019001Y-93682422D01*
X152019000Y-102972056D01*
X152016543Y-102997000D01*
X152019000Y-103021944D01*
X152019000Y-103021946D01*
X152026351Y-103096584D01*
X152055399Y-103192342D01*
X152102571Y-103280595D01*
X152166052Y-103357948D01*
X152185435Y-103373855D01*
X154545258Y-105733678D01*
X154627776Y-105822182D01*
X154696084Y-105907132D01*
X154755084Y-105993340D01*
X154805290Y-106081057D01*
X154847162Y-106170643D01*
X154881098Y-106262673D01*
X154907323Y-106357717D01*
X154925932Y-106456494D01*
X154936828Y-106559556D01*
X154940000Y-106674736D01*
X154940000Y-106805084D01*
X154988805Y-107050445D01*
X155084541Y-107281571D01*
X155223527Y-107489578D01*
X155400422Y-107666473D01*
X155608429Y-107805459D01*
X155839555Y-107901195D01*
X156084916Y-107950000D01*
X156335084Y-107950000D01*
X156580445Y-107901195D01*
X156811571Y-107805459D01*
X156972000Y-107698264D01*
X156972000Y-110253924D01*
X156884206Y-110041971D01*
X156487275Y-109447922D01*
X155982078Y-108942725D01*
X155388029Y-108545794D01*
X154727957Y-108272383D01*
X154027228Y-108133000D01*
X153312772Y-108133000D01*
X152612043Y-108272383D01*
X151951971Y-108545794D01*
X151357922Y-108942725D01*
X150852725Y-109447922D01*
X150455794Y-110041971D01*
X150241000Y-110560529D01*
X150241000Y-106807000D01*
X150238560Y-106782224D01*
X150231333Y-106758399D01*
X150219597Y-106736443D01*
X150203803Y-106717197D01*
X150184557Y-106701403D01*
X150162601Y-106689667D01*
X150138776Y-106682440D01*
X150114000Y-106680000D01*
X149400064Y-106680000D01*
X149246734Y-106589299D01*
X149098039Y-106546605D01*
X148909500Y-106662744D01*
X148909500Y-106680000D01*
X148528500Y-106680000D01*
X148528500Y-106662744D01*
X148339961Y-106546605D01*
X148191266Y-106589299D01*
X148037936Y-106680000D01*
X147828000Y-106680000D01*
X147803224Y-106682440D01*
X147779399Y-106689667D01*
X147757443Y-106701403D01*
X147738197Y-106717197D01*
X147722403Y-106736443D01*
X147710667Y-106758399D01*
X147703440Y-106782224D01*
X147701000Y-106807000D01*
X147701000Y-107006658D01*
X147650910Y-107073387D01*
X147544895Y-107294224D01*
X147484000Y-107531500D01*
X147484000Y-108066447D01*
X147356073Y-108041000D01*
X147221927Y-108041000D01*
X147090360Y-108067171D01*
X146966426Y-108118506D01*
X146854888Y-108193033D01*
X146760033Y-108287888D01*
X146685506Y-108399426D01*
X146634171Y-108523360D01*
X146608000Y-108654927D01*
X146608000Y-108789073D01*
X146634171Y-108920640D01*
X146685506Y-109044574D01*
X146760033Y-109156112D01*
X146854888Y-109250967D01*
X146966426Y-109325494D01*
X147090360Y-109376829D01*
X147221927Y-109403000D01*
X147356073Y-109403000D01*
X147487640Y-109376829D01*
X147611574Y-109325494D01*
X147624957Y-109316552D01*
X147650910Y-109370613D01*
X147701000Y-109437342D01*
X147701000Y-111240601D01*
X147658490Y-111288882D01*
X147529990Y-111510440D01*
X147447183Y-111752810D01*
X147413252Y-112006678D01*
X147580988Y-112211500D01*
X147701000Y-112211500D01*
X147701000Y-112592500D01*
X147580988Y-112592500D01*
X147413252Y-112797322D01*
X147447183Y-113051190D01*
X147529990Y-113293560D01*
X147658490Y-113515118D01*
X147701000Y-113563399D01*
X147701000Y-113665000D01*
X147703440Y-113689776D01*
X147710667Y-113713601D01*
X147722403Y-113735557D01*
X147738197Y-113754803D01*
X147757443Y-113770597D01*
X147779399Y-113782333D01*
X147803224Y-113789560D01*
X147828000Y-113792000D01*
X147938513Y-113792000D01*
X148031249Y-113862869D01*
X148261184Y-113975698D01*
X148332048Y-113977355D01*
X148528500Y-113862022D01*
X148528500Y-113792000D01*
X148909500Y-113792000D01*
X148909500Y-113862022D01*
X149105952Y-113977355D01*
X149176816Y-113975698D01*
X149406751Y-113862869D01*
X149499487Y-113792000D01*
X150114000Y-113792000D01*
X150138776Y-113789560D01*
X150162601Y-113782333D01*
X150184557Y-113770597D01*
X150203803Y-113754803D01*
X150219597Y-113735557D01*
X150231333Y-113713601D01*
X150238560Y-113689776D01*
X150241000Y-113665000D01*
X150241000Y-112959471D01*
X150455794Y-113478029D01*
X150852725Y-114072078D01*
X151357922Y-114577275D01*
X151951971Y-114974206D01*
X152163924Y-115062000D01*
X134856076Y-115062000D01*
X135068029Y-114974206D01*
X135662078Y-114577275D01*
X136167275Y-114072078D01*
X136564206Y-113478029D01*
X136837617Y-112817957D01*
X136977000Y-112117228D01*
X136977000Y-111402772D01*
X136837617Y-110702043D01*
X136564206Y-110041971D01*
X136167275Y-109447922D01*
X135662078Y-108942725D01*
X135068029Y-108545794D01*
X134407957Y-108272383D01*
X133707228Y-108133000D01*
X132992772Y-108133000D01*
X132292043Y-108272383D01*
X131631971Y-108545794D01*
X131037922Y-108942725D01*
X130532725Y-109447922D01*
X130135794Y-110041971D01*
X130048000Y-110253924D01*
X130048000Y-107698264D01*
X130208429Y-107805459D01*
X130439555Y-107901195D01*
X130684916Y-107950000D01*
X130935084Y-107950000D01*
X131180445Y-107901195D01*
X131411571Y-107805459D01*
X131619578Y-107666473D01*
X131796473Y-107489578D01*
X131935459Y-107281571D01*
X132031195Y-107050445D01*
X132080000Y-106805084D01*
X132080000Y-106554916D01*
X132031195Y-106309555D01*
X131935459Y-106078429D01*
X131920588Y-106056173D01*
X132252242Y-106387828D01*
X132268633Y-106405053D01*
X132278460Y-106416556D01*
X132283210Y-106422840D01*
X132283210Y-106488542D01*
X132317066Y-106658749D01*
X132383478Y-106819081D01*
X132479892Y-106963376D01*
X132602605Y-107086089D01*
X132746900Y-107182503D01*
X132907232Y-107248915D01*
X133077439Y-107282771D01*
X133250981Y-107282771D01*
X133421188Y-107248915D01*
X133581520Y-107182503D01*
X133725815Y-107086089D01*
X133772275Y-107039629D01*
X133780073Y-107038545D01*
X133795150Y-107037360D01*
X133818896Y-107036771D01*
X137089548Y-107036771D01*
X137120729Y-107039842D01*
X137151910Y-107036771D01*
X137151921Y-107036771D01*
X137245211Y-107027583D01*
X137364909Y-106991273D01*
X137475223Y-106932308D01*
X137571914Y-106852956D01*
X137591803Y-106828721D01*
X137613524Y-106807000D01*
X138557000Y-106807000D01*
X138557000Y-113665000D01*
X138559440Y-113689776D01*
X138566667Y-113713601D01*
X138578403Y-113735557D01*
X138594197Y-113754803D01*
X138613443Y-113770597D01*
X138635399Y-113782333D01*
X138659224Y-113789560D01*
X138684000Y-113792000D01*
X139298513Y-113792000D01*
X139391249Y-113862869D01*
X139621184Y-113975698D01*
X139692048Y-113977355D01*
X139888500Y-113862022D01*
X139888500Y-113792000D01*
X140269500Y-113792000D01*
X140269500Y-113862022D01*
X140465952Y-113977355D01*
X140536816Y-113975698D01*
X140766751Y-113862869D01*
X140859487Y-113792000D01*
X140970000Y-113792000D01*
X140994776Y-113789560D01*
X141018601Y-113782333D01*
X141040557Y-113770597D01*
X141059803Y-113754803D01*
X141075597Y-113735557D01*
X141087333Y-113713601D01*
X141094560Y-113689776D01*
X141097000Y-113665000D01*
X141097000Y-113563399D01*
X141139510Y-113515118D01*
X141268010Y-113293560D01*
X141350817Y-113051190D01*
X141384748Y-112797322D01*
X141217012Y-112592500D01*
X141097000Y-112592500D01*
X141097000Y-112211500D01*
X141217012Y-112211500D01*
X141384748Y-112006678D01*
X141350817Y-111752810D01*
X141268010Y-111510440D01*
X141139510Y-111288882D01*
X141097000Y-111240601D01*
X141097000Y-109437342D01*
X141147090Y-109370613D01*
X141173043Y-109316552D01*
X141186426Y-109325494D01*
X141310360Y-109376829D01*
X141441927Y-109403000D01*
X141576073Y-109403000D01*
X141707640Y-109376829D01*
X141831574Y-109325494D01*
X141943112Y-109250967D01*
X142037967Y-109156112D01*
X142112494Y-109044574D01*
X142163829Y-108920640D01*
X142190000Y-108789073D01*
X142190000Y-108654927D01*
X142163829Y-108523360D01*
X142112494Y-108399426D01*
X142037967Y-108287888D01*
X141943112Y-108193033D01*
X141831574Y-108118506D01*
X141707640Y-108067171D01*
X141576073Y-108041000D01*
X141441927Y-108041000D01*
X141314000Y-108066447D01*
X141314000Y-107531500D01*
X141253105Y-107294224D01*
X141147090Y-107073387D01*
X141097000Y-107006658D01*
X141097000Y-106807000D01*
X141094560Y-106782224D01*
X141087333Y-106758399D01*
X141075597Y-106736443D01*
X141059803Y-106717197D01*
X141040557Y-106701403D01*
X141018601Y-106689667D01*
X140994776Y-106682440D01*
X140970000Y-106680000D01*
X140760064Y-106680000D01*
X140606734Y-106589299D01*
X140458039Y-106546605D01*
X140269500Y-106662744D01*
X140269500Y-106680000D01*
X139888500Y-106680000D01*
X139888500Y-106662744D01*
X139699961Y-106546605D01*
X139551266Y-106589299D01*
X139397936Y-106680000D01*
X138684000Y-106680000D01*
X138659224Y-106682440D01*
X138635399Y-106689667D01*
X138613443Y-106701403D01*
X138594197Y-106717197D01*
X138578403Y-106736443D01*
X138566667Y-106758399D01*
X138559440Y-106782224D01*
X138557000Y-106807000D01*
X137613524Y-106807000D01*
X138883526Y-105537000D01*
X141065819Y-105537000D01*
X141097000Y-105540071D01*
X141128181Y-105537000D01*
X141128192Y-105537000D01*
X141221482Y-105527812D01*
X141341180Y-105491502D01*
X141451494Y-105432537D01*
X141548185Y-105353185D01*
X141568074Y-105328950D01*
X142049621Y-104847404D01*
X142072225Y-104842908D01*
X142205258Y-104787804D01*
X142324985Y-104707805D01*
X142426805Y-104605985D01*
X142506804Y-104486258D01*
X142561908Y-104353225D01*
X142590000Y-104211997D01*
X142590000Y-104068003D01*
X142561908Y-103926775D01*
X142506804Y-103793742D01*
X142426805Y-103674015D01*
X142324985Y-103572195D01*
X142205258Y-103492196D01*
X142072225Y-103437092D01*
X141930997Y-103409000D01*
X141787003Y-103409000D01*
X141645775Y-103437092D01*
X141512742Y-103492196D01*
X141393015Y-103572195D01*
X141291195Y-103674015D01*
X141211196Y-103793742D01*
X141156092Y-103926775D01*
X141151596Y-103949379D01*
X140833975Y-104267000D01*
X138651680Y-104267000D01*
X138620499Y-104263929D01*
X138589318Y-104267000D01*
X138589308Y-104267000D01*
X138496018Y-104276188D01*
X138376320Y-104312498D01*
X138333581Y-104335343D01*
X138266005Y-104371463D01*
X138193542Y-104430932D01*
X138193539Y-104430935D01*
X138169315Y-104450815D01*
X138149434Y-104475040D01*
X136857705Y-105766771D01*
X133818910Y-105766771D01*
X133795151Y-105766181D01*
X133780073Y-105764996D01*
X133772273Y-105763911D01*
X133725815Y-105717453D01*
X133581520Y-105621039D01*
X133421188Y-105554627D01*
X133250981Y-105520771D01*
X133185279Y-105520771D01*
X133178995Y-105516021D01*
X133167492Y-105506194D01*
X133150267Y-105489803D01*
X132969004Y-105308541D01*
X132969004Y-103746013D01*
X134536574Y-103746013D01*
X134537901Y-104008981D01*
X134590506Y-104266638D01*
X134685983Y-104497141D01*
X134912134Y-104561438D01*
X135135976Y-104337596D01*
X135158112Y-104349962D01*
X135200294Y-104378562D01*
X135241442Y-104411763D01*
X135285035Y-104453010D01*
X135294947Y-104461468D01*
X135316081Y-104474628D01*
X135339376Y-104483412D01*
X135363938Y-104487482D01*
X135388821Y-104486683D01*
X135413071Y-104481044D01*
X135435754Y-104470783D01*
X135685720Y-104326668D01*
X135181542Y-104830846D01*
X135245839Y-105056997D01*
X135489298Y-105156405D01*
X135747473Y-105206406D01*
X136010441Y-105205079D01*
X136268098Y-105152474D01*
X136498601Y-105056997D01*
X136562898Y-104830846D01*
X135922314Y-104190262D01*
X136264086Y-103993218D01*
X136832306Y-104561438D01*
X137058457Y-104497141D01*
X137157865Y-104253682D01*
X137207866Y-103995507D01*
X137206539Y-103732539D01*
X137153934Y-103474882D01*
X137058457Y-103244379D01*
X136832306Y-103180082D01*
X136264086Y-103748302D01*
X135922314Y-103551258D01*
X136549429Y-102924143D01*
X136569680Y-102924143D01*
X136644369Y-102916787D01*
X136716188Y-102895001D01*
X136782376Y-102859622D01*
X136840391Y-102812011D01*
X136888002Y-102753996D01*
X136923381Y-102687808D01*
X136945167Y-102615989D01*
X136952523Y-102541300D01*
X136952523Y-101141300D01*
X136945167Y-101066611D01*
X136923381Y-100994792D01*
X136888002Y-100928604D01*
X136840391Y-100870589D01*
X136782376Y-100822978D01*
X136716188Y-100787599D01*
X136644369Y-100765813D01*
X136569680Y-100758457D01*
X135169680Y-100758457D01*
X135094991Y-100765813D01*
X135023172Y-100787599D01*
X134956984Y-100822978D01*
X134898969Y-100870589D01*
X134851358Y-100928604D01*
X134815979Y-100994792D01*
X134794193Y-101066611D01*
X134786837Y-101141300D01*
X134786837Y-102541300D01*
X134794193Y-102615989D01*
X134815979Y-102687808D01*
X134851358Y-102753996D01*
X134898969Y-102812011D01*
X134956984Y-102859622D01*
X135023172Y-102895001D01*
X135094991Y-102916787D01*
X135169680Y-102924143D01*
X135195011Y-102924143D01*
X135685720Y-103414852D01*
X135435754Y-103270737D01*
X135423754Y-103264642D01*
X135400112Y-103256839D01*
X135375402Y-103253798D01*
X135350574Y-103255637D01*
X135326581Y-103262284D01*
X135304346Y-103273484D01*
X135284724Y-103288806D01*
X135240759Y-103330688D01*
X135198723Y-103365387D01*
X135155436Y-103396028D01*
X135138326Y-103406274D01*
X134912134Y-103180082D01*
X134685983Y-103244379D01*
X134586575Y-103487838D01*
X134536574Y-103746013D01*
X132969004Y-103746013D01*
X132969004Y-100349686D01*
X132969593Y-100325940D01*
X132970778Y-100310863D01*
X132971862Y-100303065D01*
X133018322Y-100256605D01*
X133114736Y-100112310D01*
X133181148Y-99951978D01*
X133215004Y-99781771D01*
X133215004Y-99608229D01*
X133184724Y-99455999D01*
X133603999Y-99455999D01*
X133625680Y-99454135D01*
X133649677Y-99447500D01*
X133671917Y-99436312D01*
X133691548Y-99421000D01*
X133707814Y-99402152D01*
X133720091Y-99380493D01*
X133727906Y-99356855D01*
X133730960Y-99332147D01*
X133731836Y-99296833D01*
X133734151Y-99267387D01*
X133737850Y-99240781D01*
X133742775Y-99217008D01*
X133748744Y-99196046D01*
X133755570Y-99177789D01*
X133763081Y-99162051D01*
X133771155Y-99148562D01*
X133779762Y-99136979D01*
X133793549Y-99121964D01*
X133813869Y-99092311D01*
X133822653Y-99069016D01*
X133826723Y-99044454D01*
X133825924Y-99019571D01*
X133820285Y-98995321D01*
X133810024Y-98972638D01*
X133460024Y-98365567D01*
X133450709Y-98351626D01*
X133433679Y-98333465D01*
X133413433Y-98318976D01*
X133390750Y-98308715D01*
X133366500Y-98303076D01*
X133341617Y-98302277D01*
X133317055Y-98306347D01*
X133293760Y-98315131D01*
X133272626Y-98328291D01*
X133254465Y-98345321D01*
X133239976Y-98365567D01*
X132889976Y-98972638D01*
X132879144Y-98999680D01*
X132751314Y-98914268D01*
X132590982Y-98847856D01*
X132420775Y-98814000D01*
X132247233Y-98814000D01*
X132093206Y-98844638D01*
X132094067Y-98836494D01*
X132112676Y-98737717D01*
X132138901Y-98642673D01*
X132172837Y-98550643D01*
X132214709Y-98461057D01*
X132264915Y-98373340D01*
X132323915Y-98287132D01*
X132392223Y-98202182D01*
X132474740Y-98113680D01*
X133526761Y-97061659D01*
X133513399Y-97086658D01*
X133484351Y-97182416D01*
X133477831Y-97248616D01*
X133474543Y-97282000D01*
X133477000Y-97306945D01*
X133477001Y-98019046D01*
X133474543Y-98044000D01*
X133481719Y-98116850D01*
X133484352Y-98143585D01*
X133493362Y-98173287D01*
X133513400Y-98239343D01*
X133560571Y-98327595D01*
X133580293Y-98351626D01*
X133624053Y-98404948D01*
X133643430Y-98420850D01*
X134243145Y-99020565D01*
X134259052Y-99039948D01*
X134336405Y-99103429D01*
X134424657Y-99150601D01*
X134520415Y-99179649D01*
X134595053Y-99187000D01*
X134595056Y-99187000D01*
X134620000Y-99189457D01*
X134644944Y-99187000D01*
X135992056Y-99187000D01*
X136017000Y-99189457D01*
X136041944Y-99187000D01*
X136041947Y-99187000D01*
X136116585Y-99179649D01*
X136212343Y-99150601D01*
X136300595Y-99103429D01*
X136377948Y-99039948D01*
X136393855Y-99020565D01*
X137374571Y-98039850D01*
X137393948Y-98023948D01*
X137428049Y-97982395D01*
X137457429Y-97946596D01*
X137490651Y-97884441D01*
X137504601Y-97858343D01*
X137533649Y-97762585D01*
X137541000Y-97687947D01*
X137541000Y-97687944D01*
X137543457Y-97663000D01*
X137541000Y-97638056D01*
X137541000Y-97210005D01*
X137826000Y-97210005D01*
X137826000Y-97353999D01*
X137854092Y-97495227D01*
X137909196Y-97628260D01*
X137922000Y-97647423D01*
X137922001Y-101807320D01*
X137911696Y-101822742D01*
X137856592Y-101955775D01*
X137828500Y-102097003D01*
X137828500Y-102240997D01*
X137856592Y-102382225D01*
X137911696Y-102515258D01*
X137991695Y-102634985D01*
X138093515Y-102736805D01*
X138213242Y-102816804D01*
X138346275Y-102871908D01*
X138487503Y-102900000D01*
X138631497Y-102900000D01*
X138772725Y-102871908D01*
X138905758Y-102816804D01*
X139025485Y-102736805D01*
X139127305Y-102634985D01*
X139153363Y-102595985D01*
X139192100Y-102595985D01*
X139193560Y-102620839D01*
X139199840Y-102644930D01*
X139222082Y-102705263D01*
X139238984Y-102757852D01*
X139251376Y-102804444D01*
X139259418Y-102844653D01*
X139263417Y-102877898D01*
X139263978Y-102903467D01*
X139262207Y-102920756D01*
X139259858Y-102929626D01*
X139258973Y-102931449D01*
X139250966Y-102941423D01*
X139236131Y-102964689D01*
X139227347Y-102987984D01*
X139223277Y-103012546D01*
X139224076Y-103037429D01*
X139229715Y-103061679D01*
X139239976Y-103084362D01*
X139589976Y-103691433D01*
X139599291Y-103705374D01*
X139616321Y-103723535D01*
X139636567Y-103738024D01*
X139659250Y-103748285D01*
X139683500Y-103753924D01*
X139708383Y-103754723D01*
X139732945Y-103750653D01*
X139756240Y-103741869D01*
X139777374Y-103728709D01*
X139795535Y-103711679D01*
X139810024Y-103691433D01*
X140160024Y-103084362D01*
X140173469Y-103050667D01*
X140176898Y-103026008D01*
X140175451Y-103001154D01*
X140169183Y-102977060D01*
X140158334Y-102954651D01*
X140143322Y-102934790D01*
X140127359Y-102917496D01*
X140112958Y-102899059D01*
X140096337Y-102874703D01*
X140078047Y-102844714D01*
X140058389Y-102809244D01*
X140037579Y-102768462D01*
X140015810Y-102722596D01*
X139993119Y-102671621D01*
X139969609Y-102615690D01*
X139944947Y-102553914D01*
X139932596Y-102530444D01*
X139916802Y-102511198D01*
X139897556Y-102495404D01*
X139875600Y-102483668D01*
X139851775Y-102476441D01*
X139826999Y-102474001D01*
X139319001Y-102474001D01*
X139299163Y-102475560D01*
X139275072Y-102481840D01*
X139252669Y-102492700D01*
X139232815Y-102507722D01*
X139216273Y-102526328D01*
X139203679Y-102547804D01*
X139195517Y-102571324D01*
X139192100Y-102595985D01*
X139153363Y-102595985D01*
X139207304Y-102515258D01*
X139262408Y-102382225D01*
X139290500Y-102240997D01*
X139290500Y-102097003D01*
X139262408Y-101955775D01*
X139207304Y-101822742D01*
X139192000Y-101799838D01*
X139192000Y-97647423D01*
X139204804Y-97628260D01*
X139259908Y-97495227D01*
X139288000Y-97353999D01*
X139288000Y-97210005D01*
X139259908Y-97068777D01*
X139204804Y-96935744D01*
X139124805Y-96816017D01*
X139022985Y-96714197D01*
X138903258Y-96634198D01*
X138770225Y-96579094D01*
X138628997Y-96551002D01*
X138485003Y-96551002D01*
X138343775Y-96579094D01*
X138210742Y-96634198D01*
X138091015Y-96714197D01*
X137989195Y-96816017D01*
X137909196Y-96935744D01*
X137854092Y-97068777D01*
X137826000Y-97210005D01*
X137541000Y-97210005D01*
X137541000Y-96095422D01*
X140168565Y-93467857D01*
X140187948Y-93451950D01*
X140251429Y-93374597D01*
X140298601Y-93286345D01*
X140327649Y-93190587D01*
X140335000Y-93115949D01*
X140335000Y-93115946D01*
X140337457Y-93091002D01*
X140335000Y-93066058D01*
X140335000Y-91718944D01*
X140337457Y-91694000D01*
X140334757Y-91666584D01*
X140327649Y-91594415D01*
X140298601Y-91498657D01*
X140251429Y-91410405D01*
X140187948Y-91333052D01*
X140168565Y-91317145D01*
X138218291Y-89366871D01*
X138218291Y-87122105D01*
X138422510Y-86917887D01*
X138497195Y-87029661D01*
X138599015Y-87131481D01*
X138718742Y-87211480D01*
X138851775Y-87266584D01*
X138993003Y-87294676D01*
X139136997Y-87294676D01*
X139278225Y-87266584D01*
X139411258Y-87211480D01*
X139530985Y-87131481D01*
X139581100Y-87081366D01*
X139589613Y-87073314D01*
X139590019Y-87072986D01*
X139591912Y-87072634D01*
X139596440Y-87072146D01*
X139609981Y-87071676D01*
X140298027Y-87071676D01*
X140322971Y-87074133D01*
X140347915Y-87071676D01*
X140347918Y-87071676D01*
X140422556Y-87064325D01*
X140518314Y-87035277D01*
X140606566Y-86988105D01*
X140683919Y-86924624D01*
X140699826Y-86905241D01*
X141753068Y-85852000D01*
X144316369Y-85852000D01*
X144272403Y-85905573D01*
G36*
X135445500Y-93799500D02*
G01*
X135465500Y-93799500D01*
X135465500Y-94180500D01*
X135445500Y-94180500D01*
X135445500Y-94200500D01*
X135064500Y-94200500D01*
X135064500Y-94180500D01*
X135044500Y-94180500D01*
X135044500Y-93799500D01*
X135064500Y-93799500D01*
X135064500Y-93779500D01*
X135445500Y-93779500D01*
X135445500Y-93799500D01*
G37*
X135445500Y-93799500D02*
X135465500Y-93799500D01*
X135465500Y-94180500D01*
X135445500Y-94180500D01*
X135445500Y-94200500D01*
X135064500Y-94200500D01*
X135064500Y-94180500D01*
X135044500Y-94180500D01*
X135044500Y-93799500D01*
X135064500Y-93799500D01*
X135064500Y-93779500D01*
X135445500Y-93779500D01*
X135445500Y-93799500D01*
G36*
X131093550Y-88885858D02*
G01*
X131079408Y-88900000D01*
X131093550Y-88914142D01*
X130824142Y-89183550D01*
X130810000Y-89169408D01*
X130795858Y-89183550D01*
X130526450Y-88914142D01*
X130540592Y-88900000D01*
X130526450Y-88885858D01*
X130795858Y-88616450D01*
X130810000Y-88630592D01*
X130824142Y-88616450D01*
X131093550Y-88885858D01*
G37*
X131093550Y-88885858D02*
X131079408Y-88900000D01*
X131093550Y-88914142D01*
X130824142Y-89183550D01*
X130810000Y-89169408D01*
X130795858Y-89183550D01*
X130526450Y-88914142D01*
X130540592Y-88900000D01*
X130526450Y-88885858D01*
X130795858Y-88616450D01*
X130810000Y-88630592D01*
X130824142Y-88616450D01*
X131093550Y-88885858D01*
G36*
X152397252Y-87001164D02*
G01*
X152530285Y-87056268D01*
X152671513Y-87084360D01*
X152815507Y-87084360D01*
X152956735Y-87056268D01*
X153089768Y-87001164D01*
X153098993Y-86995000D01*
X154670345Y-86995000D01*
X154755498Y-86997967D01*
X154829250Y-87005945D01*
X154898464Y-87018869D01*
X154938157Y-87029629D01*
X154938157Y-87249000D01*
X154945513Y-87323689D01*
X154967299Y-87395508D01*
X155002678Y-87461696D01*
X155050289Y-87519711D01*
X155108304Y-87567322D01*
X155174492Y-87602701D01*
X155246311Y-87624487D01*
X155321000Y-87631843D01*
X155444926Y-87631843D01*
X155383505Y-87804098D01*
X156210000Y-88630592D01*
X156224142Y-88616450D01*
X156493550Y-88885858D01*
X156479408Y-88900000D01*
X156493550Y-88914142D01*
X156224142Y-89183550D01*
X156210000Y-89169408D01*
X156195858Y-89183550D01*
X155926450Y-88914142D01*
X155940592Y-88900000D01*
X155114098Y-88073505D01*
X154868742Y-88160991D01*
X154750340Y-88436857D01*
X154721131Y-88574524D01*
X153618780Y-87472175D01*
X153602869Y-87452787D01*
X153525516Y-87389306D01*
X153437264Y-87342134D01*
X153341506Y-87313086D01*
X153266868Y-87305735D01*
X153266865Y-87305735D01*
X153241921Y-87303278D01*
X153216977Y-87305735D01*
X152135260Y-87305735D01*
X152155192Y-87205530D01*
X152155192Y-87061536D01*
X152140636Y-86988360D01*
X152378089Y-86988360D01*
X152397252Y-87001164D01*
G37*
X152397252Y-87001164D02*
X152530285Y-87056268D01*
X152671513Y-87084360D01*
X152815507Y-87084360D01*
X152956735Y-87056268D01*
X153089768Y-87001164D01*
X153098993Y-86995000D01*
X154670345Y-86995000D01*
X154755498Y-86997967D01*
X154829250Y-87005945D01*
X154898464Y-87018869D01*
X154938157Y-87029629D01*
X154938157Y-87249000D01*
X154945513Y-87323689D01*
X154967299Y-87395508D01*
X155002678Y-87461696D01*
X155050289Y-87519711D01*
X155108304Y-87567322D01*
X155174492Y-87602701D01*
X155246311Y-87624487D01*
X155321000Y-87631843D01*
X155444926Y-87631843D01*
X155383505Y-87804098D01*
X156210000Y-88630592D01*
X156224142Y-88616450D01*
X156493550Y-88885858D01*
X156479408Y-88900000D01*
X156493550Y-88914142D01*
X156224142Y-89183550D01*
X156210000Y-89169408D01*
X156195858Y-89183550D01*
X155926450Y-88914142D01*
X155940592Y-88900000D01*
X155114098Y-88073505D01*
X154868742Y-88160991D01*
X154750340Y-88436857D01*
X154721131Y-88574524D01*
X153618780Y-87472175D01*
X153602869Y-87452787D01*
X153525516Y-87389306D01*
X153437264Y-87342134D01*
X153341506Y-87313086D01*
X153266868Y-87305735D01*
X153266865Y-87305735D01*
X153241921Y-87303278D01*
X153216977Y-87305735D01*
X152135260Y-87305735D01*
X152155192Y-87205530D01*
X152155192Y-87061536D01*
X152140636Y-86988360D01*
X152378089Y-86988360D01*
X152397252Y-87001164D01*
G36*
X151951971Y-78065794D02*
G01*
X151357922Y-78462725D01*
X151017499Y-78803148D01*
X151175431Y-78215169D01*
X151178702Y-78198724D01*
X151179501Y-78173841D01*
X151175431Y-78149279D01*
X151166647Y-78125984D01*
X151153487Y-78104850D01*
X151136457Y-78086689D01*
X151116211Y-78072200D01*
X151093528Y-78061939D01*
X151069278Y-78056300D01*
X151044395Y-78055501D01*
X151019833Y-78059571D01*
X150343083Y-78241347D01*
X150310022Y-78255500D01*
X150290123Y-78270462D01*
X150273525Y-78289019D01*
X150260867Y-78310457D01*
X150252634Y-78333953D01*
X150249143Y-78358603D01*
X150248268Y-78379185D01*
X150246094Y-78394122D01*
X150242098Y-78410375D01*
X150235995Y-78428132D01*
X150227522Y-78447430D01*
X150216458Y-78468226D01*
X150202616Y-78490447D01*
X150185885Y-78513966D01*
X150166168Y-78538678D01*
X150141547Y-78566582D01*
X150131181Y-78580049D01*
X150119445Y-78602005D01*
X150112218Y-78625830D01*
X150109778Y-78650606D01*
X150112218Y-78675382D01*
X150119445Y-78699207D01*
X150131181Y-78721163D01*
X150146975Y-78740409D01*
X150506185Y-79099619D01*
X150527005Y-79116448D01*
X150549133Y-79127857D01*
X150573062Y-79134730D01*
X150597872Y-79136802D01*
X150622609Y-79133995D01*
X150646324Y-79126415D01*
X150668104Y-79114354D01*
X150687113Y-79098277D01*
X150712793Y-79071824D01*
X150735378Y-79050938D01*
X150756900Y-79033323D01*
X150777171Y-79018908D01*
X150796041Y-79007529D01*
X150813444Y-78998936D01*
X150829333Y-78992841D01*
X150837575Y-78990596D01*
X150455794Y-79561971D01*
X150182383Y-80222043D01*
X150043000Y-80922772D01*
X150043000Y-81637228D01*
X150182383Y-82337957D01*
X150455794Y-82998029D01*
X150852725Y-83592078D01*
X151357922Y-84097275D01*
X151951971Y-84494206D01*
X152612043Y-84767617D01*
X153312772Y-84907000D01*
X154027228Y-84907000D01*
X154727957Y-84767617D01*
X155388029Y-84494206D01*
X155982078Y-84097275D01*
X156487275Y-83592078D01*
X156884206Y-82998029D01*
X156972001Y-82786074D01*
X156972001Y-85088157D01*
X155321000Y-85088157D01*
X155246311Y-85095513D01*
X155174492Y-85117299D01*
X155108304Y-85152678D01*
X155050289Y-85200289D01*
X155002678Y-85258304D01*
X154967299Y-85324492D01*
X154945513Y-85396311D01*
X154938157Y-85471000D01*
X154938157Y-85690370D01*
X154898464Y-85701130D01*
X154829250Y-85714054D01*
X154755498Y-85722032D01*
X154670339Y-85725000D01*
X153118868Y-85725000D01*
X153089768Y-85705556D01*
X152956735Y-85650452D01*
X152815507Y-85622360D01*
X152671513Y-85622360D01*
X152644309Y-85627771D01*
X153020633Y-85410806D01*
X153034574Y-85401491D01*
X153052735Y-85384461D01*
X153067224Y-85364215D01*
X153077485Y-85341532D01*
X153083124Y-85317282D01*
X153083923Y-85292399D01*
X153079853Y-85267837D01*
X153071069Y-85244542D01*
X153057909Y-85223408D01*
X153040879Y-85205247D01*
X153020633Y-85190758D01*
X152413562Y-84840758D01*
X152380199Y-84827393D01*
X152355550Y-84823898D01*
X152330692Y-84825278D01*
X152306580Y-84831482D01*
X152284143Y-84842270D01*
X152264241Y-84857228D01*
X152249220Y-84871018D01*
X152237637Y-84879626D01*
X152224143Y-84887703D01*
X152208412Y-84895211D01*
X152190158Y-84902035D01*
X152169191Y-84908006D01*
X152145418Y-84912931D01*
X152118812Y-84916630D01*
X152089365Y-84918945D01*
X152054050Y-84919822D01*
X152032425Y-84922223D01*
X152008600Y-84929450D01*
X151986644Y-84941186D01*
X151967398Y-84956980D01*
X151951604Y-84976226D01*
X151939868Y-84998182D01*
X151932641Y-85022007D01*
X151930201Y-85046783D01*
X151930201Y-85554781D01*
X151932065Y-85576462D01*
X151938700Y-85600459D01*
X151949888Y-85622699D01*
X151965200Y-85642330D01*
X151984048Y-85658596D01*
X152005707Y-85670873D01*
X152029345Y-85678688D01*
X152054053Y-85681742D01*
X152089365Y-85682618D01*
X152118812Y-85684933D01*
X152145418Y-85688632D01*
X152169191Y-85693557D01*
X152190158Y-85699528D01*
X152208412Y-85706352D01*
X152224143Y-85713860D01*
X152231661Y-85718360D01*
X152021385Y-85718360D01*
X149809203Y-83506179D01*
X149809203Y-82653284D01*
X149812274Y-82622103D01*
X149809203Y-82590922D01*
X149809203Y-82590912D01*
X149800015Y-82497622D01*
X149763705Y-82377924D01*
X149704740Y-82267610D01*
X149625388Y-82170919D01*
X149601158Y-82151034D01*
X148938173Y-81488050D01*
X148918284Y-81463815D01*
X148821593Y-81384463D01*
X148711279Y-81325498D01*
X148591581Y-81289188D01*
X148498291Y-81280000D01*
X148498280Y-81280000D01*
X148467099Y-81276929D01*
X148435918Y-81280000D01*
X140725025Y-81280000D01*
X139917074Y-80472050D01*
X139897185Y-80447815D01*
X139800494Y-80368463D01*
X139690180Y-80309498D01*
X139570482Y-80273188D01*
X139477192Y-80264000D01*
X139477181Y-80264000D01*
X139446000Y-80260929D01*
X139414819Y-80264000D01*
X138922421Y-80264000D01*
X138903258Y-80251196D01*
X138770225Y-80196092D01*
X138628997Y-80168000D01*
X138485003Y-80168000D01*
X138343775Y-80196092D01*
X138210742Y-80251196D01*
X138091015Y-80331195D01*
X137989195Y-80433015D01*
X137909196Y-80552742D01*
X137854092Y-80685775D01*
X137849596Y-80708380D01*
X136977000Y-81580976D01*
X136977000Y-80922772D01*
X136837617Y-80222043D01*
X136564206Y-79561971D01*
X136167275Y-78967922D01*
X135662078Y-78462725D01*
X135068029Y-78065794D01*
X134856076Y-77978000D01*
X152163924Y-77978000D01*
X151951971Y-78065794D01*
G37*
X151951971Y-78065794D02*
X151357922Y-78462725D01*
X151017499Y-78803148D01*
X151175431Y-78215169D01*
X151178702Y-78198724D01*
X151179501Y-78173841D01*
X151175431Y-78149279D01*
X151166647Y-78125984D01*
X151153487Y-78104850D01*
X151136457Y-78086689D01*
X151116211Y-78072200D01*
X151093528Y-78061939D01*
X151069278Y-78056300D01*
X151044395Y-78055501D01*
X151019833Y-78059571D01*
X150343083Y-78241347D01*
X150310022Y-78255500D01*
X150290123Y-78270462D01*
X150273525Y-78289019D01*
X150260867Y-78310457D01*
X150252634Y-78333953D01*
X150249143Y-78358603D01*
X150248268Y-78379185D01*
X150246094Y-78394122D01*
X150242098Y-78410375D01*
X150235995Y-78428132D01*
X150227522Y-78447430D01*
X150216458Y-78468226D01*
X150202616Y-78490447D01*
X150185885Y-78513966D01*
X150166168Y-78538678D01*
X150141547Y-78566582D01*
X150131181Y-78580049D01*
X150119445Y-78602005D01*
X150112218Y-78625830D01*
X150109778Y-78650606D01*
X150112218Y-78675382D01*
X150119445Y-78699207D01*
X150131181Y-78721163D01*
X150146975Y-78740409D01*
X150506185Y-79099619D01*
X150527005Y-79116448D01*
X150549133Y-79127857D01*
X150573062Y-79134730D01*
X150597872Y-79136802D01*
X150622609Y-79133995D01*
X150646324Y-79126415D01*
X150668104Y-79114354D01*
X150687113Y-79098277D01*
X150712793Y-79071824D01*
X150735378Y-79050938D01*
X150756900Y-79033323D01*
X150777171Y-79018908D01*
X150796041Y-79007529D01*
X150813444Y-78998936D01*
X150829333Y-78992841D01*
X150837575Y-78990596D01*
X150455794Y-79561971D01*
X150182383Y-80222043D01*
X150043000Y-80922772D01*
X150043000Y-81637228D01*
X150182383Y-82337957D01*
X150455794Y-82998029D01*
X150852725Y-83592078D01*
X151357922Y-84097275D01*
X151951971Y-84494206D01*
X152612043Y-84767617D01*
X153312772Y-84907000D01*
X154027228Y-84907000D01*
X154727957Y-84767617D01*
X155388029Y-84494206D01*
X155982078Y-84097275D01*
X156487275Y-83592078D01*
X156884206Y-82998029D01*
X156972001Y-82786074D01*
X156972001Y-85088157D01*
X155321000Y-85088157D01*
X155246311Y-85095513D01*
X155174492Y-85117299D01*
X155108304Y-85152678D01*
X155050289Y-85200289D01*
X155002678Y-85258304D01*
X154967299Y-85324492D01*
X154945513Y-85396311D01*
X154938157Y-85471000D01*
X154938157Y-85690370D01*
X154898464Y-85701130D01*
X154829250Y-85714054D01*
X154755498Y-85722032D01*
X154670339Y-85725000D01*
X153118868Y-85725000D01*
X153089768Y-85705556D01*
X152956735Y-85650452D01*
X152815507Y-85622360D01*
X152671513Y-85622360D01*
X152644309Y-85627771D01*
X153020633Y-85410806D01*
X153034574Y-85401491D01*
X153052735Y-85384461D01*
X153067224Y-85364215D01*
X153077485Y-85341532D01*
X153083124Y-85317282D01*
X153083923Y-85292399D01*
X153079853Y-85267837D01*
X153071069Y-85244542D01*
X153057909Y-85223408D01*
X153040879Y-85205247D01*
X153020633Y-85190758D01*
X152413562Y-84840758D01*
X152380199Y-84827393D01*
X152355550Y-84823898D01*
X152330692Y-84825278D01*
X152306580Y-84831482D01*
X152284143Y-84842270D01*
X152264241Y-84857228D01*
X152249220Y-84871018D01*
X152237637Y-84879626D01*
X152224143Y-84887703D01*
X152208412Y-84895211D01*
X152190158Y-84902035D01*
X152169191Y-84908006D01*
X152145418Y-84912931D01*
X152118812Y-84916630D01*
X152089365Y-84918945D01*
X152054050Y-84919822D01*
X152032425Y-84922223D01*
X152008600Y-84929450D01*
X151986644Y-84941186D01*
X151967398Y-84956980D01*
X151951604Y-84976226D01*
X151939868Y-84998182D01*
X151932641Y-85022007D01*
X151930201Y-85046783D01*
X151930201Y-85554781D01*
X151932065Y-85576462D01*
X151938700Y-85600459D01*
X151949888Y-85622699D01*
X151965200Y-85642330D01*
X151984048Y-85658596D01*
X152005707Y-85670873D01*
X152029345Y-85678688D01*
X152054053Y-85681742D01*
X152089365Y-85682618D01*
X152118812Y-85684933D01*
X152145418Y-85688632D01*
X152169191Y-85693557D01*
X152190158Y-85699528D01*
X152208412Y-85706352D01*
X152224143Y-85713860D01*
X152231661Y-85718360D01*
X152021385Y-85718360D01*
X149809203Y-83506179D01*
X149809203Y-82653284D01*
X149812274Y-82622103D01*
X149809203Y-82590922D01*
X149809203Y-82590912D01*
X149800015Y-82497622D01*
X149763705Y-82377924D01*
X149704740Y-82267610D01*
X149625388Y-82170919D01*
X149601158Y-82151034D01*
X148938173Y-81488050D01*
X148918284Y-81463815D01*
X148821593Y-81384463D01*
X148711279Y-81325498D01*
X148591581Y-81289188D01*
X148498291Y-81280000D01*
X148498280Y-81280000D01*
X148467099Y-81276929D01*
X148435918Y-81280000D01*
X140725025Y-81280000D01*
X139917074Y-80472050D01*
X139897185Y-80447815D01*
X139800494Y-80368463D01*
X139690180Y-80309498D01*
X139570482Y-80273188D01*
X139477192Y-80264000D01*
X139477181Y-80264000D01*
X139446000Y-80260929D01*
X139414819Y-80264000D01*
X138922421Y-80264000D01*
X138903258Y-80251196D01*
X138770225Y-80196092D01*
X138628997Y-80168000D01*
X138485003Y-80168000D01*
X138343775Y-80196092D01*
X138210742Y-80251196D01*
X138091015Y-80331195D01*
X137989195Y-80433015D01*
X137909196Y-80552742D01*
X137854092Y-80685775D01*
X137849596Y-80708380D01*
X136977000Y-81580976D01*
X136977000Y-80922772D01*
X136837617Y-80222043D01*
X136564206Y-79561971D01*
X136167275Y-78967922D01*
X135662078Y-78462725D01*
X135068029Y-78065794D01*
X134856076Y-77978000D01*
X152163924Y-77978000D01*
X151951971Y-78065794D01*
D27*
G36*
X131686522Y-86378700D02*
G01*
X131689078Y-86471021D01*
X131689144Y-86472011D01*
X131699662Y-86571074D01*
X131699812Y-86572093D01*
X131718029Y-86668438D01*
X131718268Y-86669466D01*
X131744184Y-86763094D01*
X131744512Y-86764111D01*
X131778128Y-86855021D01*
X131778539Y-86856004D01*
X131819854Y-86944196D01*
X131820338Y-86945126D01*
X131869353Y-87030601D01*
X131869894Y-87031462D01*
X131926608Y-87114219D01*
X131927190Y-87115002D01*
X131991604Y-87195041D01*
X131992210Y-87195741D01*
X132055958Y-87264094D01*
X131714094Y-87605958D01*
X131645741Y-87542210D01*
X131645041Y-87541604D01*
X131565002Y-87477190D01*
X131564219Y-87476608D01*
X131481462Y-87419894D01*
X131480601Y-87419353D01*
X131395126Y-87370338D01*
X131394196Y-87369854D01*
X131306004Y-87328539D01*
X131305021Y-87328128D01*
X131214111Y-87294512D01*
X131213094Y-87294184D01*
X131119466Y-87268268D01*
X131118438Y-87268029D01*
X131022093Y-87249812D01*
X131021074Y-87249662D01*
X130922011Y-87239144D01*
X130921021Y-87239078D01*
X130828700Y-87236522D01*
X130513671Y-86063671D01*
X131686522Y-86378700D01*
G37*
X131686522Y-86378700D02*
X131689078Y-86471021D01*
X131689144Y-86472011D01*
X131699662Y-86571074D01*
X131699812Y-86572093D01*
X131718029Y-86668438D01*
X131718268Y-86669466D01*
X131744184Y-86763094D01*
X131744512Y-86764111D01*
X131778128Y-86855021D01*
X131778539Y-86856004D01*
X131819854Y-86944196D01*
X131820338Y-86945126D01*
X131869353Y-87030601D01*
X131869894Y-87031462D01*
X131926608Y-87114219D01*
X131927190Y-87115002D01*
X131991604Y-87195041D01*
X131992210Y-87195741D01*
X132055958Y-87264094D01*
X131714094Y-87605958D01*
X131645741Y-87542210D01*
X131645041Y-87541604D01*
X131565002Y-87477190D01*
X131564219Y-87476608D01*
X131481462Y-87419894D01*
X131480601Y-87419353D01*
X131395126Y-87370338D01*
X131394196Y-87369854D01*
X131306004Y-87328539D01*
X131305021Y-87328128D01*
X131214111Y-87294512D01*
X131213094Y-87294184D01*
X131119466Y-87268268D01*
X131118438Y-87268029D01*
X131022093Y-87249812D01*
X131021074Y-87249662D01*
X130922011Y-87239144D01*
X130921021Y-87239078D01*
X130828700Y-87236522D01*
X130513671Y-86063671D01*
X131686522Y-86378700D01*
G36*
X132576285Y-94131009D02*
G01*
X132576320Y-94131690D01*
X132579195Y-94168319D01*
X132579277Y-94169072D01*
X132584073Y-94203605D01*
X132584216Y-94204433D01*
X132590933Y-94236872D01*
X132591154Y-94237774D01*
X132599791Y-94268117D01*
X132600110Y-94269086D01*
X132610667Y-94297334D01*
X132611101Y-94298357D01*
X132623580Y-94324510D01*
X132624144Y-94325563D01*
X132638542Y-94349621D01*
X132639246Y-94350674D01*
X132655566Y-94372636D01*
X132656405Y-94373650D01*
X132668345Y-94386656D01*
X132334000Y-94966574D01*
X131999655Y-94386656D01*
X132011595Y-94373650D01*
X132012433Y-94372636D01*
X132028754Y-94350674D01*
X132029458Y-94349622D01*
X132043860Y-94325564D01*
X132044425Y-94324511D01*
X132056907Y-94298358D01*
X132057341Y-94297336D01*
X132067903Y-94269088D01*
X132068221Y-94268119D01*
X132076864Y-94237776D01*
X132077086Y-94236875D01*
X132083810Y-94204436D01*
X132083953Y-94203608D01*
X132088757Y-94169075D01*
X132088839Y-94168322D01*
X132091724Y-94131693D01*
X132091759Y-94131013D01*
X132092416Y-94104673D01*
X132575636Y-94104673D01*
X132576285Y-94131009D01*
G37*
X132576285Y-94131009D02*
X132576320Y-94131690D01*
X132579195Y-94168319D01*
X132579277Y-94169072D01*
X132584073Y-94203605D01*
X132584216Y-94204433D01*
X132590933Y-94236872D01*
X132591154Y-94237774D01*
X132599791Y-94268117D01*
X132600110Y-94269086D01*
X132610667Y-94297334D01*
X132611101Y-94298357D01*
X132623580Y-94324510D01*
X132624144Y-94325563D01*
X132638542Y-94349621D01*
X132639246Y-94350674D01*
X132655566Y-94372636D01*
X132656405Y-94373650D01*
X132668345Y-94386656D01*
X132334000Y-94966574D01*
X131999655Y-94386656D01*
X132011595Y-94373650D01*
X132012433Y-94372636D01*
X132028754Y-94350674D01*
X132029458Y-94349622D01*
X132043860Y-94325564D01*
X132044425Y-94324511D01*
X132056907Y-94298358D01*
X132057341Y-94297336D01*
X132067903Y-94269088D01*
X132068221Y-94268119D01*
X132076864Y-94237776D01*
X132077086Y-94236875D01*
X132083810Y-94204436D01*
X132083953Y-94203608D01*
X132088757Y-94169075D01*
X132088839Y-94168322D01*
X132091724Y-94131693D01*
X132091759Y-94131013D01*
X132092416Y-94104673D01*
X132575636Y-94104673D01*
X132576285Y-94131009D01*
G36*
X132903498Y-105798446D02*
G01*
X132904004Y-105798902D01*
X132931937Y-105822763D01*
X132932528Y-105823238D01*
X132960338Y-105844259D01*
X132961024Y-105844743D01*
X132988711Y-105862927D01*
X132989506Y-105863408D01*
X133017069Y-105878752D01*
X133017979Y-105879212D01*
X133045419Y-105891718D01*
X133046449Y-105892135D01*
X133073765Y-105901801D01*
X133074909Y-105902146D01*
X133102102Y-105908975D01*
X133103343Y-105909221D01*
X133130412Y-105913210D01*
X133131722Y-105913334D01*
X133149361Y-105914087D01*
X133323007Y-106560568D01*
X132676526Y-106386922D01*
X132675773Y-106369283D01*
X132675649Y-106367973D01*
X132671660Y-106340904D01*
X132671414Y-106339663D01*
X132664585Y-106312470D01*
X132664240Y-106311326D01*
X132654574Y-106284010D01*
X132654157Y-106282980D01*
X132641651Y-106255540D01*
X132641191Y-106254630D01*
X132625847Y-106227067D01*
X132625366Y-106226272D01*
X132607182Y-106198585D01*
X132606698Y-106197899D01*
X132585677Y-106170089D01*
X132585202Y-106169498D01*
X132561341Y-106141565D01*
X132560885Y-106141059D01*
X132542726Y-106121977D01*
X132884416Y-105780287D01*
X132903498Y-105798446D01*
G37*
X132903498Y-105798446D02*
X132904004Y-105798902D01*
X132931937Y-105822763D01*
X132932528Y-105823238D01*
X132960338Y-105844259D01*
X132961024Y-105844743D01*
X132988711Y-105862927D01*
X132989506Y-105863408D01*
X133017069Y-105878752D01*
X133017979Y-105879212D01*
X133045419Y-105891718D01*
X133046449Y-105892135D01*
X133073765Y-105901801D01*
X133074909Y-105902146D01*
X133102102Y-105908975D01*
X133103343Y-105909221D01*
X133130412Y-105913210D01*
X133131722Y-105913334D01*
X133149361Y-105914087D01*
X133323007Y-106560568D01*
X132676526Y-106386922D01*
X132675773Y-106369283D01*
X132675649Y-106367973D01*
X132671660Y-106340904D01*
X132671414Y-106339663D01*
X132664585Y-106312470D01*
X132664240Y-106311326D01*
X132654574Y-106284010D01*
X132654157Y-106282980D01*
X132641651Y-106255540D01*
X132641191Y-106254630D01*
X132625847Y-106227067D01*
X132625366Y-106226272D01*
X132607182Y-106198585D01*
X132606698Y-106197899D01*
X132585677Y-106170089D01*
X132585202Y-106169498D01*
X132561341Y-106141565D01*
X132560885Y-106141059D01*
X132542726Y-106121977D01*
X132884416Y-105780287D01*
X132903498Y-105798446D01*
G36*
X132668349Y-100050344D02*
G01*
X132656408Y-100063349D01*
X132655570Y-100064363D01*
X132639250Y-100086324D01*
X132638546Y-100087376D01*
X132624146Y-100111433D01*
X132623581Y-100112486D01*
X132611101Y-100138637D01*
X132610667Y-100139660D01*
X132600107Y-100167905D01*
X132599789Y-100168874D01*
X132591149Y-100199214D01*
X132590927Y-100200115D01*
X132584207Y-100232550D01*
X132584064Y-100233378D01*
X132579264Y-100267907D01*
X132579182Y-100268660D01*
X132576302Y-100305284D01*
X132576267Y-100305965D01*
X132575614Y-100332299D01*
X132092394Y-100332299D01*
X132091740Y-100305965D01*
X132091705Y-100305284D01*
X132088825Y-100268660D01*
X132088743Y-100267907D01*
X132083943Y-100233378D01*
X132083800Y-100232550D01*
X132077080Y-100200115D01*
X132076858Y-100199214D01*
X132068218Y-100168874D01*
X132067900Y-100167905D01*
X132057340Y-100139660D01*
X132056906Y-100138637D01*
X132044426Y-100112486D01*
X132043861Y-100111433D01*
X132029461Y-100087376D01*
X132028757Y-100086324D01*
X132012437Y-100064363D01*
X132011599Y-100063349D01*
X131999659Y-100050344D01*
X132334004Y-99470426D01*
X132668349Y-100050344D01*
G37*
X132668349Y-100050344D02*
X132656408Y-100063349D01*
X132655570Y-100064363D01*
X132639250Y-100086324D01*
X132638546Y-100087376D01*
X132624146Y-100111433D01*
X132623581Y-100112486D01*
X132611101Y-100138637D01*
X132610667Y-100139660D01*
X132600107Y-100167905D01*
X132599789Y-100168874D01*
X132591149Y-100199214D01*
X132590927Y-100200115D01*
X132584207Y-100232550D01*
X132584064Y-100233378D01*
X132579264Y-100267907D01*
X132579182Y-100268660D01*
X132576302Y-100305284D01*
X132576267Y-100305965D01*
X132575614Y-100332299D01*
X132092394Y-100332299D01*
X132091740Y-100305965D01*
X132091705Y-100305284D01*
X132088825Y-100268660D01*
X132088743Y-100267907D01*
X132083943Y-100233378D01*
X132083800Y-100232550D01*
X132077080Y-100200115D01*
X132076858Y-100199214D01*
X132068218Y-100168874D01*
X132067900Y-100167905D01*
X132057340Y-100139660D01*
X132056906Y-100138637D01*
X132044426Y-100112486D01*
X132043861Y-100111433D01*
X132029461Y-100087376D01*
X132028757Y-100086324D01*
X132012437Y-100064363D01*
X132011599Y-100063349D01*
X131999659Y-100050344D01*
X132334004Y-99470426D01*
X132668349Y-100050344D01*
G36*
X133532559Y-106079366D02*
G01*
X133533573Y-106080204D01*
X133555534Y-106096524D01*
X133556586Y-106097228D01*
X133580643Y-106111628D01*
X133581696Y-106112193D01*
X133607847Y-106124673D01*
X133608870Y-106125107D01*
X133637115Y-106135667D01*
X133638084Y-106135985D01*
X133668424Y-106144625D01*
X133669325Y-106144847D01*
X133701760Y-106151567D01*
X133702588Y-106151710D01*
X133737117Y-106156510D01*
X133737870Y-106156592D01*
X133774494Y-106159472D01*
X133775175Y-106159507D01*
X133801509Y-106160161D01*
X133801509Y-106643381D01*
X133775175Y-106644034D01*
X133774494Y-106644069D01*
X133737870Y-106646949D01*
X133737117Y-106647031D01*
X133702588Y-106651831D01*
X133701760Y-106651974D01*
X133669325Y-106658694D01*
X133668424Y-106658916D01*
X133638084Y-106667556D01*
X133637115Y-106667874D01*
X133608870Y-106678434D01*
X133607847Y-106678868D01*
X133581696Y-106691348D01*
X133580643Y-106691913D01*
X133556586Y-106706313D01*
X133555534Y-106707017D01*
X133533573Y-106723337D01*
X133532559Y-106724175D01*
X133519554Y-106736116D01*
X132939636Y-106401771D01*
X133519554Y-106067426D01*
X133532559Y-106079366D01*
G37*
X133532559Y-106079366D02*
X133533573Y-106080204D01*
X133555534Y-106096524D01*
X133556586Y-106097228D01*
X133580643Y-106111628D01*
X133581696Y-106112193D01*
X133607847Y-106124673D01*
X133608870Y-106125107D01*
X133637115Y-106135667D01*
X133638084Y-106135985D01*
X133668424Y-106144625D01*
X133669325Y-106144847D01*
X133701760Y-106151567D01*
X133702588Y-106151710D01*
X133737117Y-106156510D01*
X133737870Y-106156592D01*
X133774494Y-106159472D01*
X133775175Y-106159507D01*
X133801509Y-106160161D01*
X133801509Y-106643381D01*
X133775175Y-106644034D01*
X133774494Y-106644069D01*
X133737870Y-106646949D01*
X133737117Y-106647031D01*
X133702588Y-106651831D01*
X133701760Y-106651974D01*
X133669325Y-106658694D01*
X133668424Y-106658916D01*
X133638084Y-106667556D01*
X133637115Y-106667874D01*
X133608870Y-106678434D01*
X133607847Y-106678868D01*
X133581696Y-106691348D01*
X133580643Y-106691913D01*
X133556586Y-106706313D01*
X133555534Y-106707017D01*
X133533573Y-106723337D01*
X133532559Y-106724175D01*
X133519554Y-106736116D01*
X132939636Y-106401771D01*
X133519554Y-106067426D01*
X133532559Y-106079366D01*
G36*
X139840294Y-102668558D02*
G01*
X139840381Y-102668770D01*
X139864851Y-102726984D01*
X139864957Y-102727228D01*
X139888807Y-102780807D01*
X139888936Y-102781087D01*
X139912166Y-102830032D01*
X139912327Y-102830359D01*
X139934937Y-102874669D01*
X139935141Y-102875053D01*
X139957131Y-102914729D01*
X139957396Y-102915186D01*
X139978766Y-102950226D01*
X139979119Y-102950772D01*
X139999869Y-102981179D01*
X140000350Y-102981838D01*
X140020480Y-103007609D01*
X140021157Y-103008405D01*
X140034332Y-103022679D01*
X139700000Y-103602574D01*
X139365339Y-103022109D01*
X139376873Y-103007742D01*
X139378395Y-103005337D01*
X139390905Y-102979566D01*
X139391757Y-102977270D01*
X139399807Y-102946863D01*
X139400164Y-102944907D01*
X139403754Y-102909867D01*
X139403817Y-102908295D01*
X139402947Y-102868619D01*
X139402859Y-102867380D01*
X139397529Y-102823070D01*
X139397373Y-102822096D01*
X139387583Y-102773151D01*
X139387403Y-102772378D01*
X139373153Y-102718799D01*
X139372971Y-102718177D01*
X139354261Y-102659963D01*
X139354086Y-102659456D01*
X139337218Y-102613701D01*
X139818394Y-102613701D01*
X139840294Y-102668558D01*
G37*
X139840294Y-102668558D02*
X139840381Y-102668770D01*
X139864851Y-102726984D01*
X139864957Y-102727228D01*
X139888807Y-102780807D01*
X139888936Y-102781087D01*
X139912166Y-102830032D01*
X139912327Y-102830359D01*
X139934937Y-102874669D01*
X139935141Y-102875053D01*
X139957131Y-102914729D01*
X139957396Y-102915186D01*
X139978766Y-102950226D01*
X139979119Y-102950772D01*
X139999869Y-102981179D01*
X140000350Y-102981838D01*
X140020480Y-103007609D01*
X140021157Y-103008405D01*
X140034332Y-103022679D01*
X139700000Y-103602574D01*
X139365339Y-103022109D01*
X139376873Y-103007742D01*
X139378395Y-103005337D01*
X139390905Y-102979566D01*
X139391757Y-102977270D01*
X139399807Y-102946863D01*
X139400164Y-102944907D01*
X139403754Y-102909867D01*
X139403817Y-102908295D01*
X139402947Y-102868619D01*
X139402859Y-102867380D01*
X139397529Y-102823070D01*
X139397373Y-102822096D01*
X139387583Y-102773151D01*
X139387403Y-102772378D01*
X139373153Y-102718799D01*
X139372971Y-102718177D01*
X139354261Y-102659963D01*
X139354086Y-102659456D01*
X139337218Y-102613701D01*
X139818394Y-102613701D01*
X139840294Y-102668558D01*
G36*
X152931774Y-85300782D02*
G01*
X152351856Y-85635127D01*
X152338850Y-85623186D01*
X152337836Y-85622348D01*
X152315875Y-85606028D01*
X152314823Y-85605324D01*
X152290766Y-85590924D01*
X152289713Y-85590359D01*
X152263563Y-85577879D01*
X152262540Y-85577445D01*
X152234294Y-85566885D01*
X152233325Y-85566567D01*
X152202985Y-85557927D01*
X152202084Y-85557705D01*
X152169649Y-85550985D01*
X152168821Y-85550842D01*
X152134292Y-85546042D01*
X152133539Y-85545960D01*
X152096915Y-85543080D01*
X152096234Y-85543045D01*
X152069901Y-85542392D01*
X152069901Y-85059172D01*
X152096234Y-85058518D01*
X152096915Y-85058483D01*
X152133539Y-85055603D01*
X152134292Y-85055521D01*
X152168821Y-85050721D01*
X152169649Y-85050578D01*
X152202084Y-85043858D01*
X152202985Y-85043636D01*
X152233325Y-85034996D01*
X152234294Y-85034678D01*
X152262540Y-85024118D01*
X152263563Y-85023684D01*
X152289713Y-85011204D01*
X152290766Y-85010639D01*
X152314823Y-84996239D01*
X152315875Y-84995535D01*
X152337836Y-84979215D01*
X152338850Y-84978377D01*
X152351856Y-84966437D01*
X152931774Y-85300782D01*
G37*
X152931774Y-85300782D02*
X152351856Y-85635127D01*
X152338850Y-85623186D01*
X152337836Y-85622348D01*
X152315875Y-85606028D01*
X152314823Y-85605324D01*
X152290766Y-85590924D01*
X152289713Y-85590359D01*
X152263563Y-85577879D01*
X152262540Y-85577445D01*
X152234294Y-85566885D01*
X152233325Y-85566567D01*
X152202985Y-85557927D01*
X152202084Y-85557705D01*
X152169649Y-85550985D01*
X152168821Y-85550842D01*
X152134292Y-85546042D01*
X152133539Y-85545960D01*
X152096915Y-85543080D01*
X152096234Y-85543045D01*
X152069901Y-85542392D01*
X152069901Y-85059172D01*
X152096234Y-85058518D01*
X152096915Y-85058483D01*
X152133539Y-85055603D01*
X152134292Y-85055521D01*
X152168821Y-85050721D01*
X152169649Y-85050578D01*
X152202084Y-85043858D01*
X152202985Y-85043636D01*
X152233325Y-85034996D01*
X152234294Y-85034678D01*
X152262540Y-85024118D01*
X152263563Y-85023684D01*
X152289713Y-85011204D01*
X152290766Y-85010639D01*
X152314823Y-84996239D01*
X152315875Y-84995535D01*
X152337836Y-84979215D01*
X152338850Y-84978377D01*
X152351856Y-84966437D01*
X152931774Y-85300782D01*
G36*
X133684345Y-99034344D02*
G01*
X133672404Y-99047349D01*
X133671566Y-99048363D01*
X133655246Y-99070324D01*
X133654542Y-99071376D01*
X133640142Y-99095433D01*
X133639577Y-99096486D01*
X133627097Y-99122637D01*
X133626663Y-99123660D01*
X133616103Y-99151905D01*
X133615785Y-99152874D01*
X133607145Y-99183214D01*
X133606923Y-99184115D01*
X133600203Y-99216550D01*
X133600060Y-99217378D01*
X133595260Y-99251907D01*
X133595178Y-99252660D01*
X133592298Y-99289284D01*
X133592263Y-99289965D01*
X133591610Y-99316299D01*
X133108390Y-99316299D01*
X133107736Y-99289965D01*
X133107701Y-99289284D01*
X133104821Y-99252660D01*
X133104739Y-99251907D01*
X133099939Y-99217378D01*
X133099796Y-99216550D01*
X133093076Y-99184115D01*
X133092854Y-99183214D01*
X133084214Y-99152874D01*
X133083896Y-99151905D01*
X133073336Y-99123660D01*
X133072902Y-99122637D01*
X133060422Y-99096486D01*
X133059857Y-99095433D01*
X133045457Y-99071376D01*
X133044753Y-99070324D01*
X133028433Y-99048363D01*
X133027595Y-99047349D01*
X133015655Y-99034344D01*
X133350000Y-98454426D01*
X133684345Y-99034344D01*
G37*
X133684345Y-99034344D02*
X133672404Y-99047349D01*
X133671566Y-99048363D01*
X133655246Y-99070324D01*
X133654542Y-99071376D01*
X133640142Y-99095433D01*
X133639577Y-99096486D01*
X133627097Y-99122637D01*
X133626663Y-99123660D01*
X133616103Y-99151905D01*
X133615785Y-99152874D01*
X133607145Y-99183214D01*
X133606923Y-99184115D01*
X133600203Y-99216550D01*
X133600060Y-99217378D01*
X133595260Y-99251907D01*
X133595178Y-99252660D01*
X133592298Y-99289284D01*
X133592263Y-99289965D01*
X133591610Y-99316299D01*
X133108390Y-99316299D01*
X133107736Y-99289965D01*
X133107701Y-99289284D01*
X133104821Y-99252660D01*
X133104739Y-99251907D01*
X133099939Y-99217378D01*
X133099796Y-99216550D01*
X133093076Y-99184115D01*
X133092854Y-99183214D01*
X133084214Y-99152874D01*
X133083896Y-99151905D01*
X133073336Y-99123660D01*
X133072902Y-99122637D01*
X133060422Y-99096486D01*
X133059857Y-99095433D01*
X133045457Y-99071376D01*
X133044753Y-99070324D01*
X133028433Y-99048363D01*
X133027595Y-99047349D01*
X133015655Y-99034344D01*
X133350000Y-98454426D01*
X133684345Y-99034344D01*
G36*
X136196794Y-103870760D02*
G01*
X135374176Y-104345030D01*
X135333820Y-104306846D01*
X135333066Y-104306187D01*
X135283909Y-104266524D01*
X135283061Y-104265896D01*
X135231975Y-104231258D01*
X135231041Y-104230683D01*
X135178028Y-104201070D01*
X135177023Y-104200565D01*
X135122082Y-104175977D01*
X135121025Y-104175560D01*
X135064155Y-104155996D01*
X135063072Y-104155676D01*
X135004275Y-104141138D01*
X135003193Y-104140920D01*
X134942467Y-104131406D01*
X134941409Y-104131285D01*
X134878756Y-104126796D01*
X134877743Y-104126764D01*
X134825967Y-104127194D01*
X134825967Y-103643708D01*
X134878878Y-103639402D01*
X134879785Y-103639295D01*
X134942438Y-103629624D01*
X134943371Y-103629445D01*
X135004097Y-103615360D01*
X135005039Y-103615102D01*
X135063836Y-103596601D01*
X135064771Y-103596267D01*
X135121641Y-103573350D01*
X135122551Y-103572941D01*
X135177492Y-103545610D01*
X135178360Y-103545135D01*
X135231373Y-103513388D01*
X135232186Y-103512858D01*
X135283272Y-103476696D01*
X135284019Y-103476124D01*
X135333176Y-103435547D01*
X135333851Y-103434948D01*
X135374205Y-103396506D01*
X136196794Y-103870760D01*
G37*
X136196794Y-103870760D02*
X135374176Y-104345030D01*
X135333820Y-104306846D01*
X135333066Y-104306187D01*
X135283909Y-104266524D01*
X135283061Y-104265896D01*
X135231975Y-104231258D01*
X135231041Y-104230683D01*
X135178028Y-104201070D01*
X135177023Y-104200565D01*
X135122082Y-104175977D01*
X135121025Y-104175560D01*
X135064155Y-104155996D01*
X135063072Y-104155676D01*
X135004275Y-104141138D01*
X135003193Y-104140920D01*
X134942467Y-104131406D01*
X134941409Y-104131285D01*
X134878756Y-104126796D01*
X134877743Y-104126764D01*
X134825967Y-104127194D01*
X134825967Y-103643708D01*
X134878878Y-103639402D01*
X134879785Y-103639295D01*
X134942438Y-103629624D01*
X134943371Y-103629445D01*
X135004097Y-103615360D01*
X135005039Y-103615102D01*
X135063836Y-103596601D01*
X135064771Y-103596267D01*
X135121641Y-103573350D01*
X135122551Y-103572941D01*
X135177492Y-103545610D01*
X135178360Y-103545135D01*
X135231373Y-103513388D01*
X135232186Y-103512858D01*
X135283272Y-103476696D01*
X135284019Y-103476124D01*
X135333176Y-103435547D01*
X135333851Y-103434948D01*
X135374205Y-103396506D01*
X136196794Y-103870760D01*
G36*
X150861143Y-78846723D02*
G01*
X150843460Y-78847554D01*
X150842047Y-78847700D01*
X150814978Y-78852037D01*
X150813649Y-78852324D01*
X150786456Y-78859732D01*
X150785246Y-78860127D01*
X150757930Y-78870605D01*
X150756855Y-78871076D01*
X150729415Y-78884625D01*
X150728480Y-78885136D01*
X150700917Y-78901756D01*
X150700115Y-78902282D01*
X150672428Y-78921972D01*
X150671745Y-78922494D01*
X150643935Y-78945254D01*
X150643355Y-78945758D01*
X150615422Y-78971590D01*
X150614933Y-78972068D01*
X150595854Y-78991722D01*
X150254194Y-78650062D01*
X150273000Y-78628748D01*
X150273404Y-78628267D01*
X150297265Y-78598363D01*
X150297687Y-78597804D01*
X150318708Y-78568255D01*
X150319139Y-78567607D01*
X150337323Y-78538413D01*
X150337755Y-78537664D01*
X150353099Y-78508826D01*
X150353515Y-78507967D01*
X150366021Y-78479484D01*
X150366404Y-78478505D01*
X150376070Y-78450377D01*
X150376392Y-78449283D01*
X150383221Y-78421511D01*
X150383456Y-78420307D01*
X150387445Y-78392890D01*
X150387566Y-78391601D01*
X150388321Y-78373848D01*
X151034799Y-78200203D01*
X150861143Y-78846723D01*
G37*
X150861143Y-78846723D02*
X150843460Y-78847554D01*
X150842047Y-78847700D01*
X150814978Y-78852037D01*
X150813649Y-78852324D01*
X150786456Y-78859732D01*
X150785246Y-78860127D01*
X150757930Y-78870605D01*
X150756855Y-78871076D01*
X150729415Y-78884625D01*
X150728480Y-78885136D01*
X150700917Y-78901756D01*
X150700115Y-78902282D01*
X150672428Y-78921972D01*
X150671745Y-78922494D01*
X150643935Y-78945254D01*
X150643355Y-78945758D01*
X150615422Y-78971590D01*
X150614933Y-78972068D01*
X150595854Y-78991722D01*
X150254194Y-78650062D01*
X150273000Y-78628748D01*
X150273404Y-78628267D01*
X150297265Y-78598363D01*
X150297687Y-78597804D01*
X150318708Y-78568255D01*
X150319139Y-78567607D01*
X150337323Y-78538413D01*
X150337755Y-78537664D01*
X150353099Y-78508826D01*
X150353515Y-78507967D01*
X150366021Y-78479484D01*
X150366404Y-78478505D01*
X150376070Y-78450377D01*
X150376392Y-78449283D01*
X150383221Y-78421511D01*
X150383456Y-78420307D01*
X150387445Y-78392890D01*
X150387566Y-78391601D01*
X150388321Y-78373848D01*
X151034799Y-78200203D01*
X150861143Y-78846723D01*
G36*
X156629074Y-86360000D02*
G01*
X155576982Y-86966572D01*
X155509893Y-86903097D01*
X155509147Y-86902444D01*
X155431661Y-86839833D01*
X155430835Y-86839219D01*
X155349828Y-86783974D01*
X155348931Y-86783415D01*
X155264400Y-86735536D01*
X155263449Y-86735050D01*
X155175396Y-86694537D01*
X155174410Y-86694132D01*
X155082834Y-86660985D01*
X155081835Y-86660669D01*
X154986737Y-86634888D01*
X154985745Y-86634662D01*
X154887123Y-86616247D01*
X154886158Y-86616105D01*
X154784015Y-86605056D01*
X154783091Y-86604990D01*
X154689683Y-86601735D01*
X154689683Y-86118265D01*
X154783091Y-86115009D01*
X154784015Y-86114943D01*
X154886158Y-86103894D01*
X154887123Y-86103752D01*
X154985745Y-86085337D01*
X154986737Y-86085111D01*
X155081835Y-86059330D01*
X155082834Y-86059014D01*
X155174410Y-86025867D01*
X155175396Y-86025462D01*
X155263449Y-85984949D01*
X155264400Y-85984463D01*
X155348931Y-85936584D01*
X155349828Y-85936025D01*
X155430835Y-85880780D01*
X155431661Y-85880166D01*
X155509147Y-85817555D01*
X155509893Y-85816902D01*
X155576982Y-85753428D01*
X156629074Y-86360000D01*
G37*
X156629074Y-86360000D02*
X155576982Y-86966572D01*
X155509893Y-86903097D01*
X155509147Y-86902444D01*
X155431661Y-86839833D01*
X155430835Y-86839219D01*
X155349828Y-86783974D01*
X155348931Y-86783415D01*
X155264400Y-86735536D01*
X155263449Y-86735050D01*
X155175396Y-86694537D01*
X155174410Y-86694132D01*
X155082834Y-86660985D01*
X155081835Y-86660669D01*
X154986737Y-86634888D01*
X154985745Y-86634662D01*
X154887123Y-86616247D01*
X154886158Y-86616105D01*
X154784015Y-86605056D01*
X154783091Y-86604990D01*
X154689683Y-86601735D01*
X154689683Y-86118265D01*
X154783091Y-86115009D01*
X154784015Y-86114943D01*
X154886158Y-86103894D01*
X154887123Y-86103752D01*
X154985745Y-86085337D01*
X154986737Y-86085111D01*
X155081835Y-86059330D01*
X155082834Y-86059014D01*
X155174410Y-86025867D01*
X155175396Y-86025462D01*
X155263449Y-85984949D01*
X155264400Y-85984463D01*
X155348931Y-85936584D01*
X155349828Y-85936025D01*
X155430835Y-85880780D01*
X155431661Y-85880166D01*
X155509147Y-85817555D01*
X155509893Y-85816902D01*
X155576982Y-85753428D01*
X156629074Y-86360000D01*
G36*
X136104003Y-86821579D02*
G01*
X136100595Y-86821870D01*
X136098576Y-86822208D01*
X136085146Y-86825589D01*
X136083613Y-86826080D01*
X136069032Y-86831793D01*
X136067882Y-86832311D01*
X136052152Y-86840356D01*
X136051283Y-86840844D01*
X136034403Y-86851222D01*
X136033738Y-86851661D01*
X136015708Y-86864370D01*
X136015187Y-86864757D01*
X135996008Y-86879799D01*
X135995595Y-86880137D01*
X135975265Y-86897511D01*
X135974930Y-86897808D01*
X135953451Y-86917514D01*
X135953176Y-86917774D01*
X135939526Y-86931068D01*
X135669882Y-86661424D01*
X135683176Y-86647772D01*
X135683435Y-86647498D01*
X135703141Y-86626019D01*
X135703438Y-86625684D01*
X135720812Y-86605354D01*
X135721150Y-86604941D01*
X135736192Y-86585762D01*
X135736579Y-86585241D01*
X135749288Y-86567211D01*
X135749727Y-86566546D01*
X135760105Y-86549666D01*
X135760593Y-86548797D01*
X135768638Y-86533067D01*
X135769156Y-86531917D01*
X135774869Y-86517336D01*
X135775360Y-86515803D01*
X135778741Y-86502373D01*
X135779079Y-86500355D01*
X135779370Y-86496948D01*
X136223221Y-86377729D01*
X136104003Y-86821579D01*
G37*
X136104003Y-86821579D02*
X136100595Y-86821870D01*
X136098576Y-86822208D01*
X136085146Y-86825589D01*
X136083613Y-86826080D01*
X136069032Y-86831793D01*
X136067882Y-86832311D01*
X136052152Y-86840356D01*
X136051283Y-86840844D01*
X136034403Y-86851222D01*
X136033738Y-86851661D01*
X136015708Y-86864370D01*
X136015187Y-86864757D01*
X135996008Y-86879799D01*
X135995595Y-86880137D01*
X135975265Y-86897511D01*
X135974930Y-86897808D01*
X135953451Y-86917514D01*
X135953176Y-86917774D01*
X135939526Y-86931068D01*
X135669882Y-86661424D01*
X135683176Y-86647772D01*
X135683435Y-86647498D01*
X135703141Y-86626019D01*
X135703438Y-86625684D01*
X135720812Y-86605354D01*
X135721150Y-86604941D01*
X135736192Y-86585762D01*
X135736579Y-86585241D01*
X135749288Y-86567211D01*
X135749727Y-86566546D01*
X135760105Y-86549666D01*
X135760593Y-86548797D01*
X135768638Y-86533067D01*
X135769156Y-86531917D01*
X135774869Y-86517336D01*
X135775360Y-86515803D01*
X135778741Y-86502373D01*
X135779079Y-86500355D01*
X135779370Y-86496948D01*
X136223221Y-86377729D01*
X136104003Y-86821579D01*
G36*
X135247062Y-90579755D02*
G01*
X135247142Y-90579914D01*
X135293774Y-90671606D01*
X135293869Y-90671789D01*
X135338470Y-90756080D01*
X135338584Y-90756291D01*
X135381152Y-90833179D01*
X135381293Y-90833427D01*
X135421829Y-90902915D01*
X135422006Y-90903210D01*
X135460510Y-90965295D01*
X135460737Y-90965648D01*
X135497209Y-91020333D01*
X135497510Y-91020763D01*
X135531950Y-91068045D01*
X135532359Y-91068577D01*
X135564767Y-91108458D01*
X135565347Y-91109124D01*
X135589300Y-91134735D01*
X135255000Y-91714574D01*
X134920281Y-91134007D01*
X134940410Y-91108274D01*
X134942036Y-91105553D01*
X134959540Y-91065672D01*
X134960357Y-91063095D01*
X134969957Y-91015813D01*
X134970205Y-91013680D01*
X134971901Y-90958995D01*
X134971844Y-90957337D01*
X134965636Y-90895252D01*
X134965445Y-90893988D01*
X134951333Y-90824500D01*
X134951096Y-90823532D01*
X134929080Y-90746644D01*
X134928839Y-90745892D01*
X134898918Y-90661601D01*
X134898690Y-90661006D01*
X134860866Y-90569314D01*
X134860657Y-90568836D01*
X134823245Y-90487764D01*
X135201886Y-90487764D01*
X135247062Y-90579755D01*
G37*
X135247062Y-90579755D02*
X135247142Y-90579914D01*
X135293774Y-90671606D01*
X135293869Y-90671789D01*
X135338470Y-90756080D01*
X135338584Y-90756291D01*
X135381152Y-90833179D01*
X135381293Y-90833427D01*
X135421829Y-90902915D01*
X135422006Y-90903210D01*
X135460510Y-90965295D01*
X135460737Y-90965648D01*
X135497209Y-91020333D01*
X135497510Y-91020763D01*
X135531950Y-91068045D01*
X135532359Y-91068577D01*
X135564767Y-91108458D01*
X135565347Y-91109124D01*
X135589300Y-91134735D01*
X135255000Y-91714574D01*
X134920281Y-91134007D01*
X134940410Y-91108274D01*
X134942036Y-91105553D01*
X134959540Y-91065672D01*
X134960357Y-91063095D01*
X134969957Y-91015813D01*
X134970205Y-91013680D01*
X134971901Y-90958995D01*
X134971844Y-90957337D01*
X134965636Y-90895252D01*
X134965445Y-90893988D01*
X134951333Y-90824500D01*
X134951096Y-90823532D01*
X134929080Y-90746644D01*
X134928839Y-90745892D01*
X134898918Y-90661601D01*
X134898690Y-90661006D01*
X134860866Y-90569314D01*
X134860657Y-90568836D01*
X134823245Y-90487764D01*
X135201886Y-90487764D01*
X135247062Y-90579755D01*
G36*
X151149510Y-86695527D02*
G01*
X151150207Y-86696131D01*
X151175931Y-86716848D01*
X151176712Y-86717429D01*
X151203296Y-86735670D01*
X151204156Y-86736211D01*
X151231602Y-86751975D01*
X151232530Y-86752458D01*
X151260838Y-86765747D01*
X151261821Y-86766159D01*
X151290989Y-86776971D01*
X151292006Y-86777300D01*
X151322036Y-86785636D01*
X151323066Y-86785876D01*
X151353958Y-86791736D01*
X151354979Y-86791887D01*
X151386731Y-86795271D01*
X151387724Y-86795338D01*
X151410881Y-86795983D01*
X151529956Y-87239297D01*
X151086642Y-87120222D01*
X151085997Y-87097065D01*
X151085930Y-87096072D01*
X151082546Y-87064320D01*
X151082395Y-87063299D01*
X151076535Y-87032407D01*
X151076295Y-87031377D01*
X151067959Y-87001347D01*
X151067630Y-87000330D01*
X151056818Y-86971162D01*
X151056406Y-86970179D01*
X151043117Y-86941871D01*
X151042634Y-86940943D01*
X151026870Y-86913497D01*
X151026329Y-86912637D01*
X151008088Y-86886053D01*
X151007507Y-86885272D01*
X150986790Y-86859548D01*
X150986186Y-86858851D01*
X150971361Y-86842959D01*
X151133618Y-86680702D01*
X151149510Y-86695527D01*
G37*
X151149510Y-86695527D02*
X151150207Y-86696131D01*
X151175931Y-86716848D01*
X151176712Y-86717429D01*
X151203296Y-86735670D01*
X151204156Y-86736211D01*
X151231602Y-86751975D01*
X151232530Y-86752458D01*
X151260838Y-86765747D01*
X151261821Y-86766159D01*
X151290989Y-86776971D01*
X151292006Y-86777300D01*
X151322036Y-86785636D01*
X151323066Y-86785876D01*
X151353958Y-86791736D01*
X151354979Y-86791887D01*
X151386731Y-86795271D01*
X151387724Y-86795338D01*
X151410881Y-86795983D01*
X151529956Y-87239297D01*
X151086642Y-87120222D01*
X151085997Y-87097065D01*
X151085930Y-87096072D01*
X151082546Y-87064320D01*
X151082395Y-87063299D01*
X151076535Y-87032407D01*
X151076295Y-87031377D01*
X151067959Y-87001347D01*
X151067630Y-87000330D01*
X151056818Y-86971162D01*
X151056406Y-86970179D01*
X151043117Y-86941871D01*
X151042634Y-86940943D01*
X151026870Y-86913497D01*
X151026329Y-86912637D01*
X151008088Y-86886053D01*
X151007507Y-86885272D01*
X150986790Y-86859548D01*
X150986186Y-86858851D01*
X150971361Y-86842959D01*
X151133618Y-86680702D01*
X151149510Y-86695527D01*
G36*
X136570288Y-86192919D02*
G01*
X136555463Y-86208811D01*
X136554858Y-86209508D01*
X136534141Y-86235232D01*
X136533560Y-86236013D01*
X136515319Y-86262597D01*
X136514778Y-86263457D01*
X136499014Y-86290903D01*
X136498531Y-86291831D01*
X136485242Y-86320139D01*
X136484830Y-86321122D01*
X136474018Y-86350290D01*
X136473689Y-86351307D01*
X136465353Y-86381337D01*
X136465113Y-86382367D01*
X136459253Y-86413259D01*
X136459102Y-86414280D01*
X136455718Y-86446032D01*
X136455651Y-86447025D01*
X136455007Y-86470182D01*
X136011693Y-86589257D01*
X136130768Y-86145943D01*
X136153924Y-86145298D01*
X136154917Y-86145231D01*
X136186669Y-86141847D01*
X136187690Y-86141696D01*
X136218582Y-86135836D01*
X136219612Y-86135596D01*
X136249642Y-86127260D01*
X136250659Y-86126931D01*
X136279828Y-86116119D01*
X136280811Y-86115707D01*
X136309118Y-86102418D01*
X136310046Y-86101935D01*
X136337492Y-86086171D01*
X136338352Y-86085630D01*
X136364936Y-86067389D01*
X136365717Y-86066808D01*
X136391441Y-86046091D01*
X136392138Y-86045487D01*
X136408031Y-86030662D01*
X136570288Y-86192919D01*
G37*
X136570288Y-86192919D02*
X136555463Y-86208811D01*
X136554858Y-86209508D01*
X136534141Y-86235232D01*
X136533560Y-86236013D01*
X136515319Y-86262597D01*
X136514778Y-86263457D01*
X136499014Y-86290903D01*
X136498531Y-86291831D01*
X136485242Y-86320139D01*
X136484830Y-86321122D01*
X136474018Y-86350290D01*
X136473689Y-86351307D01*
X136465353Y-86381337D01*
X136465113Y-86382367D01*
X136459253Y-86413259D01*
X136459102Y-86414280D01*
X136455718Y-86446032D01*
X136455651Y-86447025D01*
X136455007Y-86470182D01*
X136011693Y-86589257D01*
X136130768Y-86145943D01*
X136153924Y-86145298D01*
X136154917Y-86145231D01*
X136186669Y-86141847D01*
X136187690Y-86141696D01*
X136218582Y-86135836D01*
X136219612Y-86135596D01*
X136249642Y-86127260D01*
X136250659Y-86126931D01*
X136279828Y-86116119D01*
X136280811Y-86115707D01*
X136309118Y-86102418D01*
X136310046Y-86101935D01*
X136337492Y-86086171D01*
X136338352Y-86085630D01*
X136364936Y-86067389D01*
X136365717Y-86066808D01*
X136391441Y-86046091D01*
X136392138Y-86045487D01*
X136408031Y-86030662D01*
X136570288Y-86192919D01*
G36*
X144812319Y-86482769D02*
G01*
X144812384Y-86483690D01*
X144815924Y-86516528D01*
X144816065Y-86517491D01*
X144821965Y-86549187D01*
X144822191Y-86550177D01*
X144830451Y-86580732D01*
X144830766Y-86581731D01*
X144841386Y-86611143D01*
X144841789Y-86612129D01*
X144854769Y-86640400D01*
X144855256Y-86641352D01*
X144870596Y-86668481D01*
X144871154Y-86669379D01*
X144888854Y-86695366D01*
X144889470Y-86696195D01*
X144909530Y-86721041D01*
X144910184Y-86721790D01*
X144926103Y-86738621D01*
X144696832Y-87136290D01*
X144467561Y-86738621D01*
X144483479Y-86721790D01*
X144484133Y-86721041D01*
X144504193Y-86696195D01*
X144504809Y-86695366D01*
X144522509Y-86669379D01*
X144523067Y-86668481D01*
X144538407Y-86641352D01*
X144538894Y-86640400D01*
X144551874Y-86612129D01*
X144552277Y-86611143D01*
X144562897Y-86581731D01*
X144563212Y-86580732D01*
X144571472Y-86550177D01*
X144571698Y-86549187D01*
X144577598Y-86517491D01*
X144577739Y-86516528D01*
X144581279Y-86483690D01*
X144581344Y-86482770D01*
X144582098Y-86461050D01*
X144811565Y-86461050D01*
X144812319Y-86482769D01*
G37*
X144812319Y-86482769D02*
X144812384Y-86483690D01*
X144815924Y-86516528D01*
X144816065Y-86517491D01*
X144821965Y-86549187D01*
X144822191Y-86550177D01*
X144830451Y-86580732D01*
X144830766Y-86581731D01*
X144841386Y-86611143D01*
X144841789Y-86612129D01*
X144854769Y-86640400D01*
X144855256Y-86641352D01*
X144870596Y-86668481D01*
X144871154Y-86669379D01*
X144888854Y-86695366D01*
X144889470Y-86696195D01*
X144909530Y-86721041D01*
X144910184Y-86721790D01*
X144926103Y-86738621D01*
X144696832Y-87136290D01*
X144467561Y-86738621D01*
X144483479Y-86721790D01*
X144484133Y-86721041D01*
X144504193Y-86696195D01*
X144504809Y-86695366D01*
X144522509Y-86669379D01*
X144523067Y-86668481D01*
X144538407Y-86641352D01*
X144538894Y-86640400D01*
X144551874Y-86612129D01*
X144552277Y-86611143D01*
X144562897Y-86581731D01*
X144563212Y-86580732D01*
X144571472Y-86550177D01*
X144571698Y-86549187D01*
X144577598Y-86517491D01*
X144577739Y-86516528D01*
X144581279Y-86483690D01*
X144581344Y-86482770D01*
X144582098Y-86461050D01*
X144811565Y-86461050D01*
X144812319Y-86482769D01*
G36*
X133424533Y-89145107D02*
G01*
X133408728Y-89162224D01*
X133407893Y-89163229D01*
X133388667Y-89188909D01*
X133387922Y-89190020D01*
X133371612Y-89217397D01*
X133370988Y-89218583D01*
X133357594Y-89247657D01*
X133357107Y-89248878D01*
X133346629Y-89279651D01*
X133346282Y-89280863D01*
X133338720Y-89313333D01*
X133338505Y-89314503D01*
X133333859Y-89348671D01*
X133333758Y-89349770D01*
X133332027Y-89385636D01*
X133332018Y-89386649D01*
X133333204Y-89424212D01*
X133333267Y-89425131D01*
X133335904Y-89450373D01*
X133106780Y-89450373D01*
X133102069Y-89421748D01*
X133101941Y-89421082D01*
X133093676Y-89383519D01*
X133093500Y-89382815D01*
X133083431Y-89346949D01*
X133083200Y-89346213D01*
X133071326Y-89312045D01*
X133071034Y-89311284D01*
X133057357Y-89278814D01*
X133056998Y-89278036D01*
X133041516Y-89247263D01*
X133041087Y-89246481D01*
X133023801Y-89217407D01*
X133023302Y-89216633D01*
X133004212Y-89189256D01*
X133003646Y-89188505D01*
X132982752Y-89162825D01*
X132982125Y-89162110D01*
X132965933Y-89145002D01*
X133195203Y-88747336D01*
X133424533Y-89145107D01*
G37*
X133424533Y-89145107D02*
X133408728Y-89162224D01*
X133407893Y-89163229D01*
X133388667Y-89188909D01*
X133387922Y-89190020D01*
X133371612Y-89217397D01*
X133370988Y-89218583D01*
X133357594Y-89247657D01*
X133357107Y-89248878D01*
X133346629Y-89279651D01*
X133346282Y-89280863D01*
X133338720Y-89313333D01*
X133338505Y-89314503D01*
X133333859Y-89348671D01*
X133333758Y-89349770D01*
X133332027Y-89385636D01*
X133332018Y-89386649D01*
X133333204Y-89424212D01*
X133333267Y-89425131D01*
X133335904Y-89450373D01*
X133106780Y-89450373D01*
X133102069Y-89421748D01*
X133101941Y-89421082D01*
X133093676Y-89383519D01*
X133093500Y-89382815D01*
X133083431Y-89346949D01*
X133083200Y-89346213D01*
X133071326Y-89312045D01*
X133071034Y-89311284D01*
X133057357Y-89278814D01*
X133056998Y-89278036D01*
X133041516Y-89247263D01*
X133041087Y-89246481D01*
X133023801Y-89217407D01*
X133023302Y-89216633D01*
X133004212Y-89189256D01*
X133003646Y-89188505D01*
X132982752Y-89162825D01*
X132982125Y-89162110D01*
X132965933Y-89145002D01*
X133195203Y-88747336D01*
X133424533Y-89145107D01*
G36*
X131534933Y-96001004D02*
G01*
X131535618Y-96001611D01*
X131637881Y-96085812D01*
X131638651Y-96086398D01*
X131744357Y-96160693D01*
X131745207Y-96161241D01*
X131854355Y-96225630D01*
X131855276Y-96226124D01*
X131967868Y-96280607D01*
X131968846Y-96281030D01*
X132084880Y-96325607D01*
X132085895Y-96325949D01*
X132205372Y-96360620D01*
X132206403Y-96360873D01*
X132329323Y-96385638D01*
X132330348Y-96385801D01*
X132456711Y-96400660D01*
X132457710Y-96400738D01*
X132575300Y-96405226D01*
X132575300Y-96634774D01*
X132457710Y-96639261D01*
X132456711Y-96639339D01*
X132330348Y-96654198D01*
X132329323Y-96654361D01*
X132206403Y-96679126D01*
X132205372Y-96679379D01*
X132085895Y-96714050D01*
X132084880Y-96714392D01*
X131968846Y-96758969D01*
X131967868Y-96759392D01*
X131855276Y-96813875D01*
X131854355Y-96814369D01*
X131745207Y-96878758D01*
X131744357Y-96879306D01*
X131638651Y-96953601D01*
X131637881Y-96954187D01*
X131535618Y-97038388D01*
X131534933Y-97038995D01*
X131442989Y-97126556D01*
X130390926Y-96520000D01*
X131442989Y-95913444D01*
X131534933Y-96001004D01*
G37*
X131534933Y-96001004D02*
X131535618Y-96001611D01*
X131637881Y-96085812D01*
X131638651Y-96086398D01*
X131744357Y-96160693D01*
X131745207Y-96161241D01*
X131854355Y-96225630D01*
X131855276Y-96226124D01*
X131967868Y-96280607D01*
X131968846Y-96281030D01*
X132084880Y-96325607D01*
X132085895Y-96325949D01*
X132205372Y-96360620D01*
X132206403Y-96360873D01*
X132329323Y-96385638D01*
X132330348Y-96385801D01*
X132456711Y-96400660D01*
X132457710Y-96400738D01*
X132575300Y-96405226D01*
X132575300Y-96634774D01*
X132457710Y-96639261D01*
X132456711Y-96639339D01*
X132330348Y-96654198D01*
X132329323Y-96654361D01*
X132206403Y-96679126D01*
X132205372Y-96679379D01*
X132085895Y-96714050D01*
X132084880Y-96714392D01*
X131968846Y-96758969D01*
X131967868Y-96759392D01*
X131855276Y-96813875D01*
X131854355Y-96814369D01*
X131745207Y-96878758D01*
X131744357Y-96879306D01*
X131638651Y-96953601D01*
X131637881Y-96954187D01*
X131535618Y-97038388D01*
X131534933Y-97038995D01*
X131442989Y-97126556D01*
X130390926Y-96520000D01*
X131442989Y-95913444D01*
X131534933Y-96001004D01*
G36*
X133310690Y-88392963D02*
G01*
X133310755Y-88393884D01*
X133314295Y-88426722D01*
X133314436Y-88427685D01*
X133320336Y-88459381D01*
X133320562Y-88460371D01*
X133328822Y-88490926D01*
X133329137Y-88491925D01*
X133339757Y-88521337D01*
X133340160Y-88522323D01*
X133353140Y-88550594D01*
X133353627Y-88551546D01*
X133368967Y-88578675D01*
X133369525Y-88579573D01*
X133387225Y-88605560D01*
X133387841Y-88606389D01*
X133407901Y-88631235D01*
X133408555Y-88631984D01*
X133424474Y-88648815D01*
X133195203Y-89046484D01*
X132965932Y-88648815D01*
X132981850Y-88631984D01*
X132982504Y-88631235D01*
X133002564Y-88606389D01*
X133003180Y-88605560D01*
X133020880Y-88579573D01*
X133021438Y-88578675D01*
X133036778Y-88551546D01*
X133037265Y-88550594D01*
X133050245Y-88522323D01*
X133050648Y-88521337D01*
X133061268Y-88491925D01*
X133061583Y-88490926D01*
X133069843Y-88460371D01*
X133070069Y-88459381D01*
X133075969Y-88427685D01*
X133076110Y-88426722D01*
X133079650Y-88393884D01*
X133079715Y-88392964D01*
X133080469Y-88371244D01*
X133309936Y-88371244D01*
X133310690Y-88392963D01*
G37*
X133310690Y-88392963D02*
X133310755Y-88393884D01*
X133314295Y-88426722D01*
X133314436Y-88427685D01*
X133320336Y-88459381D01*
X133320562Y-88460371D01*
X133328822Y-88490926D01*
X133329137Y-88491925D01*
X133339757Y-88521337D01*
X133340160Y-88522323D01*
X133353140Y-88550594D01*
X133353627Y-88551546D01*
X133368967Y-88578675D01*
X133369525Y-88579573D01*
X133387225Y-88605560D01*
X133387841Y-88606389D01*
X133407901Y-88631235D01*
X133408555Y-88631984D01*
X133424474Y-88648815D01*
X133195203Y-89046484D01*
X132965932Y-88648815D01*
X132981850Y-88631984D01*
X132982504Y-88631235D01*
X133002564Y-88606389D01*
X133003180Y-88605560D01*
X133020880Y-88579573D01*
X133021438Y-88578675D01*
X133036778Y-88551546D01*
X133037265Y-88550594D01*
X133050245Y-88522323D01*
X133050648Y-88521337D01*
X133061268Y-88491925D01*
X133061583Y-88490926D01*
X133069843Y-88460371D01*
X133070069Y-88459381D01*
X133075969Y-88427685D01*
X133076110Y-88426722D01*
X133079650Y-88393884D01*
X133079715Y-88392964D01*
X133080469Y-88371244D01*
X133309936Y-88371244D01*
X133310690Y-88392963D01*
G36*
X138548423Y-82689850D02*
G01*
X138525067Y-82690956D01*
X138523578Y-82691115D01*
X138491826Y-82696413D01*
X138490345Y-82696752D01*
X138459453Y-82705803D01*
X138458044Y-82706308D01*
X138428014Y-82719110D01*
X138426725Y-82719748D01*
X138397557Y-82736304D01*
X138396423Y-82737030D01*
X138368115Y-82757337D01*
X138367146Y-82758106D01*
X138339700Y-82782166D01*
X138338891Y-82782941D01*
X138312307Y-82810753D01*
X138311643Y-82811505D01*
X138285919Y-82843069D01*
X138285379Y-82843782D01*
X138269208Y-82866754D01*
X138107433Y-82704979D01*
X138125250Y-82676565D01*
X138125540Y-82676078D01*
X138146257Y-82639507D01*
X138146546Y-82638967D01*
X138164787Y-82602811D01*
X138165068Y-82602216D01*
X138180832Y-82566475D01*
X138181099Y-82565822D01*
X138194388Y-82530496D01*
X138194633Y-82529781D01*
X138205445Y-82494869D01*
X138205658Y-82494095D01*
X138213994Y-82459599D01*
X138214165Y-82458768D01*
X138220025Y-82424686D01*
X138220145Y-82423804D01*
X138223529Y-82390137D01*
X138223588Y-82389214D01*
X138224238Y-82365424D01*
X138667547Y-82246351D01*
X138548423Y-82689850D01*
G37*
X138548423Y-82689850D02*
X138525067Y-82690956D01*
X138523578Y-82691115D01*
X138491826Y-82696413D01*
X138490345Y-82696752D01*
X138459453Y-82705803D01*
X138458044Y-82706308D01*
X138428014Y-82719110D01*
X138426725Y-82719748D01*
X138397557Y-82736304D01*
X138396423Y-82737030D01*
X138368115Y-82757337D01*
X138367146Y-82758106D01*
X138339700Y-82782166D01*
X138338891Y-82782941D01*
X138312307Y-82810753D01*
X138311643Y-82811505D01*
X138285919Y-82843069D01*
X138285379Y-82843782D01*
X138269208Y-82866754D01*
X138107433Y-82704979D01*
X138125250Y-82676565D01*
X138125540Y-82676078D01*
X138146257Y-82639507D01*
X138146546Y-82638967D01*
X138164787Y-82602811D01*
X138165068Y-82602216D01*
X138180832Y-82566475D01*
X138181099Y-82565822D01*
X138194388Y-82530496D01*
X138194633Y-82529781D01*
X138205445Y-82494869D01*
X138205658Y-82494095D01*
X138213994Y-82459599D01*
X138214165Y-82458768D01*
X138220025Y-82424686D01*
X138220145Y-82423804D01*
X138223529Y-82390137D01*
X138223588Y-82389214D01*
X138224238Y-82365424D01*
X138667547Y-82246351D01*
X138548423Y-82689850D01*
G36*
X135623349Y-92417595D02*
G01*
X135624363Y-92418433D01*
X135646324Y-92434753D01*
X135647376Y-92435457D01*
X135671433Y-92449857D01*
X135672486Y-92450422D01*
X135698637Y-92462902D01*
X135699660Y-92463336D01*
X135727905Y-92473896D01*
X135728874Y-92474214D01*
X135759214Y-92482854D01*
X135760115Y-92483076D01*
X135792550Y-92489796D01*
X135793378Y-92489939D01*
X135827907Y-92494739D01*
X135828660Y-92494821D01*
X135865284Y-92497701D01*
X135865965Y-92497736D01*
X135892299Y-92498390D01*
X135892299Y-92981610D01*
X135865965Y-92982263D01*
X135865284Y-92982298D01*
X135828660Y-92985178D01*
X135827907Y-92985260D01*
X135793378Y-92990060D01*
X135792550Y-92990203D01*
X135760115Y-92996923D01*
X135759214Y-92997145D01*
X135728874Y-93005785D01*
X135727905Y-93006103D01*
X135699660Y-93016663D01*
X135698637Y-93017097D01*
X135672486Y-93029577D01*
X135671433Y-93030142D01*
X135647376Y-93044542D01*
X135646324Y-93045246D01*
X135624363Y-93061566D01*
X135623349Y-93062404D01*
X135610344Y-93074345D01*
X135030426Y-92740000D01*
X135610344Y-92405655D01*
X135623349Y-92417595D01*
G37*
X135623349Y-92417595D02*
X135624363Y-92418433D01*
X135646324Y-92434753D01*
X135647376Y-92435457D01*
X135671433Y-92449857D01*
X135672486Y-92450422D01*
X135698637Y-92462902D01*
X135699660Y-92463336D01*
X135727905Y-92473896D01*
X135728874Y-92474214D01*
X135759214Y-92482854D01*
X135760115Y-92483076D01*
X135792550Y-92489796D01*
X135793378Y-92489939D01*
X135827907Y-92494739D01*
X135828660Y-92494821D01*
X135865284Y-92497701D01*
X135865965Y-92497736D01*
X135892299Y-92498390D01*
X135892299Y-92981610D01*
X135865965Y-92982263D01*
X135865284Y-92982298D01*
X135828660Y-92985178D01*
X135827907Y-92985260D01*
X135793378Y-92990060D01*
X135792550Y-92990203D01*
X135760115Y-92996923D01*
X135759214Y-92997145D01*
X135728874Y-93005785D01*
X135727905Y-93006103D01*
X135699660Y-93016663D01*
X135698637Y-93017097D01*
X135672486Y-93029577D01*
X135671433Y-93030142D01*
X135647376Y-93044542D01*
X135646324Y-93045246D01*
X135624363Y-93061566D01*
X135623349Y-93062404D01*
X135610344Y-93074345D01*
X135030426Y-92740000D01*
X135610344Y-92405655D01*
X135623349Y-92417595D01*
G36*
X132182958Y-97849303D02*
G01*
X132094758Y-97943901D01*
X132094150Y-97944604D01*
X132007897Y-98051870D01*
X132007313Y-98052655D01*
X131931371Y-98163620D01*
X131930830Y-98164484D01*
X131865199Y-98279148D01*
X131864716Y-98280080D01*
X131809395Y-98398442D01*
X131808984Y-98399425D01*
X131763974Y-98521486D01*
X131763647Y-98522502D01*
X131728947Y-98648261D01*
X131728710Y-98649288D01*
X131704321Y-98778746D01*
X131704171Y-98779762D01*
X131690093Y-98912919D01*
X131690028Y-98913904D01*
X131686520Y-99041300D01*
X130513671Y-99356329D01*
X130828700Y-98183479D01*
X130956095Y-98179971D01*
X130957080Y-98179906D01*
X131090237Y-98165828D01*
X131091253Y-98165678D01*
X131220711Y-98141289D01*
X131221738Y-98141052D01*
X131347497Y-98106352D01*
X131348513Y-98106025D01*
X131470574Y-98061015D01*
X131471557Y-98060604D01*
X131589919Y-98005283D01*
X131590851Y-98004800D01*
X131705515Y-97939169D01*
X131706379Y-97938628D01*
X131817344Y-97862686D01*
X131818129Y-97862102D01*
X131925395Y-97775849D01*
X131926098Y-97775241D01*
X132020697Y-97687042D01*
X132182958Y-97849303D01*
G37*
X132182958Y-97849303D02*
X132094758Y-97943901D01*
X132094150Y-97944604D01*
X132007897Y-98051870D01*
X132007313Y-98052655D01*
X131931371Y-98163620D01*
X131930830Y-98164484D01*
X131865199Y-98279148D01*
X131864716Y-98280080D01*
X131809395Y-98398442D01*
X131808984Y-98399425D01*
X131763974Y-98521486D01*
X131763647Y-98522502D01*
X131728947Y-98648261D01*
X131728710Y-98649288D01*
X131704321Y-98778746D01*
X131704171Y-98779762D01*
X131690093Y-98912919D01*
X131690028Y-98913904D01*
X131686520Y-99041300D01*
X130513671Y-99356329D01*
X130828700Y-98183479D01*
X130956095Y-98179971D01*
X130957080Y-98179906D01*
X131090237Y-98165828D01*
X131091253Y-98165678D01*
X131220711Y-98141289D01*
X131221738Y-98141052D01*
X131347497Y-98106352D01*
X131348513Y-98106025D01*
X131470574Y-98061015D01*
X131471557Y-98060604D01*
X131589919Y-98005283D01*
X131590851Y-98004800D01*
X131705515Y-97939169D01*
X131706379Y-97938628D01*
X131817344Y-97862686D01*
X131818129Y-97862102D01*
X131925395Y-97775849D01*
X131926098Y-97775241D01*
X132020697Y-97687042D01*
X132182958Y-97849303D01*
G36*
X138566384Y-83696560D02*
G01*
X138560419Y-83695973D01*
X138543584Y-83697631D01*
X138543576Y-83697631D01*
X138509530Y-83700984D01*
X138497819Y-83701946D01*
X138497275Y-83702002D01*
X138450615Y-83707862D01*
X138450192Y-83707922D01*
X138398086Y-83716258D01*
X138397747Y-83716317D01*
X138340195Y-83727129D01*
X138339919Y-83727184D01*
X138276921Y-83740473D01*
X138276692Y-83740524D01*
X138208248Y-83756288D01*
X138208054Y-83756334D01*
X138134164Y-83774575D01*
X138133999Y-83774617D01*
X138054663Y-83795334D01*
X138054521Y-83795372D01*
X137976854Y-83816619D01*
X137817513Y-83657278D01*
X137880238Y-83638515D01*
X137880752Y-83638350D01*
X137955081Y-83612626D01*
X137955700Y-83612393D01*
X138021247Y-83585809D01*
X138022002Y-83585474D01*
X138078764Y-83558028D01*
X138079689Y-83557532D01*
X138127668Y-83529225D01*
X138128797Y-83528475D01*
X138167993Y-83499306D01*
X138169334Y-83498155D01*
X138199746Y-83468125D01*
X138201227Y-83466372D01*
X138222855Y-83435480D01*
X138224224Y-83432959D01*
X138237069Y-83401207D01*
X138237899Y-83398014D01*
X138240905Y-83373878D01*
X138685104Y-83254566D01*
X138566384Y-83696560D01*
G37*
X138566384Y-83696560D02*
X138560419Y-83695973D01*
X138543584Y-83697631D01*
X138543576Y-83697631D01*
X138509530Y-83700984D01*
X138497819Y-83701946D01*
X138497275Y-83702002D01*
X138450615Y-83707862D01*
X138450192Y-83707922D01*
X138398086Y-83716258D01*
X138397747Y-83716317D01*
X138340195Y-83727129D01*
X138339919Y-83727184D01*
X138276921Y-83740473D01*
X138276692Y-83740524D01*
X138208248Y-83756288D01*
X138208054Y-83756334D01*
X138134164Y-83774575D01*
X138133999Y-83774617D01*
X138054663Y-83795334D01*
X138054521Y-83795372D01*
X137976854Y-83816619D01*
X137817513Y-83657278D01*
X137880238Y-83638515D01*
X137880752Y-83638350D01*
X137955081Y-83612626D01*
X137955700Y-83612393D01*
X138021247Y-83585809D01*
X138022002Y-83585474D01*
X138078764Y-83558028D01*
X138079689Y-83557532D01*
X138127668Y-83529225D01*
X138128797Y-83528475D01*
X138167993Y-83499306D01*
X138169334Y-83498155D01*
X138199746Y-83468125D01*
X138201227Y-83466372D01*
X138222855Y-83435480D01*
X138224224Y-83432959D01*
X138237069Y-83401207D01*
X138237899Y-83398014D01*
X138240905Y-83373878D01*
X138685104Y-83254566D01*
X138566384Y-83696560D01*
G36*
X139329925Y-86350323D02*
G01*
X139330674Y-86350977D01*
X139355520Y-86371037D01*
X139356349Y-86371653D01*
X139382336Y-86389353D01*
X139383234Y-86389911D01*
X139410363Y-86405251D01*
X139411315Y-86405738D01*
X139439586Y-86418718D01*
X139440572Y-86419121D01*
X139469984Y-86429741D01*
X139470983Y-86430056D01*
X139501538Y-86438316D01*
X139502528Y-86438542D01*
X139534224Y-86444442D01*
X139535187Y-86444583D01*
X139568025Y-86448123D01*
X139568945Y-86448188D01*
X139590666Y-86448942D01*
X139590666Y-86678409D01*
X139568946Y-86679163D01*
X139568025Y-86679228D01*
X139535187Y-86682768D01*
X139534224Y-86682909D01*
X139502528Y-86688809D01*
X139501538Y-86689035D01*
X139470983Y-86697295D01*
X139469984Y-86697610D01*
X139440572Y-86708230D01*
X139439586Y-86708633D01*
X139411315Y-86721613D01*
X139410363Y-86722100D01*
X139383234Y-86737440D01*
X139382336Y-86737998D01*
X139356349Y-86755698D01*
X139355520Y-86756314D01*
X139330674Y-86776374D01*
X139329925Y-86777029D01*
X139313096Y-86792947D01*
X138915426Y-86563676D01*
X139313095Y-86334405D01*
X139329925Y-86350323D01*
G37*
X139329925Y-86350323D02*
X139330674Y-86350977D01*
X139355520Y-86371037D01*
X139356349Y-86371653D01*
X139382336Y-86389353D01*
X139383234Y-86389911D01*
X139410363Y-86405251D01*
X139411315Y-86405738D01*
X139439586Y-86418718D01*
X139440572Y-86419121D01*
X139469984Y-86429741D01*
X139470983Y-86430056D01*
X139501538Y-86438316D01*
X139502528Y-86438542D01*
X139534224Y-86444442D01*
X139535187Y-86444583D01*
X139568025Y-86448123D01*
X139568945Y-86448188D01*
X139590666Y-86448942D01*
X139590666Y-86678409D01*
X139568946Y-86679163D01*
X139568025Y-86679228D01*
X139535187Y-86682768D01*
X139534224Y-86682909D01*
X139502528Y-86688809D01*
X139501538Y-86689035D01*
X139470983Y-86697295D01*
X139469984Y-86697610D01*
X139440572Y-86708230D01*
X139439586Y-86708633D01*
X139411315Y-86721613D01*
X139410363Y-86722100D01*
X139383234Y-86737440D01*
X139382336Y-86737998D01*
X139356349Y-86755698D01*
X139355520Y-86756314D01*
X139330674Y-86776374D01*
X139329925Y-86777029D01*
X139313096Y-86792947D01*
X138915426Y-86563676D01*
X139313095Y-86334405D01*
X139329925Y-86350323D01*
G36*
X148139277Y-83439059D02*
G01*
X148123790Y-83456960D01*
X148122544Y-83458671D01*
X148105564Y-83486596D01*
X148104639Y-83488439D01*
X148092072Y-83519559D01*
X148091492Y-83521378D01*
X148083337Y-83555693D01*
X148083056Y-83557369D01*
X148079316Y-83594879D01*
X148079255Y-83596349D01*
X148079927Y-83637053D01*
X148080009Y-83638304D01*
X148085094Y-83682204D01*
X148085261Y-83683254D01*
X148094759Y-83730348D01*
X148094968Y-83731223D01*
X148108880Y-83781512D01*
X148109106Y-83782242D01*
X148121670Y-83818911D01*
X147894150Y-83818911D01*
X147876605Y-83773545D01*
X147876480Y-83773234D01*
X147855489Y-83722945D01*
X147855341Y-83722604D01*
X147834043Y-83675510D01*
X147833866Y-83675135D01*
X147812261Y-83631235D01*
X147812049Y-83630823D01*
X147790137Y-83590119D01*
X147789881Y-83589666D01*
X147767662Y-83552156D01*
X147767352Y-83551660D01*
X147744826Y-83517345D01*
X147744449Y-83516801D01*
X147721617Y-83485681D01*
X147721156Y-83485091D01*
X147698016Y-83457166D01*
X147697453Y-83456531D01*
X147680524Y-83438675D01*
X147909790Y-83041016D01*
X148139277Y-83439059D01*
G37*
X148139277Y-83439059D02*
X148123790Y-83456960D01*
X148122544Y-83458671D01*
X148105564Y-83486596D01*
X148104639Y-83488439D01*
X148092072Y-83519559D01*
X148091492Y-83521378D01*
X148083337Y-83555693D01*
X148083056Y-83557369D01*
X148079316Y-83594879D01*
X148079255Y-83596349D01*
X148079927Y-83637053D01*
X148080009Y-83638304D01*
X148085094Y-83682204D01*
X148085261Y-83683254D01*
X148094759Y-83730348D01*
X148094968Y-83731223D01*
X148108880Y-83781512D01*
X148109106Y-83782242D01*
X148121670Y-83818911D01*
X147894150Y-83818911D01*
X147876605Y-83773545D01*
X147876480Y-83773234D01*
X147855489Y-83722945D01*
X147855341Y-83722604D01*
X147834043Y-83675510D01*
X147833866Y-83675135D01*
X147812261Y-83631235D01*
X147812049Y-83630823D01*
X147790137Y-83590119D01*
X147789881Y-83589666D01*
X147767662Y-83552156D01*
X147767352Y-83551660D01*
X147744826Y-83517345D01*
X147744449Y-83516801D01*
X147721617Y-83485681D01*
X147721156Y-83485091D01*
X147698016Y-83457166D01*
X147697453Y-83456531D01*
X147680524Y-83438675D01*
X147909790Y-83041016D01*
X148139277Y-83439059D01*
G36*
X155160063Y-92761398D02*
G01*
X155160884Y-92762092D01*
X155254277Y-92834471D01*
X155255171Y-92835104D01*
X155353895Y-92898805D01*
X155354844Y-92899361D01*
X155458898Y-92954384D01*
X155459881Y-92954851D01*
X155569267Y-93001195D01*
X155570259Y-93001567D01*
X155684975Y-93039232D01*
X155685956Y-93039511D01*
X155806003Y-93068498D01*
X155806953Y-93068690D01*
X155932331Y-93088999D01*
X155933236Y-93089112D01*
X156063944Y-93100743D01*
X156064794Y-93100790D01*
X156191315Y-93103535D01*
X156506329Y-94276329D01*
X155333535Y-93961315D01*
X155330790Y-93834794D01*
X155330743Y-93833944D01*
X155319112Y-93703236D01*
X155318999Y-93702331D01*
X155298690Y-93576953D01*
X155298498Y-93576003D01*
X155269511Y-93455956D01*
X155269232Y-93454975D01*
X155231567Y-93340259D01*
X155231195Y-93339267D01*
X155184851Y-93229881D01*
X155184384Y-93228898D01*
X155129361Y-93124844D01*
X155128805Y-93123895D01*
X155065104Y-93025171D01*
X155064471Y-93024277D01*
X154992092Y-92930884D01*
X154991398Y-92930063D01*
X154918593Y-92850966D01*
X155080966Y-92688593D01*
X155160063Y-92761398D01*
G37*
X155160063Y-92761398D02*
X155160884Y-92762092D01*
X155254277Y-92834471D01*
X155255171Y-92835104D01*
X155353895Y-92898805D01*
X155354844Y-92899361D01*
X155458898Y-92954384D01*
X155459881Y-92954851D01*
X155569267Y-93001195D01*
X155570259Y-93001567D01*
X155684975Y-93039232D01*
X155685956Y-93039511D01*
X155806003Y-93068498D01*
X155806953Y-93068690D01*
X155932331Y-93088999D01*
X155933236Y-93089112D01*
X156063944Y-93100743D01*
X156064794Y-93100790D01*
X156191315Y-93103535D01*
X156506329Y-94276329D01*
X155333535Y-93961315D01*
X155330790Y-93834794D01*
X155330743Y-93833944D01*
X155319112Y-93703236D01*
X155318999Y-93702331D01*
X155298690Y-93576953D01*
X155298498Y-93576003D01*
X155269511Y-93455956D01*
X155269232Y-93454975D01*
X155231567Y-93340259D01*
X155231195Y-93339267D01*
X155184851Y-93229881D01*
X155184384Y-93228898D01*
X155129361Y-93124844D01*
X155128805Y-93123895D01*
X155065104Y-93025171D01*
X155064471Y-93024277D01*
X154992092Y-92930884D01*
X154991398Y-92930063D01*
X154918593Y-92850966D01*
X155080966Y-92688593D01*
X155160063Y-92761398D01*
G36*
X148059364Y-83190590D02*
G01*
X147661695Y-83419861D01*
X147644809Y-83403887D01*
X147644067Y-83403238D01*
X147619054Y-83383010D01*
X147618242Y-83382405D01*
X147591975Y-83364425D01*
X147591104Y-83363879D01*
X147563584Y-83348148D01*
X147562670Y-83347674D01*
X147533896Y-83334191D01*
X147532957Y-83333796D01*
X147502929Y-83322561D01*
X147501985Y-83322250D01*
X147470704Y-83313264D01*
X147469774Y-83313034D01*
X147437240Y-83306296D01*
X147436337Y-83306143D01*
X147402548Y-83301652D01*
X147401686Y-83301567D01*
X147378534Y-83300086D01*
X147378534Y-83070657D01*
X147400918Y-83070582D01*
X147401846Y-83070545D01*
X147435635Y-83067955D01*
X147436616Y-83067841D01*
X147469150Y-83062780D01*
X147470171Y-83062578D01*
X147501452Y-83055045D01*
X147502494Y-83054747D01*
X147532522Y-83044742D01*
X147533559Y-83044345D01*
X147562333Y-83031868D01*
X147563343Y-83031376D01*
X147590863Y-83016427D01*
X147591820Y-83015851D01*
X147618087Y-82998431D01*
X147618973Y-82997787D01*
X147643986Y-82977895D01*
X147644785Y-82977203D01*
X147661674Y-82961307D01*
X148059364Y-83190590D01*
G37*
X148059364Y-83190590D02*
X147661695Y-83419861D01*
X147644809Y-83403887D01*
X147644067Y-83403238D01*
X147619054Y-83383010D01*
X147618242Y-83382405D01*
X147591975Y-83364425D01*
X147591104Y-83363879D01*
X147563584Y-83348148D01*
X147562670Y-83347674D01*
X147533896Y-83334191D01*
X147532957Y-83333796D01*
X147502929Y-83322561D01*
X147501985Y-83322250D01*
X147470704Y-83313264D01*
X147469774Y-83313034D01*
X147437240Y-83306296D01*
X147436337Y-83306143D01*
X147402548Y-83301652D01*
X147401686Y-83301567D01*
X147378534Y-83300086D01*
X147378534Y-83070657D01*
X147400918Y-83070582D01*
X147401846Y-83070545D01*
X147435635Y-83067955D01*
X147436616Y-83067841D01*
X147469150Y-83062780D01*
X147470171Y-83062578D01*
X147501452Y-83055045D01*
X147502494Y-83054747D01*
X147532522Y-83044742D01*
X147533559Y-83044345D01*
X147562333Y-83031868D01*
X147563343Y-83031376D01*
X147590863Y-83016427D01*
X147591820Y-83015851D01*
X147618087Y-82998431D01*
X147618973Y-82997787D01*
X147643986Y-82977895D01*
X147644785Y-82977203D01*
X147661674Y-82961307D01*
X148059364Y-83190590D01*
G36*
X136452635Y-97187602D02*
G01*
X136334395Y-97227796D01*
X136333831Y-97228002D01*
X136210811Y-97276418D01*
X136210140Y-97276705D01*
X136101667Y-97326772D01*
X136100863Y-97327178D01*
X136006936Y-97378896D01*
X136005976Y-97379482D01*
X135926595Y-97432851D01*
X135925464Y-97433707D01*
X135860630Y-97488727D01*
X135859348Y-97489981D01*
X135809060Y-97546652D01*
X135807731Y-97548445D01*
X135771989Y-97606767D01*
X135770843Y-97609171D01*
X135749648Y-97669144D01*
X135748995Y-97672014D01*
X135743280Y-97724991D01*
X135096203Y-97898797D01*
X135269805Y-97252479D01*
X135326893Y-97251018D01*
X135327644Y-97250976D01*
X135402452Y-97244616D01*
X135403046Y-97244552D01*
X135486093Y-97233535D01*
X135486572Y-97233462D01*
X135577858Y-97217789D01*
X135578251Y-97217715D01*
X135677776Y-97197386D01*
X135678103Y-97197315D01*
X135785867Y-97172329D01*
X135786142Y-97172262D01*
X135902145Y-97142620D01*
X135902381Y-97142557D01*
X136026623Y-97108259D01*
X136026826Y-97108201D01*
X136159307Y-97069246D01*
X136159483Y-97069193D01*
X136292883Y-97027850D01*
X136452635Y-97187602D01*
G37*
X136452635Y-97187602D02*
X136334395Y-97227796D01*
X136333831Y-97228002D01*
X136210811Y-97276418D01*
X136210140Y-97276705D01*
X136101667Y-97326772D01*
X136100863Y-97327178D01*
X136006936Y-97378896D01*
X136005976Y-97379482D01*
X135926595Y-97432851D01*
X135925464Y-97433707D01*
X135860630Y-97488727D01*
X135859348Y-97489981D01*
X135809060Y-97546652D01*
X135807731Y-97548445D01*
X135771989Y-97606767D01*
X135770843Y-97609171D01*
X135749648Y-97669144D01*
X135748995Y-97672014D01*
X135743280Y-97724991D01*
X135096203Y-97898797D01*
X135269805Y-97252479D01*
X135326893Y-97251018D01*
X135327644Y-97250976D01*
X135402452Y-97244616D01*
X135403046Y-97244552D01*
X135486093Y-97233535D01*
X135486572Y-97233462D01*
X135577858Y-97217789D01*
X135578251Y-97217715D01*
X135677776Y-97197386D01*
X135678103Y-97197315D01*
X135785867Y-97172329D01*
X135786142Y-97172262D01*
X135902145Y-97142620D01*
X135902381Y-97142557D01*
X136026623Y-97108259D01*
X136026826Y-97108201D01*
X136159307Y-97069246D01*
X136159483Y-97069193D01*
X136292883Y-97027850D01*
X136452635Y-97187602D01*
G36*
X150127524Y-88997282D02*
G01*
X150128273Y-88997936D01*
X150153119Y-89017996D01*
X150153948Y-89018612D01*
X150179935Y-89036312D01*
X150180833Y-89036870D01*
X150207962Y-89052210D01*
X150208914Y-89052697D01*
X150237185Y-89065677D01*
X150238171Y-89066080D01*
X150267583Y-89076700D01*
X150268582Y-89077015D01*
X150299137Y-89085275D01*
X150300127Y-89085501D01*
X150331823Y-89091401D01*
X150332786Y-89091542D01*
X150365624Y-89095082D01*
X150366544Y-89095147D01*
X150388265Y-89095901D01*
X150388265Y-89325368D01*
X150366545Y-89326122D01*
X150365624Y-89326187D01*
X150332786Y-89329727D01*
X150331823Y-89329868D01*
X150300127Y-89335768D01*
X150299137Y-89335994D01*
X150268582Y-89344254D01*
X150267583Y-89344569D01*
X150238171Y-89355189D01*
X150237185Y-89355592D01*
X150208914Y-89368572D01*
X150207962Y-89369059D01*
X150180833Y-89384399D01*
X150179935Y-89384957D01*
X150153948Y-89402657D01*
X150153119Y-89403273D01*
X150128273Y-89423333D01*
X150127524Y-89423988D01*
X150110695Y-89439906D01*
X149713025Y-89210635D01*
X150110694Y-88981364D01*
X150127524Y-88997282D01*
G37*
X150127524Y-88997282D02*
X150128273Y-88997936D01*
X150153119Y-89017996D01*
X150153948Y-89018612D01*
X150179935Y-89036312D01*
X150180833Y-89036870D01*
X150207962Y-89052210D01*
X150208914Y-89052697D01*
X150237185Y-89065677D01*
X150238171Y-89066080D01*
X150267583Y-89076700D01*
X150268582Y-89077015D01*
X150299137Y-89085275D01*
X150300127Y-89085501D01*
X150331823Y-89091401D01*
X150332786Y-89091542D01*
X150365624Y-89095082D01*
X150366544Y-89095147D01*
X150388265Y-89095901D01*
X150388265Y-89325368D01*
X150366545Y-89326122D01*
X150365624Y-89326187D01*
X150332786Y-89329727D01*
X150331823Y-89329868D01*
X150300127Y-89335768D01*
X150299137Y-89335994D01*
X150268582Y-89344254D01*
X150267583Y-89344569D01*
X150238171Y-89355189D01*
X150237185Y-89355592D01*
X150208914Y-89368572D01*
X150207962Y-89369059D01*
X150180833Y-89384399D01*
X150179935Y-89384957D01*
X150153948Y-89402657D01*
X150153119Y-89403273D01*
X150128273Y-89423333D01*
X150127524Y-89423988D01*
X150110695Y-89439906D01*
X149713025Y-89210635D01*
X150110694Y-88981364D01*
X150127524Y-88997282D01*
G36*
X155093901Y-100315241D02*
G01*
X155094604Y-100315849D01*
X155201870Y-100402102D01*
X155202655Y-100402686D01*
X155313620Y-100478628D01*
X155314484Y-100479169D01*
X155429148Y-100544800D01*
X155430080Y-100545283D01*
X155548442Y-100600604D01*
X155549425Y-100601015D01*
X155671486Y-100646025D01*
X155672502Y-100646352D01*
X155798261Y-100681052D01*
X155799288Y-100681289D01*
X155928746Y-100705678D01*
X155929762Y-100705828D01*
X156062919Y-100719906D01*
X156063904Y-100719971D01*
X156191300Y-100723479D01*
X156506329Y-101896329D01*
X155333479Y-101581300D01*
X155329971Y-101453904D01*
X155329906Y-101452919D01*
X155315828Y-101319762D01*
X155315678Y-101318746D01*
X155291289Y-101189288D01*
X155291052Y-101188261D01*
X155256352Y-101062502D01*
X155256025Y-101061486D01*
X155211015Y-100939425D01*
X155210604Y-100938442D01*
X155155283Y-100820080D01*
X155154800Y-100819148D01*
X155089169Y-100704484D01*
X155088628Y-100703620D01*
X155012686Y-100592655D01*
X155012102Y-100591870D01*
X154925849Y-100484604D01*
X154925241Y-100483901D01*
X154837042Y-100389303D01*
X154999303Y-100227042D01*
X155093901Y-100315241D01*
G37*
X155093901Y-100315241D02*
X155094604Y-100315849D01*
X155201870Y-100402102D01*
X155202655Y-100402686D01*
X155313620Y-100478628D01*
X155314484Y-100479169D01*
X155429148Y-100544800D01*
X155430080Y-100545283D01*
X155548442Y-100600604D01*
X155549425Y-100601015D01*
X155671486Y-100646025D01*
X155672502Y-100646352D01*
X155798261Y-100681052D01*
X155799288Y-100681289D01*
X155928746Y-100705678D01*
X155929762Y-100705828D01*
X156062919Y-100719906D01*
X156063904Y-100719971D01*
X156191300Y-100723479D01*
X156506329Y-101896329D01*
X155333479Y-101581300D01*
X155329971Y-101453904D01*
X155329906Y-101452919D01*
X155315828Y-101319762D01*
X155315678Y-101318746D01*
X155291289Y-101189288D01*
X155291052Y-101188261D01*
X155256352Y-101062502D01*
X155256025Y-101061486D01*
X155211015Y-100939425D01*
X155210604Y-100938442D01*
X155155283Y-100820080D01*
X155154800Y-100819148D01*
X155089169Y-100704484D01*
X155088628Y-100703620D01*
X155012686Y-100592655D01*
X155012102Y-100591870D01*
X154925849Y-100484604D01*
X154925241Y-100483901D01*
X154837042Y-100389303D01*
X154999303Y-100227042D01*
X155093901Y-100315241D01*
G36*
X149978086Y-88706688D02*
G01*
X149978151Y-88707609D01*
X149981691Y-88740447D01*
X149981832Y-88741410D01*
X149987732Y-88773106D01*
X149987958Y-88774096D01*
X149996218Y-88804651D01*
X149996533Y-88805650D01*
X150007153Y-88835062D01*
X150007556Y-88836048D01*
X150020536Y-88864319D01*
X150021023Y-88865271D01*
X150036363Y-88892400D01*
X150036921Y-88893298D01*
X150054621Y-88919285D01*
X150055237Y-88920114D01*
X150075297Y-88944960D01*
X150075951Y-88945709D01*
X150091870Y-88962540D01*
X149862599Y-89360209D01*
X149633328Y-88962540D01*
X149649246Y-88945709D01*
X149649900Y-88944960D01*
X149669960Y-88920114D01*
X149670576Y-88919285D01*
X149688276Y-88893298D01*
X149688834Y-88892400D01*
X149704174Y-88865271D01*
X149704661Y-88864319D01*
X149717641Y-88836048D01*
X149718044Y-88835062D01*
X149728664Y-88805650D01*
X149728979Y-88804651D01*
X149737239Y-88774096D01*
X149737465Y-88773106D01*
X149743365Y-88741410D01*
X149743506Y-88740447D01*
X149747046Y-88707609D01*
X149747111Y-88706689D01*
X149747865Y-88684969D01*
X149977332Y-88684969D01*
X149978086Y-88706688D01*
G37*
X149978086Y-88706688D02*
X149978151Y-88707609D01*
X149981691Y-88740447D01*
X149981832Y-88741410D01*
X149987732Y-88773106D01*
X149987958Y-88774096D01*
X149996218Y-88804651D01*
X149996533Y-88805650D01*
X150007153Y-88835062D01*
X150007556Y-88836048D01*
X150020536Y-88864319D01*
X150021023Y-88865271D01*
X150036363Y-88892400D01*
X150036921Y-88893298D01*
X150054621Y-88919285D01*
X150055237Y-88920114D01*
X150075297Y-88944960D01*
X150075951Y-88945709D01*
X150091870Y-88962540D01*
X149862599Y-89360209D01*
X149633328Y-88962540D01*
X149649246Y-88945709D01*
X149649900Y-88944960D01*
X149669960Y-88920114D01*
X149670576Y-88919285D01*
X149688276Y-88893298D01*
X149688834Y-88892400D01*
X149704174Y-88865271D01*
X149704661Y-88864319D01*
X149717641Y-88836048D01*
X149718044Y-88835062D01*
X149728664Y-88805650D01*
X149728979Y-88804651D01*
X149737239Y-88774096D01*
X149737465Y-88773106D01*
X149743365Y-88741410D01*
X149743506Y-88740447D01*
X149747046Y-88707609D01*
X149747111Y-88706689D01*
X149747865Y-88684969D01*
X149977332Y-88684969D01*
X149978086Y-88706688D01*
G36*
X135240195Y-96977521D02*
G01*
X135183270Y-96978981D01*
X135182513Y-96979023D01*
X135108200Y-96985383D01*
X135107596Y-96985449D01*
X135025374Y-96996466D01*
X135024885Y-96996542D01*
X134934754Y-97012215D01*
X134934351Y-97012292D01*
X134836311Y-97032621D01*
X134835975Y-97032695D01*
X134730026Y-97057681D01*
X134729741Y-97057752D01*
X134615883Y-97087394D01*
X134615640Y-97087460D01*
X134493873Y-97121758D01*
X134493662Y-97121819D01*
X134363986Y-97160774D01*
X134363802Y-97160831D01*
X134233577Y-97202110D01*
X134073752Y-97042285D01*
X134189055Y-97002174D01*
X134189627Y-97001959D01*
X134309842Y-96953543D01*
X134310521Y-96953246D01*
X134416519Y-96903179D01*
X134417330Y-96902760D01*
X134509112Y-96851042D01*
X134510076Y-96850441D01*
X134587642Y-96797072D01*
X134588771Y-96796197D01*
X134652120Y-96741177D01*
X134653388Y-96739908D01*
X134702521Y-96683237D01*
X134703821Y-96681442D01*
X134738738Y-96623120D01*
X134739847Y-96620740D01*
X134760547Y-96560767D01*
X134761172Y-96557952D01*
X134766743Y-96505002D01*
X135413797Y-96331203D01*
X135240195Y-96977521D01*
G37*
X135240195Y-96977521D02*
X135183270Y-96978981D01*
X135182513Y-96979023D01*
X135108200Y-96985383D01*
X135107596Y-96985449D01*
X135025374Y-96996466D01*
X135024885Y-96996542D01*
X134934754Y-97012215D01*
X134934351Y-97012292D01*
X134836311Y-97032621D01*
X134835975Y-97032695D01*
X134730026Y-97057681D01*
X134729741Y-97057752D01*
X134615883Y-97087394D01*
X134615640Y-97087460D01*
X134493873Y-97121758D01*
X134493662Y-97121819D01*
X134363986Y-97160774D01*
X134363802Y-97160831D01*
X134233577Y-97202110D01*
X134073752Y-97042285D01*
X134189055Y-97002174D01*
X134189627Y-97001959D01*
X134309842Y-96953543D01*
X134310521Y-96953246D01*
X134416519Y-96903179D01*
X134417330Y-96902760D01*
X134509112Y-96851042D01*
X134510076Y-96850441D01*
X134587642Y-96797072D01*
X134588771Y-96796197D01*
X134652120Y-96741177D01*
X134653388Y-96739908D01*
X134702521Y-96683237D01*
X134703821Y-96681442D01*
X134738738Y-96623120D01*
X134739847Y-96620740D01*
X134760547Y-96560767D01*
X134761172Y-96557952D01*
X134766743Y-96505002D01*
X135413797Y-96331203D01*
X135240195Y-96977521D01*
G36*
X155093901Y-95235241D02*
G01*
X155094604Y-95235849D01*
X155201870Y-95322102D01*
X155202655Y-95322686D01*
X155313620Y-95398628D01*
X155314484Y-95399169D01*
X155429148Y-95464800D01*
X155430080Y-95465283D01*
X155548442Y-95520604D01*
X155549425Y-95521015D01*
X155671486Y-95566025D01*
X155672502Y-95566352D01*
X155798261Y-95601052D01*
X155799288Y-95601289D01*
X155928746Y-95625678D01*
X155929762Y-95625828D01*
X156062919Y-95639906D01*
X156063904Y-95639971D01*
X156191300Y-95643479D01*
X156506329Y-96816329D01*
X155333479Y-96501300D01*
X155329971Y-96373904D01*
X155329906Y-96372919D01*
X155315828Y-96239762D01*
X155315678Y-96238746D01*
X155291289Y-96109288D01*
X155291052Y-96108261D01*
X155256352Y-95982502D01*
X155256025Y-95981486D01*
X155211015Y-95859425D01*
X155210604Y-95858442D01*
X155155283Y-95740080D01*
X155154800Y-95739148D01*
X155089169Y-95624484D01*
X155088628Y-95623620D01*
X155012686Y-95512655D01*
X155012102Y-95511870D01*
X154925849Y-95404604D01*
X154925241Y-95403901D01*
X154837042Y-95309303D01*
X154999303Y-95147042D01*
X155093901Y-95235241D01*
G37*
X155093901Y-95235241D02*
X155094604Y-95235849D01*
X155201870Y-95322102D01*
X155202655Y-95322686D01*
X155313620Y-95398628D01*
X155314484Y-95399169D01*
X155429148Y-95464800D01*
X155430080Y-95465283D01*
X155548442Y-95520604D01*
X155549425Y-95521015D01*
X155671486Y-95566025D01*
X155672502Y-95566352D01*
X155798261Y-95601052D01*
X155799288Y-95601289D01*
X155928746Y-95625678D01*
X155929762Y-95625828D01*
X156062919Y-95639906D01*
X156063904Y-95639971D01*
X156191300Y-95643479D01*
X156506329Y-96816329D01*
X155333479Y-96501300D01*
X155329971Y-96373904D01*
X155329906Y-96372919D01*
X155315828Y-96239762D01*
X155315678Y-96238746D01*
X155291289Y-96109288D01*
X155291052Y-96108261D01*
X155256352Y-95982502D01*
X155256025Y-95981486D01*
X155211015Y-95859425D01*
X155210604Y-95858442D01*
X155155283Y-95740080D01*
X155154800Y-95739148D01*
X155089169Y-95624484D01*
X155088628Y-95623620D01*
X155012686Y-95512655D01*
X155012102Y-95511870D01*
X154925849Y-95404604D01*
X154925241Y-95403901D01*
X154837042Y-95309303D01*
X154999303Y-95147042D01*
X155093901Y-95235241D01*
G36*
X147542696Y-83878497D02*
G01*
X147543119Y-83901253D01*
X147543157Y-83902029D01*
X147545621Y-83932861D01*
X147545717Y-83933700D01*
X147550042Y-83963057D01*
X147550208Y-83963958D01*
X147556397Y-83991840D01*
X147556647Y-83992791D01*
X147564697Y-84019199D01*
X147565044Y-84020188D01*
X147574957Y-84045120D01*
X147575408Y-84046126D01*
X147587184Y-84069583D01*
X147587742Y-84070580D01*
X147601380Y-84092562D01*
X147602041Y-84093525D01*
X147617542Y-84114032D01*
X147618291Y-84114933D01*
X147627478Y-84125004D01*
X147465029Y-84287453D01*
X147454958Y-84278266D01*
X147454057Y-84277517D01*
X147433550Y-84262016D01*
X147432587Y-84261355D01*
X147410605Y-84247717D01*
X147409608Y-84247159D01*
X147386151Y-84235383D01*
X147385145Y-84234932D01*
X147360213Y-84225019D01*
X147359224Y-84224672D01*
X147332816Y-84216622D01*
X147331865Y-84216372D01*
X147303983Y-84210183D01*
X147303082Y-84210017D01*
X147273725Y-84205692D01*
X147272886Y-84205596D01*
X147242054Y-84203132D01*
X147241278Y-84203094D01*
X147218522Y-84202671D01*
X147099471Y-83759446D01*
X147542696Y-83878497D01*
G37*
X147542696Y-83878497D02*
X147543119Y-83901253D01*
X147543157Y-83902029D01*
X147545621Y-83932861D01*
X147545717Y-83933700D01*
X147550042Y-83963057D01*
X147550208Y-83963958D01*
X147556397Y-83991840D01*
X147556647Y-83992791D01*
X147564697Y-84019199D01*
X147565044Y-84020188D01*
X147574957Y-84045120D01*
X147575408Y-84046126D01*
X147587184Y-84069583D01*
X147587742Y-84070580D01*
X147601380Y-84092562D01*
X147602041Y-84093525D01*
X147617542Y-84114032D01*
X147618291Y-84114933D01*
X147627478Y-84125004D01*
X147465029Y-84287453D01*
X147454958Y-84278266D01*
X147454057Y-84277517D01*
X147433550Y-84262016D01*
X147432587Y-84261355D01*
X147410605Y-84247717D01*
X147409608Y-84247159D01*
X147386151Y-84235383D01*
X147385145Y-84234932D01*
X147360213Y-84225019D01*
X147359224Y-84224672D01*
X147332816Y-84216622D01*
X147331865Y-84216372D01*
X147303983Y-84210183D01*
X147303082Y-84210017D01*
X147273725Y-84205692D01*
X147272886Y-84205596D01*
X147242054Y-84203132D01*
X147241278Y-84203094D01*
X147218522Y-84202671D01*
X147099471Y-83759446D01*
X147542696Y-83878497D01*
G36*
X137551925Y-93639647D02*
G01*
X137552674Y-93640301D01*
X137577520Y-93660361D01*
X137578349Y-93660977D01*
X137604336Y-93678677D01*
X137605234Y-93679235D01*
X137632363Y-93694575D01*
X137633315Y-93695062D01*
X137661586Y-93708042D01*
X137662572Y-93708445D01*
X137691984Y-93719065D01*
X137692983Y-93719380D01*
X137723538Y-93727640D01*
X137724528Y-93727866D01*
X137756224Y-93733766D01*
X137757187Y-93733907D01*
X137790025Y-93737447D01*
X137790945Y-93737512D01*
X137812666Y-93738266D01*
X137812666Y-93967733D01*
X137790946Y-93968487D01*
X137790025Y-93968552D01*
X137757187Y-93972092D01*
X137756224Y-93972233D01*
X137724528Y-93978133D01*
X137723538Y-93978359D01*
X137692983Y-93986619D01*
X137691984Y-93986934D01*
X137662572Y-93997554D01*
X137661586Y-93997957D01*
X137633315Y-94010937D01*
X137632363Y-94011424D01*
X137605234Y-94026764D01*
X137604336Y-94027322D01*
X137578349Y-94045022D01*
X137577520Y-94045638D01*
X137552674Y-94065698D01*
X137551925Y-94066353D01*
X137535096Y-94082271D01*
X137137426Y-93853000D01*
X137535095Y-93623729D01*
X137551925Y-93639647D01*
G37*
X137551925Y-93639647D02*
X137552674Y-93640301D01*
X137577520Y-93660361D01*
X137578349Y-93660977D01*
X137604336Y-93678677D01*
X137605234Y-93679235D01*
X137632363Y-93694575D01*
X137633315Y-93695062D01*
X137661586Y-93708042D01*
X137662572Y-93708445D01*
X137691984Y-93719065D01*
X137692983Y-93719380D01*
X137723538Y-93727640D01*
X137724528Y-93727866D01*
X137756224Y-93733766D01*
X137757187Y-93733907D01*
X137790025Y-93737447D01*
X137790945Y-93737512D01*
X137812666Y-93738266D01*
X137812666Y-93967733D01*
X137790946Y-93968487D01*
X137790025Y-93968552D01*
X137757187Y-93972092D01*
X137756224Y-93972233D01*
X137724528Y-93978133D01*
X137723538Y-93978359D01*
X137692983Y-93986619D01*
X137691984Y-93986934D01*
X137662572Y-93997554D01*
X137661586Y-93997957D01*
X137633315Y-94010937D01*
X137632363Y-94011424D01*
X137605234Y-94026764D01*
X137604336Y-94027322D01*
X137578349Y-94045022D01*
X137577520Y-94045638D01*
X137552674Y-94065698D01*
X137551925Y-94066353D01*
X137535096Y-94082271D01*
X137137426Y-93853000D01*
X137535095Y-93623729D01*
X137551925Y-93639647D01*
G36*
X147354809Y-83865210D02*
G01*
X146957140Y-84094481D01*
X146940309Y-84078562D01*
X146939560Y-84077908D01*
X146914714Y-84057848D01*
X146913885Y-84057232D01*
X146887898Y-84039532D01*
X146887000Y-84038974D01*
X146859871Y-84023634D01*
X146858919Y-84023147D01*
X146830648Y-84010167D01*
X146829662Y-84009764D01*
X146800250Y-83999144D01*
X146799251Y-83998829D01*
X146768696Y-83990569D01*
X146767706Y-83990343D01*
X146736010Y-83984443D01*
X146735047Y-83984302D01*
X146702209Y-83980762D01*
X146701288Y-83980697D01*
X146679569Y-83979943D01*
X146679569Y-83750476D01*
X146701289Y-83749722D01*
X146702209Y-83749657D01*
X146735047Y-83746117D01*
X146736010Y-83745976D01*
X146767706Y-83740076D01*
X146768696Y-83739850D01*
X146799251Y-83731590D01*
X146800250Y-83731275D01*
X146829662Y-83720655D01*
X146830648Y-83720252D01*
X146858919Y-83707272D01*
X146859871Y-83706785D01*
X146887000Y-83691445D01*
X146887898Y-83690887D01*
X146913885Y-83673187D01*
X146914714Y-83672571D01*
X146939560Y-83652511D01*
X146940309Y-83651857D01*
X146957140Y-83635939D01*
X147354809Y-83865210D01*
G37*
X147354809Y-83865210D02*
X146957140Y-84094481D01*
X146940309Y-84078562D01*
X146939560Y-84077908D01*
X146914714Y-84057848D01*
X146913885Y-84057232D01*
X146887898Y-84039532D01*
X146887000Y-84038974D01*
X146859871Y-84023634D01*
X146858919Y-84023147D01*
X146830648Y-84010167D01*
X146829662Y-84009764D01*
X146800250Y-83999144D01*
X146799251Y-83998829D01*
X146768696Y-83990569D01*
X146767706Y-83990343D01*
X146736010Y-83984443D01*
X146735047Y-83984302D01*
X146702209Y-83980762D01*
X146701288Y-83980697D01*
X146679569Y-83979943D01*
X146679569Y-83750476D01*
X146701289Y-83749722D01*
X146702209Y-83749657D01*
X146735047Y-83746117D01*
X146736010Y-83745976D01*
X146767706Y-83740076D01*
X146768696Y-83739850D01*
X146799251Y-83731590D01*
X146800250Y-83731275D01*
X146829662Y-83720655D01*
X146830648Y-83720252D01*
X146858919Y-83707272D01*
X146859871Y-83706785D01*
X146887000Y-83691445D01*
X146887898Y-83690887D01*
X146913885Y-83673187D01*
X146914714Y-83672571D01*
X146939560Y-83652511D01*
X146940309Y-83651857D01*
X146957140Y-83635939D01*
X147354809Y-83865210D01*
G36*
X155093901Y-97775241D02*
G01*
X155094604Y-97775849D01*
X155201870Y-97862102D01*
X155202655Y-97862686D01*
X155313620Y-97938628D01*
X155314484Y-97939169D01*
X155429148Y-98004800D01*
X155430080Y-98005283D01*
X155548442Y-98060604D01*
X155549425Y-98061015D01*
X155671486Y-98106025D01*
X155672502Y-98106352D01*
X155798261Y-98141052D01*
X155799288Y-98141289D01*
X155928746Y-98165678D01*
X155929762Y-98165828D01*
X156062919Y-98179906D01*
X156063904Y-98179971D01*
X156191300Y-98183479D01*
X156506329Y-99356329D01*
X155333479Y-99041300D01*
X155329971Y-98913904D01*
X155329906Y-98912919D01*
X155315828Y-98779762D01*
X155315678Y-98778746D01*
X155291289Y-98649288D01*
X155291052Y-98648261D01*
X155256352Y-98522502D01*
X155256025Y-98521486D01*
X155211015Y-98399425D01*
X155210604Y-98398442D01*
X155155283Y-98280080D01*
X155154800Y-98279148D01*
X155089169Y-98164484D01*
X155088628Y-98163620D01*
X155012686Y-98052655D01*
X155012102Y-98051870D01*
X154925849Y-97944604D01*
X154925241Y-97943901D01*
X154837042Y-97849303D01*
X154999303Y-97687042D01*
X155093901Y-97775241D01*
G37*
X155093901Y-97775241D02*
X155094604Y-97775849D01*
X155201870Y-97862102D01*
X155202655Y-97862686D01*
X155313620Y-97938628D01*
X155314484Y-97939169D01*
X155429148Y-98004800D01*
X155430080Y-98005283D01*
X155548442Y-98060604D01*
X155549425Y-98061015D01*
X155671486Y-98106025D01*
X155672502Y-98106352D01*
X155798261Y-98141052D01*
X155799288Y-98141289D01*
X155928746Y-98165678D01*
X155929762Y-98165828D01*
X156062919Y-98179906D01*
X156063904Y-98179971D01*
X156191300Y-98183479D01*
X156506329Y-99356329D01*
X155333479Y-99041300D01*
X155329971Y-98913904D01*
X155329906Y-98912919D01*
X155315828Y-98779762D01*
X155315678Y-98778746D01*
X155291289Y-98649288D01*
X155291052Y-98648261D01*
X155256352Y-98522502D01*
X155256025Y-98521486D01*
X155211015Y-98399425D01*
X155210604Y-98398442D01*
X155155283Y-98280080D01*
X155154800Y-98279148D01*
X155089169Y-98164484D01*
X155088628Y-98163620D01*
X155012686Y-98052655D01*
X155012102Y-98051870D01*
X154925849Y-97944604D01*
X154925241Y-97943901D01*
X154837042Y-97849303D01*
X154999303Y-97687042D01*
X155093901Y-97775241D01*
G36*
X140377881Y-84985893D02*
G01*
X140363056Y-85001785D01*
X140362451Y-85002482D01*
X140341734Y-85028206D01*
X140341153Y-85028987D01*
X140322912Y-85055571D01*
X140322371Y-85056431D01*
X140306607Y-85083877D01*
X140306124Y-85084805D01*
X140292835Y-85113113D01*
X140292423Y-85114096D01*
X140281611Y-85143264D01*
X140281282Y-85144281D01*
X140272946Y-85174311D01*
X140272706Y-85175341D01*
X140266846Y-85206233D01*
X140266695Y-85207254D01*
X140263311Y-85239006D01*
X140263244Y-85239999D01*
X140262600Y-85263156D01*
X139819286Y-85382231D01*
X139938361Y-84938917D01*
X139961517Y-84938272D01*
X139962510Y-84938205D01*
X139994262Y-84934821D01*
X139995283Y-84934670D01*
X140026175Y-84928810D01*
X140027205Y-84928570D01*
X140057235Y-84920234D01*
X140058252Y-84919905D01*
X140087421Y-84909093D01*
X140088404Y-84908681D01*
X140116711Y-84895392D01*
X140117639Y-84894909D01*
X140145085Y-84879145D01*
X140145945Y-84878604D01*
X140172529Y-84860363D01*
X140173310Y-84859782D01*
X140199034Y-84839065D01*
X140199731Y-84838461D01*
X140215624Y-84823636D01*
X140377881Y-84985893D01*
G37*
X140377881Y-84985893D02*
X140363056Y-85001785D01*
X140362451Y-85002482D01*
X140341734Y-85028206D01*
X140341153Y-85028987D01*
X140322912Y-85055571D01*
X140322371Y-85056431D01*
X140306607Y-85083877D01*
X140306124Y-85084805D01*
X140292835Y-85113113D01*
X140292423Y-85114096D01*
X140281611Y-85143264D01*
X140281282Y-85144281D01*
X140272946Y-85174311D01*
X140272706Y-85175341D01*
X140266846Y-85206233D01*
X140266695Y-85207254D01*
X140263311Y-85239006D01*
X140263244Y-85239999D01*
X140262600Y-85263156D01*
X139819286Y-85382231D01*
X139938361Y-84938917D01*
X139961517Y-84938272D01*
X139962510Y-84938205D01*
X139994262Y-84934821D01*
X139995283Y-84934670D01*
X140026175Y-84928810D01*
X140027205Y-84928570D01*
X140057235Y-84920234D01*
X140058252Y-84919905D01*
X140087421Y-84909093D01*
X140088404Y-84908681D01*
X140116711Y-84895392D01*
X140117639Y-84894909D01*
X140145085Y-84879145D01*
X140145945Y-84878604D01*
X140172529Y-84860363D01*
X140173310Y-84859782D01*
X140199034Y-84839065D01*
X140199731Y-84838461D01*
X140215624Y-84823636D01*
X140377881Y-84985893D01*
G36*
X150124925Y-89956647D02*
G01*
X150125674Y-89957301D01*
X150150520Y-89977361D01*
X150151349Y-89977977D01*
X150177336Y-89995677D01*
X150178234Y-89996235D01*
X150205363Y-90011575D01*
X150206315Y-90012062D01*
X150234586Y-90025042D01*
X150235572Y-90025445D01*
X150264984Y-90036065D01*
X150265983Y-90036380D01*
X150296538Y-90044640D01*
X150297528Y-90044866D01*
X150329224Y-90050766D01*
X150330187Y-90050907D01*
X150363025Y-90054447D01*
X150363945Y-90054512D01*
X150385666Y-90055266D01*
X150385666Y-90284733D01*
X150363946Y-90285487D01*
X150363025Y-90285552D01*
X150330187Y-90289092D01*
X150329224Y-90289233D01*
X150297528Y-90295133D01*
X150296538Y-90295359D01*
X150265983Y-90303619D01*
X150264984Y-90303934D01*
X150235572Y-90314554D01*
X150234586Y-90314957D01*
X150206315Y-90327937D01*
X150205363Y-90328424D01*
X150178234Y-90343764D01*
X150177336Y-90344322D01*
X150151349Y-90362022D01*
X150150520Y-90362638D01*
X150125674Y-90382698D01*
X150124925Y-90383353D01*
X150108096Y-90399271D01*
X149710426Y-90170000D01*
X150108095Y-89940729D01*
X150124925Y-89956647D01*
G37*
X150124925Y-89956647D02*
X150125674Y-89957301D01*
X150150520Y-89977361D01*
X150151349Y-89977977D01*
X150177336Y-89995677D01*
X150178234Y-89996235D01*
X150205363Y-90011575D01*
X150206315Y-90012062D01*
X150234586Y-90025042D01*
X150235572Y-90025445D01*
X150264984Y-90036065D01*
X150265983Y-90036380D01*
X150296538Y-90044640D01*
X150297528Y-90044866D01*
X150329224Y-90050766D01*
X150330187Y-90050907D01*
X150363025Y-90054447D01*
X150363945Y-90054512D01*
X150385666Y-90055266D01*
X150385666Y-90284733D01*
X150363946Y-90285487D01*
X150363025Y-90285552D01*
X150330187Y-90289092D01*
X150329224Y-90289233D01*
X150297528Y-90295133D01*
X150296538Y-90295359D01*
X150265983Y-90303619D01*
X150264984Y-90303934D01*
X150235572Y-90314554D01*
X150234586Y-90314957D01*
X150206315Y-90327937D01*
X150205363Y-90328424D01*
X150178234Y-90343764D01*
X150177336Y-90344322D01*
X150151349Y-90362022D01*
X150150520Y-90362638D01*
X150125674Y-90382698D01*
X150124925Y-90383353D01*
X150108096Y-90399271D01*
X149710426Y-90170000D01*
X150108095Y-89940729D01*
X150124925Y-89956647D01*
G36*
X155093901Y-102855241D02*
G01*
X155094604Y-102855849D01*
X155201870Y-102942102D01*
X155202655Y-102942686D01*
X155313620Y-103018628D01*
X155314484Y-103019169D01*
X155429148Y-103084800D01*
X155430080Y-103085283D01*
X155548442Y-103140604D01*
X155549425Y-103141015D01*
X155671486Y-103186025D01*
X155672502Y-103186352D01*
X155798261Y-103221052D01*
X155799288Y-103221289D01*
X155928746Y-103245678D01*
X155929762Y-103245828D01*
X156062919Y-103259906D01*
X156063904Y-103259971D01*
X156191300Y-103263479D01*
X156506329Y-104436329D01*
X155333479Y-104121300D01*
X155329971Y-103993904D01*
X155329906Y-103992919D01*
X155315828Y-103859762D01*
X155315678Y-103858746D01*
X155291289Y-103729288D01*
X155291052Y-103728261D01*
X155256352Y-103602502D01*
X155256025Y-103601486D01*
X155211015Y-103479425D01*
X155210604Y-103478442D01*
X155155283Y-103360080D01*
X155154800Y-103359148D01*
X155089169Y-103244484D01*
X155088628Y-103243620D01*
X155012686Y-103132655D01*
X155012102Y-103131870D01*
X154925849Y-103024604D01*
X154925241Y-103023901D01*
X154837042Y-102929303D01*
X154999303Y-102767042D01*
X155093901Y-102855241D01*
G37*
X155093901Y-102855241D02*
X155094604Y-102855849D01*
X155201870Y-102942102D01*
X155202655Y-102942686D01*
X155313620Y-103018628D01*
X155314484Y-103019169D01*
X155429148Y-103084800D01*
X155430080Y-103085283D01*
X155548442Y-103140604D01*
X155549425Y-103141015D01*
X155671486Y-103186025D01*
X155672502Y-103186352D01*
X155798261Y-103221052D01*
X155799288Y-103221289D01*
X155928746Y-103245678D01*
X155929762Y-103245828D01*
X156062919Y-103259906D01*
X156063904Y-103259971D01*
X156191300Y-103263479D01*
X156506329Y-104436329D01*
X155333479Y-104121300D01*
X155329971Y-103993904D01*
X155329906Y-103992919D01*
X155315828Y-103859762D01*
X155315678Y-103858746D01*
X155291289Y-103729288D01*
X155291052Y-103728261D01*
X155256352Y-103602502D01*
X155256025Y-103601486D01*
X155211015Y-103479425D01*
X155210604Y-103478442D01*
X155155283Y-103360080D01*
X155154800Y-103359148D01*
X155089169Y-103244484D01*
X155088628Y-103243620D01*
X155012686Y-103132655D01*
X155012102Y-103131870D01*
X154925849Y-103024604D01*
X154925241Y-103023901D01*
X154837042Y-102929303D01*
X154999303Y-102767042D01*
X155093901Y-102855241D01*
G36*
X150124925Y-90972647D02*
G01*
X150125674Y-90973301D01*
X150150520Y-90993361D01*
X150151349Y-90993977D01*
X150177336Y-91011677D01*
X150178234Y-91012235D01*
X150205363Y-91027575D01*
X150206315Y-91028062D01*
X150234586Y-91041042D01*
X150235572Y-91041445D01*
X150264984Y-91052065D01*
X150265983Y-91052380D01*
X150296538Y-91060640D01*
X150297528Y-91060866D01*
X150329224Y-91066766D01*
X150330187Y-91066907D01*
X150363025Y-91070447D01*
X150363945Y-91070512D01*
X150385666Y-91071266D01*
X150385666Y-91300733D01*
X150363946Y-91301487D01*
X150363025Y-91301552D01*
X150330187Y-91305092D01*
X150329224Y-91305233D01*
X150297528Y-91311133D01*
X150296538Y-91311359D01*
X150265983Y-91319619D01*
X150264984Y-91319934D01*
X150235572Y-91330554D01*
X150234586Y-91330957D01*
X150206315Y-91343937D01*
X150205363Y-91344424D01*
X150178234Y-91359764D01*
X150177336Y-91360322D01*
X150151349Y-91378022D01*
X150150520Y-91378638D01*
X150125674Y-91398698D01*
X150124925Y-91399353D01*
X150108096Y-91415271D01*
X149710426Y-91186000D01*
X150108095Y-90956729D01*
X150124925Y-90972647D01*
G37*
X150124925Y-90972647D02*
X150125674Y-90973301D01*
X150150520Y-90993361D01*
X150151349Y-90993977D01*
X150177336Y-91011677D01*
X150178234Y-91012235D01*
X150205363Y-91027575D01*
X150206315Y-91028062D01*
X150234586Y-91041042D01*
X150235572Y-91041445D01*
X150264984Y-91052065D01*
X150265983Y-91052380D01*
X150296538Y-91060640D01*
X150297528Y-91060866D01*
X150329224Y-91066766D01*
X150330187Y-91066907D01*
X150363025Y-91070447D01*
X150363945Y-91070512D01*
X150385666Y-91071266D01*
X150385666Y-91300733D01*
X150363946Y-91301487D01*
X150363025Y-91301552D01*
X150330187Y-91305092D01*
X150329224Y-91305233D01*
X150297528Y-91311133D01*
X150296538Y-91311359D01*
X150265983Y-91319619D01*
X150264984Y-91319934D01*
X150235572Y-91330554D01*
X150234586Y-91330957D01*
X150206315Y-91343937D01*
X150205363Y-91344424D01*
X150178234Y-91359764D01*
X150177336Y-91360322D01*
X150151349Y-91378022D01*
X150150520Y-91378638D01*
X150125674Y-91398698D01*
X150124925Y-91399353D01*
X150108096Y-91415271D01*
X149710426Y-91186000D01*
X150108095Y-90956729D01*
X150124925Y-90972647D01*
G36*
X155093901Y-105395241D02*
G01*
X155094604Y-105395849D01*
X155201870Y-105482102D01*
X155202655Y-105482686D01*
X155313620Y-105558628D01*
X155314484Y-105559169D01*
X155429148Y-105624800D01*
X155430080Y-105625283D01*
X155548442Y-105680604D01*
X155549425Y-105681015D01*
X155671486Y-105726025D01*
X155672502Y-105726352D01*
X155798261Y-105761052D01*
X155799288Y-105761289D01*
X155928746Y-105785678D01*
X155929762Y-105785828D01*
X156062919Y-105799906D01*
X156063904Y-105799971D01*
X156191300Y-105803479D01*
X156506329Y-106976329D01*
X155333479Y-106661300D01*
X155329971Y-106533904D01*
X155329906Y-106532919D01*
X155315828Y-106399762D01*
X155315678Y-106398746D01*
X155291289Y-106269288D01*
X155291052Y-106268261D01*
X155256352Y-106142502D01*
X155256025Y-106141486D01*
X155211015Y-106019425D01*
X155210604Y-106018442D01*
X155155283Y-105900080D01*
X155154800Y-105899148D01*
X155089169Y-105784484D01*
X155088628Y-105783620D01*
X155012686Y-105672655D01*
X155012102Y-105671870D01*
X154925849Y-105564604D01*
X154925241Y-105563901D01*
X154837042Y-105469303D01*
X154999303Y-105307042D01*
X155093901Y-105395241D01*
G37*
X155093901Y-105395241D02*
X155094604Y-105395849D01*
X155201870Y-105482102D01*
X155202655Y-105482686D01*
X155313620Y-105558628D01*
X155314484Y-105559169D01*
X155429148Y-105624800D01*
X155430080Y-105625283D01*
X155548442Y-105680604D01*
X155549425Y-105681015D01*
X155671486Y-105726025D01*
X155672502Y-105726352D01*
X155798261Y-105761052D01*
X155799288Y-105761289D01*
X155928746Y-105785678D01*
X155929762Y-105785828D01*
X156062919Y-105799906D01*
X156063904Y-105799971D01*
X156191300Y-105803479D01*
X156506329Y-106976329D01*
X155333479Y-106661300D01*
X155329971Y-106533904D01*
X155329906Y-106532919D01*
X155315828Y-106399762D01*
X155315678Y-106398746D01*
X155291289Y-106269288D01*
X155291052Y-106268261D01*
X155256352Y-106142502D01*
X155256025Y-106141486D01*
X155211015Y-106019425D01*
X155210604Y-106018442D01*
X155155283Y-105900080D01*
X155154800Y-105899148D01*
X155089169Y-105784484D01*
X155088628Y-105783620D01*
X155012686Y-105672655D01*
X155012102Y-105671870D01*
X154925849Y-105564604D01*
X154925241Y-105563901D01*
X154837042Y-105469303D01*
X154999303Y-105307042D01*
X155093901Y-105395241D01*
G36*
X146486590Y-87438015D02*
G01*
X146456419Y-87438850D01*
X146455429Y-87438916D01*
X146416858Y-87443012D01*
X146415839Y-87443162D01*
X146378325Y-87450256D01*
X146377297Y-87450495D01*
X146340840Y-87460588D01*
X146339823Y-87460916D01*
X146304425Y-87474007D01*
X146303442Y-87474419D01*
X146269100Y-87490508D01*
X146268170Y-87490991D01*
X146234887Y-87510079D01*
X146234025Y-87510620D01*
X146201799Y-87532706D01*
X146201016Y-87533288D01*
X146169847Y-87558373D01*
X146169148Y-87558980D01*
X146148007Y-87578697D01*
X146021669Y-87452359D01*
X146041386Y-87431217D01*
X146041992Y-87430518D01*
X146067077Y-87399349D01*
X146067659Y-87398566D01*
X146089745Y-87366340D01*
X146090286Y-87365478D01*
X146109374Y-87332195D01*
X146109857Y-87331265D01*
X146125946Y-87296924D01*
X146126358Y-87295941D01*
X146139449Y-87260542D01*
X146139777Y-87259525D01*
X146149870Y-87223068D01*
X146150109Y-87222040D01*
X146157203Y-87184526D01*
X146157353Y-87183507D01*
X146161449Y-87144936D01*
X146161515Y-87143947D01*
X146162351Y-87113776D01*
X146605664Y-86994702D01*
X146486590Y-87438015D01*
G37*
X146486590Y-87438015D02*
X146456419Y-87438850D01*
X146455429Y-87438916D01*
X146416858Y-87443012D01*
X146415839Y-87443162D01*
X146378325Y-87450256D01*
X146377297Y-87450495D01*
X146340840Y-87460588D01*
X146339823Y-87460916D01*
X146304425Y-87474007D01*
X146303442Y-87474419D01*
X146269100Y-87490508D01*
X146268170Y-87490991D01*
X146234887Y-87510079D01*
X146234025Y-87510620D01*
X146201799Y-87532706D01*
X146201016Y-87533288D01*
X146169847Y-87558373D01*
X146169148Y-87558980D01*
X146148007Y-87578697D01*
X146021669Y-87452359D01*
X146041386Y-87431217D01*
X146041992Y-87430518D01*
X146067077Y-87399349D01*
X146067659Y-87398566D01*
X146089745Y-87366340D01*
X146090286Y-87365478D01*
X146109374Y-87332195D01*
X146109857Y-87331265D01*
X146125946Y-87296924D01*
X146126358Y-87295941D01*
X146139449Y-87260542D01*
X146139777Y-87259525D01*
X146149870Y-87223068D01*
X146150109Y-87222040D01*
X146157203Y-87184526D01*
X146157353Y-87183507D01*
X146161449Y-87144936D01*
X146161515Y-87143947D01*
X146162351Y-87113776D01*
X146605664Y-86994702D01*
X146486590Y-87438015D01*
G36*
X144576248Y-105205486D02*
G01*
X144576947Y-105206092D01*
X144608116Y-105231177D01*
X144608899Y-105231759D01*
X144641125Y-105253845D01*
X144641987Y-105254386D01*
X144675270Y-105273474D01*
X144676200Y-105273957D01*
X144710542Y-105290046D01*
X144711525Y-105290458D01*
X144746923Y-105303549D01*
X144747940Y-105303877D01*
X144784397Y-105313970D01*
X144785425Y-105314209D01*
X144822939Y-105321303D01*
X144823958Y-105321453D01*
X144862529Y-105325549D01*
X144863518Y-105325615D01*
X144893690Y-105326451D01*
X145012764Y-105769764D01*
X144569451Y-105650690D01*
X144568615Y-105620518D01*
X144568549Y-105619529D01*
X144564453Y-105580958D01*
X144564303Y-105579939D01*
X144557209Y-105542425D01*
X144556970Y-105541397D01*
X144546877Y-105504940D01*
X144546549Y-105503923D01*
X144533458Y-105468525D01*
X144533046Y-105467542D01*
X144516957Y-105433200D01*
X144516474Y-105432270D01*
X144497386Y-105398987D01*
X144496845Y-105398125D01*
X144474759Y-105365899D01*
X144474177Y-105365116D01*
X144449092Y-105333947D01*
X144448486Y-105333248D01*
X144428769Y-105312107D01*
X144555107Y-105185769D01*
X144576248Y-105205486D01*
G37*
X144576248Y-105205486D02*
X144576947Y-105206092D01*
X144608116Y-105231177D01*
X144608899Y-105231759D01*
X144641125Y-105253845D01*
X144641987Y-105254386D01*
X144675270Y-105273474D01*
X144676200Y-105273957D01*
X144710542Y-105290046D01*
X144711525Y-105290458D01*
X144746923Y-105303549D01*
X144747940Y-105303877D01*
X144784397Y-105313970D01*
X144785425Y-105314209D01*
X144822939Y-105321303D01*
X144823958Y-105321453D01*
X144862529Y-105325549D01*
X144863518Y-105325615D01*
X144893690Y-105326451D01*
X145012764Y-105769764D01*
X144569451Y-105650690D01*
X144568615Y-105620518D01*
X144568549Y-105619529D01*
X144564453Y-105580958D01*
X144564303Y-105579939D01*
X144557209Y-105542425D01*
X144556970Y-105541397D01*
X144546877Y-105504940D01*
X144546549Y-105503923D01*
X144533458Y-105468525D01*
X144533046Y-105467542D01*
X144516957Y-105433200D01*
X144516474Y-105432270D01*
X144497386Y-105398987D01*
X144496845Y-105398125D01*
X144474759Y-105365899D01*
X144474177Y-105365116D01*
X144449092Y-105333947D01*
X144448486Y-105333248D01*
X144428769Y-105312107D01*
X144555107Y-105185769D01*
X144576248Y-105205486D01*
G36*
X143574572Y-105219806D02*
G01*
X143575356Y-105220473D01*
X143603527Y-105242561D01*
X143604388Y-105243180D01*
X143633969Y-105262621D01*
X143634893Y-105263174D01*
X143665885Y-105279970D01*
X143666853Y-105280443D01*
X143699255Y-105294593D01*
X143700247Y-105294977D01*
X143734058Y-105306481D01*
X143735052Y-105306774D01*
X143770275Y-105315632D01*
X143771248Y-105315837D01*
X143807880Y-105322050D01*
X143808818Y-105322174D01*
X143846861Y-105325741D01*
X143847750Y-105325793D01*
X143877701Y-105326493D01*
X143996764Y-105769764D01*
X143553493Y-105650701D01*
X143552793Y-105620750D01*
X143552741Y-105619861D01*
X143549174Y-105581818D01*
X143549050Y-105580880D01*
X143542837Y-105544248D01*
X143542632Y-105543275D01*
X143533774Y-105508052D01*
X143533481Y-105507058D01*
X143521977Y-105473247D01*
X143521593Y-105472255D01*
X143507443Y-105439853D01*
X143506970Y-105438885D01*
X143490174Y-105407893D01*
X143489621Y-105406969D01*
X143470180Y-105377388D01*
X143469561Y-105376527D01*
X143447473Y-105348356D01*
X143446806Y-105347572D01*
X143430361Y-105329778D01*
X143556778Y-105203361D01*
X143574572Y-105219806D01*
G37*
X143574572Y-105219806D02*
X143575356Y-105220473D01*
X143603527Y-105242561D01*
X143604388Y-105243180D01*
X143633969Y-105262621D01*
X143634893Y-105263174D01*
X143665885Y-105279970D01*
X143666853Y-105280443D01*
X143699255Y-105294593D01*
X143700247Y-105294977D01*
X143734058Y-105306481D01*
X143735052Y-105306774D01*
X143770275Y-105315632D01*
X143771248Y-105315837D01*
X143807880Y-105322050D01*
X143808818Y-105322174D01*
X143846861Y-105325741D01*
X143847750Y-105325793D01*
X143877701Y-105326493D01*
X143996764Y-105769764D01*
X143553493Y-105650701D01*
X143552793Y-105620750D01*
X143552741Y-105619861D01*
X143549174Y-105581818D01*
X143549050Y-105580880D01*
X143542837Y-105544248D01*
X143542632Y-105543275D01*
X143533774Y-105508052D01*
X143533481Y-105507058D01*
X143521977Y-105473247D01*
X143521593Y-105472255D01*
X143507443Y-105439853D01*
X143506970Y-105438885D01*
X143490174Y-105407893D01*
X143489621Y-105406969D01*
X143470180Y-105377388D01*
X143469561Y-105376527D01*
X143447473Y-105348356D01*
X143446806Y-105347572D01*
X143430361Y-105329778D01*
X143556778Y-105203361D01*
X143574572Y-105219806D01*
G36*
X145585391Y-87377759D02*
G01*
X145555220Y-87378594D01*
X145554230Y-87378660D01*
X145515659Y-87382756D01*
X145514640Y-87382906D01*
X145477126Y-87390000D01*
X145476098Y-87390239D01*
X145439641Y-87400332D01*
X145438624Y-87400660D01*
X145403226Y-87413751D01*
X145402243Y-87414163D01*
X145367901Y-87430252D01*
X145366971Y-87430735D01*
X145333688Y-87449823D01*
X145332826Y-87450364D01*
X145300600Y-87472450D01*
X145299817Y-87473032D01*
X145268648Y-87498117D01*
X145267949Y-87498724D01*
X145246808Y-87518441D01*
X145120470Y-87392103D01*
X145140187Y-87370961D01*
X145140793Y-87370262D01*
X145165878Y-87339093D01*
X145166460Y-87338310D01*
X145188546Y-87306084D01*
X145189087Y-87305222D01*
X145208175Y-87271939D01*
X145208658Y-87271009D01*
X145224747Y-87236668D01*
X145225159Y-87235685D01*
X145238250Y-87200286D01*
X145238578Y-87199269D01*
X145248671Y-87162812D01*
X145248910Y-87161784D01*
X145256004Y-87124270D01*
X145256154Y-87123251D01*
X145260250Y-87084680D01*
X145260316Y-87083691D01*
X145261152Y-87053520D01*
X145704465Y-86934446D01*
X145585391Y-87377759D01*
G37*
X145585391Y-87377759D02*
X145555220Y-87378594D01*
X145554230Y-87378660D01*
X145515659Y-87382756D01*
X145514640Y-87382906D01*
X145477126Y-87390000D01*
X145476098Y-87390239D01*
X145439641Y-87400332D01*
X145438624Y-87400660D01*
X145403226Y-87413751D01*
X145402243Y-87414163D01*
X145367901Y-87430252D01*
X145366971Y-87430735D01*
X145333688Y-87449823D01*
X145332826Y-87450364D01*
X145300600Y-87472450D01*
X145299817Y-87473032D01*
X145268648Y-87498117D01*
X145267949Y-87498724D01*
X145246808Y-87518441D01*
X145120470Y-87392103D01*
X145140187Y-87370961D01*
X145140793Y-87370262D01*
X145165878Y-87339093D01*
X145166460Y-87338310D01*
X145188546Y-87306084D01*
X145189087Y-87305222D01*
X145208175Y-87271939D01*
X145208658Y-87271009D01*
X145224747Y-87236668D01*
X145225159Y-87235685D01*
X145238250Y-87200286D01*
X145238578Y-87199269D01*
X145248671Y-87162812D01*
X145248910Y-87161784D01*
X145256004Y-87124270D01*
X145256154Y-87123251D01*
X145260250Y-87084680D01*
X145260316Y-87083691D01*
X145261152Y-87053520D01*
X145704465Y-86934446D01*
X145585391Y-87377759D01*
M02*
