G04 #@! TF.GenerationSoftware,KiCad,Pcbnew,5.1.6-c6e7f7d~87~ubuntu18.04.1*
G04 #@! TF.CreationDate,2022-09-28T14:17:23+03:00*
G04 #@! TF.ProjectId,ESP32-C3-DevKit-Lipo_Rev_B,45535033-322d-4433-932d-4465764b6974,B*
G04 #@! TF.SameCoordinates,Original*
G04 #@! TF.FileFunction,Legend,Bot*
G04 #@! TF.FilePolarity,Positive*
%FSLAX46Y46*%
G04 Gerber Fmt 4.6, Leading zero omitted, Abs format (unit mm)*
G04 Created by KiCad (PCBNEW 5.1.6-c6e7f7d~87~ubuntu18.04.1) date 2022-09-28 14:17:23*
%MOMM*%
%LPD*%
G01*
G04 APERTURE LIST*
%ADD10C,0.254000*%
%ADD11C,0.190500*%
%ADD12C,0.158750*%
%ADD13C,0.317500*%
%ADD14C,0.150000*%
%ADD15C,0.127000*%
%ADD16C,0.200000*%
%ADD17C,0.010000*%
%ADD18C,0.300000*%
%ADD19C,0.009000*%
%ADD20C,0.152400*%
G04 APERTURE END LIST*
D10*
X153872595Y-86432571D02*
X153098500Y-86432571D01*
X153485547Y-86819619D02*
X153485547Y-86045523D01*
X152711452Y-85803619D02*
X152082500Y-85803619D01*
X152421166Y-86190666D01*
X152276023Y-86190666D01*
X152179261Y-86239047D01*
X152130880Y-86287428D01*
X152082500Y-86384190D01*
X152082500Y-86626095D01*
X152130880Y-86722857D01*
X152179261Y-86771238D01*
X152276023Y-86819619D01*
X152566309Y-86819619D01*
X152663071Y-86771238D01*
X152711452Y-86722857D01*
X151792214Y-85803619D02*
X151453547Y-86819619D01*
X151114880Y-85803619D01*
X150872976Y-85803619D02*
X150244023Y-85803619D01*
X150582690Y-86190666D01*
X150437547Y-86190666D01*
X150340785Y-86239047D01*
X150292404Y-86287428D01*
X150244023Y-86384190D01*
X150244023Y-86626095D01*
X150292404Y-86722857D01*
X150340785Y-86771238D01*
X150437547Y-86819619D01*
X150727833Y-86819619D01*
X150824595Y-86771238D01*
X150872976Y-86722857D01*
X153174095Y-88392000D02*
X153270857Y-88343619D01*
X153416000Y-88343619D01*
X153561142Y-88392000D01*
X153657904Y-88488761D01*
X153706285Y-88585523D01*
X153754666Y-88779047D01*
X153754666Y-88924190D01*
X153706285Y-89117714D01*
X153657904Y-89214476D01*
X153561142Y-89311238D01*
X153416000Y-89359619D01*
X153319238Y-89359619D01*
X153174095Y-89311238D01*
X153125714Y-89262857D01*
X153125714Y-88924190D01*
X153319238Y-88924190D01*
X152690285Y-89359619D02*
X152690285Y-88343619D01*
X152109714Y-89359619D01*
X152109714Y-88343619D01*
X151625904Y-89359619D02*
X151625904Y-88343619D01*
X151384000Y-88343619D01*
X151238857Y-88392000D01*
X151142095Y-88488761D01*
X151093714Y-88585523D01*
X151045333Y-88779047D01*
X151045333Y-88924190D01*
X151093714Y-89117714D01*
X151142095Y-89214476D01*
X151238857Y-89311238D01*
X151384000Y-89359619D01*
X151625904Y-89359619D01*
D11*
X154468285Y-91385571D02*
X154214285Y-91385571D01*
X154105428Y-91784714D02*
X154468285Y-91784714D01*
X154468285Y-91022714D01*
X154105428Y-91022714D01*
X153815142Y-91748428D02*
X153706285Y-91784714D01*
X153524857Y-91784714D01*
X153452285Y-91748428D01*
X153416000Y-91712142D01*
X153379714Y-91639571D01*
X153379714Y-91567000D01*
X153416000Y-91494428D01*
X153452285Y-91458142D01*
X153524857Y-91421857D01*
X153670000Y-91385571D01*
X153742571Y-91349285D01*
X153778857Y-91313000D01*
X153815142Y-91240428D01*
X153815142Y-91167857D01*
X153778857Y-91095285D01*
X153742571Y-91059000D01*
X153670000Y-91022714D01*
X153488571Y-91022714D01*
X153379714Y-91059000D01*
X153053142Y-91784714D02*
X153053142Y-91022714D01*
X152762857Y-91022714D01*
X152690285Y-91059000D01*
X152654000Y-91095285D01*
X152617714Y-91167857D01*
X152617714Y-91276714D01*
X152654000Y-91349285D01*
X152690285Y-91385571D01*
X152762857Y-91421857D01*
X153053142Y-91421857D01*
X152472571Y-91857285D02*
X151892000Y-91857285D01*
X151710571Y-91385571D02*
X151456571Y-91385571D01*
X151347714Y-91784714D02*
X151710571Y-91784714D01*
X151710571Y-91022714D01*
X151347714Y-91022714D01*
X151021142Y-91784714D02*
X151021142Y-91022714D01*
X150585714Y-91784714D01*
X150585714Y-91022714D01*
X154413857Y-94324714D02*
X154413857Y-93562714D01*
X153905857Y-93562714D02*
X153760714Y-93562714D01*
X153688142Y-93599000D01*
X153615571Y-93671571D01*
X153579285Y-93816714D01*
X153579285Y-94070714D01*
X153615571Y-94215857D01*
X153688142Y-94288428D01*
X153760714Y-94324714D01*
X153905857Y-94324714D01*
X153978428Y-94288428D01*
X154051000Y-94215857D01*
X154087285Y-94070714D01*
X154087285Y-93816714D01*
X154051000Y-93671571D01*
X153978428Y-93599000D01*
X153905857Y-93562714D01*
X153289000Y-93635285D02*
X153252714Y-93599000D01*
X153180142Y-93562714D01*
X152998714Y-93562714D01*
X152926142Y-93599000D01*
X152889857Y-93635285D01*
X152853571Y-93707857D01*
X152853571Y-93780428D01*
X152889857Y-93889285D01*
X153325285Y-94324714D01*
X152853571Y-94324714D01*
X152127857Y-94324714D02*
X152563285Y-94324714D01*
X152345571Y-94324714D02*
X152345571Y-93562714D01*
X152418142Y-93671571D01*
X152490714Y-93744142D01*
X152563285Y-93780428D01*
X154413857Y-96864714D02*
X154413857Y-96102714D01*
X153905857Y-96102714D02*
X153760714Y-96102714D01*
X153688142Y-96139000D01*
X153615571Y-96211571D01*
X153579285Y-96356714D01*
X153579285Y-96610714D01*
X153615571Y-96755857D01*
X153688142Y-96828428D01*
X153760714Y-96864714D01*
X153905857Y-96864714D01*
X153978428Y-96828428D01*
X154051000Y-96755857D01*
X154087285Y-96610714D01*
X154087285Y-96356714D01*
X154051000Y-96211571D01*
X153978428Y-96139000D01*
X153905857Y-96102714D01*
X153289000Y-96175285D02*
X153252714Y-96139000D01*
X153180142Y-96102714D01*
X152998714Y-96102714D01*
X152926142Y-96139000D01*
X152889857Y-96175285D01*
X152853571Y-96247857D01*
X152853571Y-96320428D01*
X152889857Y-96429285D01*
X153325285Y-96864714D01*
X152853571Y-96864714D01*
X152381857Y-96102714D02*
X152309285Y-96102714D01*
X152236714Y-96139000D01*
X152200428Y-96175285D01*
X152164142Y-96247857D01*
X152127857Y-96393000D01*
X152127857Y-96574428D01*
X152164142Y-96719571D01*
X152200428Y-96792142D01*
X152236714Y-96828428D01*
X152309285Y-96864714D01*
X152381857Y-96864714D01*
X152454428Y-96828428D01*
X152490714Y-96792142D01*
X152527000Y-96719571D01*
X152563285Y-96574428D01*
X152563285Y-96393000D01*
X152527000Y-96247857D01*
X152490714Y-96175285D01*
X152454428Y-96139000D01*
X152381857Y-96102714D01*
X154413857Y-99404714D02*
X154413857Y-98642714D01*
X153905857Y-98642714D02*
X153760714Y-98642714D01*
X153688142Y-98679000D01*
X153615571Y-98751571D01*
X153579285Y-98896714D01*
X153579285Y-99150714D01*
X153615571Y-99295857D01*
X153688142Y-99368428D01*
X153760714Y-99404714D01*
X153905857Y-99404714D01*
X153978428Y-99368428D01*
X154051000Y-99295857D01*
X154087285Y-99150714D01*
X154087285Y-98896714D01*
X154051000Y-98751571D01*
X153978428Y-98679000D01*
X153905857Y-98642714D01*
X152853571Y-99404714D02*
X153289000Y-99404714D01*
X153071285Y-99404714D02*
X153071285Y-98642714D01*
X153143857Y-98751571D01*
X153216428Y-98824142D01*
X153289000Y-98860428D01*
X152381857Y-98642714D02*
X152309285Y-98642714D01*
X152236714Y-98679000D01*
X152200428Y-98715285D01*
X152164142Y-98787857D01*
X152127857Y-98933000D01*
X152127857Y-99114428D01*
X152164142Y-99259571D01*
X152200428Y-99332142D01*
X152236714Y-99368428D01*
X152309285Y-99404714D01*
X152381857Y-99404714D01*
X152454428Y-99368428D01*
X152490714Y-99332142D01*
X152527000Y-99259571D01*
X152563285Y-99114428D01*
X152563285Y-98933000D01*
X152527000Y-98787857D01*
X152490714Y-98715285D01*
X152454428Y-98679000D01*
X152381857Y-98642714D01*
X154432000Y-101944714D02*
X154432000Y-101182714D01*
X153924000Y-101182714D02*
X153778857Y-101182714D01*
X153706285Y-101219000D01*
X153633714Y-101291571D01*
X153597428Y-101436714D01*
X153597428Y-101690714D01*
X153633714Y-101835857D01*
X153706285Y-101908428D01*
X153778857Y-101944714D01*
X153924000Y-101944714D01*
X153996571Y-101908428D01*
X154069142Y-101835857D01*
X154105428Y-101690714D01*
X154105428Y-101436714D01*
X154069142Y-101291571D01*
X153996571Y-101219000D01*
X153924000Y-101182714D01*
X153234571Y-101944714D02*
X153089428Y-101944714D01*
X153016857Y-101908428D01*
X152980571Y-101872142D01*
X152908000Y-101763285D01*
X152871714Y-101618142D01*
X152871714Y-101327857D01*
X152908000Y-101255285D01*
X152944285Y-101219000D01*
X153016857Y-101182714D01*
X153162000Y-101182714D01*
X153234571Y-101219000D01*
X153270857Y-101255285D01*
X153307142Y-101327857D01*
X153307142Y-101509285D01*
X153270857Y-101581857D01*
X153234571Y-101618142D01*
X153162000Y-101654428D01*
X153016857Y-101654428D01*
X152944285Y-101618142D01*
X152908000Y-101581857D01*
X152871714Y-101509285D01*
X154432000Y-104484714D02*
X154432000Y-103722714D01*
X153924000Y-103722714D02*
X153778857Y-103722714D01*
X153706285Y-103759000D01*
X153633714Y-103831571D01*
X153597428Y-103976714D01*
X153597428Y-104230714D01*
X153633714Y-104375857D01*
X153706285Y-104448428D01*
X153778857Y-104484714D01*
X153924000Y-104484714D01*
X153996571Y-104448428D01*
X154069142Y-104375857D01*
X154105428Y-104230714D01*
X154105428Y-103976714D01*
X154069142Y-103831571D01*
X153996571Y-103759000D01*
X153924000Y-103722714D01*
X153162000Y-104049285D02*
X153234571Y-104013000D01*
X153270857Y-103976714D01*
X153307142Y-103904142D01*
X153307142Y-103867857D01*
X153270857Y-103795285D01*
X153234571Y-103759000D01*
X153162000Y-103722714D01*
X153016857Y-103722714D01*
X152944285Y-103759000D01*
X152908000Y-103795285D01*
X152871714Y-103867857D01*
X152871714Y-103904142D01*
X152908000Y-103976714D01*
X152944285Y-104013000D01*
X153016857Y-104049285D01*
X153162000Y-104049285D01*
X153234571Y-104085571D01*
X153270857Y-104121857D01*
X153307142Y-104194428D01*
X153307142Y-104339571D01*
X153270857Y-104412142D01*
X153234571Y-104448428D01*
X153162000Y-104484714D01*
X153016857Y-104484714D01*
X152944285Y-104448428D01*
X152908000Y-104412142D01*
X152871714Y-104339571D01*
X152871714Y-104194428D01*
X152908000Y-104121857D01*
X152944285Y-104085571D01*
X153016857Y-104049285D01*
X154432000Y-107024714D02*
X154432000Y-106262714D01*
X153924000Y-106262714D02*
X153778857Y-106262714D01*
X153706285Y-106299000D01*
X153633714Y-106371571D01*
X153597428Y-106516714D01*
X153597428Y-106770714D01*
X153633714Y-106915857D01*
X153706285Y-106988428D01*
X153778857Y-107024714D01*
X153924000Y-107024714D01*
X153996571Y-106988428D01*
X154069142Y-106915857D01*
X154105428Y-106770714D01*
X154105428Y-106516714D01*
X154069142Y-106371571D01*
X153996571Y-106299000D01*
X153924000Y-106262714D01*
X153343428Y-106262714D02*
X152835428Y-106262714D01*
X153162000Y-107024714D01*
D10*
X138024809Y-103849714D02*
X137057190Y-103849714D01*
D11*
X134112000Y-107659714D02*
X134112000Y-106897714D01*
X133604000Y-106897714D02*
X133458857Y-106897714D01*
X133386285Y-106934000D01*
X133313714Y-107006571D01*
X133277428Y-107151714D01*
X133277428Y-107405714D01*
X133313714Y-107550857D01*
X133386285Y-107623428D01*
X133458857Y-107659714D01*
X133604000Y-107659714D01*
X133676571Y-107623428D01*
X133749142Y-107550857D01*
X133785428Y-107405714D01*
X133785428Y-107151714D01*
X133749142Y-107006571D01*
X133676571Y-106934000D01*
X133604000Y-106897714D01*
X132624285Y-106897714D02*
X132769428Y-106897714D01*
X132842000Y-106934000D01*
X132878285Y-106970285D01*
X132950857Y-107079142D01*
X132987142Y-107224285D01*
X132987142Y-107514571D01*
X132950857Y-107587142D01*
X132914571Y-107623428D01*
X132842000Y-107659714D01*
X132696857Y-107659714D01*
X132624285Y-107623428D01*
X132588000Y-107587142D01*
X132551714Y-107514571D01*
X132551714Y-107333142D01*
X132588000Y-107260571D01*
X132624285Y-107224285D01*
X132696857Y-107188000D01*
X132842000Y-107188000D01*
X132914571Y-107224285D01*
X132950857Y-107260571D01*
X132987142Y-107333142D01*
X134112000Y-104484714D02*
X134112000Y-103722714D01*
X133604000Y-103722714D02*
X133458857Y-103722714D01*
X133386285Y-103759000D01*
X133313714Y-103831571D01*
X133277428Y-103976714D01*
X133277428Y-104230714D01*
X133313714Y-104375857D01*
X133386285Y-104448428D01*
X133458857Y-104484714D01*
X133604000Y-104484714D01*
X133676571Y-104448428D01*
X133749142Y-104375857D01*
X133785428Y-104230714D01*
X133785428Y-103976714D01*
X133749142Y-103831571D01*
X133676571Y-103759000D01*
X133604000Y-103722714D01*
X132588000Y-103722714D02*
X132950857Y-103722714D01*
X132987142Y-104085571D01*
X132950857Y-104049285D01*
X132878285Y-104013000D01*
X132696857Y-104013000D01*
X132624285Y-104049285D01*
X132588000Y-104085571D01*
X132551714Y-104158142D01*
X132551714Y-104339571D01*
X132588000Y-104412142D01*
X132624285Y-104448428D01*
X132696857Y-104484714D01*
X132878285Y-104484714D01*
X132950857Y-104448428D01*
X132987142Y-104412142D01*
X134112000Y-101944714D02*
X134112000Y-101182714D01*
X133604000Y-101182714D02*
X133458857Y-101182714D01*
X133386285Y-101219000D01*
X133313714Y-101291571D01*
X133277428Y-101436714D01*
X133277428Y-101690714D01*
X133313714Y-101835857D01*
X133386285Y-101908428D01*
X133458857Y-101944714D01*
X133604000Y-101944714D01*
X133676571Y-101908428D01*
X133749142Y-101835857D01*
X133785428Y-101690714D01*
X133785428Y-101436714D01*
X133749142Y-101291571D01*
X133676571Y-101219000D01*
X133604000Y-101182714D01*
X132624285Y-101436714D02*
X132624285Y-101944714D01*
X132805714Y-101146428D02*
X132987142Y-101690714D01*
X132515428Y-101690714D01*
X134366000Y-99912714D02*
X134366000Y-99150714D01*
X133858000Y-99150714D02*
X133712857Y-99150714D01*
X133640285Y-99187000D01*
X133567714Y-99259571D01*
X133531428Y-99404714D01*
X133531428Y-99658714D01*
X133567714Y-99803857D01*
X133640285Y-99876428D01*
X133712857Y-99912714D01*
X133858000Y-99912714D01*
X133930571Y-99876428D01*
X134003142Y-99803857D01*
X134039428Y-99658714D01*
X134039428Y-99404714D01*
X134003142Y-99259571D01*
X133930571Y-99187000D01*
X133858000Y-99150714D01*
X133277428Y-99150714D02*
X132805714Y-99150714D01*
X133059714Y-99441000D01*
X132950857Y-99441000D01*
X132878285Y-99477285D01*
X132842000Y-99513571D01*
X132805714Y-99586142D01*
X132805714Y-99767571D01*
X132842000Y-99840142D01*
X132878285Y-99876428D01*
X132950857Y-99912714D01*
X133168571Y-99912714D01*
X133241142Y-99876428D01*
X133277428Y-99840142D01*
X134112000Y-96864714D02*
X134112000Y-96102714D01*
X133604000Y-96102714D02*
X133458857Y-96102714D01*
X133386285Y-96139000D01*
X133313714Y-96211571D01*
X133277428Y-96356714D01*
X133277428Y-96610714D01*
X133313714Y-96755857D01*
X133386285Y-96828428D01*
X133458857Y-96864714D01*
X133604000Y-96864714D01*
X133676571Y-96828428D01*
X133749142Y-96755857D01*
X133785428Y-96610714D01*
X133785428Y-96356714D01*
X133749142Y-96211571D01*
X133676571Y-96139000D01*
X133604000Y-96102714D01*
X132987142Y-96175285D02*
X132950857Y-96139000D01*
X132878285Y-96102714D01*
X132696857Y-96102714D01*
X132624285Y-96139000D01*
X132588000Y-96175285D01*
X132551714Y-96247857D01*
X132551714Y-96320428D01*
X132588000Y-96429285D01*
X133023428Y-96864714D01*
X132551714Y-96864714D01*
X134112000Y-94324714D02*
X134112000Y-93562714D01*
X133604000Y-93562714D02*
X133458857Y-93562714D01*
X133386285Y-93599000D01*
X133313714Y-93671571D01*
X133277428Y-93816714D01*
X133277428Y-94070714D01*
X133313714Y-94215857D01*
X133386285Y-94288428D01*
X133458857Y-94324714D01*
X133604000Y-94324714D01*
X133676571Y-94288428D01*
X133749142Y-94215857D01*
X133785428Y-94070714D01*
X133785428Y-93816714D01*
X133749142Y-93671571D01*
X133676571Y-93599000D01*
X133604000Y-93562714D01*
X132551714Y-94324714D02*
X132987142Y-94324714D01*
X132769428Y-94324714D02*
X132769428Y-93562714D01*
X132842000Y-93671571D01*
X132914571Y-93744142D01*
X132987142Y-93780428D01*
D10*
X139836071Y-78295500D02*
X138693071Y-78295500D01*
X139836071Y-78785357D02*
X139237357Y-78785357D01*
X139128500Y-78730928D01*
X139074071Y-78622071D01*
X139074071Y-78458785D01*
X139128500Y-78349928D01*
X139182928Y-78295500D01*
X139074071Y-79166357D02*
X139074071Y-79601785D01*
X138693071Y-79329642D02*
X139672785Y-79329642D01*
X139781642Y-79384071D01*
X139836071Y-79492928D01*
X139836071Y-79601785D01*
X139074071Y-79819500D02*
X139074071Y-80254928D01*
X138693071Y-79982785D02*
X139672785Y-79982785D01*
X139781642Y-80037214D01*
X139836071Y-80146071D01*
X139836071Y-80254928D01*
X139074071Y-80635928D02*
X140217071Y-80635928D01*
X139128500Y-80635928D02*
X139074071Y-80744785D01*
X139074071Y-80962500D01*
X139128500Y-81071357D01*
X139182928Y-81125785D01*
X139291785Y-81180214D01*
X139618357Y-81180214D01*
X139727214Y-81125785D01*
X139781642Y-81071357D01*
X139836071Y-80962500D01*
X139836071Y-80744785D01*
X139781642Y-80635928D01*
X139781642Y-81615642D02*
X139836071Y-81724500D01*
X139836071Y-81942214D01*
X139781642Y-82051071D01*
X139672785Y-82105500D01*
X139618357Y-82105500D01*
X139509500Y-82051071D01*
X139455071Y-81942214D01*
X139455071Y-81778928D01*
X139400642Y-81670071D01*
X139291785Y-81615642D01*
X139237357Y-81615642D01*
X139128500Y-81670071D01*
X139074071Y-81778928D01*
X139074071Y-81942214D01*
X139128500Y-82051071D01*
X139727214Y-82595357D02*
X139781642Y-82649785D01*
X139836071Y-82595357D01*
X139781642Y-82540928D01*
X139727214Y-82595357D01*
X139836071Y-82595357D01*
X139128500Y-82595357D02*
X139182928Y-82649785D01*
X139237357Y-82595357D01*
X139182928Y-82540928D01*
X139128500Y-82595357D01*
X139237357Y-82595357D01*
X138638642Y-83956071D02*
X140108214Y-82976357D01*
X138638642Y-85153500D02*
X140108214Y-84173785D01*
X139074071Y-85425642D02*
X139836071Y-85643357D01*
X139291785Y-85861071D01*
X139836071Y-86078785D01*
X139074071Y-86296500D01*
X139074071Y-86623071D02*
X139836071Y-86840785D01*
X139291785Y-87058500D01*
X139836071Y-87276214D01*
X139074071Y-87493928D01*
X139074071Y-87820500D02*
X139836071Y-88038214D01*
X139291785Y-88255928D01*
X139836071Y-88473642D01*
X139074071Y-88691357D01*
X139727214Y-89126785D02*
X139781642Y-89181214D01*
X139836071Y-89126785D01*
X139781642Y-89072357D01*
X139727214Y-89126785D01*
X139836071Y-89126785D01*
X139836071Y-89834357D02*
X139781642Y-89725500D01*
X139727214Y-89671071D01*
X139618357Y-89616642D01*
X139291785Y-89616642D01*
X139182928Y-89671071D01*
X139128500Y-89725500D01*
X139074071Y-89834357D01*
X139074071Y-89997642D01*
X139128500Y-90106500D01*
X139182928Y-90160928D01*
X139291785Y-90215357D01*
X139618357Y-90215357D01*
X139727214Y-90160928D01*
X139781642Y-90106500D01*
X139836071Y-89997642D01*
X139836071Y-89834357D01*
X139836071Y-90868500D02*
X139781642Y-90759642D01*
X139672785Y-90705214D01*
X138693071Y-90705214D01*
X139836071Y-91303928D02*
X139074071Y-91303928D01*
X138693071Y-91303928D02*
X138747500Y-91249500D01*
X138801928Y-91303928D01*
X138747500Y-91358357D01*
X138693071Y-91303928D01*
X138801928Y-91303928D01*
X139836071Y-91848214D02*
X139074071Y-91848214D01*
X139182928Y-91848214D02*
X139128500Y-91902642D01*
X139074071Y-92011500D01*
X139074071Y-92174785D01*
X139128500Y-92283642D01*
X139237357Y-92338071D01*
X139836071Y-92338071D01*
X139237357Y-92338071D02*
X139128500Y-92392500D01*
X139074071Y-92501357D01*
X139074071Y-92664642D01*
X139128500Y-92773500D01*
X139237357Y-92827928D01*
X139836071Y-92827928D01*
X139781642Y-93807642D02*
X139836071Y-93698785D01*
X139836071Y-93481071D01*
X139781642Y-93372214D01*
X139672785Y-93317785D01*
X139237357Y-93317785D01*
X139128500Y-93372214D01*
X139074071Y-93481071D01*
X139074071Y-93698785D01*
X139128500Y-93807642D01*
X139237357Y-93862071D01*
X139346214Y-93862071D01*
X139455071Y-93317785D01*
X139836071Y-94243071D02*
X139074071Y-94841785D01*
X139074071Y-94243071D02*
X139836071Y-94841785D01*
X139727214Y-95277214D02*
X139781642Y-95331642D01*
X139836071Y-95277214D01*
X139781642Y-95222785D01*
X139727214Y-95277214D01*
X139836071Y-95277214D01*
X139781642Y-96311357D02*
X139836071Y-96202500D01*
X139836071Y-95984785D01*
X139781642Y-95875928D01*
X139727214Y-95821500D01*
X139618357Y-95767071D01*
X139291785Y-95767071D01*
X139182928Y-95821500D01*
X139128500Y-95875928D01*
X139074071Y-95984785D01*
X139074071Y-96202500D01*
X139128500Y-96311357D01*
X139836071Y-96964500D02*
X139781642Y-96855642D01*
X139727214Y-96801214D01*
X139618357Y-96746785D01*
X139291785Y-96746785D01*
X139182928Y-96801214D01*
X139128500Y-96855642D01*
X139074071Y-96964500D01*
X139074071Y-97127785D01*
X139128500Y-97236642D01*
X139182928Y-97291071D01*
X139291785Y-97345500D01*
X139618357Y-97345500D01*
X139727214Y-97291071D01*
X139781642Y-97236642D01*
X139836071Y-97127785D01*
X139836071Y-96964500D01*
X139836071Y-97835357D02*
X139074071Y-97835357D01*
X139182928Y-97835357D02*
X139128500Y-97889785D01*
X139074071Y-97998642D01*
X139074071Y-98161928D01*
X139128500Y-98270785D01*
X139237357Y-98325214D01*
X139836071Y-98325214D01*
X139237357Y-98325214D02*
X139128500Y-98379642D01*
X139074071Y-98488500D01*
X139074071Y-98651785D01*
X139128500Y-98760642D01*
X139237357Y-98815071D01*
X139836071Y-98815071D01*
X138638642Y-100175785D02*
X140108214Y-99196071D01*
D11*
X134112000Y-91784714D02*
X134112000Y-91022714D01*
X133604000Y-91022714D02*
X133458857Y-91022714D01*
X133386285Y-91059000D01*
X133313714Y-91131571D01*
X133277428Y-91276714D01*
X133277428Y-91530714D01*
X133313714Y-91675857D01*
X133386285Y-91748428D01*
X133458857Y-91784714D01*
X133604000Y-91784714D01*
X133676571Y-91748428D01*
X133749142Y-91675857D01*
X133785428Y-91530714D01*
X133785428Y-91276714D01*
X133749142Y-91131571D01*
X133676571Y-91059000D01*
X133604000Y-91022714D01*
X132805714Y-91022714D02*
X132733142Y-91022714D01*
X132660571Y-91059000D01*
X132624285Y-91095285D01*
X132588000Y-91167857D01*
X132551714Y-91313000D01*
X132551714Y-91494428D01*
X132588000Y-91639571D01*
X132624285Y-91712142D01*
X132660571Y-91748428D01*
X132733142Y-91784714D01*
X132805714Y-91784714D01*
X132878285Y-91748428D01*
X132914571Y-91712142D01*
X132950857Y-91639571D01*
X132987142Y-91494428D01*
X132987142Y-91313000D01*
X132950857Y-91167857D01*
X132914571Y-91095285D01*
X132878285Y-91059000D01*
X132805714Y-91022714D01*
D10*
X135013095Y-88392000D02*
X135109857Y-88343619D01*
X135255000Y-88343619D01*
X135400142Y-88392000D01*
X135496904Y-88488761D01*
X135545285Y-88585523D01*
X135593666Y-88779047D01*
X135593666Y-88924190D01*
X135545285Y-89117714D01*
X135496904Y-89214476D01*
X135400142Y-89311238D01*
X135255000Y-89359619D01*
X135158238Y-89359619D01*
X135013095Y-89311238D01*
X134964714Y-89262857D01*
X134964714Y-88924190D01*
X135158238Y-88924190D01*
X134529285Y-89359619D02*
X134529285Y-88343619D01*
X133948714Y-89359619D01*
X133948714Y-88343619D01*
X133464904Y-89359619D02*
X133464904Y-88343619D01*
X133223000Y-88343619D01*
X133077857Y-88392000D01*
X132981095Y-88488761D01*
X132932714Y-88585523D01*
X132884333Y-88779047D01*
X132884333Y-88924190D01*
X132932714Y-89117714D01*
X132981095Y-89214476D01*
X133077857Y-89311238D01*
X133223000Y-89359619D01*
X133464904Y-89359619D01*
X138024809Y-101944714D02*
X137057190Y-101944714D01*
X137541000Y-102428523D02*
X137541000Y-101460904D01*
D12*
X134986636Y-105095901D02*
X134986636Y-105488997D01*
X135228541Y-105277330D01*
X135228541Y-105368044D01*
X135258779Y-105428520D01*
X135289017Y-105458758D01*
X135349494Y-105488997D01*
X135500684Y-105488997D01*
X135561160Y-105458758D01*
X135591398Y-105428520D01*
X135621636Y-105368044D01*
X135621636Y-105186616D01*
X135591398Y-105126139D01*
X135561160Y-105095901D01*
X135561160Y-105761139D02*
X135591398Y-105791377D01*
X135621636Y-105761139D01*
X135591398Y-105730901D01*
X135561160Y-105761139D01*
X135621636Y-105761139D01*
X134986636Y-106003044D02*
X134986636Y-106426377D01*
X135621636Y-106154235D01*
X134986636Y-106577568D02*
X135621636Y-106789235D01*
X134986636Y-107000901D01*
X135621636Y-107998758D02*
X135621636Y-107696377D01*
X134986636Y-107696377D01*
X135621636Y-108210425D02*
X135198303Y-108210425D01*
X134986636Y-108210425D02*
X135016875Y-108180187D01*
X135047113Y-108210425D01*
X135016875Y-108240663D01*
X134986636Y-108210425D01*
X135047113Y-108210425D01*
X135198303Y-108512806D02*
X135833303Y-108512806D01*
X135228541Y-108512806D02*
X135198303Y-108573282D01*
X135198303Y-108694235D01*
X135228541Y-108754711D01*
X135258779Y-108784949D01*
X135319255Y-108815187D01*
X135500684Y-108815187D01*
X135561160Y-108784949D01*
X135591398Y-108754711D01*
X135621636Y-108694235D01*
X135621636Y-108573282D01*
X135591398Y-108512806D01*
X135621636Y-109178044D02*
X135591398Y-109117568D01*
X135561160Y-109087330D01*
X135500684Y-109057092D01*
X135319255Y-109057092D01*
X135258779Y-109087330D01*
X135228541Y-109117568D01*
X135198303Y-109178044D01*
X135198303Y-109268758D01*
X135228541Y-109329235D01*
X135258779Y-109359473D01*
X135319255Y-109389711D01*
X135500684Y-109389711D01*
X135561160Y-109359473D01*
X135591398Y-109329235D01*
X135621636Y-109268758D01*
X135621636Y-109178044D01*
X136400267Y-105368044D02*
X136430505Y-105458758D01*
X136460744Y-105488997D01*
X136521220Y-105519235D01*
X136611934Y-105519235D01*
X136672410Y-105488997D01*
X136702648Y-105458758D01*
X136732886Y-105398282D01*
X136732886Y-105156377D01*
X136097886Y-105156377D01*
X136097886Y-105368044D01*
X136128125Y-105428520D01*
X136158363Y-105458758D01*
X136218839Y-105488997D01*
X136279315Y-105488997D01*
X136339791Y-105458758D01*
X136370029Y-105428520D01*
X136400267Y-105368044D01*
X136400267Y-105156377D01*
X136732886Y-106063520D02*
X136400267Y-106063520D01*
X136339791Y-106033282D01*
X136309553Y-105972806D01*
X136309553Y-105851854D01*
X136339791Y-105791377D01*
X136702648Y-106063520D02*
X136732886Y-106003044D01*
X136732886Y-105851854D01*
X136702648Y-105791377D01*
X136642172Y-105761139D01*
X136581696Y-105761139D01*
X136521220Y-105791377D01*
X136490982Y-105851854D01*
X136490982Y-106003044D01*
X136460744Y-106063520D01*
X136309553Y-106275187D02*
X136309553Y-106517092D01*
X136097886Y-106365901D02*
X136642172Y-106365901D01*
X136702648Y-106396139D01*
X136732886Y-106456616D01*
X136732886Y-106517092D01*
X136309553Y-106638044D02*
X136309553Y-106879949D01*
X136097886Y-106728758D02*
X136642172Y-106728758D01*
X136702648Y-106758997D01*
X136732886Y-106819473D01*
X136732886Y-106879949D01*
X136702648Y-107333520D02*
X136732886Y-107273044D01*
X136732886Y-107152092D01*
X136702648Y-107091616D01*
X136642172Y-107061377D01*
X136400267Y-107061377D01*
X136339791Y-107091616D01*
X136309553Y-107152092D01*
X136309553Y-107273044D01*
X136339791Y-107333520D01*
X136400267Y-107363758D01*
X136460744Y-107363758D01*
X136521220Y-107061377D01*
X136732886Y-107635901D02*
X136309553Y-107635901D01*
X136430505Y-107635901D02*
X136370029Y-107666139D01*
X136339791Y-107696377D01*
X136309553Y-107756854D01*
X136309553Y-107817330D01*
X136309553Y-107968520D02*
X136732886Y-108119711D01*
X136309553Y-108270901D02*
X136732886Y-108119711D01*
X136884077Y-108059235D01*
X136914315Y-108028997D01*
X136944553Y-107968520D01*
D11*
X138520714Y-105573285D02*
X138157857Y-105319285D01*
X138520714Y-105137857D02*
X137758714Y-105137857D01*
X137758714Y-105428142D01*
X137795000Y-105500714D01*
X137831285Y-105537000D01*
X137903857Y-105573285D01*
X138012714Y-105573285D01*
X138085285Y-105537000D01*
X138121571Y-105500714D01*
X138157857Y-105428142D01*
X138157857Y-105137857D01*
X138520714Y-106008714D02*
X138484428Y-105936142D01*
X138448142Y-105899857D01*
X138375571Y-105863571D01*
X138157857Y-105863571D01*
X138085285Y-105899857D01*
X138049000Y-105936142D01*
X138012714Y-106008714D01*
X138012714Y-106117571D01*
X138049000Y-106190142D01*
X138085285Y-106226428D01*
X138157857Y-106262714D01*
X138375571Y-106262714D01*
X138448142Y-106226428D01*
X138484428Y-106190142D01*
X138520714Y-106117571D01*
X138520714Y-106008714D01*
X138520714Y-106589285D02*
X137758714Y-106589285D01*
X138121571Y-106589285D02*
X138121571Y-107024714D01*
X138520714Y-107024714D02*
X137758714Y-107024714D01*
X138484428Y-107351285D02*
X138520714Y-107460142D01*
X138520714Y-107641571D01*
X138484428Y-107714142D01*
X138448142Y-107750428D01*
X138375571Y-107786714D01*
X138303000Y-107786714D01*
X138230428Y-107750428D01*
X138194142Y-107714142D01*
X138157857Y-107641571D01*
X138121571Y-107496428D01*
X138085285Y-107423857D01*
X138049000Y-107387571D01*
X137976428Y-107351285D01*
X137903857Y-107351285D01*
X137831285Y-107387571D01*
X137795000Y-107423857D01*
X137758714Y-107496428D01*
X137758714Y-107677857D01*
X137795000Y-107786714D01*
X138448142Y-109129285D02*
X138484428Y-109093000D01*
X138520714Y-108984142D01*
X138520714Y-108911571D01*
X138484428Y-108802714D01*
X138411857Y-108730142D01*
X138339285Y-108693857D01*
X138194142Y-108657571D01*
X138085285Y-108657571D01*
X137940142Y-108693857D01*
X137867571Y-108730142D01*
X137795000Y-108802714D01*
X137758714Y-108911571D01*
X137758714Y-108984142D01*
X137795000Y-109093000D01*
X137831285Y-109129285D01*
X138520714Y-109564714D02*
X138484428Y-109492142D01*
X138448142Y-109455857D01*
X138375571Y-109419571D01*
X138157857Y-109419571D01*
X138085285Y-109455857D01*
X138049000Y-109492142D01*
X138012714Y-109564714D01*
X138012714Y-109673571D01*
X138049000Y-109746142D01*
X138085285Y-109782428D01*
X138157857Y-109818714D01*
X138375571Y-109818714D01*
X138448142Y-109782428D01*
X138484428Y-109746142D01*
X138520714Y-109673571D01*
X138520714Y-109564714D01*
X138520714Y-110145285D02*
X138012714Y-110145285D01*
X138085285Y-110145285D02*
X138049000Y-110181571D01*
X138012714Y-110254142D01*
X138012714Y-110363000D01*
X138049000Y-110435571D01*
X138121571Y-110471857D01*
X138520714Y-110471857D01*
X138121571Y-110471857D02*
X138049000Y-110508142D01*
X138012714Y-110580714D01*
X138012714Y-110689571D01*
X138049000Y-110762142D01*
X138121571Y-110798428D01*
X138520714Y-110798428D01*
X138012714Y-111161285D02*
X138774714Y-111161285D01*
X138049000Y-111161285D02*
X138012714Y-111233857D01*
X138012714Y-111379000D01*
X138049000Y-111451571D01*
X138085285Y-111487857D01*
X138157857Y-111524142D01*
X138375571Y-111524142D01*
X138448142Y-111487857D01*
X138484428Y-111451571D01*
X138520714Y-111379000D01*
X138520714Y-111233857D01*
X138484428Y-111161285D01*
X138520714Y-111959571D02*
X138484428Y-111887000D01*
X138411857Y-111850714D01*
X137758714Y-111850714D01*
X138520714Y-112249857D02*
X138012714Y-112249857D01*
X137758714Y-112249857D02*
X137795000Y-112213571D01*
X137831285Y-112249857D01*
X137795000Y-112286142D01*
X137758714Y-112249857D01*
X137831285Y-112249857D01*
X138520714Y-112939285D02*
X138121571Y-112939285D01*
X138049000Y-112903000D01*
X138012714Y-112830428D01*
X138012714Y-112685285D01*
X138049000Y-112612714D01*
X138484428Y-112939285D02*
X138520714Y-112866714D01*
X138520714Y-112685285D01*
X138484428Y-112612714D01*
X138411857Y-112576428D01*
X138339285Y-112576428D01*
X138266714Y-112612714D01*
X138230428Y-112685285D01*
X138230428Y-112866714D01*
X138194142Y-112939285D01*
X138012714Y-113302142D02*
X138520714Y-113302142D01*
X138085285Y-113302142D02*
X138049000Y-113338428D01*
X138012714Y-113411000D01*
X138012714Y-113519857D01*
X138049000Y-113592428D01*
X138121571Y-113628714D01*
X138520714Y-113628714D01*
X138012714Y-113882714D02*
X138012714Y-114173000D01*
X137758714Y-113991571D02*
X138411857Y-113991571D01*
X138484428Y-114027857D01*
X138520714Y-114100428D01*
X138520714Y-114173000D01*
D10*
X135545285Y-86432571D02*
X134771190Y-86432571D01*
X135158238Y-86819619D02*
X135158238Y-86045523D01*
X133803571Y-85803619D02*
X134287380Y-85803619D01*
X134335761Y-86287428D01*
X134287380Y-86239047D01*
X134190619Y-86190666D01*
X133948714Y-86190666D01*
X133851952Y-86239047D01*
X133803571Y-86287428D01*
X133755190Y-86384190D01*
X133755190Y-86626095D01*
X133803571Y-86722857D01*
X133851952Y-86771238D01*
X133948714Y-86819619D01*
X134190619Y-86819619D01*
X134287380Y-86771238D01*
X134335761Y-86722857D01*
X133464904Y-85803619D02*
X133126238Y-86819619D01*
X132787571Y-85803619D01*
D13*
X141383657Y-78217485D02*
X141383657Y-78657752D01*
X142075504Y-78846438D02*
X142075504Y-78217485D01*
X140754704Y-78217485D01*
X140754704Y-78846438D01*
X142012609Y-79349600D02*
X142075504Y-79538285D01*
X142075504Y-79852761D01*
X142012609Y-79978552D01*
X141949714Y-80041447D01*
X141823923Y-80104342D01*
X141698133Y-80104342D01*
X141572342Y-80041447D01*
X141509447Y-79978552D01*
X141446552Y-79852761D01*
X141383657Y-79601180D01*
X141320761Y-79475390D01*
X141257866Y-79412495D01*
X141132076Y-79349600D01*
X141006285Y-79349600D01*
X140880495Y-79412495D01*
X140817600Y-79475390D01*
X140754704Y-79601180D01*
X140754704Y-79915657D01*
X140817600Y-80104342D01*
X142075504Y-80670400D02*
X140754704Y-80670400D01*
X140754704Y-81173561D01*
X140817600Y-81299352D01*
X140880495Y-81362247D01*
X141006285Y-81425142D01*
X141194971Y-81425142D01*
X141320761Y-81362247D01*
X141383657Y-81299352D01*
X141446552Y-81173561D01*
X141446552Y-80670400D01*
X140754704Y-81865409D02*
X140754704Y-82683047D01*
X141257866Y-82242780D01*
X141257866Y-82431466D01*
X141320761Y-82557257D01*
X141383657Y-82620152D01*
X141509447Y-82683047D01*
X141823923Y-82683047D01*
X141949714Y-82620152D01*
X142012609Y-82557257D01*
X142075504Y-82431466D01*
X142075504Y-82054095D01*
X142012609Y-81928304D01*
X141949714Y-81865409D01*
X140880495Y-83186209D02*
X140817600Y-83249104D01*
X140754704Y-83374895D01*
X140754704Y-83689371D01*
X140817600Y-83815161D01*
X140880495Y-83878057D01*
X141006285Y-83940952D01*
X141132076Y-83940952D01*
X141320761Y-83878057D01*
X142075504Y-83123314D01*
X142075504Y-83940952D01*
X141572342Y-84507009D02*
X141572342Y-85513333D01*
X141949714Y-86897028D02*
X142012609Y-86834133D01*
X142075504Y-86645447D01*
X142075504Y-86519657D01*
X142012609Y-86330971D01*
X141886819Y-86205180D01*
X141761028Y-86142285D01*
X141509447Y-86079390D01*
X141320761Y-86079390D01*
X141069180Y-86142285D01*
X140943390Y-86205180D01*
X140817600Y-86330971D01*
X140754704Y-86519657D01*
X140754704Y-86645447D01*
X140817600Y-86834133D01*
X140880495Y-86897028D01*
X140754704Y-87337295D02*
X140754704Y-88154933D01*
X141257866Y-87714666D01*
X141257866Y-87903352D01*
X141320761Y-88029142D01*
X141383657Y-88092038D01*
X141509447Y-88154933D01*
X141823923Y-88154933D01*
X141949714Y-88092038D01*
X142012609Y-88029142D01*
X142075504Y-87903352D01*
X142075504Y-87525980D01*
X142012609Y-87400190D01*
X141949714Y-87337295D01*
X141572342Y-88720990D02*
X141572342Y-89727314D01*
X142075504Y-90356266D02*
X140754704Y-90356266D01*
X140754704Y-90670742D01*
X140817600Y-90859428D01*
X140943390Y-90985219D01*
X141069180Y-91048114D01*
X141320761Y-91111009D01*
X141509447Y-91111009D01*
X141761028Y-91048114D01*
X141886819Y-90985219D01*
X142012609Y-90859428D01*
X142075504Y-90670742D01*
X142075504Y-90356266D01*
X142012609Y-92180228D02*
X142075504Y-92054438D01*
X142075504Y-91802857D01*
X142012609Y-91677066D01*
X141886819Y-91614171D01*
X141383657Y-91614171D01*
X141257866Y-91677066D01*
X141194971Y-91802857D01*
X141194971Y-92054438D01*
X141257866Y-92180228D01*
X141383657Y-92243123D01*
X141509447Y-92243123D01*
X141635238Y-91614171D01*
X141194971Y-92683390D02*
X142075504Y-92997866D01*
X141194971Y-93312342D01*
X142075504Y-93815504D02*
X140754704Y-93815504D01*
X142075504Y-94570247D02*
X141320761Y-94004190D01*
X140754704Y-94570247D02*
X141509447Y-93815504D01*
X142075504Y-95136304D02*
X141194971Y-95136304D01*
X140754704Y-95136304D02*
X140817600Y-95073409D01*
X140880495Y-95136304D01*
X140817600Y-95199200D01*
X140754704Y-95136304D01*
X140880495Y-95136304D01*
X141194971Y-95576571D02*
X141194971Y-96079733D01*
X140754704Y-95765257D02*
X141886819Y-95765257D01*
X142012609Y-95828152D01*
X142075504Y-95953942D01*
X142075504Y-96079733D01*
X141572342Y-96520000D02*
X141572342Y-97526323D01*
X142075504Y-98784228D02*
X142075504Y-98155276D01*
X140754704Y-98155276D01*
X142075504Y-99224495D02*
X141194971Y-99224495D01*
X140754704Y-99224495D02*
X140817600Y-99161600D01*
X140880495Y-99224495D01*
X140817600Y-99287390D01*
X140754704Y-99224495D01*
X140880495Y-99224495D01*
X141194971Y-99853447D02*
X142515771Y-99853447D01*
X141257866Y-99853447D02*
X141194971Y-99979238D01*
X141194971Y-100230819D01*
X141257866Y-100356609D01*
X141320761Y-100419504D01*
X141446552Y-100482400D01*
X141823923Y-100482400D01*
X141949714Y-100419504D01*
X142012609Y-100356609D01*
X142075504Y-100230819D01*
X142075504Y-99979238D01*
X142012609Y-99853447D01*
X142075504Y-101237142D02*
X142012609Y-101111352D01*
X141949714Y-101048457D01*
X141823923Y-100985561D01*
X141446552Y-100985561D01*
X141320761Y-101048457D01*
X141257866Y-101111352D01*
X141194971Y-101237142D01*
X141194971Y-101425828D01*
X141257866Y-101551619D01*
X141320761Y-101614514D01*
X141446552Y-101677409D01*
X141823923Y-101677409D01*
X141949714Y-101614514D01*
X142012609Y-101551619D01*
X142075504Y-101425828D01*
X142075504Y-101237142D01*
D14*
X146508000Y-113967000D02*
X147270000Y-113967000D01*
X146508000Y-109395000D02*
X146508000Y-113967000D01*
X147270000Y-109395000D02*
X146508000Y-109395000D01*
X147270000Y-113967000D02*
X147270000Y-109395000D01*
X146558800Y-113916200D02*
X146558800Y-109496600D01*
X146660400Y-109445800D02*
X146660400Y-113916200D01*
X146812800Y-113916200D02*
X146812800Y-109496600D01*
X146965200Y-113916200D02*
X146965200Y-109496600D01*
X146711200Y-109445800D02*
X146711200Y-113865400D01*
X146863600Y-109445800D02*
X146863600Y-113916200D01*
X147066800Y-113865400D02*
X147066800Y-109496600D01*
X147168400Y-109445800D02*
X147168400Y-113865400D01*
D10*
X141732000Y-109601000D02*
X145923000Y-113792000D01*
X145796000Y-109728000D02*
X141859000Y-113792000D01*
X145415000Y-110744000D02*
X145415000Y-112141000D01*
X145415000Y-110744000D02*
X142367000Y-110490000D01*
X142240000Y-110236000D02*
X142240000Y-113157000D01*
X145796000Y-111252000D02*
X145542000Y-111252000D01*
X145796000Y-110744000D02*
X145796000Y-111252000D01*
X145415000Y-110744000D02*
X145796000Y-110744000D01*
X144907000Y-112649000D02*
X142875000Y-112776000D01*
X145816609Y-112649000D02*
G75*
G03*
X145816609Y-112649000I-401609J0D01*
G01*
X141605000Y-110871000D02*
X142113000Y-110871000D01*
X141605000Y-110744000D02*
X141605000Y-110871000D01*
X142113000Y-110744000D02*
X141605000Y-110744000D01*
X142748000Y-113157000D02*
X142240000Y-113157000D01*
X142748000Y-112776000D02*
X142748000Y-113157000D01*
X142240000Y-112776000D02*
X142748000Y-112776000D01*
X142367000Y-112903000D02*
X142494000Y-112903000D01*
X142240000Y-112903000D02*
X142621000Y-113030000D01*
X142367000Y-112903000D02*
X142494000Y-112903000D01*
X142367000Y-113030000D02*
X142748000Y-113030000D01*
X142367000Y-112903000D02*
X142367000Y-113030000D01*
X142748000Y-112903000D02*
X142367000Y-112903000D01*
X143129000Y-111506000D02*
X142748000Y-111506000D01*
X143129000Y-112395000D02*
X143129000Y-111506000D01*
X142748000Y-112395000D02*
X143129000Y-112395000D01*
X142748000Y-111506000D02*
X142748000Y-112395000D01*
X142875000Y-111633000D02*
X142875000Y-112268000D01*
X141351000Y-111887000D02*
X141351000Y-111506000D01*
X141478000Y-111887000D02*
X141351000Y-111887000D01*
X141478000Y-111506000D02*
X141478000Y-111887000D01*
X141351000Y-111506000D02*
X141478000Y-111506000D01*
D15*
X145542000Y-112649000D02*
G75*
G03*
X145542000Y-112649000I-127000J0D01*
G01*
D10*
X142113000Y-112776000D02*
G75*
G02*
X142113000Y-110490000I1143000J1143000D01*
G01*
X147278197Y-89357200D02*
G75*
G03*
X147278197Y-89357200I-1802237J0D01*
G01*
D16*
X146639280Y-90517980D02*
X144218660Y-88084660D01*
D17*
G36*
X143419348Y-82907910D02*
G01*
X143419778Y-82986454D01*
X143420942Y-83043298D01*
X143423207Y-83082105D01*
X143426940Y-83106538D01*
X143432506Y-83120262D01*
X143440273Y-83126940D01*
X143450605Y-83130236D01*
X143451943Y-83130556D01*
X143476079Y-83135562D01*
X143523701Y-83144829D01*
X143589741Y-83157392D01*
X143669128Y-83172287D01*
X143756796Y-83188551D01*
X143759875Y-83189119D01*
X143845789Y-83205410D01*
X143921696Y-83220652D01*
X143983045Y-83233861D01*
X144025282Y-83244054D01*
X144043855Y-83250248D01*
X144044184Y-83250543D01*
X144053253Y-83268788D01*
X144068367Y-83306405D01*
X144086262Y-83355271D01*
X144086358Y-83355543D01*
X144109493Y-83417093D01*
X144138965Y-83489657D01*
X144168597Y-83558057D01*
X144170062Y-83561294D01*
X144220626Y-83672702D01*
X144052160Y-83919399D01*
X144000803Y-83995077D01*
X143954889Y-84063631D01*
X143917030Y-84121088D01*
X143889837Y-84163476D01*
X143875921Y-84186825D01*
X143874889Y-84189042D01*
X143879484Y-84206010D01*
X143901655Y-84237701D01*
X143942447Y-84285352D01*
X144002905Y-84350198D01*
X144067227Y-84416397D01*
X144130612Y-84480214D01*
X144188451Y-84537329D01*
X144237175Y-84584305D01*
X144273210Y-84617703D01*
X144292984Y-84634085D01*
X144294002Y-84634694D01*
X144307572Y-84636505D01*
X144329733Y-84629683D01*
X144363478Y-84612540D01*
X144411800Y-84583393D01*
X144477692Y-84540555D01*
X144562517Y-84483448D01*
X144637177Y-84432766D01*
X144704140Y-84387461D01*
X144759516Y-84350150D01*
X144799420Y-84323452D01*
X144819962Y-84309985D01*
X144821356Y-84309137D01*
X144841038Y-84310781D01*
X144879293Y-84323245D01*
X144928889Y-84344048D01*
X144944728Y-84351462D01*
X145015290Y-84383814D01*
X145095353Y-84418328D01*
X145164629Y-84446365D01*
X145216045Y-84466568D01*
X145255119Y-84482615D01*
X145275541Y-84491888D01*
X145277114Y-84493041D01*
X145279721Y-84510096D01*
X145286863Y-84550298D01*
X145297523Y-84608302D01*
X145310685Y-84678763D01*
X145325333Y-84756335D01*
X145340449Y-84835672D01*
X145355018Y-84911431D01*
X145368022Y-84978264D01*
X145378445Y-85030828D01*
X145385270Y-85063776D01*
X145387199Y-85071857D01*
X145391962Y-85080205D01*
X145402718Y-85086506D01*
X145423098Y-85091045D01*
X145456734Y-85094104D01*
X145507255Y-85095967D01*
X145578292Y-85096918D01*
X145673476Y-85097240D01*
X145712492Y-85097257D01*
X146029799Y-85097257D01*
X146044839Y-85021057D01*
X146052995Y-84978663D01*
X146064899Y-84915400D01*
X146079116Y-84838962D01*
X146094210Y-84757043D01*
X146098355Y-84734400D01*
X146113053Y-84658806D01*
X146127505Y-84592953D01*
X146140375Y-84542366D01*
X146150322Y-84512574D01*
X146153287Y-84507612D01*
X146174283Y-84495426D01*
X146214967Y-84477953D01*
X146267322Y-84458577D01*
X146278600Y-84454734D01*
X146348523Y-84429339D01*
X146427418Y-84397817D01*
X146498266Y-84366969D01*
X146498595Y-84366817D01*
X146609733Y-84315447D01*
X146858253Y-84484399D01*
X147106772Y-84653352D01*
X147324058Y-84436429D01*
X147388726Y-84370819D01*
X147445733Y-84310979D01*
X147492033Y-84260267D01*
X147524584Y-84222046D01*
X147540343Y-84199675D01*
X147541343Y-84196466D01*
X147533469Y-84177626D01*
X147511578Y-84139180D01*
X147478267Y-84085330D01*
X147436131Y-84020276D01*
X147388943Y-83949940D01*
X147340810Y-83878555D01*
X147298928Y-83814908D01*
X147265871Y-83763041D01*
X147244218Y-83726995D01*
X147236543Y-83710867D01*
X147243037Y-83691189D01*
X147260150Y-83653875D01*
X147284326Y-83606621D01*
X147287013Y-83601612D01*
X147318927Y-83537977D01*
X147334579Y-83494341D01*
X147334745Y-83467202D01*
X147320204Y-83453057D01*
X147320000Y-83452975D01*
X147302779Y-83445905D01*
X147261899Y-83429042D01*
X147200525Y-83403695D01*
X147121819Y-83371171D01*
X147028947Y-83332778D01*
X146925072Y-83289822D01*
X146824502Y-83248222D01*
X146713516Y-83202504D01*
X146610703Y-83160526D01*
X146519215Y-83123548D01*
X146442201Y-83092827D01*
X146382815Y-83069622D01*
X146344209Y-83055190D01*
X146329800Y-83050743D01*
X146313272Y-83061896D01*
X146286930Y-83091069D01*
X146257887Y-83129971D01*
X146166039Y-83240757D01*
X146060759Y-83327351D01*
X145944266Y-83388716D01*
X145818776Y-83423815D01*
X145686507Y-83431608D01*
X145625457Y-83425943D01*
X145498795Y-83395078D01*
X145386941Y-83341920D01*
X145291001Y-83269767D01*
X145212076Y-83181917D01*
X145151270Y-83081665D01*
X145109687Y-82972310D01*
X145088428Y-82857147D01*
X145088599Y-82739475D01*
X145111301Y-82622590D01*
X145157638Y-82509789D01*
X145228713Y-82404369D01*
X145268911Y-82360368D01*
X145372129Y-82275979D01*
X145484925Y-82217222D01*
X145604010Y-82183704D01*
X145726095Y-82175035D01*
X145847893Y-82190823D01*
X145966116Y-82230678D01*
X146077475Y-82294207D01*
X146178684Y-82381021D01*
X146257887Y-82478029D01*
X146288162Y-82518437D01*
X146314219Y-82546982D01*
X146329825Y-82557257D01*
X146346843Y-82551877D01*
X146387500Y-82536575D01*
X146448642Y-82512612D01*
X146527119Y-82481244D01*
X146619780Y-82443732D01*
X146723472Y-82401333D01*
X146824526Y-82359663D01*
X146935607Y-82313690D01*
X147038541Y-82271107D01*
X147130165Y-82233221D01*
X147207316Y-82201340D01*
X147266831Y-82176771D01*
X147305544Y-82160820D01*
X147320000Y-82154910D01*
X147334685Y-82140948D01*
X147334642Y-82113940D01*
X147319099Y-82070413D01*
X147287284Y-82006890D01*
X147287013Y-82006388D01*
X147262323Y-81958560D01*
X147244338Y-81919897D01*
X147236614Y-81898095D01*
X147236543Y-81897133D01*
X147244378Y-81880721D01*
X147266165Y-81844487D01*
X147299328Y-81792474D01*
X147341291Y-81728725D01*
X147388943Y-81658060D01*
X147437191Y-81586116D01*
X147479151Y-81521274D01*
X147512227Y-81467735D01*
X147533821Y-81429697D01*
X147541343Y-81411533D01*
X147531457Y-81394808D01*
X147503826Y-81361180D01*
X147461495Y-81314010D01*
X147407505Y-81256658D01*
X147344899Y-81192484D01*
X147323983Y-81171497D01*
X147106623Y-80954499D01*
X146864220Y-81119668D01*
X146789781Y-81169864D01*
X146722972Y-81213919D01*
X146667665Y-81249362D01*
X146627729Y-81273719D01*
X146607036Y-81284522D01*
X146605563Y-81284838D01*
X146586058Y-81279143D01*
X146546822Y-81263826D01*
X146494430Y-81241537D01*
X146459355Y-81225893D01*
X146392201Y-81196641D01*
X146324358Y-81169094D01*
X146267034Y-81147737D01*
X146249572Y-81141935D01*
X146202938Y-81125452D01*
X146166905Y-81109340D01*
X146153287Y-81100490D01*
X146144952Y-81080960D01*
X146133137Y-81038334D01*
X146119181Y-80978145D01*
X146104422Y-80905922D01*
X146098355Y-80873600D01*
X146083273Y-80791522D01*
X146068669Y-80712795D01*
X146055980Y-80645109D01*
X146046642Y-80596160D01*
X146044839Y-80586943D01*
X146029799Y-80510743D01*
X145712492Y-80510743D01*
X145608154Y-80510914D01*
X145529213Y-80511616D01*
X145472038Y-80513134D01*
X145432999Y-80515749D01*
X145408465Y-80519746D01*
X145394805Y-80525409D01*
X145388389Y-80533020D01*
X145387199Y-80536143D01*
X145382980Y-80554978D01*
X145374562Y-80596588D01*
X145362961Y-80655630D01*
X145349195Y-80726757D01*
X145334280Y-80804625D01*
X145319232Y-80883887D01*
X145305069Y-80959198D01*
X145292806Y-81025213D01*
X145283461Y-81076587D01*
X145278050Y-81107975D01*
X145277114Y-81114959D01*
X145264596Y-81121285D01*
X145231246Y-81135290D01*
X145183377Y-81154355D01*
X145164629Y-81161634D01*
X145092195Y-81190996D01*
X145012170Y-81225571D01*
X144944728Y-81256537D01*
X144893159Y-81279323D01*
X144850785Y-81294482D01*
X144824834Y-81299542D01*
X144821356Y-81298736D01*
X144804936Y-81288041D01*
X144768417Y-81263620D01*
X144715687Y-81228095D01*
X144650635Y-81184087D01*
X144577151Y-81134217D01*
X144562645Y-81124356D01*
X144476704Y-81066492D01*
X144411261Y-81023956D01*
X144363304Y-80995054D01*
X144329820Y-80978090D01*
X144307795Y-80971367D01*
X144294217Y-80973190D01*
X144294131Y-80973236D01*
X144276297Y-80987586D01*
X144241817Y-81019323D01*
X144194268Y-81065010D01*
X144137222Y-81121204D01*
X144074255Y-81184468D01*
X144067227Y-81191602D01*
X143990020Y-81271330D01*
X143933330Y-81332857D01*
X143896110Y-81377421D01*
X143877315Y-81406257D01*
X143874889Y-81418958D01*
X143885471Y-81437494D01*
X143909916Y-81475961D01*
X143945612Y-81530386D01*
X143989947Y-81596798D01*
X144040311Y-81671225D01*
X144052160Y-81688601D01*
X144220626Y-81935297D01*
X144170062Y-82046706D01*
X144140595Y-82114457D01*
X144110959Y-82187183D01*
X144087330Y-82249703D01*
X144086358Y-82252457D01*
X144068457Y-82301360D01*
X144053320Y-82339057D01*
X144044210Y-82357425D01*
X144044184Y-82357456D01*
X144027717Y-82363285D01*
X143987219Y-82373192D01*
X143927242Y-82386195D01*
X143852340Y-82401309D01*
X143767064Y-82417552D01*
X143759875Y-82418881D01*
X143672014Y-82435175D01*
X143592260Y-82450133D01*
X143525681Y-82462791D01*
X143477347Y-82472186D01*
X143452325Y-82477354D01*
X143451943Y-82477444D01*
X143441299Y-82480589D01*
X143433262Y-82486704D01*
X143427467Y-82499453D01*
X143423547Y-82522500D01*
X143421135Y-82559509D01*
X143419865Y-82614144D01*
X143419371Y-82690067D01*
X143419286Y-82790944D01*
X143419286Y-82804000D01*
X143419348Y-82907910D01*
G37*
X143419348Y-82907910D02*
X143419778Y-82986454D01*
X143420942Y-83043298D01*
X143423207Y-83082105D01*
X143426940Y-83106538D01*
X143432506Y-83120262D01*
X143440273Y-83126940D01*
X143450605Y-83130236D01*
X143451943Y-83130556D01*
X143476079Y-83135562D01*
X143523701Y-83144829D01*
X143589741Y-83157392D01*
X143669128Y-83172287D01*
X143756796Y-83188551D01*
X143759875Y-83189119D01*
X143845789Y-83205410D01*
X143921696Y-83220652D01*
X143983045Y-83233861D01*
X144025282Y-83244054D01*
X144043855Y-83250248D01*
X144044184Y-83250543D01*
X144053253Y-83268788D01*
X144068367Y-83306405D01*
X144086262Y-83355271D01*
X144086358Y-83355543D01*
X144109493Y-83417093D01*
X144138965Y-83489657D01*
X144168597Y-83558057D01*
X144170062Y-83561294D01*
X144220626Y-83672702D01*
X144052160Y-83919399D01*
X144000803Y-83995077D01*
X143954889Y-84063631D01*
X143917030Y-84121088D01*
X143889837Y-84163476D01*
X143875921Y-84186825D01*
X143874889Y-84189042D01*
X143879484Y-84206010D01*
X143901655Y-84237701D01*
X143942447Y-84285352D01*
X144002905Y-84350198D01*
X144067227Y-84416397D01*
X144130612Y-84480214D01*
X144188451Y-84537329D01*
X144237175Y-84584305D01*
X144273210Y-84617703D01*
X144292984Y-84634085D01*
X144294002Y-84634694D01*
X144307572Y-84636505D01*
X144329733Y-84629683D01*
X144363478Y-84612540D01*
X144411800Y-84583393D01*
X144477692Y-84540555D01*
X144562517Y-84483448D01*
X144637177Y-84432766D01*
X144704140Y-84387461D01*
X144759516Y-84350150D01*
X144799420Y-84323452D01*
X144819962Y-84309985D01*
X144821356Y-84309137D01*
X144841038Y-84310781D01*
X144879293Y-84323245D01*
X144928889Y-84344048D01*
X144944728Y-84351462D01*
X145015290Y-84383814D01*
X145095353Y-84418328D01*
X145164629Y-84446365D01*
X145216045Y-84466568D01*
X145255119Y-84482615D01*
X145275541Y-84491888D01*
X145277114Y-84493041D01*
X145279721Y-84510096D01*
X145286863Y-84550298D01*
X145297523Y-84608302D01*
X145310685Y-84678763D01*
X145325333Y-84756335D01*
X145340449Y-84835672D01*
X145355018Y-84911431D01*
X145368022Y-84978264D01*
X145378445Y-85030828D01*
X145385270Y-85063776D01*
X145387199Y-85071857D01*
X145391962Y-85080205D01*
X145402718Y-85086506D01*
X145423098Y-85091045D01*
X145456734Y-85094104D01*
X145507255Y-85095967D01*
X145578292Y-85096918D01*
X145673476Y-85097240D01*
X145712492Y-85097257D01*
X146029799Y-85097257D01*
X146044839Y-85021057D01*
X146052995Y-84978663D01*
X146064899Y-84915400D01*
X146079116Y-84838962D01*
X146094210Y-84757043D01*
X146098355Y-84734400D01*
X146113053Y-84658806D01*
X146127505Y-84592953D01*
X146140375Y-84542366D01*
X146150322Y-84512574D01*
X146153287Y-84507612D01*
X146174283Y-84495426D01*
X146214967Y-84477953D01*
X146267322Y-84458577D01*
X146278600Y-84454734D01*
X146348523Y-84429339D01*
X146427418Y-84397817D01*
X146498266Y-84366969D01*
X146498595Y-84366817D01*
X146609733Y-84315447D01*
X146858253Y-84484399D01*
X147106772Y-84653352D01*
X147324058Y-84436429D01*
X147388726Y-84370819D01*
X147445733Y-84310979D01*
X147492033Y-84260267D01*
X147524584Y-84222046D01*
X147540343Y-84199675D01*
X147541343Y-84196466D01*
X147533469Y-84177626D01*
X147511578Y-84139180D01*
X147478267Y-84085330D01*
X147436131Y-84020276D01*
X147388943Y-83949940D01*
X147340810Y-83878555D01*
X147298928Y-83814908D01*
X147265871Y-83763041D01*
X147244218Y-83726995D01*
X147236543Y-83710867D01*
X147243037Y-83691189D01*
X147260150Y-83653875D01*
X147284326Y-83606621D01*
X147287013Y-83601612D01*
X147318927Y-83537977D01*
X147334579Y-83494341D01*
X147334745Y-83467202D01*
X147320204Y-83453057D01*
X147320000Y-83452975D01*
X147302779Y-83445905D01*
X147261899Y-83429042D01*
X147200525Y-83403695D01*
X147121819Y-83371171D01*
X147028947Y-83332778D01*
X146925072Y-83289822D01*
X146824502Y-83248222D01*
X146713516Y-83202504D01*
X146610703Y-83160526D01*
X146519215Y-83123548D01*
X146442201Y-83092827D01*
X146382815Y-83069622D01*
X146344209Y-83055190D01*
X146329800Y-83050743D01*
X146313272Y-83061896D01*
X146286930Y-83091069D01*
X146257887Y-83129971D01*
X146166039Y-83240757D01*
X146060759Y-83327351D01*
X145944266Y-83388716D01*
X145818776Y-83423815D01*
X145686507Y-83431608D01*
X145625457Y-83425943D01*
X145498795Y-83395078D01*
X145386941Y-83341920D01*
X145291001Y-83269767D01*
X145212076Y-83181917D01*
X145151270Y-83081665D01*
X145109687Y-82972310D01*
X145088428Y-82857147D01*
X145088599Y-82739475D01*
X145111301Y-82622590D01*
X145157638Y-82509789D01*
X145228713Y-82404369D01*
X145268911Y-82360368D01*
X145372129Y-82275979D01*
X145484925Y-82217222D01*
X145604010Y-82183704D01*
X145726095Y-82175035D01*
X145847893Y-82190823D01*
X145966116Y-82230678D01*
X146077475Y-82294207D01*
X146178684Y-82381021D01*
X146257887Y-82478029D01*
X146288162Y-82518437D01*
X146314219Y-82546982D01*
X146329825Y-82557257D01*
X146346843Y-82551877D01*
X146387500Y-82536575D01*
X146448642Y-82512612D01*
X146527119Y-82481244D01*
X146619780Y-82443732D01*
X146723472Y-82401333D01*
X146824526Y-82359663D01*
X146935607Y-82313690D01*
X147038541Y-82271107D01*
X147130165Y-82233221D01*
X147207316Y-82201340D01*
X147266831Y-82176771D01*
X147305544Y-82160820D01*
X147320000Y-82154910D01*
X147334685Y-82140948D01*
X147334642Y-82113940D01*
X147319099Y-82070413D01*
X147287284Y-82006890D01*
X147287013Y-82006388D01*
X147262323Y-81958560D01*
X147244338Y-81919897D01*
X147236614Y-81898095D01*
X147236543Y-81897133D01*
X147244378Y-81880721D01*
X147266165Y-81844487D01*
X147299328Y-81792474D01*
X147341291Y-81728725D01*
X147388943Y-81658060D01*
X147437191Y-81586116D01*
X147479151Y-81521274D01*
X147512227Y-81467735D01*
X147533821Y-81429697D01*
X147541343Y-81411533D01*
X147531457Y-81394808D01*
X147503826Y-81361180D01*
X147461495Y-81314010D01*
X147407505Y-81256658D01*
X147344899Y-81192484D01*
X147323983Y-81171497D01*
X147106623Y-80954499D01*
X146864220Y-81119668D01*
X146789781Y-81169864D01*
X146722972Y-81213919D01*
X146667665Y-81249362D01*
X146627729Y-81273719D01*
X146607036Y-81284522D01*
X146605563Y-81284838D01*
X146586058Y-81279143D01*
X146546822Y-81263826D01*
X146494430Y-81241537D01*
X146459355Y-81225893D01*
X146392201Y-81196641D01*
X146324358Y-81169094D01*
X146267034Y-81147737D01*
X146249572Y-81141935D01*
X146202938Y-81125452D01*
X146166905Y-81109340D01*
X146153287Y-81100490D01*
X146144952Y-81080960D01*
X146133137Y-81038334D01*
X146119181Y-80978145D01*
X146104422Y-80905922D01*
X146098355Y-80873600D01*
X146083273Y-80791522D01*
X146068669Y-80712795D01*
X146055980Y-80645109D01*
X146046642Y-80596160D01*
X146044839Y-80586943D01*
X146029799Y-80510743D01*
X145712492Y-80510743D01*
X145608154Y-80510914D01*
X145529213Y-80511616D01*
X145472038Y-80513134D01*
X145432999Y-80515749D01*
X145408465Y-80519746D01*
X145394805Y-80525409D01*
X145388389Y-80533020D01*
X145387199Y-80536143D01*
X145382980Y-80554978D01*
X145374562Y-80596588D01*
X145362961Y-80655630D01*
X145349195Y-80726757D01*
X145334280Y-80804625D01*
X145319232Y-80883887D01*
X145305069Y-80959198D01*
X145292806Y-81025213D01*
X145283461Y-81076587D01*
X145278050Y-81107975D01*
X145277114Y-81114959D01*
X145264596Y-81121285D01*
X145231246Y-81135290D01*
X145183377Y-81154355D01*
X145164629Y-81161634D01*
X145092195Y-81190996D01*
X145012170Y-81225571D01*
X144944728Y-81256537D01*
X144893159Y-81279323D01*
X144850785Y-81294482D01*
X144824834Y-81299542D01*
X144821356Y-81298736D01*
X144804936Y-81288041D01*
X144768417Y-81263620D01*
X144715687Y-81228095D01*
X144650635Y-81184087D01*
X144577151Y-81134217D01*
X144562645Y-81124356D01*
X144476704Y-81066492D01*
X144411261Y-81023956D01*
X144363304Y-80995054D01*
X144329820Y-80978090D01*
X144307795Y-80971367D01*
X144294217Y-80973190D01*
X144294131Y-80973236D01*
X144276297Y-80987586D01*
X144241817Y-81019323D01*
X144194268Y-81065010D01*
X144137222Y-81121204D01*
X144074255Y-81184468D01*
X144067227Y-81191602D01*
X143990020Y-81271330D01*
X143933330Y-81332857D01*
X143896110Y-81377421D01*
X143877315Y-81406257D01*
X143874889Y-81418958D01*
X143885471Y-81437494D01*
X143909916Y-81475961D01*
X143945612Y-81530386D01*
X143989947Y-81596798D01*
X144040311Y-81671225D01*
X144052160Y-81688601D01*
X144220626Y-81935297D01*
X144170062Y-82046706D01*
X144140595Y-82114457D01*
X144110959Y-82187183D01*
X144087330Y-82249703D01*
X144086358Y-82252457D01*
X144068457Y-82301360D01*
X144053320Y-82339057D01*
X144044210Y-82357425D01*
X144044184Y-82357456D01*
X144027717Y-82363285D01*
X143987219Y-82373192D01*
X143927242Y-82386195D01*
X143852340Y-82401309D01*
X143767064Y-82417552D01*
X143759875Y-82418881D01*
X143672014Y-82435175D01*
X143592260Y-82450133D01*
X143525681Y-82462791D01*
X143477347Y-82472186D01*
X143452325Y-82477354D01*
X143451943Y-82477444D01*
X143441299Y-82480589D01*
X143433262Y-82486704D01*
X143427467Y-82499453D01*
X143423547Y-82522500D01*
X143421135Y-82559509D01*
X143419865Y-82614144D01*
X143419371Y-82690067D01*
X143419286Y-82790944D01*
X143419286Y-82804000D01*
X143419348Y-82907910D01*
D10*
X145542000Y-102933500D02*
X145542000Y-102870000D01*
X145542000Y-102933500D02*
X144526000Y-102933500D01*
X145732500Y-102997000D02*
X145605500Y-102997000D01*
X144335500Y-102552500D02*
X145415000Y-102552500D01*
X145732500Y-103505000D02*
X145732500Y-103657400D01*
X144145000Y-106489500D02*
X144145000Y-106172000D01*
X143256000Y-104863900D02*
X143256000Y-106045000D01*
X143319500Y-102489000D02*
X146812000Y-107823000D01*
X143256000Y-106045000D02*
X139700000Y-104267000D01*
X144145000Y-106489500D02*
X143256000Y-106045000D01*
X146812000Y-107823000D02*
X144145000Y-106489500D01*
X146812000Y-100711000D02*
X146812000Y-107823000D01*
X139700000Y-104267000D02*
X146812000Y-100711000D01*
X145542000Y-102870000D02*
G75*
G02*
X145669000Y-102743000I127000J0D01*
G01*
X145605500Y-102997000D02*
G75*
G02*
X145542000Y-102933500I0J63500D01*
G01*
X145798545Y-102935929D02*
G75*
G02*
X145732500Y-102997000I-63505J2429D01*
G01*
X145415000Y-102552500D02*
G75*
G02*
X145796000Y-102933500I0J-381000D01*
G01*
X144019575Y-102741952D02*
G75*
G02*
X144335500Y-102552500I315925J-168688D01*
G01*
X144018142Y-102744451D02*
G75*
G02*
X143700500Y-103060500I-792622J478971D01*
G01*
X144527845Y-102935065D02*
G75*
G02*
X144081500Y-103632000I-1007685J153965D01*
G01*
X145288674Y-103378932D02*
G75*
G02*
X145605500Y-103378000I159346J-316568D01*
G01*
X145605600Y-103378033D02*
G75*
G02*
X145732500Y-103505000I-63600J-190467D01*
G01*
X144844493Y-104706725D02*
G75*
G02*
X144970500Y-104267000I3709947J-825195D01*
G01*
X144971965Y-104267085D02*
G75*
G02*
X145732500Y-103695500I808795J-284395D01*
G01*
X144527166Y-104329292D02*
G75*
G02*
X145288000Y-103378000I1332334J-285688D01*
G01*
X144781576Y-104841539D02*
G75*
G02*
X144335500Y-105664000I-1253796J147819D01*
G01*
X144145474Y-106172699D02*
G75*
G02*
X144335500Y-105664000I604046J64199D01*
G01*
X143194114Y-104648085D02*
G75*
G02*
X143256000Y-104863900I-230214J-182795D01*
G01*
X143192678Y-104647279D02*
G75*
G02*
X143700500Y-103060500I1274902J466639D01*
G01*
X149987000Y-105894000D02*
X149987000Y-104644000D01*
X150237000Y-105894000D02*
X150237000Y-104644000D01*
X149737000Y-105894000D02*
X150237000Y-105894000D01*
X149737000Y-104644000D02*
X149737000Y-105894000D01*
X147987000Y-106144000D02*
X148487000Y-106144000D01*
X151487000Y-106144000D02*
X151987000Y-106144000D01*
X151487000Y-102644000D02*
X151987000Y-102644000D01*
X147987000Y-102644000D02*
X148487000Y-102644000D01*
X151987000Y-106144000D02*
G75*
G03*
X147987000Y-106144000I-2000000J0D01*
G01*
D18*
X151737000Y-106094020D02*
G75*
G03*
X148237000Y-106094000I-1750000J-49980D01*
G01*
D10*
X151487000Y-106144000D02*
G75*
G03*
X148487000Y-106144000I-1500000J0D01*
G01*
D18*
X151737000Y-102594020D02*
G75*
G03*
X148237000Y-102594000I-1750000J-49980D01*
G01*
D10*
X151987000Y-102644000D02*
G75*
G03*
X147987000Y-102644000I-2000000J0D01*
G01*
X151487000Y-102644000D02*
G75*
G03*
X148487000Y-102644000I-1500000J0D01*
G01*
D19*
G36*
X136609916Y-80402973D02*
G01*
X136663002Y-80395647D01*
X136714066Y-80374880D01*
X136741862Y-80356533D01*
X136764796Y-80336762D01*
X136785611Y-80315316D01*
X136792295Y-80307091D01*
X136810750Y-80282200D01*
X137224135Y-80281990D01*
X137637520Y-80281780D01*
X137637520Y-80236060D01*
X136605010Y-80236060D01*
X136570815Y-80232993D01*
X136548758Y-80222425D01*
X136536743Y-80202302D01*
X136532675Y-80170571D01*
X136532620Y-80165126D01*
X136534395Y-80139471D01*
X136538928Y-80118642D01*
X136542349Y-80111368D01*
X136560345Y-80098147D01*
X136586891Y-80091167D01*
X136616667Y-80090437D01*
X136644350Y-80095968D01*
X136664617Y-80107768D01*
X136667503Y-80111138D01*
X136675286Y-80131243D01*
X136677836Y-80158749D01*
X136675449Y-80187520D01*
X136668426Y-80211420D01*
X136662160Y-80220820D01*
X136647476Y-80230675D01*
X136626019Y-80235275D01*
X136605010Y-80236060D01*
X137637520Y-80236060D01*
X137637520Y-80163670D01*
X137637520Y-80045560D01*
X137224135Y-80045538D01*
X136810750Y-80045516D01*
X136795510Y-80022201D01*
X136775852Y-79999413D01*
X136747103Y-79974732D01*
X136714288Y-79952010D01*
X136682432Y-79935096D01*
X136681138Y-79934549D01*
X136639865Y-79924092D01*
X136592699Y-79922886D01*
X136545625Y-79930640D01*
X136512796Y-79942735D01*
X136464660Y-79973619D01*
X136421707Y-80015067D01*
X136388609Y-80062441D01*
X136384791Y-80069757D01*
X136368142Y-80119277D01*
X136363996Y-80172753D01*
X136372355Y-80225427D01*
X136384791Y-80257583D01*
X136417713Y-80309067D01*
X136458705Y-80349907D01*
X136505748Y-80379544D01*
X136556825Y-80397419D01*
X136609916Y-80402973D01*
G37*
X136609916Y-80402973D02*
X136663002Y-80395647D01*
X136714066Y-80374880D01*
X136741862Y-80356533D01*
X136764796Y-80336762D01*
X136785611Y-80315316D01*
X136792295Y-80307091D01*
X136810750Y-80282200D01*
X137224135Y-80281990D01*
X137637520Y-80281780D01*
X137637520Y-80236060D01*
X136605010Y-80236060D01*
X136570815Y-80232993D01*
X136548758Y-80222425D01*
X136536743Y-80202302D01*
X136532675Y-80170571D01*
X136532620Y-80165126D01*
X136534395Y-80139471D01*
X136538928Y-80118642D01*
X136542349Y-80111368D01*
X136560345Y-80098147D01*
X136586891Y-80091167D01*
X136616667Y-80090437D01*
X136644350Y-80095968D01*
X136664617Y-80107768D01*
X136667503Y-80111138D01*
X136675286Y-80131243D01*
X136677836Y-80158749D01*
X136675449Y-80187520D01*
X136668426Y-80211420D01*
X136662160Y-80220820D01*
X136647476Y-80230675D01*
X136626019Y-80235275D01*
X136605010Y-80236060D01*
X137637520Y-80236060D01*
X137637520Y-80163670D01*
X137637520Y-80045560D01*
X137224135Y-80045538D01*
X136810750Y-80045516D01*
X136795510Y-80022201D01*
X136775852Y-79999413D01*
X136747103Y-79974732D01*
X136714288Y-79952010D01*
X136682432Y-79935096D01*
X136681138Y-79934549D01*
X136639865Y-79924092D01*
X136592699Y-79922886D01*
X136545625Y-79930640D01*
X136512796Y-79942735D01*
X136464660Y-79973619D01*
X136421707Y-80015067D01*
X136388609Y-80062441D01*
X136384791Y-80069757D01*
X136368142Y-80119277D01*
X136363996Y-80172753D01*
X136372355Y-80225427D01*
X136384791Y-80257583D01*
X136417713Y-80309067D01*
X136458705Y-80349907D01*
X136505748Y-80379544D01*
X136556825Y-80397419D01*
X136609916Y-80402973D01*
G36*
X137297469Y-79254319D02*
G01*
X137378315Y-79254196D01*
X137457484Y-79253828D01*
X137533439Y-79253215D01*
X137604645Y-79252356D01*
X137669565Y-79251251D01*
X137726665Y-79249900D01*
X137774407Y-79248301D01*
X137811258Y-79246455D01*
X137835680Y-79244361D01*
X137845410Y-79242436D01*
X137859554Y-79233077D01*
X137881533Y-79214708D01*
X137909183Y-79189511D01*
X137940335Y-79159672D01*
X137972824Y-79127374D01*
X138004484Y-79094802D01*
X138033148Y-79064138D01*
X138056650Y-79037568D01*
X138072824Y-79017274D01*
X138073073Y-79016860D01*
X137756070Y-79016860D01*
X137291221Y-79016860D01*
X136826372Y-79016860D01*
X136774746Y-78965629D01*
X136723120Y-78914399D01*
X136723120Y-78735316D01*
X136723120Y-78556232D01*
X136774351Y-78504606D01*
X136798358Y-78480714D01*
X136815321Y-78465636D01*
X136828906Y-78457344D01*
X136842780Y-78453812D01*
X136860609Y-78453012D01*
X136867696Y-78453002D01*
X136892693Y-78453817D01*
X136907776Y-78457666D01*
X136918243Y-78466707D01*
X136925050Y-78476339D01*
X136946443Y-78501007D01*
X136977045Y-78526443D01*
X137011561Y-78548743D01*
X137043302Y-78563520D01*
X137096092Y-78574400D01*
X137150326Y-78571596D01*
X137203152Y-78556045D01*
X137251717Y-78528684D01*
X137293166Y-78490449D01*
X137302835Y-78478291D01*
X137321290Y-78453400D01*
X137534459Y-78453190D01*
X137747627Y-78452980D01*
X137799254Y-78504211D01*
X137850880Y-78555441D01*
X137850880Y-78738321D01*
X137850880Y-78921200D01*
X137803475Y-78969030D01*
X137756070Y-79016860D01*
X138073073Y-79016860D01*
X138079102Y-79006839D01*
X138081766Y-78991810D01*
X138083904Y-78963967D01*
X138085531Y-78925595D01*
X138086660Y-78878978D01*
X138087304Y-78826400D01*
X138087478Y-78770144D01*
X138087195Y-78712497D01*
X138086470Y-78655740D01*
X138085314Y-78602160D01*
X138083743Y-78554039D01*
X138081770Y-78513663D01*
X138079409Y-78483314D01*
X138076672Y-78465279D01*
X138075842Y-78462748D01*
X138066161Y-78447702D01*
X138047578Y-78424750D01*
X138032121Y-78407260D01*
X137115550Y-78407260D01*
X137081355Y-78404193D01*
X137059298Y-78393625D01*
X137047283Y-78373502D01*
X137043215Y-78341771D01*
X137043160Y-78336326D01*
X137044935Y-78310671D01*
X137049468Y-78289842D01*
X137052889Y-78282568D01*
X137070885Y-78269347D01*
X137097431Y-78262367D01*
X137127207Y-78261637D01*
X137154890Y-78267168D01*
X137175157Y-78278968D01*
X137178043Y-78282338D01*
X137185826Y-78302443D01*
X137188376Y-78329949D01*
X137185989Y-78358720D01*
X137178966Y-78382620D01*
X137172700Y-78392020D01*
X137158016Y-78401875D01*
X137136559Y-78406475D01*
X137115550Y-78407260D01*
X138032121Y-78407260D01*
X138022295Y-78396142D01*
X137992509Y-78364127D01*
X137960423Y-78330953D01*
X137928234Y-78298872D01*
X137898144Y-78270131D01*
X137872352Y-78246980D01*
X137853058Y-78231669D01*
X137845410Y-78227136D01*
X137834799Y-78224109D01*
X137817833Y-78221687D01*
X137793081Y-78219815D01*
X137759113Y-78218439D01*
X137714498Y-78217505D01*
X137657806Y-78216958D01*
X137587605Y-78216746D01*
X137571090Y-78216738D01*
X137321290Y-78216716D01*
X137306050Y-78193401D01*
X137286392Y-78170613D01*
X137257643Y-78145932D01*
X137224828Y-78123210D01*
X137192972Y-78106296D01*
X137191678Y-78105749D01*
X137159773Y-78097498D01*
X137120296Y-78094355D01*
X137080035Y-78096317D01*
X137045775Y-78103386D01*
X137039422Y-78105749D01*
X137007723Y-78122320D01*
X136974845Y-78144869D01*
X136945813Y-78169544D01*
X136925652Y-78192496D01*
X136925050Y-78193401D01*
X136909810Y-78216716D01*
X136836011Y-78216738D01*
X136801419Y-78217565D01*
X136770387Y-78219761D01*
X136747589Y-78222935D01*
X136740761Y-78224756D01*
X136727425Y-78233218D01*
X136705949Y-78250811D01*
X136678473Y-78275415D01*
X136647132Y-78304908D01*
X136614067Y-78337168D01*
X136581414Y-78370076D01*
X136551312Y-78401508D01*
X136525899Y-78429344D01*
X136507313Y-78451462D01*
X136497692Y-78465742D01*
X136497545Y-78466070D01*
X136494317Y-78481337D01*
X136491613Y-78509520D01*
X136489434Y-78548305D01*
X136487782Y-78595377D01*
X136486656Y-78648421D01*
X136486059Y-78705123D01*
X136485991Y-78763167D01*
X136486454Y-78820240D01*
X136487448Y-78874026D01*
X136488976Y-78922210D01*
X136491038Y-78962479D01*
X136493635Y-78992517D01*
X136496768Y-79010009D01*
X136497276Y-79011390D01*
X136506892Y-79026011D01*
X136525763Y-79048405D01*
X136551624Y-79076368D01*
X136582211Y-79107698D01*
X136615257Y-79140192D01*
X136648498Y-79171646D01*
X136679667Y-79199858D01*
X136706499Y-79222625D01*
X136726729Y-79237743D01*
X136734585Y-79242156D01*
X136747744Y-79244462D01*
X136774583Y-79246527D01*
X136813565Y-79248350D01*
X136863156Y-79249931D01*
X136921819Y-79251271D01*
X136988019Y-79252367D01*
X137060219Y-79253221D01*
X137136885Y-79253831D01*
X137216480Y-79254197D01*
X137297469Y-79254319D01*
G37*
X137297469Y-79254319D02*
X137378315Y-79254196D01*
X137457484Y-79253828D01*
X137533439Y-79253215D01*
X137604645Y-79252356D01*
X137669565Y-79251251D01*
X137726665Y-79249900D01*
X137774407Y-79248301D01*
X137811258Y-79246455D01*
X137835680Y-79244361D01*
X137845410Y-79242436D01*
X137859554Y-79233077D01*
X137881533Y-79214708D01*
X137909183Y-79189511D01*
X137940335Y-79159672D01*
X137972824Y-79127374D01*
X138004484Y-79094802D01*
X138033148Y-79064138D01*
X138056650Y-79037568D01*
X138072824Y-79017274D01*
X138073073Y-79016860D01*
X137756070Y-79016860D01*
X137291221Y-79016860D01*
X136826372Y-79016860D01*
X136774746Y-78965629D01*
X136723120Y-78914399D01*
X136723120Y-78735316D01*
X136723120Y-78556232D01*
X136774351Y-78504606D01*
X136798358Y-78480714D01*
X136815321Y-78465636D01*
X136828906Y-78457344D01*
X136842780Y-78453812D01*
X136860609Y-78453012D01*
X136867696Y-78453002D01*
X136892693Y-78453817D01*
X136907776Y-78457666D01*
X136918243Y-78466707D01*
X136925050Y-78476339D01*
X136946443Y-78501007D01*
X136977045Y-78526443D01*
X137011561Y-78548743D01*
X137043302Y-78563520D01*
X137096092Y-78574400D01*
X137150326Y-78571596D01*
X137203152Y-78556045D01*
X137251717Y-78528684D01*
X137293166Y-78490449D01*
X137302835Y-78478291D01*
X137321290Y-78453400D01*
X137534459Y-78453190D01*
X137747627Y-78452980D01*
X137799254Y-78504211D01*
X137850880Y-78555441D01*
X137850880Y-78738321D01*
X137850880Y-78921200D01*
X137803475Y-78969030D01*
X137756070Y-79016860D01*
X138073073Y-79016860D01*
X138079102Y-79006839D01*
X138081766Y-78991810D01*
X138083904Y-78963967D01*
X138085531Y-78925595D01*
X138086660Y-78878978D01*
X138087304Y-78826400D01*
X138087478Y-78770144D01*
X138087195Y-78712497D01*
X138086470Y-78655740D01*
X138085314Y-78602160D01*
X138083743Y-78554039D01*
X138081770Y-78513663D01*
X138079409Y-78483314D01*
X138076672Y-78465279D01*
X138075842Y-78462748D01*
X138066161Y-78447702D01*
X138047578Y-78424750D01*
X138032121Y-78407260D01*
X137115550Y-78407260D01*
X137081355Y-78404193D01*
X137059298Y-78393625D01*
X137047283Y-78373502D01*
X137043215Y-78341771D01*
X137043160Y-78336326D01*
X137044935Y-78310671D01*
X137049468Y-78289842D01*
X137052889Y-78282568D01*
X137070885Y-78269347D01*
X137097431Y-78262367D01*
X137127207Y-78261637D01*
X137154890Y-78267168D01*
X137175157Y-78278968D01*
X137178043Y-78282338D01*
X137185826Y-78302443D01*
X137188376Y-78329949D01*
X137185989Y-78358720D01*
X137178966Y-78382620D01*
X137172700Y-78392020D01*
X137158016Y-78401875D01*
X137136559Y-78406475D01*
X137115550Y-78407260D01*
X138032121Y-78407260D01*
X138022295Y-78396142D01*
X137992509Y-78364127D01*
X137960423Y-78330953D01*
X137928234Y-78298872D01*
X137898144Y-78270131D01*
X137872352Y-78246980D01*
X137853058Y-78231669D01*
X137845410Y-78227136D01*
X137834799Y-78224109D01*
X137817833Y-78221687D01*
X137793081Y-78219815D01*
X137759113Y-78218439D01*
X137714498Y-78217505D01*
X137657806Y-78216958D01*
X137587605Y-78216746D01*
X137571090Y-78216738D01*
X137321290Y-78216716D01*
X137306050Y-78193401D01*
X137286392Y-78170613D01*
X137257643Y-78145932D01*
X137224828Y-78123210D01*
X137192972Y-78106296D01*
X137191678Y-78105749D01*
X137159773Y-78097498D01*
X137120296Y-78094355D01*
X137080035Y-78096317D01*
X137045775Y-78103386D01*
X137039422Y-78105749D01*
X137007723Y-78122320D01*
X136974845Y-78144869D01*
X136945813Y-78169544D01*
X136925652Y-78192496D01*
X136925050Y-78193401D01*
X136909810Y-78216716D01*
X136836011Y-78216738D01*
X136801419Y-78217565D01*
X136770387Y-78219761D01*
X136747589Y-78222935D01*
X136740761Y-78224756D01*
X136727425Y-78233218D01*
X136705949Y-78250811D01*
X136678473Y-78275415D01*
X136647132Y-78304908D01*
X136614067Y-78337168D01*
X136581414Y-78370076D01*
X136551312Y-78401508D01*
X136525899Y-78429344D01*
X136507313Y-78451462D01*
X136497692Y-78465742D01*
X136497545Y-78466070D01*
X136494317Y-78481337D01*
X136491613Y-78509520D01*
X136489434Y-78548305D01*
X136487782Y-78595377D01*
X136486656Y-78648421D01*
X136486059Y-78705123D01*
X136485991Y-78763167D01*
X136486454Y-78820240D01*
X136487448Y-78874026D01*
X136488976Y-78922210D01*
X136491038Y-78962479D01*
X136493635Y-78992517D01*
X136496768Y-79010009D01*
X136497276Y-79011390D01*
X136506892Y-79026011D01*
X136525763Y-79048405D01*
X136551624Y-79076368D01*
X136582211Y-79107698D01*
X136615257Y-79140192D01*
X136648498Y-79171646D01*
X136679667Y-79199858D01*
X136706499Y-79222625D01*
X136726729Y-79237743D01*
X136734585Y-79242156D01*
X136747744Y-79244462D01*
X136774583Y-79246527D01*
X136813565Y-79248350D01*
X136863156Y-79249931D01*
X136921819Y-79251271D01*
X136988019Y-79252367D01*
X137060219Y-79253221D01*
X137136885Y-79253831D01*
X137216480Y-79254197D01*
X137297469Y-79254319D01*
G36*
X137959094Y-84462302D02*
G01*
X138007273Y-84460114D01*
X138050558Y-84450154D01*
X138064742Y-84444205D01*
X138101381Y-84420667D01*
X138137932Y-84387921D01*
X138169350Y-84351020D01*
X138187900Y-84320882D01*
X138195751Y-84297520D01*
X137968990Y-84297520D01*
X137934795Y-84294454D01*
X137912738Y-84283885D01*
X137900723Y-84263762D01*
X137896655Y-84232031D01*
X137896600Y-84226586D01*
X137898375Y-84200931D01*
X137902908Y-84180102D01*
X137906329Y-84172828D01*
X137924325Y-84159607D01*
X137950871Y-84152627D01*
X137980647Y-84151897D01*
X138008330Y-84157428D01*
X138028597Y-84169228D01*
X138031483Y-84172597D01*
X138039266Y-84192703D01*
X138041816Y-84220209D01*
X138039429Y-84248980D01*
X138032406Y-84272880D01*
X138026140Y-84282280D01*
X138011456Y-84292135D01*
X137989999Y-84296735D01*
X137968990Y-84297520D01*
X138195751Y-84297520D01*
X138199874Y-84285252D01*
X138206290Y-84242496D01*
X138206784Y-84198877D01*
X138200993Y-84160657D01*
X138197770Y-84150634D01*
X138171326Y-84100767D01*
X138133044Y-84055409D01*
X138086288Y-84017960D01*
X138044577Y-83995783D01*
X138012803Y-83987614D01*
X137973414Y-83984589D01*
X137933131Y-83986685D01*
X137898675Y-83993879D01*
X137892133Y-83996314D01*
X137863015Y-84008480D01*
X137750267Y-83895920D01*
X137637520Y-83783361D01*
X137637520Y-83741311D01*
X137637520Y-83699261D01*
X137882123Y-83455465D01*
X137933019Y-83404437D01*
X137980788Y-83355963D01*
X138024287Y-83311248D01*
X138062369Y-83271496D01*
X138093888Y-83237911D01*
X138117701Y-83211696D01*
X138132660Y-83194057D01*
X138137393Y-83187150D01*
X138140808Y-83171417D01*
X138143628Y-83142922D01*
X138145854Y-83104134D01*
X138147484Y-83057518D01*
X138148516Y-83005543D01*
X138148948Y-82950675D01*
X138148780Y-82895381D01*
X138148009Y-82842129D01*
X138146635Y-82793386D01*
X138144655Y-82751618D01*
X138142069Y-82719294D01*
X138138874Y-82698880D01*
X138137684Y-82695170D01*
X138128068Y-82680549D01*
X138109197Y-82658155D01*
X138083336Y-82630192D01*
X138052749Y-82598862D01*
X138019703Y-82566368D01*
X137986462Y-82534914D01*
X137955293Y-82506702D01*
X137928461Y-82483935D01*
X137908231Y-82468817D01*
X137900375Y-82464404D01*
X137887253Y-82462119D01*
X137860392Y-82460070D01*
X137821292Y-82458257D01*
X137771453Y-82456681D01*
X137712374Y-82455342D01*
X137645556Y-82454239D01*
X137572497Y-82453373D01*
X137494698Y-82452744D01*
X137413658Y-82452351D01*
X137330877Y-82452194D01*
X137247854Y-82452275D01*
X137166089Y-82452591D01*
X137087082Y-82453145D01*
X137012333Y-82453935D01*
X136943340Y-82454961D01*
X136881604Y-82456224D01*
X136828625Y-82457724D01*
X136785901Y-82459460D01*
X136754933Y-82461433D01*
X136737221Y-82463642D01*
X136734585Y-82464404D01*
X136719256Y-82474040D01*
X136696002Y-82492609D01*
X136667089Y-82517910D01*
X136634783Y-82547739D01*
X136601348Y-82579894D01*
X136569050Y-82612171D01*
X136540155Y-82642367D01*
X136516928Y-82668280D01*
X136501635Y-82687706D01*
X136497276Y-82695170D01*
X136493881Y-82711101D01*
X136491093Y-82739757D01*
X136488913Y-82778674D01*
X136487339Y-82825382D01*
X136486369Y-82877415D01*
X136486001Y-82932307D01*
X136486235Y-82987589D01*
X136487068Y-83040794D01*
X136488500Y-83089456D01*
X136490529Y-83131107D01*
X136493153Y-83163281D01*
X136496372Y-83183509D01*
X136497567Y-83187150D01*
X136505079Y-83197514D01*
X136522309Y-83217362D01*
X136548112Y-83245490D01*
X136581343Y-83280695D01*
X136620855Y-83321772D01*
X136665504Y-83367517D01*
X136714144Y-83416727D01*
X136752837Y-83455465D01*
X136997440Y-83699261D01*
X136997440Y-83741311D01*
X136997440Y-83783361D01*
X136884692Y-83895920D01*
X136771945Y-84008480D01*
X136742827Y-83996314D01*
X136700661Y-83985577D01*
X136652810Y-83984378D01*
X136605244Y-83992440D01*
X136573756Y-84004195D01*
X136525620Y-84035079D01*
X136482667Y-84076527D01*
X136449569Y-84123901D01*
X136445751Y-84131217D01*
X136429102Y-84180737D01*
X136424956Y-84234213D01*
X136433315Y-84286887D01*
X136445751Y-84319043D01*
X136474297Y-84363471D01*
X136512123Y-84403961D01*
X136554484Y-84435706D01*
X136568663Y-84443452D01*
X136592926Y-84453498D01*
X136618259Y-84459052D01*
X136650559Y-84461201D01*
X136665970Y-84461350D01*
X136715951Y-84457866D01*
X136757444Y-84446083D01*
X136795189Y-84424006D01*
X136832206Y-84391366D01*
X136870813Y-84344104D01*
X136893034Y-84297520D01*
X136665970Y-84297520D01*
X136631775Y-84294454D01*
X136609718Y-84283885D01*
X136597703Y-84263762D01*
X136593635Y-84232031D01*
X136593580Y-84226586D01*
X136595355Y-84200931D01*
X136599888Y-84180102D01*
X136603309Y-84172828D01*
X136621305Y-84159607D01*
X136647851Y-84152627D01*
X136677627Y-84151897D01*
X136705310Y-84157428D01*
X136725577Y-84169228D01*
X136728463Y-84172597D01*
X136736246Y-84192703D01*
X136738796Y-84220209D01*
X136736409Y-84248980D01*
X136729386Y-84272880D01*
X136723120Y-84282280D01*
X136708436Y-84292135D01*
X136686979Y-84296735D01*
X136665970Y-84297520D01*
X136893034Y-84297520D01*
X136894805Y-84293808D01*
X136904346Y-84244594D01*
X136907509Y-84202270D01*
X137062600Y-84046060D01*
X137102836Y-84005079D01*
X137139749Y-83966617D01*
X137171885Y-83932256D01*
X137197793Y-83903578D01*
X137216023Y-83882163D01*
X137225121Y-83869594D01*
X137225675Y-83868399D01*
X137229570Y-83849362D01*
X137232197Y-83819132D01*
X137233594Y-83781425D01*
X137233801Y-83739957D01*
X137232855Y-83698445D01*
X137230795Y-83660604D01*
X137227659Y-83630150D01*
X137223487Y-83610800D01*
X137222993Y-83609570D01*
X137215481Y-83599206D01*
X137198251Y-83579358D01*
X137172448Y-83551230D01*
X137139217Y-83516025D01*
X137099705Y-83474948D01*
X137055056Y-83429203D01*
X137006416Y-83379993D01*
X136967723Y-83341255D01*
X136723120Y-83097459D01*
X136723120Y-82944810D01*
X136723120Y-82792161D01*
X136774746Y-82740931D01*
X136826372Y-82689700D01*
X136999536Y-82689700D01*
X137172700Y-82689700D01*
X137172678Y-82840195D01*
X137172656Y-82990690D01*
X137149341Y-83005930D01*
X137126837Y-83025326D01*
X137102345Y-83053717D01*
X137079762Y-83086041D01*
X137062986Y-83117237D01*
X137062165Y-83119163D01*
X137052310Y-83158013D01*
X137050551Y-83203431D01*
X137056586Y-83249267D01*
X137070112Y-83289371D01*
X137070591Y-83290343D01*
X137099137Y-83334771D01*
X137136963Y-83375261D01*
X137179324Y-83407006D01*
X137193503Y-83414752D01*
X137233748Y-83428040D01*
X137280914Y-83433602D01*
X137329093Y-83431414D01*
X137372378Y-83421454D01*
X137386562Y-83415505D01*
X137423149Y-83392011D01*
X137459619Y-83359355D01*
X137490954Y-83322561D01*
X137509616Y-83292182D01*
X137517398Y-83268820D01*
X137290810Y-83268820D01*
X137256615Y-83265754D01*
X137234558Y-83255185D01*
X137222543Y-83235062D01*
X137218475Y-83203331D01*
X137218420Y-83197886D01*
X137220195Y-83172231D01*
X137224728Y-83151402D01*
X137228149Y-83144128D01*
X137246145Y-83130907D01*
X137272691Y-83123927D01*
X137302467Y-83123197D01*
X137330150Y-83128728D01*
X137350417Y-83140528D01*
X137353303Y-83143897D01*
X137361086Y-83164003D01*
X137363636Y-83191509D01*
X137361249Y-83220280D01*
X137354226Y-83244180D01*
X137347960Y-83253580D01*
X137333276Y-83263435D01*
X137311819Y-83268035D01*
X137290810Y-83268820D01*
X137517398Y-83268820D01*
X137523912Y-83249263D01*
X137529798Y-83200660D01*
X137526826Y-83153111D01*
X137520572Y-83127800D01*
X137504662Y-83092860D01*
X137481849Y-83057246D01*
X137455921Y-83026185D01*
X137432279Y-83005930D01*
X137408964Y-82990690D01*
X137408942Y-82840195D01*
X137408920Y-82689700D01*
X137609149Y-82689700D01*
X137809379Y-82689700D01*
X137860609Y-82741326D01*
X137911840Y-82792952D01*
X137911840Y-82945206D01*
X137911840Y-83097459D01*
X137667237Y-83341255D01*
X137616341Y-83392283D01*
X137568572Y-83440757D01*
X137525073Y-83485472D01*
X137486991Y-83525224D01*
X137455471Y-83558809D01*
X137431659Y-83585024D01*
X137416700Y-83602663D01*
X137411967Y-83609570D01*
X137407076Y-83629377D01*
X137403587Y-83660554D01*
X137401500Y-83699296D01*
X137400815Y-83741795D01*
X137401532Y-83784248D01*
X137403652Y-83822849D01*
X137407174Y-83853791D01*
X137411957Y-83872950D01*
X137420043Y-83884620D01*
X137437536Y-83905292D01*
X137462926Y-83933337D01*
X137494701Y-83967123D01*
X137531352Y-84005021D01*
X137571368Y-84045398D01*
X137575787Y-84049799D01*
X137728960Y-84202127D01*
X137728960Y-84240707D01*
X137735929Y-84285054D01*
X137755360Y-84330370D01*
X137785042Y-84373514D01*
X137822763Y-84411342D01*
X137866309Y-84440713D01*
X137871683Y-84443452D01*
X137911928Y-84456740D01*
X137959094Y-84462302D01*
G37*
X137959094Y-84462302D02*
X138007273Y-84460114D01*
X138050558Y-84450154D01*
X138064742Y-84444205D01*
X138101381Y-84420667D01*
X138137932Y-84387921D01*
X138169350Y-84351020D01*
X138187900Y-84320882D01*
X138195751Y-84297520D01*
X137968990Y-84297520D01*
X137934795Y-84294454D01*
X137912738Y-84283885D01*
X137900723Y-84263762D01*
X137896655Y-84232031D01*
X137896600Y-84226586D01*
X137898375Y-84200931D01*
X137902908Y-84180102D01*
X137906329Y-84172828D01*
X137924325Y-84159607D01*
X137950871Y-84152627D01*
X137980647Y-84151897D01*
X138008330Y-84157428D01*
X138028597Y-84169228D01*
X138031483Y-84172597D01*
X138039266Y-84192703D01*
X138041816Y-84220209D01*
X138039429Y-84248980D01*
X138032406Y-84272880D01*
X138026140Y-84282280D01*
X138011456Y-84292135D01*
X137989999Y-84296735D01*
X137968990Y-84297520D01*
X138195751Y-84297520D01*
X138199874Y-84285252D01*
X138206290Y-84242496D01*
X138206784Y-84198877D01*
X138200993Y-84160657D01*
X138197770Y-84150634D01*
X138171326Y-84100767D01*
X138133044Y-84055409D01*
X138086288Y-84017960D01*
X138044577Y-83995783D01*
X138012803Y-83987614D01*
X137973414Y-83984589D01*
X137933131Y-83986685D01*
X137898675Y-83993879D01*
X137892133Y-83996314D01*
X137863015Y-84008480D01*
X137750267Y-83895920D01*
X137637520Y-83783361D01*
X137637520Y-83741311D01*
X137637520Y-83699261D01*
X137882123Y-83455465D01*
X137933019Y-83404437D01*
X137980788Y-83355963D01*
X138024287Y-83311248D01*
X138062369Y-83271496D01*
X138093888Y-83237911D01*
X138117701Y-83211696D01*
X138132660Y-83194057D01*
X138137393Y-83187150D01*
X138140808Y-83171417D01*
X138143628Y-83142922D01*
X138145854Y-83104134D01*
X138147484Y-83057518D01*
X138148516Y-83005543D01*
X138148948Y-82950675D01*
X138148780Y-82895381D01*
X138148009Y-82842129D01*
X138146635Y-82793386D01*
X138144655Y-82751618D01*
X138142069Y-82719294D01*
X138138874Y-82698880D01*
X138137684Y-82695170D01*
X138128068Y-82680549D01*
X138109197Y-82658155D01*
X138083336Y-82630192D01*
X138052749Y-82598862D01*
X138019703Y-82566368D01*
X137986462Y-82534914D01*
X137955293Y-82506702D01*
X137928461Y-82483935D01*
X137908231Y-82468817D01*
X137900375Y-82464404D01*
X137887253Y-82462119D01*
X137860392Y-82460070D01*
X137821292Y-82458257D01*
X137771453Y-82456681D01*
X137712374Y-82455342D01*
X137645556Y-82454239D01*
X137572497Y-82453373D01*
X137494698Y-82452744D01*
X137413658Y-82452351D01*
X137330877Y-82452194D01*
X137247854Y-82452275D01*
X137166089Y-82452591D01*
X137087082Y-82453145D01*
X137012333Y-82453935D01*
X136943340Y-82454961D01*
X136881604Y-82456224D01*
X136828625Y-82457724D01*
X136785901Y-82459460D01*
X136754933Y-82461433D01*
X136737221Y-82463642D01*
X136734585Y-82464404D01*
X136719256Y-82474040D01*
X136696002Y-82492609D01*
X136667089Y-82517910D01*
X136634783Y-82547739D01*
X136601348Y-82579894D01*
X136569050Y-82612171D01*
X136540155Y-82642367D01*
X136516928Y-82668280D01*
X136501635Y-82687706D01*
X136497276Y-82695170D01*
X136493881Y-82711101D01*
X136491093Y-82739757D01*
X136488913Y-82778674D01*
X136487339Y-82825382D01*
X136486369Y-82877415D01*
X136486001Y-82932307D01*
X136486235Y-82987589D01*
X136487068Y-83040794D01*
X136488500Y-83089456D01*
X136490529Y-83131107D01*
X136493153Y-83163281D01*
X136496372Y-83183509D01*
X136497567Y-83187150D01*
X136505079Y-83197514D01*
X136522309Y-83217362D01*
X136548112Y-83245490D01*
X136581343Y-83280695D01*
X136620855Y-83321772D01*
X136665504Y-83367517D01*
X136714144Y-83416727D01*
X136752837Y-83455465D01*
X136997440Y-83699261D01*
X136997440Y-83741311D01*
X136997440Y-83783361D01*
X136884692Y-83895920D01*
X136771945Y-84008480D01*
X136742827Y-83996314D01*
X136700661Y-83985577D01*
X136652810Y-83984378D01*
X136605244Y-83992440D01*
X136573756Y-84004195D01*
X136525620Y-84035079D01*
X136482667Y-84076527D01*
X136449569Y-84123901D01*
X136445751Y-84131217D01*
X136429102Y-84180737D01*
X136424956Y-84234213D01*
X136433315Y-84286887D01*
X136445751Y-84319043D01*
X136474297Y-84363471D01*
X136512123Y-84403961D01*
X136554484Y-84435706D01*
X136568663Y-84443452D01*
X136592926Y-84453498D01*
X136618259Y-84459052D01*
X136650559Y-84461201D01*
X136665970Y-84461350D01*
X136715951Y-84457866D01*
X136757444Y-84446083D01*
X136795189Y-84424006D01*
X136832206Y-84391366D01*
X136870813Y-84344104D01*
X136893034Y-84297520D01*
X136665970Y-84297520D01*
X136631775Y-84294454D01*
X136609718Y-84283885D01*
X136597703Y-84263762D01*
X136593635Y-84232031D01*
X136593580Y-84226586D01*
X136595355Y-84200931D01*
X136599888Y-84180102D01*
X136603309Y-84172828D01*
X136621305Y-84159607D01*
X136647851Y-84152627D01*
X136677627Y-84151897D01*
X136705310Y-84157428D01*
X136725577Y-84169228D01*
X136728463Y-84172597D01*
X136736246Y-84192703D01*
X136738796Y-84220209D01*
X136736409Y-84248980D01*
X136729386Y-84272880D01*
X136723120Y-84282280D01*
X136708436Y-84292135D01*
X136686979Y-84296735D01*
X136665970Y-84297520D01*
X136893034Y-84297520D01*
X136894805Y-84293808D01*
X136904346Y-84244594D01*
X136907509Y-84202270D01*
X137062600Y-84046060D01*
X137102836Y-84005079D01*
X137139749Y-83966617D01*
X137171885Y-83932256D01*
X137197793Y-83903578D01*
X137216023Y-83882163D01*
X137225121Y-83869594D01*
X137225675Y-83868399D01*
X137229570Y-83849362D01*
X137232197Y-83819132D01*
X137233594Y-83781425D01*
X137233801Y-83739957D01*
X137232855Y-83698445D01*
X137230795Y-83660604D01*
X137227659Y-83630150D01*
X137223487Y-83610800D01*
X137222993Y-83609570D01*
X137215481Y-83599206D01*
X137198251Y-83579358D01*
X137172448Y-83551230D01*
X137139217Y-83516025D01*
X137099705Y-83474948D01*
X137055056Y-83429203D01*
X137006416Y-83379993D01*
X136967723Y-83341255D01*
X136723120Y-83097459D01*
X136723120Y-82944810D01*
X136723120Y-82792161D01*
X136774746Y-82740931D01*
X136826372Y-82689700D01*
X136999536Y-82689700D01*
X137172700Y-82689700D01*
X137172678Y-82840195D01*
X137172656Y-82990690D01*
X137149341Y-83005930D01*
X137126837Y-83025326D01*
X137102345Y-83053717D01*
X137079762Y-83086041D01*
X137062986Y-83117237D01*
X137062165Y-83119163D01*
X137052310Y-83158013D01*
X137050551Y-83203431D01*
X137056586Y-83249267D01*
X137070112Y-83289371D01*
X137070591Y-83290343D01*
X137099137Y-83334771D01*
X137136963Y-83375261D01*
X137179324Y-83407006D01*
X137193503Y-83414752D01*
X137233748Y-83428040D01*
X137280914Y-83433602D01*
X137329093Y-83431414D01*
X137372378Y-83421454D01*
X137386562Y-83415505D01*
X137423149Y-83392011D01*
X137459619Y-83359355D01*
X137490954Y-83322561D01*
X137509616Y-83292182D01*
X137517398Y-83268820D01*
X137290810Y-83268820D01*
X137256615Y-83265754D01*
X137234558Y-83255185D01*
X137222543Y-83235062D01*
X137218475Y-83203331D01*
X137218420Y-83197886D01*
X137220195Y-83172231D01*
X137224728Y-83151402D01*
X137228149Y-83144128D01*
X137246145Y-83130907D01*
X137272691Y-83123927D01*
X137302467Y-83123197D01*
X137330150Y-83128728D01*
X137350417Y-83140528D01*
X137353303Y-83143897D01*
X137361086Y-83164003D01*
X137363636Y-83191509D01*
X137361249Y-83220280D01*
X137354226Y-83244180D01*
X137347960Y-83253580D01*
X137333276Y-83263435D01*
X137311819Y-83268035D01*
X137290810Y-83268820D01*
X137517398Y-83268820D01*
X137523912Y-83249263D01*
X137529798Y-83200660D01*
X137526826Y-83153111D01*
X137520572Y-83127800D01*
X137504662Y-83092860D01*
X137481849Y-83057246D01*
X137455921Y-83026185D01*
X137432279Y-83005930D01*
X137408964Y-82990690D01*
X137408942Y-82840195D01*
X137408920Y-82689700D01*
X137609149Y-82689700D01*
X137809379Y-82689700D01*
X137860609Y-82741326D01*
X137911840Y-82792952D01*
X137911840Y-82945206D01*
X137911840Y-83097459D01*
X137667237Y-83341255D01*
X137616341Y-83392283D01*
X137568572Y-83440757D01*
X137525073Y-83485472D01*
X137486991Y-83525224D01*
X137455471Y-83558809D01*
X137431659Y-83585024D01*
X137416700Y-83602663D01*
X137411967Y-83609570D01*
X137407076Y-83629377D01*
X137403587Y-83660554D01*
X137401500Y-83699296D01*
X137400815Y-83741795D01*
X137401532Y-83784248D01*
X137403652Y-83822849D01*
X137407174Y-83853791D01*
X137411957Y-83872950D01*
X137420043Y-83884620D01*
X137437536Y-83905292D01*
X137462926Y-83933337D01*
X137494701Y-83967123D01*
X137531352Y-84005021D01*
X137571368Y-84045398D01*
X137575787Y-84049799D01*
X137728960Y-84202127D01*
X137728960Y-84240707D01*
X137735929Y-84285054D01*
X137755360Y-84330370D01*
X137785042Y-84373514D01*
X137822763Y-84411342D01*
X137866309Y-84440713D01*
X137871683Y-84443452D01*
X137911928Y-84456740D01*
X137959094Y-84462302D01*
G36*
X137944021Y-82345057D02*
G01*
X137992796Y-82344454D01*
X138039946Y-82335170D01*
X138064742Y-82325576D01*
X138101127Y-82302415D01*
X138137594Y-82269912D01*
X138169112Y-82233084D01*
X138188065Y-82202522D01*
X138195681Y-82179160D01*
X137968990Y-82179160D01*
X137934795Y-82176093D01*
X137912738Y-82165525D01*
X137900723Y-82145402D01*
X137896655Y-82113671D01*
X137896600Y-82108226D01*
X137898375Y-82082571D01*
X137902908Y-82061742D01*
X137906329Y-82054468D01*
X137924325Y-82041247D01*
X137950871Y-82034267D01*
X137980647Y-82033537D01*
X138008330Y-82039068D01*
X138028597Y-82050868D01*
X138031483Y-82054238D01*
X138039266Y-82074343D01*
X138041816Y-82101849D01*
X138039429Y-82130620D01*
X138032406Y-82154520D01*
X138026140Y-82163920D01*
X138011456Y-82173775D01*
X137989999Y-82178375D01*
X137968990Y-82179160D01*
X138195681Y-82179160D01*
X138201041Y-82162719D01*
X138206235Y-82115735D01*
X138203672Y-82067475D01*
X138193373Y-82023850D01*
X138187312Y-82009463D01*
X138159247Y-81966301D01*
X138120753Y-81926304D01*
X138076570Y-81894119D01*
X138061204Y-81885835D01*
X138018365Y-81871288D01*
X137970759Y-81865474D01*
X137924372Y-81868683D01*
X137892862Y-81877649D01*
X137861163Y-81894220D01*
X137828285Y-81916769D01*
X137799253Y-81941444D01*
X137779092Y-81964396D01*
X137778490Y-81965301D01*
X137763250Y-81988616D01*
X137243185Y-81988638D01*
X136723120Y-81988660D01*
X136723120Y-81956219D01*
X136723327Y-81947486D01*
X136724644Y-81939286D01*
X136728112Y-81930402D01*
X136734775Y-81919618D01*
X136745673Y-81905714D01*
X136761850Y-81887476D01*
X136784347Y-81863683D01*
X136814208Y-81833121D01*
X136852473Y-81794571D01*
X136900186Y-81746816D01*
X136915580Y-81731429D01*
X137108040Y-81539080D01*
X137180375Y-81539102D01*
X137213999Y-81539267D01*
X137235842Y-81540354D01*
X137249361Y-81543283D01*
X137258015Y-81548977D01*
X137265263Y-81558356D01*
X137267950Y-81562439D01*
X137290062Y-81587862D01*
X137321597Y-81613698D01*
X137357331Y-81636162D01*
X137389820Y-81650732D01*
X137433481Y-81659257D01*
X137482256Y-81658654D01*
X137529406Y-81649370D01*
X137554202Y-81639776D01*
X137590587Y-81616615D01*
X137627053Y-81584112D01*
X137658572Y-81547284D01*
X137677524Y-81516722D01*
X137685141Y-81493360D01*
X137458450Y-81493360D01*
X137424255Y-81490293D01*
X137402198Y-81479725D01*
X137390183Y-81459602D01*
X137386115Y-81427871D01*
X137386060Y-81422426D01*
X137387835Y-81396771D01*
X137392368Y-81375942D01*
X137395789Y-81368668D01*
X137413785Y-81355447D01*
X137440331Y-81348467D01*
X137470107Y-81347737D01*
X137497790Y-81353268D01*
X137518057Y-81365068D01*
X137520943Y-81368438D01*
X137528726Y-81388543D01*
X137531276Y-81416049D01*
X137528889Y-81444820D01*
X137521866Y-81468720D01*
X137515600Y-81478120D01*
X137500916Y-81487975D01*
X137479459Y-81492575D01*
X137458450Y-81493360D01*
X137685141Y-81493360D01*
X137690501Y-81476919D01*
X137695695Y-81429935D01*
X137693132Y-81381675D01*
X137682833Y-81338050D01*
X137676772Y-81323664D01*
X137648707Y-81280501D01*
X137610213Y-81240504D01*
X137566030Y-81208319D01*
X137550664Y-81200035D01*
X137507825Y-81185488D01*
X137460219Y-81179674D01*
X137413832Y-81182883D01*
X137382322Y-81191849D01*
X137350623Y-81208420D01*
X137317745Y-81230969D01*
X137288713Y-81255644D01*
X137268552Y-81278596D01*
X137267950Y-81279501D01*
X137260405Y-81290306D01*
X137252600Y-81297120D01*
X137241078Y-81300864D01*
X137222379Y-81302460D01*
X137193046Y-81302828D01*
X137180375Y-81302838D01*
X137108040Y-81302860D01*
X136915580Y-81110511D01*
X136864999Y-81059924D01*
X136824160Y-81018887D01*
X136792022Y-80986183D01*
X136767543Y-80960594D01*
X136749679Y-80940904D01*
X136737390Y-80925895D01*
X136729632Y-80914350D01*
X136725364Y-80905051D01*
X136723543Y-80896781D01*
X136723127Y-80888323D01*
X136723120Y-80885721D01*
X136723120Y-80853280D01*
X137243185Y-80853302D01*
X137763250Y-80853324D01*
X137778490Y-80876639D01*
X137800602Y-80902062D01*
X137832137Y-80927898D01*
X137867871Y-80950362D01*
X137900360Y-80964932D01*
X137944021Y-80973457D01*
X137992796Y-80972854D01*
X138039946Y-80963570D01*
X138064742Y-80953976D01*
X138101213Y-80930756D01*
X138137694Y-80898205D01*
X138169136Y-80861367D01*
X138187900Y-80830922D01*
X138195751Y-80807560D01*
X137968990Y-80807560D01*
X137934795Y-80804493D01*
X137912738Y-80793925D01*
X137900723Y-80773802D01*
X137896655Y-80742071D01*
X137896600Y-80736626D01*
X137898375Y-80710971D01*
X137902908Y-80690142D01*
X137906329Y-80682868D01*
X137924325Y-80669647D01*
X137950871Y-80662667D01*
X137980647Y-80661937D01*
X138008330Y-80667468D01*
X138028597Y-80679268D01*
X138031483Y-80682638D01*
X138039266Y-80702743D01*
X138041816Y-80730249D01*
X138039429Y-80759020D01*
X138032406Y-80782920D01*
X138026140Y-80792320D01*
X138011456Y-80802175D01*
X137989999Y-80806775D01*
X137968990Y-80807560D01*
X138195751Y-80807560D01*
X138199874Y-80795292D01*
X138206290Y-80752536D01*
X138206784Y-80708917D01*
X138200993Y-80670697D01*
X138197770Y-80660674D01*
X138171326Y-80610807D01*
X138133044Y-80565449D01*
X138086288Y-80528000D01*
X138044577Y-80505823D01*
X138013138Y-80497731D01*
X137974049Y-80494648D01*
X137934051Y-80496564D01*
X137899885Y-80503468D01*
X137892862Y-80506049D01*
X137861163Y-80522620D01*
X137828285Y-80545169D01*
X137799253Y-80569844D01*
X137779092Y-80592796D01*
X137778490Y-80593701D01*
X137763250Y-80617016D01*
X137125075Y-80617038D01*
X136486900Y-80617060D01*
X136486900Y-80799444D01*
X136487240Y-80858251D01*
X136488214Y-80909650D01*
X136489748Y-80951798D01*
X136491771Y-80982855D01*
X136494211Y-81000979D01*
X136494880Y-81003279D01*
X136501977Y-81013473D01*
X136518654Y-81033018D01*
X136543643Y-81060561D01*
X136575674Y-81094748D01*
X136613481Y-81134224D01*
X136655795Y-81177637D01*
X136700621Y-81222904D01*
X136898383Y-81421079D01*
X136703304Y-81615335D01*
X136657887Y-81660938D01*
X136615625Y-81704097D01*
X136577823Y-81743422D01*
X136545791Y-81777523D01*
X136520835Y-81805009D01*
X136504264Y-81824491D01*
X136497563Y-81834110D01*
X136493940Y-81846272D01*
X136491172Y-81865130D01*
X136489172Y-81892393D01*
X136487852Y-81929768D01*
X136487123Y-81978961D01*
X136486900Y-82041679D01*
X136486900Y-82041755D01*
X136486900Y-82224880D01*
X137125075Y-82224902D01*
X137763250Y-82224924D01*
X137778490Y-82248239D01*
X137800602Y-82273662D01*
X137832137Y-82299498D01*
X137867871Y-82321962D01*
X137900360Y-82336532D01*
X137944021Y-82345057D01*
G37*
X137944021Y-82345057D02*
X137992796Y-82344454D01*
X138039946Y-82335170D01*
X138064742Y-82325576D01*
X138101127Y-82302415D01*
X138137594Y-82269912D01*
X138169112Y-82233084D01*
X138188065Y-82202522D01*
X138195681Y-82179160D01*
X137968990Y-82179160D01*
X137934795Y-82176093D01*
X137912738Y-82165525D01*
X137900723Y-82145402D01*
X137896655Y-82113671D01*
X137896600Y-82108226D01*
X137898375Y-82082571D01*
X137902908Y-82061742D01*
X137906329Y-82054468D01*
X137924325Y-82041247D01*
X137950871Y-82034267D01*
X137980647Y-82033537D01*
X138008330Y-82039068D01*
X138028597Y-82050868D01*
X138031483Y-82054238D01*
X138039266Y-82074343D01*
X138041816Y-82101849D01*
X138039429Y-82130620D01*
X138032406Y-82154520D01*
X138026140Y-82163920D01*
X138011456Y-82173775D01*
X137989999Y-82178375D01*
X137968990Y-82179160D01*
X138195681Y-82179160D01*
X138201041Y-82162719D01*
X138206235Y-82115735D01*
X138203672Y-82067475D01*
X138193373Y-82023850D01*
X138187312Y-82009463D01*
X138159247Y-81966301D01*
X138120753Y-81926304D01*
X138076570Y-81894119D01*
X138061204Y-81885835D01*
X138018365Y-81871288D01*
X137970759Y-81865474D01*
X137924372Y-81868683D01*
X137892862Y-81877649D01*
X137861163Y-81894220D01*
X137828285Y-81916769D01*
X137799253Y-81941444D01*
X137779092Y-81964396D01*
X137778490Y-81965301D01*
X137763250Y-81988616D01*
X137243185Y-81988638D01*
X136723120Y-81988660D01*
X136723120Y-81956219D01*
X136723327Y-81947486D01*
X136724644Y-81939286D01*
X136728112Y-81930402D01*
X136734775Y-81919618D01*
X136745673Y-81905714D01*
X136761850Y-81887476D01*
X136784347Y-81863683D01*
X136814208Y-81833121D01*
X136852473Y-81794571D01*
X136900186Y-81746816D01*
X136915580Y-81731429D01*
X137108040Y-81539080D01*
X137180375Y-81539102D01*
X137213999Y-81539267D01*
X137235842Y-81540354D01*
X137249361Y-81543283D01*
X137258015Y-81548977D01*
X137265263Y-81558356D01*
X137267950Y-81562439D01*
X137290062Y-81587862D01*
X137321597Y-81613698D01*
X137357331Y-81636162D01*
X137389820Y-81650732D01*
X137433481Y-81659257D01*
X137482256Y-81658654D01*
X137529406Y-81649370D01*
X137554202Y-81639776D01*
X137590587Y-81616615D01*
X137627053Y-81584112D01*
X137658572Y-81547284D01*
X137677524Y-81516722D01*
X137685141Y-81493360D01*
X137458450Y-81493360D01*
X137424255Y-81490293D01*
X137402198Y-81479725D01*
X137390183Y-81459602D01*
X137386115Y-81427871D01*
X137386060Y-81422426D01*
X137387835Y-81396771D01*
X137392368Y-81375942D01*
X137395789Y-81368668D01*
X137413785Y-81355447D01*
X137440331Y-81348467D01*
X137470107Y-81347737D01*
X137497790Y-81353268D01*
X137518057Y-81365068D01*
X137520943Y-81368438D01*
X137528726Y-81388543D01*
X137531276Y-81416049D01*
X137528889Y-81444820D01*
X137521866Y-81468720D01*
X137515600Y-81478120D01*
X137500916Y-81487975D01*
X137479459Y-81492575D01*
X137458450Y-81493360D01*
X137685141Y-81493360D01*
X137690501Y-81476919D01*
X137695695Y-81429935D01*
X137693132Y-81381675D01*
X137682833Y-81338050D01*
X137676772Y-81323664D01*
X137648707Y-81280501D01*
X137610213Y-81240504D01*
X137566030Y-81208319D01*
X137550664Y-81200035D01*
X137507825Y-81185488D01*
X137460219Y-81179674D01*
X137413832Y-81182883D01*
X137382322Y-81191849D01*
X137350623Y-81208420D01*
X137317745Y-81230969D01*
X137288713Y-81255644D01*
X137268552Y-81278596D01*
X137267950Y-81279501D01*
X137260405Y-81290306D01*
X137252600Y-81297120D01*
X137241078Y-81300864D01*
X137222379Y-81302460D01*
X137193046Y-81302828D01*
X137180375Y-81302838D01*
X137108040Y-81302860D01*
X136915580Y-81110511D01*
X136864999Y-81059924D01*
X136824160Y-81018887D01*
X136792022Y-80986183D01*
X136767543Y-80960594D01*
X136749679Y-80940904D01*
X136737390Y-80925895D01*
X136729632Y-80914350D01*
X136725364Y-80905051D01*
X136723543Y-80896781D01*
X136723127Y-80888323D01*
X136723120Y-80885721D01*
X136723120Y-80853280D01*
X137243185Y-80853302D01*
X137763250Y-80853324D01*
X137778490Y-80876639D01*
X137800602Y-80902062D01*
X137832137Y-80927898D01*
X137867871Y-80950362D01*
X137900360Y-80964932D01*
X137944021Y-80973457D01*
X137992796Y-80972854D01*
X138039946Y-80963570D01*
X138064742Y-80953976D01*
X138101213Y-80930756D01*
X138137694Y-80898205D01*
X138169136Y-80861367D01*
X138187900Y-80830922D01*
X138195751Y-80807560D01*
X137968990Y-80807560D01*
X137934795Y-80804493D01*
X137912738Y-80793925D01*
X137900723Y-80773802D01*
X137896655Y-80742071D01*
X137896600Y-80736626D01*
X137898375Y-80710971D01*
X137902908Y-80690142D01*
X137906329Y-80682868D01*
X137924325Y-80669647D01*
X137950871Y-80662667D01*
X137980647Y-80661937D01*
X138008330Y-80667468D01*
X138028597Y-80679268D01*
X138031483Y-80682638D01*
X138039266Y-80702743D01*
X138041816Y-80730249D01*
X138039429Y-80759020D01*
X138032406Y-80782920D01*
X138026140Y-80792320D01*
X138011456Y-80802175D01*
X137989999Y-80806775D01*
X137968990Y-80807560D01*
X138195751Y-80807560D01*
X138199874Y-80795292D01*
X138206290Y-80752536D01*
X138206784Y-80708917D01*
X138200993Y-80670697D01*
X138197770Y-80660674D01*
X138171326Y-80610807D01*
X138133044Y-80565449D01*
X138086288Y-80528000D01*
X138044577Y-80505823D01*
X138013138Y-80497731D01*
X137974049Y-80494648D01*
X137934051Y-80496564D01*
X137899885Y-80503468D01*
X137892862Y-80506049D01*
X137861163Y-80522620D01*
X137828285Y-80545169D01*
X137799253Y-80569844D01*
X137779092Y-80592796D01*
X137778490Y-80593701D01*
X137763250Y-80617016D01*
X137125075Y-80617038D01*
X136486900Y-80617060D01*
X136486900Y-80799444D01*
X136487240Y-80858251D01*
X136488214Y-80909650D01*
X136489748Y-80951798D01*
X136491771Y-80982855D01*
X136494211Y-81000979D01*
X136494880Y-81003279D01*
X136501977Y-81013473D01*
X136518654Y-81033018D01*
X136543643Y-81060561D01*
X136575674Y-81094748D01*
X136613481Y-81134224D01*
X136655795Y-81177637D01*
X136700621Y-81222904D01*
X136898383Y-81421079D01*
X136703304Y-81615335D01*
X136657887Y-81660938D01*
X136615625Y-81704097D01*
X136577823Y-81743422D01*
X136545791Y-81777523D01*
X136520835Y-81805009D01*
X136504264Y-81824491D01*
X136497563Y-81834110D01*
X136493940Y-81846272D01*
X136491172Y-81865130D01*
X136489172Y-81892393D01*
X136487852Y-81929768D01*
X136487123Y-81978961D01*
X136486900Y-82041679D01*
X136486900Y-82041755D01*
X136486900Y-82224880D01*
X137125075Y-82224902D01*
X137763250Y-82224924D01*
X137778490Y-82248239D01*
X137800602Y-82273662D01*
X137832137Y-82299498D01*
X137867871Y-82321962D01*
X137900360Y-82336532D01*
X137944021Y-82345057D01*
G36*
X137959094Y-80400842D02*
G01*
X138007273Y-80398654D01*
X138050558Y-80388694D01*
X138064742Y-80382745D01*
X138101381Y-80359207D01*
X138137932Y-80326461D01*
X138169350Y-80289560D01*
X138187900Y-80259422D01*
X138195740Y-80236060D01*
X137968990Y-80236060D01*
X137934795Y-80232993D01*
X137912738Y-80222425D01*
X137900723Y-80202302D01*
X137896655Y-80170571D01*
X137896600Y-80165126D01*
X137898375Y-80139471D01*
X137902908Y-80118642D01*
X137906329Y-80111368D01*
X137924325Y-80098147D01*
X137950871Y-80091167D01*
X137980647Y-80090437D01*
X138008330Y-80095968D01*
X138028597Y-80107768D01*
X138031483Y-80111138D01*
X138039266Y-80131243D01*
X138041816Y-80158749D01*
X138039429Y-80187520D01*
X138032406Y-80211420D01*
X138026140Y-80220820D01*
X138011456Y-80230675D01*
X137989999Y-80235275D01*
X137968990Y-80236060D01*
X138195740Y-80236060D01*
X138199973Y-80223446D01*
X138206359Y-80180351D01*
X138206700Y-80136433D01*
X138200637Y-80097990D01*
X138197617Y-80088730D01*
X138182013Y-80057232D01*
X138159825Y-80024103D01*
X138134987Y-79994560D01*
X138111432Y-79973817D01*
X138110459Y-79973170D01*
X138087144Y-79957930D01*
X138087122Y-79795760D01*
X138086844Y-79736492D01*
X138085956Y-79690586D01*
X138084349Y-79656176D01*
X138081914Y-79631391D01*
X138078544Y-79614363D01*
X138076176Y-79607445D01*
X138066540Y-79592116D01*
X138047971Y-79568862D01*
X138022670Y-79539949D01*
X137992840Y-79507643D01*
X137960686Y-79474208D01*
X137928409Y-79441910D01*
X137898213Y-79413015D01*
X137872300Y-79389788D01*
X137852874Y-79374495D01*
X137845410Y-79370136D01*
X137838664Y-79368273D01*
X137827195Y-79366637D01*
X137810117Y-79365213D01*
X137786543Y-79363988D01*
X137755586Y-79362951D01*
X137716358Y-79362086D01*
X137667974Y-79361381D01*
X137609546Y-79360822D01*
X137540186Y-79360397D01*
X137459009Y-79360091D01*
X137365128Y-79359892D01*
X137257654Y-79359787D01*
X137153895Y-79359760D01*
X136486900Y-79359760D01*
X136486900Y-79477870D01*
X136486900Y-79595980D01*
X137117659Y-79595980D01*
X137748419Y-79595980D01*
X137799649Y-79647606D01*
X137850880Y-79699232D01*
X137850858Y-79828581D01*
X137850836Y-79957930D01*
X137827521Y-79973170D01*
X137805018Y-79992566D01*
X137780525Y-80020957D01*
X137757942Y-80053281D01*
X137741166Y-80084477D01*
X137740345Y-80086403D01*
X137730490Y-80125253D01*
X137728731Y-80170671D01*
X137734766Y-80216507D01*
X137748292Y-80256611D01*
X137748771Y-80257583D01*
X137777317Y-80302011D01*
X137815143Y-80342501D01*
X137857504Y-80374246D01*
X137871683Y-80381992D01*
X137911928Y-80395280D01*
X137959094Y-80400842D01*
G37*
X137959094Y-80400842D02*
X138007273Y-80398654D01*
X138050558Y-80388694D01*
X138064742Y-80382745D01*
X138101381Y-80359207D01*
X138137932Y-80326461D01*
X138169350Y-80289560D01*
X138187900Y-80259422D01*
X138195740Y-80236060D01*
X137968990Y-80236060D01*
X137934795Y-80232993D01*
X137912738Y-80222425D01*
X137900723Y-80202302D01*
X137896655Y-80170571D01*
X137896600Y-80165126D01*
X137898375Y-80139471D01*
X137902908Y-80118642D01*
X137906329Y-80111368D01*
X137924325Y-80098147D01*
X137950871Y-80091167D01*
X137980647Y-80090437D01*
X138008330Y-80095968D01*
X138028597Y-80107768D01*
X138031483Y-80111138D01*
X138039266Y-80131243D01*
X138041816Y-80158749D01*
X138039429Y-80187520D01*
X138032406Y-80211420D01*
X138026140Y-80220820D01*
X138011456Y-80230675D01*
X137989999Y-80235275D01*
X137968990Y-80236060D01*
X138195740Y-80236060D01*
X138199973Y-80223446D01*
X138206359Y-80180351D01*
X138206700Y-80136433D01*
X138200637Y-80097990D01*
X138197617Y-80088730D01*
X138182013Y-80057232D01*
X138159825Y-80024103D01*
X138134987Y-79994560D01*
X138111432Y-79973817D01*
X138110459Y-79973170D01*
X138087144Y-79957930D01*
X138087122Y-79795760D01*
X138086844Y-79736492D01*
X138085956Y-79690586D01*
X138084349Y-79656176D01*
X138081914Y-79631391D01*
X138078544Y-79614363D01*
X138076176Y-79607445D01*
X138066540Y-79592116D01*
X138047971Y-79568862D01*
X138022670Y-79539949D01*
X137992840Y-79507643D01*
X137960686Y-79474208D01*
X137928409Y-79441910D01*
X137898213Y-79413015D01*
X137872300Y-79389788D01*
X137852874Y-79374495D01*
X137845410Y-79370136D01*
X137838664Y-79368273D01*
X137827195Y-79366637D01*
X137810117Y-79365213D01*
X137786543Y-79363988D01*
X137755586Y-79362951D01*
X137716358Y-79362086D01*
X137667974Y-79361381D01*
X137609546Y-79360822D01*
X137540186Y-79360397D01*
X137459009Y-79360091D01*
X137365128Y-79359892D01*
X137257654Y-79359787D01*
X137153895Y-79359760D01*
X136486900Y-79359760D01*
X136486900Y-79477870D01*
X136486900Y-79595980D01*
X137117659Y-79595980D01*
X137748419Y-79595980D01*
X137799649Y-79647606D01*
X137850880Y-79699232D01*
X137850858Y-79828581D01*
X137850836Y-79957930D01*
X137827521Y-79973170D01*
X137805018Y-79992566D01*
X137780525Y-80020957D01*
X137757942Y-80053281D01*
X137741166Y-80084477D01*
X137740345Y-80086403D01*
X137730490Y-80125253D01*
X137728731Y-80170671D01*
X137734766Y-80216507D01*
X137748292Y-80256611D01*
X137748771Y-80257583D01*
X137777317Y-80302011D01*
X137815143Y-80342501D01*
X137857504Y-80374246D01*
X137871683Y-80381992D01*
X137911928Y-80395280D01*
X137959094Y-80400842D01*
D14*
X149479000Y-96139000D02*
X149479000Y-95123000D01*
X150241000Y-96393000D02*
X149733000Y-96393000D01*
X150495000Y-95123000D02*
X150495000Y-96139000D01*
X149733000Y-94869000D02*
X150241000Y-94869000D01*
D20*
X149479000Y-95123000D02*
G75*
G02*
X149733000Y-94869000I254000J0D01*
G01*
X149733000Y-96393000D02*
G75*
G02*
X149479000Y-96139000I0J254000D01*
G01*
X150495000Y-96139000D02*
G75*
G02*
X150241000Y-96393000I-254000J0D01*
G01*
X150241000Y-94869000D02*
G75*
G02*
X150495000Y-95123000I0J-254000D01*
G01*
D14*
X149479000Y-93980000D02*
X149479000Y-92964000D01*
X150241000Y-94234000D02*
X149733000Y-94234000D01*
X150495000Y-92964000D02*
X150495000Y-93980000D01*
X149733000Y-92710000D02*
X150241000Y-92710000D01*
D20*
X149479000Y-92964000D02*
G75*
G02*
X149733000Y-92710000I254000J0D01*
G01*
X149733000Y-94234000D02*
G75*
G02*
X149479000Y-93980000I0J254000D01*
G01*
X150495000Y-93980000D02*
G75*
G02*
X150241000Y-94234000I-254000J0D01*
G01*
X150241000Y-92710000D02*
G75*
G02*
X150495000Y-92964000I0J-254000D01*
G01*
D14*
X150495000Y-98298000D02*
X150495000Y-99314000D01*
X149733000Y-98044000D02*
X150241000Y-98044000D01*
X149479000Y-99314000D02*
X149479000Y-98298000D01*
X150241000Y-99568000D02*
X149733000Y-99568000D01*
D20*
X150495000Y-99314000D02*
G75*
G02*
X150241000Y-99568000I-254000J0D01*
G01*
X150241000Y-98044000D02*
G75*
G02*
X150495000Y-98298000I0J-254000D01*
G01*
X149479000Y-98298000D02*
G75*
G02*
X149733000Y-98044000I254000J0D01*
G01*
X149733000Y-99568000D02*
G75*
G02*
X149479000Y-99314000I0J254000D01*
G01*
D14*
X137922000Y-92202000D02*
X137922000Y-92710000D01*
X137668000Y-92964000D02*
X136652000Y-92964000D01*
X136398000Y-92710000D02*
X136398000Y-92202000D01*
X136652000Y-91948000D02*
X137668000Y-91948000D01*
D20*
X137922000Y-92710000D02*
G75*
G02*
X137668000Y-92964000I-254000J0D01*
G01*
X136652000Y-92964000D02*
G75*
G02*
X136398000Y-92710000I0J254000D01*
G01*
X136398000Y-92202000D02*
G75*
G02*
X136652000Y-91948000I254000J0D01*
G01*
X137668000Y-91948000D02*
G75*
G02*
X137922000Y-92202000I0J-254000D01*
G01*
D10*
X129540000Y-85090000D02*
X132080000Y-85090000D01*
X131826000Y-90170000D02*
X132080000Y-90424000D01*
X132080000Y-89916000D02*
X131826000Y-90170000D01*
X132080000Y-87376000D02*
X132080000Y-85598000D01*
X131826000Y-87630000D02*
X132080000Y-87376000D01*
X132080000Y-87884000D02*
X131826000Y-87630000D01*
X132080000Y-89916000D02*
X132080000Y-87884000D01*
X132080000Y-85598000D02*
X132080000Y-85090000D01*
X132080000Y-85344000D02*
X131826000Y-85090000D01*
X129794000Y-85090000D02*
X129540000Y-85344000D01*
X132080000Y-92456000D02*
X132080000Y-90424000D01*
X131826000Y-92710000D02*
X132080000Y-92456000D01*
X132080000Y-95504000D02*
X131826000Y-95250000D01*
X132080000Y-94996000D02*
X132080000Y-92964000D01*
X131826000Y-95250000D02*
X132080000Y-94996000D01*
X129540000Y-94996000D02*
X129794000Y-95250000D01*
X129540000Y-92964000D02*
X129540000Y-94996000D01*
X129794000Y-92710000D02*
X129540000Y-92964000D01*
X129540000Y-92456000D02*
X129794000Y-92710000D01*
X129540000Y-90424000D02*
X129540000Y-92456000D01*
X129794000Y-90170000D02*
X129540000Y-90424000D01*
X129540000Y-89916000D02*
X129794000Y-90170000D01*
X129540000Y-87884000D02*
X129540000Y-89916000D01*
X129794000Y-87630000D02*
X129540000Y-87884000D01*
X129540000Y-87376000D02*
X129794000Y-87630000D01*
X129540000Y-85344000D02*
X129540000Y-87376000D01*
X129540000Y-85090000D02*
X129540000Y-85344000D01*
X129794000Y-95250000D02*
X129540000Y-95504000D01*
X129540000Y-95504000D02*
X129540000Y-97536000D01*
X129540000Y-100076000D02*
X129794000Y-100330000D01*
X132080000Y-97536000D02*
X132080000Y-95504000D01*
X132080000Y-92964000D02*
X131826000Y-92710000D01*
X131826000Y-100330000D02*
X132080000Y-100076000D01*
X129540000Y-98044000D02*
X129540000Y-100076000D01*
X129794000Y-97790000D02*
X129540000Y-98044000D01*
X132080000Y-100076000D02*
X132080000Y-98044000D01*
X131826000Y-97790000D02*
X132080000Y-97536000D01*
X132080000Y-98044000D02*
X131826000Y-97790000D01*
X129540000Y-97536000D02*
X129794000Y-97790000D01*
X129540000Y-100076000D02*
X129794000Y-100330000D01*
X131826000Y-100330000D02*
X132080000Y-100076000D01*
X132080000Y-100076000D02*
X132080000Y-98044000D01*
X129540000Y-98044000D02*
X129540000Y-100076000D01*
X129794000Y-97790000D02*
X129540000Y-98044000D01*
X132080000Y-98044000D02*
X131826000Y-97790000D01*
X132080000Y-103124000D02*
X131826000Y-102870000D01*
X129794000Y-102870000D02*
X129540000Y-103124000D01*
X129540000Y-103124000D02*
X129540000Y-105156000D01*
X132080000Y-105156000D02*
X132080000Y-103124000D01*
X131826000Y-105410000D02*
X132080000Y-105156000D01*
X129540000Y-105156000D02*
X129794000Y-105410000D01*
X129540000Y-102616000D02*
X129794000Y-102870000D01*
X132080000Y-103124000D02*
X131826000Y-102870000D01*
X131826000Y-102870000D02*
X132080000Y-102616000D01*
X132080000Y-105156000D02*
X132080000Y-103124000D01*
X129794000Y-102870000D02*
X129540000Y-103124000D01*
X129540000Y-103124000D02*
X129540000Y-105156000D01*
X131826000Y-105410000D02*
X132080000Y-105156000D01*
X132080000Y-102616000D02*
X132080000Y-100584000D01*
X129540000Y-105156000D02*
X129794000Y-105410000D01*
X129540000Y-100584000D02*
X129540000Y-102616000D01*
X129794000Y-100330000D02*
X129540000Y-100584000D01*
X132080000Y-100584000D02*
X131826000Y-100330000D01*
X132080000Y-105664000D02*
X131826000Y-105410000D01*
X129794000Y-105410000D02*
X129540000Y-105664000D01*
X129540000Y-105664000D02*
X129540000Y-107696000D01*
X132080000Y-107696000D02*
X132080000Y-105664000D01*
X129794000Y-107950000D02*
X131826000Y-107950000D01*
X129540000Y-107696000D02*
X129794000Y-107950000D01*
X131826000Y-107950000D02*
X132080000Y-107696000D01*
X157226000Y-107950000D02*
X157480000Y-107696000D01*
X154940000Y-107696000D02*
X155194000Y-107950000D01*
X155194000Y-107950000D02*
X157226000Y-107950000D01*
X157480000Y-107696000D02*
X157480000Y-105664000D01*
X154940000Y-105664000D02*
X154940000Y-107696000D01*
X155194000Y-105410000D02*
X154940000Y-105664000D01*
X157480000Y-105664000D02*
X157226000Y-105410000D01*
X157480000Y-100584000D02*
X157226000Y-100330000D01*
X155194000Y-100330000D02*
X154940000Y-100584000D01*
X154940000Y-100584000D02*
X154940000Y-102616000D01*
X154940000Y-105156000D02*
X155194000Y-105410000D01*
X157480000Y-102616000D02*
X157480000Y-100584000D01*
X157226000Y-105410000D02*
X157480000Y-105156000D01*
X154940000Y-103124000D02*
X154940000Y-105156000D01*
X155194000Y-102870000D02*
X154940000Y-103124000D01*
X157480000Y-105156000D02*
X157480000Y-103124000D01*
X157226000Y-102870000D02*
X157480000Y-102616000D01*
X157480000Y-103124000D02*
X157226000Y-102870000D01*
X154940000Y-102616000D02*
X155194000Y-102870000D01*
X154940000Y-105156000D02*
X155194000Y-105410000D01*
X157226000Y-105410000D02*
X157480000Y-105156000D01*
X157480000Y-105156000D02*
X157480000Y-103124000D01*
X154940000Y-103124000D02*
X154940000Y-105156000D01*
X155194000Y-102870000D02*
X154940000Y-103124000D01*
X157480000Y-103124000D02*
X157226000Y-102870000D01*
X157480000Y-98044000D02*
X157226000Y-97790000D01*
X155194000Y-97790000D02*
X154940000Y-98044000D01*
X154940000Y-98044000D02*
X154940000Y-100076000D01*
X157480000Y-100076000D02*
X157480000Y-98044000D01*
X157226000Y-100330000D02*
X157480000Y-100076000D01*
X154940000Y-100076000D02*
X155194000Y-100330000D01*
X154940000Y-97536000D02*
X155194000Y-97790000D01*
X157480000Y-98044000D02*
X157226000Y-97790000D01*
X157226000Y-97790000D02*
X157480000Y-97536000D01*
X157480000Y-100076000D02*
X157480000Y-98044000D01*
X155194000Y-97790000D02*
X154940000Y-98044000D01*
X154940000Y-98044000D02*
X154940000Y-100076000D01*
X157226000Y-100330000D02*
X157480000Y-100076000D01*
X157480000Y-92964000D02*
X157226000Y-92710000D01*
X157480000Y-97536000D02*
X157480000Y-95504000D01*
X154940000Y-100076000D02*
X155194000Y-100330000D01*
X154940000Y-95504000D02*
X154940000Y-97536000D01*
X155194000Y-95250000D02*
X154940000Y-95504000D01*
X154940000Y-85090000D02*
X154940000Y-85344000D01*
X154940000Y-85344000D02*
X154940000Y-87376000D01*
X154940000Y-87376000D02*
X155194000Y-87630000D01*
X155194000Y-87630000D02*
X154940000Y-87884000D01*
X154940000Y-87884000D02*
X154940000Y-89916000D01*
X154940000Y-89916000D02*
X155194000Y-90170000D01*
X155194000Y-90170000D02*
X154940000Y-90424000D01*
X154940000Y-90424000D02*
X154940000Y-92456000D01*
X154940000Y-92456000D02*
X155194000Y-92710000D01*
X155194000Y-92710000D02*
X154940000Y-92964000D01*
X154940000Y-92964000D02*
X154940000Y-94996000D01*
X154940000Y-94996000D02*
X155194000Y-95250000D01*
X157226000Y-95250000D02*
X157480000Y-94996000D01*
X157480000Y-94996000D02*
X157480000Y-92964000D01*
X157480000Y-95504000D02*
X157226000Y-95250000D01*
X157226000Y-92710000D02*
X157480000Y-92456000D01*
X157480000Y-92456000D02*
X157480000Y-90424000D01*
X155194000Y-85090000D02*
X154940000Y-85344000D01*
X157480000Y-85344000D02*
X157226000Y-85090000D01*
X157480000Y-85598000D02*
X157480000Y-85090000D01*
X157480000Y-89916000D02*
X157480000Y-87884000D01*
X157480000Y-87884000D02*
X157226000Y-87630000D01*
X157226000Y-87630000D02*
X157480000Y-87376000D01*
X157480000Y-87376000D02*
X157480000Y-85598000D01*
X157480000Y-89916000D02*
X157226000Y-90170000D01*
X157226000Y-90170000D02*
X157480000Y-90424000D01*
X154940000Y-85090000D02*
X157480000Y-85090000D01*
X146265327Y-88168931D02*
X144565327Y-88168931D01*
X144565327Y-88740360D01*
X144646280Y-88883217D01*
X144727232Y-88954645D01*
X144889137Y-89026074D01*
X145131994Y-89026074D01*
X145293899Y-88954645D01*
X145374851Y-88883217D01*
X145455803Y-88740360D01*
X145455803Y-88168931D01*
X146265327Y-89668931D02*
X144565327Y-89668931D01*
X145212946Y-89668931D02*
X145131994Y-89811788D01*
X145131994Y-90097502D01*
X145212946Y-90240360D01*
X145293899Y-90311788D01*
X145455803Y-90383217D01*
X145941518Y-90383217D01*
X146103422Y-90311788D01*
X146184375Y-90240360D01*
X146265327Y-90097502D01*
X146265327Y-89811788D01*
X146184375Y-89668931D01*
D11*
X148771714Y-78867000D02*
X148735428Y-78794428D01*
X148699142Y-78758142D01*
X148626571Y-78721857D01*
X148408857Y-78721857D01*
X148336285Y-78758142D01*
X148300000Y-78794428D01*
X148263714Y-78867000D01*
X148263714Y-78975857D01*
X148300000Y-79048428D01*
X148336285Y-79084714D01*
X148408857Y-79121000D01*
X148626571Y-79121000D01*
X148699142Y-79084714D01*
X148735428Y-79048428D01*
X148771714Y-78975857D01*
X148771714Y-78867000D01*
X148263714Y-79447571D02*
X149025714Y-79447571D01*
X148300000Y-79447571D02*
X148263714Y-79520142D01*
X148263714Y-79665285D01*
X148300000Y-79737857D01*
X148336285Y-79774142D01*
X148408857Y-79810428D01*
X148626571Y-79810428D01*
X148699142Y-79774142D01*
X148735428Y-79737857D01*
X148771714Y-79665285D01*
X148771714Y-79520142D01*
X148735428Y-79447571D01*
X148735428Y-80427285D02*
X148771714Y-80354714D01*
X148771714Y-80209571D01*
X148735428Y-80137000D01*
X148662857Y-80100714D01*
X148372571Y-80100714D01*
X148300000Y-80137000D01*
X148263714Y-80209571D01*
X148263714Y-80354714D01*
X148300000Y-80427285D01*
X148372571Y-80463571D01*
X148445142Y-80463571D01*
X148517714Y-80100714D01*
X148263714Y-80790142D02*
X148771714Y-80790142D01*
X148336285Y-80790142D02*
X148300000Y-80826428D01*
X148263714Y-80899000D01*
X148263714Y-81007857D01*
X148300000Y-81080428D01*
X148372571Y-81116714D01*
X148771714Y-81116714D01*
X148771714Y-82060142D02*
X148009714Y-82060142D01*
X148771714Y-82386714D02*
X148372571Y-82386714D01*
X148300000Y-82350428D01*
X148263714Y-82277857D01*
X148263714Y-82169000D01*
X148300000Y-82096428D01*
X148336285Y-82060142D01*
X148771714Y-83076142D02*
X148372571Y-83076142D01*
X148300000Y-83039857D01*
X148263714Y-82967285D01*
X148263714Y-82822142D01*
X148300000Y-82749571D01*
X148735428Y-83076142D02*
X148771714Y-83003571D01*
X148771714Y-82822142D01*
X148735428Y-82749571D01*
X148662857Y-82713285D01*
X148590285Y-82713285D01*
X148517714Y-82749571D01*
X148481428Y-82822142D01*
X148481428Y-83003571D01*
X148445142Y-83076142D01*
X148771714Y-83439000D02*
X148263714Y-83439000D01*
X148408857Y-83439000D02*
X148336285Y-83475285D01*
X148300000Y-83511571D01*
X148263714Y-83584142D01*
X148263714Y-83656714D01*
X148771714Y-84237285D02*
X148009714Y-84237285D01*
X148735428Y-84237285D02*
X148771714Y-84164714D01*
X148771714Y-84019571D01*
X148735428Y-83947000D01*
X148699142Y-83910714D01*
X148626571Y-83874428D01*
X148408857Y-83874428D01*
X148336285Y-83910714D01*
X148300000Y-83947000D01*
X148263714Y-84019571D01*
X148263714Y-84164714D01*
X148300000Y-84237285D01*
X148263714Y-84527571D02*
X148771714Y-84672714D01*
X148408857Y-84817857D01*
X148771714Y-84963000D01*
X148263714Y-85108142D01*
X148771714Y-85725000D02*
X148372571Y-85725000D01*
X148300000Y-85688714D01*
X148263714Y-85616142D01*
X148263714Y-85471000D01*
X148300000Y-85398428D01*
X148735428Y-85725000D02*
X148771714Y-85652428D01*
X148771714Y-85471000D01*
X148735428Y-85398428D01*
X148662857Y-85362142D01*
X148590285Y-85362142D01*
X148517714Y-85398428D01*
X148481428Y-85471000D01*
X148481428Y-85652428D01*
X148445142Y-85725000D01*
X148771714Y-86087857D02*
X148263714Y-86087857D01*
X148408857Y-86087857D02*
X148336285Y-86124142D01*
X148300000Y-86160428D01*
X148263714Y-86233000D01*
X148263714Y-86305571D01*
X148735428Y-86849857D02*
X148771714Y-86777285D01*
X148771714Y-86632142D01*
X148735428Y-86559571D01*
X148662857Y-86523285D01*
X148372571Y-86523285D01*
X148300000Y-86559571D01*
X148263714Y-86632142D01*
X148263714Y-86777285D01*
X148300000Y-86849857D01*
X148372571Y-86886142D01*
X148445142Y-86886142D01*
X148517714Y-86523285D01*
D12*
X148971000Y-95966642D02*
X148880285Y-95996880D01*
X148850047Y-96027119D01*
X148819809Y-96087595D01*
X148819809Y-96178309D01*
X148850047Y-96238785D01*
X148880285Y-96269023D01*
X148940761Y-96299261D01*
X149182666Y-96299261D01*
X149182666Y-95664261D01*
X148971000Y-95664261D01*
X148910523Y-95694500D01*
X148880285Y-95724738D01*
X148850047Y-95785214D01*
X148850047Y-95845690D01*
X148880285Y-95906166D01*
X148910523Y-95936404D01*
X148971000Y-95966642D01*
X149182666Y-95966642D01*
X148577904Y-96117833D02*
X148275523Y-96117833D01*
X148638380Y-96299261D02*
X148426714Y-95664261D01*
X148215047Y-96299261D01*
X148094095Y-95664261D02*
X147731238Y-95664261D01*
X147912666Y-96299261D02*
X147912666Y-95664261D01*
X147670761Y-96359738D02*
X147186952Y-96359738D01*
X147035761Y-96299261D02*
X147035761Y-95664261D01*
X146793857Y-95664261D01*
X146733380Y-95694500D01*
X146703142Y-95724738D01*
X146672904Y-95785214D01*
X146672904Y-95875928D01*
X146703142Y-95936404D01*
X146733380Y-95966642D01*
X146793857Y-95996880D01*
X147035761Y-95996880D01*
X146461238Y-95664261D02*
X146310047Y-96299261D01*
X146189095Y-95845690D01*
X146068142Y-96299261D01*
X145916952Y-95664261D01*
X145312190Y-96299261D02*
X145523857Y-95996880D01*
X145675047Y-96299261D02*
X145675047Y-95664261D01*
X145433142Y-95664261D01*
X145372666Y-95694500D01*
X145342428Y-95724738D01*
X145312190Y-95785214D01*
X145312190Y-95875928D01*
X145342428Y-95936404D01*
X145372666Y-95966642D01*
X145433142Y-95996880D01*
X145675047Y-95996880D01*
X145191238Y-96359738D02*
X144707428Y-96359738D01*
X144556238Y-95966642D02*
X144344571Y-95966642D01*
X144253857Y-96299261D02*
X144556238Y-96299261D01*
X144556238Y-95664261D01*
X144253857Y-95664261D01*
X143649095Y-96299261D02*
X144011952Y-96299261D01*
X143830523Y-96299261D02*
X143830523Y-95664261D01*
X143891000Y-95754976D01*
X143951476Y-95815452D01*
X144011952Y-95845690D01*
X148943785Y-93172642D02*
X148853071Y-93202880D01*
X148822833Y-93233119D01*
X148792595Y-93293595D01*
X148792595Y-93384309D01*
X148822833Y-93444785D01*
X148853071Y-93475023D01*
X148913547Y-93505261D01*
X149155452Y-93505261D01*
X149155452Y-92870261D01*
X148943785Y-92870261D01*
X148883309Y-92900500D01*
X148853071Y-92930738D01*
X148822833Y-92991214D01*
X148822833Y-93051690D01*
X148853071Y-93112166D01*
X148883309Y-93142404D01*
X148943785Y-93172642D01*
X149155452Y-93172642D01*
X148550690Y-93323833D02*
X148248309Y-93323833D01*
X148611166Y-93505261D02*
X148399500Y-92870261D01*
X148187833Y-93505261D01*
X148066880Y-92870261D02*
X147704023Y-92870261D01*
X147885452Y-93505261D02*
X147885452Y-92870261D01*
X147643547Y-93565738D02*
X147159738Y-93565738D01*
X147038785Y-93475023D02*
X146948071Y-93505261D01*
X146796880Y-93505261D01*
X146736404Y-93475023D01*
X146706166Y-93444785D01*
X146675928Y-93384309D01*
X146675928Y-93323833D01*
X146706166Y-93263357D01*
X146736404Y-93233119D01*
X146796880Y-93202880D01*
X146917833Y-93172642D01*
X146978309Y-93142404D01*
X147008547Y-93112166D01*
X147038785Y-93051690D01*
X147038785Y-92991214D01*
X147008547Y-92930738D01*
X146978309Y-92900500D01*
X146917833Y-92870261D01*
X146766642Y-92870261D01*
X146675928Y-92900500D01*
X146403785Y-93172642D02*
X146192119Y-93172642D01*
X146101404Y-93505261D02*
X146403785Y-93505261D01*
X146403785Y-92870261D01*
X146101404Y-92870261D01*
X145829261Y-93505261D02*
X145829261Y-92870261D01*
X145466404Y-93505261D01*
X145466404Y-92870261D01*
X145194261Y-93475023D02*
X145103547Y-93505261D01*
X144952357Y-93505261D01*
X144891880Y-93475023D01*
X144861642Y-93444785D01*
X144831404Y-93384309D01*
X144831404Y-93323833D01*
X144861642Y-93263357D01*
X144891880Y-93233119D01*
X144952357Y-93202880D01*
X145073309Y-93172642D01*
X145133785Y-93142404D01*
X145164023Y-93112166D01*
X145194261Y-93051690D01*
X145194261Y-92991214D01*
X145164023Y-92930738D01*
X145133785Y-92900500D01*
X145073309Y-92870261D01*
X144922119Y-92870261D01*
X144831404Y-92900500D01*
X144710452Y-93565738D02*
X144226642Y-93565738D01*
X144075452Y-93172642D02*
X143863785Y-93172642D01*
X143773071Y-93505261D02*
X144075452Y-93505261D01*
X144075452Y-92870261D01*
X143773071Y-92870261D01*
X143168309Y-93505261D02*
X143531166Y-93505261D01*
X143349738Y-93505261D02*
X143349738Y-92870261D01*
X143410214Y-92960976D01*
X143470690Y-93021452D01*
X143531166Y-93051690D01*
X149194761Y-99093261D02*
X149194761Y-98458261D01*
X148952857Y-98458261D01*
X148892380Y-98488500D01*
X148862142Y-98518738D01*
X148831904Y-98579214D01*
X148831904Y-98669928D01*
X148862142Y-98730404D01*
X148892380Y-98760642D01*
X148952857Y-98790880D01*
X149194761Y-98790880D01*
X148620238Y-98458261D02*
X148469047Y-99093261D01*
X148348095Y-98639690D01*
X148227142Y-99093261D01*
X148075952Y-98458261D01*
X147471190Y-99093261D02*
X147682857Y-98790880D01*
X147834047Y-99093261D02*
X147834047Y-98458261D01*
X147592142Y-98458261D01*
X147531666Y-98488500D01*
X147501428Y-98518738D01*
X147471190Y-98579214D01*
X147471190Y-98669928D01*
X147501428Y-98730404D01*
X147531666Y-98760642D01*
X147592142Y-98790880D01*
X147834047Y-98790880D01*
X147350238Y-99153738D02*
X146866428Y-99153738D01*
X146745476Y-99063023D02*
X146654761Y-99093261D01*
X146503571Y-99093261D01*
X146443095Y-99063023D01*
X146412857Y-99032785D01*
X146382619Y-98972309D01*
X146382619Y-98911833D01*
X146412857Y-98851357D01*
X146443095Y-98821119D01*
X146503571Y-98790880D01*
X146624523Y-98760642D01*
X146685000Y-98730404D01*
X146715238Y-98700166D01*
X146745476Y-98639690D01*
X146745476Y-98579214D01*
X146715238Y-98518738D01*
X146685000Y-98488500D01*
X146624523Y-98458261D01*
X146473333Y-98458261D01*
X146382619Y-98488500D01*
X146110476Y-98760642D02*
X145898809Y-98760642D01*
X145808095Y-99093261D02*
X146110476Y-99093261D01*
X146110476Y-98458261D01*
X145808095Y-98458261D01*
X145535952Y-99093261D02*
X145535952Y-98458261D01*
X145173095Y-99093261D01*
X145173095Y-98458261D01*
X144900952Y-99063023D02*
X144810238Y-99093261D01*
X144659047Y-99093261D01*
X144598571Y-99063023D01*
X144568333Y-99032785D01*
X144538095Y-98972309D01*
X144538095Y-98911833D01*
X144568333Y-98851357D01*
X144598571Y-98821119D01*
X144659047Y-98790880D01*
X144780000Y-98760642D01*
X144840476Y-98730404D01*
X144870714Y-98700166D01*
X144900952Y-98639690D01*
X144900952Y-98579214D01*
X144870714Y-98518738D01*
X144840476Y-98488500D01*
X144780000Y-98458261D01*
X144628809Y-98458261D01*
X144538095Y-98488500D01*
X144417142Y-99153738D02*
X143933333Y-99153738D01*
X143782142Y-98760642D02*
X143570476Y-98760642D01*
X143479761Y-99093261D02*
X143782142Y-99093261D01*
X143782142Y-98458261D01*
X143479761Y-98458261D01*
X142875000Y-99093261D02*
X143237857Y-99093261D01*
X143056428Y-99093261D02*
X143056428Y-98458261D01*
X143116904Y-98548976D01*
X143177380Y-98609452D01*
X143237857Y-98639690D01*
D16*
X136721904Y-87179428D02*
X136721904Y-87674666D01*
X137026666Y-87408000D01*
X137026666Y-87522285D01*
X137064761Y-87598476D01*
X137102857Y-87636571D01*
X137179047Y-87674666D01*
X137369523Y-87674666D01*
X137445714Y-87636571D01*
X137483809Y-87598476D01*
X137521904Y-87522285D01*
X137521904Y-87293714D01*
X137483809Y-87217523D01*
X137445714Y-87179428D01*
X137445714Y-88017523D02*
X137483809Y-88055619D01*
X137521904Y-88017523D01*
X137483809Y-87979428D01*
X137445714Y-88017523D01*
X137521904Y-88017523D01*
X136721904Y-88322285D02*
X136721904Y-88817523D01*
X137026666Y-88550857D01*
X137026666Y-88665142D01*
X137064761Y-88741333D01*
X137102857Y-88779428D01*
X137179047Y-88817523D01*
X137369523Y-88817523D01*
X137445714Y-88779428D01*
X137483809Y-88741333D01*
X137521904Y-88665142D01*
X137521904Y-88436571D01*
X137483809Y-88360380D01*
X137445714Y-88322285D01*
X136721904Y-89046095D02*
X137521904Y-89312761D01*
X136721904Y-89579428D01*
X137598095Y-89655619D02*
X137598095Y-90265142D01*
X137102857Y-90455619D02*
X137102857Y-90722285D01*
X137521904Y-90836571D02*
X137521904Y-90455619D01*
X136721904Y-90455619D01*
X136721904Y-90836571D01*
X137521904Y-91598476D02*
X137521904Y-91141333D01*
X137521904Y-91369904D02*
X136721904Y-91369904D01*
X136836190Y-91293714D01*
X136912380Y-91217523D01*
X136950476Y-91141333D01*
D10*
X130592285Y-80711523D02*
X130592285Y-81134857D01*
X131257523Y-81316285D02*
X131257523Y-80711523D01*
X129987523Y-80711523D01*
X129987523Y-81316285D01*
X129987523Y-81739619D02*
X131257523Y-82586285D01*
X129987523Y-82586285D02*
X131257523Y-81739619D01*
X129987523Y-82888666D02*
X129987523Y-83614380D01*
X131257523Y-83251523D02*
X129987523Y-83251523D01*
X131257523Y-84702952D02*
X131257523Y-83977238D01*
X131257523Y-84340095D02*
X129987523Y-84340095D01*
X130168952Y-84219142D01*
X130289904Y-84098190D01*
X130350380Y-83977238D01*
X156246285Y-80584523D02*
X156246285Y-81007857D01*
X156911523Y-81189285D02*
X156911523Y-80584523D01*
X155641523Y-80584523D01*
X155641523Y-81189285D01*
X155641523Y-81612619D02*
X156911523Y-82459285D01*
X155641523Y-82459285D02*
X156911523Y-81612619D01*
X155641523Y-82761666D02*
X155641523Y-83487380D01*
X156911523Y-83124523D02*
X155641523Y-83124523D01*
X155762476Y-83850238D02*
X155702000Y-83910714D01*
X155641523Y-84031666D01*
X155641523Y-84334047D01*
X155702000Y-84455000D01*
X155762476Y-84515476D01*
X155883428Y-84575952D01*
X156004380Y-84575952D01*
X156185809Y-84515476D01*
X156911523Y-83789761D01*
X156911523Y-84575952D01*
M02*
