G04 #@! TF.GenerationSoftware,KiCad,Pcbnew,5.1.6-c6e7f7d~87~ubuntu18.04.1*
G04 #@! TF.CreationDate,2022-09-28T14:17:23+03:00*
G04 #@! TF.ProjectId,ESP32-C3-DevKit-Lipo_Rev_B,45535033-322d-4433-932d-4465764b6974,B*
G04 #@! TF.SameCoordinates,Original*
G04 #@! TF.FileFunction,Legend,Top*
G04 #@! TF.FilePolarity,Positive*
%FSLAX46Y46*%
G04 Gerber Fmt 4.6, Leading zero omitted, Abs format (unit mm)*
G04 Created by KiCad (PCBNEW 5.1.6-c6e7f7d~87~ubuntu18.04.1) date 2022-09-28 14:17:23*
%MOMM*%
%LPD*%
G01*
G04 APERTURE LIST*
%ADD10C,0.127000*%
%ADD11C,0.158750*%
%ADD12C,0.254000*%
%ADD13C,0.190500*%
%ADD14C,0.009000*%
%ADD15C,0.050000*%
%ADD16C,0.100000*%
%ADD17C,0.200000*%
%ADD18C,0.222250*%
%ADD19C,0.508000*%
G04 APERTURE END LIST*
D10*
X155460095Y-92939809D02*
X155460095Y-92431809D01*
X155798761Y-92431809D02*
X155895523Y-92431809D01*
X155943904Y-92456000D01*
X155992285Y-92504380D01*
X156016476Y-92601142D01*
X156016476Y-92770476D01*
X155992285Y-92867238D01*
X155943904Y-92915619D01*
X155895523Y-92939809D01*
X155798761Y-92939809D01*
X155750380Y-92915619D01*
X155702000Y-92867238D01*
X155677809Y-92770476D01*
X155677809Y-92601142D01*
X155702000Y-92504380D01*
X155750380Y-92456000D01*
X155798761Y-92431809D01*
X156210000Y-92480190D02*
X156234190Y-92456000D01*
X156282571Y-92431809D01*
X156403523Y-92431809D01*
X156451904Y-92456000D01*
X156476095Y-92480190D01*
X156500285Y-92528571D01*
X156500285Y-92576952D01*
X156476095Y-92649523D01*
X156185809Y-92939809D01*
X156500285Y-92939809D01*
X156984095Y-92939809D02*
X156693809Y-92939809D01*
X156838952Y-92939809D02*
X156838952Y-92431809D01*
X156790571Y-92504380D01*
X156742190Y-92552761D01*
X156693809Y-92576952D01*
X155460095Y-95479809D02*
X155460095Y-94971809D01*
X155798761Y-94971809D02*
X155895523Y-94971809D01*
X155943904Y-94996000D01*
X155992285Y-95044380D01*
X156016476Y-95141142D01*
X156016476Y-95310476D01*
X155992285Y-95407238D01*
X155943904Y-95455619D01*
X155895523Y-95479809D01*
X155798761Y-95479809D01*
X155750380Y-95455619D01*
X155702000Y-95407238D01*
X155677809Y-95310476D01*
X155677809Y-95141142D01*
X155702000Y-95044380D01*
X155750380Y-94996000D01*
X155798761Y-94971809D01*
X156210000Y-95020190D02*
X156234190Y-94996000D01*
X156282571Y-94971809D01*
X156403523Y-94971809D01*
X156451904Y-94996000D01*
X156476095Y-95020190D01*
X156500285Y-95068571D01*
X156500285Y-95116952D01*
X156476095Y-95189523D01*
X156185809Y-95479809D01*
X156500285Y-95479809D01*
X156814761Y-94971809D02*
X156863142Y-94971809D01*
X156911523Y-94996000D01*
X156935714Y-95020190D01*
X156959904Y-95068571D01*
X156984095Y-95165333D01*
X156984095Y-95286285D01*
X156959904Y-95383047D01*
X156935714Y-95431428D01*
X156911523Y-95455619D01*
X156863142Y-95479809D01*
X156814761Y-95479809D01*
X156766380Y-95455619D01*
X156742190Y-95431428D01*
X156718000Y-95383047D01*
X156693809Y-95286285D01*
X156693809Y-95165333D01*
X156718000Y-95068571D01*
X156742190Y-95020190D01*
X156766380Y-94996000D01*
X156814761Y-94971809D01*
X130156857Y-84999285D02*
X130543904Y-84999285D01*
X130350380Y-85192809D02*
X130350380Y-84805761D01*
X131027714Y-84684809D02*
X130785809Y-84684809D01*
X130761619Y-84926714D01*
X130785809Y-84902523D01*
X130834190Y-84878333D01*
X130955142Y-84878333D01*
X131003523Y-84902523D01*
X131027714Y-84926714D01*
X131051904Y-84975095D01*
X131051904Y-85096047D01*
X131027714Y-85144428D01*
X131003523Y-85168619D01*
X130955142Y-85192809D01*
X130834190Y-85192809D01*
X130785809Y-85168619D01*
X130761619Y-85144428D01*
X131197047Y-84684809D02*
X131366380Y-85192809D01*
X131535714Y-84684809D01*
D11*
X153564166Y-100157642D02*
X153533928Y-100187880D01*
X153443214Y-100248357D01*
X153382738Y-100278595D01*
X153292023Y-100308833D01*
X153140833Y-100339071D01*
X153019880Y-100339071D01*
X152868690Y-100308833D01*
X152777976Y-100278595D01*
X152717500Y-100248357D01*
X152626785Y-100187880D01*
X152596547Y-100157642D01*
X153261785Y-99552880D02*
X153292023Y-99583119D01*
X153322261Y-99673833D01*
X153322261Y-99734309D01*
X153292023Y-99825023D01*
X153231547Y-99885500D01*
X153171071Y-99915738D01*
X153050119Y-99945976D01*
X152959404Y-99945976D01*
X152838452Y-99915738D01*
X152777976Y-99885500D01*
X152717500Y-99825023D01*
X152687261Y-99734309D01*
X152687261Y-99673833D01*
X152717500Y-99583119D01*
X152747738Y-99552880D01*
X153564166Y-99341214D02*
X153533928Y-99310976D01*
X153443214Y-99250500D01*
X153382738Y-99220261D01*
X153292023Y-99190023D01*
X153140833Y-99159785D01*
X153019880Y-99159785D01*
X152868690Y-99190023D01*
X152777976Y-99220261D01*
X152717500Y-99250500D01*
X152626785Y-99310976D01*
X152596547Y-99341214D01*
X152747738Y-98403833D02*
X152717500Y-98373595D01*
X152687261Y-98313119D01*
X152687261Y-98161928D01*
X152717500Y-98101452D01*
X152747738Y-98071214D01*
X152808214Y-98040976D01*
X152868690Y-98040976D01*
X152959404Y-98071214D01*
X153322261Y-98434071D01*
X153322261Y-98040976D01*
X152687261Y-97647880D02*
X152687261Y-97587404D01*
X152717500Y-97526928D01*
X152747738Y-97496690D01*
X152808214Y-97466452D01*
X152929166Y-97436214D01*
X153080357Y-97436214D01*
X153201309Y-97466452D01*
X153261785Y-97496690D01*
X153292023Y-97526928D01*
X153322261Y-97587404D01*
X153322261Y-97647880D01*
X153292023Y-97708357D01*
X153261785Y-97738595D01*
X153201309Y-97768833D01*
X153080357Y-97799071D01*
X152929166Y-97799071D01*
X152808214Y-97768833D01*
X152747738Y-97738595D01*
X152717500Y-97708357D01*
X152687261Y-97647880D01*
X152747738Y-97194309D02*
X152717500Y-97164071D01*
X152687261Y-97103595D01*
X152687261Y-96952404D01*
X152717500Y-96891928D01*
X152747738Y-96861690D01*
X152808214Y-96831452D01*
X152868690Y-96831452D01*
X152959404Y-96861690D01*
X153322261Y-97224547D01*
X153322261Y-96831452D01*
X152747738Y-96589547D02*
X152717500Y-96559309D01*
X152687261Y-96498833D01*
X152687261Y-96347642D01*
X152717500Y-96287166D01*
X152747738Y-96256928D01*
X152808214Y-96226690D01*
X152868690Y-96226690D01*
X152959404Y-96256928D01*
X153322261Y-96619785D01*
X153322261Y-96226690D01*
D12*
X137915952Y-100656571D02*
X138690047Y-100656571D01*
X138303000Y-101043619D02*
X138303000Y-100269523D01*
X138248571Y-105543047D02*
X138248571Y-104768952D01*
X156518428Y-84122380D02*
X156518428Y-83783714D01*
X157050619Y-83638571D02*
X157050619Y-84122380D01*
X156034619Y-84122380D01*
X156034619Y-83638571D01*
X156034619Y-83299904D02*
X157050619Y-82622571D01*
X156034619Y-82622571D02*
X157050619Y-83299904D01*
X156034619Y-82380666D02*
X156034619Y-81800095D01*
X157050619Y-82090380D02*
X156034619Y-82090380D01*
X156131380Y-81509809D02*
X156083000Y-81461428D01*
X156034619Y-81364666D01*
X156034619Y-81122761D01*
X156083000Y-81026000D01*
X156131380Y-80977619D01*
X156228142Y-80929238D01*
X156324904Y-80929238D01*
X156470047Y-80977619D01*
X157050619Y-81558190D01*
X157050619Y-80929238D01*
X130483428Y-84122380D02*
X130483428Y-83783714D01*
X131015619Y-83638571D02*
X131015619Y-84122380D01*
X129999619Y-84122380D01*
X129999619Y-83638571D01*
X129999619Y-83299904D02*
X131015619Y-82622571D01*
X129999619Y-82622571D02*
X131015619Y-83299904D01*
X129999619Y-82380666D02*
X129999619Y-81800095D01*
X131015619Y-82090380D02*
X129999619Y-82090380D01*
X131015619Y-80929238D02*
X131015619Y-81509809D01*
X131015619Y-81219523D02*
X129999619Y-81219523D01*
X130144761Y-81316285D01*
X130241523Y-81413047D01*
X130289904Y-81509809D01*
D10*
X130060095Y-105156000D02*
X130011714Y-105131809D01*
X129939142Y-105131809D01*
X129866571Y-105156000D01*
X129818190Y-105204380D01*
X129794000Y-105252761D01*
X129769809Y-105349523D01*
X129769809Y-105422095D01*
X129794000Y-105518857D01*
X129818190Y-105567238D01*
X129866571Y-105615619D01*
X129939142Y-105639809D01*
X129987523Y-105639809D01*
X130060095Y-105615619D01*
X130084285Y-105591428D01*
X130084285Y-105422095D01*
X129987523Y-105422095D01*
X130302000Y-105639809D02*
X130302000Y-105131809D01*
X130495523Y-105131809D01*
X130543904Y-105156000D01*
X130568095Y-105180190D01*
X130592285Y-105228571D01*
X130592285Y-105301142D01*
X130568095Y-105349523D01*
X130543904Y-105373714D01*
X130495523Y-105397904D01*
X130302000Y-105397904D01*
X130810000Y-105639809D02*
X130810000Y-105131809D01*
X131148666Y-105131809D02*
X131245428Y-105131809D01*
X131293809Y-105156000D01*
X131342190Y-105204380D01*
X131366380Y-105301142D01*
X131366380Y-105470476D01*
X131342190Y-105567238D01*
X131293809Y-105615619D01*
X131245428Y-105639809D01*
X131148666Y-105639809D01*
X131100285Y-105615619D01*
X131051904Y-105567238D01*
X131027714Y-105470476D01*
X131027714Y-105301142D01*
X131051904Y-105204380D01*
X131100285Y-105156000D01*
X131148666Y-105131809D01*
X131801809Y-105131809D02*
X131705047Y-105131809D01*
X131656666Y-105156000D01*
X131632476Y-105180190D01*
X131584095Y-105252761D01*
X131559904Y-105349523D01*
X131559904Y-105543047D01*
X131584095Y-105591428D01*
X131608285Y-105615619D01*
X131656666Y-105639809D01*
X131753428Y-105639809D01*
X131801809Y-105615619D01*
X131826000Y-105591428D01*
X131850190Y-105543047D01*
X131850190Y-105422095D01*
X131826000Y-105373714D01*
X131801809Y-105349523D01*
X131753428Y-105325333D01*
X131656666Y-105325333D01*
X131608285Y-105349523D01*
X131584095Y-105373714D01*
X131559904Y-105422095D01*
X155460095Y-105156000D02*
X155411714Y-105131809D01*
X155339142Y-105131809D01*
X155266571Y-105156000D01*
X155218190Y-105204380D01*
X155194000Y-105252761D01*
X155169809Y-105349523D01*
X155169809Y-105422095D01*
X155194000Y-105518857D01*
X155218190Y-105567238D01*
X155266571Y-105615619D01*
X155339142Y-105639809D01*
X155387523Y-105639809D01*
X155460095Y-105615619D01*
X155484285Y-105591428D01*
X155484285Y-105422095D01*
X155387523Y-105422095D01*
X155702000Y-105639809D02*
X155702000Y-105131809D01*
X155895523Y-105131809D01*
X155943904Y-105156000D01*
X155968095Y-105180190D01*
X155992285Y-105228571D01*
X155992285Y-105301142D01*
X155968095Y-105349523D01*
X155943904Y-105373714D01*
X155895523Y-105397904D01*
X155702000Y-105397904D01*
X156210000Y-105639809D02*
X156210000Y-105131809D01*
X156548666Y-105131809D02*
X156645428Y-105131809D01*
X156693809Y-105156000D01*
X156742190Y-105204380D01*
X156766380Y-105301142D01*
X156766380Y-105470476D01*
X156742190Y-105567238D01*
X156693809Y-105615619D01*
X156645428Y-105639809D01*
X156548666Y-105639809D01*
X156500285Y-105615619D01*
X156451904Y-105567238D01*
X156427714Y-105470476D01*
X156427714Y-105301142D01*
X156451904Y-105204380D01*
X156500285Y-105156000D01*
X156548666Y-105131809D01*
X156935714Y-105131809D02*
X157274380Y-105131809D01*
X157056666Y-105639809D01*
X155460095Y-102616000D02*
X155411714Y-102591809D01*
X155339142Y-102591809D01*
X155266571Y-102616000D01*
X155218190Y-102664380D01*
X155194000Y-102712761D01*
X155169809Y-102809523D01*
X155169809Y-102882095D01*
X155194000Y-102978857D01*
X155218190Y-103027238D01*
X155266571Y-103075619D01*
X155339142Y-103099809D01*
X155387523Y-103099809D01*
X155460095Y-103075619D01*
X155484285Y-103051428D01*
X155484285Y-102882095D01*
X155387523Y-102882095D01*
X155702000Y-103099809D02*
X155702000Y-102591809D01*
X155895523Y-102591809D01*
X155943904Y-102616000D01*
X155968095Y-102640190D01*
X155992285Y-102688571D01*
X155992285Y-102761142D01*
X155968095Y-102809523D01*
X155943904Y-102833714D01*
X155895523Y-102857904D01*
X155702000Y-102857904D01*
X156210000Y-103099809D02*
X156210000Y-102591809D01*
X156548666Y-102591809D02*
X156645428Y-102591809D01*
X156693809Y-102616000D01*
X156742190Y-102664380D01*
X156766380Y-102761142D01*
X156766380Y-102930476D01*
X156742190Y-103027238D01*
X156693809Y-103075619D01*
X156645428Y-103099809D01*
X156548666Y-103099809D01*
X156500285Y-103075619D01*
X156451904Y-103027238D01*
X156427714Y-102930476D01*
X156427714Y-102761142D01*
X156451904Y-102664380D01*
X156500285Y-102616000D01*
X156548666Y-102591809D01*
X157056666Y-102809523D02*
X157008285Y-102785333D01*
X156984095Y-102761142D01*
X156959904Y-102712761D01*
X156959904Y-102688571D01*
X156984095Y-102640190D01*
X157008285Y-102616000D01*
X157056666Y-102591809D01*
X157153428Y-102591809D01*
X157201809Y-102616000D01*
X157226000Y-102640190D01*
X157250190Y-102688571D01*
X157250190Y-102712761D01*
X157226000Y-102761142D01*
X157201809Y-102785333D01*
X157153428Y-102809523D01*
X157056666Y-102809523D01*
X157008285Y-102833714D01*
X156984095Y-102857904D01*
X156959904Y-102906285D01*
X156959904Y-103003047D01*
X156984095Y-103051428D01*
X157008285Y-103075619D01*
X157056666Y-103099809D01*
X157153428Y-103099809D01*
X157201809Y-103075619D01*
X157226000Y-103051428D01*
X157250190Y-103003047D01*
X157250190Y-102906285D01*
X157226000Y-102857904D01*
X157201809Y-102833714D01*
X157153428Y-102809523D01*
X130060095Y-94996000D02*
X130011714Y-94971809D01*
X129939142Y-94971809D01*
X129866571Y-94996000D01*
X129818190Y-95044380D01*
X129794000Y-95092761D01*
X129769809Y-95189523D01*
X129769809Y-95262095D01*
X129794000Y-95358857D01*
X129818190Y-95407238D01*
X129866571Y-95455619D01*
X129939142Y-95479809D01*
X129987523Y-95479809D01*
X130060095Y-95455619D01*
X130084285Y-95431428D01*
X130084285Y-95262095D01*
X129987523Y-95262095D01*
X130302000Y-95479809D02*
X130302000Y-94971809D01*
X130495523Y-94971809D01*
X130543904Y-94996000D01*
X130568095Y-95020190D01*
X130592285Y-95068571D01*
X130592285Y-95141142D01*
X130568095Y-95189523D01*
X130543904Y-95213714D01*
X130495523Y-95237904D01*
X130302000Y-95237904D01*
X130810000Y-95479809D02*
X130810000Y-94971809D01*
X131148666Y-94971809D02*
X131245428Y-94971809D01*
X131293809Y-94996000D01*
X131342190Y-95044380D01*
X131366380Y-95141142D01*
X131366380Y-95310476D01*
X131342190Y-95407238D01*
X131293809Y-95455619D01*
X131245428Y-95479809D01*
X131148666Y-95479809D01*
X131100285Y-95455619D01*
X131051904Y-95407238D01*
X131027714Y-95310476D01*
X131027714Y-95141142D01*
X131051904Y-95044380D01*
X131100285Y-94996000D01*
X131148666Y-94971809D01*
X131559904Y-95020190D02*
X131584095Y-94996000D01*
X131632476Y-94971809D01*
X131753428Y-94971809D01*
X131801809Y-94996000D01*
X131826000Y-95020190D01*
X131850190Y-95068571D01*
X131850190Y-95116952D01*
X131826000Y-95189523D01*
X131535714Y-95479809D01*
X131850190Y-95479809D01*
X130060095Y-89916000D02*
X130011714Y-89891809D01*
X129939142Y-89891809D01*
X129866571Y-89916000D01*
X129818190Y-89964380D01*
X129794000Y-90012761D01*
X129769809Y-90109523D01*
X129769809Y-90182095D01*
X129794000Y-90278857D01*
X129818190Y-90327238D01*
X129866571Y-90375619D01*
X129939142Y-90399809D01*
X129987523Y-90399809D01*
X130060095Y-90375619D01*
X130084285Y-90351428D01*
X130084285Y-90182095D01*
X129987523Y-90182095D01*
X130302000Y-90399809D02*
X130302000Y-89891809D01*
X130495523Y-89891809D01*
X130543904Y-89916000D01*
X130568095Y-89940190D01*
X130592285Y-89988571D01*
X130592285Y-90061142D01*
X130568095Y-90109523D01*
X130543904Y-90133714D01*
X130495523Y-90157904D01*
X130302000Y-90157904D01*
X130810000Y-90399809D02*
X130810000Y-89891809D01*
X131148666Y-89891809D02*
X131245428Y-89891809D01*
X131293809Y-89916000D01*
X131342190Y-89964380D01*
X131366380Y-90061142D01*
X131366380Y-90230476D01*
X131342190Y-90327238D01*
X131293809Y-90375619D01*
X131245428Y-90399809D01*
X131148666Y-90399809D01*
X131100285Y-90375619D01*
X131051904Y-90327238D01*
X131027714Y-90230476D01*
X131027714Y-90061142D01*
X131051904Y-89964380D01*
X131100285Y-89916000D01*
X131148666Y-89891809D01*
X131680857Y-89891809D02*
X131729238Y-89891809D01*
X131777619Y-89916000D01*
X131801809Y-89940190D01*
X131826000Y-89988571D01*
X131850190Y-90085333D01*
X131850190Y-90206285D01*
X131826000Y-90303047D01*
X131801809Y-90351428D01*
X131777619Y-90375619D01*
X131729238Y-90399809D01*
X131680857Y-90399809D01*
X131632476Y-90375619D01*
X131608285Y-90351428D01*
X131584095Y-90303047D01*
X131559904Y-90206285D01*
X131559904Y-90085333D01*
X131584095Y-89988571D01*
X131608285Y-89940190D01*
X131632476Y-89916000D01*
X131680857Y-89891809D01*
X130060095Y-100076000D02*
X130011714Y-100051809D01*
X129939142Y-100051809D01*
X129866571Y-100076000D01*
X129818190Y-100124380D01*
X129794000Y-100172761D01*
X129769809Y-100269523D01*
X129769809Y-100342095D01*
X129794000Y-100438857D01*
X129818190Y-100487238D01*
X129866571Y-100535619D01*
X129939142Y-100559809D01*
X129987523Y-100559809D01*
X130060095Y-100535619D01*
X130084285Y-100511428D01*
X130084285Y-100342095D01*
X129987523Y-100342095D01*
X130302000Y-100559809D02*
X130302000Y-100051809D01*
X130495523Y-100051809D01*
X130543904Y-100076000D01*
X130568095Y-100100190D01*
X130592285Y-100148571D01*
X130592285Y-100221142D01*
X130568095Y-100269523D01*
X130543904Y-100293714D01*
X130495523Y-100317904D01*
X130302000Y-100317904D01*
X130810000Y-100559809D02*
X130810000Y-100051809D01*
X131148666Y-100051809D02*
X131245428Y-100051809D01*
X131293809Y-100076000D01*
X131342190Y-100124380D01*
X131366380Y-100221142D01*
X131366380Y-100390476D01*
X131342190Y-100487238D01*
X131293809Y-100535619D01*
X131245428Y-100559809D01*
X131148666Y-100559809D01*
X131100285Y-100535619D01*
X131051904Y-100487238D01*
X131027714Y-100390476D01*
X131027714Y-100221142D01*
X131051904Y-100124380D01*
X131100285Y-100076000D01*
X131148666Y-100051809D01*
X131801809Y-100221142D02*
X131801809Y-100559809D01*
X131680857Y-100027619D02*
X131559904Y-100390476D01*
X131874380Y-100390476D01*
X130060095Y-102616000D02*
X130011714Y-102591809D01*
X129939142Y-102591809D01*
X129866571Y-102616000D01*
X129818190Y-102664380D01*
X129794000Y-102712761D01*
X129769809Y-102809523D01*
X129769809Y-102882095D01*
X129794000Y-102978857D01*
X129818190Y-103027238D01*
X129866571Y-103075619D01*
X129939142Y-103099809D01*
X129987523Y-103099809D01*
X130060095Y-103075619D01*
X130084285Y-103051428D01*
X130084285Y-102882095D01*
X129987523Y-102882095D01*
X130302000Y-103099809D02*
X130302000Y-102591809D01*
X130495523Y-102591809D01*
X130543904Y-102616000D01*
X130568095Y-102640190D01*
X130592285Y-102688571D01*
X130592285Y-102761142D01*
X130568095Y-102809523D01*
X130543904Y-102833714D01*
X130495523Y-102857904D01*
X130302000Y-102857904D01*
X130810000Y-103099809D02*
X130810000Y-102591809D01*
X131148666Y-102591809D02*
X131245428Y-102591809D01*
X131293809Y-102616000D01*
X131342190Y-102664380D01*
X131366380Y-102761142D01*
X131366380Y-102930476D01*
X131342190Y-103027238D01*
X131293809Y-103075619D01*
X131245428Y-103099809D01*
X131148666Y-103099809D01*
X131100285Y-103075619D01*
X131051904Y-103027238D01*
X131027714Y-102930476D01*
X131027714Y-102761142D01*
X131051904Y-102664380D01*
X131100285Y-102616000D01*
X131148666Y-102591809D01*
X131826000Y-102591809D02*
X131584095Y-102591809D01*
X131559904Y-102833714D01*
X131584095Y-102809523D01*
X131632476Y-102785333D01*
X131753428Y-102785333D01*
X131801809Y-102809523D01*
X131826000Y-102833714D01*
X131850190Y-102882095D01*
X131850190Y-103003047D01*
X131826000Y-103051428D01*
X131801809Y-103075619D01*
X131753428Y-103099809D01*
X131632476Y-103099809D01*
X131584095Y-103075619D01*
X131559904Y-103051428D01*
X155822952Y-87376000D02*
X155774571Y-87351809D01*
X155702000Y-87351809D01*
X155629428Y-87376000D01*
X155581047Y-87424380D01*
X155556857Y-87472761D01*
X155532666Y-87569523D01*
X155532666Y-87642095D01*
X155556857Y-87738857D01*
X155581047Y-87787238D01*
X155629428Y-87835619D01*
X155702000Y-87859809D01*
X155750380Y-87859809D01*
X155822952Y-87835619D01*
X155847142Y-87811428D01*
X155847142Y-87642095D01*
X155750380Y-87642095D01*
X156064857Y-87859809D02*
X156064857Y-87351809D01*
X156355142Y-87859809D01*
X156355142Y-87351809D01*
X156597047Y-87859809D02*
X156597047Y-87351809D01*
X156718000Y-87351809D01*
X156790571Y-87376000D01*
X156838952Y-87424380D01*
X156863142Y-87472761D01*
X156887333Y-87569523D01*
X156887333Y-87642095D01*
X156863142Y-87738857D01*
X156838952Y-87787238D01*
X156790571Y-87835619D01*
X156718000Y-87859809D01*
X156597047Y-87859809D01*
X130060095Y-97536000D02*
X130011714Y-97511809D01*
X129939142Y-97511809D01*
X129866571Y-97536000D01*
X129818190Y-97584380D01*
X129794000Y-97632761D01*
X129769809Y-97729523D01*
X129769809Y-97802095D01*
X129794000Y-97898857D01*
X129818190Y-97947238D01*
X129866571Y-97995619D01*
X129939142Y-98019809D01*
X129987523Y-98019809D01*
X130060095Y-97995619D01*
X130084285Y-97971428D01*
X130084285Y-97802095D01*
X129987523Y-97802095D01*
X130302000Y-98019809D02*
X130302000Y-97511809D01*
X130495523Y-97511809D01*
X130543904Y-97536000D01*
X130568095Y-97560190D01*
X130592285Y-97608571D01*
X130592285Y-97681142D01*
X130568095Y-97729523D01*
X130543904Y-97753714D01*
X130495523Y-97777904D01*
X130302000Y-97777904D01*
X130810000Y-98019809D02*
X130810000Y-97511809D01*
X131148666Y-97511809D02*
X131245428Y-97511809D01*
X131293809Y-97536000D01*
X131342190Y-97584380D01*
X131366380Y-97681142D01*
X131366380Y-97850476D01*
X131342190Y-97947238D01*
X131293809Y-97995619D01*
X131245428Y-98019809D01*
X131148666Y-98019809D01*
X131100285Y-97995619D01*
X131051904Y-97947238D01*
X131027714Y-97850476D01*
X131027714Y-97681142D01*
X131051904Y-97584380D01*
X131100285Y-97536000D01*
X131148666Y-97511809D01*
X131535714Y-97511809D02*
X131850190Y-97511809D01*
X131680857Y-97705333D01*
X131753428Y-97705333D01*
X131801809Y-97729523D01*
X131826000Y-97753714D01*
X131850190Y-97802095D01*
X131850190Y-97923047D01*
X131826000Y-97971428D01*
X131801809Y-97995619D01*
X131753428Y-98019809D01*
X131608285Y-98019809D01*
X131559904Y-97995619D01*
X131535714Y-97971428D01*
X130060095Y-92456000D02*
X130011714Y-92431809D01*
X129939142Y-92431809D01*
X129866571Y-92456000D01*
X129818190Y-92504380D01*
X129794000Y-92552761D01*
X129769809Y-92649523D01*
X129769809Y-92722095D01*
X129794000Y-92818857D01*
X129818190Y-92867238D01*
X129866571Y-92915619D01*
X129939142Y-92939809D01*
X129987523Y-92939809D01*
X130060095Y-92915619D01*
X130084285Y-92891428D01*
X130084285Y-92722095D01*
X129987523Y-92722095D01*
X130302000Y-92939809D02*
X130302000Y-92431809D01*
X130495523Y-92431809D01*
X130543904Y-92456000D01*
X130568095Y-92480190D01*
X130592285Y-92528571D01*
X130592285Y-92601142D01*
X130568095Y-92649523D01*
X130543904Y-92673714D01*
X130495523Y-92697904D01*
X130302000Y-92697904D01*
X130810000Y-92939809D02*
X130810000Y-92431809D01*
X131148666Y-92431809D02*
X131245428Y-92431809D01*
X131293809Y-92456000D01*
X131342190Y-92504380D01*
X131366380Y-92601142D01*
X131366380Y-92770476D01*
X131342190Y-92867238D01*
X131293809Y-92915619D01*
X131245428Y-92939809D01*
X131148666Y-92939809D01*
X131100285Y-92915619D01*
X131051904Y-92867238D01*
X131027714Y-92770476D01*
X131027714Y-92601142D01*
X131051904Y-92504380D01*
X131100285Y-92456000D01*
X131148666Y-92431809D01*
X131850190Y-92939809D02*
X131559904Y-92939809D01*
X131705047Y-92939809D02*
X131705047Y-92431809D01*
X131656666Y-92504380D01*
X131608285Y-92552761D01*
X131559904Y-92576952D01*
D13*
X153379714Y-104194428D02*
X153016857Y-104448428D01*
X153379714Y-104629857D02*
X152617714Y-104629857D01*
X152617714Y-104339571D01*
X152654000Y-104267000D01*
X152690285Y-104230714D01*
X152762857Y-104194428D01*
X152871714Y-104194428D01*
X152944285Y-104230714D01*
X152980571Y-104267000D01*
X153016857Y-104339571D01*
X153016857Y-104629857D01*
X153343428Y-103577571D02*
X153379714Y-103650142D01*
X153379714Y-103795285D01*
X153343428Y-103867857D01*
X153270857Y-103904142D01*
X152980571Y-103904142D01*
X152908000Y-103867857D01*
X152871714Y-103795285D01*
X152871714Y-103650142D01*
X152908000Y-103577571D01*
X152980571Y-103541285D01*
X153053142Y-103541285D01*
X153125714Y-103904142D01*
X152871714Y-103287285D02*
X153379714Y-103105857D01*
X152871714Y-102924428D01*
X153307142Y-102634142D02*
X153343428Y-102597857D01*
X153379714Y-102634142D01*
X153343428Y-102670428D01*
X153307142Y-102634142D01*
X153379714Y-102634142D01*
X152980571Y-102017285D02*
X153016857Y-101908428D01*
X153053142Y-101872142D01*
X153125714Y-101835857D01*
X153234571Y-101835857D01*
X153307142Y-101872142D01*
X153343428Y-101908428D01*
X153379714Y-101981000D01*
X153379714Y-102271285D01*
X152617714Y-102271285D01*
X152617714Y-102017285D01*
X152654000Y-101944714D01*
X152690285Y-101908428D01*
X152762857Y-101872142D01*
X152835428Y-101872142D01*
X152908000Y-101908428D01*
X152944285Y-101944714D01*
X152980571Y-102017285D01*
X152980571Y-102271285D01*
D10*
X130422952Y-87376000D02*
X130374571Y-87351809D01*
X130302000Y-87351809D01*
X130229428Y-87376000D01*
X130181047Y-87424380D01*
X130156857Y-87472761D01*
X130132666Y-87569523D01*
X130132666Y-87642095D01*
X130156857Y-87738857D01*
X130181047Y-87787238D01*
X130229428Y-87835619D01*
X130302000Y-87859809D01*
X130350380Y-87859809D01*
X130422952Y-87835619D01*
X130447142Y-87811428D01*
X130447142Y-87642095D01*
X130350380Y-87642095D01*
X130664857Y-87859809D02*
X130664857Y-87351809D01*
X130955142Y-87859809D01*
X130955142Y-87351809D01*
X131197047Y-87859809D02*
X131197047Y-87351809D01*
X131318000Y-87351809D01*
X131390571Y-87376000D01*
X131438952Y-87424380D01*
X131463142Y-87472761D01*
X131487333Y-87569523D01*
X131487333Y-87642095D01*
X131463142Y-87738857D01*
X131438952Y-87787238D01*
X131390571Y-87835619D01*
X131318000Y-87859809D01*
X131197047Y-87859809D01*
X155333095Y-98019809D02*
X155333095Y-97511809D01*
X155671761Y-97511809D02*
X155768523Y-97511809D01*
X155816904Y-97536000D01*
X155865285Y-97584380D01*
X155889476Y-97681142D01*
X155889476Y-97850476D01*
X155865285Y-97947238D01*
X155816904Y-97995619D01*
X155768523Y-98019809D01*
X155671761Y-98019809D01*
X155623380Y-97995619D01*
X155575000Y-97947238D01*
X155550809Y-97850476D01*
X155550809Y-97681142D01*
X155575000Y-97584380D01*
X155623380Y-97536000D01*
X155671761Y-97511809D01*
X156373285Y-98019809D02*
X156083000Y-98019809D01*
X156228142Y-98019809D02*
X156228142Y-97511809D01*
X156179761Y-97584380D01*
X156131380Y-97632761D01*
X156083000Y-97656952D01*
X156687761Y-97511809D02*
X156736142Y-97511809D01*
X156784523Y-97536000D01*
X156808714Y-97560190D01*
X156832904Y-97608571D01*
X156857095Y-97705333D01*
X156857095Y-97826285D01*
X156832904Y-97923047D01*
X156808714Y-97971428D01*
X156784523Y-97995619D01*
X156736142Y-98019809D01*
X156687761Y-98019809D01*
X156639380Y-97995619D01*
X156615190Y-97971428D01*
X156591000Y-97923047D01*
X156566809Y-97826285D01*
X156566809Y-97705333D01*
X156591000Y-97608571D01*
X156615190Y-97560190D01*
X156639380Y-97536000D01*
X156687761Y-97511809D01*
X155460095Y-100076000D02*
X155411714Y-100051809D01*
X155339142Y-100051809D01*
X155266571Y-100076000D01*
X155218190Y-100124380D01*
X155194000Y-100172761D01*
X155169809Y-100269523D01*
X155169809Y-100342095D01*
X155194000Y-100438857D01*
X155218190Y-100487238D01*
X155266571Y-100535619D01*
X155339142Y-100559809D01*
X155387523Y-100559809D01*
X155460095Y-100535619D01*
X155484285Y-100511428D01*
X155484285Y-100342095D01*
X155387523Y-100342095D01*
X155702000Y-100559809D02*
X155702000Y-100051809D01*
X155895523Y-100051809D01*
X155943904Y-100076000D01*
X155968095Y-100100190D01*
X155992285Y-100148571D01*
X155992285Y-100221142D01*
X155968095Y-100269523D01*
X155943904Y-100293714D01*
X155895523Y-100317904D01*
X155702000Y-100317904D01*
X156210000Y-100559809D02*
X156210000Y-100051809D01*
X156548666Y-100051809D02*
X156645428Y-100051809D01*
X156693809Y-100076000D01*
X156742190Y-100124380D01*
X156766380Y-100221142D01*
X156766380Y-100390476D01*
X156742190Y-100487238D01*
X156693809Y-100535619D01*
X156645428Y-100559809D01*
X156548666Y-100559809D01*
X156500285Y-100535619D01*
X156451904Y-100487238D01*
X156427714Y-100390476D01*
X156427714Y-100221142D01*
X156451904Y-100124380D01*
X156500285Y-100076000D01*
X156548666Y-100051809D01*
X157008285Y-100559809D02*
X157105047Y-100559809D01*
X157153428Y-100535619D01*
X157177619Y-100511428D01*
X157226000Y-100438857D01*
X157250190Y-100342095D01*
X157250190Y-100148571D01*
X157226000Y-100100190D01*
X157201809Y-100076000D01*
X157153428Y-100051809D01*
X157056666Y-100051809D01*
X157008285Y-100076000D01*
X156984095Y-100100190D01*
X156959904Y-100148571D01*
X156959904Y-100269523D01*
X156984095Y-100317904D01*
X157008285Y-100342095D01*
X157056666Y-100366285D01*
X157153428Y-100366285D01*
X157201809Y-100342095D01*
X157226000Y-100317904D01*
X157250190Y-100269523D01*
X155835047Y-90133714D02*
X156004380Y-90133714D01*
X156076952Y-90399809D02*
X155835047Y-90399809D01*
X155835047Y-89891809D01*
X156076952Y-89891809D01*
X156294666Y-90399809D02*
X156294666Y-89891809D01*
X156584952Y-90399809D01*
X156584952Y-89891809D01*
X155187952Y-84999285D02*
X155575000Y-84999285D01*
X155381476Y-85192809D02*
X155381476Y-84805761D01*
X155768523Y-84684809D02*
X156083000Y-84684809D01*
X155913666Y-84878333D01*
X155986238Y-84878333D01*
X156034619Y-84902523D01*
X156058809Y-84926714D01*
X156083000Y-84975095D01*
X156083000Y-85096047D01*
X156058809Y-85144428D01*
X156034619Y-85168619D01*
X155986238Y-85192809D01*
X155841095Y-85192809D01*
X155792714Y-85168619D01*
X155768523Y-85144428D01*
X156228142Y-84684809D02*
X156397476Y-85192809D01*
X156566809Y-84684809D01*
X156687761Y-84684809D02*
X157002238Y-84684809D01*
X156832904Y-84878333D01*
X156905476Y-84878333D01*
X156953857Y-84902523D01*
X156978047Y-84926714D01*
X157002238Y-84975095D01*
X157002238Y-85096047D01*
X156978047Y-85144428D01*
X156953857Y-85168619D01*
X156905476Y-85192809D01*
X156760333Y-85192809D01*
X156711952Y-85168619D01*
X156687761Y-85144428D01*
D13*
X154377571Y-104698629D02*
X154377571Y-104444629D01*
X154776714Y-104385665D02*
X154776714Y-104748522D01*
X154014714Y-104653272D01*
X154014714Y-104290415D01*
X154740428Y-104090844D02*
X154776714Y-103986522D01*
X154776714Y-103805094D01*
X154740428Y-103727987D01*
X154704142Y-103687165D01*
X154631571Y-103641808D01*
X154559000Y-103632737D01*
X154486428Y-103659951D01*
X154450142Y-103691701D01*
X154413857Y-103759737D01*
X154377571Y-103900344D01*
X154341285Y-103968379D01*
X154305000Y-104000129D01*
X154232428Y-104027344D01*
X154159857Y-104018272D01*
X154087285Y-103972915D01*
X154051000Y-103932094D01*
X154014714Y-103854987D01*
X154014714Y-103673558D01*
X154051000Y-103569237D01*
X154776714Y-103333379D02*
X154014714Y-103238129D01*
X154014714Y-102947844D01*
X154051000Y-102879808D01*
X154087285Y-102848058D01*
X154159857Y-102820844D01*
X154268714Y-102834451D01*
X154341285Y-102879808D01*
X154377571Y-102920629D01*
X154413857Y-102997737D01*
X154413857Y-103288022D01*
X154014714Y-102548701D02*
X154014714Y-102076987D01*
X154305000Y-102367272D01*
X154305000Y-102258415D01*
X154341285Y-102190379D01*
X154377571Y-102158629D01*
X154450142Y-102131415D01*
X154631571Y-102154094D01*
X154704142Y-102199451D01*
X154740428Y-102240272D01*
X154776714Y-102317379D01*
X154776714Y-102535094D01*
X154740428Y-102603129D01*
X154704142Y-102634879D01*
X154087285Y-101795772D02*
X154051000Y-101754951D01*
X154014714Y-101677844D01*
X154014714Y-101496415D01*
X154051000Y-101428379D01*
X154087285Y-101396629D01*
X154159857Y-101369415D01*
X154232428Y-101378487D01*
X154341285Y-101428379D01*
X154776714Y-101918237D01*
X154776714Y-101446522D01*
X154486428Y-101083665D02*
X154486428Y-100503094D01*
X154704142Y-99732022D02*
X154740428Y-99772844D01*
X154776714Y-99886237D01*
X154776714Y-99958808D01*
X154740428Y-100063129D01*
X154667857Y-100126629D01*
X154595285Y-100153844D01*
X154450142Y-100171987D01*
X154341285Y-100158379D01*
X154196142Y-100103951D01*
X154123571Y-100058594D01*
X154051000Y-99976951D01*
X154014714Y-99863558D01*
X154014714Y-99790987D01*
X154051000Y-99686665D01*
X154087285Y-99654915D01*
X154014714Y-99391844D02*
X154014714Y-98920129D01*
X154305000Y-99210415D01*
X154305000Y-99101558D01*
X154341285Y-99033522D01*
X154377571Y-99001772D01*
X154450142Y-98974558D01*
X154631571Y-98997237D01*
X154704142Y-99042594D01*
X154740428Y-99083415D01*
X154776714Y-99160522D01*
X154776714Y-99378237D01*
X154740428Y-99446272D01*
X154704142Y-99478022D01*
X154486428Y-98652522D02*
X154486428Y-98071951D01*
X154776714Y-97745379D02*
X154014714Y-97650129D01*
X154014714Y-97468701D01*
X154051000Y-97364379D01*
X154123571Y-97300879D01*
X154196142Y-97273665D01*
X154341285Y-97255522D01*
X154450142Y-97269129D01*
X154595285Y-97323558D01*
X154667857Y-97368915D01*
X154740428Y-97450558D01*
X154776714Y-97563951D01*
X154776714Y-97745379D01*
X154740428Y-96688558D02*
X154776714Y-96765665D01*
X154776714Y-96910808D01*
X154740428Y-96978844D01*
X154667857Y-97006058D01*
X154377571Y-96969772D01*
X154305000Y-96924415D01*
X154268714Y-96847308D01*
X154268714Y-96702165D01*
X154305000Y-96634129D01*
X154377571Y-96606915D01*
X154450142Y-96615987D01*
X154522714Y-96987915D01*
X154268714Y-96339308D02*
X154776714Y-96221379D01*
X154268714Y-95976451D01*
X154776714Y-95749665D02*
X154014714Y-95654415D01*
X154776714Y-95314237D02*
X154341285Y-95586379D01*
X154014714Y-95218987D02*
X154450142Y-95708844D01*
X154776714Y-94987665D02*
X154268714Y-94924165D01*
X154014714Y-94892415D02*
X154051000Y-94933237D01*
X154087285Y-94901487D01*
X154051000Y-94860665D01*
X154014714Y-94892415D01*
X154087285Y-94901487D01*
X154268714Y-94670165D02*
X154268714Y-94379879D01*
X154014714Y-94529558D02*
X154667857Y-94611201D01*
X154740428Y-94583987D01*
X154776714Y-94515951D01*
X154776714Y-94443379D01*
X154486428Y-94153094D02*
X154486428Y-93572522D01*
X154776714Y-92883094D02*
X154776714Y-93245951D01*
X154014714Y-93150701D01*
X154776714Y-92629094D02*
X154268714Y-92565594D01*
X154014714Y-92533844D02*
X154051000Y-92574665D01*
X154087285Y-92542915D01*
X154051000Y-92502094D01*
X154014714Y-92533844D01*
X154087285Y-92542915D01*
X154268714Y-92202737D02*
X155030714Y-92297987D01*
X154305000Y-92207272D02*
X154268714Y-92130165D01*
X154268714Y-91985022D01*
X154305000Y-91916987D01*
X154341285Y-91885237D01*
X154413857Y-91858022D01*
X154631571Y-91885237D01*
X154704142Y-91930594D01*
X154740428Y-91971415D01*
X154776714Y-92048522D01*
X154776714Y-92193665D01*
X154740428Y-92261701D01*
X154776714Y-91467951D02*
X154740428Y-91535987D01*
X154704142Y-91567737D01*
X154631571Y-91594951D01*
X154413857Y-91567737D01*
X154341285Y-91522379D01*
X154305000Y-91481558D01*
X154268714Y-91404451D01*
X154268714Y-91295594D01*
X154305000Y-91227558D01*
X154341285Y-91195808D01*
X154413857Y-91168594D01*
X154631571Y-91195808D01*
X154704142Y-91241165D01*
X154740428Y-91281987D01*
X154776714Y-91359094D01*
X154776714Y-91467951D01*
D12*
X151193500Y-93472000D02*
X151193500Y-93726000D01*
X151193500Y-93472000D02*
X151193500Y-93218000D01*
X152082500Y-93472000D02*
X152082500Y-93218000D01*
X152082500Y-93472000D02*
X152082500Y-93726000D01*
D14*
G36*
X145299973Y-89492916D02*
G01*
X145292647Y-89546002D01*
X145271880Y-89597066D01*
X145253533Y-89624862D01*
X145233762Y-89647796D01*
X145212316Y-89668611D01*
X145204091Y-89675295D01*
X145179200Y-89693750D01*
X145178990Y-90107135D01*
X145178780Y-90520520D01*
X145133060Y-90520520D01*
X145133060Y-89488010D01*
X145129993Y-89453815D01*
X145119425Y-89431758D01*
X145099302Y-89419743D01*
X145067571Y-89415675D01*
X145062126Y-89415620D01*
X145036471Y-89417395D01*
X145015642Y-89421928D01*
X145008368Y-89425349D01*
X144995147Y-89443345D01*
X144988167Y-89469891D01*
X144987437Y-89499667D01*
X144992968Y-89527350D01*
X145004768Y-89547617D01*
X145008138Y-89550503D01*
X145028243Y-89558286D01*
X145055749Y-89560836D01*
X145084520Y-89558449D01*
X145108420Y-89551426D01*
X145117820Y-89545160D01*
X145127675Y-89530476D01*
X145132275Y-89509019D01*
X145133060Y-89488010D01*
X145133060Y-90520520D01*
X145060670Y-90520520D01*
X144942560Y-90520520D01*
X144942538Y-90107135D01*
X144942516Y-89693750D01*
X144919201Y-89678510D01*
X144896413Y-89658852D01*
X144871732Y-89630103D01*
X144849010Y-89597288D01*
X144832096Y-89565432D01*
X144831549Y-89564138D01*
X144821092Y-89522865D01*
X144819886Y-89475699D01*
X144827640Y-89428625D01*
X144839735Y-89395796D01*
X144870619Y-89347660D01*
X144912067Y-89304707D01*
X144959441Y-89271609D01*
X144966757Y-89267791D01*
X145016277Y-89251142D01*
X145069753Y-89246996D01*
X145122427Y-89255355D01*
X145154583Y-89267791D01*
X145206067Y-89300713D01*
X145246907Y-89341705D01*
X145276544Y-89388748D01*
X145294419Y-89439825D01*
X145299973Y-89492916D01*
G37*
X145299973Y-89492916D02*
X145292647Y-89546002D01*
X145271880Y-89597066D01*
X145253533Y-89624862D01*
X145233762Y-89647796D01*
X145212316Y-89668611D01*
X145204091Y-89675295D01*
X145179200Y-89693750D01*
X145178990Y-90107135D01*
X145178780Y-90520520D01*
X145133060Y-90520520D01*
X145133060Y-89488010D01*
X145129993Y-89453815D01*
X145119425Y-89431758D01*
X145099302Y-89419743D01*
X145067571Y-89415675D01*
X145062126Y-89415620D01*
X145036471Y-89417395D01*
X145015642Y-89421928D01*
X145008368Y-89425349D01*
X144995147Y-89443345D01*
X144988167Y-89469891D01*
X144987437Y-89499667D01*
X144992968Y-89527350D01*
X145004768Y-89547617D01*
X145008138Y-89550503D01*
X145028243Y-89558286D01*
X145055749Y-89560836D01*
X145084520Y-89558449D01*
X145108420Y-89551426D01*
X145117820Y-89545160D01*
X145127675Y-89530476D01*
X145132275Y-89509019D01*
X145133060Y-89488010D01*
X145133060Y-90520520D01*
X145060670Y-90520520D01*
X144942560Y-90520520D01*
X144942538Y-90107135D01*
X144942516Y-89693750D01*
X144919201Y-89678510D01*
X144896413Y-89658852D01*
X144871732Y-89630103D01*
X144849010Y-89597288D01*
X144832096Y-89565432D01*
X144831549Y-89564138D01*
X144821092Y-89522865D01*
X144819886Y-89475699D01*
X144827640Y-89428625D01*
X144839735Y-89395796D01*
X144870619Y-89347660D01*
X144912067Y-89304707D01*
X144959441Y-89271609D01*
X144966757Y-89267791D01*
X145016277Y-89251142D01*
X145069753Y-89246996D01*
X145122427Y-89255355D01*
X145154583Y-89267791D01*
X145206067Y-89300713D01*
X145246907Y-89341705D01*
X145276544Y-89388748D01*
X145294419Y-89439825D01*
X145299973Y-89492916D01*
G36*
X144151319Y-90180469D02*
G01*
X144151196Y-90261315D01*
X144150828Y-90340484D01*
X144150215Y-90416439D01*
X144149356Y-90487645D01*
X144148251Y-90552565D01*
X144146900Y-90609665D01*
X144145301Y-90657407D01*
X144143455Y-90694258D01*
X144141361Y-90718680D01*
X144139436Y-90728410D01*
X144130077Y-90742554D01*
X144111708Y-90764533D01*
X144086511Y-90792183D01*
X144056672Y-90823335D01*
X144024374Y-90855824D01*
X143991802Y-90887484D01*
X143961138Y-90916148D01*
X143934568Y-90939650D01*
X143914274Y-90955824D01*
X143913860Y-90956073D01*
X143913860Y-90639070D01*
X143913860Y-90174221D01*
X143913860Y-89709372D01*
X143862629Y-89657746D01*
X143811399Y-89606120D01*
X143632316Y-89606120D01*
X143453232Y-89606120D01*
X143401606Y-89657351D01*
X143377714Y-89681358D01*
X143362636Y-89698321D01*
X143354344Y-89711906D01*
X143350812Y-89725780D01*
X143350012Y-89743609D01*
X143350002Y-89750696D01*
X143350817Y-89775693D01*
X143354666Y-89790776D01*
X143363707Y-89801243D01*
X143373339Y-89808050D01*
X143398007Y-89829443D01*
X143423443Y-89860045D01*
X143445743Y-89894561D01*
X143460520Y-89926302D01*
X143471400Y-89979092D01*
X143468596Y-90033326D01*
X143453045Y-90086152D01*
X143425684Y-90134717D01*
X143387449Y-90176166D01*
X143375291Y-90185835D01*
X143350400Y-90204290D01*
X143350190Y-90417459D01*
X143349980Y-90630627D01*
X143401211Y-90682254D01*
X143452441Y-90733880D01*
X143635321Y-90733880D01*
X143818200Y-90733880D01*
X143866030Y-90686475D01*
X143913860Y-90639070D01*
X143913860Y-90956073D01*
X143903839Y-90962102D01*
X143888810Y-90964766D01*
X143860967Y-90966904D01*
X143822595Y-90968531D01*
X143775978Y-90969660D01*
X143723400Y-90970304D01*
X143667144Y-90970478D01*
X143609497Y-90970195D01*
X143552740Y-90969470D01*
X143499160Y-90968314D01*
X143451039Y-90966743D01*
X143410663Y-90964770D01*
X143380314Y-90962409D01*
X143362279Y-90959672D01*
X143359748Y-90958842D01*
X143344702Y-90949161D01*
X143321750Y-90930578D01*
X143304260Y-90915121D01*
X143304260Y-89998550D01*
X143301193Y-89964355D01*
X143290625Y-89942298D01*
X143270502Y-89930283D01*
X143238771Y-89926215D01*
X143233326Y-89926160D01*
X143207671Y-89927935D01*
X143186842Y-89932468D01*
X143179568Y-89935889D01*
X143166347Y-89953885D01*
X143159367Y-89980431D01*
X143158637Y-90010207D01*
X143164168Y-90037890D01*
X143175968Y-90058157D01*
X143179338Y-90061043D01*
X143199443Y-90068826D01*
X143226949Y-90071376D01*
X143255720Y-90068989D01*
X143279620Y-90061966D01*
X143289020Y-90055700D01*
X143298875Y-90041016D01*
X143303475Y-90019559D01*
X143304260Y-89998550D01*
X143304260Y-90915121D01*
X143293142Y-90905295D01*
X143261127Y-90875509D01*
X143227953Y-90843423D01*
X143195872Y-90811234D01*
X143167131Y-90781144D01*
X143143980Y-90755352D01*
X143128669Y-90736058D01*
X143124136Y-90728410D01*
X143121109Y-90717799D01*
X143118687Y-90700833D01*
X143116815Y-90676081D01*
X143115439Y-90642113D01*
X143114505Y-90597498D01*
X143113958Y-90540806D01*
X143113746Y-90470605D01*
X143113738Y-90454090D01*
X143113716Y-90204290D01*
X143090401Y-90189050D01*
X143067613Y-90169392D01*
X143042932Y-90140643D01*
X143020210Y-90107828D01*
X143003296Y-90075972D01*
X143002749Y-90074678D01*
X142994498Y-90042773D01*
X142991355Y-90003296D01*
X142993317Y-89963035D01*
X143000386Y-89928775D01*
X143002749Y-89922422D01*
X143019320Y-89890723D01*
X143041869Y-89857845D01*
X143066544Y-89828813D01*
X143089496Y-89808652D01*
X143090401Y-89808050D01*
X143113716Y-89792810D01*
X143113738Y-89719011D01*
X143114565Y-89684419D01*
X143116761Y-89653387D01*
X143119935Y-89630589D01*
X143121756Y-89623761D01*
X143130218Y-89610425D01*
X143147811Y-89588949D01*
X143172415Y-89561473D01*
X143201908Y-89530132D01*
X143234168Y-89497067D01*
X143267076Y-89464414D01*
X143298508Y-89434312D01*
X143326344Y-89408899D01*
X143348462Y-89390313D01*
X143362742Y-89380692D01*
X143363070Y-89380545D01*
X143378337Y-89377317D01*
X143406520Y-89374613D01*
X143445305Y-89372434D01*
X143492377Y-89370782D01*
X143545421Y-89369656D01*
X143602123Y-89369059D01*
X143660167Y-89368991D01*
X143717240Y-89369454D01*
X143771026Y-89370448D01*
X143819210Y-89371976D01*
X143859479Y-89374038D01*
X143889517Y-89376635D01*
X143907009Y-89379768D01*
X143908390Y-89380276D01*
X143923011Y-89389892D01*
X143945405Y-89408763D01*
X143973368Y-89434624D01*
X144004698Y-89465211D01*
X144037192Y-89498257D01*
X144068646Y-89531498D01*
X144096858Y-89562667D01*
X144119625Y-89589499D01*
X144134743Y-89609729D01*
X144139156Y-89617585D01*
X144141462Y-89630744D01*
X144143527Y-89657583D01*
X144145350Y-89696565D01*
X144146931Y-89746156D01*
X144148271Y-89804819D01*
X144149367Y-89871019D01*
X144150221Y-89943219D01*
X144150831Y-90019885D01*
X144151197Y-90099480D01*
X144151319Y-90180469D01*
G37*
X144151319Y-90180469D02*
X144151196Y-90261315D01*
X144150828Y-90340484D01*
X144150215Y-90416439D01*
X144149356Y-90487645D01*
X144148251Y-90552565D01*
X144146900Y-90609665D01*
X144145301Y-90657407D01*
X144143455Y-90694258D01*
X144141361Y-90718680D01*
X144139436Y-90728410D01*
X144130077Y-90742554D01*
X144111708Y-90764533D01*
X144086511Y-90792183D01*
X144056672Y-90823335D01*
X144024374Y-90855824D01*
X143991802Y-90887484D01*
X143961138Y-90916148D01*
X143934568Y-90939650D01*
X143914274Y-90955824D01*
X143913860Y-90956073D01*
X143913860Y-90639070D01*
X143913860Y-90174221D01*
X143913860Y-89709372D01*
X143862629Y-89657746D01*
X143811399Y-89606120D01*
X143632316Y-89606120D01*
X143453232Y-89606120D01*
X143401606Y-89657351D01*
X143377714Y-89681358D01*
X143362636Y-89698321D01*
X143354344Y-89711906D01*
X143350812Y-89725780D01*
X143350012Y-89743609D01*
X143350002Y-89750696D01*
X143350817Y-89775693D01*
X143354666Y-89790776D01*
X143363707Y-89801243D01*
X143373339Y-89808050D01*
X143398007Y-89829443D01*
X143423443Y-89860045D01*
X143445743Y-89894561D01*
X143460520Y-89926302D01*
X143471400Y-89979092D01*
X143468596Y-90033326D01*
X143453045Y-90086152D01*
X143425684Y-90134717D01*
X143387449Y-90176166D01*
X143375291Y-90185835D01*
X143350400Y-90204290D01*
X143350190Y-90417459D01*
X143349980Y-90630627D01*
X143401211Y-90682254D01*
X143452441Y-90733880D01*
X143635321Y-90733880D01*
X143818200Y-90733880D01*
X143866030Y-90686475D01*
X143913860Y-90639070D01*
X143913860Y-90956073D01*
X143903839Y-90962102D01*
X143888810Y-90964766D01*
X143860967Y-90966904D01*
X143822595Y-90968531D01*
X143775978Y-90969660D01*
X143723400Y-90970304D01*
X143667144Y-90970478D01*
X143609497Y-90970195D01*
X143552740Y-90969470D01*
X143499160Y-90968314D01*
X143451039Y-90966743D01*
X143410663Y-90964770D01*
X143380314Y-90962409D01*
X143362279Y-90959672D01*
X143359748Y-90958842D01*
X143344702Y-90949161D01*
X143321750Y-90930578D01*
X143304260Y-90915121D01*
X143304260Y-89998550D01*
X143301193Y-89964355D01*
X143290625Y-89942298D01*
X143270502Y-89930283D01*
X143238771Y-89926215D01*
X143233326Y-89926160D01*
X143207671Y-89927935D01*
X143186842Y-89932468D01*
X143179568Y-89935889D01*
X143166347Y-89953885D01*
X143159367Y-89980431D01*
X143158637Y-90010207D01*
X143164168Y-90037890D01*
X143175968Y-90058157D01*
X143179338Y-90061043D01*
X143199443Y-90068826D01*
X143226949Y-90071376D01*
X143255720Y-90068989D01*
X143279620Y-90061966D01*
X143289020Y-90055700D01*
X143298875Y-90041016D01*
X143303475Y-90019559D01*
X143304260Y-89998550D01*
X143304260Y-90915121D01*
X143293142Y-90905295D01*
X143261127Y-90875509D01*
X143227953Y-90843423D01*
X143195872Y-90811234D01*
X143167131Y-90781144D01*
X143143980Y-90755352D01*
X143128669Y-90736058D01*
X143124136Y-90728410D01*
X143121109Y-90717799D01*
X143118687Y-90700833D01*
X143116815Y-90676081D01*
X143115439Y-90642113D01*
X143114505Y-90597498D01*
X143113958Y-90540806D01*
X143113746Y-90470605D01*
X143113738Y-90454090D01*
X143113716Y-90204290D01*
X143090401Y-90189050D01*
X143067613Y-90169392D01*
X143042932Y-90140643D01*
X143020210Y-90107828D01*
X143003296Y-90075972D01*
X143002749Y-90074678D01*
X142994498Y-90042773D01*
X142991355Y-90003296D01*
X142993317Y-89963035D01*
X143000386Y-89928775D01*
X143002749Y-89922422D01*
X143019320Y-89890723D01*
X143041869Y-89857845D01*
X143066544Y-89828813D01*
X143089496Y-89808652D01*
X143090401Y-89808050D01*
X143113716Y-89792810D01*
X143113738Y-89719011D01*
X143114565Y-89684419D01*
X143116761Y-89653387D01*
X143119935Y-89630589D01*
X143121756Y-89623761D01*
X143130218Y-89610425D01*
X143147811Y-89588949D01*
X143172415Y-89561473D01*
X143201908Y-89530132D01*
X143234168Y-89497067D01*
X143267076Y-89464414D01*
X143298508Y-89434312D01*
X143326344Y-89408899D01*
X143348462Y-89390313D01*
X143362742Y-89380692D01*
X143363070Y-89380545D01*
X143378337Y-89377317D01*
X143406520Y-89374613D01*
X143445305Y-89372434D01*
X143492377Y-89370782D01*
X143545421Y-89369656D01*
X143602123Y-89369059D01*
X143660167Y-89368991D01*
X143717240Y-89369454D01*
X143771026Y-89370448D01*
X143819210Y-89371976D01*
X143859479Y-89374038D01*
X143889517Y-89376635D01*
X143907009Y-89379768D01*
X143908390Y-89380276D01*
X143923011Y-89389892D01*
X143945405Y-89408763D01*
X143973368Y-89434624D01*
X144004698Y-89465211D01*
X144037192Y-89498257D01*
X144068646Y-89531498D01*
X144096858Y-89562667D01*
X144119625Y-89589499D01*
X144134743Y-89609729D01*
X144139156Y-89617585D01*
X144141462Y-89630744D01*
X144143527Y-89657583D01*
X144145350Y-89696565D01*
X144146931Y-89746156D01*
X144148271Y-89804819D01*
X144149367Y-89871019D01*
X144150221Y-89943219D01*
X144150831Y-90019885D01*
X144151197Y-90099480D01*
X144151319Y-90180469D01*
G36*
X149359302Y-90842094D02*
G01*
X149357114Y-90890273D01*
X149347154Y-90933558D01*
X149341205Y-90947742D01*
X149317667Y-90984381D01*
X149284921Y-91020932D01*
X149248020Y-91052350D01*
X149217882Y-91070900D01*
X149194520Y-91078751D01*
X149194520Y-90851990D01*
X149191454Y-90817795D01*
X149180885Y-90795738D01*
X149160762Y-90783723D01*
X149129031Y-90779655D01*
X149123586Y-90779600D01*
X149097931Y-90781375D01*
X149077102Y-90785908D01*
X149069828Y-90789329D01*
X149056607Y-90807325D01*
X149049627Y-90833871D01*
X149048897Y-90863647D01*
X149054428Y-90891330D01*
X149066228Y-90911597D01*
X149069597Y-90914483D01*
X149089703Y-90922266D01*
X149117209Y-90924816D01*
X149145980Y-90922429D01*
X149169880Y-90915406D01*
X149179280Y-90909140D01*
X149189135Y-90894456D01*
X149193735Y-90872999D01*
X149194520Y-90851990D01*
X149194520Y-91078751D01*
X149182252Y-91082874D01*
X149139496Y-91089290D01*
X149095877Y-91089784D01*
X149057657Y-91083993D01*
X149047634Y-91080770D01*
X148997767Y-91054326D01*
X148952409Y-91016044D01*
X148914960Y-90969288D01*
X148892783Y-90927577D01*
X148884614Y-90895803D01*
X148881589Y-90856414D01*
X148883685Y-90816131D01*
X148890879Y-90781675D01*
X148893314Y-90775133D01*
X148905480Y-90746015D01*
X148792920Y-90633267D01*
X148680361Y-90520520D01*
X148638311Y-90520520D01*
X148596261Y-90520520D01*
X148352465Y-90765123D01*
X148301437Y-90816019D01*
X148252963Y-90863788D01*
X148208248Y-90907287D01*
X148168496Y-90945369D01*
X148134911Y-90976888D01*
X148108696Y-91000701D01*
X148091057Y-91015660D01*
X148084150Y-91020393D01*
X148068417Y-91023808D01*
X148039922Y-91026628D01*
X148001134Y-91028854D01*
X147954518Y-91030484D01*
X147902543Y-91031516D01*
X147847675Y-91031948D01*
X147792381Y-91031780D01*
X147739129Y-91031009D01*
X147690386Y-91029635D01*
X147648618Y-91027655D01*
X147616294Y-91025069D01*
X147595880Y-91021874D01*
X147592170Y-91020684D01*
X147577549Y-91011068D01*
X147555155Y-90992197D01*
X147527192Y-90966336D01*
X147495862Y-90935749D01*
X147463368Y-90902703D01*
X147431914Y-90869462D01*
X147403702Y-90838293D01*
X147380935Y-90811461D01*
X147365817Y-90791231D01*
X147361404Y-90783375D01*
X147359119Y-90770253D01*
X147357070Y-90743392D01*
X147355257Y-90704292D01*
X147353681Y-90654453D01*
X147352342Y-90595374D01*
X147351239Y-90528556D01*
X147350373Y-90455497D01*
X147349744Y-90377698D01*
X147349351Y-90296658D01*
X147349194Y-90213877D01*
X147349275Y-90130854D01*
X147349591Y-90049089D01*
X147350145Y-89970082D01*
X147350935Y-89895333D01*
X147351961Y-89826340D01*
X147353224Y-89764604D01*
X147354724Y-89711625D01*
X147356460Y-89668901D01*
X147358433Y-89637933D01*
X147360642Y-89620221D01*
X147361404Y-89617585D01*
X147371040Y-89602256D01*
X147389609Y-89579002D01*
X147414910Y-89550089D01*
X147444739Y-89517783D01*
X147476894Y-89484348D01*
X147509171Y-89452050D01*
X147539367Y-89423155D01*
X147565280Y-89399928D01*
X147584706Y-89384635D01*
X147592170Y-89380276D01*
X147608101Y-89376881D01*
X147636757Y-89374093D01*
X147675674Y-89371913D01*
X147722382Y-89370339D01*
X147774415Y-89369369D01*
X147829307Y-89369001D01*
X147884589Y-89369235D01*
X147937794Y-89370068D01*
X147986456Y-89371500D01*
X148028107Y-89373529D01*
X148060281Y-89376153D01*
X148080509Y-89379372D01*
X148084150Y-89380567D01*
X148094514Y-89388079D01*
X148114362Y-89405309D01*
X148142490Y-89431112D01*
X148177695Y-89464343D01*
X148218772Y-89503855D01*
X148264517Y-89548504D01*
X148313727Y-89597144D01*
X148352465Y-89635837D01*
X148596261Y-89880440D01*
X148638311Y-89880440D01*
X148680361Y-89880440D01*
X148792920Y-89767692D01*
X148905480Y-89654945D01*
X148893314Y-89625827D01*
X148882577Y-89583661D01*
X148881378Y-89535810D01*
X148889440Y-89488244D01*
X148901195Y-89456756D01*
X148932079Y-89408620D01*
X148973527Y-89365667D01*
X149020901Y-89332569D01*
X149028217Y-89328751D01*
X149077737Y-89312102D01*
X149131213Y-89307956D01*
X149183887Y-89316315D01*
X149216043Y-89328751D01*
X149260471Y-89357297D01*
X149300961Y-89395123D01*
X149332706Y-89437484D01*
X149340452Y-89451663D01*
X149350498Y-89475926D01*
X149356052Y-89501259D01*
X149358201Y-89533559D01*
X149358350Y-89548970D01*
X149354866Y-89598951D01*
X149343083Y-89640444D01*
X149321006Y-89678189D01*
X149288366Y-89715206D01*
X149241104Y-89753813D01*
X149194520Y-89776034D01*
X149194520Y-89548970D01*
X149191454Y-89514775D01*
X149180885Y-89492718D01*
X149160762Y-89480703D01*
X149129031Y-89476635D01*
X149123586Y-89476580D01*
X149097931Y-89478355D01*
X149077102Y-89482888D01*
X149069828Y-89486309D01*
X149056607Y-89504305D01*
X149049627Y-89530851D01*
X149048897Y-89560627D01*
X149054428Y-89588310D01*
X149066228Y-89608577D01*
X149069597Y-89611463D01*
X149089703Y-89619246D01*
X149117209Y-89621796D01*
X149145980Y-89619409D01*
X149169880Y-89612386D01*
X149179280Y-89606120D01*
X149189135Y-89591436D01*
X149193735Y-89569979D01*
X149194520Y-89548970D01*
X149194520Y-89776034D01*
X149190808Y-89777805D01*
X149141594Y-89787346D01*
X149099270Y-89790509D01*
X148943060Y-89945600D01*
X148902079Y-89985836D01*
X148863617Y-90022749D01*
X148829256Y-90054885D01*
X148800578Y-90080793D01*
X148779163Y-90099023D01*
X148766594Y-90108121D01*
X148765399Y-90108675D01*
X148746362Y-90112570D01*
X148716132Y-90115197D01*
X148678425Y-90116594D01*
X148636957Y-90116801D01*
X148595445Y-90115855D01*
X148557604Y-90113795D01*
X148527150Y-90110659D01*
X148507800Y-90106487D01*
X148506570Y-90105993D01*
X148496206Y-90098481D01*
X148476358Y-90081251D01*
X148448230Y-90055448D01*
X148413025Y-90022217D01*
X148371948Y-89982705D01*
X148326203Y-89938056D01*
X148276993Y-89889416D01*
X148238255Y-89850723D01*
X147994459Y-89606120D01*
X147841810Y-89606120D01*
X147689161Y-89606120D01*
X147637931Y-89657746D01*
X147586700Y-89709372D01*
X147586700Y-89882536D01*
X147586700Y-90055700D01*
X147737195Y-90055678D01*
X147887690Y-90055656D01*
X147902930Y-90032341D01*
X147922326Y-90009837D01*
X147950717Y-89985345D01*
X147983041Y-89962762D01*
X148014237Y-89945986D01*
X148016163Y-89945165D01*
X148055013Y-89935310D01*
X148100431Y-89933551D01*
X148146267Y-89939586D01*
X148186371Y-89953112D01*
X148187343Y-89953591D01*
X148231771Y-89982137D01*
X148272261Y-90019963D01*
X148304006Y-90062324D01*
X148311752Y-90076503D01*
X148325040Y-90116748D01*
X148330602Y-90163914D01*
X148328414Y-90212093D01*
X148318454Y-90255378D01*
X148312505Y-90269562D01*
X148289011Y-90306149D01*
X148256355Y-90342619D01*
X148219561Y-90373954D01*
X148189182Y-90392616D01*
X148165820Y-90400398D01*
X148165820Y-90173810D01*
X148162754Y-90139615D01*
X148152185Y-90117558D01*
X148132062Y-90105543D01*
X148100331Y-90101475D01*
X148094886Y-90101420D01*
X148069231Y-90103195D01*
X148048402Y-90107728D01*
X148041128Y-90111149D01*
X148027907Y-90129145D01*
X148020927Y-90155691D01*
X148020197Y-90185467D01*
X148025728Y-90213150D01*
X148037528Y-90233417D01*
X148040897Y-90236303D01*
X148061003Y-90244086D01*
X148088509Y-90246636D01*
X148117280Y-90244249D01*
X148141180Y-90237226D01*
X148150580Y-90230960D01*
X148160435Y-90216276D01*
X148165035Y-90194819D01*
X148165820Y-90173810D01*
X148165820Y-90400398D01*
X148146263Y-90406912D01*
X148097660Y-90412798D01*
X148050111Y-90409826D01*
X148024800Y-90403572D01*
X147989860Y-90387662D01*
X147954246Y-90364849D01*
X147923185Y-90338921D01*
X147902930Y-90315279D01*
X147887690Y-90291964D01*
X147737195Y-90291942D01*
X147586700Y-90291920D01*
X147586700Y-90492149D01*
X147586700Y-90692379D01*
X147638326Y-90743609D01*
X147689952Y-90794840D01*
X147842206Y-90794840D01*
X147994459Y-90794840D01*
X148238255Y-90550237D01*
X148289283Y-90499341D01*
X148337757Y-90451572D01*
X148382472Y-90408073D01*
X148422224Y-90369991D01*
X148455809Y-90338471D01*
X148482024Y-90314659D01*
X148499663Y-90299700D01*
X148506570Y-90294967D01*
X148526377Y-90290076D01*
X148557554Y-90286587D01*
X148596296Y-90284500D01*
X148638795Y-90283815D01*
X148681248Y-90284532D01*
X148719849Y-90286652D01*
X148750791Y-90290174D01*
X148769950Y-90294957D01*
X148781620Y-90303043D01*
X148802292Y-90320536D01*
X148830337Y-90345926D01*
X148864123Y-90377701D01*
X148902021Y-90414352D01*
X148942398Y-90454368D01*
X148946799Y-90458787D01*
X149099127Y-90611960D01*
X149137707Y-90611960D01*
X149182054Y-90618929D01*
X149227370Y-90638360D01*
X149270514Y-90668042D01*
X149308342Y-90705763D01*
X149337713Y-90749309D01*
X149340452Y-90754683D01*
X149353740Y-90794928D01*
X149359302Y-90842094D01*
G37*
X149359302Y-90842094D02*
X149357114Y-90890273D01*
X149347154Y-90933558D01*
X149341205Y-90947742D01*
X149317667Y-90984381D01*
X149284921Y-91020932D01*
X149248020Y-91052350D01*
X149217882Y-91070900D01*
X149194520Y-91078751D01*
X149194520Y-90851990D01*
X149191454Y-90817795D01*
X149180885Y-90795738D01*
X149160762Y-90783723D01*
X149129031Y-90779655D01*
X149123586Y-90779600D01*
X149097931Y-90781375D01*
X149077102Y-90785908D01*
X149069828Y-90789329D01*
X149056607Y-90807325D01*
X149049627Y-90833871D01*
X149048897Y-90863647D01*
X149054428Y-90891330D01*
X149066228Y-90911597D01*
X149069597Y-90914483D01*
X149089703Y-90922266D01*
X149117209Y-90924816D01*
X149145980Y-90922429D01*
X149169880Y-90915406D01*
X149179280Y-90909140D01*
X149189135Y-90894456D01*
X149193735Y-90872999D01*
X149194520Y-90851990D01*
X149194520Y-91078751D01*
X149182252Y-91082874D01*
X149139496Y-91089290D01*
X149095877Y-91089784D01*
X149057657Y-91083993D01*
X149047634Y-91080770D01*
X148997767Y-91054326D01*
X148952409Y-91016044D01*
X148914960Y-90969288D01*
X148892783Y-90927577D01*
X148884614Y-90895803D01*
X148881589Y-90856414D01*
X148883685Y-90816131D01*
X148890879Y-90781675D01*
X148893314Y-90775133D01*
X148905480Y-90746015D01*
X148792920Y-90633267D01*
X148680361Y-90520520D01*
X148638311Y-90520520D01*
X148596261Y-90520520D01*
X148352465Y-90765123D01*
X148301437Y-90816019D01*
X148252963Y-90863788D01*
X148208248Y-90907287D01*
X148168496Y-90945369D01*
X148134911Y-90976888D01*
X148108696Y-91000701D01*
X148091057Y-91015660D01*
X148084150Y-91020393D01*
X148068417Y-91023808D01*
X148039922Y-91026628D01*
X148001134Y-91028854D01*
X147954518Y-91030484D01*
X147902543Y-91031516D01*
X147847675Y-91031948D01*
X147792381Y-91031780D01*
X147739129Y-91031009D01*
X147690386Y-91029635D01*
X147648618Y-91027655D01*
X147616294Y-91025069D01*
X147595880Y-91021874D01*
X147592170Y-91020684D01*
X147577549Y-91011068D01*
X147555155Y-90992197D01*
X147527192Y-90966336D01*
X147495862Y-90935749D01*
X147463368Y-90902703D01*
X147431914Y-90869462D01*
X147403702Y-90838293D01*
X147380935Y-90811461D01*
X147365817Y-90791231D01*
X147361404Y-90783375D01*
X147359119Y-90770253D01*
X147357070Y-90743392D01*
X147355257Y-90704292D01*
X147353681Y-90654453D01*
X147352342Y-90595374D01*
X147351239Y-90528556D01*
X147350373Y-90455497D01*
X147349744Y-90377698D01*
X147349351Y-90296658D01*
X147349194Y-90213877D01*
X147349275Y-90130854D01*
X147349591Y-90049089D01*
X147350145Y-89970082D01*
X147350935Y-89895333D01*
X147351961Y-89826340D01*
X147353224Y-89764604D01*
X147354724Y-89711625D01*
X147356460Y-89668901D01*
X147358433Y-89637933D01*
X147360642Y-89620221D01*
X147361404Y-89617585D01*
X147371040Y-89602256D01*
X147389609Y-89579002D01*
X147414910Y-89550089D01*
X147444739Y-89517783D01*
X147476894Y-89484348D01*
X147509171Y-89452050D01*
X147539367Y-89423155D01*
X147565280Y-89399928D01*
X147584706Y-89384635D01*
X147592170Y-89380276D01*
X147608101Y-89376881D01*
X147636757Y-89374093D01*
X147675674Y-89371913D01*
X147722382Y-89370339D01*
X147774415Y-89369369D01*
X147829307Y-89369001D01*
X147884589Y-89369235D01*
X147937794Y-89370068D01*
X147986456Y-89371500D01*
X148028107Y-89373529D01*
X148060281Y-89376153D01*
X148080509Y-89379372D01*
X148084150Y-89380567D01*
X148094514Y-89388079D01*
X148114362Y-89405309D01*
X148142490Y-89431112D01*
X148177695Y-89464343D01*
X148218772Y-89503855D01*
X148264517Y-89548504D01*
X148313727Y-89597144D01*
X148352465Y-89635837D01*
X148596261Y-89880440D01*
X148638311Y-89880440D01*
X148680361Y-89880440D01*
X148792920Y-89767692D01*
X148905480Y-89654945D01*
X148893314Y-89625827D01*
X148882577Y-89583661D01*
X148881378Y-89535810D01*
X148889440Y-89488244D01*
X148901195Y-89456756D01*
X148932079Y-89408620D01*
X148973527Y-89365667D01*
X149020901Y-89332569D01*
X149028217Y-89328751D01*
X149077737Y-89312102D01*
X149131213Y-89307956D01*
X149183887Y-89316315D01*
X149216043Y-89328751D01*
X149260471Y-89357297D01*
X149300961Y-89395123D01*
X149332706Y-89437484D01*
X149340452Y-89451663D01*
X149350498Y-89475926D01*
X149356052Y-89501259D01*
X149358201Y-89533559D01*
X149358350Y-89548970D01*
X149354866Y-89598951D01*
X149343083Y-89640444D01*
X149321006Y-89678189D01*
X149288366Y-89715206D01*
X149241104Y-89753813D01*
X149194520Y-89776034D01*
X149194520Y-89548970D01*
X149191454Y-89514775D01*
X149180885Y-89492718D01*
X149160762Y-89480703D01*
X149129031Y-89476635D01*
X149123586Y-89476580D01*
X149097931Y-89478355D01*
X149077102Y-89482888D01*
X149069828Y-89486309D01*
X149056607Y-89504305D01*
X149049627Y-89530851D01*
X149048897Y-89560627D01*
X149054428Y-89588310D01*
X149066228Y-89608577D01*
X149069597Y-89611463D01*
X149089703Y-89619246D01*
X149117209Y-89621796D01*
X149145980Y-89619409D01*
X149169880Y-89612386D01*
X149179280Y-89606120D01*
X149189135Y-89591436D01*
X149193735Y-89569979D01*
X149194520Y-89548970D01*
X149194520Y-89776034D01*
X149190808Y-89777805D01*
X149141594Y-89787346D01*
X149099270Y-89790509D01*
X148943060Y-89945600D01*
X148902079Y-89985836D01*
X148863617Y-90022749D01*
X148829256Y-90054885D01*
X148800578Y-90080793D01*
X148779163Y-90099023D01*
X148766594Y-90108121D01*
X148765399Y-90108675D01*
X148746362Y-90112570D01*
X148716132Y-90115197D01*
X148678425Y-90116594D01*
X148636957Y-90116801D01*
X148595445Y-90115855D01*
X148557604Y-90113795D01*
X148527150Y-90110659D01*
X148507800Y-90106487D01*
X148506570Y-90105993D01*
X148496206Y-90098481D01*
X148476358Y-90081251D01*
X148448230Y-90055448D01*
X148413025Y-90022217D01*
X148371948Y-89982705D01*
X148326203Y-89938056D01*
X148276993Y-89889416D01*
X148238255Y-89850723D01*
X147994459Y-89606120D01*
X147841810Y-89606120D01*
X147689161Y-89606120D01*
X147637931Y-89657746D01*
X147586700Y-89709372D01*
X147586700Y-89882536D01*
X147586700Y-90055700D01*
X147737195Y-90055678D01*
X147887690Y-90055656D01*
X147902930Y-90032341D01*
X147922326Y-90009837D01*
X147950717Y-89985345D01*
X147983041Y-89962762D01*
X148014237Y-89945986D01*
X148016163Y-89945165D01*
X148055013Y-89935310D01*
X148100431Y-89933551D01*
X148146267Y-89939586D01*
X148186371Y-89953112D01*
X148187343Y-89953591D01*
X148231771Y-89982137D01*
X148272261Y-90019963D01*
X148304006Y-90062324D01*
X148311752Y-90076503D01*
X148325040Y-90116748D01*
X148330602Y-90163914D01*
X148328414Y-90212093D01*
X148318454Y-90255378D01*
X148312505Y-90269562D01*
X148289011Y-90306149D01*
X148256355Y-90342619D01*
X148219561Y-90373954D01*
X148189182Y-90392616D01*
X148165820Y-90400398D01*
X148165820Y-90173810D01*
X148162754Y-90139615D01*
X148152185Y-90117558D01*
X148132062Y-90105543D01*
X148100331Y-90101475D01*
X148094886Y-90101420D01*
X148069231Y-90103195D01*
X148048402Y-90107728D01*
X148041128Y-90111149D01*
X148027907Y-90129145D01*
X148020927Y-90155691D01*
X148020197Y-90185467D01*
X148025728Y-90213150D01*
X148037528Y-90233417D01*
X148040897Y-90236303D01*
X148061003Y-90244086D01*
X148088509Y-90246636D01*
X148117280Y-90244249D01*
X148141180Y-90237226D01*
X148150580Y-90230960D01*
X148160435Y-90216276D01*
X148165035Y-90194819D01*
X148165820Y-90173810D01*
X148165820Y-90400398D01*
X148146263Y-90406912D01*
X148097660Y-90412798D01*
X148050111Y-90409826D01*
X148024800Y-90403572D01*
X147989860Y-90387662D01*
X147954246Y-90364849D01*
X147923185Y-90338921D01*
X147902930Y-90315279D01*
X147887690Y-90291964D01*
X147737195Y-90291942D01*
X147586700Y-90291920D01*
X147586700Y-90492149D01*
X147586700Y-90692379D01*
X147638326Y-90743609D01*
X147689952Y-90794840D01*
X147842206Y-90794840D01*
X147994459Y-90794840D01*
X148238255Y-90550237D01*
X148289283Y-90499341D01*
X148337757Y-90451572D01*
X148382472Y-90408073D01*
X148422224Y-90369991D01*
X148455809Y-90338471D01*
X148482024Y-90314659D01*
X148499663Y-90299700D01*
X148506570Y-90294967D01*
X148526377Y-90290076D01*
X148557554Y-90286587D01*
X148596296Y-90284500D01*
X148638795Y-90283815D01*
X148681248Y-90284532D01*
X148719849Y-90286652D01*
X148750791Y-90290174D01*
X148769950Y-90294957D01*
X148781620Y-90303043D01*
X148802292Y-90320536D01*
X148830337Y-90345926D01*
X148864123Y-90377701D01*
X148902021Y-90414352D01*
X148942398Y-90454368D01*
X148946799Y-90458787D01*
X149099127Y-90611960D01*
X149137707Y-90611960D01*
X149182054Y-90618929D01*
X149227370Y-90638360D01*
X149270514Y-90668042D01*
X149308342Y-90705763D01*
X149337713Y-90749309D01*
X149340452Y-90754683D01*
X149353740Y-90794928D01*
X149359302Y-90842094D01*
G36*
X147242057Y-90827021D02*
G01*
X147241454Y-90875796D01*
X147232170Y-90922946D01*
X147222576Y-90947742D01*
X147199415Y-90984127D01*
X147166912Y-91020594D01*
X147130084Y-91052112D01*
X147099522Y-91071065D01*
X147076160Y-91078681D01*
X147076160Y-90851990D01*
X147073093Y-90817795D01*
X147062525Y-90795738D01*
X147042402Y-90783723D01*
X147010671Y-90779655D01*
X147005226Y-90779600D01*
X146979571Y-90781375D01*
X146958742Y-90785908D01*
X146951468Y-90789329D01*
X146938247Y-90807325D01*
X146931267Y-90833871D01*
X146930537Y-90863647D01*
X146936068Y-90891330D01*
X146947868Y-90911597D01*
X146951238Y-90914483D01*
X146971343Y-90922266D01*
X146998849Y-90924816D01*
X147027620Y-90922429D01*
X147051520Y-90915406D01*
X147060920Y-90909140D01*
X147070775Y-90894456D01*
X147075375Y-90872999D01*
X147076160Y-90851990D01*
X147076160Y-91078681D01*
X147059719Y-91084041D01*
X147012735Y-91089235D01*
X146964475Y-91086672D01*
X146920850Y-91076373D01*
X146906463Y-91070312D01*
X146863301Y-91042247D01*
X146823304Y-91003753D01*
X146791119Y-90959570D01*
X146782835Y-90944204D01*
X146768288Y-90901365D01*
X146762474Y-90853759D01*
X146765683Y-90807372D01*
X146774649Y-90775862D01*
X146791220Y-90744163D01*
X146813769Y-90711285D01*
X146838444Y-90682253D01*
X146861396Y-90662092D01*
X146862301Y-90661490D01*
X146885616Y-90646250D01*
X146885638Y-90126185D01*
X146885660Y-89606120D01*
X146853219Y-89606120D01*
X146844486Y-89606327D01*
X146836286Y-89607644D01*
X146827402Y-89611112D01*
X146816618Y-89617775D01*
X146802714Y-89628673D01*
X146784476Y-89644850D01*
X146760683Y-89667347D01*
X146730121Y-89697208D01*
X146691571Y-89735473D01*
X146643816Y-89783186D01*
X146628429Y-89798580D01*
X146436080Y-89991040D01*
X146436102Y-90063375D01*
X146436267Y-90096999D01*
X146437354Y-90118842D01*
X146440283Y-90132361D01*
X146445977Y-90141015D01*
X146455356Y-90148263D01*
X146459439Y-90150950D01*
X146484862Y-90173062D01*
X146510698Y-90204597D01*
X146533162Y-90240331D01*
X146547732Y-90272820D01*
X146556257Y-90316481D01*
X146555654Y-90365256D01*
X146546370Y-90412406D01*
X146536776Y-90437202D01*
X146513615Y-90473587D01*
X146481112Y-90510053D01*
X146444284Y-90541572D01*
X146413722Y-90560524D01*
X146390360Y-90568141D01*
X146390360Y-90341450D01*
X146387293Y-90307255D01*
X146376725Y-90285198D01*
X146356602Y-90273183D01*
X146324871Y-90269115D01*
X146319426Y-90269060D01*
X146293771Y-90270835D01*
X146272942Y-90275368D01*
X146265668Y-90278789D01*
X146252447Y-90296785D01*
X146245467Y-90323331D01*
X146244737Y-90353107D01*
X146250268Y-90380790D01*
X146262068Y-90401057D01*
X146265438Y-90403943D01*
X146285543Y-90411726D01*
X146313049Y-90414276D01*
X146341820Y-90411889D01*
X146365720Y-90404866D01*
X146375120Y-90398600D01*
X146384975Y-90383916D01*
X146389575Y-90362459D01*
X146390360Y-90341450D01*
X146390360Y-90568141D01*
X146373919Y-90573501D01*
X146326935Y-90578695D01*
X146278675Y-90576132D01*
X146235050Y-90565833D01*
X146220664Y-90559772D01*
X146177501Y-90531707D01*
X146137504Y-90493213D01*
X146105319Y-90449030D01*
X146097035Y-90433664D01*
X146082488Y-90390825D01*
X146076674Y-90343219D01*
X146079883Y-90296832D01*
X146088849Y-90265322D01*
X146105420Y-90233623D01*
X146127969Y-90200745D01*
X146152644Y-90171713D01*
X146175596Y-90151552D01*
X146176501Y-90150950D01*
X146187306Y-90143405D01*
X146194120Y-90135600D01*
X146197864Y-90124078D01*
X146199460Y-90105379D01*
X146199828Y-90076046D01*
X146199838Y-90063375D01*
X146199860Y-89991040D01*
X146007511Y-89798580D01*
X145956924Y-89747999D01*
X145915887Y-89707160D01*
X145883183Y-89675022D01*
X145857594Y-89650543D01*
X145837904Y-89632679D01*
X145822895Y-89620390D01*
X145811350Y-89612632D01*
X145802051Y-89608364D01*
X145793781Y-89606543D01*
X145785323Y-89606127D01*
X145782721Y-89606120D01*
X145750280Y-89606120D01*
X145750302Y-90126185D01*
X145750324Y-90646250D01*
X145773639Y-90661490D01*
X145799062Y-90683602D01*
X145824898Y-90715137D01*
X145847362Y-90750871D01*
X145861932Y-90783360D01*
X145870457Y-90827021D01*
X145869854Y-90875796D01*
X145860570Y-90922946D01*
X145850976Y-90947742D01*
X145827756Y-90984213D01*
X145795205Y-91020694D01*
X145758367Y-91052136D01*
X145727922Y-91070900D01*
X145704560Y-91078751D01*
X145704560Y-90851990D01*
X145701493Y-90817795D01*
X145690925Y-90795738D01*
X145670802Y-90783723D01*
X145639071Y-90779655D01*
X145633626Y-90779600D01*
X145607971Y-90781375D01*
X145587142Y-90785908D01*
X145579868Y-90789329D01*
X145566647Y-90807325D01*
X145559667Y-90833871D01*
X145558937Y-90863647D01*
X145564468Y-90891330D01*
X145576268Y-90911597D01*
X145579638Y-90914483D01*
X145599743Y-90922266D01*
X145627249Y-90924816D01*
X145656020Y-90922429D01*
X145679920Y-90915406D01*
X145689320Y-90909140D01*
X145699175Y-90894456D01*
X145703775Y-90872999D01*
X145704560Y-90851990D01*
X145704560Y-91078751D01*
X145692292Y-91082874D01*
X145649536Y-91089290D01*
X145605917Y-91089784D01*
X145567697Y-91083993D01*
X145557674Y-91080770D01*
X145507807Y-91054326D01*
X145462449Y-91016044D01*
X145425000Y-90969288D01*
X145402823Y-90927577D01*
X145394731Y-90896138D01*
X145391648Y-90857049D01*
X145393564Y-90817051D01*
X145400468Y-90782885D01*
X145403049Y-90775862D01*
X145419620Y-90744163D01*
X145442169Y-90711285D01*
X145466844Y-90682253D01*
X145489796Y-90662092D01*
X145490701Y-90661490D01*
X145514016Y-90646250D01*
X145514038Y-90008075D01*
X145514060Y-89369900D01*
X145696444Y-89369900D01*
X145755251Y-89370240D01*
X145806650Y-89371214D01*
X145848798Y-89372748D01*
X145879855Y-89374771D01*
X145897979Y-89377211D01*
X145900279Y-89377880D01*
X145910473Y-89384977D01*
X145930018Y-89401654D01*
X145957561Y-89426643D01*
X145991748Y-89458674D01*
X146031224Y-89496481D01*
X146074637Y-89538795D01*
X146119904Y-89583621D01*
X146318079Y-89781383D01*
X146512335Y-89586304D01*
X146557938Y-89540887D01*
X146601097Y-89498625D01*
X146640422Y-89460823D01*
X146674523Y-89428791D01*
X146702009Y-89403835D01*
X146721491Y-89387264D01*
X146731110Y-89380563D01*
X146743272Y-89376940D01*
X146762130Y-89374172D01*
X146789393Y-89372172D01*
X146826768Y-89370852D01*
X146875961Y-89370123D01*
X146938679Y-89369900D01*
X146938755Y-89369900D01*
X147121880Y-89369900D01*
X147121902Y-90008075D01*
X147121924Y-90646250D01*
X147145239Y-90661490D01*
X147170662Y-90683602D01*
X147196498Y-90715137D01*
X147218962Y-90750871D01*
X147233532Y-90783360D01*
X147242057Y-90827021D01*
G37*
X147242057Y-90827021D02*
X147241454Y-90875796D01*
X147232170Y-90922946D01*
X147222576Y-90947742D01*
X147199415Y-90984127D01*
X147166912Y-91020594D01*
X147130084Y-91052112D01*
X147099522Y-91071065D01*
X147076160Y-91078681D01*
X147076160Y-90851990D01*
X147073093Y-90817795D01*
X147062525Y-90795738D01*
X147042402Y-90783723D01*
X147010671Y-90779655D01*
X147005226Y-90779600D01*
X146979571Y-90781375D01*
X146958742Y-90785908D01*
X146951468Y-90789329D01*
X146938247Y-90807325D01*
X146931267Y-90833871D01*
X146930537Y-90863647D01*
X146936068Y-90891330D01*
X146947868Y-90911597D01*
X146951238Y-90914483D01*
X146971343Y-90922266D01*
X146998849Y-90924816D01*
X147027620Y-90922429D01*
X147051520Y-90915406D01*
X147060920Y-90909140D01*
X147070775Y-90894456D01*
X147075375Y-90872999D01*
X147076160Y-90851990D01*
X147076160Y-91078681D01*
X147059719Y-91084041D01*
X147012735Y-91089235D01*
X146964475Y-91086672D01*
X146920850Y-91076373D01*
X146906463Y-91070312D01*
X146863301Y-91042247D01*
X146823304Y-91003753D01*
X146791119Y-90959570D01*
X146782835Y-90944204D01*
X146768288Y-90901365D01*
X146762474Y-90853759D01*
X146765683Y-90807372D01*
X146774649Y-90775862D01*
X146791220Y-90744163D01*
X146813769Y-90711285D01*
X146838444Y-90682253D01*
X146861396Y-90662092D01*
X146862301Y-90661490D01*
X146885616Y-90646250D01*
X146885638Y-90126185D01*
X146885660Y-89606120D01*
X146853219Y-89606120D01*
X146844486Y-89606327D01*
X146836286Y-89607644D01*
X146827402Y-89611112D01*
X146816618Y-89617775D01*
X146802714Y-89628673D01*
X146784476Y-89644850D01*
X146760683Y-89667347D01*
X146730121Y-89697208D01*
X146691571Y-89735473D01*
X146643816Y-89783186D01*
X146628429Y-89798580D01*
X146436080Y-89991040D01*
X146436102Y-90063375D01*
X146436267Y-90096999D01*
X146437354Y-90118842D01*
X146440283Y-90132361D01*
X146445977Y-90141015D01*
X146455356Y-90148263D01*
X146459439Y-90150950D01*
X146484862Y-90173062D01*
X146510698Y-90204597D01*
X146533162Y-90240331D01*
X146547732Y-90272820D01*
X146556257Y-90316481D01*
X146555654Y-90365256D01*
X146546370Y-90412406D01*
X146536776Y-90437202D01*
X146513615Y-90473587D01*
X146481112Y-90510053D01*
X146444284Y-90541572D01*
X146413722Y-90560524D01*
X146390360Y-90568141D01*
X146390360Y-90341450D01*
X146387293Y-90307255D01*
X146376725Y-90285198D01*
X146356602Y-90273183D01*
X146324871Y-90269115D01*
X146319426Y-90269060D01*
X146293771Y-90270835D01*
X146272942Y-90275368D01*
X146265668Y-90278789D01*
X146252447Y-90296785D01*
X146245467Y-90323331D01*
X146244737Y-90353107D01*
X146250268Y-90380790D01*
X146262068Y-90401057D01*
X146265438Y-90403943D01*
X146285543Y-90411726D01*
X146313049Y-90414276D01*
X146341820Y-90411889D01*
X146365720Y-90404866D01*
X146375120Y-90398600D01*
X146384975Y-90383916D01*
X146389575Y-90362459D01*
X146390360Y-90341450D01*
X146390360Y-90568141D01*
X146373919Y-90573501D01*
X146326935Y-90578695D01*
X146278675Y-90576132D01*
X146235050Y-90565833D01*
X146220664Y-90559772D01*
X146177501Y-90531707D01*
X146137504Y-90493213D01*
X146105319Y-90449030D01*
X146097035Y-90433664D01*
X146082488Y-90390825D01*
X146076674Y-90343219D01*
X146079883Y-90296832D01*
X146088849Y-90265322D01*
X146105420Y-90233623D01*
X146127969Y-90200745D01*
X146152644Y-90171713D01*
X146175596Y-90151552D01*
X146176501Y-90150950D01*
X146187306Y-90143405D01*
X146194120Y-90135600D01*
X146197864Y-90124078D01*
X146199460Y-90105379D01*
X146199828Y-90076046D01*
X146199838Y-90063375D01*
X146199860Y-89991040D01*
X146007511Y-89798580D01*
X145956924Y-89747999D01*
X145915887Y-89707160D01*
X145883183Y-89675022D01*
X145857594Y-89650543D01*
X145837904Y-89632679D01*
X145822895Y-89620390D01*
X145811350Y-89612632D01*
X145802051Y-89608364D01*
X145793781Y-89606543D01*
X145785323Y-89606127D01*
X145782721Y-89606120D01*
X145750280Y-89606120D01*
X145750302Y-90126185D01*
X145750324Y-90646250D01*
X145773639Y-90661490D01*
X145799062Y-90683602D01*
X145824898Y-90715137D01*
X145847362Y-90750871D01*
X145861932Y-90783360D01*
X145870457Y-90827021D01*
X145869854Y-90875796D01*
X145860570Y-90922946D01*
X145850976Y-90947742D01*
X145827756Y-90984213D01*
X145795205Y-91020694D01*
X145758367Y-91052136D01*
X145727922Y-91070900D01*
X145704560Y-91078751D01*
X145704560Y-90851990D01*
X145701493Y-90817795D01*
X145690925Y-90795738D01*
X145670802Y-90783723D01*
X145639071Y-90779655D01*
X145633626Y-90779600D01*
X145607971Y-90781375D01*
X145587142Y-90785908D01*
X145579868Y-90789329D01*
X145566647Y-90807325D01*
X145559667Y-90833871D01*
X145558937Y-90863647D01*
X145564468Y-90891330D01*
X145576268Y-90911597D01*
X145579638Y-90914483D01*
X145599743Y-90922266D01*
X145627249Y-90924816D01*
X145656020Y-90922429D01*
X145679920Y-90915406D01*
X145689320Y-90909140D01*
X145699175Y-90894456D01*
X145703775Y-90872999D01*
X145704560Y-90851990D01*
X145704560Y-91078751D01*
X145692292Y-91082874D01*
X145649536Y-91089290D01*
X145605917Y-91089784D01*
X145567697Y-91083993D01*
X145557674Y-91080770D01*
X145507807Y-91054326D01*
X145462449Y-91016044D01*
X145425000Y-90969288D01*
X145402823Y-90927577D01*
X145394731Y-90896138D01*
X145391648Y-90857049D01*
X145393564Y-90817051D01*
X145400468Y-90782885D01*
X145403049Y-90775862D01*
X145419620Y-90744163D01*
X145442169Y-90711285D01*
X145466844Y-90682253D01*
X145489796Y-90662092D01*
X145490701Y-90661490D01*
X145514016Y-90646250D01*
X145514038Y-90008075D01*
X145514060Y-89369900D01*
X145696444Y-89369900D01*
X145755251Y-89370240D01*
X145806650Y-89371214D01*
X145848798Y-89372748D01*
X145879855Y-89374771D01*
X145897979Y-89377211D01*
X145900279Y-89377880D01*
X145910473Y-89384977D01*
X145930018Y-89401654D01*
X145957561Y-89426643D01*
X145991748Y-89458674D01*
X146031224Y-89496481D01*
X146074637Y-89538795D01*
X146119904Y-89583621D01*
X146318079Y-89781383D01*
X146512335Y-89586304D01*
X146557938Y-89540887D01*
X146601097Y-89498625D01*
X146640422Y-89460823D01*
X146674523Y-89428791D01*
X146702009Y-89403835D01*
X146721491Y-89387264D01*
X146731110Y-89380563D01*
X146743272Y-89376940D01*
X146762130Y-89374172D01*
X146789393Y-89372172D01*
X146826768Y-89370852D01*
X146875961Y-89370123D01*
X146938679Y-89369900D01*
X146938755Y-89369900D01*
X147121880Y-89369900D01*
X147121902Y-90008075D01*
X147121924Y-90646250D01*
X147145239Y-90661490D01*
X147170662Y-90683602D01*
X147196498Y-90715137D01*
X147218962Y-90750871D01*
X147233532Y-90783360D01*
X147242057Y-90827021D01*
G36*
X145297842Y-90842094D02*
G01*
X145295654Y-90890273D01*
X145285694Y-90933558D01*
X145279745Y-90947742D01*
X145256207Y-90984381D01*
X145223461Y-91020932D01*
X145186560Y-91052350D01*
X145156422Y-91070900D01*
X145133060Y-91078740D01*
X145133060Y-90851990D01*
X145129993Y-90817795D01*
X145119425Y-90795738D01*
X145099302Y-90783723D01*
X145067571Y-90779655D01*
X145062126Y-90779600D01*
X145036471Y-90781375D01*
X145015642Y-90785908D01*
X145008368Y-90789329D01*
X144995147Y-90807325D01*
X144988167Y-90833871D01*
X144987437Y-90863647D01*
X144992968Y-90891330D01*
X145004768Y-90911597D01*
X145008138Y-90914483D01*
X145028243Y-90922266D01*
X145055749Y-90924816D01*
X145084520Y-90922429D01*
X145108420Y-90915406D01*
X145117820Y-90909140D01*
X145127675Y-90894456D01*
X145132275Y-90872999D01*
X145133060Y-90851990D01*
X145133060Y-91078740D01*
X145120446Y-91082973D01*
X145077351Y-91089359D01*
X145033433Y-91089700D01*
X144994990Y-91083637D01*
X144985730Y-91080617D01*
X144954232Y-91065013D01*
X144921103Y-91042825D01*
X144891560Y-91017987D01*
X144870817Y-90994432D01*
X144870170Y-90993459D01*
X144854930Y-90970144D01*
X144692760Y-90970122D01*
X144633492Y-90969844D01*
X144587586Y-90968956D01*
X144553176Y-90967349D01*
X144528391Y-90964914D01*
X144511363Y-90961544D01*
X144504445Y-90959176D01*
X144489116Y-90949540D01*
X144465862Y-90930971D01*
X144436949Y-90905670D01*
X144404643Y-90875840D01*
X144371208Y-90843686D01*
X144338910Y-90811409D01*
X144310015Y-90781213D01*
X144286788Y-90755300D01*
X144271495Y-90735874D01*
X144267136Y-90728410D01*
X144265273Y-90721664D01*
X144263637Y-90710195D01*
X144262213Y-90693117D01*
X144260988Y-90669543D01*
X144259951Y-90638586D01*
X144259086Y-90599358D01*
X144258381Y-90550974D01*
X144257822Y-90492546D01*
X144257397Y-90423186D01*
X144257091Y-90342009D01*
X144256892Y-90248128D01*
X144256787Y-90140654D01*
X144256760Y-90036895D01*
X144256760Y-89369900D01*
X144374870Y-89369900D01*
X144492980Y-89369900D01*
X144492980Y-90000659D01*
X144492980Y-90631419D01*
X144544606Y-90682649D01*
X144596232Y-90733880D01*
X144725581Y-90733858D01*
X144854930Y-90733836D01*
X144870170Y-90710521D01*
X144889566Y-90688018D01*
X144917957Y-90663525D01*
X144950281Y-90640942D01*
X144981477Y-90624166D01*
X144983403Y-90623345D01*
X145022253Y-90613490D01*
X145067671Y-90611731D01*
X145113507Y-90617766D01*
X145153611Y-90631292D01*
X145154583Y-90631771D01*
X145199011Y-90660317D01*
X145239501Y-90698143D01*
X145271246Y-90740504D01*
X145278992Y-90754683D01*
X145292280Y-90794928D01*
X145297842Y-90842094D01*
G37*
X145297842Y-90842094D02*
X145295654Y-90890273D01*
X145285694Y-90933558D01*
X145279745Y-90947742D01*
X145256207Y-90984381D01*
X145223461Y-91020932D01*
X145186560Y-91052350D01*
X145156422Y-91070900D01*
X145133060Y-91078740D01*
X145133060Y-90851990D01*
X145129993Y-90817795D01*
X145119425Y-90795738D01*
X145099302Y-90783723D01*
X145067571Y-90779655D01*
X145062126Y-90779600D01*
X145036471Y-90781375D01*
X145015642Y-90785908D01*
X145008368Y-90789329D01*
X144995147Y-90807325D01*
X144988167Y-90833871D01*
X144987437Y-90863647D01*
X144992968Y-90891330D01*
X145004768Y-90911597D01*
X145008138Y-90914483D01*
X145028243Y-90922266D01*
X145055749Y-90924816D01*
X145084520Y-90922429D01*
X145108420Y-90915406D01*
X145117820Y-90909140D01*
X145127675Y-90894456D01*
X145132275Y-90872999D01*
X145133060Y-90851990D01*
X145133060Y-91078740D01*
X145120446Y-91082973D01*
X145077351Y-91089359D01*
X145033433Y-91089700D01*
X144994990Y-91083637D01*
X144985730Y-91080617D01*
X144954232Y-91065013D01*
X144921103Y-91042825D01*
X144891560Y-91017987D01*
X144870817Y-90994432D01*
X144870170Y-90993459D01*
X144854930Y-90970144D01*
X144692760Y-90970122D01*
X144633492Y-90969844D01*
X144587586Y-90968956D01*
X144553176Y-90967349D01*
X144528391Y-90964914D01*
X144511363Y-90961544D01*
X144504445Y-90959176D01*
X144489116Y-90949540D01*
X144465862Y-90930971D01*
X144436949Y-90905670D01*
X144404643Y-90875840D01*
X144371208Y-90843686D01*
X144338910Y-90811409D01*
X144310015Y-90781213D01*
X144286788Y-90755300D01*
X144271495Y-90735874D01*
X144267136Y-90728410D01*
X144265273Y-90721664D01*
X144263637Y-90710195D01*
X144262213Y-90693117D01*
X144260988Y-90669543D01*
X144259951Y-90638586D01*
X144259086Y-90599358D01*
X144258381Y-90550974D01*
X144257822Y-90492546D01*
X144257397Y-90423186D01*
X144257091Y-90342009D01*
X144256892Y-90248128D01*
X144256787Y-90140654D01*
X144256760Y-90036895D01*
X144256760Y-89369900D01*
X144374870Y-89369900D01*
X144492980Y-89369900D01*
X144492980Y-90000659D01*
X144492980Y-90631419D01*
X144544606Y-90682649D01*
X144596232Y-90733880D01*
X144725581Y-90733858D01*
X144854930Y-90733836D01*
X144870170Y-90710521D01*
X144889566Y-90688018D01*
X144917957Y-90663525D01*
X144950281Y-90640942D01*
X144981477Y-90624166D01*
X144983403Y-90623345D01*
X145022253Y-90613490D01*
X145067671Y-90611731D01*
X145113507Y-90617766D01*
X145153611Y-90631292D01*
X145154583Y-90631771D01*
X145199011Y-90660317D01*
X145239501Y-90698143D01*
X145271246Y-90740504D01*
X145278992Y-90754683D01*
X145292280Y-90794928D01*
X145297842Y-90842094D01*
D12*
X136910000Y-77712000D02*
X136910000Y-88912000D01*
X150110000Y-88912000D02*
X150110000Y-77712000D01*
X150110000Y-77712000D02*
X136910000Y-77712000D01*
X150110000Y-88912000D02*
X136910000Y-88912000D01*
X150110000Y-72312000D02*
X136910000Y-72312000D01*
X150110000Y-72312000D02*
X150110000Y-77712000D01*
X136910000Y-72312000D02*
X136910000Y-77712000D01*
X132943600Y-99839780D02*
X132943600Y-105887520D01*
X132943600Y-105887520D02*
X137459720Y-105887520D01*
X137459720Y-105887520D02*
X137459720Y-99852480D01*
X137459720Y-99852480D02*
X132966460Y-99852480D01*
X135001000Y-107797599D02*
X135001000Y-106756199D01*
X135166100Y-106870499D02*
X135166100Y-107695999D01*
X135013700Y-107835699D02*
X135153400Y-107708699D01*
X135013700Y-106743499D02*
X135166100Y-106870499D01*
D15*
X133574800Y-107539599D02*
X133444800Y-107649599D01*
X133434800Y-107669599D02*
X133514800Y-107659599D01*
X133434800Y-107669599D02*
X133434800Y-107589599D01*
X133650200Y-107669599D02*
X133650200Y-107589599D01*
X133650200Y-107669599D02*
X133730200Y-107659599D01*
X133781800Y-107560599D02*
X133651800Y-107670599D01*
D16*
X133704000Y-107204999D02*
X133704000Y-107424999D01*
X133514000Y-107424999D02*
X133614000Y-107324999D01*
X133514000Y-107204999D02*
X133624000Y-107304999D01*
X133514000Y-107204999D02*
X133514000Y-107424999D01*
X133344000Y-107314999D02*
X133864000Y-107314999D01*
D10*
X133985000Y-106679999D02*
X135001000Y-106679999D01*
X135001000Y-107899199D02*
X133985000Y-107899199D01*
D12*
X146050000Y-100457000D02*
X146050000Y-99441000D01*
X144526000Y-100457000D02*
X144526000Y-99441000D01*
X139192000Y-97104200D02*
X139192000Y-97815400D01*
X140030200Y-97815400D02*
X139192000Y-97815400D01*
X140030200Y-94970600D02*
X139192000Y-94970600D01*
X139192000Y-94970600D02*
X139192000Y-95681800D01*
D17*
X147459000Y-99799000D02*
X147109000Y-99799000D01*
X148959000Y-99799000D02*
X149309000Y-99799000D01*
D12*
X149709000Y-99749000D02*
X149709000Y-100149000D01*
X146709000Y-99749000D02*
X146709000Y-100149000D01*
D17*
X148459000Y-99849000D02*
G75*
G02*
X147959000Y-99849000I-250000J0D01*
G01*
X148959000Y-99849000D02*
G75*
G02*
X148459000Y-99849000I-250000J0D01*
G01*
X147959000Y-99849000D02*
G75*
G02*
X147459000Y-99849000I-250000J0D01*
G01*
D12*
X142290800Y-99809300D02*
X141160500Y-99809300D01*
X142290800Y-102616000D02*
X141160500Y-102616000D01*
X148183600Y-103111300D02*
X145707100Y-103111300D01*
X147599400Y-104063800D02*
X146227800Y-103149400D01*
X146227800Y-103149400D02*
X147599400Y-102158800D01*
X146227800Y-104063800D02*
X146227800Y-102158800D01*
X147599400Y-104063800D02*
X147599400Y-102158800D01*
X146050000Y-104063800D02*
X146050000Y-102158800D01*
X146227800Y-102158800D02*
X146050000Y-102158800D01*
X146227800Y-104063800D02*
X146050000Y-104063800D01*
X147447000Y-102362000D02*
X147447000Y-103886000D01*
X147320000Y-103759000D02*
X147320000Y-102489000D01*
X147193000Y-102616000D02*
X147193000Y-103759000D01*
X147066000Y-103505000D02*
X147066000Y-102616000D01*
X146939000Y-103505000D02*
X146939000Y-102743000D01*
X146812000Y-103378000D02*
X146812000Y-102743000D01*
X146685000Y-103251000D02*
X146685000Y-102870000D01*
X142887700Y-97129600D02*
X142887700Y-94653100D01*
X141935200Y-96545400D02*
X142849600Y-95173800D01*
X142849600Y-95173800D02*
X143840200Y-96545400D01*
X141935200Y-95173800D02*
X143840200Y-95173800D01*
X141935200Y-96545400D02*
X143840200Y-96545400D01*
X141935200Y-94996000D02*
X143840200Y-94996000D01*
X143840200Y-95173800D02*
X143840200Y-94996000D01*
X141935200Y-95173800D02*
X141935200Y-94996000D01*
X143637000Y-96393000D02*
X142113000Y-96393000D01*
X142240000Y-96266000D02*
X143510000Y-96266000D01*
X143383000Y-96139000D02*
X142240000Y-96139000D01*
X142494000Y-96012000D02*
X143383000Y-96012000D01*
X142494000Y-95885000D02*
X143256000Y-95885000D01*
X142621000Y-95758000D02*
X143256000Y-95758000D01*
X142748000Y-95631000D02*
X143129000Y-95631000D01*
X142240000Y-102616000D02*
X141224000Y-102616000D01*
X142240000Y-104140000D02*
X141224000Y-104140000D01*
X138938000Y-91186000D02*
X139954000Y-91186000D01*
X138938000Y-89662000D02*
X139954000Y-89662000D01*
X140716000Y-99504500D02*
X140970000Y-99504500D01*
X140716000Y-99504500D02*
X140462000Y-99504500D01*
X140716000Y-98615500D02*
X140462000Y-98615500D01*
X140716000Y-98615500D02*
X140970000Y-98615500D01*
X136271000Y-106870500D02*
X136017000Y-106870500D01*
X136271000Y-106870500D02*
X136525000Y-106870500D01*
X136271000Y-107759500D02*
X136525000Y-107759500D01*
X136271000Y-107759500D02*
X136017000Y-107759500D01*
X142621000Y-98615500D02*
X142367000Y-98615500D01*
X142621000Y-98615500D02*
X142875000Y-98615500D01*
X142621000Y-99504500D02*
X142875000Y-99504500D01*
X142621000Y-99504500D02*
X142367000Y-99504500D01*
X151193500Y-95631000D02*
X151193500Y-95885000D01*
X151193500Y-95631000D02*
X151193500Y-95377000D01*
X152082500Y-95631000D02*
X152082500Y-95377000D01*
X152082500Y-95631000D02*
X152082500Y-95885000D01*
X151193500Y-99949000D02*
X151193500Y-100203000D01*
X151193500Y-99949000D02*
X151193500Y-99695000D01*
X152082500Y-99949000D02*
X152082500Y-99695000D01*
X152082500Y-99949000D02*
X152082500Y-100203000D01*
X151193500Y-97917000D02*
X151193500Y-98171000D01*
X151193500Y-97917000D02*
X151193500Y-97663000D01*
X152082500Y-97917000D02*
X152082500Y-97663000D01*
X152082500Y-97917000D02*
X152082500Y-98171000D01*
X145097500Y-95758000D02*
X145097500Y-95504000D01*
X145097500Y-95758000D02*
X145097500Y-96012000D01*
X144208500Y-95758000D02*
X144208500Y-96012000D01*
X144208500Y-95758000D02*
X144208500Y-95504000D01*
X144208500Y-93853000D02*
X144208500Y-94107000D01*
X144208500Y-93853000D02*
X144208500Y-93599000D01*
X145097500Y-93853000D02*
X145097500Y-93599000D01*
X145097500Y-93853000D02*
X145097500Y-94107000D01*
X139065000Y-92138500D02*
X139319000Y-92138500D01*
X139065000Y-92138500D02*
X138811000Y-92138500D01*
X139065000Y-91249500D02*
X138811000Y-91249500D01*
X139065000Y-91249500D02*
X139319000Y-91249500D01*
X153416000Y-105600500D02*
X153162000Y-105600500D01*
X153416000Y-105600500D02*
X153670000Y-105600500D01*
X153416000Y-106489500D02*
X153670000Y-106489500D01*
X153416000Y-106489500D02*
X153162000Y-106489500D01*
X151193500Y-103759000D02*
X151193500Y-104013000D01*
X151193500Y-103759000D02*
X151193500Y-103505000D01*
X152082500Y-103759000D02*
X152082500Y-103505000D01*
X152082500Y-103759000D02*
X152082500Y-104013000D01*
X152971500Y-93472000D02*
X152971500Y-93218000D01*
X152971500Y-93472000D02*
X152971500Y-93726000D01*
X152082500Y-93472000D02*
X152082500Y-93726000D01*
X152082500Y-93472000D02*
X152082500Y-93218000D01*
X147320000Y-91567001D02*
X146304000Y-91567001D01*
X147320000Y-93091001D02*
X146304000Y-93091001D01*
X134239000Y-87630000D02*
X133223000Y-87630000D01*
X134239000Y-86106000D02*
X133223000Y-86106000D01*
X133731000Y-85026500D02*
X133985000Y-85026500D01*
X133731000Y-85026500D02*
X133477000Y-85026500D01*
X133731000Y-85915500D02*
X133477000Y-85915500D01*
X133731000Y-85915500D02*
X133985000Y-85915500D01*
X137355000Y-99465000D02*
X134155000Y-99465000D01*
X137355000Y-89765000D02*
X137355000Y-99465000D01*
X134155000Y-89765000D02*
X137355000Y-89765000D01*
X134155000Y-99465000D02*
X134155000Y-89765000D01*
D10*
X152019000Y-106730800D02*
X153035000Y-106730800D01*
X153035000Y-107950000D02*
X152019000Y-107950000D01*
D16*
X153676000Y-107315000D02*
X153156000Y-107315000D01*
X153506000Y-107425000D02*
X153506000Y-107205000D01*
X153506000Y-107425000D02*
X153396000Y-107325000D01*
X153506000Y-107205000D02*
X153406000Y-107305000D01*
X153316000Y-107425000D02*
X153316000Y-107205000D01*
D15*
X153238200Y-107069400D02*
X153368200Y-106959400D01*
X153369800Y-106960400D02*
X153289800Y-106970400D01*
X153369800Y-106960400D02*
X153369800Y-107040400D01*
X153585200Y-106960400D02*
X153585200Y-107040400D01*
X153585200Y-106960400D02*
X153505200Y-106970400D01*
X153445200Y-107090400D02*
X153575200Y-106980400D01*
D12*
X152006300Y-107886500D02*
X151853900Y-107759500D01*
X152006300Y-106794300D02*
X151866600Y-106921300D01*
X151853900Y-107759500D02*
X151853900Y-106934000D01*
X152019000Y-106832400D02*
X152019000Y-107873800D01*
X148082000Y-105918000D02*
X147066000Y-105918000D01*
X148082000Y-104394000D02*
X147066000Y-104394000D01*
X141224000Y-105918000D02*
X142240000Y-105918000D01*
X141224000Y-104394000D02*
X142240000Y-104394000D01*
X133731000Y-87820500D02*
X133985000Y-87820500D01*
X133731000Y-87820500D02*
X133477000Y-87820500D01*
X133731000Y-88709500D02*
X133477000Y-88709500D01*
X133731000Y-88709500D02*
X133985000Y-88709500D01*
X152027000Y-85657000D02*
X153027000Y-85657000D01*
X152027000Y-89857000D02*
X153027000Y-89857000D01*
X150827000Y-89857000D02*
X150927000Y-89857000D01*
X150827000Y-85657000D02*
X150827000Y-89857000D01*
X150927000Y-85657000D02*
X150827000Y-85657000D01*
X154227000Y-85657000D02*
X154127000Y-85657000D01*
X154227000Y-89857000D02*
X154127000Y-89857000D01*
X154227000Y-85657000D02*
X154227000Y-89857000D01*
X148209000Y-94691199D02*
X148209000Y-95821499D01*
X145402300Y-94691199D02*
X145402300Y-95821499D01*
D10*
X141049000Y-108502000D02*
X141149000Y-108752000D01*
X141049000Y-108502000D02*
X140949000Y-108752000D01*
X141049000Y-109252000D02*
X141049000Y-108502000D01*
X141999000Y-108502000D02*
X142099000Y-108752000D01*
X141999000Y-108502000D02*
X141899000Y-108752000D01*
X142649000Y-108502000D02*
X142749000Y-108752000D01*
X141999000Y-109252000D02*
X141999000Y-108502000D01*
X142649000Y-111002000D02*
X142649000Y-108502000D01*
X142649000Y-108502000D02*
X142549000Y-108752000D01*
X143149000Y-109252000D02*
X143149000Y-108502000D01*
X143649000Y-111002000D02*
X143649000Y-108502000D01*
X143649000Y-108502000D02*
X143549000Y-108752000D01*
X143149000Y-108502000D02*
X143249000Y-108752000D01*
X143649000Y-108502000D02*
X143749000Y-108752000D01*
X143149000Y-108502000D02*
X143049000Y-108752000D01*
X144149000Y-109252000D02*
X144149000Y-108502000D01*
X144149000Y-108502000D02*
X144049000Y-108752000D01*
X144149000Y-108502000D02*
X144249000Y-108752000D01*
X144649000Y-111002000D02*
X144649000Y-108502000D01*
X144649000Y-108502000D02*
X144749000Y-108752000D01*
X144649000Y-108502000D02*
X144549000Y-108752000D01*
X145149000Y-108502000D02*
X145249000Y-108752000D01*
X145149000Y-109252000D02*
X145149000Y-108502000D01*
X145149000Y-108502000D02*
X145049000Y-108752000D01*
X145649000Y-108502000D02*
X145749000Y-108752000D01*
X145649000Y-111002000D02*
X145649000Y-108502000D01*
X145649000Y-108502000D02*
X145549000Y-108752000D01*
X147749000Y-108502000D02*
X147849000Y-108752000D01*
X147749000Y-109252000D02*
X147749000Y-108502000D01*
X147749000Y-108502000D02*
X147649000Y-108752000D01*
X146799000Y-108502000D02*
X146899000Y-108752000D01*
X146799000Y-108502000D02*
X146699000Y-108752000D01*
X146149000Y-108502000D02*
X146049000Y-108752000D01*
X146149000Y-108502000D02*
X146249000Y-108752000D01*
X146799000Y-108502000D02*
X146799000Y-109252000D01*
X146149000Y-109252000D02*
X146149000Y-108502000D01*
D12*
X139929000Y-113702000D02*
X139929000Y-115570000D01*
X148869000Y-115570000D02*
X148869000Y-113702000D01*
X139929000Y-115570000D02*
X148869000Y-115570000D01*
X148869000Y-109702000D02*
X148869000Y-111002000D01*
X139929000Y-109702000D02*
X139929000Y-111002000D01*
X151193500Y-91567000D02*
X151193500Y-91821000D01*
X151193500Y-91567000D02*
X151193500Y-91313000D01*
X152082500Y-91567000D02*
X152082500Y-91313000D01*
X152082500Y-91567000D02*
X152082500Y-91821000D01*
D13*
X150839714Y-93599000D02*
X150476857Y-93853000D01*
X150839714Y-94034428D02*
X150077714Y-94034428D01*
X150077714Y-93744142D01*
X150114000Y-93671571D01*
X150150285Y-93635285D01*
X150222857Y-93599000D01*
X150331714Y-93599000D01*
X150404285Y-93635285D01*
X150440571Y-93671571D01*
X150476857Y-93744142D01*
X150476857Y-94034428D01*
X150077714Y-93345000D02*
X150077714Y-92837000D01*
X150839714Y-93163571D01*
D12*
X134099904Y-77929619D02*
X134099904Y-78752095D01*
X134148285Y-78848857D01*
X134196666Y-78897238D01*
X134293428Y-78945619D01*
X134486952Y-78945619D01*
X134583714Y-78897238D01*
X134632095Y-78848857D01*
X134680476Y-78752095D01*
X134680476Y-77929619D01*
X135067523Y-77929619D02*
X135696476Y-77929619D01*
X135357809Y-78316666D01*
X135502952Y-78316666D01*
X135599714Y-78365047D01*
X135648095Y-78413428D01*
X135696476Y-78510190D01*
X135696476Y-78752095D01*
X135648095Y-78848857D01*
X135599714Y-78897238D01*
X135502952Y-78945619D01*
X135212666Y-78945619D01*
X135115904Y-78897238D01*
X135067523Y-78848857D01*
X140389428Y-75281333D02*
X140873238Y-75281333D01*
X140292666Y-75571619D02*
X140631333Y-74555619D01*
X140970000Y-75571619D01*
X141308666Y-75571619D02*
X141308666Y-74555619D01*
X141889238Y-75571619D01*
X141889238Y-74555619D01*
X142227904Y-74555619D02*
X142808476Y-74555619D01*
X142518190Y-75571619D02*
X142518190Y-74555619D01*
X143147142Y-75039428D02*
X143485809Y-75039428D01*
X143630952Y-75571619D02*
X143147142Y-75571619D01*
X143147142Y-74555619D01*
X143630952Y-74555619D01*
X144066380Y-75571619D02*
X144066380Y-74555619D01*
X144646952Y-75571619D01*
X144646952Y-74555619D01*
X145130761Y-75571619D02*
X145130761Y-74555619D01*
X145711333Y-75571619D01*
X145711333Y-74555619D01*
X146146761Y-75281333D02*
X146630571Y-75281333D01*
X146050000Y-75571619D02*
X146388666Y-74555619D01*
X146727333Y-75571619D01*
D18*
X138366500Y-103949500D02*
X138408833Y-103822500D01*
X138451166Y-103780166D01*
X138535833Y-103737833D01*
X138662833Y-103737833D01*
X138747500Y-103780166D01*
X138789833Y-103822500D01*
X138832166Y-103907166D01*
X138832166Y-104245833D01*
X137943166Y-104245833D01*
X137943166Y-103949500D01*
X137985500Y-103864833D01*
X138027833Y-103822500D01*
X138112500Y-103780166D01*
X138197166Y-103780166D01*
X138281833Y-103822500D01*
X138324166Y-103864833D01*
X138366500Y-103949500D01*
X138366500Y-104245833D01*
X138578166Y-103399166D02*
X138578166Y-102975833D01*
X138832166Y-103483833D02*
X137943166Y-103187500D01*
X138832166Y-102891166D01*
X137943166Y-102721833D02*
X137943166Y-102213833D01*
X138832166Y-102467833D02*
X137943166Y-102467833D01*
X138832166Y-101451833D02*
X138832166Y-101959833D01*
X138832166Y-101705833D02*
X137943166Y-101705833D01*
X138070166Y-101790500D01*
X138154833Y-101875166D01*
X138197166Y-101959833D01*
D13*
X135853714Y-100239285D02*
X135853714Y-100674714D01*
X135853714Y-100457000D02*
X135091714Y-100457000D01*
X135200571Y-100529571D01*
X135273142Y-100602142D01*
X135309428Y-100674714D01*
X135164285Y-105500714D02*
X135128000Y-105464428D01*
X135091714Y-105391857D01*
X135091714Y-105210428D01*
X135128000Y-105137857D01*
X135164285Y-105101571D01*
X135236857Y-105065285D01*
X135309428Y-105065285D01*
X135418285Y-105101571D01*
X135853714Y-105537000D01*
X135853714Y-105065285D01*
X131027714Y-108984142D02*
X130991428Y-109020428D01*
X130882571Y-109056714D01*
X130810000Y-109056714D01*
X130701142Y-109020428D01*
X130628571Y-108947857D01*
X130592285Y-108875285D01*
X130556000Y-108730142D01*
X130556000Y-108621285D01*
X130592285Y-108476142D01*
X130628571Y-108403571D01*
X130701142Y-108331000D01*
X130810000Y-108294714D01*
X130882571Y-108294714D01*
X130991428Y-108331000D01*
X131027714Y-108367285D01*
X131354285Y-109056714D02*
X131354285Y-108294714D01*
X131354285Y-108657571D02*
X131789714Y-108657571D01*
X131789714Y-109056714D02*
X131789714Y-108294714D01*
X132116285Y-108839000D02*
X132479142Y-108839000D01*
X132043714Y-109056714D02*
X132297714Y-108294714D01*
X132551714Y-109056714D01*
X133241142Y-109056714D02*
X132987142Y-108693857D01*
X132805714Y-109056714D02*
X132805714Y-108294714D01*
X133096000Y-108294714D01*
X133168571Y-108331000D01*
X133204857Y-108367285D01*
X133241142Y-108439857D01*
X133241142Y-108548714D01*
X133204857Y-108621285D01*
X133168571Y-108657571D01*
X133096000Y-108693857D01*
X132805714Y-108693857D01*
X133966857Y-108331000D02*
X133894285Y-108294714D01*
X133785428Y-108294714D01*
X133676571Y-108331000D01*
X133604000Y-108403571D01*
X133567714Y-108476142D01*
X133531428Y-108621285D01*
X133531428Y-108730142D01*
X133567714Y-108875285D01*
X133604000Y-108947857D01*
X133676571Y-109020428D01*
X133785428Y-109056714D01*
X133858000Y-109056714D01*
X133966857Y-109020428D01*
X134003142Y-108984142D01*
X134003142Y-108730142D01*
X133858000Y-108730142D01*
X134329714Y-109056714D02*
X134329714Y-108294714D01*
X134692571Y-109056714D02*
X134692571Y-108294714D01*
X135128000Y-109056714D01*
X135128000Y-108294714D01*
X135890000Y-108331000D02*
X135817428Y-108294714D01*
X135708571Y-108294714D01*
X135599714Y-108331000D01*
X135527142Y-108403571D01*
X135490857Y-108476142D01*
X135454571Y-108621285D01*
X135454571Y-108730142D01*
X135490857Y-108875285D01*
X135527142Y-108947857D01*
X135599714Y-109020428D01*
X135708571Y-109056714D01*
X135781142Y-109056714D01*
X135890000Y-109020428D01*
X135926285Y-108984142D01*
X135926285Y-108730142D01*
X135781142Y-108730142D01*
X136652000Y-109056714D02*
X136216571Y-109056714D01*
X136434285Y-109056714D02*
X136434285Y-108294714D01*
X136361714Y-108403571D01*
X136289142Y-108476142D01*
X136216571Y-108512428D01*
D11*
X144498785Y-101324833D02*
X144529023Y-101355071D01*
X144559261Y-101445785D01*
X144559261Y-101506261D01*
X144529023Y-101596976D01*
X144468547Y-101657452D01*
X144408071Y-101687690D01*
X144287119Y-101717928D01*
X144196404Y-101717928D01*
X144075452Y-101687690D01*
X144014976Y-101657452D01*
X143954500Y-101596976D01*
X143924261Y-101506261D01*
X143924261Y-101445785D01*
X143954500Y-101355071D01*
X143984738Y-101324833D01*
X144135928Y-100780547D02*
X144559261Y-100780547D01*
X143894023Y-100931738D02*
X144347595Y-101082928D01*
X144347595Y-100689833D01*
D13*
X138811000Y-94179571D02*
X138557000Y-94179571D01*
X138557000Y-94578714D02*
X138557000Y-93816714D01*
X138919857Y-93816714D01*
X139210142Y-94179571D02*
X139464142Y-94179571D01*
X139573000Y-94578714D02*
X139210142Y-94578714D01*
X139210142Y-93816714D01*
X139573000Y-93816714D01*
X139790714Y-93816714D02*
X140226142Y-93816714D01*
X140008428Y-94578714D02*
X140008428Y-93816714D01*
X140879285Y-94578714D02*
X140443857Y-94578714D01*
X140661571Y-94578714D02*
X140661571Y-93816714D01*
X140589000Y-93925571D01*
X140516428Y-93998142D01*
X140443857Y-94034428D01*
X149315714Y-97282000D02*
X149315714Y-97644857D01*
X148553714Y-97644857D01*
X149315714Y-96628857D02*
X149315714Y-97064285D01*
X149315714Y-96846571D02*
X148553714Y-96846571D01*
X148662571Y-96919142D01*
X148735142Y-96991714D01*
X148771428Y-97064285D01*
D11*
X142908261Y-101702809D02*
X143422309Y-101702809D01*
X143482785Y-101672571D01*
X143513023Y-101642333D01*
X143543261Y-101581857D01*
X143543261Y-101460904D01*
X143513023Y-101400428D01*
X143482785Y-101370190D01*
X143422309Y-101339952D01*
X142908261Y-101339952D01*
X143543261Y-100704952D02*
X143543261Y-101067809D01*
X143543261Y-100886380D02*
X142908261Y-100886380D01*
X142998976Y-100946857D01*
X143059452Y-101007333D01*
X143089690Y-101067809D01*
D13*
X149678571Y-103468714D02*
X149678571Y-102706714D01*
X149860000Y-102706714D01*
X149968857Y-102743000D01*
X150041428Y-102815571D01*
X150077714Y-102888142D01*
X150114000Y-103033285D01*
X150114000Y-103142142D01*
X150077714Y-103287285D01*
X150041428Y-103359857D01*
X149968857Y-103432428D01*
X149860000Y-103468714D01*
X149678571Y-103468714D01*
X150839714Y-103468714D02*
X150404285Y-103468714D01*
X150622000Y-103468714D02*
X150622000Y-102706714D01*
X150549428Y-102815571D01*
X150476857Y-102888142D01*
X150404285Y-102924428D01*
X142711714Y-93145428D02*
X141949714Y-93145428D01*
X141949714Y-92964000D01*
X141986000Y-92855142D01*
X142058571Y-92782571D01*
X142131142Y-92746285D01*
X142276285Y-92710000D01*
X142385142Y-92710000D01*
X142530285Y-92746285D01*
X142602857Y-92782571D01*
X142675428Y-92855142D01*
X142711714Y-92964000D01*
X142711714Y-93145428D01*
X142022285Y-92419714D02*
X141986000Y-92383428D01*
X141949714Y-92310857D01*
X141949714Y-92129428D01*
X141986000Y-92056857D01*
X142022285Y-92020571D01*
X142094857Y-91984285D01*
X142167428Y-91984285D01*
X142276285Y-92020571D01*
X142711714Y-92456000D01*
X142711714Y-91984285D01*
X144099642Y-103505000D02*
X144135928Y-103541285D01*
X144172214Y-103650142D01*
X144172214Y-103722714D01*
X144135928Y-103831571D01*
X144063357Y-103904142D01*
X143990785Y-103940428D01*
X143845642Y-103976714D01*
X143736785Y-103976714D01*
X143591642Y-103940428D01*
X143519071Y-103904142D01*
X143446500Y-103831571D01*
X143410214Y-103722714D01*
X143410214Y-103650142D01*
X143446500Y-103541285D01*
X143482785Y-103505000D01*
X144172214Y-102779285D02*
X144172214Y-103214714D01*
X144172214Y-102997000D02*
X143410214Y-102997000D01*
X143519071Y-103069571D01*
X143591642Y-103142142D01*
X143627928Y-103214714D01*
X141732000Y-91077142D02*
X141695714Y-91113428D01*
X141586857Y-91149714D01*
X141514285Y-91149714D01*
X141405428Y-91113428D01*
X141332857Y-91040857D01*
X141296571Y-90968285D01*
X141260285Y-90823142D01*
X141260285Y-90714285D01*
X141296571Y-90569142D01*
X141332857Y-90496571D01*
X141405428Y-90424000D01*
X141514285Y-90387714D01*
X141586857Y-90387714D01*
X141695714Y-90424000D01*
X141732000Y-90460285D01*
X141986000Y-90387714D02*
X142494000Y-90387714D01*
X142167428Y-91149714D01*
X138557000Y-99404714D02*
X138303000Y-99041857D01*
X138121571Y-99404714D02*
X138121571Y-98642714D01*
X138411857Y-98642714D01*
X138484428Y-98679000D01*
X138520714Y-98715285D01*
X138557000Y-98787857D01*
X138557000Y-98896714D01*
X138520714Y-98969285D01*
X138484428Y-99005571D01*
X138411857Y-99041857D01*
X138121571Y-99041857D01*
X139282714Y-99404714D02*
X138847285Y-99404714D01*
X139065000Y-99404714D02*
X139065000Y-98642714D01*
X138992428Y-98751571D01*
X138919857Y-98824142D01*
X138847285Y-98860428D01*
X137795000Y-107659714D02*
X137541000Y-107296857D01*
X137359571Y-107659714D02*
X137359571Y-106897714D01*
X137649857Y-106897714D01*
X137722428Y-106934000D01*
X137758714Y-106970285D01*
X137795000Y-107042857D01*
X137795000Y-107151714D01*
X137758714Y-107224285D01*
X137722428Y-107260571D01*
X137649857Y-107296857D01*
X137359571Y-107296857D01*
X138049000Y-106897714D02*
X138520714Y-106897714D01*
X138266714Y-107188000D01*
X138375571Y-107188000D01*
X138448142Y-107224285D01*
X138484428Y-107260571D01*
X138520714Y-107333142D01*
X138520714Y-107514571D01*
X138484428Y-107587142D01*
X138448142Y-107623428D01*
X138375571Y-107659714D01*
X138157857Y-107659714D01*
X138085285Y-107623428D01*
X138049000Y-107587142D01*
X144362714Y-99187000D02*
X143999857Y-99441000D01*
X144362714Y-99622428D02*
X143600714Y-99622428D01*
X143600714Y-99332142D01*
X143637000Y-99259571D01*
X143673285Y-99223285D01*
X143745857Y-99187000D01*
X143854714Y-99187000D01*
X143927285Y-99223285D01*
X143963571Y-99259571D01*
X143999857Y-99332142D01*
X143999857Y-99622428D01*
X143600714Y-98497571D02*
X143600714Y-98860428D01*
X143963571Y-98896714D01*
X143927285Y-98860428D01*
X143891000Y-98787857D01*
X143891000Y-98606428D01*
X143927285Y-98533857D01*
X143963571Y-98497571D01*
X144036142Y-98461285D01*
X144217571Y-98461285D01*
X144290142Y-98497571D01*
X144326428Y-98533857D01*
X144362714Y-98606428D01*
X144362714Y-98787857D01*
X144326428Y-98860428D01*
X144290142Y-98896714D01*
X150839714Y-95631000D02*
X150476857Y-95885000D01*
X150839714Y-96066428D02*
X150077714Y-96066428D01*
X150077714Y-95776142D01*
X150114000Y-95703571D01*
X150150285Y-95667285D01*
X150222857Y-95631000D01*
X150331714Y-95631000D01*
X150404285Y-95667285D01*
X150440571Y-95703571D01*
X150476857Y-95776142D01*
X150476857Y-96066428D01*
X150077714Y-94977857D02*
X150077714Y-95123000D01*
X150114000Y-95195571D01*
X150150285Y-95231857D01*
X150259142Y-95304428D01*
X150404285Y-95340714D01*
X150694571Y-95340714D01*
X150767142Y-95304428D01*
X150803428Y-95268142D01*
X150839714Y-95195571D01*
X150839714Y-95050428D01*
X150803428Y-94977857D01*
X150767142Y-94941571D01*
X150694571Y-94905285D01*
X150513142Y-94905285D01*
X150440571Y-94941571D01*
X150404285Y-94977857D01*
X150368000Y-95050428D01*
X150368000Y-95195571D01*
X150404285Y-95268142D01*
X150440571Y-95304428D01*
X150513142Y-95340714D01*
X150839714Y-100076000D02*
X150476857Y-100330000D01*
X150839714Y-100511428D02*
X150077714Y-100511428D01*
X150077714Y-100221142D01*
X150114000Y-100148571D01*
X150150285Y-100112285D01*
X150222857Y-100076000D01*
X150331714Y-100076000D01*
X150404285Y-100112285D01*
X150440571Y-100148571D01*
X150476857Y-100221142D01*
X150476857Y-100511428D01*
X150404285Y-99640571D02*
X150368000Y-99713142D01*
X150331714Y-99749428D01*
X150259142Y-99785714D01*
X150222857Y-99785714D01*
X150150285Y-99749428D01*
X150114000Y-99713142D01*
X150077714Y-99640571D01*
X150077714Y-99495428D01*
X150114000Y-99422857D01*
X150150285Y-99386571D01*
X150222857Y-99350285D01*
X150259142Y-99350285D01*
X150331714Y-99386571D01*
X150368000Y-99422857D01*
X150404285Y-99495428D01*
X150404285Y-99640571D01*
X150440571Y-99713142D01*
X150476857Y-99749428D01*
X150549428Y-99785714D01*
X150694571Y-99785714D01*
X150767142Y-99749428D01*
X150803428Y-99713142D01*
X150839714Y-99640571D01*
X150839714Y-99495428D01*
X150803428Y-99422857D01*
X150767142Y-99386571D01*
X150694571Y-99350285D01*
X150549428Y-99350285D01*
X150476857Y-99386571D01*
X150440571Y-99422857D01*
X150404285Y-99495428D01*
X150839714Y-97599500D02*
X150476857Y-97853500D01*
X150839714Y-98034928D02*
X150077714Y-98034928D01*
X150077714Y-97744642D01*
X150114000Y-97672071D01*
X150150285Y-97635785D01*
X150222857Y-97599500D01*
X150331714Y-97599500D01*
X150404285Y-97635785D01*
X150440571Y-97672071D01*
X150476857Y-97744642D01*
X150476857Y-98034928D01*
X150839714Y-97236642D02*
X150839714Y-97091500D01*
X150803428Y-97018928D01*
X150767142Y-96982642D01*
X150658285Y-96910071D01*
X150513142Y-96873785D01*
X150222857Y-96873785D01*
X150150285Y-96910071D01*
X150114000Y-96946357D01*
X150077714Y-97018928D01*
X150077714Y-97164071D01*
X150114000Y-97236642D01*
X150150285Y-97272928D01*
X150222857Y-97309214D01*
X150404285Y-97309214D01*
X150476857Y-97272928D01*
X150513142Y-97236642D01*
X150549428Y-97164071D01*
X150549428Y-97018928D01*
X150513142Y-96946357D01*
X150476857Y-96910071D01*
X150404285Y-96873785D01*
X144290142Y-98134714D02*
X144036142Y-97771857D01*
X143854714Y-98134714D02*
X143854714Y-97372714D01*
X144145000Y-97372714D01*
X144217571Y-97409000D01*
X144253857Y-97445285D01*
X144290142Y-97517857D01*
X144290142Y-97626714D01*
X144253857Y-97699285D01*
X144217571Y-97735571D01*
X144145000Y-97771857D01*
X143854714Y-97771857D01*
X145015857Y-98134714D02*
X144580428Y-98134714D01*
X144798142Y-98134714D02*
X144798142Y-97372714D01*
X144725571Y-97481571D01*
X144653000Y-97554142D01*
X144580428Y-97590428D01*
X145487571Y-97372714D02*
X145560142Y-97372714D01*
X145632714Y-97409000D01*
X145669000Y-97445285D01*
X145705285Y-97517857D01*
X145741571Y-97663000D01*
X145741571Y-97844428D01*
X145705285Y-97989571D01*
X145669000Y-98062142D01*
X145632714Y-98098428D01*
X145560142Y-98134714D01*
X145487571Y-98134714D01*
X145415000Y-98098428D01*
X145378714Y-98062142D01*
X145342428Y-97989571D01*
X145306142Y-97844428D01*
X145306142Y-97663000D01*
X145342428Y-97517857D01*
X145378714Y-97445285D01*
X145415000Y-97409000D01*
X145487571Y-97372714D01*
X143655142Y-92673714D02*
X143401142Y-92310857D01*
X143219714Y-92673714D02*
X143219714Y-91911714D01*
X143510000Y-91911714D01*
X143582571Y-91948000D01*
X143618857Y-91984285D01*
X143655142Y-92056857D01*
X143655142Y-92165714D01*
X143618857Y-92238285D01*
X143582571Y-92274571D01*
X143510000Y-92310857D01*
X143219714Y-92310857D01*
X144380857Y-92673714D02*
X143945428Y-92673714D01*
X144163142Y-92673714D02*
X144163142Y-91911714D01*
X144090571Y-92020571D01*
X144018000Y-92093142D01*
X143945428Y-92129428D01*
X145106571Y-92673714D02*
X144671142Y-92673714D01*
X144888857Y-92673714D02*
X144888857Y-91911714D01*
X144816285Y-92020571D01*
X144743714Y-92093142D01*
X144671142Y-92129428D01*
X138956142Y-93181714D02*
X138702142Y-92818857D01*
X138520714Y-93181714D02*
X138520714Y-92419714D01*
X138811000Y-92419714D01*
X138883571Y-92456000D01*
X138919857Y-92492285D01*
X138956142Y-92564857D01*
X138956142Y-92673714D01*
X138919857Y-92746285D01*
X138883571Y-92782571D01*
X138811000Y-92818857D01*
X138520714Y-92818857D01*
X139681857Y-93181714D02*
X139246428Y-93181714D01*
X139464142Y-93181714D02*
X139464142Y-92419714D01*
X139391571Y-92528571D01*
X139319000Y-92601142D01*
X139246428Y-92637428D01*
X139972142Y-92492285D02*
X140008428Y-92456000D01*
X140081000Y-92419714D01*
X140262428Y-92419714D01*
X140335000Y-92456000D01*
X140371285Y-92492285D01*
X140407571Y-92564857D01*
X140407571Y-92637428D01*
X140371285Y-92746285D01*
X139935857Y-93181714D01*
X140407571Y-93181714D01*
X150894142Y-106389714D02*
X150640142Y-106026857D01*
X150458714Y-106389714D02*
X150458714Y-105627714D01*
X150749000Y-105627714D01*
X150821571Y-105664000D01*
X150857857Y-105700285D01*
X150894142Y-105772857D01*
X150894142Y-105881714D01*
X150857857Y-105954285D01*
X150821571Y-105990571D01*
X150749000Y-106026857D01*
X150458714Y-106026857D01*
X151619857Y-106389714D02*
X151184428Y-106389714D01*
X151402142Y-106389714D02*
X151402142Y-105627714D01*
X151329571Y-105736571D01*
X151257000Y-105809142D01*
X151184428Y-105845428D01*
X151873857Y-105627714D02*
X152345571Y-105627714D01*
X152091571Y-105918000D01*
X152200428Y-105918000D01*
X152273000Y-105954285D01*
X152309285Y-105990571D01*
X152345571Y-106063142D01*
X152345571Y-106244571D01*
X152309285Y-106317142D01*
X152273000Y-106353428D01*
X152200428Y-106389714D01*
X151982714Y-106389714D01*
X151910142Y-106353428D01*
X151873857Y-106317142D01*
X151982714Y-102343857D02*
X151619857Y-102597857D01*
X151982714Y-102779285D02*
X151220714Y-102779285D01*
X151220714Y-102489000D01*
X151257000Y-102416428D01*
X151293285Y-102380142D01*
X151365857Y-102343857D01*
X151474714Y-102343857D01*
X151547285Y-102380142D01*
X151583571Y-102416428D01*
X151619857Y-102489000D01*
X151619857Y-102779285D01*
X151982714Y-101618142D02*
X151982714Y-102053571D01*
X151982714Y-101835857D02*
X151220714Y-101835857D01*
X151329571Y-101908428D01*
X151402142Y-101981000D01*
X151438428Y-102053571D01*
X151220714Y-100928714D02*
X151220714Y-101291571D01*
X151583571Y-101327857D01*
X151547285Y-101291571D01*
X151511000Y-101219000D01*
X151511000Y-101037571D01*
X151547285Y-100965000D01*
X151583571Y-100928714D01*
X151656142Y-100892428D01*
X151837571Y-100892428D01*
X151910142Y-100928714D01*
X151946428Y-100965000D01*
X151982714Y-101037571D01*
X151982714Y-101219000D01*
X151946428Y-101291571D01*
X151910142Y-101327857D01*
D11*
X153007785Y-95101833D02*
X153038023Y-95132071D01*
X153068261Y-95222785D01*
X153068261Y-95283261D01*
X153038023Y-95373976D01*
X152977547Y-95434452D01*
X152917071Y-95464690D01*
X152796119Y-95494928D01*
X152705404Y-95494928D01*
X152584452Y-95464690D01*
X152523976Y-95434452D01*
X152463500Y-95373976D01*
X152433261Y-95283261D01*
X152433261Y-95222785D01*
X152463500Y-95132071D01*
X152493738Y-95101833D01*
X152433261Y-94890166D02*
X152433261Y-94497071D01*
X152675166Y-94708738D01*
X152675166Y-94618023D01*
X152705404Y-94557547D01*
X152735642Y-94527309D01*
X152796119Y-94497071D01*
X152947309Y-94497071D01*
X153007785Y-94527309D01*
X153038023Y-94557547D01*
X153068261Y-94618023D01*
X153068261Y-94799452D01*
X153038023Y-94859928D01*
X153007785Y-94890166D01*
D13*
X149243142Y-92456000D02*
X149279428Y-92492285D01*
X149315714Y-92601142D01*
X149315714Y-92673714D01*
X149279428Y-92782571D01*
X149206857Y-92855142D01*
X149134285Y-92891428D01*
X148989142Y-92927714D01*
X148880285Y-92927714D01*
X148735142Y-92891428D01*
X148662571Y-92855142D01*
X148590000Y-92782571D01*
X148553714Y-92673714D01*
X148553714Y-92601142D01*
X148590000Y-92492285D01*
X148626285Y-92456000D01*
X148626285Y-92165714D02*
X148590000Y-92129428D01*
X148553714Y-92056857D01*
X148553714Y-91875428D01*
X148590000Y-91802857D01*
X148626285Y-91766571D01*
X148698857Y-91730285D01*
X148771428Y-91730285D01*
X148880285Y-91766571D01*
X149315714Y-92202000D01*
X149315714Y-91730285D01*
X135826500Y-87584642D02*
X135790214Y-87620928D01*
X135681357Y-87657214D01*
X135608785Y-87657214D01*
X135499928Y-87620928D01*
X135427357Y-87548357D01*
X135391071Y-87475785D01*
X135354785Y-87330642D01*
X135354785Y-87221785D01*
X135391071Y-87076642D01*
X135427357Y-87004071D01*
X135499928Y-86931500D01*
X135608785Y-86895214D01*
X135681357Y-86895214D01*
X135790214Y-86931500D01*
X135826500Y-86967785D01*
X136515928Y-86895214D02*
X136153071Y-86895214D01*
X136116785Y-87258071D01*
X136153071Y-87221785D01*
X136225642Y-87185500D01*
X136407071Y-87185500D01*
X136479642Y-87221785D01*
X136515928Y-87258071D01*
X136552214Y-87330642D01*
X136552214Y-87512071D01*
X136515928Y-87584642D01*
X136479642Y-87620928D01*
X136407071Y-87657214D01*
X136225642Y-87657214D01*
X136153071Y-87620928D01*
X136116785Y-87584642D01*
X135636000Y-85870142D02*
X135599714Y-85906428D01*
X135490857Y-85942714D01*
X135418285Y-85942714D01*
X135309428Y-85906428D01*
X135236857Y-85833857D01*
X135200571Y-85761285D01*
X135164285Y-85616142D01*
X135164285Y-85507285D01*
X135200571Y-85362142D01*
X135236857Y-85289571D01*
X135309428Y-85217000D01*
X135418285Y-85180714D01*
X135490857Y-85180714D01*
X135599714Y-85217000D01*
X135636000Y-85253285D01*
X136289142Y-85180714D02*
X136144000Y-85180714D01*
X136071428Y-85217000D01*
X136035142Y-85253285D01*
X135962571Y-85362142D01*
X135926285Y-85507285D01*
X135926285Y-85797571D01*
X135962571Y-85870142D01*
X135998857Y-85906428D01*
X136071428Y-85942714D01*
X136216571Y-85942714D01*
X136289142Y-85906428D01*
X136325428Y-85870142D01*
X136361714Y-85797571D01*
X136361714Y-85616142D01*
X136325428Y-85543571D01*
X136289142Y-85507285D01*
X136216571Y-85471000D01*
X136071428Y-85471000D01*
X135998857Y-85507285D01*
X135962571Y-85543571D01*
X135926285Y-85616142D01*
D12*
X133150428Y-98104476D02*
X133150428Y-97765809D01*
X133682619Y-97620666D02*
X133682619Y-98104476D01*
X132666619Y-98104476D01*
X132666619Y-97620666D01*
X133634238Y-97233619D02*
X133682619Y-97088476D01*
X133682619Y-96846571D01*
X133634238Y-96749809D01*
X133585857Y-96701428D01*
X133489095Y-96653047D01*
X133392333Y-96653047D01*
X133295571Y-96701428D01*
X133247190Y-96749809D01*
X133198809Y-96846571D01*
X133150428Y-97040095D01*
X133102047Y-97136857D01*
X133053666Y-97185238D01*
X132956904Y-97233619D01*
X132860142Y-97233619D01*
X132763380Y-97185238D01*
X132715000Y-97136857D01*
X132666619Y-97040095D01*
X132666619Y-96798190D01*
X132715000Y-96653047D01*
X133682619Y-96217619D02*
X132666619Y-96217619D01*
X132666619Y-95830571D01*
X132715000Y-95733809D01*
X132763380Y-95685428D01*
X132860142Y-95637047D01*
X133005285Y-95637047D01*
X133102047Y-95685428D01*
X133150428Y-95733809D01*
X133198809Y-95830571D01*
X133198809Y-96217619D01*
X133295571Y-95201619D02*
X133295571Y-94427523D01*
X133682619Y-93943714D02*
X132666619Y-93943714D01*
X132666619Y-93556666D01*
X132715000Y-93459904D01*
X132763380Y-93411523D01*
X132860142Y-93363142D01*
X133005285Y-93363142D01*
X133102047Y-93411523D01*
X133150428Y-93459904D01*
X133198809Y-93556666D01*
X133198809Y-93943714D01*
X133682619Y-92347142D02*
X133198809Y-92685809D01*
X133682619Y-92927714D02*
X132666619Y-92927714D01*
X132666619Y-92540666D01*
X132715000Y-92443904D01*
X132763380Y-92395523D01*
X132860142Y-92347142D01*
X133005285Y-92347142D01*
X133102047Y-92395523D01*
X133150428Y-92443904D01*
X133198809Y-92540666D01*
X133198809Y-92927714D01*
X132666619Y-91718190D02*
X132666619Y-91524666D01*
X132715000Y-91427904D01*
X132811761Y-91331142D01*
X133005285Y-91282761D01*
X133343952Y-91282761D01*
X133537476Y-91331142D01*
X133634238Y-91427904D01*
X133682619Y-91524666D01*
X133682619Y-91718190D01*
X133634238Y-91814952D01*
X133537476Y-91911714D01*
X133343952Y-91960095D01*
X133005285Y-91960095D01*
X132811761Y-91911714D01*
X132715000Y-91814952D01*
X132666619Y-91718190D01*
X132715000Y-90315142D02*
X132666619Y-90411904D01*
X132666619Y-90557047D01*
X132715000Y-90702190D01*
X132811761Y-90798952D01*
X132908523Y-90847333D01*
X133102047Y-90895714D01*
X133247190Y-90895714D01*
X133440714Y-90847333D01*
X133537476Y-90798952D01*
X133634238Y-90702190D01*
X133682619Y-90557047D01*
X133682619Y-90460285D01*
X133634238Y-90315142D01*
X133585857Y-90266761D01*
X133247190Y-90266761D01*
X133247190Y-90460285D01*
X133682619Y-89299142D02*
X133682619Y-89879714D01*
X133682619Y-89589428D02*
X132666619Y-89589428D01*
X132811761Y-89686190D01*
X132908523Y-89782952D01*
X132956904Y-89879714D01*
X152279047Y-109298619D02*
X151795238Y-109298619D01*
X151795238Y-108282619D01*
X152617714Y-108766428D02*
X152956380Y-108766428D01*
X153101523Y-109298619D02*
X152617714Y-109298619D01*
X152617714Y-108282619D01*
X153101523Y-108282619D01*
X153536952Y-109298619D02*
X153536952Y-108282619D01*
X153778857Y-108282619D01*
X153924000Y-108331000D01*
X154020761Y-108427761D01*
X154069142Y-108524523D01*
X154117523Y-108718047D01*
X154117523Y-108863190D01*
X154069142Y-109056714D01*
X154020761Y-109153476D01*
X153924000Y-109250238D01*
X153778857Y-109298619D01*
X153536952Y-109298619D01*
X155085142Y-109298619D02*
X154504571Y-109298619D01*
X154794857Y-109298619D02*
X154794857Y-108282619D01*
X154698095Y-108427761D01*
X154601333Y-108524523D01*
X154504571Y-108572904D01*
D13*
X150241000Y-105246714D02*
X149987000Y-104883857D01*
X149805571Y-105246714D02*
X149805571Y-104484714D01*
X150095857Y-104484714D01*
X150168428Y-104521000D01*
X150204714Y-104557285D01*
X150241000Y-104629857D01*
X150241000Y-104738714D01*
X150204714Y-104811285D01*
X150168428Y-104847571D01*
X150095857Y-104883857D01*
X149805571Y-104883857D01*
X150531285Y-104557285D02*
X150567571Y-104521000D01*
X150640142Y-104484714D01*
X150821571Y-104484714D01*
X150894142Y-104521000D01*
X150930428Y-104557285D01*
X150966714Y-104629857D01*
X150966714Y-104702428D01*
X150930428Y-104811285D01*
X150495000Y-105246714D01*
X150966714Y-105246714D01*
X143891000Y-105246714D02*
X143637000Y-104883857D01*
X143455571Y-105246714D02*
X143455571Y-104484714D01*
X143745857Y-104484714D01*
X143818428Y-104521000D01*
X143854714Y-104557285D01*
X143891000Y-104629857D01*
X143891000Y-104738714D01*
X143854714Y-104811285D01*
X143818428Y-104847571D01*
X143745857Y-104883857D01*
X143455571Y-104883857D01*
X144544142Y-104738714D02*
X144544142Y-105246714D01*
X144362714Y-104448428D02*
X144181285Y-104992714D01*
X144653000Y-104992714D01*
X135146142Y-89371714D02*
X134892142Y-89008857D01*
X134710714Y-89371714D02*
X134710714Y-88609714D01*
X135001000Y-88609714D01*
X135073571Y-88646000D01*
X135109857Y-88682285D01*
X135146142Y-88754857D01*
X135146142Y-88863714D01*
X135109857Y-88936285D01*
X135073571Y-88972571D01*
X135001000Y-89008857D01*
X134710714Y-89008857D01*
X135871857Y-89371714D02*
X135436428Y-89371714D01*
X135654142Y-89371714D02*
X135654142Y-88609714D01*
X135581571Y-88718571D01*
X135509000Y-88791142D01*
X135436428Y-88827428D01*
X136525000Y-88863714D02*
X136525000Y-89371714D01*
X136343571Y-88573428D02*
X136162142Y-89117714D01*
X136633857Y-89117714D01*
D12*
X151323523Y-84128428D02*
X151468666Y-84176809D01*
X151517047Y-84225190D01*
X151565428Y-84321952D01*
X151565428Y-84467095D01*
X151517047Y-84563857D01*
X151468666Y-84612238D01*
X151371904Y-84660619D01*
X150984857Y-84660619D01*
X150984857Y-83644619D01*
X151323523Y-83644619D01*
X151420285Y-83693000D01*
X151468666Y-83741380D01*
X151517047Y-83838142D01*
X151517047Y-83934904D01*
X151468666Y-84031666D01*
X151420285Y-84080047D01*
X151323523Y-84128428D01*
X150984857Y-84128428D01*
X152000857Y-83644619D02*
X152000857Y-84467095D01*
X152049238Y-84563857D01*
X152097619Y-84612238D01*
X152194380Y-84660619D01*
X152387904Y-84660619D01*
X152484666Y-84612238D01*
X152533047Y-84563857D01*
X152581428Y-84467095D01*
X152581428Y-83644619D01*
X152920095Y-83644619D02*
X153500666Y-83644619D01*
X153210380Y-84660619D02*
X153210380Y-83644619D01*
X154371523Y-84660619D02*
X153790952Y-84660619D01*
X154081238Y-84660619D02*
X154081238Y-83644619D01*
X153984476Y-83789761D01*
X153887714Y-83886523D01*
X153790952Y-83934904D01*
D13*
X148553714Y-94814571D02*
X149170571Y-94814571D01*
X149243142Y-94778285D01*
X149279428Y-94742000D01*
X149315714Y-94669428D01*
X149315714Y-94524285D01*
X149279428Y-94451714D01*
X149243142Y-94415428D01*
X149170571Y-94379142D01*
X148553714Y-94379142D01*
X148626285Y-94052571D02*
X148590000Y-94016285D01*
X148553714Y-93943714D01*
X148553714Y-93762285D01*
X148590000Y-93689714D01*
X148626285Y-93653428D01*
X148698857Y-93617142D01*
X148771428Y-93617142D01*
X148880285Y-93653428D01*
X149315714Y-94088857D01*
X149315714Y-93617142D01*
D12*
X137365619Y-114916857D02*
X138188095Y-114916857D01*
X138284857Y-114868476D01*
X138333238Y-114820095D01*
X138381619Y-114723333D01*
X138381619Y-114529809D01*
X138333238Y-114433047D01*
X138284857Y-114384666D01*
X138188095Y-114336285D01*
X137365619Y-114336285D01*
X138333238Y-113900857D02*
X138381619Y-113755714D01*
X138381619Y-113513809D01*
X138333238Y-113417047D01*
X138284857Y-113368666D01*
X138188095Y-113320285D01*
X138091333Y-113320285D01*
X137994571Y-113368666D01*
X137946190Y-113417047D01*
X137897809Y-113513809D01*
X137849428Y-113707333D01*
X137801047Y-113804095D01*
X137752666Y-113852476D01*
X137655904Y-113900857D01*
X137559142Y-113900857D01*
X137462380Y-113852476D01*
X137414000Y-113804095D01*
X137365619Y-113707333D01*
X137365619Y-113465428D01*
X137414000Y-113320285D01*
X137849428Y-112546190D02*
X137897809Y-112401047D01*
X137946190Y-112352666D01*
X138042952Y-112304285D01*
X138188095Y-112304285D01*
X138284857Y-112352666D01*
X138333238Y-112401047D01*
X138381619Y-112497809D01*
X138381619Y-112884857D01*
X137365619Y-112884857D01*
X137365619Y-112546190D01*
X137414000Y-112449428D01*
X137462380Y-112401047D01*
X137559142Y-112352666D01*
X137655904Y-112352666D01*
X137752666Y-112401047D01*
X137801047Y-112449428D01*
X137849428Y-112546190D01*
X137849428Y-112884857D01*
X137994571Y-111868857D02*
X137994571Y-111094761D01*
X138284857Y-110030380D02*
X138333238Y-110078761D01*
X138381619Y-110223904D01*
X138381619Y-110320666D01*
X138333238Y-110465809D01*
X138236476Y-110562571D01*
X138139714Y-110610952D01*
X137946190Y-110659333D01*
X137801047Y-110659333D01*
X137607523Y-110610952D01*
X137510761Y-110562571D01*
X137414000Y-110465809D01*
X137365619Y-110320666D01*
X137365619Y-110223904D01*
X137414000Y-110078761D01*
X137462380Y-110030380D01*
X138381619Y-109062761D02*
X138381619Y-109643333D01*
X138381619Y-109353047D02*
X137365619Y-109353047D01*
X137510761Y-109449809D01*
X137607523Y-109546571D01*
X137655904Y-109643333D01*
D10*
X140455952Y-114003666D02*
X140697857Y-114003666D01*
X140407571Y-114148809D02*
X140576904Y-113640809D01*
X140746238Y-114148809D01*
X141133285Y-113810142D02*
X141133285Y-114148809D01*
X141012333Y-113616619D02*
X140891380Y-113979476D01*
X141205857Y-113979476D01*
X141496142Y-113640809D02*
X141544523Y-113640809D01*
X141592904Y-113665000D01*
X141617095Y-113689190D01*
X141641285Y-113737571D01*
X141665476Y-113834333D01*
X141665476Y-113955285D01*
X141641285Y-114052047D01*
X141617095Y-114100428D01*
X141592904Y-114124619D01*
X141544523Y-114148809D01*
X141496142Y-114148809D01*
X141447761Y-114124619D01*
X141423571Y-114100428D01*
X141399380Y-114052047D01*
X141375190Y-113955285D01*
X141375190Y-113834333D01*
X141399380Y-113737571D01*
X141423571Y-113689190D01*
X141447761Y-113665000D01*
X141496142Y-113640809D01*
X141883190Y-113955285D02*
X142270238Y-113955285D01*
X142608904Y-113640809D02*
X142657285Y-113640809D01*
X142705666Y-113665000D01*
X142729857Y-113689190D01*
X142754047Y-113737571D01*
X142778238Y-113834333D01*
X142778238Y-113955285D01*
X142754047Y-114052047D01*
X142729857Y-114100428D01*
X142705666Y-114124619D01*
X142657285Y-114148809D01*
X142608904Y-114148809D01*
X142560523Y-114124619D01*
X142536333Y-114100428D01*
X142512142Y-114052047D01*
X142487952Y-113955285D01*
X142487952Y-113834333D01*
X142512142Y-113737571D01*
X142536333Y-113689190D01*
X142560523Y-113665000D01*
X142608904Y-113640809D01*
X143092714Y-113640809D02*
X143141095Y-113640809D01*
X143189476Y-113665000D01*
X143213666Y-113689190D01*
X143237857Y-113737571D01*
X143262047Y-113834333D01*
X143262047Y-113955285D01*
X143237857Y-114052047D01*
X143213666Y-114100428D01*
X143189476Y-114124619D01*
X143141095Y-114148809D01*
X143092714Y-114148809D01*
X143044333Y-114124619D01*
X143020142Y-114100428D01*
X142995952Y-114052047D01*
X142971761Y-113955285D01*
X142971761Y-113834333D01*
X142995952Y-113737571D01*
X143020142Y-113689190D01*
X143044333Y-113665000D01*
X143092714Y-113640809D01*
X143745857Y-114148809D02*
X143455571Y-114148809D01*
X143600714Y-114148809D02*
X143600714Y-113640809D01*
X143552333Y-113713380D01*
X143503952Y-113761761D01*
X143455571Y-113785952D01*
X144229666Y-114148809D02*
X143939380Y-114148809D01*
X144084523Y-114148809D02*
X144084523Y-113640809D01*
X144036142Y-113713380D01*
X143987761Y-113761761D01*
X143939380Y-113785952D01*
X144471571Y-114148809D02*
X144568333Y-114148809D01*
X144616714Y-114124619D01*
X144640904Y-114100428D01*
X144689285Y-114027857D01*
X144713476Y-113931095D01*
X144713476Y-113737571D01*
X144689285Y-113689190D01*
X144665095Y-113665000D01*
X144616714Y-113640809D01*
X144519952Y-113640809D01*
X144471571Y-113665000D01*
X144447380Y-113689190D01*
X144423190Y-113737571D01*
X144423190Y-113858523D01*
X144447380Y-113906904D01*
X144471571Y-113931095D01*
X144519952Y-113955285D01*
X144616714Y-113955285D01*
X144665095Y-113931095D01*
X144689285Y-113906904D01*
X144713476Y-113858523D01*
X144931190Y-113955285D02*
X145318238Y-113955285D01*
X145535952Y-114003666D02*
X145777857Y-114003666D01*
X145487571Y-114148809D02*
X145656904Y-113640809D01*
X145826238Y-114148809D01*
X146237476Y-113640809D02*
X145995571Y-113640809D01*
X145971380Y-113882714D01*
X145995571Y-113858523D01*
X146043952Y-113834333D01*
X146164904Y-113834333D01*
X146213285Y-113858523D01*
X146237476Y-113882714D01*
X146261666Y-113931095D01*
X146261666Y-114052047D01*
X146237476Y-114100428D01*
X146213285Y-114124619D01*
X146164904Y-114148809D01*
X146043952Y-114148809D01*
X145995571Y-114124619D01*
X145971380Y-114100428D01*
X146455190Y-113689190D02*
X146479380Y-113665000D01*
X146527761Y-113640809D01*
X146648714Y-113640809D01*
X146697095Y-113665000D01*
X146721285Y-113689190D01*
X146745476Y-113737571D01*
X146745476Y-113785952D01*
X146721285Y-113858523D01*
X146431000Y-114148809D01*
X146745476Y-114148809D01*
X146963190Y-113955285D02*
X147350238Y-113955285D01*
X147858238Y-114148809D02*
X147567952Y-114148809D01*
X147713095Y-114148809D02*
X147713095Y-113640809D01*
X147664714Y-113713380D01*
X147616333Y-113761761D01*
X147567952Y-113785952D01*
X148051761Y-113689190D02*
X148075952Y-113665000D01*
X148124333Y-113640809D01*
X148245285Y-113640809D01*
X148293666Y-113665000D01*
X148317857Y-113689190D01*
X148342047Y-113737571D01*
X148342047Y-113785952D01*
X148317857Y-113858523D01*
X148027571Y-114148809D01*
X148342047Y-114148809D01*
X140779500Y-110639047D02*
X140755309Y-110687428D01*
X140755309Y-110760000D01*
X140779500Y-110832571D01*
X140827880Y-110880952D01*
X140876261Y-110905142D01*
X140973023Y-110929333D01*
X141045595Y-110929333D01*
X141142357Y-110905142D01*
X141190738Y-110880952D01*
X141239119Y-110832571D01*
X141263309Y-110760000D01*
X141263309Y-110711619D01*
X141239119Y-110639047D01*
X141214928Y-110614857D01*
X141045595Y-110614857D01*
X141045595Y-110711619D01*
X141263309Y-110397142D02*
X140755309Y-110397142D01*
X141263309Y-110106857D01*
X140755309Y-110106857D01*
X141263309Y-109864952D02*
X140755309Y-109864952D01*
X140755309Y-109744000D01*
X140779500Y-109671428D01*
X140827880Y-109623047D01*
X140876261Y-109598857D01*
X140973023Y-109574666D01*
X141045595Y-109574666D01*
X141142357Y-109598857D01*
X141190738Y-109623047D01*
X141239119Y-109671428D01*
X141263309Y-109744000D01*
X141263309Y-109864952D01*
X141620809Y-111433333D02*
X142128809Y-111264000D01*
X141620809Y-111094666D01*
X141862714Y-110756000D02*
X141886904Y-110683428D01*
X141911095Y-110659238D01*
X141959476Y-110635047D01*
X142032047Y-110635047D01*
X142080428Y-110659238D01*
X142104619Y-110683428D01*
X142128809Y-110731809D01*
X142128809Y-110925333D01*
X141620809Y-110925333D01*
X141620809Y-110756000D01*
X141645000Y-110707619D01*
X141669190Y-110683428D01*
X141717571Y-110659238D01*
X141765952Y-110659238D01*
X141814333Y-110683428D01*
X141838523Y-110707619D01*
X141862714Y-110756000D01*
X141862714Y-110925333D01*
X141620809Y-110417333D02*
X142032047Y-110417333D01*
X142080428Y-110393142D01*
X142104619Y-110368952D01*
X142128809Y-110320571D01*
X142128809Y-110223809D01*
X142104619Y-110175428D01*
X142080428Y-110151238D01*
X142032047Y-110127047D01*
X141620809Y-110127047D01*
X142104619Y-109909333D02*
X142128809Y-109836761D01*
X142128809Y-109715809D01*
X142104619Y-109667428D01*
X142080428Y-109643238D01*
X142032047Y-109619047D01*
X141983666Y-109619047D01*
X141935285Y-109643238D01*
X141911095Y-109667428D01*
X141886904Y-109715809D01*
X141862714Y-109812571D01*
X141838523Y-109860952D01*
X141814333Y-109885142D01*
X141765952Y-109909333D01*
X141717571Y-109909333D01*
X141669190Y-109885142D01*
X141645000Y-109860952D01*
X141620809Y-109812571D01*
X141620809Y-109691619D01*
X141645000Y-109619047D01*
X142854619Y-113159142D02*
X142878809Y-113086571D01*
X142878809Y-112965619D01*
X142854619Y-112917238D01*
X142830428Y-112893047D01*
X142782047Y-112868857D01*
X142733666Y-112868857D01*
X142685285Y-112893047D01*
X142661095Y-112917238D01*
X142636904Y-112965619D01*
X142612714Y-113062380D01*
X142588523Y-113110761D01*
X142564333Y-113134952D01*
X142515952Y-113159142D01*
X142467571Y-113159142D01*
X142419190Y-113134952D01*
X142395000Y-113110761D01*
X142370809Y-113062380D01*
X142370809Y-112941428D01*
X142395000Y-112868857D01*
X142612714Y-112481809D02*
X142636904Y-112409238D01*
X142661095Y-112385047D01*
X142709476Y-112360857D01*
X142782047Y-112360857D01*
X142830428Y-112385047D01*
X142854619Y-112409238D01*
X142878809Y-112457619D01*
X142878809Y-112651142D01*
X142370809Y-112651142D01*
X142370809Y-112481809D01*
X142395000Y-112433428D01*
X142419190Y-112409238D01*
X142467571Y-112385047D01*
X142515952Y-112385047D01*
X142564333Y-112409238D01*
X142588523Y-112433428D01*
X142612714Y-112481809D01*
X142612714Y-112651142D01*
X142370809Y-112143142D02*
X142782047Y-112143142D01*
X142830428Y-112118952D01*
X142854619Y-112094761D01*
X142878809Y-112046380D01*
X142878809Y-111949619D01*
X142854619Y-111901238D01*
X142830428Y-111877047D01*
X142782047Y-111852857D01*
X142370809Y-111852857D01*
X142419190Y-111635142D02*
X142395000Y-111610952D01*
X142370809Y-111562571D01*
X142370809Y-111441619D01*
X142395000Y-111393238D01*
X142419190Y-111369047D01*
X142467571Y-111344857D01*
X142515952Y-111344857D01*
X142588523Y-111369047D01*
X142878809Y-111659333D01*
X142878809Y-111344857D01*
X143330428Y-110590666D02*
X143354619Y-110614857D01*
X143378809Y-110687428D01*
X143378809Y-110735809D01*
X143354619Y-110808380D01*
X143306238Y-110856761D01*
X143257857Y-110880952D01*
X143161095Y-110905142D01*
X143088523Y-110905142D01*
X142991761Y-110880952D01*
X142943380Y-110856761D01*
X142895000Y-110808380D01*
X142870809Y-110735809D01*
X142870809Y-110687428D01*
X142895000Y-110614857D01*
X142919190Y-110590666D01*
X143330428Y-110082666D02*
X143354619Y-110106857D01*
X143378809Y-110179428D01*
X143378809Y-110227809D01*
X143354619Y-110300380D01*
X143306238Y-110348761D01*
X143257857Y-110372952D01*
X143161095Y-110397142D01*
X143088523Y-110397142D01*
X142991761Y-110372952D01*
X142943380Y-110348761D01*
X142895000Y-110300380D01*
X142870809Y-110227809D01*
X142870809Y-110179428D01*
X142895000Y-110106857D01*
X142919190Y-110082666D01*
X143378809Y-109598857D02*
X143378809Y-109889142D01*
X143378809Y-109744000D02*
X142870809Y-109744000D01*
X142943380Y-109792380D01*
X142991761Y-109840761D01*
X143015952Y-109889142D01*
X143878809Y-112643047D02*
X143370809Y-112643047D01*
X143370809Y-112522095D01*
X143395000Y-112449523D01*
X143443380Y-112401142D01*
X143491761Y-112376952D01*
X143588523Y-112352761D01*
X143661095Y-112352761D01*
X143757857Y-112376952D01*
X143806238Y-112401142D01*
X143854619Y-112449523D01*
X143878809Y-112522095D01*
X143878809Y-112643047D01*
X143878809Y-112135047D02*
X143370809Y-112135047D01*
X143878809Y-111844761D01*
X143370809Y-111844761D01*
X143419190Y-111627047D02*
X143395000Y-111602857D01*
X143370809Y-111554476D01*
X143370809Y-111433523D01*
X143395000Y-111385142D01*
X143419190Y-111360952D01*
X143467571Y-111336761D01*
X143515952Y-111336761D01*
X143588523Y-111360952D01*
X143878809Y-111651238D01*
X143878809Y-111336761D01*
X144378809Y-110880952D02*
X143870809Y-110880952D01*
X143870809Y-110760000D01*
X143895000Y-110687428D01*
X143943380Y-110639047D01*
X143991761Y-110614857D01*
X144088523Y-110590666D01*
X144161095Y-110590666D01*
X144257857Y-110614857D01*
X144306238Y-110639047D01*
X144354619Y-110687428D01*
X144378809Y-110760000D01*
X144378809Y-110880952D01*
X144378809Y-110372952D02*
X143870809Y-110372952D01*
X143870809Y-110179428D01*
X143895000Y-110131047D01*
X143919190Y-110106857D01*
X143967571Y-110082666D01*
X144040142Y-110082666D01*
X144088523Y-110106857D01*
X144112714Y-110131047D01*
X144136904Y-110179428D01*
X144136904Y-110372952D01*
X144378809Y-109598857D02*
X144378809Y-109889142D01*
X144378809Y-109744000D02*
X143870809Y-109744000D01*
X143943380Y-109792380D01*
X143991761Y-109840761D01*
X144015952Y-109889142D01*
X144878809Y-112643047D02*
X144370809Y-112643047D01*
X144370809Y-112522095D01*
X144395000Y-112449523D01*
X144443380Y-112401142D01*
X144491761Y-112376952D01*
X144588523Y-112352761D01*
X144661095Y-112352761D01*
X144757857Y-112376952D01*
X144806238Y-112401142D01*
X144854619Y-112449523D01*
X144878809Y-112522095D01*
X144878809Y-112643047D01*
X144878809Y-112135047D02*
X144370809Y-112135047D01*
X144878809Y-111844761D01*
X144370809Y-111844761D01*
X144878809Y-111336761D02*
X144878809Y-111627047D01*
X144878809Y-111481904D02*
X144370809Y-111481904D01*
X144443380Y-111530285D01*
X144491761Y-111578666D01*
X144515952Y-111627047D01*
X145378809Y-110880952D02*
X144870809Y-110880952D01*
X144870809Y-110760000D01*
X144895000Y-110687428D01*
X144943380Y-110639047D01*
X144991761Y-110614857D01*
X145088523Y-110590666D01*
X145161095Y-110590666D01*
X145257857Y-110614857D01*
X145306238Y-110639047D01*
X145354619Y-110687428D01*
X145378809Y-110760000D01*
X145378809Y-110880952D01*
X145378809Y-110372952D02*
X144870809Y-110372952D01*
X144870809Y-110179428D01*
X144895000Y-110131047D01*
X144919190Y-110106857D01*
X144967571Y-110082666D01*
X145040142Y-110082666D01*
X145088523Y-110106857D01*
X145112714Y-110131047D01*
X145136904Y-110179428D01*
X145136904Y-110372952D01*
X144919190Y-109889142D02*
X144895000Y-109864952D01*
X144870809Y-109816571D01*
X144870809Y-109695619D01*
X144895000Y-109647238D01*
X144919190Y-109623047D01*
X144967571Y-109598857D01*
X145015952Y-109598857D01*
X145088523Y-109623047D01*
X145378809Y-109913333D01*
X145378809Y-109598857D01*
X145854619Y-113159142D02*
X145878809Y-113086571D01*
X145878809Y-112965619D01*
X145854619Y-112917238D01*
X145830428Y-112893047D01*
X145782047Y-112868857D01*
X145733666Y-112868857D01*
X145685285Y-112893047D01*
X145661095Y-112917238D01*
X145636904Y-112965619D01*
X145612714Y-113062380D01*
X145588523Y-113110761D01*
X145564333Y-113134952D01*
X145515952Y-113159142D01*
X145467571Y-113159142D01*
X145419190Y-113134952D01*
X145395000Y-113110761D01*
X145370809Y-113062380D01*
X145370809Y-112941428D01*
X145395000Y-112868857D01*
X145612714Y-112481809D02*
X145636904Y-112409238D01*
X145661095Y-112385047D01*
X145709476Y-112360857D01*
X145782047Y-112360857D01*
X145830428Y-112385047D01*
X145854619Y-112409238D01*
X145878809Y-112457619D01*
X145878809Y-112651142D01*
X145370809Y-112651142D01*
X145370809Y-112481809D01*
X145395000Y-112433428D01*
X145419190Y-112409238D01*
X145467571Y-112385047D01*
X145515952Y-112385047D01*
X145564333Y-112409238D01*
X145588523Y-112433428D01*
X145612714Y-112481809D01*
X145612714Y-112651142D01*
X145370809Y-112143142D02*
X145782047Y-112143142D01*
X145830428Y-112118952D01*
X145854619Y-112094761D01*
X145878809Y-112046380D01*
X145878809Y-111949619D01*
X145854619Y-111901238D01*
X145830428Y-111877047D01*
X145782047Y-111852857D01*
X145370809Y-111852857D01*
X145878809Y-111344857D02*
X145878809Y-111635142D01*
X145878809Y-111490000D02*
X145370809Y-111490000D01*
X145443380Y-111538380D01*
X145491761Y-111586761D01*
X145515952Y-111635142D01*
X146330428Y-110590666D02*
X146354619Y-110614857D01*
X146378809Y-110687428D01*
X146378809Y-110735809D01*
X146354619Y-110808380D01*
X146306238Y-110856761D01*
X146257857Y-110880952D01*
X146161095Y-110905142D01*
X146088523Y-110905142D01*
X145991761Y-110880952D01*
X145943380Y-110856761D01*
X145895000Y-110808380D01*
X145870809Y-110735809D01*
X145870809Y-110687428D01*
X145895000Y-110614857D01*
X145919190Y-110590666D01*
X146330428Y-110082666D02*
X146354619Y-110106857D01*
X146378809Y-110179428D01*
X146378809Y-110227809D01*
X146354619Y-110300380D01*
X146306238Y-110348761D01*
X146257857Y-110372952D01*
X146161095Y-110397142D01*
X146088523Y-110397142D01*
X145991761Y-110372952D01*
X145943380Y-110348761D01*
X145895000Y-110300380D01*
X145870809Y-110227809D01*
X145870809Y-110179428D01*
X145895000Y-110106857D01*
X145919190Y-110082666D01*
X145919190Y-109889142D02*
X145895000Y-109864952D01*
X145870809Y-109816571D01*
X145870809Y-109695619D01*
X145895000Y-109647238D01*
X145919190Y-109623047D01*
X145967571Y-109598857D01*
X146015952Y-109598857D01*
X146088523Y-109623047D01*
X146378809Y-109913333D01*
X146378809Y-109598857D01*
X146620809Y-111433333D02*
X147128809Y-111264000D01*
X146620809Y-111094666D01*
X146862714Y-110756000D02*
X146886904Y-110683428D01*
X146911095Y-110659238D01*
X146959476Y-110635047D01*
X147032047Y-110635047D01*
X147080428Y-110659238D01*
X147104619Y-110683428D01*
X147128809Y-110731809D01*
X147128809Y-110925333D01*
X146620809Y-110925333D01*
X146620809Y-110756000D01*
X146645000Y-110707619D01*
X146669190Y-110683428D01*
X146717571Y-110659238D01*
X146765952Y-110659238D01*
X146814333Y-110683428D01*
X146838523Y-110707619D01*
X146862714Y-110756000D01*
X146862714Y-110925333D01*
X146620809Y-110417333D02*
X147032047Y-110417333D01*
X147080428Y-110393142D01*
X147104619Y-110368952D01*
X147128809Y-110320571D01*
X147128809Y-110223809D01*
X147104619Y-110175428D01*
X147080428Y-110151238D01*
X147032047Y-110127047D01*
X146620809Y-110127047D01*
X147104619Y-109909333D02*
X147128809Y-109836761D01*
X147128809Y-109715809D01*
X147104619Y-109667428D01*
X147080428Y-109643238D01*
X147032047Y-109619047D01*
X146983666Y-109619047D01*
X146935285Y-109643238D01*
X146911095Y-109667428D01*
X146886904Y-109715809D01*
X146862714Y-109812571D01*
X146838523Y-109860952D01*
X146814333Y-109885142D01*
X146765952Y-109909333D01*
X146717571Y-109909333D01*
X146669190Y-109885142D01*
X146645000Y-109860952D01*
X146620809Y-109812571D01*
X146620809Y-109691619D01*
X146645000Y-109619047D01*
X147510500Y-110639047D02*
X147486309Y-110687428D01*
X147486309Y-110760000D01*
X147510500Y-110832571D01*
X147558880Y-110880952D01*
X147607261Y-110905142D01*
X147704023Y-110929333D01*
X147776595Y-110929333D01*
X147873357Y-110905142D01*
X147921738Y-110880952D01*
X147970119Y-110832571D01*
X147994309Y-110760000D01*
X147994309Y-110711619D01*
X147970119Y-110639047D01*
X147945928Y-110614857D01*
X147776595Y-110614857D01*
X147776595Y-110711619D01*
X147994309Y-110397142D02*
X147486309Y-110397142D01*
X147994309Y-110106857D01*
X147486309Y-110106857D01*
X147994309Y-109864952D02*
X147486309Y-109864952D01*
X147486309Y-109744000D01*
X147510500Y-109671428D01*
X147558880Y-109623047D01*
X147607261Y-109598857D01*
X147704023Y-109574666D01*
X147776595Y-109574666D01*
X147873357Y-109598857D01*
X147921738Y-109623047D01*
X147970119Y-109671428D01*
X147994309Y-109744000D01*
X147994309Y-109864952D01*
D19*
X112884857Y-124296714D02*
X113211428Y-124405571D01*
X113320285Y-124514428D01*
X113429142Y-124732142D01*
X113429142Y-125058714D01*
X113320285Y-125276428D01*
X113211428Y-125385285D01*
X112993714Y-125494142D01*
X112122857Y-125494142D01*
X112122857Y-123208142D01*
X112884857Y-123208142D01*
X113102571Y-123317000D01*
X113211428Y-123425857D01*
X113320285Y-123643571D01*
X113320285Y-123861285D01*
X113211428Y-124079000D01*
X113102571Y-124187857D01*
X112884857Y-124296714D01*
X112122857Y-124296714D01*
X114408857Y-124732142D02*
X115388571Y-124732142D01*
X114408857Y-123970142D02*
X114408857Y-125494142D01*
X115388571Y-123970142D02*
X115388571Y-125494142D01*
X116477142Y-123970142D02*
X116477142Y-125494142D01*
X117565714Y-123970142D01*
X117565714Y-125494142D01*
X118654285Y-125494142D02*
X118654285Y-123970142D01*
X119307428Y-125167571D01*
X119960571Y-123970142D01*
X119960571Y-125494142D01*
X122028857Y-125494142D02*
X122028857Y-124296714D01*
X121919999Y-124079000D01*
X121702285Y-123970142D01*
X121266857Y-123970142D01*
X121049142Y-124079000D01*
X122028857Y-125385285D02*
X121811142Y-125494142D01*
X121266857Y-125494142D01*
X121049142Y-125385285D01*
X120940285Y-125167571D01*
X120940285Y-124949857D01*
X121049142Y-124732142D01*
X121266857Y-124623285D01*
X121811142Y-124623285D01*
X122028857Y-124514428D01*
X123117428Y-124732142D02*
X124097142Y-124732142D01*
X123117428Y-123970142D02*
X123117428Y-125494142D01*
X124097142Y-123970142D02*
X124097142Y-125494142D01*
X125185714Y-123970142D02*
X125185714Y-125494142D01*
X126274285Y-123970142D01*
X126274285Y-125494142D01*
X128233714Y-125385285D02*
X128015999Y-125494142D01*
X127580571Y-125494142D01*
X127362857Y-125385285D01*
X127253999Y-125167571D01*
X127253999Y-124296714D01*
X127362857Y-124079000D01*
X127580571Y-123970142D01*
X128015999Y-123970142D01*
X128233714Y-124079000D01*
X128342571Y-124296714D01*
X128342571Y-124514428D01*
X127253999Y-124732142D01*
X129322285Y-125276428D02*
X129431142Y-125385285D01*
X129322285Y-125494142D01*
X129213428Y-125385285D01*
X129322285Y-125276428D01*
X129322285Y-125494142D01*
X129322285Y-124623285D02*
X129213428Y-123317000D01*
X129322285Y-123208142D01*
X129431142Y-123317000D01*
X129322285Y-124623285D01*
X129322285Y-123208142D01*
X132805714Y-125494142D02*
X132805714Y-123208142D01*
X132588000Y-123534714D02*
X133023428Y-123534714D01*
X133350000Y-123643571D01*
X133567714Y-123861285D01*
X133676571Y-124079000D01*
X133676571Y-124514428D01*
X133567714Y-124732142D01*
X133350000Y-124949857D01*
X133023428Y-125058714D01*
X132588000Y-125058714D01*
X132261428Y-124949857D01*
X132043714Y-124732142D01*
X131934857Y-124514428D01*
X131934857Y-124079000D01*
X132043714Y-123861285D01*
X132261428Y-123643571D01*
X132588000Y-123534714D01*
X134547428Y-123970142D02*
X134547428Y-126256142D01*
X134547428Y-124079000D02*
X134765142Y-123970142D01*
X135200571Y-123970142D01*
X135418285Y-124079000D01*
X135527142Y-124187857D01*
X135636000Y-124405571D01*
X135636000Y-125058714D01*
X135527142Y-125276428D01*
X135418285Y-125385285D01*
X135200571Y-125494142D01*
X134765142Y-125494142D01*
X134547428Y-125385285D01*
X137486571Y-125385285D02*
X137268857Y-125494142D01*
X136833428Y-125494142D01*
X136615714Y-125385285D01*
X136506857Y-125167571D01*
X136506857Y-124296714D01*
X136615714Y-124079000D01*
X136833428Y-123970142D01*
X137268857Y-123970142D01*
X137486571Y-124079000D01*
X137595428Y-124296714D01*
X137595428Y-124514428D01*
X136506857Y-124732142D01*
X138792857Y-124732142D02*
X139010571Y-124732142D01*
X138357428Y-124079000D02*
X138575142Y-123970142D01*
X139010571Y-123970142D01*
X139228285Y-124079000D01*
X139337142Y-124296714D01*
X139337142Y-124405571D01*
X139228285Y-124623285D01*
X139010571Y-124732142D01*
X139228285Y-124841000D01*
X139337142Y-125058714D01*
X139337142Y-125167571D01*
X139228285Y-125385285D01*
X139010571Y-125494142D01*
X138575142Y-125494142D01*
X138357428Y-125385285D01*
X140643428Y-125494142D02*
X140425714Y-125385285D01*
X140316857Y-125276428D01*
X140208000Y-125058714D01*
X140208000Y-124405571D01*
X140316857Y-124187857D01*
X140425714Y-124079000D01*
X140643428Y-123970142D01*
X140970000Y-123970142D01*
X141187714Y-124079000D01*
X141296571Y-124187857D01*
X141405428Y-124405571D01*
X141405428Y-125058714D01*
X141296571Y-125276428D01*
X141187714Y-125385285D01*
X140970000Y-125494142D01*
X140643428Y-125494142D01*
X142929428Y-124732142D02*
X143256000Y-124841000D01*
X143364857Y-125058714D01*
X143364857Y-125167571D01*
X143256000Y-125385285D01*
X143038285Y-125494142D01*
X142385142Y-125494142D01*
X142385142Y-123970142D01*
X142929428Y-123970142D01*
X143147142Y-124079000D01*
X143256000Y-124296714D01*
X143256000Y-124405571D01*
X143147142Y-124623285D01*
X142929428Y-124732142D01*
X142385142Y-124732142D01*
X145324285Y-125494142D02*
X145324285Y-124296714D01*
X145215428Y-124079000D01*
X144997714Y-123970142D01*
X144562285Y-123970142D01*
X144344571Y-124079000D01*
X145324285Y-125385285D02*
X145106571Y-125494142D01*
X144562285Y-125494142D01*
X144344571Y-125385285D01*
X144235714Y-125167571D01*
X144235714Y-124949857D01*
X144344571Y-124732142D01*
X144562285Y-124623285D01*
X145106571Y-124623285D01*
X145324285Y-124514428D01*
X146412857Y-124732142D02*
X147392571Y-124732142D01*
X146412857Y-123970142D02*
X146412857Y-125494142D01*
X147392571Y-123970142D02*
X147392571Y-125494142D01*
X149352000Y-125385285D02*
X149134285Y-125494142D01*
X148698857Y-125494142D01*
X148481142Y-125385285D01*
X148372285Y-125167571D01*
X148372285Y-124296714D01*
X148481142Y-124079000D01*
X148698857Y-123970142D01*
X149134285Y-123970142D01*
X149352000Y-124079000D01*
X149460857Y-124296714D01*
X149460857Y-124514428D01*
X148372285Y-124732142D01*
X153162000Y-125385285D02*
X152944285Y-125494142D01*
X152508857Y-125494142D01*
X152291142Y-125385285D01*
X152182285Y-125276428D01*
X152073428Y-125058714D01*
X152073428Y-124405571D01*
X152182285Y-124187857D01*
X152291142Y-124079000D01*
X152508857Y-123970142D01*
X152944285Y-123970142D01*
X153162000Y-124079000D01*
X155883428Y-125494142D02*
X155883428Y-123208142D01*
X156427714Y-123208142D01*
X156754285Y-123317000D01*
X156972000Y-123534714D01*
X157080857Y-123752428D01*
X157189714Y-124187857D01*
X157189714Y-124514428D01*
X157080857Y-124949857D01*
X156972000Y-125167571D01*
X156754285Y-125385285D01*
X156427714Y-125494142D01*
X155883428Y-125494142D01*
X158169428Y-125494142D02*
X158169428Y-123970142D01*
X158169428Y-124405571D02*
X158278285Y-124187857D01*
X158387142Y-124079000D01*
X158604857Y-123970142D01*
X158822571Y-123970142D01*
X159584571Y-125494142D02*
X159584571Y-123970142D01*
X159584571Y-123208142D02*
X159475714Y-123317000D01*
X159584571Y-123425857D01*
X159693428Y-123317000D01*
X159584571Y-123208142D01*
X159584571Y-123425857D01*
X160999714Y-125494142D02*
X160782000Y-125385285D01*
X160673142Y-125167571D01*
X160673142Y-123208142D01*
X162197142Y-125494142D02*
X161979428Y-125385285D01*
X161870571Y-125167571D01*
X161870571Y-123208142D01*
X163068000Y-124623285D02*
X164809714Y-124623285D01*
X165789428Y-125385285D02*
X166116000Y-125494142D01*
X166660285Y-125494142D01*
X166878000Y-125385285D01*
X166986857Y-125276428D01*
X167095714Y-125058714D01*
X167095714Y-124841000D01*
X166986857Y-124623285D01*
X166878000Y-124514428D01*
X166660285Y-124405571D01*
X166224857Y-124296714D01*
X166007142Y-124187857D01*
X165898285Y-124079000D01*
X165789428Y-123861285D01*
X165789428Y-123643571D01*
X165898285Y-123425857D01*
X166007142Y-123317000D01*
X166224857Y-123208142D01*
X166769142Y-123208142D01*
X167095714Y-123317000D01*
X168402000Y-125494142D02*
X168184285Y-125385285D01*
X168075428Y-125167571D01*
X168075428Y-123208142D01*
X169599428Y-125494142D02*
X169381714Y-125385285D01*
X169272857Y-125276428D01*
X169164000Y-125058714D01*
X169164000Y-124405571D01*
X169272857Y-124187857D01*
X169381714Y-124079000D01*
X169599428Y-123970142D01*
X169926000Y-123970142D01*
X170143714Y-124079000D01*
X170252571Y-124187857D01*
X170361428Y-124405571D01*
X170361428Y-125058714D01*
X170252571Y-125276428D01*
X170143714Y-125385285D01*
X169926000Y-125494142D01*
X169599428Y-125494142D01*
X171014571Y-123970142D02*
X171885428Y-123970142D01*
X171341142Y-123208142D02*
X171341142Y-125167571D01*
X171450000Y-125385285D01*
X171667714Y-125494142D01*
X171885428Y-125494142D01*
X172538571Y-125385285D02*
X172756285Y-125494142D01*
X173191714Y-125494142D01*
X173409428Y-125385285D01*
X173518285Y-125167571D01*
X173518285Y-125058714D01*
X173409428Y-124841000D01*
X173191714Y-124732142D01*
X172865142Y-124732142D01*
X172647428Y-124623285D01*
X172538571Y-124405571D01*
X172538571Y-124296714D01*
X172647428Y-124079000D01*
X172865142Y-123970142D01*
X173191714Y-123970142D01*
X173409428Y-124079000D01*
X174498000Y-125276428D02*
X174606857Y-125385285D01*
X174498000Y-125494142D01*
X174389142Y-125385285D01*
X174498000Y-125276428D01*
X174498000Y-125494142D01*
X174498000Y-124623285D02*
X174389142Y-123317000D01*
X174498000Y-123208142D01*
X174606857Y-123317000D01*
X174498000Y-124623285D01*
X174498000Y-123208142D01*
X175586571Y-125276428D02*
X175695428Y-125385285D01*
X175586571Y-125494142D01*
X175477714Y-125385285D01*
X175586571Y-125276428D01*
X175586571Y-125494142D01*
X175586571Y-124623285D02*
X175477714Y-123317000D01*
X175586571Y-123208142D01*
X175695428Y-123317000D01*
X175586571Y-124623285D01*
X175586571Y-123208142D01*
X176675142Y-125276428D02*
X176784000Y-125385285D01*
X176675142Y-125494142D01*
X176566285Y-125385285D01*
X176675142Y-125276428D01*
X176675142Y-125494142D01*
X176675142Y-124623285D02*
X176566285Y-123317000D01*
X176675142Y-123208142D01*
X176784000Y-123317000D01*
X176675142Y-124623285D01*
X176675142Y-123208142D01*
D13*
X150839714Y-91929857D02*
X150476857Y-92183857D01*
X150839714Y-92365285D02*
X150077714Y-92365285D01*
X150077714Y-92075000D01*
X150114000Y-92002428D01*
X150150285Y-91966142D01*
X150222857Y-91929857D01*
X150331714Y-91929857D01*
X150404285Y-91966142D01*
X150440571Y-92002428D01*
X150476857Y-92075000D01*
X150476857Y-92365285D01*
X150839714Y-91204142D02*
X150839714Y-91639571D01*
X150839714Y-91421857D02*
X150077714Y-91421857D01*
X150186571Y-91494428D01*
X150259142Y-91567000D01*
X150295428Y-91639571D01*
X150077714Y-90551000D02*
X150077714Y-90696142D01*
X150114000Y-90768714D01*
X150150285Y-90805000D01*
X150259142Y-90877571D01*
X150404285Y-90913857D01*
X150694571Y-90913857D01*
X150767142Y-90877571D01*
X150803428Y-90841285D01*
X150839714Y-90768714D01*
X150839714Y-90623571D01*
X150803428Y-90551000D01*
X150767142Y-90514714D01*
X150694571Y-90478428D01*
X150513142Y-90478428D01*
X150440571Y-90514714D01*
X150404285Y-90551000D01*
X150368000Y-90623571D01*
X150368000Y-90768714D01*
X150404285Y-90841285D01*
X150440571Y-90877571D01*
X150513142Y-90913857D01*
M02*
