G04 #@! TF.GenerationSoftware,KiCad,Pcbnew,5.1.6-c6e7f7d~87~ubuntu18.04.1*
G04 #@! TF.CreationDate,2022-09-28T14:17:23+03:00*
G04 #@! TF.ProjectId,ESP32-C3-DevKit-Lipo_Rev_B,45535033-322d-4433-932d-4465764b6974,B*
G04 #@! TF.SameCoordinates,Original*
G04 #@! TF.FileFunction,Soldermask,Top*
G04 #@! TF.FilePolarity,Negative*
%FSLAX46Y46*%
G04 Gerber Fmt 4.6, Leading zero omitted, Abs format (unit mm)*
G04 Created by KiCad (PCBNEW 5.1.6-c6e7f7d~87~ubuntu18.04.1) date 2022-09-28 14:17:23*
%MOMM*%
%LPD*%
G01*
G04 APERTURE LIST*
%ADD10R,0.651600X0.601600*%
%ADD11R,1.551600X1.551600*%
%ADD12R,0.501600X0.901600*%
%ADD13R,0.901600X0.501600*%
%ADD14R,0.801600X0.801600*%
%ADD15C,1.501600*%
%ADD16R,1.501600X1.501600*%
%ADD17R,0.901600X0.901600*%
%ADD18R,1.117600X1.117600*%
%ADD19R,1.501600X1.101600*%
%ADD20C,1.254000*%
%ADD21R,3.101600X1.701600*%
%ADD22R,1.301600X0.651600*%
%ADD23R,1.101600X1.501600*%
%ADD24R,0.601600X0.651600*%
%ADD25O,1.601600X1.101600*%
%ADD26C,1.879600*%
%ADD27R,1.879600X1.879600*%
%ADD28C,3.401601*%
%ADD29R,0.751600X1.151600*%
%ADD30R,0.651600X1.301600*%
%ADD31R,0.401600X1.251600*%
%ADD32O,1.301600X2.301600*%
%ADD33C,0.701600*%
%ADD34O,1.401600X2.101600*%
%ADD35R,0.351600X1.251600*%
%ADD36R,1.201600X2.301600*%
%ADD37R,1.201600X2.101600*%
G04 APERTURE END LIST*
D10*
X151638000Y-92964000D03*
X151638000Y-93980000D03*
D11*
X143510000Y-81337000D03*
X145485000Y-83312000D03*
X141535000Y-83312000D03*
X141535000Y-81337000D03*
X145485000Y-81337000D03*
X141535000Y-85287000D03*
X145485000Y-85287000D03*
X143510000Y-83312000D03*
X143510000Y-85287000D03*
D12*
X139510000Y-78412000D03*
X140310000Y-78412000D03*
X141110000Y-78412000D03*
X141910000Y-78412000D03*
X142710000Y-78412000D03*
X143510000Y-78412000D03*
X144310000Y-78412000D03*
X145110000Y-78412000D03*
X145910000Y-78412000D03*
X146710000Y-78412000D03*
X147510000Y-78412000D03*
D13*
X149410000Y-80112000D03*
X149410000Y-80912000D03*
X149410000Y-81712000D03*
X149410000Y-82512000D03*
X149410000Y-83312000D03*
X149410000Y-84112000D03*
X149410000Y-84912000D03*
X149410000Y-85712000D03*
X149410000Y-86512000D03*
D12*
X147510000Y-88212000D03*
X146710000Y-88212000D03*
X145910000Y-88212000D03*
X145110000Y-88212000D03*
X144310000Y-88212000D03*
X143510000Y-88212000D03*
X142710000Y-88212000D03*
X141910000Y-88212000D03*
X141110000Y-88212000D03*
X140310000Y-88212000D03*
X139510000Y-88212000D03*
D13*
X137610000Y-86512000D03*
X137610000Y-85712000D03*
X137610000Y-84912000D03*
X137610000Y-84112000D03*
X137610000Y-83312000D03*
X137610000Y-82512000D03*
X137610000Y-81712000D03*
X137610000Y-80912000D03*
X137610000Y-80112000D03*
X149410000Y-79312000D03*
X149410000Y-87312000D03*
X137610000Y-87312000D03*
X137610000Y-79312000D03*
D12*
X148310000Y-88212000D03*
X148310000Y-78412000D03*
D14*
X137560000Y-78362000D03*
X137560000Y-88262000D03*
X149460000Y-78362000D03*
X149460000Y-88262000D03*
D12*
X138710000Y-78412000D03*
X138710000Y-88212000D03*
D15*
X135872220Y-103870760D03*
D16*
X135869680Y-101841300D03*
D17*
X134366000Y-107314999D03*
X132842000Y-107314999D03*
D18*
X145288000Y-99060000D03*
X145288000Y-100838000D03*
D19*
X140934440Y-97342960D03*
X140934440Y-95440500D03*
X138724640Y-96395540D03*
D20*
X130810000Y-114300000D03*
X130810000Y-78740000D03*
X156210000Y-78740000D03*
D21*
X148209000Y-101149000D03*
X148209000Y-98749000D03*
D22*
X140432000Y-100269000D03*
X140432000Y-101219000D03*
X140432000Y-102169000D03*
X143032000Y-100269000D03*
X143032000Y-102169000D03*
D23*
X148839000Y-103124000D03*
X145039000Y-103124000D03*
D19*
X142875000Y-97785000D03*
X142875000Y-93985000D03*
D18*
X140843000Y-103378000D03*
X142621000Y-103378000D03*
X140335000Y-90424000D03*
X138557000Y-90424000D03*
D24*
X140208000Y-99060000D03*
X141224000Y-99060000D03*
X136779000Y-107315000D03*
X135763000Y-107315000D03*
X143129000Y-99060000D03*
X142113000Y-99060000D03*
D10*
X151638000Y-95123000D03*
X151638000Y-96139000D03*
X151638000Y-99441000D03*
X151638000Y-100457000D03*
X151638000Y-97409000D03*
X151638000Y-98425000D03*
X144653000Y-96266000D03*
X144653000Y-95250000D03*
X144653000Y-93345000D03*
X144653000Y-94361000D03*
D24*
X138557000Y-91694000D03*
X139573000Y-91694000D03*
X153924000Y-106045000D03*
X152908000Y-106045000D03*
D10*
X151638000Y-103251000D03*
X151638000Y-104267000D03*
X152527000Y-93980000D03*
X152527000Y-92964000D03*
D18*
X145923000Y-92329001D03*
X147701000Y-92329001D03*
X134620000Y-86868000D03*
X132842000Y-86868000D03*
D24*
X134239000Y-85471000D03*
X133223000Y-85471000D03*
D25*
X135255000Y-97740000D03*
X135255000Y-96490000D03*
X135255000Y-95240000D03*
X135255000Y-93990000D03*
X135255000Y-92740000D03*
X135255000Y-91490000D03*
D26*
X130810000Y-106680000D03*
X130810000Y-101600000D03*
X130810000Y-104140000D03*
X130810000Y-99060000D03*
X130810000Y-96520000D03*
D27*
X130810000Y-86360000D03*
D26*
X130810000Y-88900000D03*
X130810000Y-91440000D03*
X130810000Y-93980000D03*
X156210000Y-93980000D03*
X156210000Y-91440000D03*
X156210000Y-88900000D03*
D27*
X156210000Y-86360000D03*
D26*
X156210000Y-96520000D03*
X156210000Y-99060000D03*
X156210000Y-104140000D03*
X156210000Y-101600000D03*
X156210000Y-106680000D03*
D17*
X154178000Y-107315000D03*
X152654000Y-107315000D03*
D28*
X133350000Y-111760000D03*
X153670000Y-111760000D03*
X153670000Y-81280000D03*
X133350000Y-81280000D03*
D18*
X148463000Y-105156000D03*
X146685000Y-105156000D03*
X142621000Y-105156000D03*
X140843000Y-105156000D03*
D24*
X134239000Y-88265000D03*
X133223000Y-88265000D03*
D29*
X151452000Y-89832000D03*
X151452000Y-85682000D03*
X153602000Y-89832000D03*
X153602000Y-85682000D03*
D30*
X147762000Y-93949999D03*
X145862000Y-93949999D03*
X147762000Y-96549999D03*
X146812000Y-96549999D03*
X145862000Y-96549999D03*
D31*
X147724000Y-107320000D03*
X141074000Y-107320000D03*
X147474000Y-107320000D03*
X141324000Y-107320000D03*
X146924000Y-107320000D03*
X141874000Y-107320000D03*
X146674000Y-107320000D03*
X142124000Y-107320000D03*
D32*
X140079000Y-108222000D03*
D33*
X141509000Y-108722000D03*
D34*
X140079000Y-112402000D03*
X148719000Y-112402000D03*
D32*
X148719000Y-108222000D03*
D35*
X144149000Y-107320000D03*
X145149000Y-107320000D03*
X145649000Y-107320000D03*
X144649000Y-107320000D03*
X146149000Y-107320000D03*
X143649000Y-107320000D03*
X143149000Y-107320000D03*
X142649000Y-107320000D03*
D33*
X147289000Y-108722000D03*
D36*
X139471400Y-108222000D03*
D37*
X139471400Y-112402000D03*
D36*
X149326600Y-108222000D03*
D37*
X149326600Y-112402000D03*
D10*
X151638000Y-92075000D03*
X151638000Y-91059000D03*
M02*
